<?xml version="1.0" encoding="UTF-8"?>
<svg id="Calque_1" data-name="Calque 1" xmlns="http://www.w3.org/2000/svg" viewBox="0 0 1280 850">
  <defs>
    <style>
      .cls-1, .cls-2, .cls-3 {
        fill: #fff;
      }

      .cls-2 {
        opacity: 0;
      }

      .cls-3 {
        opacity: .59;
      }
    </style>
  </defs>
  <polygon class="cls-2" points="278.77 359.91 269.64 363.84 261.36 366.93 255.04 369.88 245.91 372.69 237.2 375.49 219.79 381.25 208.84 385.18 192.83 390.52 182.44 394.87 176.82 396.98 169.24 400.35 159.55 404.28 150.56 408.78 141.85 413.13 134.83 416.92 126.69 421.7 118.68 426.05 110.54 431.67 105.2 434.76 100.85 437.28 96.77 440.94 91.02 446.55 84.84 452.31 82.45 455.12 78.52 459.89 73.6 466.63 69.39 473.37 67 478.15 64.9 483.35 62.79 488.26 61.05 494.7 59.9 502.44 58.75 510.18 57.76 516.43 57.76 522.03 60.72 530.09 63.03 535.03 66.16 542.77 69.61 549.19 74.39 558.08 79.32 565.98 81.96 570.26 85.58 573.39 89.2 576.68 92.49 577.5 98.09 581.78 102.21 584.75 105.83 584.75 109.45 587.38 112.86 588.79 117.12 590.34 121.77 591.8 130.78 591.02 138.44 590.15 147.26 589.28 154.81 588.31 159.08 588.11 165.18 586.27 178.94 582.11 188.24 577.75 195.41 575.13 202.2 572.9 216.44 567.86 226.9 564.66 235.33 560.98 244.15 557.69 251.9 555.17 259.75 551.87 267.21 548.39 276.23 544.9 282.43 542.38 291.05 539.57 297.68 536.27 305.17 533.85 314.11 529.26 322.82 525.15 331.52 520.8 338.04 518.38 346.26 514.03 355.69 509.92 363.18 506.06 368.74 502.92 373.81 498.57 377.68 495.18 380.82 492.04 384.21 489.38 390.73 486.96 394.6 485.27 399.92 481.4 403.06 475.85 404.99 472.7 398.22 464.73 387.83 454.58 382.27 448.78 375.99 444.91 369.46 441.04 362.94 437.42 359.55 434.03 356.89 429.68 351.58 425 349.4 422.67 345.29 420.26 341.67 417.36 339.49 413 338.77 408.9 334.18 410.35 330.55 407.93 326.44 403.34 325.23 400.2 316.29 392.7 306.14 384 298.89 378.2 291.88 371.43 284.87 364.42 278.77 359.91"/>
  <polygon class="cls-2" points="313.5 348.3 319.48 346.09 325.85 343.88 333.25 341.41 338.06 338.94 341.83 337.77 344.69 336.73 348.84 333.35 353.52 328.68 358.72 324.91 363.79 322.05 368.2 318.67 373.53 314.9 380.81 310.62 384.97 308.15 390.16 304.77 395.49 301.13 400.3 297.88 401.99 296.32 406.27 295.41 410.95 293.2 415.11 290.74 418.62 288.14 421.5 285.95 424.05 284.25 426.03 286.61 428.3 290.68 429.63 294.27 430.76 296.82 432.84 299.09 437.28 300.98 440.31 302.02 444.28 302.02 449.1 300.89 454.39 299.47 458.36 298.24 460.25 295.69 461.67 292.85 463.18 290.3 463.18 287.56 461.86 284.63 460.54 282.55 458.74 281.89 456.85 281.32 456.57 277.35 455.91 274.04 455.24 271.96 459.31 270.07 466.3 267.52 472.64 264.78 480.11 261.85 484.64 260.24 489.56 258.35 493.43 256.74 500.05 255.14 506.29 253.43 511.58 251.73 515.74 251.18 521.3 251.18 528.35 252.47 534.89 254.35 540.55 256.14 544.72 260.41 546.31 264.87 548.09 269.24 552.76 272.91 558.21 276.78 559.71 277.17 558.3 274.87 557.68 272.57 559.71 271.06 562.19 269.56 564.4 267.87 567.06 268.49 570.51 269.64 574.59 270.44 577.68 273.45 580.25 277.61 584.68 283.81 587.33 289.48 592.47 299.13 595.3 304.97 597.17 308.78 597.85 315.09 597.85 319.52 594.61 323.78 591.04 329.57 588.48 333.14 583.54 337.91 579.28 340.81 577.58 345.24 575.88 350.18 574.34 355.12 567.36 369.6 563.1 377.44 557.99 386.29 553.56 393.11 549.3 398.56 544.36 403.5 538.91 408.44 533.97 411.85 527.5 416.96 521.87 420.02 516.25 423.43 510.97 426.16 506.71 429.05 502.8 431.95 499.05 434.84 495.13 435.87 490.87 439.27 486.61 441.83 482.01 441.83 477.92 442.68 472.3 444.72 466.34 446.6 461.55 446.6 457.3 446.6 450.85 446.6 449.17 447.45 446.72 446.94 443.63 445.78 438.47 445.65 434.35 446.29 429.32 443.33 421.07 437.91 413.21 433.02 406.37 427.86 402.63 425 402.38 422.57 396.06 416.77 389.48 410.2 382.91 405.17 378.53 402.33 373.89 398.85 371.18 398.21 368.47 394.99 364.86 391.25 361.38 389.57 358.42 389.06 355.97 389.06 355.71 383.77 353.9 381.58 350.16 378.74 346.43 376.68 344.11 377.07 339.21 371.39 333.15 366.37 326.57 359.91 320.26 354.12 313.5 348.3"/>
  <polygon class="cls-1" points="433.14 284.25 436.95 281.25 440.99 278.89 444.27 277.27 446.75 275.77 449 274.45 451.54 274.16 452.93 275.37 453.56 278.83 453.56 281.95 453.22 285 454.37 286.74 455.68 287.31 456.68 289.22 455.93 291.64 453.79 293.02 451.49 294.52 448.31 295.85 444.91 296.25 441.51 296.25 439.2 295.79 437.06 294.35 434.64 292.22 433.37 290.02 432.85 288.24 433.14 284.25"/>
  <polygon class="cls-2" points="720.04 458.18 720.04 463.63 719.05 469.23 719.05 472.37 719.05 474.84 721.59 476.69 727.48 476.69 734.38 474.84 740.78 474.5 747.51 474.84 757.11 473.83 769.4 470.63 781.19 465.58 787.25 461.37 799.37 456.65 810.31 450.93 814.52 449.58 826.31 443.02 837.25 436.95 845.16 432.41 853.41 427.19 860.82 422.81 868.74 418.6 879.68 412.21 890.45 405.98 900.22 400.42 909.48 395.37 919.08 389.31 926.32 385.44 933.72 381.06 939.78 377.52 943.32 374.15 948.88 370.11 958.98 364.89 963.52 362.71 969.42 359.84 976.82 355.63 984.06 351.76 989.79 347.22 995.18 342 999.39 335.77 1002.58 331.22 1006.12 322.64 1008.98 315.23 1011.68 309.5 1015.55 301.59 1019.59 295.87 1022.45 290.65 1024.98 286.94 1027 284.08 1025.82 281.89 1019.08 281.89 1012.69 282.73 1008.31 281.89 1000.73 282.9 994.17 284.42 987.6 286.1 981.71 287.45 975.48 288.29 971.94 288.63 969.75 287.45 967.06 287.78 964.03 290.14 959.65 293.51 953.25 296.54 947.7 299.4 942.65 302.6 935.58 306.98 930.86 309.5 924.63 311.86 916.21 316.74 904.77 323.65 896.01 328.36 888.77 333.07 880.18 337.45 873.02 341.83 863.68 347.05 851.73 354.62 840.96 360.85 829.68 367.93 818.23 375.5 808.46 382.74 801.9 387.12 792.13 393.35 784.05 398.57 775.13 405.13 767.04 410.86 760.14 415.91 750.54 423.65 744.99 428.2 739.26 432.91 733.71 438.81 728.49 444.03 724.28 449.24 721.42 453.29 720.24 455.81 720.04 458.18"/>
  <polygon class="cls-1" points="987.73 267.1 984.74 269.31 983.7 271.26 983.05 274.65 983.7 276.34 986.17 275.43 989.04 273.61 989.95 271.72 989.95 269.96 987.73 267.1"/>
  <polygon class="cls-2" points="995.02 261.5 1007.39 253.82 1019.89 246.53 1031.47 240.15 1045.14 232.08 1054.91 226.61 1072.31 217.24 1082.78 211.23 1090.92 206.57 1097.9 203.28 1101.78 201.92 1108.18 201.92 1112.83 203.47 1118.07 203.86 1129.9 204.63 1141.72 204.83 1146.38 205.99 1150.84 209.68 1157.04 212.97 1166.35 218.6 1171.27 217.86 1174.4 217.16 1183.42 220.29 1188.63 222.37 1193.14 225.84 1194.43 227.62 1188.99 226.88 1183.87 227.13 1179.83 228.78 1183.62 233.81 1186.84 238.85 1188.24 243.72 1188.08 247.1 1183.37 247.59 1180.4 249 1177.76 251.89 1173.72 254.03 1169.1 256.01 1164.15 258.74 1158.95 261.5 1154.91 263.03 1151.77 262.37 1149.05 263.44 1146.41 264.59 1142.11 266.16 1138.15 268.22 1135.76 270.54 1133.62 271.77 1122.89 277.47 1117.77 280.36 1113.81 282.58 1108.36 279.6 1102.73 277.07 1093.43 274.43 1086.42 272.82 1079.07 270.98 1070.45 268.8 1062.98 267.31 1055.52 266.39 1047.59 265.24 1039.32 264.66 1029.89 265.01 1023.12 266.04 1019.44 266.73 1013.24 267.77 1008.07 269.03 1003.47 270.29 999.45 271.72 995.77 272.82 993.7 273.05 993.7 267.1 995.02 261.5"/>
  <polygon class="cls-2" points="787.41 579.1 795.33 579.1 800.61 579.1 807.12 578.04 814.68 576.46 823.83 573.64 831.22 570.3 840.37 566.78 849.7 562.73 859.55 558.51 869.4 554.11 873.8 552.53 882.25 548.48 892.81 544.08 905.12 538.8 912.87 535.64 921.14 531.94 931.52 527.54 942.95 522.09 949.46 519.8 955.62 516.98 962.48 514.7 969.17 511.88 974.41 509.61 979.8 507.81 985.19 506.38 987.58 506.38 989.38 508.05 990.57 508.77 994.64 506.97 1001.71 503.86 1007.45 501.35 1011.4 499.19 1013.56 496.8 1013.56 494.05 1013.56 492.61 1017.03 491.41 1024.81 488.78 1032.23 488.18 1037.02 488.18 1041.21 488.18 1038.22 490.69 1033.55 493.57 1028.4 495.96 1022.78 499.19 1017.63 501.71 1008.05 505.78 999.07 509.49 990.21 513.44 978.48 518.47 965.43 523.25 952.03 528.52 941.73 532.71 931.44 536.3 921.26 539.3 913.72 542.53 905.58 546.6 898.88 549.83 892.89 552.46 885.71 555.93 878.89 558.21 872.42 560.36 865.84 562.76 858.42 564.91 852.19 567.55 847.16 569.58 842.14 572.1 837.23 574.01 831.12 575.93 826.21 576.88 820.95 577.6 815.2 579.1 811.25 580.12 805.98 580.83 798.92 581.31 792.82 581.31 789.58 580.71 787.41 580.12 787.41 579.1"/>
  <polygon class="cls-2" points="1159 415.49 1162.19 413.26 1166.17 410.71 1169.83 408.32 1174.14 405.78 1176.68 404.66 1179.23 405.62 1181.15 407.21 1182.74 407.69 1185.45 406.41 1190.07 402.75 1193.57 399.88 1196.28 397.01 1198.35 395.26 1198.35 390.48 1201.86 387.29 1205.05 383.79 1207.91 380.76 1212.53 377.26 1215.88 374.39 1219.07 370.72 1222.25 367.38 1223.69 366.26 1222.25 370.25 1220.98 375.66 1219.07 382.19 1216.68 388.25 1214.13 394.14 1211.42 399.56 1208.55 404.18 1205.05 408.01 1200.42 410.71 1196.12 412.79 1191.34 414.54 1185.61 417.41 1180.99 419.96 1176.21 422.98 1169.67 426.97 1164.89 429.2 1159 432.7 1153.1 435.57 1145.3 439.71 1140.04 443.22 1135.1 446.09 1129.52 449.11 1123.95 451.03 1129.2 447.04 1135.26 442.42 1141.31 437.48 1145.3 433.5 1148.8 429.68 1151.67 426.81 1154.22 423.62 1156.61 420.59 1158.2 417.88 1159 415.49"/>
  <polygon class="cls-2" points="229.49 320.29 223.11 322.77 216.97 325.84 210.72 328.91 201.27 332.81 194.66 335.99 186.51 339.77 179.07 343.31 171.52 346.97 164.67 350.4 155.46 354.65 146.72 358.78 140.35 361.97 132.32 366.1 146.37 359.91 154.16 356.66 161.13 353.35 168.92 349.81 177.66 346.15 185.69 343.2 192.77 340.24 199.97 337.65 205.4 335.4 211.78 332.45 218.86 329.26 222.88 327.49 227.95 325.37 231.38 323.6 231.38 322.06 229.49 320.29"/>
  <polygon class="cls-2" points="297.89 281.37 290.79 285.32 286.32 287.29 283.56 288.87 281.06 290.97 278.3 293.6 276.07 295.84 273.57 298.07 270.54 300.83 268.31 303.33 266.21 305.83 263.97 307.4 261.34 308.85 258.19 310.56 256.48 311.35 254.77 309.38 253.06 306.48 251.88 305.17 255.69 304.78 258.06 303.72 261.08 301.23 263.71 298.07 267.52 295.05 271.6 292.29 276.2 289.79 280.67 287.29 284.74 285.45 289.21 283.48 293.02 282.29 295.39 281.37 297.89 281.37"/>
  <polygon class="cls-2" points="121.77 591.8 111.34 591.8 106.36 589.49 100.79 586.27 93.96 582.66 87.51 578.55 82.34 575.23 78.53 571.13 73.36 566.25 68.38 560.69 64.28 555.22 60.17 547.89 56.4 538.79 52.95 530.66 49.99 521.04 48.02 513.89 45.8 505.75 47.77 500.82 49.5 494.9 50.73 487.75 52.7 481.83 55.17 474.68 58.87 467.77 62.57 461.61 66.76 456.18 69.47 450.76 76.13 443.11 82.05 437.44 88.8 429.52 93.42 425 96.74 421.58 97.32 418.4 95.3 414.93 92.12 408.72 89.38 402.37 87.06 397.6 85.33 395.87 82.88 396.73 79.26 400.34 73.05 407.13 68 413.49 64.1 417.39 60.2 422.88 56.44 429.09 52.98 435.44 49.65 441.65 46.62 447.86 44.17 453.93 41.13 460.14 42.29 453.06 44.46 445.26 46.48 439.49 49.22 434.14 52.11 428.94 54.42 425 57.76 419.84 61.64 414.79 66.27 409.01 71.9 403.09 77.68 397.31 84.75 391.68 93.56 385.9 101.51 380.7 113.35 374.06 122.89 369.29 132.32 366.1 146.37 359.91 154.16 356.66 161.13 353.35 168.92 349.81 177.66 346.15 185.69 343.2 192.77 340.24 199.97 337.65 205.4 335.4 211.78 332.45 218.86 329.26 221.47 328.11 224.72 330.72 230.49 335.92 235.98 339.97 240.6 343.2 244.36 346.76 249.7 351.67 253.17 354.56 256.06 357.73 258.66 361.92 261.36 366.93 255.04 369.88 245.91 372.69 237.2 375.49 219.79 381.25 208.84 385.18 192.83 390.52 182.44 394.87 176.82 396.98 169.24 400.35 159.55 404.28 150.56 408.78 141.85 413.13 134.83 416.92 126.69 421.7 118.68 426.05 110.54 431.67 105.2 434.76 100.85 437.28 96.77 440.94 91.02 446.55 84.84 452.31 82.45 455.12 78.52 459.89 73.6 466.63 69.39 473.37 67 478.15 64.9 483.35 62.79 488.26 61.05 494.7 59.9 502.44 58.75 510.18 57.76 516.43 57.76 522.03 60.72 530.09 63.03 535.03 66.16 542.77 69.61 549.19 74.39 558.08 79.32 565.98 81.96 570.26 85.58 573.39 89.2 576.68 92.49 577.5 98.09 581.78 102.21 584.75 105.83 584.75 109.45 587.38 112.86 588.79 117.12 590.34 121.77 591.8"/>
  <polygon class="cls-2" points="263.97 307.4 266.21 305.83 268.31 303.33 270.54 300.83 273.57 298.07 276.07 295.84 278.3 293.6 280.04 291.94 284.14 292.96 288.7 294.23 292.96 296.15 296.72 297.87 300.94 300.9 305.04 303.89 309.44 307.11 313.69 310.54 317.91 313.89 321.05 317.03 325.01 320.08 327.48 323.57 332.33 329.53 335.82 335.91 338.06 338.94 333.25 341.41 325.85 343.88 319.48 346.09 313.5 348.3 308.84 344.68 305.87 340.17 302.8 335.15 299.23 331.83 295.14 329.1 290.46 325.78 285.44 322.47 281.36 320.12 276.85 317.1 272.51 314.3 268 311.35 265.36 309.11 263.97 307.4"/>
  <polygon class="cls-2" points="720.04 458.18 717.01 463.16 714.49 468.61 712.89 473.4 713.56 477.92 716.46 484.71 721.67 494.28 728.19 508.12 735.24 522.09 741.62 534.75 751.6 554.01 756.92 565.18 759.98 569.31 762.64 572.37 765.17 574.23 769.69 576.09 773.42 577.69 779.8 579.02 787.41 580.12 787.41 579.1 795.33 579.1 800.61 579.1 807.12 578.04 814.68 576.46 823.83 573.64 831.22 570.3 840.37 566.78 849.7 562.73 859.55 558.51 869.4 554.11 873.8 552.53 882.25 548.48 892.81 544.08 905.12 538.8 912.87 535.64 921.14 531.94 931.52 527.54 942.95 522.09 949.46 519.8 955.62 516.98 962.48 514.7 969.17 511.88 974.41 509.61 979.8 507.81 985.19 506.38 987.2 504.87 989.39 503.77 986.28 502.12 982.81 499.56 980.06 497 976.96 493.71 974.4 488.18 972.93 484.2 971.84 479.08 971.84 473.96 971.84 471.22 972.93 468.66 969.82 467.56 966.71 465.55 962.69 461.71 959.95 458.18 957.79 455.37 954.53 450.05 952.17 444.31 950.93 437.16 949.39 431.43 948.21 425 948.03 419.55 947.62 413.34 946.85 408.91 946.97 402.34 947.32 395.78 948.37 390.78 949.34 386.92 951.36 383.5 948.99 380.26 946.88 377.63 945.04 376.14 942.76 376.14 941.24 376.14 939.78 377.52 933.72 381.06 926.32 385.44 919.08 389.31 909.48 395.37 900.22 400.42 890.45 405.98 879.68 412.21 868.74 418.6 860.82 422.81 853.41 427.19 845.16 432.41 837.25 436.95 826.31 443.02 814.52 449.58 810.31 450.93 799.37 456.65 787.25 461.37 781.19 465.58 769.4 470.63 757.11 473.83 747.51 474.84 734.38 474.84 727.48 476.69 721.59 476.69 719.05 474.84 719.05 472.37 719.05 469.23 720.04 463.63 720.04 458.18"/>
  <polygon class="cls-2" points="955.06 387.92 953.88 392.88 952.71 399.64 952.08 406.41 952.53 413.71 953.16 422.19 954.34 428.5 956.5 436.17 957.76 442.21 958.84 446.45 960.83 451.14 963.44 454.84 967.86 459.98 971.11 462.5 973.91 463.5 976.34 463.5 975.35 460.7 975.71 459.08 976.34 457.18 974.27 456.37 973.28 454.39 973.46 452.31 974.9 450.51 977.33 448.79 980.67 447.98 984.55 447.71 987.34 447.71 988.43 449.43 988.43 451.68 987.52 453.21 988.43 454.75 990.59 455.29 991.22 457.72 995.01 457.36 999.43 455.92 1004.21 453.94 1010.97 450.87 1015.48 448.25 1019.45 446.09 1021.26 444.38 1023.69 439.05 1025.86 433.91 1027.84 427.69 1029.1 422.19 1030.91 416.24 1032.17 410.46 1032.17 406.05 1027.69 401.79 1023.61 398.35 1019.74 395.02 1016.62 392.76 1012.33 389.54 1008.03 386.53 1003.41 384.06 999.11 381.59 994.6 379.29 990.95 378.37 987.4 377.08 984.61 376.14 982.11 375.86 978.95 375.55 976.14 375.27 972.85 377.04 968.94 379.43 964.46 382.21 960.67 384.6 957.87 386.5 955.06 387.92"/>
  <polygon class="cls-2" points="977.85 469.24 979.58 469.24 981.11 473.47 983.25 477.79 984.05 482.4 984.84 486.62 985.5 487.87 988.27 487.69 991.39 486.97 994.54 485.62 997.17 484.34 998.1 482.16 997.55 479.39 996.06 475.68 994.78 471.56 993.12 468.2 991.7 465.16 996.62 465.16 1001.57 465.16 1004.61 464.52 1007.54 463.65 1009.98 462.79 1011.9 461.89 1013.96 460.5 1016.44 458.58 1018.96 456.55 1020.87 454.54 1022.38 452.15 1023.62 450.1 1024.87 448.66 1026.52 447.38 1026.3 449.84 1025.46 453.07 1024.54 457.14 1023.55 460 1022.49 463.93 1020.46 470.03 1018.91 474.23 1016.66 479.22 1014.46 483.37 1011.62 487.62 1009.92 489.06 1006.62 491.86 1002.43 494.26 999.13 495.86 995.73 496.76 993.49 497.35 990.94 497.8 989.39 497.8 987.29 497.45 985.39 496.22 983.66 494.36 981.16 491.57 978.71 488.18 977.35 484.77 976.4 480.87 975.95 477.33 975.95 474.18 975.95 470.48 976.65 469.14 977.85 469.24"/>
  <polygon class="cls-3" points="1041.16 412.9 1042.69 413.8 1041.93 416.42 1041.03 418.71 1039.87 420.94 1039.21 421.27 1039.21 419.11 1040.07 415.76 1041.16 412.9"/>
  <polygon class="cls-1" points="1043.42 406.94 1044.52 406.94 1045.4 400.8 1045.69 396.36 1045.69 392.24 1044.55 397.57 1043.67 402.57 1042.9 405.95 1042.9 406.68 1043.42 406.94"/>
  <polygon class="cls-2" points="1013.56 492.61 1017.03 491.41 1024.81 488.78 1031 486.33 1037.61 483.49 1043.07 480.87 1049 478.13 1055.26 474.83 1061.81 471.81 1066.76 468.97 1071.26 466.29 1076.04 463.5 1082.99 460.08 1088.26 456.58 1091.45 454.66 1093.16 453.6 1093.16 451.68 1089.65 450.3 1085.82 449.34 1083.74 448.15 1080.72 446 1076.83 442.69 1072.54 439.09 1067.77 435.01 1062.71 430.72 1058.43 427.02 1054.83 423.91 1051.91 421.27 1048.72 419.38 1046.49 417.47 1045.74 419.92 1044.73 423.16 1043.46 425.81 1042.08 428.73 1040.32 431.55 1038.62 434.42 1036.82 436.92 1034.43 439.68 1033.19 441.49 1032.61 444.19 1031.01 449.78 1029.72 455.04 1028.18 459.87 1026.52 465.65 1025.1 470.01 1023.3 475.02 1021.05 480.1 1018.8 484.98 1017.13 488.18 1015.85 490.57 1013.56 492.61"/>
  <polygon class="cls-2" points="1094.98 446.86 1090.99 445.67 1087.76 445.25 1085.21 443.46 1080.37 439.47 1074.94 435.31 1070.94 431.91 1066.78 428.51 1061.86 424.1 1058.29 420.87 1054.64 417.47 1051.75 415.01 1049.71 412.9 1047.84 411.61 1048.52 406.94 1049.03 402.01 1049.32 392.74 1049.32 386.97 1049.11 381.83 1048.48 377.85 1047.84 374.07 1047.84 369.46 1048.37 366.26 1049.32 362.22 1050.26 357.29 1050.89 351.42 1051.1 346.28 1051.42 341.87 1054.04 340.09 1059.6 337.05 1061.69 341.25 1065.15 346.91 1068.51 352.57 1071.41 358.65 1074.07 364.84 1077.63 373.65 1079.52 377.64 1082.67 386.45 1085.71 394.1 1087.91 400.39 1088.96 406.94 1090.11 411.19 1091.79 417.47 1092.74 422.21 1093.68 428.92 1094.52 434.58 1094.98 438.67 1095.46 443.18 1094.98 446.86"/>
  <polygon class="cls-2" points="966.72 362.78 974.13 358.65 982.11 354.33 987.37 351.04 992.12 347.66 998.17 344.09 1004.08 340.53 1011.12 336.3 1016.1 333.77 1021.35 330.67 1028.3 326.82 1033.28 324.19 1037.87 321.94 1040.41 320.91 1042.58 319.37 1044.36 318.43 1047.53 321.29 1050.13 323.32 1051.9 325.24 1052.71 326.26 1050.36 327.67 1049.7 330.39 1047.84 333.02 1044.3 336.02 1041.99 339.96 1039.21 341.1 1036.83 342.11 1034.68 343.25 1033.82 345.26 1034.53 348.41 1035.97 350.42 1039.21 351.85 1039.84 357.87 1040.27 362.03 1039.21 368.62 1037.97 376.14 1037.11 384.1 1036.11 391.27 1034.96 397.57 1034.82 401.01 1030.66 398.29 1024.93 393.99 1019.05 389.12 1013.56 385.1 1008.59 381.52 1003.14 378.51 998.27 376.14 993.25 374.07 988.67 372.92 983.51 371.2 979.35 370.05 973.05 369.34 970.18 366.9 966.72 362.78"/>
  <polygon class="cls-1" points="394.1 236.73 396.92 235.47 399.73 234.69 402.35 233.92 406.23 233.92 410.1 233.92 408.36 235.86 405.93 237.31 403.41 238.57 400.5 239.54 396.43 238.38 394.1 236.73"/>
  <polygon class="cls-2" points="409.11 229.54 418.1 230.58 422.48 229.54 427.08 227.76 423.37 226.12 418.1 226.57 413.72 227.46 408.07 228.87 409.11 229.54"/>
  <polygon class="cls-2" points="280.04 291.94 281.06 290.97 283.56 288.87 286.32 287.29 290.79 285.32 297.89 281.37 303.81 276.71 308.6 273.55 314.27 270.72 320.05 267.99 326.47 265.27 333.01 262.11 338.06 259.49 342.6 257.21 347.51 255.35 351.97 252.63 355.46 251.18 358.29 251.18 358.29 253.17 356.66 255.79 352.52 258.4 349.58 260.91 347.18 262.65 344.78 263.64 341.95 264.18 340.1 264.62 337.48 266.47 335.74 268.76 333.78 271.56 331.49 274.2 329.09 276.71 326.26 277.91 323.1 279.98 319.83 282.16 316.45 284.12 313.5 285.54 310.57 287.61 307.51 289.02 304.79 288.15 302.39 289.02 300.21 290.33 297.89 292.62 295.53 294.58 292.96 296.15 288.7 294.23 284.14 292.96 280.04 291.94"/>
  <polygon class="cls-2" points="321.05 317.03 326.7 311.35 332.89 306.08 338.06 301.79 342.74 297.81 348.15 291.94 345.6 289.55 344.02 288.28 348.15 286.37 352.75 283.51 357.2 281.37 358.29 279.54 359.11 276.68 361.65 274.93 367.05 271.6 371.19 267.94 374.84 266.99 380.08 263.81 383.1 261.43 385.96 260.63 391.21 257.46 395.02 260.95 399.95 264.61 403.76 266.83 407.57 268.74 410.91 270.17 414.4 270.8 418.06 271.12 418.06 276.36 421.87 281.37 424.05 284.25 421.5 285.95 418.62 288.14 415.11 290.74 410.95 293.2 406.27 295.41 401.99 296.32 400.3 297.88 395.49 301.13 390.16 304.77 384.97 308.15 380.81 310.62 373.53 314.9 368.2 318.67 363.79 322.05 358.72 324.91 353.52 328.68 348.84 333.35 344.69 336.73 341.83 337.77 338.06 338.94 335.82 335.91 332.33 329.53 327.48 323.57 325.01 320.08 321.05 317.03"/>
  <polygon class="cls-2" points="395.12 254.02 398.72 257.46 401.67 260.25 405.44 263.04 408.72 264.6 411.67 265.74 414.21 266.56 417 266.89 418.07 265.5 421.1 264.6 425.36 262.88 429.05 260.99 432.85 259.6 436.92 258.37 442.62 255.99 441.11 250.81 440.12 247.56 439.4 245.24 438 242.26 436.42 239.54 435.18 238.38 431.53 240.63 426.58 242.88 420.85 245.52 417.53 247.09 414.38 248.56 410.84 250.02 407.41 251.18 404.21 252.15 400.95 252.64 398.08 253.22 395.12 254.02"/>
  <polygon class="cls-2" points="450.03 260.92 448.24 256.64 446.58 252.64 445.75 249.61 445.05 247.24 444.22 244.81 443.13 242.19 443.13 240.98 447.29 241.68 452.66 243.21 457.9 244.56 463.08 245.32 469.47 245.96 474.9 246.41 480.64 247.16 482.06 248.27 484.3 251.18 486.86 253.51 488.78 256.06 489.56 258.35 484.64 260.24 480.11 261.85 472.64 264.78 466.3 267.52 459.31 270.07 455.24 271.96 457.13 269.23 457.07 266.89 455.68 265.01 454.06 263.54 452.08 262.27 450.03 260.92"/>
  <polygon class="cls-2" points="441.3 235.26 447.14 233.42 451.9 231.92 456.07 230.92 460.41 230.58 465.17 229.5 469.67 229.09 474.68 229.09 480.27 230.17 484.94 230.92 487.86 231.17 491.28 232.17 493.53 234.26 495.62 236.73 498.12 238.85 494.2 239.54 488.61 240.1 484.36 240.98 481.02 240.98 480.35 242.02 472.09 240.98 466.83 240.18 461.33 239.54 455.32 238.38 450.73 237.6 446.89 237.18 442.62 236.73 441.3 235.26"/>
  <polygon class="cls-2" points="496.08 230.58 498.92 233.06 501.88 235.55 504.12 238.38 505.19 240.98 508.5 244.65 510.74 247.72 511.58 251.73 515.74 251.18 521.3 251.18 528.35 252.47 534.89 254.35 540.55 256.14 535.57 250.68 530.6 245.71 526.82 242.02 522.92 238.38 517.72 234.72 515.35 232.71 510.27 232.12 503.88 230.58 499.75 230.58 496.08 230.58"/>
  <polygon class="cls-2" points="1049.92 336.65 1055.89 332.13 1057.03 333.8 1054.03 335.25 1051.61 336.12 1049.92 336.65"/>
  <polygon class="cls-2" points="1052.71 326.26 1055.08 325 1053.89 323.32 1052.71 321.22 1050.74 319.34 1048.44 318.01 1046.48 317.59 1044.36 318.43 1047.53 321.29 1050.13 323.32 1051.9 325.24 1052.71 326.26"/>
  <polygon class="cls-2" points="1055.89 332.13 1057.8 329.96 1061.23 327.52 1065.98 325.21 1069.13 323.6 1073.04 321.92 1076.19 320.32 1078.22 319.9 1082.41 320.39 1085.35 321.64 1090.24 324.16 1095.46 327.24 1099.8 330.49 1104.03 333.28 1106.9 335.47 1110.38 337.99 1113.65 340.72 1117.41 343.86 1120.61 346.59 1123.14 348.91 1125.52 351.77 1121.84 353.89 1118.57 354.64 1116.93 355.8 1115.22 357.09 1113.04 357.43 1110.17 356.28 1108.74 355.05 1105.6 355.18 1103.22 356.41 1100.96 357.84 1098.71 359.21 1096.8 360.57 1095.1 361.94 1094.89 363.64 1094.14 365.62 1093.05 366.85 1090.71 368.83 1087.46 370.4 1084.18 371.69 1081.32 372.72 1077.63 373.65 1074.07 364.84 1071.41 358.65 1068.51 352.57 1065.15 346.91 1061.69 341.25 1059.6 337.05 1061.19 336.01 1061.33 334.39 1060.85 333.22 1059.62 332.6 1058.12 333.15 1057.03 333.8 1055.89 332.13"/>
  <polygon class="cls-2" points="1067.89 306.39 1071.65 304.7 1076.44 302.91 1080.42 301.72 1083.6 300.92 1086.68 299.04 1089.86 296.65 1094.54 293.86 1098.02 291.88 1102.39 289.19 1105.47 287.1 1108.46 285.31 1113.81 282.58 1117.77 280.36 1122.89 277.47 1133.62 271.77 1137.09 271.77 1138.98 272.19 1140.47 275.37 1141.67 278.35 1139.28 281.54 1137.79 284.42 1136.1 289.08 1135.2 293.17 1134.61 298.34 1134.01 305.4 1134.11 311.26 1134.21 317.59 1134.71 322.4 1135.4 327.77 1135.7 333.14 1136.1 338.91 1136.1 344.27 1136.59 347.46 1134.31 348.65 1132.62 347.36 1130.23 348.65 1129.14 350.04 1126.95 347.56 1124.37 344.67 1120.59 341.39 1116.51 337.71 1112.83 334.39 1109.65 332.13 1105.77 329.06 1102.09 326.68 1097.12 323.49 1093.24 321.11 1089.96 319.22 1086.09 317.13 1083.1 315.84 1080.12 314.74 1077.54 314.25 1074.95 314.35 1072.07 311.96 1069.68 309.67 1067.89 308.38 1067.89 306.39"/>
  <polygon class="cls-2" points="1145.47 282.58 1148.24 281.11 1152.57 279.12 1156.2 277.56 1159.49 277.04 1162.43 277.65 1167.19 282.58 1170.48 287.08 1173.16 291.84 1176.28 296.95 1179.14 302.48 1181.65 308.28 1183.9 313.91 1185.37 317.37 1187.7 323.43 1184.5 325.68 1180.87 327.15 1175.59 329.4 1170.05 331.74 1165.55 333.47 1161.39 335.29 1156.98 337.54 1153.35 339.61 1148.33 341.86 1145.12 343.33 1142.79 344.72 1140.88 344.72 1140.88 337.05 1140.1 330.09 1139.5 323 1139.06 316.25 1139.06 309.93 1139.06 303.7 1139.06 297.98 1139.84 293.14 1140.45 289.16 1141.32 286.47 1142.79 284.14 1143.74 282.58 1145.47 282.58"/>
  <polygon class="cls-2" points="1192.23 321.59 1190.53 316.99 1188.69 312.13 1186.85 306.74 1184.75 302.02 1181.99 296.5 1179.23 291.64 1176.6 287.04 1173.58 282.58 1170.69 278.9 1167.28 275.35 1164.52 272.72 1160.45 269.83 1157.42 265.76 1154.91 263.03 1158.95 261.5 1164.15 258.74 1169.1 256.01 1173.72 254.03 1177.76 251.89 1180.4 249 1183.37 247.59 1188.08 247.1 1188.24 243.72 1186.84 238.85 1183.62 233.81 1179.83 228.78 1183.87 227.13 1188.99 226.88 1194.43 227.62 1197.62 229.24 1202.48 232.66 1204.98 234.24 1207.21 236.99 1208.92 240.8 1211.67 244.35 1214.17 247.77 1216.53 250.26 1217.19 255.12 1218.37 259.46 1219.69 264.18 1219.69 267.34 1221.13 271.77 1222.18 276.27 1223.5 282.05 1223.5 286.91 1223.5 290.32 1226.12 290.46 1228.62 292.16 1231.12 294.79 1232.69 296.76 1232.69 299.26 1229.41 301.62 1227.17 303.46 1224.81 303.99 1222.84 304.51 1219.69 307.53 1215.75 310.03 1211.28 312.65 1205.9 315.28 1202.74 317.25 1198.54 319.35 1194.86 321.59 1192.23 321.59"/>
  <polygon class="cls-2" points="1088.13 401.79 1092.63 399.8 1097.1 397.4 1101.79 395.88 1105.71 394.9 1108 395.33 1109.64 396.53 1111.71 397.08 1115.2 395.55 1118.58 394.02 1121.52 391.96 1123.05 390.21 1123.49 387.04 1127.85 384.1 1132.32 381.48 1134.17 381.48 1133.52 387.59 1131.77 395.44 1130.36 401.01 1128.61 407.11 1126.87 413.32 1124.9 418.99 1123.05 423.9 1120.76 428.59 1118.25 432.95 1114.87 436.66 1112.25 438.84 1107.67 441.68 1104.08 443.09 1101.24 444.95 1097.75 446.86 1094.98 446.86 1095.46 443.18 1094.98 438.67 1094.52 434.58 1093.68 428.92 1092.74 422.21 1091.79 417.47 1090.11 411.19 1088.96 406.94 1088.13 401.79"/>
  <polygon class="cls-2" points="1118.25 442.11 1120.65 437.86 1123.05 433.93 1125.52 430.34 1126.97 426.95 1128.61 423.14 1130.03 419.21 1131.01 416.27 1132.64 410.93 1134.17 405.58 1134.93 401.87 1136.24 397.73 1137.01 394.02 1137.55 389.55 1137.99 385.41 1137.99 378.1 1143.22 375.92 1146.49 374.4 1147.58 374.4 1149.87 377.99 1155.22 383.34 1159.25 388.35 1162.41 391.41 1165.69 394.24 1169.17 396.86 1172.66 398.93 1175.61 400.35 1179.1 402.2 1176.68 404.66 1174.14 405.78 1169.83 408.32 1166.17 410.71 1162.19 413.26 1159 415.49 1155.65 417.47 1152.05 420.52 1147.58 423.36 1142.57 426.41 1138.64 429.03 1134.17 431.64 1130.14 434.91 1127.19 437.1 1123.27 439.39 1120.98 440.91 1118.25 442.11"/>
  <polygon class="cls-2" points="1151.18 373.65 1154.67 376.47 1158.92 380.72 1162.52 384.32 1166.34 388.46 1169.39 391.52 1171.9 393.59 1173.82 395.33 1177.57 396.97 1179.75 396.97 1183.57 395.11 1187.17 391.96 1190.22 389.66 1191.96 387.37 1194.04 385.31 1194.69 380.18 1194.69 373.65 1194.69 366.26 1194.15 359.02 1193.6 353.46 1193.06 347.46 1185.64 351.5 1179.97 354.66 1175.39 357.17 1169.61 360.55 1164.05 363.6 1158.92 366.76 1154.24 369.49 1149.22 372.21 1151.18 373.65"/>
  <polygon class="cls-2" points="1198.14 344.72 1202.14 342.31 1207.09 339.36 1211.72 336.63 1215.93 334.1 1219.72 332.2 1223.69 328.95 1227.11 326.25 1231.25 322.66 1231.25 328.23 1229.09 332.9 1226.75 337.05 1223.69 339.73 1222.62 343.51 1222.8 351.96 1223.69 356.63 1224.96 359.69 1224.96 363.64 1223.69 366.26 1222.25 367.38 1219.07 370.72 1215.88 374.39 1212.53 377.26 1207.91 380.76 1205.05 383.79 1201.86 387.29 1198.35 390.48 1198.14 388.27 1199.07 382.7 1199.79 376.04 1199.97 369.93 1199.79 363.64 1199.25 357.53 1198.89 353.75 1198.14 348.72 1198.14 344.72"/>
  <polygon class="cls-2" points="951.36 383.5 952.56 381.74 954.11 381.74 955.29 383.5 955.06 387.92 953.88 392.88 952.71 399.64 952.08 406.41 952.53 413.71 953.16 422.19 954.34 428.5 956.5 436.17 957.76 442.21 958.84 446.45 960.83 451.14 963.44 454.84 967.86 459.98 971.11 462.5 973.91 463.5 976.34 463.5 978.27 463.5 978.72 465.97 979.58 469.24 977.85 469.24 976.65 469.14 975.95 470.48 975.95 474.18 975.95 477.33 976.4 480.87 977.35 484.77 978.71 488.18 981.16 491.57 983.66 494.36 985.39 496.22 987.29 497.45 989.39 497.8 990.94 497.8 992.94 500.25 994.31 502.98 994.31 504.07 990.21 504.07 989.39 503.77 986.28 502.12 982.81 499.56 980.06 497 976.96 493.71 974.4 488.18 972.93 484.2 971.84 479.08 971.84 473.96 971.84 471.22 972.93 468.66 969.82 467.56 966.71 465.55 962.69 461.71 959.95 458.18 957.79 455.37 954.53 450.05 952.17 444.31 950.93 437.16 949.39 431.43 948.21 425 948.03 419.55 947.62 413.34 946.85 408.91 946.97 402.34 947.32 395.78 948.37 390.78 949.34 386.92 951.36 383.5"/>
  <polygon class="cls-2" points="991.22 457.72 990.59 460.2 990.13 463.5 991.7 465.16 996.62 465.16 1001.57 465.16 1004.61 464.52 1007.54 463.65 1009.98 462.79 1011.9 461.89 1013.96 460.5 1016.44 458.58 1018.96 456.55 1020.87 454.54 1022.38 452.15 1023.62 450.1 1024.87 448.66 1026.52 447.38 1026.3 449.84 1025.46 453.07 1024.54 457.14 1023.55 460 1022.49 463.93 1020.46 470.03 1018.91 474.23 1016.66 479.22 1014.46 483.37 1011.62 487.62 1009.92 489.06 1011.37 490.73 1013.56 492.61 1015.85 490.57 1017.13 488.18 1018.8 484.98 1021.05 480.1 1023.3 475.02 1025.1 470.01 1026.52 465.65 1028.18 459.87 1029.72 455.04 1031.01 449.78 1032.61 444.19 1033.19 441.49 1034.43 439.68 1036.82 436.92 1038.62 434.42 1040.32 431.55 1042.08 428.73 1043.46 425.81 1044.73 423.16 1045.74 419.92 1046.49 417.47 1048.72 419.38 1051.91 421.27 1054.83 423.91 1058.43 427.02 1062.71 430.72 1067.77 435.01 1072.54 439.09 1076.83 442.69 1080.72 446 1083.74 448.15 1085.82 449.34 1089.65 450.3 1093.16 451.68 1096.75 452.11 1099.73 452.11 1100.42 450.04 1099.73 448.21 1097.75 446.86 1094.98 446.86 1090.99 445.67 1087.76 445.25 1085.21 443.46 1080.37 439.47 1074.94 435.31 1070.94 431.91 1066.78 428.51 1061.86 424.1 1058.29 420.87 1054.64 417.47 1051.75 415.01 1049.71 412.9 1047.84 411.61 1048.52 406.94 1049.03 402.01 1049.32 392.74 1049.32 386.97 1049.11 381.83 1048.48 377.85 1047.84 374.07 1047.84 369.46 1048.37 366.26 1049.32 362.22 1050.26 357.29 1050.89 351.42 1051.1 346.28 1051.42 341.87 1054.04 340.09 1059.6 337.05 1061.19 336.01 1061.33 334.39 1060.85 333.22 1059.62 332.6 1058.12 333.15 1057.03 333.8 1054.03 335.25 1051.61 336.12 1049.92 336.65 1055.89 332.13 1057.8 329.96 1057.84 327.25 1057.84 325.19 1057.03 324.15 1055.08 325 1052.71 326.26 1050.36 327.67 1049.7 330.39 1047.84 333.02 1044.3 336.02 1041.99 339.96 1039.21 341.1 1036.83 342.11 1034.68 343.25 1033.82 345.26 1034.53 348.41 1035.97 350.42 1039.21 351.85 1039.84 357.87 1040.27 362.03 1039.21 368.62 1037.97 376.14 1037.11 384.1 1036.11 391.27 1034.96 397.57 1034.82 401.01 1030.66 398.29 1024.93 393.99 1019.05 389.12 1013.56 385.1 1008.59 381.52 1003.14 378.51 998.27 376.14 993.25 374.07 988.67 372.92 983.51 371.2 979.35 370.05 973.05 369.34 975.33 372.58 976.14 375.27 978.95 375.55 982.11 375.86 984.61 376.14 987.4 377.08 990.95 378.37 994.6 379.29 999.11 381.59 1003.41 384.06 1008.03 386.53 1012.33 389.54 1016.62 392.76 1019.74 395.02 1023.61 398.35 1027.69 401.79 1032.17 406.05 1032.17 410.46 1030.91 416.24 1029.1 422.19 1027.84 427.69 1025.86 433.91 1023.69 439.05 1021.26 444.38 1019.45 446.09 1015.48 448.25 1010.97 450.87 1004.21 453.94 999.43 455.92 995.01 457.36 991.22 457.72"/>
  <polygon class="cls-2" points="1077.13 320 1076.81 318.02 1074.95 314.35 1077.54 314.25 1080.12 314.74 1083.1 315.84 1086.09 317.13 1089.96 319.22 1093.24 321.11 1097.12 323.49 1102.09 326.68 1105.77 329.06 1109.65 332.13 1112.83 334.39 1116.51 337.71 1120.59 341.39 1124.37 344.67 1126.95 347.56 1129.14 350.04 1126.8 351.95 1125.52 351.77 1123.14 348.91 1120.61 346.59 1117.41 343.86 1113.65 340.72 1110.38 337.99 1106.9 335.47 1104.03 333.28 1099.8 330.49 1095.46 327.24 1090.24 324.16 1085.35 321.64 1082.41 320.39 1078.22 319.9 1077.13 320"/>
  <polygon class="cls-2" points="1140.88 344.72 1139.85 346.77 1137.53 347.46 1136.59 347.46 1136.1 344.27 1136.1 338.91 1135.7 333.14 1135.4 327.77 1134.71 322.4 1134.21 317.59 1134.11 311.26 1134.01 305.4 1134.61 298.34 1135.2 293.17 1136.1 289.08 1137.79 284.42 1139.28 281.54 1141.67 278.35 1143.17 276.37 1144.61 276.37 1145.5 278.03 1145.5 280.8 1145.47 282.58 1143.74 282.58 1142.79 284.14 1141.32 286.47 1140.45 289.16 1139.84 293.14 1139.06 297.98 1139.06 303.7 1139.06 309.93 1139.06 316.25 1139.5 323 1140.1 330.09 1140.88 337.05 1140.88 344.72"/>
  <polygon class="cls-2" points="1161.1 277.37 1161.34 274.23 1160.45 269.83 1164.52 272.72 1167.28 275.35 1170.69 278.9 1173.58 282.58 1176.6 287.04 1179.23 291.64 1181.99 296.5 1184.75 302.02 1186.85 306.74 1188.69 312.13 1190.53 316.99 1192.23 321.59 1190.32 322.66 1187.7 323.43 1185.37 317.37 1183.9 313.91 1181.65 308.28 1179.14 302.48 1176.28 296.95 1173.16 291.84 1170.48 287.08 1167.19 282.58 1162.43 277.65 1161.1 277.37"/>
  <polygon class="cls-2" points="1134.17 381.48 1135.84 380.09 1137.99 378.1 1137.99 385.41 1137.55 389.55 1137.01 394.02 1136.24 397.73 1134.93 401.87 1134.17 405.58 1132.64 410.93 1131.01 416.27 1130.03 419.21 1128.61 423.14 1126.97 426.95 1125.52 430.34 1123.05 433.93 1120.65 437.86 1118.25 442.11 1116.89 442.11 1115.61 439.86 1114.87 436.66 1118.25 432.95 1120.76 428.59 1123.05 423.9 1124.9 418.99 1126.87 413.32 1128.61 407.11 1130.36 401.01 1131.77 395.44 1133.52 387.59 1134.17 381.48"/>
  <polygon class="cls-2" points="1149.22 372.21 1146.49 374.4 1147.58 374.4 1149.87 377.99 1155.22 383.34 1159.25 388.35 1162.41 391.41 1165.69 394.24 1169.17 396.86 1172.66 398.93 1175.61 400.35 1179.1 402.2 1181.87 402.2 1184.9 402.2 1185.54 400.87 1185.54 399.13 1184.62 397.94 1182.88 397.39 1180.5 396.97 1179.75 396.97 1177.57 396.97 1173.82 395.33 1171.9 393.59 1169.39 391.52 1166.34 388.46 1162.52 384.32 1158.92 380.72 1154.67 376.47 1151.18 373.65 1149.22 372.21"/>
  <polygon class="cls-2" points="1194.04 385.31 1194.69 387.21 1195.97 388.05 1197.43 389.15 1198.14 388.27 1199.07 382.7 1199.79 376.04 1199.97 369.93 1199.79 363.64 1199.25 357.53 1198.89 353.75 1198.14 348.72 1198.14 344.72 1193.06 347.46 1193.6 353.46 1194.15 359.02 1194.69 366.26 1194.69 373.65 1194.69 380.18 1194.04 385.31"/>
  <polygon class="cls-2" points="389.1 233.28 394.1 232.04 396.72 230.99 401.38 229.85 405.19 229.09 408.07 228.87 409.11 229.54 418.1 230.58 416.61 231.95 413.66 233.28 410.1 233.92 406.23 233.92 402.35 233.92 399.73 234.69 396.92 235.47 394.1 236.73 391.86 236.13 389.86 234.71 389.1 233.28"/>
  <polygon class="cls-1" points="429.1 227.34 427.08 226.62 425.56 224.85 426.17 223.25 427.08 222.08 429.38 222.08 431.09 223.91 433.75 225.3 435.36 226.12 429.1 227.34"/>
  <polygon class="cls-2" points="395.12 254.02 392.35 254.78 389.83 257.01 391.21 257.46 395.02 260.95 399.95 264.61 403.76 266.83 407.57 268.74 410.91 270.17 414.4 270.8 418.06 271.12 419.44 270.04 420.35 268.43 420.35 266.89 417 266.89 414.21 266.56 411.67 265.74 408.72 264.6 405.44 263.04 401.67 260.25 398.72 257.46 395.12 254.02"/>
  <polygon class="cls-2" points="447.93 260.34 444.76 258.22 442.62 255.99 441.11 250.81 440.12 247.56 439.4 245.24 438 242.26 436.42 239.54 435.18 238.38 437.02 236.73 439.55 235.55 441.3 235.26 442.62 236.73 446.89 237.18 450.73 237.6 455.32 238.38 461.33 239.54 466.83 240.18 472.09 240.98 480.35 242.02 482.9 242.02 484.72 243.36 486.03 245.18 486.03 246.9 480.64 247.16 474.9 246.41 469.47 245.96 463.08 245.32 457.9 244.56 452.66 243.21 447.29 241.68 443.13 240.98 443.13 242.19 444.22 244.81 445.05 247.24 445.75 249.61 446.58 252.64 448.24 256.64 450.03 260.92 447.93 260.34"/>
  <polygon class="cls-2" points="470.33 206.37 472.88 205.12 476.49 204.24 480.46 203.59 484.13 203.29 486.74 203.64 488.39 204.35 489.99 206.37 492.36 209.27 494.85 212.64 496.62 215.25 498.12 218.09 500.24 220.99 500.89 222.77 501.24 227.21 497.04 226.91 493.01 225.91 489.56 225.26 488.16 224.25 488.16 219.75 487.27 214.6 486.91 209.33 482.35 209.03 479.75 209.33 476.55 210.99 473.95 212.94 471.99 212.05 471.04 210.69 470.1 208.68 470.33 206.37"/>
  <polygon class="cls-2" points="492.18 214.89 490.94 214.89 490.64 216.49 490.94 218.45 491.41 219.81 492.18 220.4 493.54 219.81 493.54 218.21 493.07 215.96 492.18 214.89"/>
  <polygon class="cls-2" points="498.12 238.85 500.21 238.85 504.12 238.38 501.88 235.55 498.92 233.06 496.08 230.58 494.22 229.09 491.77 227.88 489.86 227.21 483.74 226.86 479.99 226.86 484.94 230.92 487.86 231.17 491.28 232.17 493.53 234.26 495.62 236.73 498.12 238.85"/>
  <polygon class="cls-2" points="432 460.77 436.1 458.02 439.72 456.03 443.47 453.63 446.39 452.05 448.56 451.06 451.54 450.12 457.04 447.45 458.32 447.02 463.41 447.02 462.36 447.84 459.32 448.95 456.63 450.47 453.88 452.58 450.49 454.45 447.71 455.97 443.53 457.78 440.72 459.36 438.03 460.77 434.17 463.22 432.88 462.05 432 460.77"/>
  <polygon class="cls-2" points="479.03 444.1 481.13 444.1 481.66 445.38 480.9 447.45 479.03 448.66 476.86 450.12 474.82 450.82 471.19 451.11 466.34 451.11 462.01 451.76 454.67 451.97 456.63 450.47 459.32 448.95 462.36 447.84 463.41 447.02 466.34 446.6 470.14 446.26 472.95 445.79 476.28 444.86 479.03 444.1"/>
</svg>