<?xml version="1.0" encoding="UTF-8"?>
<svg id="Calque_1" data-name="Calque 1" xmlns="http://www.w3.org/2000/svg" xmlns:xlink="http://www.w3.org/1999/xlink" viewBox="0 0 1280 850">
  <defs>
    <style>
      .cls-1 {
        opacity: 0;
      }

      .cls-1, .cls-2 {
        fill: #fff;
      }

      .cls-2 {
        opacity: .27;
      }
    </style>
  </defs>
  <image width="1280" height="850" xlink:href="../../../../../../../../../../../../Users/baptiste/Documents/PERSONNEL/hipbag.png"/>
  <polygon class="cls-1" points="277.74 380.02 279.95 378.66 283.86 377.98 287.94 377.3 294.05 377.3 303.74 377.3 317.5 377.3 329.74 376.45 339.59 376.45 352.11 374.8 357.02 374.05 368.5 374.05 373.04 373.33 378.43 372.73 382.37 379.07 387.64 387.21 394.46 397.38 403.31 409.58 409.53 419.74 413.12 426.8 415.27 431.47 415.99 434.58 413.83 435.29 412.88 437.33 413 442.11 413 448.69 414.43 449.77 415.99 450.96 415.99 458.86 415.99 464.84 414.07 466.39 413.83 470.58 413.95 475.37 415.15 478.48 415.51 480.87 412.52 487.81 410.01 494.62 407.25 500.84 404.14 507.18 388.36 507.18 371.37 505.99 357.61 505.51 346.25 504.79 330.82 504.31 316.7 504.07 306.78 503.12 292.3 502.76 281.3 501.92 268.14 501.92 264.55 501.32 261.8 498.93 259.41 495.34 257.97 492.47 257.97 479.67 257.97 476.44 256.78 473.81 253.55 468.62 251.01 465.64 251.01 456.3 252.28 447.92 254.61 439.96 257.59 431.36 261.83 419.16 265.23 408.97 267.56 402.39 270.43 396.97 271.25 394.99 273.52 390.19 276.18 383.45 277.74 380.02"/>
  <polygon class="cls-1" points="418.27 490.09 419.9 490.09 420.74 492.7 422.08 494.4 423.85 496.23 424.91 499.06 425.26 501.95 426.04 503.22 426.04 505.7 427.03 507.18 427.03 509.93 422.65 509.51 418.27 509.01 414.25 508.8 411.49 508.45 412.83 504.28 414.74 500.61 416.29 497.08 417.07 493.83 418.27 490.09"/>
  <polygon class="cls-1" points="387.16 372.73 395.61 372.27 403.99 371.89 410.25 372.31 415.15 373.25 420.96 373.25 426.31 373.78 430.92 374.38 428.8 377.78 426.84 382.91 425.64 388.34 424.58 393.62 423.75 399.28 423 405.01 422.47 411.12 422.77 416.48 420.73 419.8 418.24 423.8 413.57 415.95 410.1 410.59 405.57 402.97 401.8 397.85 397.5 391.51 393.95 385.7 390.48 379.82 388.07 375.44 387.16 372.73"/>
  <polygon class="cls-1" points="427.19 426.48 429.08 425.8 435.42 425.8 441.46 426.14 446.22 426.14 452.87 426.14 457.18 426.48 462.31 427.16 461.03 429.88 457.4 429.88 453.63 429.88 447.51 429.42 440.26 429.27 433 429.12 428.02 429.12 427.19 429.05 427.19 426.48"/>
  <polygon class="cls-2" points="476.44 375.15 482.75 375.15 490.52 375.15 497.61 375.64 493.24 382.04 487.61 389.81 483.34 396.12 479.07 402.33 475.28 408.16 470.13 415.24 469.65 410.78 469.07 406.02 467.9 401.17 466.25 397.38 465.28 392.14 465.28 387.97 465.96 383.6 467.22 380.39 469.16 378.36 472.76 376.61 476.44 375.15"/>
  <polygon class="cls-1" points="505.94 376.64 509.2 377.68 511.56 379.45 513.63 380.49 517.33 380.49 521.92 378.57 526.21 377.38 534.65 377.23 543.23 377.68 548.26 378.57 551.22 379.6 556.69 379.9 562.91 379.9 565.13 380.49 570.95 380.95 574.35 381.48 580.88 381.48 588.55 381.48 597.72 382.31 609.02 382.31 617.46 382.31 627.15 381.41 637.38 380.52 647.44 378.72 656.23 376.64 663.23 373.52 667.36 372.62 674.18 373.52 680.28 373.87 689.97 374.23 695.54 375.85 702.36 377.46 709 379.44 709 391.11 709 398.11 707.03 402.05 705.95 408.16 705.77 416.77 704.51 425.75 704.15 435.44 703.62 439.93 702.54 446.03 702.9 450.88 702 459.13 700.74 466.85 700.56 473.67 700.2 481.75 698.95 486.06 698.95 491.26 699.13 497 699.49 502.21 700.03 507.59 700.74 514.23 700.92 518.36 696.79 521.95 693.38 523.39 682.44 524.11 653.9 523.39 628.41 522.85 607.47 521.77 589.64 520.88 563.79 519.8 543.51 519.44 529.33 518.18 516.05 516.93 504.92 515.85 494.87 514.95 482.84 514.23 472.79 513.7 467.95 513.52 467.05 507.18 468.49 502.57 469.02 498.98 471.36 496.47 472.79 494.67 472.08 485.34 471.18 471.7 471 460.39 471.18 448.36 471.9 437.23 472.08 425.8 477.28 418.21 482.49 410.13 488.95 401.34 494.51 392.54 499.9 384.11 505.94 376.64"/>
  <polygon class="cls-1" points="712.88 355.18 712.88 361.15 712.88 368.65 712.88 374.62 711.18 377.69 709 379.44 702.36 377.46 695.54 375.85 689.97 374.23 680.28 373.87 674.18 373.52 667.36 372.62 663.23 373.52 656.23 376.64 647.44 378.72 637.38 380.52 627.15 381.41 617.46 382.31 609.02 382.31 597.72 382.31 588.55 381.48 580.88 381.48 574.35 381.48 570.95 380.95 565.13 380.49 562.91 379.9 556.69 379.9 551.22 379.6 548.26 378.57 543.23 377.68 534.65 377.23 526.21 377.38 521.92 378.57 517.33 380.49 513.63 380.49 511.56 379.45 509.2 377.68 505.94 376.64 507.04 375.15 509.77 375.15 512.67 376.5 515.4 377.86 519.49 376.5 526.15 374.45 533.48 373.77 539.45 371.38 545.25 368.75 552.75 367.29 562.13 365.92 570.49 364.56 578.16 363.02 586.52 361.49 595.04 359.61 603.4 358.76 611.76 357.23 618.58 356.54 627.1 355.18 637.17 353.64 646.89 352.28 657.97 350.92 672.98 349.38 681.88 347.73 687.72 347.13 692.58 348.42 699.86 351.15 704.87 353.5 712.88 355.18"/>
  <polygon class="cls-1" points="387.16 372.73 384.63 368.33 382.43 365.18 381.28 363.55 387.16 364.03 392.46 364.13 396.1 364.61 400.4 365.47 404.03 366.04 405.46 369.86 406.42 372.06 403.99 371.89 395.61 372.27 387.16 372.73"/>
  <polygon class="cls-1" points="378.43 372.73 375.88 369.62 372.94 365.2 371.65 362.9 366.32 362.35 356.11 361.8 346.45 361.43 341.3 360.79 336.33 360.79 332.83 360.79 330.07 362.07 322.62 362.26 318.48 362.07 313.7 360.79 309.38 360.05 304.13 360.05 299.81 360.05 293.37 360.05 289.14 360.05 286.84 361.34 284.63 363.55 282.79 366.39 281.41 369.34 280.31 372.73 278.28 375.32 277.09 377.16 277.74 380.02 279.95 378.66 283.86 377.98 287.94 377.3 294.05 377.3 303.74 377.3 317.5 377.3 329.74 376.45 339.59 376.45 352.11 374.8 357.02 374.05 368.5 374.05 373.04 373.33 378.43 372.73"/>
  <polygon class="cls-1" points="400.17 350.21 400.17 354.67 401.5 359.09 402.72 362.81 404.03 366.04 405.46 369.86 406.42 372.06 410.25 372.31 415.15 373.25 420.96 373.25 426.31 373.78 430.92 374.38 434.24 371.89 436.06 371.04 440.82 371.13 444.03 371.89 450 371.89 456.67 371.89 462.56 371.89 467.05 371.89 471.74 371.89 473.65 373.81 476.44 375.15 482.75 375.15 490.52 375.15 497.61 375.64 500.07 371.13 501.19 369.65 500.85 365.67 499.72 360.82 499.18 356.06 489.84 354.26 480.39 353.47 466.54 352.24 457.43 351.11 446.06 350.89 434.8 350.21 421.86 350.21 409.93 350.21 400.17 350.21"/>
  <polygon class="cls-1" points="326.01 285.9 322.86 289.05 320.66 293.25 318.87 299.02 318.87 309.2 318.87 317.39 318.87 330.4 319.5 340.9 319.5 346.56 321.92 349.29 326.01 350.87 336.72 350.87 349.42 351.71 356.66 352.23 366.52 352.23 364.42 345.72 362.43 338.8 360.65 332.08 359.81 327.99 359.7 325.99 356.45 324.21 354.87 322.21 354.35 319.07 355.19 315.92 356.97 313.08 359.49 310.77 362.64 308.99 366.52 307.63 369.78 307.21 372.4 307.94 374.4 310.04 375.13 312.45 375.13 315.08 373.98 317.28 372.4 319.7 370.41 321.9 368.2 323.79 366.63 324.31 367.26 329.88 368.83 335.65 370.3 340.58 371.77 345.93 374.4 351.81 379.96 352.23 386.25 351.08 393.39 350.97 400.17 350.21 409.93 350.21 421.86 350.21 434.8 350.21 446.06 350.89 457.43 351.11 466.54 352.24 480.39 353.47 489.84 354.26 499.18 356.06 503.38 357.06 505.94 357.79 507.9 359.05 512.41 353.81 517.34 348.35 522.38 342.37 527 337.43 531.3 333.02 536.44 327.99 541.38 323.26 544.84 320.22 549.25 316.55 551.03 315.39 551.87 313.08 553.97 310.46 556.49 308.26 559.95 306.05 562.58 304.9 565.73 304.79 567.82 305.32 569.5 307.1 570.66 309.52 570.66 312.24 570.66 315.5 568.77 318.23 567.4 320.54 564.26 323.05 561.32 325.15 558.27 326.31 556.07 327.04 553.66 326.62 552.19 325.05 550.51 324.1 546.83 327.67 543.37 331.24 539.59 334.91 535.5 338.69 531.3 342.89 527.21 347.13 522.9 351.92 519.76 355.27 517.24 359.05 525.95 359.05 535.29 359.58 541.27 359.58 547.15 359.16 552.71 359.16 557.75 358.84 561.42 358 566.04 354.96 573.91 348.77 580.31 343.42 588.02 336.91 593.22 331.66 600.25 325.57 606.97 320.01 612.85 315.71 620.83 309.73 627.75 304.37 638.04 297.03 647.17 291.15 652.84 287.58 658.71 283.91 665.64 280.23 672.46 276.35 678.86 273.1 684.22 271 692.11 268.51 699.6 266.75 709 264.77 721.39 262.57 711.21 262 704 262 697.03 262 690.83 263.3 685.73 264.84 669.46 265.11 665.41 265.23 659.51 266.38 653.15 267.08 645.86 267.89 637.64 268.7 629.31 269.05 617.28 269.97 602.59 269.97 583.38 270.2 576.09 271.13 568.69 271.59 560.59 272.17 549.94 272.63 539.18 273.1 529.35 273.79 520.67 274.37 510.49 275.76 498.69 276.8 488.04 276.91 480.06 277.03 463.98 277.95 451.48 278.3 443.85 278.76 435.75 279.11 424.99 279.69 418.62 279.81 400.34 281.08 384.96 281.89 372.23 282.93 364.59 282.93 358.81 283.86 349.32 284.43 344.11 284.9 336.36 285.47 326.01 285.9"/>
  <polygon class="cls-1" points="513.09 365.97 515.52 362.92 516.83 360.33 517.24 359.05 525.95 359.05 535.29 359.58 541.27 359.58 547.15 359.16 552.71 359.16 557.75 358.84 561.42 358 566.04 354.96 573.91 348.77 580.31 343.42 588.02 336.91 593.22 331.66 600.25 325.57 606.97 320.01 612.85 315.71 620.83 309.73 627.75 304.37 638.04 297.03 647.17 291.15 652.84 287.58 658.71 283.91 665.64 280.23 672.46 276.35 678.86 273.1 684.22 271 692.11 268.51 699.6 266.75 709 264.77 721.39 262.57 727.86 261.22 735.37 260.9 741.02 259.45 748.78 256.78 757.58 254.2 768.56 252.02 776.08 250.08 780.44 249.03 784.96 248.14 790.29 248.14 793.84 249.35 799.17 255.01 804.18 260.9 808.62 265.26 814.36 271.48 816.3 274.79 818.64 279.88 820.09 287.55 820.98 297 820.98 315.74 823.65 320.51 825.75 324.38 827.93 329.23 830.92 335.21 832.05 339.49 830.03 342.56 826.55 346.68 821.39 350.39 815 352.73 811.29 353.94 802.81 354.03 794.65 354.59 789.48 354.11 785.36 353.3 779.79 351.68 773.49 351.04 767.03 350.23 763.15 348.86 756.53 349.1 748.45 349.42 739.49 349.26 733.67 349.02 731.09 349.66 723.98 349.99 718.97 349.66 714.69 348.94 709.85 348.05 703.95 347.48 700.4 346.51 695.39 345.22 691.19 343.53 684.89 343.69 680.26 344.41 675.72 345.46 671.53 347.13 668.15 348.25 662.33 349.19 654.29 349.42 649.29 350.7 643.23 351.4 638.57 352.33 633.8 353.26 629.37 354.08 627.1 355.18 618.58 356.54 611.76 357.23 604.92 357.57 599.33 358.27 592.46 359.08 586.52 360.13 581.04 361.06 575.92 361.53 570.91 362.23 561.95 363.16 554.03 363.63 549.37 363.97 542.96 364.72 538.19 365.49 533.41 365.97 525.26 367.12 520.13 367.12 513.09 367.12 513.09 365.97"/>
  <polygon class="cls-1" points="374.4 351.81 379.96 352.23 386.25 351.08 393.39 350.97 400.17 350.21 400.17 354.67 401.5 359.09 402.72 362.81 404.03 366.04 400.4 365.47 396.1 364.61 392.46 364.13 387.16 364.03 381.28 363.55 377.36 357.9 374.4 351.81"/>
  <polygon class="cls-1" points="371.15 362.12 368.7 357.71 366.49 353.58 366.52 352.23 356.66 352.23 349.42 351.71 336.72 350.87 326.01 350.87 321.92 349.29 319.5 346.56 319.5 340.9 318.87 330.4 318.87 317.39 318.87 309.2 318.87 299.02 320.66 293.25 322 290.69 318.17 289.06 314.92 287.22 308.98 286.23 303.61 285.52 297.68 285.52 294.14 283.69 290.75 281.99 287.64 280.58 284.67 279.59 279.3 277.89 275.34 276.62 270.39 276.62 266.72 279.16 263.33 283.12 260.5 285.95 257.25 287.64 252.73 290.61 248.48 293.16 244.67 294.85 241.13 296.69 238.87 298.39 236.89 300.93 235.76 304.04 235.76 305.74 231.66 308 228.41 310.79 227 313.09 224.6 315.49 221.49 317.89 217.39 320.3 214.14 322.84 211.73 324.96 208.76 327.79 206.08 331.04 203.25 334.15 200.99 336.41 200.99 342.07 202.97 344.61 207.63 347.3 211.17 349.42 215.97 350.97 220.21 352.1 222.19 353.09 227.99 358.12 230.25 358.75 234.07 361.15 238.73 364.12 243.82 364.12 249.9 364.12 258.8 364.12 261.63 364.12 265.31 362 268.98 361.43 275.06 361.29 278.17 362 286.84 361.34 289.14 360.05 293.37 360.05 297.39 358.12 303.05 358.12 308.56 357.33 315.49 357.19 324.25 357.33 329.34 358.12 337.82 358.12 344.75 358.12 352.95 358.89 357.47 359.58 362.13 361.01 368.21 361.86 371.15 362.12"/>
  <polygon class="cls-1" points="712.88 355.18 716.08 353.1 721.39 353.1 728.5 352.7 734.36 353.2 739.71 353.94 746.28 354.41 754.67 355.83 761.33 356.53 769.51 357.04 780.93 357.04 788.71 357.75 794.87 358.86 801.13 359.58 805.78 360.47 807.19 361.38 805.68 364.31 803.56 369.57 801.84 373.71 799.92 377.14 797.29 382.31 794.57 387.55 791.74 391.69 789.52 393.81 786.59 395.22 780.42 396.03 774.16 396.94 766.18 397.75 757.9 398.25 751.43 399.16 744.16 399.16 738.6 399.16 734.66 399.87 730.02 399.87 725.37 400.38 721.39 395.63 718.2 391.38 714.66 386.64 712.88 384.72 712.88 374.62 712.88 368.65 712.88 361.15 712.88 355.18"/>
  <polygon class="cls-1" points="750.37 426.88 758.84 426.88 765.84 426.08 773.91 424.46 779.83 422.98 783.19 419.08 786.69 419.08 788.57 425 788.57 436.3 788.57 442.49 788.57 448.36 788.03 456.48 789.24 464.01 789.24 466.97 784.94 467.77 782.11 468.72 779.15 468.72 772.7 460.11 766.65 451.09 761.13 443.29 756.15 436.97 751.58 430.65 750.37 426.88"/>
  <polygon class="cls-1" points="700.56 473.67 700.2 481.75 698.95 486.06 698.95 491.26 699.13 497 699.49 502.21 700.03 507.59 700.74 514.23 700.92 518.36 701.53 524.11 702.43 531.53 704.9 534.91 705.8 539.97 704 543.46 705.13 548.97 711.31 548.97 716.94 550.66 719.98 551.22 723.47 551.22 727.18 545.26 731.79 538.96 736.4 531.19 738.32 525.79 730.44 514.43 723.58 505.88 720.77 501.6 718.63 494.83 718.63 490.51 709.55 481.34 700.56 473.67"/>
  <polygon class="cls-1" points="261.22 370.95 267.05 369.39 272.57 367.83 277.77 366.58 282.79 366.39 281.41 369.34 280.31 372.73 278.28 375.32 277.09 377.16 277.74 380.02 276.18 383.45 273.52 390.19 271.25 394.99 268.2 394.99 266.22 394.48 263.09 392.92 259.97 391.15 259.35 387.82 260.07 381.99 261.01 375.53 261.22 370.95"/>
  <polygon class="cls-1" points="368.84 315.82 370.09 314.1 370.09 312.84 366.88 312.84 364.21 312.84 361.55 314.33 359.98 315.82 359.59 318.41 359.59 322.8 359.7 325.99 359.81 327.99 360.65 332.08 362.43 338.8 364.42 345.72 366.52 352.23 366.49 353.58 368.7 357.71 371.15 362.12 371.65 362.9 372.94 365.2 375.88 369.62 378.43 372.73 382.37 379.07 387.64 387.21 394.46 397.38 403.31 409.58 409.53 419.74 413.12 426.8 415.27 431.47 415.99 434.58 417.14 435.09 419.73 435.09 420.04 438.46 420.04 441.83 420.04 444.65 417.53 447.24 415.26 449.59 415.99 450.96 415.99 464.84 417.3 464.84 420.04 463 422 461.43 421.14 451.24 421.14 448.02 423.96 446.53 423.57 439.4 424.9 436.73 423.34 432.19 420.75 426.7 418.24 423.8 413.57 415.95 410.1 410.59 405.57 402.97 401.8 397.85 397.5 391.51 393.95 385.7 390.48 379.82 388.07 375.44 387.16 372.73 384.63 368.33 382.43 365.18 381.28 363.55 377.36 357.9 374.4 351.81 371.77 345.93 370.3 340.58 368.83 335.65 367.26 329.88 366.63 324.31 366.88 320.76 367.27 318.17 368.84 315.82"/>
  <polygon class="cls-1" points="415.15 478.48 416.86 478.48 419.26 480.17 420.8 482.28 420.1 486.23 418.27 490.09 417.07 493.83 416.29 497.08 414.74 500.61 412.83 504.28 411.49 508.45 409.84 513.15 407.3 518.85 404.49 525.17 401.42 531.83 397.74 539.64 394.05 546.92 390.99 553.32 388.35 559.98 386.16 566.21 384.93 571.82 383.36 577.09 382.83 581.73 382.1 587.03 381.76 590.6 382.1 596.72 383.04 602.25 385.25 607.77 388.14 613.47 390.86 616.79 395.02 621.04 398.85 624.01 402.68 626.65 405.65 628.09 409.05 628.6 413.98 629.2 419.17 629.2 424.61 628.69 429.71 627.5 433.96 625.46 439.06 622.82 444.59 618.83 449.1 614.07 453.09 608.11 455.39 603.44 457.85 598.17 459.56 591.96 461.26 584.73 462.7 578.1 463.13 569.85 463.64 558.89 463.3 550.04 462.96 542.82 462.45 534.83 461.26 527.85 460.41 519.69 459.21 507.18 458.19 498.35 457.53 486.45 457.38 483.42 459.5 481.23 462.37 479.11 464.34 477.98 466 477.98 466 485.54 466 493.71 467.05 501.73 467.05 507.18 467.95 513.52 468.88 521.4 469.86 530.47 470.92 540.08 471.83 552.48 471.83 563.38 471.83 569.58 471.07 576.77 470.69 582.51 469.26 588.19 467.67 594.92 465.78 598.63 463.21 604.6 460.79 610.05 457.99 614.28 454.58 619.28 450.04 623.66 444.52 628.2 439 631.61 432.27 634.56 426.79 635.99 419.79 636.6 411.39 636.6 405.49 634.93 399.74 632.74 394.9 630.24 389.83 626.77 385.9 622.83 383.1 618.9 379.77 613.91 377.13 607.4 375.23 600.29 374.1 591.06 374.1 584.56 374.1 578.2 375.23 571.24 377.65 563.07 381.89 552.33 384.61 545.68 390.82 533.8 393.62 527.3 398.68 517.39 404.14 507.18 407.25 500.84 410.01 494.62 412.52 487.81 415.15 478.48"/>
  <polygon class="cls-1" points="456.02 447.69 459.03 447.96 461.22 449.71 464.17 451.57 464.17 455.12 464.88 461.41 465.16 468.25 465.16 469.56 462.2 469.23 459.08 467.43 456.35 465.3 456.02 462.56 456.02 447.69"/>
  <polygon class="cls-1" points="465.96 436.99 468.69 432.77 471.54 427.45 472.08 425.8 477.28 418.21 482.49 410.13 488.95 401.34 494.51 392.54 499.9 384.11 505.94 376.64 507.04 375.15 509.54 371.89 512.37 368.28 513.09 367.12 513.09 365.97 515.52 362.92 516.83 360.33 517.24 359.05 519.76 355.27 522.9 351.92 527.21 347.13 531.3 342.89 535.5 338.69 539.59 334.91 543.37 331.24 546.83 327.67 550.51 324.1 553.72 323.19 556.79 321.11 559.71 319.95 562.2 318.62 564.28 316.78 565.45 315.37 565.94 313.71 565.94 312.13 563.28 312.13 560.45 312.79 557.63 312.96 555.21 313.04 551.03 315.39 549.25 316.55 544.84 320.22 541.38 323.26 536.44 327.99 531.3 333.02 527 337.43 522.38 342.37 517.34 348.35 512.41 353.81 507.9 359.05 505.94 361.79 503.72 364.72 501.19 369.65 500.07 371.13 497.61 375.64 493.24 382.04 487.61 389.81 483.34 396.12 479.07 402.33 475.28 408.16 470.13 415.24 467.05 418.86 464.53 422.69 462.95 425.8 462.31 427.16 461.03 429.88 459.38 432.34 457.96 435.17 457.96 436.99 462.31 436.99 465.96 436.99"/>
  <polygon class="cls-1" points="676.54 614.66 683.12 613.99 688.15 613.1 692.5 612.09 696.97 611.09 699.43 610.2 702.1 608.97 704.23 610.64 704.23 618.57 704.23 632.08 703.33 639.34 702.44 648.94 701.43 658.88 700.1 665.13 698.87 671.16 697.3 676.3 695.74 680.32 693.62 684.34 691.83 688.02 689.15 691.26 685.69 694.38 682.79 696.95 679.44 699.07 675.64 700.08 671.85 700.64 664.48 700.08 657.67 699.3 649.74 698.07 641.92 697.06 632.88 695.95 624.5 694.94 618.14 693.16 609.21 692.04 601.17 691.04 592.79 689.03 585.2 687.02 580.07 685.9 573.37 685.45 567.67 683.67 563.09 679.87 554.16 680.09 543.89 679.87 537.64 679.31 529.71 678.08 522.12 677.19 516.98 675.96 511.84 675.07 502.69 674.18 493.31 673.06 485.72 671.94 474.55 670.49 466.51 669.26 458.81 668.15 452 667.25 440.61 666.25 433.35 665.13 425.65 664.13 416.83 663.23 407.33 663.01 399.74 661.67 389.92 660.44 382.77 659.33 375.4 659.1 369.26 658.54 368.48 657.2 362.56 656.98 357.98 656.98 352.07 656.2 345.81 654.8 338.22 654.8 332.08 654.8 326.16 654.19 322.48 654.8 313.43 654.8 306.29 654.8 297.91 653.97 294.12 650.5 288.87 646.15 284.74 641.35 279.71 634.87 276.03 628.17 272.79 622.48 271.9 617.12 271.9 612.09 271.9 604.39 271.11 599.14 270.56 591.44 270 583.29 270 576.7 270 575.14 271.9 574.24 274.69 575.36 277.26 575.92 282.17 576.81 287.86 577.15 293.78 577.93 298.92 578.71 302.16 579.38 302.04 585.86 303.27 591.55 304.39 595.01 304.95 599.7 305.73 603.39 310.19 604.61 316.67 605.95 324.49 607.63 333.53 608.97 339.78 609.75 345.25 610.87 352.85 611.54 358.76 612.09 361.78 612.09 363.9 606.74 366.02 601.26 367.47 597.24 367.36 592.56 366.69 588.65 367.03 585.07 370.38 585.07 373.99 586 374.1 591.06 375.23 600.29 377.13 607.4 379.77 613.91 383.1 618.9 385.9 622.83 389.83 626.77 394.9 630.24 399.74 632.74 405.49 634.93 411.39 636.6 419.79 636.6 426.79 635.99 432.27 634.56 439 631.61 444.52 628.2 450.04 623.66 454.58 619.28 457.99 614.28 460.79 610.05 463.21 604.6 465.78 598.63 466.1 598 471.83 598.47 481.29 599.09 490.07 599.64 500.1 600.35 506.84 601.21 517.34 602.15 525.18 603.48 536.39 605.21 551.25 606.7 563.9 607.59 576.43 608.34 587.44 609.1 599.21 609.61 612.11 609.86 620.46 610.62 630.59 611.51 640 613.03 647.67 614.04 659.06 615.05 666.9 615.3 672.6 615.05 676.54 614.66"/>
  <polygon class="cls-1" points="458.3 596.54 457.85 598.17 455.39 603.44 453.09 608.11 449.1 614.07 444.59 618.83 439.06 622.82 433.96 625.46 429.71 627.5 424.61 628.69 419.17 629.2 413.98 629.2 409.05 628.6 405.65 628.09 402.68 626.65 398.85 624.01 395.02 621.04 390.86 616.79 388.14 613.47 385.25 607.77 383.04 602.25 382.1 596.72 381.76 590.6 382.1 587.03 386.71 587.03 391.26 587.03 397.22 587.56 403.11 588.82 408.71 589.45 415.09 590.51 420.03 591.63 424.76 592.82 430.65 593.45 437.24 594.43 443.12 594.85 449.29 595.9 454.55 596.11 458.3 596.54"/>
  <polygon class="cls-1" points="461.03 429.88 457.4 429.88 453.63 429.88 453.84 431.65 454.67 433.71 457.96 435.17 459.38 432.34 461.03 429.88"/>
</svg>