<?xml version="1.0" encoding="UTF-8"?>
<svg id="Calque_1" data-name="Calque 1" xmlns="http://www.w3.org/2000/svg" viewBox="0 0 1920 1080">
  <defs>
    <style>
      .cls-1 {
        fill: #fff;
        opacity: 0;
        stroke-width: 0px;
      }
    </style>
  </defs>
  <polygon class="cls-1" points="882.14 215.77 878.8 214.2 875.86 212.63 875.86 206.74 874.68 201.05 873.5 192.41 871.93 183.39 870.56 176.72 869.38 168.28 869.38 158.46 869.38 152.18 871.93 149.24 878.01 149.24 890.77 149.24 899.99 149.24 907.65 148.46 915.69 147.47 924.92 145.9 933.35 144.14 941.79 142.37 947.68 141.2 956.12 140.21 970.84 138.06 979.08 136.29 995.56 133.35 1005.77 131.19 1015.38 129.03 1021.27 127.65 1029.51 126.87 1035.79 126.87 1041.88 128.44 1049.53 128.83 1058.95 129.03 1064.25 129.22 1069.16 131.58 1073.47 134.33 1075.63 135.5 1080.34 136.68 1083.68 140.41 1086.82 145.32 1087.8 148.26 1087.8 159.05 1087.8 172.99 1086.23 178.28 1085.84 184.17 1086.23 188.69 1087.8 192.02 1087.8 195.36 1086.62 199.87 1084.85 201.25 1084.46 196.93 1076.81 196.73 1071.31 196.14 1068.17 194.77 1059.7 195.83 1059.75 202.71 1038.99 202.36 1023.94 202.01 1013.51 201.03 1006.01 201.03 1001.24 198.55 979.86 200.26 969.46 201.64 957.89 202.62 948.07 203.4 938.85 204.78 933.75 205.96 925.7 206.74 916.87 207.53 904.7 209.68 895.09 211.45 889 212.63 882.14 215.77"/>
  <polygon class="cls-1" points="881.15 221.07 887.83 216.55 893.32 214.2 899.4 214.2 903.92 215.77 910.39 213.22 914.12 211.84 919.23 210.86 927.86 209.88 933.94 208.9 939.42 206.09 943.73 204.93 951.66 204.22 959.04 203.4 966.08 202.84 984.33 202.18 1004.05 201.03 1018.19 201.03 1023.94 202.01 1020.82 204.48 1019.01 205.14 1020.82 205.96 1029.04 205.47 1039.72 205.3 1042.19 203.99 1049.42 203.99 1056.82 203.99 1062.41 203.99 1068.16 204.81 1075.72 206.12 1082.46 208.43 1087.8 211.88 1100.49 220.33 1107.15 225.88 1113.66 231.42 1119.2 236.27 1124.33 240.84 1128.63 245.14 1131.68 248.74 1134.31 254.56 1135.56 259 1135.56 268.28 1136.39 275.77 1136.39 313.88 1136.39 328.3 1136.39 372.37 1136.39 407.02 1136.39 436.26 1135.7 454.97 1135.28 464.81 1134.86 473.82 1133.89 484.35 1133.62 495.58 1131.95 509.02 1131.68 516.5 1132.37 528.98 1132.78 537.85 1133.34 553.23 1133.48 572.22 1133.48 606.87 1132.78 622.39 1133.2 651.49 1133.62 689.05 1134.03 704.02 1134.45 731.88 1134.03 768.47 1133.75 780.25 1132.09 803.95 1131.81 818.36 1130.84 827.51 1130.71 848.3 1129.32 856.61 1126.83 861.88 1123.64 868.39 1118.79 876.29 1114.49 882.11 1107.01 890.57 1099.38 897.91 1094.67 901.52 1089.96 904.01 1082.48 907.47 1073.33 910.8 1061.96 914.54 1053.93 916.9 1044.78 919.53 1037.02 921.61 1028.42 923.27 1019.42 925.63 1013.32 927.29 1006.67 928.26 1002.37 928.96 993.78 928.96 985.88 928.96 976.87 927.85 967.44 927.02 954.55 925.63 941.39 924.38 928.91 922.58 915.33 920.09 908.96 917.87 898.98 913.02 891.08 907.89 883.46 903.46 878.19 901.24 871.68 897.08 865.16 890.43 858.37 881 853.52 872.27 851.16 862.57 850.61 848.16 849.64 830.14 848.67 819.05 847.42 797.02 846.31 780.11 844.93 766.66 843.82 753.5 842.71 733.96 841.6 718.85 840.22 704.57 838.14 678.24 836.89 664.66 835.92 649.97 834.95 634.17 833.29 625.16 832.18 613.52 831.48 600.35 830.79 592.04 828.71 581.09 827.74 569.72 826.77 555.03 825.8 541.04 824.83 531.33 823.72 519.28 822.61 506.11 821.64 492.39 819.98 476.17 818.73 462.87 817.76 448.73 815.82 436.54 814.58 421.01 813.61 407.15 812.64 394.13 811.39 383.18 810.56 370.57 809.59 356.57 809.59 346.17 811.94 338.55 814.71 331.07 818.32 323.86 825.11 310.14 830.24 300.02 834.53 290.6 838 281.04 845.07 262.33 849.36 251.79 852.97 243.61 867.8 232.11 876.39 226.57 880.41 223.1 881.15 221.07"/>
  <polygon class="cls-1" points="860.79 361.28 865.65 357.01 870.47 355.58 882 355.81 891.73 356.18 902.34 356.83 911.46 356.97 918.73 357.06 923.36 360.63 926.56 364.24 928.69 369.24 929.94 377.49 929.94 386.21 930.6 394.8 930.6 406.04 931 416.69 931.68 428.41 931.68 450.78 932.36 462.6 932.95 481.35 932.95 491.71 933.73 502.84 933.73 512.02 934.71 534.88 935.39 550.41 935.39 568.29 935.98 583.14 936.76 592.03 936.76 605.41 937.25 616.64 937.74 626.41 938.52 639.79 939.3 651.81 939.69 667.93 940.28 677.6 940.76 693.13 941.35 706.42 941.74 716.97 942.62 734.35 943.6 747.25 944.57 754.77 944.57 764.15 945.65 773.23 946.43 782.51 946.43 797.07 947.21 805.86 947.21 821.98 947.8 830.28 948.48 843.37 948.48 855.97 948.48 869.84 948.48 888.11 949.07 897.39 949.07 902.76 946.04 906.08 943.01 908.03 939.4 908.72 935.98 908.72 932.17 907.35 925.72 904.62 916.15 900.71 904.52 896.51 894.85 892.6 889.48 889.18 887.04 886.54 885.08 882.25 884.11 877.65 884.4 863.98 884.4 853.53 884.01 845.13 883.33 838.78 882.64 831.65 882.74 820.8 882.06 813.57 881.67 804.78 881.57 795.7 880.3 787.69 879.52 777.63 878.54 766.49 877.66 759.16 876.78 749.59 876.78 741.39 875.71 732.11 875.41 724.98 874.44 716.77 873.66 707.59 872.58 697.43 872.58 686.49 872.29 678.48 871.6 670.86 870.92 658.75 870.43 647.8 869.94 637.84 868.97 625.73 868.67 613.22 867.99 602.09 867.21 590.17 866.62 580.89 866.62 568.88 866.33 557.45 865.74 540.45 865.65 528.83 865.35 512.02 864.57 501.96 864.67 482.52 863.69 469.24 863.5 451.07 862.71 438.66 861.74 421.08 861.35 409.55 860.79 401.74 860.79 388.16 859.78 376.93 859.78 369.21 859.78 363.64 860.79 361.28"/>
</svg>