<svg id="product-svg" data-name="Calque 1" xmlns="http://www.w3.org/2000/svg" viewBox="0 0 1280 850">
<!--part1-->
  <polygon class="product-shape1 shape" points="275.25 433.72 279.01 433.72 285.06 437.9 306.89 455.96 326.83 473.4 340.51 484.68 353.77 496.06 366.61 508.57 365.76 511.44 366.01 515.22 367.55 517.62 370.56 520.8 374.25 524.06 377.08 526.63 375.36 530.49 374.33 533.15 374.07 537.19 374.16 543.54 374.81 546.8 376.12 550.56 377.88 552.93 378.34 553.77 375.75 555.22 373.46 556.67 372.39 559.03 372.92 560.87 372.39 562.39 372.62 564.07 373.46 565.67 375.36 566.97 377.65 568.04 377.58 570.94 376.74 574.3 375.21 577.65 372.39 582.23 368.57 589.94 365.6 596.12 363.54 600.16 361.32 603.9 361.02 606.42 361.71 607.72 363.08 608.86 364.76 608.86 365.83 608.18 366.82 606.27 368.5 602.38 371.93 595.05 373.76 589.71 375.29 585.59 377.58 580.4 380.02 576.05 381.09 573.69 381.09 575.29 380.71 578.34 379.26 582.38 377.04 587.73 375.14 592.76 372.62 598.03 370.63 603.14 368.42 607.72 368.04 609.63 369.11 610.24 370.79 610.24 372.39 609.78 373.84 607.95 375.52 605.2 377.88 600.39 380.25 593.98 382.23 588.72 383.76 584.14 385.82 579.33 386.3 576.1 387.4 570.41 389.84 569.08 391.73 567.96 393.11 565.72 393.11 563.57 392.76 560.38 392.07 557.97 391.13 556.17 389.06 554.79 386.74 554.1 387.87 551.26 389.48 549.03 390.47 546.31 390.35 542.34 389.61 538.5 389.61 535.28 388.41 532.18 390.47 529.94 392.62 531.83 395.88 535.42 395.03 538.13 394.87 541.7 395.49 545.35 397.66 549 399.06 550.16 399.06 551.94 398.52 553.81 399.45 554.74 401.16 555.82 402.94 555.51 404.49 560.33 406.2 567.85 407.75 574.06 408.92 581.67 409.3 586.86 409.61 590.59 408.06 591.91 406.12 594.39 406.12 596.95 405.11 600.21 405.04 603.47 406.28 606.19 407.83 607.27 409.61 607.66 408.37 610.24 404.73 616.28 400.69 622.72 397.12 627.61 394.09 630.48 393.4 632.18 394.17 633.81 395.57 635.06 397.2 635.99 399.45 636.37 402.86 635.99 405.11 635.6 406.04 634.28 405.66 632.11 407.05 628.77 410.31 623.1 414.04 616.74 416.13 612.4 416.75 611.08 420.01 611.62 422.73 610.84 423.82 608.9 423.82 606.65 425.13 604.87 425.99 601.92 425.99 599.36 424.67 597.19 422.29 593.86 419.54 591.36 418.17 589.24 419.67 584.62 420.79 579.49 420.42 574.62 419.92 571.88 419.42 566.93 418.36 564.24 416.57 561.14 414.53 558.28 411.92 555.26 410.53 554.04 411.18 551.92 412.08 550.45 413.71 548.82 416.24 549.8 421.79 554.29 428.97 560.24 434.76 564.56 439.57 568.64 446.47 574.73 453.36 580.62 461.11 587.08 470.44 595.26 482.64 605.59 490.39 612.34 503.16 623.53 509.33 630.28 516.98 638.01 521.87 644.59 527.1 652.19 530.31 660.03 533.51 668.55 534.7 673.87 534.7 678.09 532.25 680.11 530.9 682.98 528.2 681.71 528.2 683.65 528.2 687.7 530.49 686.62 534.7 685.14 539.12 683.79 541.95 687.7 544.38 692.01 546.94 696.73 548.56 698.89 548.56 701.18 545.05 704.42 541.81 706.71 535.75 708.33 530.22 708.33 524.29 707.65 519.03 704.82 514.31 702.26 509.87 699.83 505.42 696.87 502.05 694.84 498.27 691.74 497.73 694.84 497.6 699.97 498.41 704.15 499.89 708.33 500.97 711.56 504.07 712.64 505.55 716.14 507.57 719.11 510.81 722.08 514.18 724.1 517.82 724.91 521.73 724.91 524.8 726.15 525.56 727.75 521.73 730.89 518.46 733.74 514.42 735.13 510.17 735.97 503.42 735.97 497.22 732 488.66 724.97 476.47 715.22 468.04 708.18 448.05 689.59 432.11 674.63 418.83 663.17 401.78 646.67 391.85 638 382.48 628.91 373.81 621.92 361.23 611.58 352 602.91 337.32 588.93 329.77 582.36 318.73 571.73 308.38 560.41 295.94 547.13 285.6 536.08 276.51 525.73 272.17 518.19 270.08 512.45 260.57 491.48 256.24 479.04 249.94 460.44 248.97 454.71 248.97 449.54 252.04 446.18 256.38 443.95 261.13 441.15 264.06 440.03 267.7 437.94 271.06 436.68 275.25 433.72"/>
  <polygon class="product-shape1 shape" points="379.48 536.09 381.35 534.55 382.76 534.55 383.56 536.09 384.17 537.63 384.77 540.78 384.5 543.66 383.3 546.87 382.63 549.21 381.69 550.82 380.35 550.15 380.08 548.34 380.02 544.13 379.81 539.84 379.48 537.5 379.48 536.09"/>
  <polygon class="product-shape1 shape" points="410.08 560.54 412.32 563.63 413.79 565.94 414.7 568.6 415.47 570.98 416.11 573.78 416.11 576.78 416.11 580.63 416.11 584.85 415.62 589.43 414.53 584.85 413.09 578.28 412.1 573.09 411.1 567.9 410.08 564.04 410.08 560.54"/>
  <polygon class="product-shape1 shape" points="370.78 514.89 371.15 512.61 373.24 513.29 377.11 516.55 380.43 519.68 383.99 523.31 381.35 523.86 379.88 524.23 376.37 521.09 372.93 517.47 370.78 514.89"/>
  <polygon class="product-shape1 shape" points="403.14 541.19 402.65 539.43 401.33 539.12 400.5 540.39 400.5 542.24 400.85 542.9 402.83 542.02 403.14 541.19"/>
  <polygon class="product-shape1 shape" points="572.77 678.86 569.72 675.73 566.15 670.85 562.58 667.54 558.84 666.15 555.1 664.84 552.83 664.49 551.18 665.71 549 667.19 548.56 662.4 547.96 656.74 544.91 650.82 538.99 640.46 533.5 632.54 526.97 622.52 520.09 614.25 514.08 607.63 504.76 598.23 498.06 592.31 491.09 586.39 475.94 573.5 467.58 566.36 455.65 555.91 445.46 547.46 432.75 537.01 423.35 528.91 416.11 520.56 410.08 515.37 405.24 510.97 394.88 504.62 385.81 497.24 376.62 490.12 360.69 477.04 349.55 467.45 342.16 461.49 328.44 450.36 317.17 441.03 310.82 435.46 304.47 431.06 299.42 427.69 294.76 425 291.91 425.62 288.54 426.52 289.58 422.77 294.11 419.4 301.37 413.05 306.03 409.3 308.88 404.76 312.89 401.79 317.17 401.79 321.57 404.38 325.97 407.23 331.41 412.54 339.31 419.92 345.66 425 353.43 431.06 361.2 436.89 369.23 442.97 377.91 450.23 385.04 456.05 389.18 459.68 394.49 463.96 399.8 468.62 407.44 474.84 424.15 488.56 432.18 494.65 438.53 499.57 445.78 506.05 460.67 517.45 471.94 526.51 480.88 532.86 488.13 537.78 494.61 542.9 502.12 548.14 510.02 555.14 516.76 560.71 526.6 569.64 536.18 577.93 544.99 584.85 551.73 590.76 557.81 595.29 562.09 599.69 565.72 605 570.77 615.23 572.77 621.97 575.04 629.48 577.76 638.42 578.93 645.67 578.93 650.59 573.75 643.99 571.28 639.71 568.95 635.05 566.88 631.68 564.55 630.65 564.94 635.18 565.2 643.08 566.1 647.36 568.31 649.82 571.54 650.08 574.26 652.28 575.3 655.64 578.93 664.32 580.74 670.02 580.74 673.78 578.28 673.91 576.34 674.94 575.3 676.5 574.13 678.86 572.77 678.86"/>
  <polygon class="product-shape1 shape" points="530.27 441.18 532.92 442.51 533.84 443.83 532.05 446.15 529.44 449.55 526.13 452.7 523.31 455.35 520.41 458.01 519.5 457.09 522.48 452.45 524.8 448.23 527.2 444.08 528.61 441.68 530.27 441.18"/>
  <polygon class="product-shape1 shape" points="552.74 409.27 551.49 407.19 549.34 407.19 546.19 408.23 543.78 410.51 541.96 413.74 541.05 416.4 541.05 420.46 541.05 424.27 543.62 421.53 548.09 415.73 550.17 413 552.74 409.27"/>
  <polygon class="product-shape1 shape" points="690 620.18 683.19 625.66 674.69 633.26 666.98 639.04 659.93 644.82 654.81 648.38 651.32 650.85 647.88 652.17 643.37 652.17 640 651.81 634.81 649.04 625.95 642.59 612.76 633.14 601.49 624.76 592.4 618.01 581.13 609.04 568.78 598.85 558.66 590.9 549.5 583.49 538.17 574.52 525.28 564.27 516.24 557.04 500.76 544.69 495.7 540.66 482.75 529.51 477.44 525.11 465.56 516.29 454.85 508.05 441.78 497.93 425.19 484.27 415.3 476.15 396.71 461.09 390.12 456.5 387.06 454.62 382.12 448.73 382.12 436.02 382.12 421.55 380.7 412.37 380.7 404.01 382 397.89 378.82 390.24 373.88 378.24 370.82 367.88 367.64 355.05 366.93 347.87 368.82 345.64 372.94 345.05 378.82 344.11 385.53 340.22 389.18 337.4 392.12 336.69 400.59 331.4 408.01 327.28 411.66 324.92 415.19 323.16 419.19 323.16 426.96 324.69 433.19 326.92 441.31 331.16 457.2 340.93 469.68 349.87 489.1 363.05 499.45 370.47 508.87 377.06 517.69 383.41 526.05 389.3 523.23 393.54 517.93 398.95 513.22 404.95 508.51 410.72 505.1 414.25 503.81 417.19 503.81 420.37 505.22 422.6 503.22 426.37 498.39 432.14 490.63 440.49 484.39 446.97 479.09 451.56 475.33 455.2 471.91 456.85 469.44 455.91 467.68 456.15 465.32 455.44 463.09 455.32 461.67 456.62 460.61 458.97 460.5 461.56 460.14 464.27 458.61 466.15 458.14 468.74 453.91 468.62 450.02 468.62 448.49 469.45 447.9 471.45 447.9 474.27 448.26 475.8 450.02 475.92 447.9 477.21 444.84 479.45 442.96 480.39 442.61 483.57 442.96 485.33 443.43 486.63 444.02 488.16 445.79 488.16 447.32 486.75 449.32 483.21 452.14 480.98 456.73 478.04 460.03 475.68 461.91 476.62 463.32 476.98 466.38 477.33 468.38 476.51 469.21 475.09 469.68 472.74 472.27 472.27 474.03 470.86 474.86 468.5 474.74 465.68 474.74 462.62 479.56 459.09 484.51 454.73 489.21 449.59 494.39 445.08 499.76 438.6 504.14 433.72 507.47 431.18 511.19 428.42 513.76 428.23 516.71 427.75 519.5 425 523.09 421.47 524.8 418.04 528.47 414.61 532.8 408.71 535.28 404.8 536.8 400.42 537.75 398.42 540.13 400.71 543.08 402.61 541.05 404.61 538.99 408.42 536.42 411.75 535.85 416.32 535.47 421.75 535.66 427.08 535.85 433.72 533.84 433.18 531.66 433.72 529.85 434.99 526.67 437.56 523.56 441.75 521.18 446.03 519.5 449.27 517.19 451.94 515.57 453.65 513 452.79 509.95 452.13 507.19 451.74 504.9 452.51 502.9 453.65 501.86 455.17 501.28 457.17 501.57 459.08 501.76 460.89 501.19 463.08 501.57 465.46 502.9 467.55 501.47 472.79 499.95 476.6 499.19 480.5 498.43 484.31 497.38 489.55 496.9 492.78 496.62 494.78 497.19 496.31 498.71 496.59 500.9 496.5 503.19 496.02 504.33 494.31 505.09 484.21 506.14 477.93 507.19 472.41 508.04 469.27 509.28 469.55 509.57 473.65 509 482.21 509 488.12 509 495.07 508.9 498.78 509.09 500.59 510.04 501.35 511.28 501.73 513.38 501.45 514.9 500.88 515.95 498.78 515.85 496.59 515.19 494.12 515.19 486.69 514.42 476.31 514.04 468.79 515.38 469.17 517.38 469.17 519.5 468.6 521.57 467.84 522.61 466.03 523.28 464.41 523.95 462.5 524.9 460.6 529.47 457.46 535.28 451.46 538.04 447.08 539.47 444.13 541.05 440.13 541.05 437.18 542.04 436.13 545.66 435.18 549.65 433.72 552.74 431.65 556.22 428.8 558.32 425.75 559.94 423.18 561.75 419.94 562.7 418.32 563.08 415.73 565.84 416.42 576.41 423.37 594.27 434.83 607.08 443.26 619.89 451.51 637.75 463.48 650.73 473.25 661.51 481.85 671.62 491.11 678.53 498.53 686.12 508.64 691.85 518.41 697.91 529.7 701.62 537.46 704.65 546.73 706.68 556.33 708.19 564.76 708.82 576 706.95 577.31 705.75 579.17 705.42 582.57 708.82 582.13 711.44 581.14 715.28 579.17 720.31 577.75 726.12 576.22 729.84 574.24 732.69 568.44 736.63 561.21 739.47 556.83 741.88 552.34 740.79 550.15 738.6 549.94 736.63 550.05 734 553 730.72 557.6 727.43 561.1 725.9 562.09 724.15 564.72 722.61 565.59 720.97 564.28 719.55 556.83 717.58 545.88 713.74 530.88 710.24 523.44 705.75 515.12 699.4 505.15 694.03 497.71 687.03 488.95 677.83 479.75 666.88 469.68 659.21 464.2 642.24 450.95 627.02 439.67 613.77 429.71 590.25 413.03 575.51 402.66 568.02 395.98 561.45 390.79 553.85 385.95 546.36 382.15 536.91 376.97 513.87 361.76 501.89 353.58 483.69 342.06 472.51 334.69 464.45 330.43 454.31 324.9 444.75 321.44 438.18 319.71 430.58 319.14 426.32 319.6 423.09 319.71 427.81 316.03 437.61 310.61 444.52 306 450.39 302.43 454.54 299.44 459.38 294.25 463.53 289.41 468.14 285.15 471.02 284.23 474.59 285.27 480.12 289.64 486.11 294.83 492.91 301.16 498.09 305.31 503.97 309.57 515.18 316.43 514.37 311.94 512.33 302.82 509.74 287.72 509.06 279.14 508.52 269.75 509.47 260.91 510.01 250.84 511.24 243.9 513.01 234.78 514.1 228.25 517.23 222.54 522.26 219 536 212.47 569.61 194.23 578.59 187.97 591.25 181.03 599.55 176.82 607.17 176 616.29 176 625.81 177.09 635.47 180.22 649.22 186.61 661.33 193.01 674.52 201.31 683.64 207.02 681.33 209.75 678.47 212.6 674.12 216.28 669.9 218.45 667.31 219.41 664.73 221.04 663.64 222.54 665 224.44 666.77 225.12 663.5 226.07 662.55 227.71 662.55 229.63 663.38 231.28 665.02 231.65 667.5 231.28 671.71 227.89 677.67 223.58 683.35 218.91 687.29 215.43 688.94 214.88 690.41 216.25 692.52 216.99 694.62 216.34 697.1 216.34 706.45 222.94 717.66 231.25 725.14 236.11 731.3 241.28 739.69 246.38 748.57 251.56 762.08 260.71 773.62 267.6 786.98 274.92 795.99 280.27 810.06 288.43 820.61 294.48 835.67 302.78 845.66 307.85 854.38 312.91 865.22 318.82 876.05 324.73 888.44 331.63 901.52 339.08 909.68 343.59 917.28 349.5 926 354.7 938.81 365.68 945.56 373.28 951.19 379.89 957.66 389.32 960.62 393.96 963.15 402.4 965.4 411.41 966.39 420.13 964.56 429.98 962.31 437.02 959.07 443.49 955.41 450.95 952.6 455.87 956.96 454.32 963.86 449.96 971.88 444.47 979.76 438.42 983.98 434.2 989.18 427.45 992.14 422.66 992.14 419.57 989.04 418.44 986.37 419.57 982.01 424.07 977.79 428.15 973.56 431.25 971.59 429.84 973.28 417.74 973.71 404.51 972.16 394.8 969.2 384.11 963.15 373.42 956.82 365.54 950.07 357.94 941.91 350.76 931.07 342.32 917.56 332.61 899.41 323.61 879.43 313.19 859.45 302.92 833.7 290.26 815.83 279.14 800.49 269.57 793.18 265.21 779.53 256.06 785.58 255.92 790.36 256.49 791.21 259.3 793.46 260.29 796.27 261.55 799.09 261.83 802.46 260.99 804.71 258.88 805.14 255.78 811.47 255.64 819.35 255.64 821.6 256.06 824.27 255.92 825.15 255.12 825.44 253.08 825.44 251.26 831.13 251.26 836.31 251.26 838.06 251.11 838.71 249.36 838.71 247.25 837.47 245.28 836.09 244.26 832.37 244.62 821.35 245.2 810.93 245.64 805.67 246.37 801.59 247.39 798.75 246.66 796.7 246.66 794.3 247.39 792.26 247.03 787.95 243.23 785.03 241.69 782.64 240.59 779.27 239.55 776.52 239.55 773.94 240.1 771.92 241.94 770.45 243.47 766.9 240.84 763.83 238.51 762.24 237.77 760.47 238.14 757.28 238.69 750.44 234.59 748.62 232.31 745.09 229.23 738.52 224.11 733.25 219.22 729.47 214.51 726.78 213.85 724.53 215.05 722.01 214.56 717.03 210.78 713.44 209.78 709.56 208.79 705.48 208.09 701.22 207.9 700.93 204.49 700.5 201.34 698.98 198.22 696.61 196.29 694.24 195.7 691.35 195.77 688.76 196.22 686.39 197.11 675.85 190.85 667.51 185.99 659.98 182.4 651.99 179.04 644.35 176 637.52 174.17 631.38 172.67 624.98 172.1 617.06 172.1 613.15 173.57 608.06 173.4 615.36 168.88 625.71 162.37 636.13 157.78 647.28 152.01 658.2 144.76 669.51 137.22 678.83 130.06 686.56 124.88 688.91 122.62 691.27 121.68 693.53 121.68 695.88 124.13 705.21 131.66 715.57 138.63 727.09 144.63 734.2 148.12 742.57 153.24 749.81 157.11 761.3 164.11 771.79 169.97 780.29 174.64 788.34 179.75 796.49 184.53 806.37 190.18 815.39 194.53 832.89 203.11 843.76 208.44 859.43 217.26 875.63 225.94 888.54 231.81 898.87 237.68 910.14 243.32 920.23 248.95 927.51 253.17 939.48 258.57 951.22 263.03 968.83 270.36 996.08 282.82 1011.46 290.26 1022.57 295.05 1032.25 298.48 1038.77 300.23 1043.14 302.11 1043.95 304.93 1043.95 310.86 1042.65 317.83 1038.82 329.18 1033.14 344.35 1029.73 353.03 1027.74 359.8 1025.62 365 1023.3 372.04 1020.43 379.4 1019.19 383.02 1017.15 392.41 1015.91 402.25 1014.78 411.41 1014.44 419.78 1013.76 424.31 1010.25 429.06 1003.8 434.94 993.17 445.91 984.57 454.29 975.07 463.45 965 473.29 957.2 480.64 952.56 485.39 945.32 491.95 935.03 494.67 918.06 496.93 901.99 498.97 890 500.21 882.42 501.57 874.85 502.14 868.62 502.02 860.93 500.21 860.14 507.56 858.56 518.65 857.76 526.12 865.12 528.94 870.89 530.53 879.14 530.75 888.65 529.74 901.32 527.47 909.01 526.57 904.71 531.66 897.36 538.22 886.04 549.19 878.47 555.75 869.53 562.88 863.19 567.63 858.56 569.67 853.92 570.01 849.62 568.88 841.02 563.45 822.36 549.87 810.14 541.73 794.87 530.98 781.07 521.59 768.85 513.33 756.5 504.96 749.69 500.3 749.19 502.94 749.08 515.54 749.08 520.2 748.96 522.13 748.51 529.17 748.85 534.62 750.1 540.07 750.78 543.14 751.12 549.04 751.92 557.11 751.8 560.97 749.99 564.37 745.67 568.8 737.95 575.84 730 583.57 722.51 590.72 718.19 594.58 715.12 597.42 706.49 597.53 697.75 596.28 685.71 595.94 677.99 594.24 670.49 592.42 662.09 590.27 656.64 588.22 652.21 585.61 649.94 584.02 648.58 594.81 647.89 607.07 647.55 609.12 651.19 612.18 657.34 617.06 662.61 619.09 669.31 620.51 677.23 620.51 684.74 619.6 690 620.18"/>

<!--elastic1-->

  <polygon class="elastic1 shape" points="544.2 430.24 547.93 425.51 552.74 419.3 555.8 414.65 558.12 411.75 559.28 413.33 558.12 417.39 555.55 421 553.07 424.27 550.08 427.09 544.2 430.24"/>
  <polygon class="elastic1 shape" points="782.99 246.79 786.14 248.91 789.35 250.35 789.96 251.51 785.52 251.17 780.94 250.9 777.59 250.62 779.57 248.44 781.28 246.79 782.99 246.79"/>
  <polygon class="elastic1 shape" points="975.19 433.89 976.51 434.45 976.91 435.71 976.15 437 974.21 438.83 972.29 439.94 971.01 439.94 971.01 438.35 972.73 435.52 973.86 434.25 975.19 433.89"/>
  <polygon class="elastic1 shape" points="514.03 413.39 515.52 413.84 516.98 414.88 516.98 415.75 515.94 417.34 514.03 419.21 512.51 419.21 512.51 416.61 513.17 414.88 514.03 413.39"/>
  <polygon class="elastic1 shape" points="390.47 529.94 393.97 528.79 395.6 527.35 396.92 525 397.28 522.17 396.32 520.01 393.43 523.08 390.47 526.32 388.4 528.35 390.47 529.94"/>
  <polygon class="elastic1 shape" points="382.76 534.55 384.77 532.45 386.48 531.42 388.41 532.18 389.61 535.28 389.61 538.5 390.35 542.34 390.47 546.31 389.48 549.03 387.87 551.26 386.74 554.1 389.06 554.79 391.13 556.17 392.07 557.97 392.76 560.38 393.11 563.57 393.11 565.72 391.73 567.96 389.84 569.08 387.4 570.41 385.82 579.33 383.76 584.14 382.23 588.72 380.25 593.98 377.88 600.39 375.52 605.2 373.84 607.95 372.39 609.78 369.11 610.24 368.04 609.63 368.42 607.72 370.63 603.14 372.62 598.03 375.14 592.76 377.04 587.73 379.26 582.38 380.71 578.34 381.09 575.29 375.29 585.59 373.76 589.71 371.93 595.05 368.5 602.38 366.82 606.27 365.83 608.18 364.76 608.86 363.08 608.86 361.71 607.72 361.02 606.42 361.32 603.9 363.54 600.16 365.6 596.12 368.57 589.94 372.39 582.23 375.21 577.65 376.74 574.3 377.58 570.94 377.65 568.04 375.36 566.97 373.46 565.67 372.62 564.07 372.39 562.39 372.92 560.87 372.39 559.03 373.46 556.67 375.75 555.22 378.34 553.77 377.88 552.93 376.12 550.56 374.81 546.8 374.16 543.54 374.07 537.19 374.33 533.15 375.36 530.49 377.08 526.63 370.56 520.8 367.55 517.62 366.01 515.22 365.76 511.44 366.61 508.57 369 505.72 372.75 504.1 377.39 503.76 382.9 505.21 386.14 507 389.9 510.24 392.84 514.59 392.84 517.32 392.11 519.28 389.55 520.01 387 518.42 383.99 515.53 380.51 512.97 377.96 511.69 373.52 511.86 371.15 512.61 370.78 514.89 372.93 517.47 376.37 521.09 379.88 524.23 381.35 523.86 383.99 523.31 387.17 522.69 389.21 524.23 387.59 526.28 384.77 528.41 382.12 531.05 380.09 533.53 380.51 534.55 382.76 534.55"/>
  <polygon class="elastic1 shape" points="393.4 632.18 394.09 630.48 397.12 627.61 400.69 622.72 404.73 616.28 408.37 610.24 409.61 607.66 407.83 607.27 406.28 606.19 405.04 603.47 405.11 600.21 406.12 596.95 406.12 594.39 408.06 591.91 409.61 590.59 409.3 586.86 408.92 581.67 407.75 574.06 406.2 567.85 404.49 560.33 402.94 555.51 401.82 553.71 400.5 551.77 399.06 550.16 397.66 549 395.49 545.35 394.87 541.7 395.03 538.13 395.88 535.42 398.05 532.61 401.51 530.67 405.28 529.94 409.07 530.4 411.71 531.99 411.1 535.6 408.45 537.89 405.98 538.07 403.14 537.89 401.33 539.12 400.5 540.39 400.5 542.24 400.85 542.9 403.14 545.3 405.46 543.8 408.45 542.69 413.09 542.69 414.18 543.97 412.33 547.06 410.08 549.97 409.33 552.44 410.53 554.04 411.92 555.26 414.53 558.28 416.57 561.14 418.36 564.24 419.42 566.93 419.92 571.88 420.42 574.62 420.79 579.49 419.67 584.62 419.54 591.36 422.29 593.86 424.67 597.19 425.99 599.36 425.99 601.92 425.13 604.87 423.82 606.65 423.82 608.9 422.73 610.84 420.01 611.62 416.75 611.08 416.13 612.4 414.04 616.74 410.31 623.1 407.05 628.77 405.66 632.11 406.04 634.28 405.11 635.6 402.86 635.99 399.45 636.37 397.2 635.99 395.57 635.06 394.17 633.81 393.4 632.18"/>
  <polygon class="elastic1 shape" points="530.6 389.6 531.81 386.93 534.33 386.17 537.16 387.89 538.98 389.6 539.79 394.15 537.75 398.42 536.8 400.42 535.28 404.8 532.8 408.71 528.47 414.61 524.8 418.04 520.6 421.52 517.57 424.27 515.24 426.07 512.01 426.07 509.99 426.07 511.19 428.42 507.47 431.18 504.14 433.72 499.76 438.6 494.39 445.08 489.21 449.59 484.51 454.73 479.56 459.09 474.74 462.62 474.74 465.68 474.86 468.5 474.03 470.86 472.27 472.27 469.68 472.74 469.21 475.09 468.38 476.51 466.38 477.33 463.32 476.98 461.91 476.62 460.03 475.68 456.73 478.04 452.14 480.98 449.32 483.21 447.32 486.75 445.79 488.16 444.02 488.16 443.43 486.63 442.96 485.33 442.61 483.57 442.96 480.39 444.84 479.45 447.9 477.21 450.02 475.92 448.26 475.8 447.9 474.27 447.9 471.45 448.49 469.45 450.02 468.62 453.91 468.62 458.14 468.74 458.61 466.15 460.14 464.27 460.5 461.56 460.61 458.97 461.67 456.62 463.09 455.32 465.32 455.44 467.68 456.15 469.44 455.91 471.91 456.85 475.33 455.2 479.09 451.56 484.39 446.97 490.63 440.49 498.39 432.14 503.22 426.37 505.22 422.6 506.05 418.59 506.15 415.73 508.17 412.94 511.1 411.75 514.03 413.39 513.17 414.88 512.51 416.61 512.51 419.21 514.03 419.21 515.94 417.34 516.98 415.75 520.49 412.23 526.15 406.57 529.89 400.72 531.61 396.98 532.21 393.85 530.39 391.52 530.6 389.6"/>
  <polygon class="elastic1 shape" points="543.08 402.61 545.85 400.41 549.99 399.6 555.44 399.6 559.28 401.11 560.19 403.95 559.28 406.17 556.66 408.19 554.23 406.68 551.74 405.77 549.34 407.19 546.19 408.23 543.78 410.51 541.96 413.74 541.05 416.4 541.05 420.46 541.05 424.27 540.5 429 539.79 432.94 537.87 436.17 535.14 438.19 530.27 441.18 532.92 442.51 533.84 443.83 535.04 441.18 537.46 438.6 540.5 435.36 544.2 430.24 550.08 427.09 553.07 424.27 555.55 421 558.12 417.39 559.28 413.33 558.78 409.4 560.19 407.19 562.21 406.17 563.63 408.39 564.23 411.75 564.23 414.86 563.08 415.73 562.7 418.32 561.75 419.94 559.94 423.18 558.32 425.75 556.22 428.8 552.74 431.65 549.65 433.72 545.66 435.18 542.04 436.13 541.05 437.18 541.05 440.13 539.47 444.13 538.04 447.08 535.28 451.46 529.47 457.46 524.9 460.6 523.95 462.5 523.28 464.41 522.61 466.03 521.57 467.84 519.5 468.6 517.38 469.17 515.38 469.17 514.04 468.79 514.42 476.31 515.19 486.69 515.19 494.12 515.85 496.59 515.95 498.78 514.9 500.88 513.38 501.45 511.28 501.73 510.04 501.35 509.09 500.59 508.9 498.78 509 495.07 509 488.12 509 482.21 509.57 473.65 509.28 469.55 508.04 469.27 507.19 472.41 506.14 477.93 505.09 484.21 504.33 494.31 503.19 496.02 500.9 496.5 498.71 496.59 497.19 496.31 496.62 494.78 496.9 492.78 497.38 489.55 498.43 484.31 499.19 480.5 499.95 476.6 501.47 472.79 502.9 467.55 501.57 465.46 501.19 463.08 501.76 460.89 501.57 459.08 501.28 457.17 501.86 455.17 502.9 453.65 504.9 452.51 507.19 451.74 509.95 452.13 513 452.79 515.57 453.65 517.19 451.94 519.5 449.27 521.18 446.03 523.56 441.75 526.67 437.56 529.85 434.99 531.66 433.72 533.84 433.18 535.85 433.72 535.66 427.08 535.47 421.75 535.85 416.32 536.42 411.75 538.99 408.42 541.05 404.61 543.08 402.61"/>
  <polygon class="elastic1 shape" points="686.39 197.11 688.76 196.22 691.35 195.77 694.24 195.7 696.61 196.29 698.98 198.22 700.5 201.34 701.22 207.9 705.48 208.09 709.56 208.79 713.44 209.78 717.03 210.78 722.01 214.56 724.53 215.05 727.25 215.89 729.85 217.07 730.85 220 732.36 221.85 737.24 222.92 738.52 224.11 741.65 226.55 742.18 229.56 742.18 231.91 739.91 233.93 736.81 233.51 736.81 230.49 732.95 228.14 729.43 227.8 724.31 226.96 722.13 225.37 720.79 222.43 721.63 221.18 722.88 221.18 719.78 218.83 715.84 216.14 712.65 215.56 710.97 214.81 714.28 217.57 717.68 219.16 719.19 220.59 719.36 224.62 718.52 226.29 714.28 224.45 708.96 221.01 703.34 217.07 700.57 215.47 699.06 214.13 697.1 216.34 694.62 216.34 692.52 216.99 690.41 216.25 688.94 214.88 687.29 215.43 683.35 218.91 677.67 223.58 671.71 227.89 667.5 231.28 665.02 231.65 663.38 231.28 662.55 229.63 662.55 227.71 663.5 226.07 666.77 225.12 665 224.44 663.64 222.54 664.73 221.04 667.31 219.41 669.9 218.45 674.12 216.28 678.47 212.6 681.33 209.75 683.64 207.02 684.8 205.41 685.22 201.72 686.31 199.53 687.32 198.44 686.39 197.11"/>
  <polygon class="elastic1 shape" points="757.28 238.69 760.47 238.14 762.24 237.77 763.83 238.51 766.9 240.84 770.45 243.47 771.92 241.94 773.94 240.1 776.52 239.55 779.27 239.55 782.64 240.59 785.03 241.69 787.95 243.23 792.26 247.03 794.3 247.39 796.7 246.66 798.75 246.66 801.59 247.39 805.67 246.37 810.93 245.64 821.35 245.2 832.37 244.62 836.09 244.26 837.47 245.28 838.71 247.25 838.71 249.36 838.06 251.11 836.31 251.26 831.13 251.26 825.44 251.26 825.44 253.08 825.15 255.12 824.27 255.92 821.6 256.06 819.35 255.64 811.47 255.64 805.14 255.78 804.71 258.88 802.46 260.99 799.09 261.83 796.27 261.55 791.21 259.3 790.36 256.49 785.58 255.92 779.53 256.06 776.7 256.15 773.52 255.03 770.89 254.05 770.94 251.17 773.78 249.8 776.7 249.15 779.57 248.44 781.28 246.79 780.56 245.07 778.67 244.56 776.53 246.19 775.24 247.99 772.15 249.8 769.91 250.65 768.11 252.37 766.48 252.11 766.05 249.15 763.04 246.06 759.97 243.1 757.28 238.69"/>
fill="#fff"
</svg>