<svg id="product-svg" viewBox="0 87 1180 800" xmlns="http://www.w3.org/2000/svg" stroke="null">
    <title>Layer 1</title>
    <g id="svg_4">
        <path fill="#fff"  opacity="NaN" d="m938.99128,805.08908" id="svg_3"/>
        <path class="product-shape1 shape" fill="#fff" opacity="NaN" d="m860.17732,600.29507l4.36082,-9.45149l6.22603,-19.37968l7.90226,-17.12621l5.98656,-8.78846l-3.83139,-1.80277l-0.71839,-2.92948l4.54979,-5.40828l0.47892,-4.28156l3.11301,-2.92948l5.02871,-0.67603l-5.26818,-12.39397l-5.02871,-14.87277l-1.67624,-8.33776l0.47892,-6.98569l2.61184,-8.65224l4.33257,-4.64312l1.67624,-0.90138l0.23947,-3.15483l-4.54979,-6.98569l-2.15516,-9.23914l0,-8.78846l8.14172,-0.67603l-0.23947,7.66172l1.43677,7.88708l2.63409,3.38018l-1.67624,10.14052l-0.71839,3.60551l-3.11301,2.92948l-0.71839,4.5069l-1.19732,4.73224l0.23947,7.88708l3.59194,12.61932l2.15516,4.05621l3.35247,-25.68933l-1.67624,-6.53501l0.95785,-6.53501l3.80916,-12.55122l3.75485,-4.91051l4.36463,-8.69933l0.5751,-6.0633l7.59868,-0.76516l-0.08637,6.39879l-2.84149,6.88353l-3.46108,4.81339l-3.80916,6.50095l-5.83346,7.49146l2.63409,6.98569l0.71839,9.68983l-1.9157,10.81656l-0.71839,11.71793l0.23947,12.16863l4.31033,-0.45069l2.63409,2.25344l1.43677,3.83087l-0.47892,3.60551l1.9157,3.38018l-1.67624,4.28156l-3.59194,3.15483l-1.9157,4.95759l-6.22603,3.15483l-3.59194,20.05571l-2.87355,11.26726l-1.19732,11.26726l-0.47892,6.30966l-2.20946,5.3141l-9.5785,-0.2594l7.95656,-42.68731l2.87355,-10.36587l-6.94441,13.74604l-6.6827,19.7963l-4.17947,17.80226l-2.89579,3.49033l-9.23042,-3.90697l0.66789,-2.71714l0,-0.00001l0.00001,0.00001l0,0.00004z" id="svg_5" />
    </g>
    <path class="product-shape1 shape" fill="#fff"  opacity="NaN" d="m183.7132,425.24205l0.05316,-4.92072l8.94736,0.26316l1.57895,4.73684c0.21,0.18389 4.15737,2.55231 4.15737,2.55231c0,0 17.10525,1.8421 16.89525,1.65822c0.21,0.18389 13.36788,1.49967 13.15788,1.31579c0.21,-1.30503 8.8942,-1.65822 8.6842,-1.8421c0.21,-0.45422 4.68368,-1.65822 4.47368,-1.8421c0.21,0.18389 4.42052,3.07862 4.21052,2.89473c0.21,0.18389 -3.21105,7.02599 -3.42105,6.8421c0.21,0.18389 -3.47421,1.76283 -3.68421,1.57895c0.21,0.18389 -16.10578,2.28915 -16.31578,2.10526c0.21,0.18389 -12.42157,-0.60559 -12.63157,-0.78947c0.21,0.18389 -12.68473,-2.71085 -12.89473,-2.89473c0.21,0.18389 -3.47421,-1.39506 -3.68421,-1.57895c0.21,0.18389 -7.68473,1.76283 -7.89473,1.57895c0.21,0.18389 -2.42158,3.86809 -2.63158,3.68421c0.21,0.18389 -20.3163,-2.97401 -20.5263,-3.15789c0.21,0.18389 10.20999,25.18387 9.99999,24.99998c0.21,0.18389 5.21,2.02599 5,1.8421c0.21,0.18389 -1.89526,6.23651 -2.10526,6.05263c0.21,0.18389 -4.26368,3.07862 -4.47368,2.89473c0.21,0.18389 -4.26368,-0.60559 -4.47368,-0.78947c0.21,0.18389 -2.42158,-3.50032 -2.63158,-3.68421c0.21,0.18389 -9.26368,-27.44767 -9.47368,-27.63156c0.21,0.18389 -2.42158,0.18389 -2.63158,0c0.21,0.18389 2.0521,8.34177 1.8421,8.15789c0.21,0.18389 -2.68474,5.18388 -2.89473,5c0.21,0.18389 -2.68474,2.28915 -2.89473,2.10526c0.21,0.18389 -4.26368,-2.71085 -4.47368,-2.89473c0.21,0.18389 0.47316,-13.76347 0.26316,-13.94736c0.21,0.18389 -3.21105,0.18389 -3.42105,0c0.21,0.18389 -3.73737,-1.65822 -3.94737,-1.8421c0.21,0.18389 -3.47421,2.55231 -3.68421,2.36842c0.21,0.18389 -8.21105,-3.50032 -8.42105,-3.68421c0.21,0.18389 -2.94789,0.97336 -3.15789,0.78947c0.21,0.18389 -66.63206,30.97334 -66.84205,30.78945c0.21,0.18389 -3.21105,0.18389 -3.42105,0c0.21,0.18389 -7.42158,-7.18453 -7.63157,-7.36842c0.21,0.18389 3.10473,-1.65822 2.89473,-1.8421c0.21,0.18389 58.36785,-23.76346 58.15785,-23.94735c0.21,0.18389 -0.57948,-1.65822 -0.78947,-1.8421c0.21,0.18389 -57.15838,17.55229 -57.36837,17.36841c0.21,0.18389 -4.26368,-9.02663 -4.47368,-9.21052c0.21,0.18389 12.84157,-2.44769 12.63157,-2.63158c0.21,0.18389 41.2626,-12.71084 41.0526,-12.89473c0.21,0.18389 21.52577,-5.07927 21.31577,-5.26315c0.21,0.18389 0.21,-6.92137 0,-7.10526c0.21,0.18389 3.63105,-1.65822 3.42105,-1.8421c0.21,0.18389 4.68368,0.18389 4.47368,0c0.21,0.18389 4.68368,-2.97401 4.47368,-3.15789c0.21,0.18389 5.47315,0.7102 5.26315,0.52632c0.21,0.18389 1.52579,3.60494 1.31579,3.42105c0.21,0.18389 7.57841,-1.65822 7.36842,-1.8421c0.21,0.18389 4.15736,-5.60558 3.94737,-5.78947c0.21,0.18389 5.20999,-2.18453 5,-2.36842c0.21,0.18389 6.52578,-1.1319 6.31578,-1.31579c0.21,0.18389 5.47315,2.28915 5.26315,2.10526c0.21,0.18389 5.99947,5.18388 5.78947,5c0.21,0.18389 5.73631,-1.65822 5.52631,-1.8421c0.21,0.18389 25.99945,-9.02663 25.78945,-9.21052c0.21,0.18389 2.31526,5.7102 2.10526,5.52631c0.21,0.18389 7.31526,-1.65822 7.10526,-1.8421c-1.06622,0.18389 -4.00052,-7.18453 -4.21052,-7.36842c-0.85351,0.822 1.26263,-5.60558 1.05263,-5.78947c0.21,0.18388 3.63105,-4.2898 3.42105,-4.47368c0.21,0.18388 17.05209,-4.81611 16.84209,-5c0.21,0.18388 20.47314,-1.1319 20.26314,-1.31579c0.21,0.18388 18.10472,2.81546 17.89472,2.63158c0.21,0.18388 -6.36894,8.07862 -6.57894,7.89473c0.21,0.18388 -17.68472,0.44704 -17.89472,0.26316c0.21,0.18388 -13.4742,0.97336 -13.6842,0.78947c0.21,0.18388 -9.78999,3.07862 -9.99999,2.89473c0.21,0.18388 -2.42158,8.60493 -2.63158,8.42105c0.21,0.18389 7.57842,-1.65822 7.36842,-1.8421c0.21,0.18389 -0.57947,9.3944 -0.78947,9.21052c0.21,0.18389 -26.36893,7.02599 -26.57893,6.8421c0.21,0.18389 -3.21105,0.97336 -3.42105,0.78947c0.21,0.18389 -5.84263,-0.34243 -6.05263,-0.52632c0.21,0.18389 -5.31631,3.34178 -5.52631,3.15789c0.21,0.18389 -0.31632,4.13125 -0.52632,3.94737c0.21,0.18389 1.78895,8.60493 1.57895,8.42105c0.21,0.18389 5.99947,0.44704 5.78947,0.26316c0.21,0.18389 -0.30354,-0.77025 -1.89526,-4.55295l0.00001,-0.00005z" id="svg_9"/>
    <path class="product-shape1 shape" fill="#fff"  opacity="NaN" d="m323.39863,743.50041l24.47006,14.97054l-23.72241,-6.22199l-10.83333,-1.94444l-18.88889,-0.83333l-18.05556,0.27778l-16.66667,1.38889l-11.94444,1.66667l0.55556,5l-0.55556,3.61111l-4.72222,1.38889l-0.55556,4.72222l-2.77778,2.22222l-6.38889,-1.11111l-10.83333,10.83333l-21.11111,19.16667l-4.44444,5.55556l-8.88889,-7.77778l7.22222,-3.88889l12.5,-11.11111l-13.61111,8.88889l-6.11111,-9.72222l34.44444,-21.66667l-1.94444,-11.94444l2.5,-6.94444l7.22222,-3.88889l5.55556,-3.33333l3.33333,0.27778l2.22222,2.77778l16.66667,-9.16667l12.22222,-5.27778l11.11111,-2.5l10.27778,-0.55556l10.83333,0.27778l11.11111,2.77778l11.94444,4.72222l3.88889,1.66667l5.83333,7.22222l18.61111,11.38889l-0.83333,3.33333l-35.27778,-17.77778l-18.05556,-4.72222l-15.83333,-0.27778l-15.27778,4.44444l-16.66667,7.77778l-6.66667,5.27778l26.94444,-3.05556l27.5,-0.83333l24.05541,3.33323l-0.1793,-0.20756l-0.17929,-0.20757z" id="svg_6"/>
    <path class="product-shape1 shape" fill="#fff"  opacity="NaN" d="m445.34418,765.77633l33.02773,-4.41669l2.22222,4.72222l-1.11111,4.72222l-21.11111,1.38889l-22.22222,-1.38889l-10,-2.77778l19.19449,-2.24997z" id="svg_7"/>
    <path class="product-shape1 shape" fill="#fff"  opacity="NaN" d="m760.3456,701.27052l10.19153,4.27222l11.50268,-1.11316l11.68821,-6.8645l-0.37105,-4.82371l-16.14086,2.96843l-16.87051,5.56071l0,0.00001z" id="svg_14"/>
    <path class="product-shape2 shape" fill="#fff"  opacity="NaN" d="m259.20091,366.71148l34.47604,-44.66269l32.05742,-23.44498l66.02871,-11.00478l76.07656,-6.69857l73.68422,-3.34928l54.54545,-1.91388l43.54067,3.82775l66.02872,3.34929l-21.43803,3.55208l-41.42582,-2.50482l-3.46821,-1.54142l-11.36801,0.19268l-35.64547,0.38535l-55.68401,0.38536l-55.87669,6.55106l-36.80154,6.35838l-18.30443,3.66089l-24.66281,7.12909l-22.92871,7.51445l-23.50674,7.89981l-24.27746,10.98266l-14.25819,9.05588l-20.03854,15.60693l-16.57032,16.18497l-1.34875,1.54143l-10.01927,-2.31214l-3.27553,-3.08285l-3.08285,-1.73411c0.09533,0.17246 -2.60217,-0.02022 -2.60217,-0.02022c0,0 3.48698,-1.41296 3.22867,-1.04602c-0.25831,0.36694 -0.63802,3.76821 -2.48222,0.85691c-1.84421,-2.9113 -1.74549,-4.23813 -0.90418,-3.74258l0.30349,2.02337z" id="svg_19"/>
    <path class="product-shape2 shape" fill="#fff"  opacity="NaN" d="m957.15258,399.23426l2.34111,-24.09387l-1.40277,-7.61503l-7.21424,-18.23599l-7.41463,-17.6348l-5.61107,-4.80949l-9.21819,-6.41266l-23.24588,-11.42254l-39.67831,-11.02175l-35.26961,-6.81345l-20.44034,-3.40672l-36.67238,-3.40672l-37.87475,-1.40277l-28.05537,-0.80158l-23.24588,4.6091l-42.68424,-3.40672l-12.22413,2.00396l-37.07317,0l-57.9143,0.2004l-38.07515,4.4087l-29.45814,5.21028l-19.03757,5.21028l-35.8708,9.0178l-37.27356,13.62689l-23.04548,10.22017l-21.64271,12.02373l-18.0356,12.42452l-12.42452,12.42452l-11.42254,17.23401l-13.2261,21.04153l-8.41661,23.24588l-1.40277,18.63678l-0.60119,21.44232l1.80356,8.41661l23.24588,8.01582l18.23599,3.20633l18.0356,1.40277l15.43045,-2.40475l4.20831,-46.49176l4.00791,-21.04153l9.41859,-22.84509l17.43441,-33.26565l8.01582,-9.41859l18.63678,-13.82729l32.06328,-15.43045l22.04351,-6.41266l32.06328,-3.20633l34.46803,1.80356l24.44825,0l51.50165,-1.00198l36.47198,0.2004l39.07712,0.60119l9.0178,2.00396l13.82729,-1.40277l36.87277,-1.60316l53.5056,-0.40079l36.27159,-1.60316l40.68029,-2.40475l4.4087,1.80356l20.03955,0.2004l19.23797,6.21226l19.63876,10.42057l8.8174,6.21226l5.21028,3.00593l4.20831,8.61701l-1.60316,37.27356l4.80949,5.61107l7.27788,5.25669l-0.00003,-0.00002z" id="svg_23"/>
    <path class="product-shape3 shape" fill="#fff"  opacity="NaN" d="m382.74876,549.92581l-14.32771,-79.59088l-13.39713,-62.20096l20.57416,-42.10526l28.70813,-23.44498l31.10048,-14.83254l26.31579,-7.17703l29.66507,-2.87081l48.32536,2.39234l67.94258,-1.43541l66.50718,0.95694l8.61244,1.91388l18.66029,-0.95694l52.15311,-2.39234l110.52632,-3.82775l5.26316,2.39234l20.57416,-0.47847l32.53589,12.91866l20.09569,11.96172l4.30622,9.09091l-0.95694,37.79904l-7.17703,45.93301l-0.456,1.53385l-21.12583,3.7557l-33.48836,2.5038l0,9.38926l1.87785,8.60682l5.16409,7.35492l0,3.28624l-6.10302,5.94653l-3.59922,14.55335l4.22517,17.68311l-64.94238,10.95414l-37.08757,4.38165l-29.1067,4.22517l-38.65245,5.16409l-26.13344,2.03434l-40.06084,3.91219l-39.2784,3.44273l-28.63724,4.53814l-33.33187,1.40839l-42.09518,2.34731l-47.72874,1.40839l-40.5303,0l-34.74026,-1.09541l-0.17654,-1.3802l0.00001,0.00002z" id="svg_25"/>
    <path class="product-shape3 shape" fill="#fff"  opacity="NaN" d="m939.04027,435.52619l-1.52006,27.63956l-0.69929,22.61051l-7.45914,14.68517l-26.80627,5.82745l0.69929,-10.48941l0.69929,-16.31686l-2.09788,-7.92533l12.58729,-17.24925l3.03027,-7.92533l0,-6.75984l21.56649,-4.09666l0.00001,-0.00001z" id="svg_26"/>
    <path class="product-shape3 shape" fill="#fff"  opacity="NaN" d="m918.31202,593.76434l-6.4797,42.11433l-2.00329,5.00823l-11.01811,10.01647l-16.02635,12.35364l-9.01482,3.50576l-13.68917,5.50906l-9.51564,0.66776l-3.33882,-1.66941l-4.00659,2.33718l-28.04611,3.6727l-26.71058,6.00988l-9.84953,0.66776l-6.84459,2.838l-27.71222,3.17188l-42.40304,7.01153l-35.55846,7.17847l-14.02305,1.33553l-9.3487,3.50576l-65.7748,13.52223l-30.38328,6.5107l-12.85447,7.34541l-31.05105,7.17847l-25.04117,6.84459l-39.06422,5.84294l-13.68917,3.6727c0.13595,0.12176 -12.55157,-1.04683 -12.55157,-1.04683c0,0 -10.68423,0.16694 -10.82018,0.04518c0.13595,0.12176 -6.70863,-3.88483 -6.84459,-4.00659c0.13595,0.12176 -14.38792,-13.56741 -14.38792,-13.56741c0,0 -15.52552,-12.68752 -15.66148,-12.80929c0.13595,0.12176 -2.47826,-1.73824 -6.5107,-4.34047c0.13595,0.12176 -7.3764,-9.72776 -7.3764,-9.8947c0,-0.16694 8.34706,-6.67764 8.18011,-6.67764c-0.16694,0 -7.34541,-32.05269 -7.48136,-32.17445c0.13595,0.12176 28.84982,0.62259 28.71387,0.50082c0.13595,0.12176 21.8383,-0.37906 21.70234,-0.50082c0.13595,0.12176 16.83006,0.12176 16.69411,0c0.13595,0.12176 17.99865,-1.04682 17.8627,-1.16859c0.13595,0.12176 -0.69875,25.32987 -0.83471,25.20811c0.13595,0.12176 1.47148,12.30846 1.33553,12.1867c0.13595,0.12176 5.47807,-0.87988 5.34212,-1.00165c0.13595,0.12176 32.0217,-3.384 31.88575,-3.50576c0.13595,0.12176 17.81507,-2.26751 33.05434,-4.34047c0.13595,0.12176 22.673,-2.21541 22.53705,-2.33718c0.13595,0.12176 15.49453,-1.71459 15.35858,-1.83635c0.13595,0.12176 8.483,-0.04518 8.34706,-0.16694c0.13595,0.12176 0.46983,-35.10281 0.33388,-35.22457c0.13595,0.12176 3.50433,-2.35749 42.06916,-4.67435c0.13595,0.12176 34.19193,-4.55259 34.05599,-4.67435c0.13595,0.12176 27.68123,-4.38565 27.54528,-4.50741c0.13595,0.12176 32.0217,-4.88647 31.88575,-5.00823c0.13594,0.12176 13.82743,-2.55283 29.71552,-5.17517c0.13594,0.12176 25.51099,-4.05176 25.37505,-4.17353c0.13594,0.12176 12.58191,-2.25567 37.89563,-7.01153c0.13594,0.12176 40.53569,-6.55588 40.39975,-6.67764c0.13594,0.12176 16.63347,-4.13344 31.05105,-7.84623c0.13594,0.12177 26.67957,-7.0567 26.54364,-7.17847c0.13594,0.12177 2.13923,-0.71294 2.00329,-0.83471c0.13594,0.12177 6.31276,-0.21212 6.17682,-0.33388c0.13594,0.12177 -0.29032,-0.72596 0.66776,-1.33553c0.13594,0.12177 16.83005,-2.88317 16.69411,-3.00494c0.13594,0.12177 9.48464,-6.05506 9.3487,-6.17682c0.13594,0.12177 1.47611,-1.3861 3.14088,-0.87988l0.00002,0z" id="svg_28"/>
</svg>