<svg id="product-svg" viewBox="0 0 1280 850" xmlns="http://www.w3.org/2000/svg" xmlns:xlink="http://www.w3.org/1999/xlink">
<!--part1-->
    <path class="product-shape1 shape" fill="#fff" opacity="NaN" id="svg_1" d="m295.12,232.01v-6.37l3.41-4.33,5.69-4.55,10.02-3.64,11.61-4.33,15.71-3.19,18.89-3.41,31.87-6.6,33.01-5.69,35.97-7.06,28-4.33,28.91-4.55,30.96-5.46,32.1-4.78,26.63-3.64,19.35-1.59,20.03-2.96,12.06-1.14,4.78,2.05.68,4.1,1.14,4.78,3.19,4.55,4.1,3.41,5.92,2.96,1.82,4.1,2.5,2.96,1.82,7.51,1.82,7.28,3.19,10.24,1.37,7.28,4.33,10.47,7.06,21.85,6.15,17.3,7.06,17.53,12.06,28.91,7.51,19.12,5.46,12.29,3.19,4.55v7.97l-8.42,1.59-17.3,2.73-11.61,1.82-14.34,2.28-15.93,2.5-18.44,2.73-16.84,3.19-14.11,3.87-20.94,3.87-23.22,5.01-24.36,4.55-16.62,3.64-19.12,4.1-16.62,3.41-18.03,3.88-17.32,3.9-26.54,4.76-11.41,2.87-13.88,1.66-7.06,1.82-8.31,2.23-9.99,1.72-10.16,1.96-6.05,2.41-7.08,2.27-7.55,2.19-10.28,1.79-5.72,1.47-5.27,1.59-5.83,2.14-7.8,3.39-5.96.29-1.46-2.44.26-12.18,2.2-2.46v-11.15l-1.82-22.08-2.05-13.89v-11.38l-1.37-7.28-2.05-12.06-1.14-8.42s-1.14-2.05-3.19-18.89-1.82-6.15-2.28-16.39-2.05-12.75-2.05-12.75c0,0,0,3.41-2.96-18.67-1.34-9.97-5.68-24.79-7.55-30.9-.54-1.75-.87-2.79-.87-2.79l-.91-7.51Z"/>
    <path  class="product-shape1 shape" fill="#fff" opacity="NaN" id="svg_2" d="m296.36,240.55c.54,1.75,3.12,10.57,3.12,10.57"/>
     <polygon class="product-shape1 shape" fill="#fff" points="293.89 217.07 291.16 217.07 288.78 214.64 286.73 209.01 284.81 203.52 283.41 198.41 282.73 194.57 284.3 192.38 301.49 192.38 306.54 189.97 322.51 187.16 346.67 182.05 363.79 178.47 388.33 174.13 404.43 171.32 434.97 166.2 460.78 161.35 484.8 156.24 509.64 152.39 551.52 145.76 585.51 141.67 613.75 139.11 629.98 136.68 644.3 135.79 655.8 135.79 662.31 134.13 668.06 134.13 669.91 136.54 671.39 141.03 668.83 142.43 667.17 144.22 654.52 145.89 632.73 147.5 569.17 156.24 543.65 160.01 486.6 167.89 454.39 174.07 427.5 178.43 387.84 185.45 365.14 190.33 343.21 194.96 313.57 200.44 297.21 208.89 293.89 217.07"/>
  <polygon class="product-shape1 shape" fill="#fff" points="338.95 476.53 339.62 473.07 345.42 470.4 353.45 467.05 362.04 463.37 371.3 460.8 379.33 459.24 388.81 456.79 396.06 454.78 407.44 451.1 417.92 449.09 430.42 446.41 459.87 439.83 481.51 435.82 495 433.25 512.07 429.57 526.24 426.22 539.96 422.88 555.8 419.98 568.63 417.08 576.32 415.96 587.7 414.06 597.74 414.06 609.12 411.94 616.03 410.27 622.17 408.37 626.97 407.26 635.78 407.26 636.34 408.37 638.12 408.04 637.56 404.47 637.34 400.12 635.89 395.55 634.44 391.31 631.99 388.18 629.64 386.73 625.96 387.63 616.93 391.08 608.56 392.09 600.98 393.54 589.82 395.88 579.89 399.23 568.96 400.9 556.36 403.69 540.29 407.15 519.21 411.5 505.94 414.29 488.53 417.86 472.92 420.87 459.98 423.32 442.69 426.78 432.54 428.9 418.37 431.13 404.43 434.03 397.4 435.26 386.69 437.04 380.56 438.72 370.17 445.11 367.37 446.3 357.72 446.07 345.27 446.07 333.59 446.52 330.47 447.19 329.35 450.32 329.35 458.01 330.69 463.81 333.82 473.97 334.6 476.53 338.95 476.53"/>
  <path class="product-shape1 shape" class="product-shape1 shape" fill="#fff" d="m340.67,492.35v3.63l1.17,4.28,1.04,2.33h-3.63l1.82,4.28v9.21l1.82,9.85,2.59,8.82.65,5.83,1.94,13.61,1.82,8.82v3.63h4.15v4.93l.78,11.02,1.82,12.84,2.72,19.84.78,9.6.78,7.13-1.3.91.65,4.8.65,4.15,1.94.91h2.72l5.71-2.46,11.02-2.98,9.6-2.98,9.6-3.37,7.65-2.33,8.43-2.33,9.6-2.85,8.56-1.82,7.26-2.33,7.26-1.56,8.95-2.07,9.47-2.07,7.91-1.69,9.08-2.2,5.06-2.33,4.02-1.69,7.13-1.04,6.22-1.56,7.78-1.3,8.69-2.46,11.28-3.24,12.19-3.11,8.43-2.46,10.5-1.94,9.72-1.82,11.93-2.85,12.58-2.98,8.17-2.07,10.11-2.33,7.78-2.72,6.22-2.2,12.06-1.43,11.67-1.43,10.24-1.17,9.21-2.2,7.93-.76,4.15-1.48.58-3.44-.48-3.14-2.59-4.02-2.44-6.9-5.96-16.98-3.03-8.88-2.89-6.99-2.85-7.14-.98-3.41-1.69,5.58-1.82,5.71-1.82.39-1.94-.65-1.3-1.43-.65-3.11,1.95-5.19,2.85-5.71,1.17-4.15-.91-3.5-1.17-2.85-1.69-1.94-.39-5.71-1.43-3.12-.91-4.92-1.04-5.06-5.06-4.02-5.32-3.5-1.82-2.46h-2.2l-2.92-1.82-1.1-2.72-1.82-4.28-1.04-4.5-.39-3.54-2.72-2.33-2.07-3.11-1.3-3.5-.78-3.24-.52-1.82h-5.71l-9.6,1.95-26.76,7.14c-3.09.44-6.18.87-9.27,1.31-5.37,1.42-10.73,2.84-16.1,4.26l-43.31,10.11-23.21,4.67-15.95,3.11-14.52,3.11-14.26,2.98-12.45,2.07-11.54,1.69-13.36,2.98-11.93,1.82-11.54,2.46-11.41,1.82-10.24,2.46-7.52,2.72-9.47,4.41-3.89,2.33-5.58,3.24Z"/>
  <polygon class="product-shape1 shape" fill="#fff" points="367.92 662 367.92 645.85 370.61 643.73 373.73 642.76 386.76 642.76 390.59 643.73 397.67 643.73 403.76 640.47 410.42 638.49 419.06 635.66 430.53 633.25 443 630.84 453.34 629 462.26 628.15 472.74 624.89 483.79 621.21 495.13 618.37 504.19 616.11 516.23 613.84 521.76 612.99 531.96 609.17 540.74 605.34 551.22 601.94 561.99 601.23 567.93 600.24 574.03 596.56 580.56 593.15 583.08 592.41 585.78 592.74 588.65 595.85 591.02 602.08 594.42 609.84 592.44 611.86 588.09 612.15 578.35 613.2 569.59 615.55 551.74 616.53 530.78 623.19 508.84 628.84 499.37 631.08 487.33 634.38 472.85 637.72 453.73 642.12 434.91 647.31 416.44 652.81 404.61 655.13 394.84 655.9 387.45 659.16 381.14 660.17 376.23 662.21 375.43 667.1 373.73 667.1 367.92 662"/>
  <path class="product-shape1 shape" class="product-shape1 shape" fill="#fff" d="m588.55,631.81c1.98,2.42,3.62,4.43,4.8,5.89,2.16,2.68,3.2,4,3.9,4.9,2.24,2.87,3.38,4.33,4.3,5.79.67,1.07,1.74,2.86,2.8,5.2.28.61,1.3,2.9,2.5,6.99.88,3.01,1.05,4.25,1.8,7.39.72,3.02,1.38,5.24,2.7,9.69,1.77,5.96,1.99,6.09,4.1,12.89,2.72,8.78,2.16,7.98,3.8,12.69,1.77,5.08,2.54,6.38,3.4,10.29.75,3.44.5,4.03,1.4,6.69.38,1.12,1.41,3.95,2.6,7.29.7,1.98,1.04,2.98.6,3.8-.63,1.15-2.26,1.29-4.5,1.6-2.72.38-5.38,1.08-8.09,1.5-3.59.55-3.84,1.09-10.69,3.1-5.64,1.65-6.04,1.46-12.09,3.1-6.89,1.87-8.48,2.7-13.89,4.3-4.21,1.24-10.37,2.85-18.18,4.1l-9.09,1.7-7.29,1.5-9.49,3.2-8.59,2.5-9.29,2.7-8.69,2.5-12.29,3.3-9.09,2.9-10.69,3-8.89,2.4-10.89,3.4-7.29,2.2-9.39,2.8-9.29,2.9-6.99,2-9.79,3.2-9.09,2.8-4.9,1.8h-3.1l-2-1.4-1.1-3.6v-3.3l.7-4-1.8-8.09-2.8-15.19-2-11.49-1.6-13.79-1.5-11.19-2.4-9.94v-3.75l-3-5.59-1.2-7.29-1.4-5.89v-1.8l1.8-5.1,2.6-2.3,5.79-2.2,8.09-2.7,14.49-3.8,12.89-3.7,25.98-5.79,13.19-3.4,15.39-3.8,22.98-5.89,12.39-3.2,10.29-2.9,17.18-4.3,10.79-2.6,6.59-1.8,7.79-1.5,7.49-1.2,9.59-1.5h7.69Z"/>
  <polygon class="product-shape1 shape" fill="#fff" points="588.63 625.74 587.98 622.66 588.31 620.15 590.01 618.77 592.52 617.63 595.11 617.63 597.87 619.5 601.52 622.5 604.68 625.74 607.84 629.22 610.43 632.79 613.27 636.92 615.54 640.4 617.24 643.81 619.26 647.05 620.15 649.89 620.15 653.05 619.26 654.18 617.64 655.07 618.78 656.29 620.96 656.29 621.86 654.5 622.83 653.69 625.02 657.91 628.09 662.04 631.42 667.1 634.66 670.55 638.06 674.44 641.22 675.09 646.41 675.09 649.33 676.63 650.86 678.49 651.19 681.24 652.08 683.68 653.13 685.62 653.39 688.29 652.73 690 651.03 691.21 649 692.02 649.41 697.94 650.22 704.18 651.03 708.07 652.08 712.44 652.08 715.28 650.54 715.93 648.52 715.93 645.92 715.93 644.06 714.79 643.33 705.47 643.33 701.99 643.33 699.64 643.41 696.32 643.17 692.59 642.19 692.02 641.87 696.72 641.95 702.23 642.28 715.93 642.11 719.98 642.03 721.6 640.41 722.65 638.39 723.14 635.71 723.14 634.93 720.88 635.99 715.55 635.94 708.31 635.99 699.51 635.85 694.17 633.27 693.17 631.66 691.13 631.98 684.65 625.58 678.25 621.37 673.95 616.84 667.1 614.08 663.26 612.54 660.74 612.54 657.91 610.43 655.72 607.27 652.88 606.85 649.95 607.84 647.94 609.46 646.97 611.16 647.37 610.02 643.97 607.43 640.97 605 637 601.76 632.71 598.68 629.3 596.01 626.95 594.42 625.49 592.2 625.9 590.58 626.22 588.63 625.74"/>
  <!--part2-->
  <polygon class="product-shape2 shape" fill="#fff" points="641.22 416.8 643.19 417.21 644.43 419.51 645.99 422.53 646.95 425.28 648.07 429.21 649.53 433.57 650.66 438.26 649.51 438.46 647.85 433.37 646.16 429.44 645.11 427.2 643.38 423.52 642.33 420.38 641.22 416.8"/>
  <polygon class="product-shape2 shape" fill="#fff" points="637.03 414.05 633.89 414.05 632.22 415.02 630.87 416.27 629.51 418.05 628.64 419.61 628.36 422.22 628.36 425.38 628.61 426.91 629.08 428.73 629.56 430.76 630.86 434.26 632.94 437.38 635.66 439.71 638.49 442.95 640.54 444.93 642.18 445.88 642.18 447.7 641.22 449.17 641.22 451.42 642.18 453.66 644.34 456 645.12 456.57 646.94 459.03 652.26 462.53 657.31 466.55 661.11 469.83 663.01 471.73 663.01 474.62 663.9 476.16 663.9 478.95 663.16 480.49 663.02 481.96 664.34 482.84 665.73 483.35 667.71 485.04 667.71 486.95 665.8 489.59 664.52 492.46 664.83 493.65 663.67 497.8 660.81 503.5 658.87 508.69 659.52 511.8 660.81 513.23 662.76 513.88 664.57 513.49 668.07 502.21 669.84 497.59 670.87 493.85 671.68 490.4 673.07 491.35 673.07 497.37 673.07 511.83 674.17 513 679.53 513 681.95 510.95 681.44 508.23 680.04 506.4 679.16 483.43 680.48 481.37 681.95 478.58 682.76 475.65 682.76 473.01 681.29 471.76 679.09 470.07 676.67 469.26 673.8 468.6 671.24 468.09 669.25 467.35 667.27 463.1 665 459.58 662.14 455.83 659.71 453.12 656.63 449.59 654.87 448.05 653.11 446.44 652.74 448.79 651.86 450.99 651.42 452.75 650.03 453.26 648.7 452.31 648.78 450.11 650.66 449.74 650.66 446.59 649.81 443.94 646.5 441.89 643.2 439.25 639.6 435.58 636.38 430.95 635.49 427.94 634.47 424.35 634.47 421.63 635.57 419.73 637.33 418.26 637.03 414.05"/>
  <polygon class="product-shape2 shape" fill="#fff" points="687.02 166.18 689.21 168.82 691.76 172.74 691.76 168.64 690.94 162.99 689.94 158.7 688.57 155.69 686.29 152.78 683.92 150.32 681.55 148.86 679.82 148.04 677.54 147.49 675.99 147.49 676.54 149.95 678.27 152.23 680.91 154.87 682.28 156.15 683.88 158.06 685.38 161.07 685.93 163.99 687.02 166.18"/>
  <polygon class="product-shape2 shape" fill="#fff" points="673.9 148.4 671.8 147.95 670.16 147.95 668.34 149.41 666.51 151.78 665.06 154.78 664.11 156.43 664.8 160.53 665.93 165.31 669.12 169.86 673.22 173.28 679.14 176.23 681.73 177.11 683.88 178.39 684.65 179.39 684.65 181.67 685.11 183.86 685.84 186.13 687.66 188.41 690.58 192.51 693.4 196.25 696.23 199.17 696.23 201.33 696.91 204.33 696.91 208.96 697.73 210.42 699.51 211.43 703 211.88 705.72 211.18 708.07 209.78 709.91 207.25 710.35 206.1 716 205.98 725.26 206.04 733.76 206.17 736.1 206.61 738.2 206.67 739.02 205.41 739.02 203.06 738.26 201.03 737.25 200.27 734.84 200.08 729.57 200.21 725 200.33 728.05 199.06 733.38 197.48 735.22 195.83 735.47 193.99 734.96 191.96 733.88 190.37 732.3 189.87 730.08 190.25 727.22 191.83 723.67 193.86 718.92 195.58 713.97 197.6 711.43 198.18 709.72 197.22 708.71 195.07 707.56 193.93 703.82 194.05 701.03 193.74 700.65 191.77 699.83 188.47 698.62 186.06 697.04 183.4 695.51 180.61 694.18 178.07 692.91 176.36 692.02 176.36 691.39 178.07 690.25 179.53 688.92 179.91 688.98 174.77 689.11 172.17 688.35 170.02 687.08 168.81 685.49 168.62 684.73 169.25 684.48 171.28 682.96 171.86 680.99 171.16 678.96 170.71 676.68 169.64 674.33 168.3 672.81 166.15 670.33 162.53 669.26 158.66 670.52 155.37 672.11 153.27 674.14 151.75 675.09 150.61 673.9 148.4"/>
  <polygon class="product-shape2 shape" fill="#fff" points="669.95 156.85 669.26 158.66 670.33 162.53 674.33 168.3 676.68 169.64 678.96 170.71 680.99 171.16 679.58 169.66 676.19 166.7 674.63 164.44 673.43 161.75 671.95 159.35 669.95 156.85"/>
</svg>


<svg id="product-svg" xmlns="http://www.w3.org/2000/svg" viewBox="0 0 1280 850"><g fill="#fff"><path class="product-shape1 shape" d="M295.12 232.01v-6.37l3.41-4.33 5.69-4.55 10.02-3.64 11.61-4.33 15.71-3.19 18.89-3.41 31.87-6.6 33.01-5.69 35.97-7.06 28-4.33 28.91-4.55 30.96-5.46 32.1-4.78 26.63-3.64 19.35-1.59 20.03-2.96 12.06-1.14 4.78 2.05.68 4.1 1.14 4.78 3.19 4.55 4.1 3.41 5.92 2.96 1.82 4.1 2.5 2.96 1.82 7.51 1.82 7.28 3.19 10.24 1.37 7.28 4.33 10.47 7.06 21.85 6.15 17.3 7.06 17.53 12.06 28.91 7.51 19.12 5.46 12.29 3.19 4.55v7.97l-8.42 1.59-17.3 2.73-11.61 1.82-14.34 2.28-15.93 2.5-18.44 2.73-16.84 3.19-14.11 3.87-20.94 3.87-23.22 5.01-24.36 4.55-16.62 3.64-19.12 4.1-16.62 3.41-18.03 3.88-17.32 3.9-26.54 4.76-11.41 2.87-13.88 1.66-7.06 1.82-8.31 2.23-9.99 1.72-10.16 1.96-6.05 2.41-7.08 2.27-7.55 2.19-10.28 1.79-5.72 1.47-5.27 1.59-5.83 2.14-7.8 3.39-5.96.29-1.46-2.44.26-12.18 2.2-2.46V415l-1.82-22.08-2.05-13.89v-11.38l-1.37-7.28-2.05-12.06-1.14-8.42s-1.14-2.05-3.19-18.89-1.82-6.15-2.28-16.39-2.05-12.75-2.05-12.75 0 3.41-2.96-18.67c-1.34-9.97-5.68-24.79-7.55-30.9-.54-1.75-.87-2.79-.87-2.79l-.91-7.51Z" opacity="NaN"/><path class="product-shape1 shape" d="M296.36 240.55c.54 1.75 3.12 10.57 3.12 10.57" opacity="NaN"/><path class="product-shape1 shape" d="M293.89 217.07h-2.73l-2.38-2.43-2.05-5.63-1.92-5.49-1.4-5.11-.68-3.84 1.57-2.19h17.19l5.05-2.41 15.97-2.81 24.16-5.11 17.12-3.58 24.54-4.34 16.1-2.81 30.54-5.12 25.81-4.85 24.02-5.11 24.84-3.85 41.88-6.63 33.99-4.09 28.24-2.56 16.23-2.43 14.32-.89h11.5l6.51-1.66h5.75l1.85 2.41 1.48 4.49-2.56 1.4-1.66 1.79-12.65 1.67-21.79 1.61-63.56 8.74-25.52 3.77-57.05 7.88-32.21 6.18-26.89 4.36-39.66 7.02-22.7 4.88-21.93 4.63-29.64 5.48-16.36 8.45-3.32 8.18zM338.95 476.53l.67-3.46 5.8-2.67 8.03-3.35 8.59-3.68 9.26-2.57 8.03-1.56 9.48-2.45 7.25-2.01 11.38-3.68 10.48-2.01 12.5-2.68 29.45-6.58 21.64-4.01 13.49-2.57 17.07-3.68 14.17-3.35 13.72-3.34 15.84-2.9 12.83-2.9 7.69-1.12 11.38-1.9h10.04l11.38-2.12 6.91-1.67 6.14-1.9 4.8-1.11h8.81l.56 1.11 1.78-.33-.56-3.57-.22-4.35-1.45-4.57-1.45-4.24-2.45-3.13-2.35-1.45-3.68.9-9.03 3.45-8.37 1.01-7.58 1.45-11.16 2.34-9.93 3.35-10.93 1.67-12.6 2.79-16.07 3.46-21.08 4.35-13.27 2.79-17.41 3.57-15.61 3.01-12.94 2.45-17.29 3.46-10.15 2.12-14.17 2.23-13.94 2.9-7.03 1.23-10.71 1.78-6.13 1.68-10.39 6.39-2.8 1.19-9.65-.23h-12.45l-11.68.45-3.12.67-1.12 3.13v7.69l1.34 5.8 3.13 10.16.78 2.56h4.35zM340.67 492.35v3.63l1.17 4.28 1.04 2.33h-3.63l1.82 4.28v9.21l1.82 9.85 2.59 8.82.65 5.83 1.94 13.61 1.82 8.82v3.63h4.15v4.93l.78 11.02 1.82 12.84 2.72 19.84.78 9.6.78 7.13-1.3.91.65 4.8.65 4.15 1.94.91h2.72l5.71-2.46 11.02-2.98 9.6-2.98 9.6-3.37 7.65-2.33 8.43-2.33 9.6-2.85 8.56-1.82 7.26-2.33 7.26-1.56 8.95-2.07 9.47-2.07 7.91-1.69 9.08-2.2 5.06-2.33 4.02-1.69 7.13-1.04 6.22-1.56 7.78-1.3 8.69-2.46 11.28-3.24 12.19-3.11 8.43-2.46 10.5-1.94 9.72-1.82 11.93-2.85 12.58-2.98 8.17-2.07 10.11-2.33 7.78-2.72 6.22-2.2 12.06-1.43 11.67-1.43 10.24-1.17 9.21-2.2 7.93-.76 4.15-1.48.58-3.44-.48-3.14-2.59-4.02-2.44-6.9-5.96-16.98-3.03-8.88-2.89-6.99-2.85-7.14-.98-3.41-1.69 5.58-1.82 5.71-1.82.39-1.94-.65-1.3-1.43-.65-3.11 1.95-5.19 2.85-5.71 1.17-4.15-.91-3.5-1.17-2.85-1.69-1.94-.39-5.71-1.43-3.12-.91-4.92-1.04-5.06-5.06-4.02-5.32-3.5-1.82-2.46h-2.2L640 454.8l-1.1-2.72-1.82-4.28-1.04-4.5-.39-3.54-2.72-2.33-2.07-3.11-1.3-3.5-.78-3.24-.52-1.82h-5.71l-9.6 1.95-26.76 7.14c-3.09.44-6.18.87-9.27 1.31-5.37 1.42-10.73 2.84-16.1 4.26l-43.31 10.11-23.21 4.67-15.95 3.11-14.52 3.11-14.26 2.98-12.45 2.07-11.54 1.69-13.36 2.98-11.93 1.82-11.54 2.46-11.41 1.82-10.24 2.46-7.52 2.72-9.47 4.41-3.89 2.33-5.58 3.24ZM367.92 662v-16.15l2.69-2.12 3.12-.97h13.03l3.83.97h7.08l6.09-3.26 6.66-1.98 8.64-2.83 11.47-2.41 12.47-2.41 10.34-1.84 8.92-.85 10.48-3.26 11.05-3.68 11.34-2.84 9.06-2.26 12.04-2.27 5.53-.85 10.2-3.82 8.78-3.83 10.48-3.4 10.77-.71 5.94-.99 6.1-3.68 6.53-3.41 2.52-.74 2.7.33 2.87 3.11 2.37 6.23 3.4 7.76-1.98 2.02-4.35.29-9.74 1.05-8.76 2.35-17.85.98-20.96 6.66-21.94 5.65-9.47 2.24-12.04 3.3-14.48 3.34-19.12 4.4-18.82 5.19-18.47 5.5-11.83 2.32-9.77.77-7.39 3.26-6.31 1.01-4.91 2.04-.8 4.89h-1.7l-5.81-5.1zM588.55 631.81c1.98 2.42 3.62 4.43 4.8 5.89 2.16 2.68 3.2 4 3.9 4.9 2.24 2.87 3.38 4.33 4.3 5.79.67 1.07 1.74 2.86 2.8 5.2.28.61 1.3 2.9 2.5 6.99.88 3.01 1.05 4.25 1.8 7.39.72 3.02 1.38 5.24 2.7 9.69 1.77 5.96 1.99 6.09 4.1 12.89 2.72 8.78 2.16 7.98 3.8 12.69 1.77 5.08 2.54 6.38 3.4 10.29.75 3.44.5 4.03 1.4 6.69.38 1.12 1.41 3.95 2.6 7.29.7 1.98 1.04 2.98.6 3.8-.63 1.15-2.26 1.29-4.5 1.6-2.72.38-5.38 1.08-8.09 1.5-3.59.55-3.84 1.09-10.69 3.1-5.64 1.65-6.04 1.46-12.09 3.1-6.89 1.87-8.48 2.7-13.89 4.3-4.21 1.24-10.37 2.85-18.18 4.1l-9.09 1.7-7.29 1.5-9.49 3.2-8.59 2.5-9.29 2.7-8.69 2.5-12.29 3.3-9.09 2.9-10.69 3-8.89 2.4-10.89 3.4-7.29 2.2-9.39 2.8-9.29 2.9-6.99 2-9.79 3.2-9.09 2.8-4.9 1.8h-3.1l-2-1.4-1.1-3.6v-3.3l.7-4-1.8-8.09-2.8-15.19-2-11.49-1.6-13.79-1.5-11.19-2.4-9.94v-3.75l-3-5.59-1.2-7.29-1.4-5.89v-1.8l1.8-5.1 2.6-2.3 5.79-2.2 8.09-2.7 14.49-3.8 12.89-3.7 25.98-5.79 13.19-3.4 15.39-3.8 22.98-5.89 12.39-3.2 10.29-2.9 17.18-4.3 10.79-2.6 6.59-1.8 7.79-1.5 7.49-1.2 9.59-1.5h7.69Z"/><path class="product-shape2 shape" d="m588.63 625.74-.65-3.08.33-2.51 1.7-1.38 2.51-1.14h2.59l2.76 1.87 3.65 3 3.16 3.24 3.16 3.48 2.59 3.57 2.84 4.13 2.27 3.48 1.7 3.41 2.02 3.24.89 2.84v3.16l-.89 1.13-1.62.89 1.14 1.22h2.18l.9-1.79.97-.81 2.19 4.22 3.07 4.13 3.33 5.06 3.24 3.45 3.4 3.89 3.16.65h5.19l2.92 1.54 1.53 1.86.33 2.75.89 2.44 1.05 1.94.26 2.67-.66 1.71-1.7 1.21-2.03.81.41 5.92.81 6.24.81 3.89 1.05 4.37v2.84l-1.54.65h-4.62l-1.86-1.14-.73-9.32v-5.83l.08-3.32-.24-3.73-.98-.57-.32 4.7.08 5.51.33 13.7-.17 4.05-.08 1.62-1.62 1.05-2.02.49h-2.68l-.78-2.26 1.06-5.33-.05-7.24.05-8.8-.14-5.34-2.58-1-1.61-2.04.32-6.48-6.4-6.4-4.21-4.3-4.53-6.85-2.76-3.84-1.54-2.52v-2.83l-2.11-2.19-3.16-2.84-.42-2.93.99-2.01 1.62-.97 1.7.4-1.14-3.4-2.59-3L605 637l-3.24-4.29-3.08-3.41-2.67-2.35-1.59-1.46-2.22.41-1.62.32-1.95-.48zM641.22 416.8l1.97.41 1.24 2.3 1.56 3.02.96 2.75 1.12 3.93 1.46 4.36 1.13 4.69-1.15.2-1.66-5.09-1.69-3.93-1.05-2.24-1.73-3.68-1.05-3.14-1.11-3.58z"/><path class="product-shape2 shape" d="M637.03 414.05h-3.14l-1.67.97-1.35 1.25-1.36 1.78-.87 1.56-.28 2.61v3.16l.25 1.53.47 1.82.48 2.03 1.3 3.5 2.08 3.12 2.72 2.33 2.83 3.24 2.05 1.98 1.64.95v1.82l-.96 1.47v2.25l.96 2.24 2.16 2.34.78.57 1.82 2.46 5.32 3.5 5.05 4.02 3.8 3.28 1.9 1.9v2.89l.89 1.54v2.79l-.74 1.54-.14 1.47 1.32.88 1.39.51 1.98 1.69v1.91l-1.91 2.64-1.28 2.87.31 1.19-1.16 4.15-2.86 5.7-1.94 5.19.65 3.11 1.29 1.43 1.95.65 1.81-.39 3.5-11.28 1.77-4.62 1.03-3.74.81-3.45 1.39.95v20.48l1.1 1.17h5.36l2.42-2.05-.51-2.72-1.4-1.83-.88-22.97 1.32-2.06 1.47-2.79.81-2.93v-2.64l-1.47-1.25-2.2-1.69-2.42-.81-2.87-.66-2.56-.51-1.99-.74-1.98-4.25-2.27-3.52-2.86-3.75-2.43-2.71-3.08-3.53-1.76-1.54-1.76-1.61-.37 2.35-.88 2.2-.44 1.76-1.39.51-1.33-.95.08-2.2 1.88-.37v-3.15l-.85-2.65-3.31-2.05-3.3-2.64-3.6-3.67-3.22-4.63-.89-3.01-1.02-3.59v-2.72l1.1-1.9 1.76-1.47-.3-4.21zM687.02 166.18l2.19 2.64 2.55 3.92v-4.1l-.82-5.65-1-4.29-1.37-3.01-2.28-2.91-2.37-2.46-2.37-1.46-1.73-.82-2.28-.55h-1.55l.55 2.46 1.73 2.28 2.64 2.64 1.37 1.28 1.6 1.91 1.5 3.01.55 2.92 1.09 2.19z"/><path class="product-shape2 shape" d="m673.9 148.4-2.1-.45h-1.64l-1.82 1.46-1.83 2.37-1.45 3-.95 1.65.69 4.1 1.13 4.78 3.19 4.55 4.1 3.42 5.92 2.95 2.59.88 2.15 1.28.77 1v2.28l.46 2.19.73 2.27 1.82 2.28 2.92 4.1 2.82 3.74 2.83 2.92v2.16l.68 3v4.63l.82 1.46 1.78 1.01 3.49.45 2.72-.7 2.35-1.4 1.84-2.53.44-1.15 5.65-.12 9.26.06 8.5.13 2.34.44 2.1.06.82-1.26v-2.35l-.76-2.03-1.01-.76-2.41-.19-5.27.13-4.57.12 3.05-1.27 5.33-1.58 1.84-1.65.25-1.84-.51-2.03-1.08-1.59-1.58-.5-2.22.38-2.86 1.58-3.55 2.03-4.75 1.72-4.95 2.02-2.54.58-1.71-.96-1.01-2.15-1.15-1.14-3.74.12-2.79-.31-.38-1.97-.82-3.3-1.21-2.41-1.58-2.66-1.53-2.79-1.33-2.54-1.27-1.71h-.89l-.63 1.71-1.14 1.46-1.33.38.06-5.14.13-2.6-.76-2.15-1.27-1.21-1.59-.19-.76.63-.25 2.03-1.52.58-1.97-.7-2.03-.45-2.28-1.07-2.35-1.34-1.52-2.15-2.48-3.62-1.07-3.87 1.26-3.29 1.59-2.1 2.03-1.52.95-1.14-1.19-2.21z"/><path fill="#fff" opacity="NaN" d="m669.95 156.85-.69 1.81 1.07 3.87 4 5.77 2.35 1.34 2.28 1.07 2.03.45-1.41-1.5-3.39-2.96-1.56-2.26-1.2-2.69-1.48-2.4-2-2.5z"/></g></svg>