<svg id="product-svg" data-name="Calque 1" xmlns="http://www.w3.org/2000/svg" xmlns:xlink="http://www.w3.org/1999/xlink" viewBox="0 0 1280 850">
  <polygon class="product-shape1 shape" points="832.09 166.98 831.48 174.18 831.48 179.17 832.09 184.3 832.94 191.12 833.98 198.56 836.92 214.26 838.19 225.44 839.29 227.58 841.12 228.84 844.29 229.48 844.84 232.17 844.21 234.87 841.43 238.67 826.9 248.95 816.72 257.12 813.83 262.4 809.18 272.83 803.14 288.04 796.36 305.76 794.34 310.92 789.69 320.6 783.66 333.29 776.87 346.87 772.85 357.05 771.72 365.85 772.6 377.66 773.1 392.12 774.48 408.08 775.24 418.14 777.5 441.89 778.63 454.59 780.01 464.64 781.9 484.88 783.41 499.96 784.54 515.17 785.67 529.88 788.31 555.15 788.81 570.23 790.32 589.84 791.45 598.13 794.22 614.35 794.22 628.93 795.6 642.38 797.36 651.55 798.12 663.87 799.25 677.32 800.13 689.89 801.63 707.74 802.89 722.7 804.02 738.79 805.41 757.52 807.29 777.13 809.05 802.52 809.81 817.47 811.31 837.71 812.44 852.04 812.95 863.35 813.45 871.15 814.58 880.57 816.59 887.74 820.24 894.4 822.25 898.17 826.65 904.2 831.42 909.61 838.09 914.26 844.25 917.65 848.9 919.41 851.79 921.42 860.08 926.45 867.63 930.85 874.29 933.37 879.82 935.13 889.25 936.51 898.04 938.14 910.49 939.27 931.23 941.28 946.56 943.04 960 943.67 969.31 943.17 977.86 940.91 992.82 937.39 1010.29 932.86 1023.87 929.34 1033.54 926.33 1040.84 923.56 1052.15 918.53 1058.56 914.89 1065.22 908.98 1072.01 901.69 1079.05 894.02 1083.95 887.11 1087.47 880.32 1090.36 874.16 1092.12 868.38 1093.12 861.34 1093.88 846.51 1093.88 834.07 1094.63 825.64 1095.76 802.14 1096.27 788.81 1096.27 761.01 1096.27 717.92 1096.27 677.95 1096.27 661.45 1095.26 626.52 1096.27 605.67 1096.27 574.22 1094.56 535.47 1094.22 527.13 1095.43 516.7 1096.27 502.8 1097 482.12 1098.04 469.09 1098.91 456.75 1098.91 433.64 1098.91 407.41 1098.91 371.09 1098.91 328.69 1098.91 290.46 1098.91 274.42 1096.91 268.99 1092.76 261.33 1088.82 256.76 1083.18 251.65 1070.2 240.58 1061.9 233.56 1055.09 228.66 1050.83 226.11 1049.05 218.19 1049.21 211.73 1050.18 207.21 1048.41 202.52 1047.6 197.67 1048.73 191.53 1050.02 185.88 1050.18 161.64 1046.14 154.86 1042.43 150.82 1038.07 149.04 1032.57 146.94 1026.43 143.71 1022.23 142.9 1016.25 142.9 1010.42 143.52 1003.99 142.9 997.37 140.87 990.47 140.87 981.39 142.57 962.38 146.64 952.16 148.63 943.37 150.05 934.57 151.94 921.43 154.11 907.62 156 891.07 159.5 879.34 161.11 868.56 162.91 857.12 163.85 846.24 164.14 838.11 164.04 834.89 164.42 833.38 165.27 832.09 166.98"/>
  <polygon fill="#fff" points="824.79 372.27 828.74 370.35 834.98 369.27 846.36 369.27 858.71 370.77 868.29 370.77 876.8 370.23 882.2 371.31 886.99 374.54 890.95 379.94 892.26 385.45 892.86 395.16 892.86 408.22 892.86 418.78 893.94 431.09 894.35 444.42 894.35 454.78 894.96 472.11 895.58 487.28 896.09 510.46 897.01 524.71 897.53 547.79 898.14 562.66 898.66 583.68 898.66 597.73 899.68 607.47 900.19 623.67 900.19 636.08 901.12 648.08 901.73 660.18 902.55 674.95 902.96 688.49 903.37 707.05 903.89 718.23 904.3 728.89 904.81 737.2 905.63 745.81 906.14 754.22 906.14 760.99 907.17 766.32 908.09 776.27 908.09 784.78 909.12 796.68 909.12 806.21 909.94 814.83 910.35 825.39 910.35 838.11 911.06 852.36 911.68 864.36 911.68 880.66 911.17 891.23 911.68 904.97 912.4 913.58 912.4 917.38 910.86 920.56 907.88 922.3 904.4 923.84 901.32 923.84 896.91 923.33 892.81 921.99 887.37 919.63 879.89 916.76 871.58 913.58 863.99 910.61 857.12 907.33 853.23 905.69 849.84 902.51 847.48 897.28 846.76 891.84 847.07 879.54 846.66 867.03 846.25 857.08 845.12 847.95 844.71 836.98 844 828.47 843.48 815.65 842.77 804.57 842.15 793.29 840.82 787.55 840.41 779.24 839.69 766.22 839.07 759.45 837.54 740.68 836.82 729.4 835.89 719.35 835.07 712.59 834.97 702.23 834.87 696.28 833.74 687.15 833.02 669.31 832.41 659.67 832 650.85 831.07 635.78 830.46 625.42 829.95 611.57 829.33 599.58 829.13 581.83 828.51 567.27 827.9 553.53 827.49 537.84 827.18 524.61 826.36 506.26 826.36 492.62 825.84 475.18 825.23 463.29 824.79 444.21 823.38 426.37 822.87 410.37 822.05 393.96 821.54 383.4 822.26 376.43 824.79 372.27"/>
</svg>