<svg xmlns="http://www.w3.org/2000/svg" xmlns:xlink="http://www.w3.org/1999/xlink" width="1280" height="850">

<path class="product-shape1 shape" fill="#fff" stroke="#000" d="m572.36 211.8162-7.8163-.9078-9.2727-.7272-5.8181-.9091-6.5455-.3637h-2.3636l-2.7272 2.3637V221.4539l-1.6364 5.2727.3636 3.2727-.909 2.1818-1.091 10.909-.3636 7.6364-.5454 7.0909.1818 5.4545-7.6364.9091-7.6363 1.4546-7.8182 2.5454-9.4545 3.8182-5.4545 3.2727-5.091 3.2727-2.909 3.4545-2.3636 3.6364-.5455 3.8182 1.4546 5.2727 1.0909 1.0909 1.4545 3.6363 1.091 2.1818v8.3637l1.4545 5.0908.7272 6.1818 1.6364 8.5455 1.4545 7.2727.7273 2.1818-.1818 9.6363.3636 5.8182.7273 6.909.909 14.5455.3637 8.1818 1.091 10 .3636 4.5454.1818 8 .3636 4.3636 1.4546 6.909 1.6363 4.5455.3637 5.0909.7272 5.2727 1.4546 5.0909.3636 13.2727-.1818 16.7272-.1818 17.2726-1.091 17.4545.5455 13.091.5455 13.0908.5454 7.2727.9091 18.909.5455 11.0909V592.18l.7272 11.8181.3637 1.8182-.1818 5.091 1.2727 24.5453v16.3636l.5454 11.4545.3637 10.3636.5454 5.6363.1818 9.091.3637 11.6363 1.8182 12 2.1818 11.4544 4.3636 8.1818 6.7272 6.909 5.8182 4.5455 9.4545 5.4546 8 3.4545 6.1818 2.5454 6.7272 1.4546 11.2727 2.7272 4 .5455 8 2.1818 5.0909 1.2727 8.5454 1.4546 9.4546 1.0909 5.8181.5454 6.909.7273 8.7273.3636 7.091-.1818 3.0908-.5454 3.6364-.9091 4.3636-.5455 9.2727-1.2727 11.8181-2.909 10.3636-3.2728 6.7273-3.0909 6.5454-3.6364 8.3636-4.909 5.4546-5.2727 4.1818-5.6364 3.6363-8.1818 2.1818-4.7272 1.4342-10.327-.1492-12.5373V668.355l.1492-17.6119-.1492-26.1192-.1493-28.3581-.4478-32.985-.7462-11.6416-2.388-24.6268-2.2389-15.97.8956-4.6269 1.791-8.0597.2985-8.2089-.2985-27.4625.1493-37.164v-29.2536l1.4925-6.4179.7462-10.1492 1.4926-9.8507.4477-15.6715 1.6418-12.388 1.0448-6.5672-.1493-8.6566-2.6865-9.8507.2985-4.0299 4.4776-11.6417 5.3731-11.4925.7463-2.388-.2986-8.3582-4.0298-4.9254-6.7164-6.4178-11.3432-11.791-4.776-5.3731-7.612-4.3284-7.4626-4.4776-3.1344-3.582-5.0746-7.1642-1.3432-3.1343-9.2537-1.9403-21.194-5.2238 2.0896 5.9701 2.0895 2.985 1.9403 5.821 2.388 5.97 1.194 2.3881-.1492 7.9104-.1492 2.985-1.791 1.4926-2.9851 4.4776-2.6866 2.985-2.5373.8956-2.6865-1.6418-2.0896-2.8358-4.776-.1493-1.0448 2.6866-14.0298 1.3433-2.6866-.8956-2.388-2.6865-1.194-2.2388-1.3433-3.582-.4478 3.582-1.791 1.791-2.6866.7463-4.3283.8955h-4.776l-3.7314-.7462-3.2836-1.194-.4477 1.194-1.3433 1.0447-6.5672.1493-9.5521.1492-7.015-.2985-6.8656-1.3433-5.8208-1.791-2.8359-2.388-1.194-2.0896-.4477-4.3283-.597-4.3284 1.0447-2.8358 1.6418-4.4776 2.6866-4.9253 2.5373-4.9254 2.5373-5.97 3.4328-6.2687 1.791-3.4328 4.6016-.72z" opacity="NaN"/>
<path  fill="#fff" d="m539.3466 353.433-2.8198 1.7413-1.2346 2.2221c.104.1105-.6368 3.814-.6368 3.814s.4938 7.6542.39 7.5437c.1038.1105.5976 3.814.4937 3.7036.104.1105.4743 10.2336.3704 10.1232.1039.1104.5977 6.283.4938 6.1726.1039.1105.4743 8.2584.3704 8.148.1039.1104.1039.6042.2469 10.7403.1039.1105-.0196 10.4805-.1235 10.37.104.1105.2274-20.753.1235 7.1603.1039.1105-.6368 10.357-.7407 10.2466.1038.1105.7211 8.6287.6172 8.5183.104.1104.104 10.604 0 10.4935.104.1105.104-1.124.7408 23.2092.1038.1104-.0196-.3834-.1235 25.8017.1039.1104.968 5.5423.8642 5.4319.1039.1104.3508 7.1473.2469 7.0368.1039.1105.5977-10.1361.4938 23.8264.1039.1105-.143-18.531-.247 11.2343.104.1104.104 5.4189 0 5.3084.104.1105.8447 5.9128.7408 5.8023.1039.1105.3508 7.7646.247 7.6541.1038.1105 1.2149-19.889 1.111 5.9258.1039.1104.2273 8.999.1234 8.8886.104.1104.2274-5.0746.1235 17.4069.1039.1104.2273 11.9619.1234 11.8514.104.1105.5977-7.7905.4939 14.8144.1038.1105.5977 8.999.4938 8.8886.1038.1105.2273-1.124.9876 13.4564.1039.1105.8446 8.2584.7407 8.148.1039.1104.1039 10.8508 0 10.7403.1039.1105-.143 3.4437-.1234 10.37.2273 1.8389.1038 8.6288 0 8.5183.1038.1105-.0196 14.431-.1235 14.3206.1039.1104-.143-2.2352.247 14.0736.1038.1105 2.326 4.1844 2.222 4.074.104.1104 3.8075 1.4684 3.7037 1.358.1038.1104 7.1407 2.3326 7.0368 2.2221.1039.1105 8.6221 2.703 8.5182 2.5925.104.1105 10.1036 3.1968 9.9997 3.0863.104.1105 9.3629 3.0734 9.259 2.963.1039.1104 10.9678 2.8263 10.8639 2.7159.1039.1104 9.2394 2.0857 9.1355 1.9752.1039.1105 7.0172.4808 6.9134.3704.1038.1104 2.4494-.3834 2.3456-.4938.1039.1104 2.4495-1.7414 2.3456-1.8518.1039.1104 1.8322-1.2476 1.7283-1.358.1039.1104.7212-2.3586.6173-2.469.1039.1104.7211-7.1733.6173-7.2838.1038.1105.968-3.3462.8641-16.4192.104.1104-.2664-9.6424-.3703-9.7528.1039.1104-.8838-2.1117-.9877-21.1105.104.1105-.2664-11.0003-.3703-11.1108.1039.1105-.7603-2.482-.8642-16.2958l-.2469-14.444.4938-27.283v-11.6047l.1235-25.6782-.6173-23.8264-.6173-26.172-.8641-22.2216-1.1111-25.061-.1235-21.7277.247-17.4069-.3704-24.5671-.247-21.6043.4939-14.6909-.247-7.654-2.716-2.716-2.469-1.605-2.2221-1.358-7.6541-.2468-10.2466-1.4815-11.1108-.3703-12.839-1.4815-7.901-1.4814-7.7776-1.2345-10.2662-1.0007z" opacity="NaN"/>
</svg>