<svg id="product-svg" xmlns="http://www.w3.org/2000/svg" xmlns:xlink="http://www.w3.org/1999/xlink" viewBox="0 0 1280 850">
  <!--partie1-->
  <polygon class="product-shape1 shape" points="521.6 755.25 519.57 740.03 517.2 728.2 515.85 715.86 515 700.98 515 687.63 514.16 672.25 514.16 659.4 512.98 647.23 511.99 630.16 511.99 618.39 510.8 603.25 509.61 583.47 508.33 568.33 506.45 550.33 504.86 535.99 503.38 520.46 502.09 507.6 501.3 494.44 499.92 475.45 498.73 455.47 497.84 445.18 497.05 434.4 496.16 422.13 495.37 407.59 494.08 390.78 493.29 375.94 492.6 357.34 492.1 346.76 490.82 337.66 488.25 319.16 486.17 300.47 485.08 279.69 484.92 255.97 486.31 255.97 487.14 251.95 489.64 249.73 494.08 247.51 498.1 245.98 506.14 244.46 515.16 243.62 522.37 242.38 525.42 241.82 527.78 239.6 537.07 237.52 545.53 236.55 556.91 236 570.36 234.89 582.29 234.47 596.71 234.19 611.55 233.64 626.67 233.22 640 232.67 651.36 232.25 661.34 231.97 677.16 231.97 686.03 232.11 694.91 232.53 705.59 232.81 715.99 232.94 725 233.22 731.52 234.33 739.01 235.86 743.73 237.24 749 238.22 751.91 239.19 754.55 241.68 756.49 245.7 759.12 249.31 760.65 250.84 761.06 263.37 761.75 274.85 762.25 286.72 762.74 297.01 763.73 312.54 763.73 318.87 764.62 323.71 765.51 341.22 766.3 350.82 766.89 356.85 767.78 370.4 768.97 381.97 769.86 389.29 770.75 402.75 771.35 416.89 772.04 434.89 772.04 474.26 773.82 486.13 775.8 500.58 776.79 514.52 777.87 526.1 778.67 540.83 779.65 558.54 780.84 571.6 781.63 587.03 782.13 599.79 782.92 609.98 783.61 624.72 784.11 639.85 784.7 660.23 784.7 681.2 785.89 694.65 785.89 711.76 787.07 724.32 787.07 734.81 787.07 738.37 785.79 741.73 783.41 747.08 780.54 751.03 776.49 755.25 771.15 760.73 765.91 765.77 759.67 770.91 753.74 775.07 747.9 777.64 739.79 780.81 732.57 783.87 724.85 786.15 717.04 788.22 707.84 790.9 702.7 791.98 694.98 793.17 688.95 794.06 679.85 794.65 672.23 794.06 661.25 793.27 649.48 792.18 636.82 790.4 629.6 789.12 619.9 789.02 613.77 788.72 604.87 786.94 595.27 784.86 585.09 782.39 574.7 779.62 566.79 776.95 554.42 772.69 545.02 768.74 537.41 765.08 530.58 762.61 527.02 760.92 523.06 757.96 521.6 755.25"/>
  <!--partie2-->
  <polygon class="product-shape2 shape" points="608.92 107.01 603.79 109.64 597.27 112.28 591.86 114.22 586.17 115.75 580.48 117.69 576.05 119.08 571.33 119.91 568 121.3 564.95 123.51 562.59 125.87 560.1 128.92 558.43 131.28 555.52 133.92 552.47 136.83 549.69 140.71 547.48 145.43 544.42 150.42 541.37 155.69 536.93 162.35 534.02 167.48 532.77 170.39 526.81 172.89 519.74 175.52 514.74 177.74 510.86 180.8 506.98 184.26 503.37 188.56 500.6 193 497.41 197.44 494.22 202.02 492 206.18 490.61 210.34 489.92 215.89 488.95 221.29 487.28 229.06 486.03 235.3 484.65 239.88 483.26 245.01 482.15 250.14 482.98 254.72 484.92 255.97 486.31 255.97 487.14 251.95 489.64 249.73 494.08 247.51 498.1 245.98 506.14 244.46 515.16 243.62 522.37 242.38 525.42 241.82 527.78 239.6 537.07 237.52 545.53 236.55 556.91 236 570.36 234.89 582.29 234.47 596.71 234.19 611.55 233.64 626.67 233.22 640 232.67 651.36 232.25 661.34 231.97 677.16 231.97 686.03 232.11 694.91 232.53 705.59 232.81 715.99 232.94 725 233.22 731.52 234.33 739.01 235.86 743.73 237.24 749 238.22 751.91 239.19 754.55 241.68 756.49 245.7 759.12 249.31 760.65 250.84 763.15 247.23 764.81 242.51 766.89 236.83 768.28 232.25 769.8 226.98 769.8 222.4 766.75 218.24 762.59 212.56 758.57 208.12 753.71 206.32 746.5 205.62 736.1 205.21 732.63 204.93 725.84 197.44 719.73 191.47 712.38 185.23 708.36 181.49 701.57 175.94 695.74 171.23 690.61 166.51 686.59 163.04 683.37 161.31 682.76 156.49 681.04 152.1 678.47 146.86 676.14 142.3 673.74 137.83 670.98 135.68 664.97 135.25 657.83 134.99 657.91 135.85 661.7 136.28 662.82 138.52 667.46 140.32 669.52 142.82 671.16 146.34 673.82 149.44 675.71 151.93 678.21 154.68 678.98 157.18 678.98 159.07 676.83 160.53 675.46 163.2 673.13 165.17 668.06 165.43 664.45 165.35 661.1 164.23 657.74 162.59 654.73 161.22 650.43 159.67 647.94 159.16 649.49 162.42 651.55 167.67 652.76 172.57 654.82 180.31 656.02 185.9 656.11 188.56 649.75 188.65 644.07 187.7 637.88 186.84 633.24 185.98 627.13 185.47 620.34 184.95 620.86 180.82 621.03 175.49 620.86 171.54 619.57 168.79 617.5 165.52 618.96 162.34 619.05 157.09 613.72 156.06 610.11 155.8 607.1 156.49 600.22 156.66 593.6 157.01 591.36 156.83 594.54 154.08 596.35 150.64 597.98 147.38 598.84 145.31 602.28 143.25 604.26 142.22 608.65 141.87 612.86 141.1 618.96 141.01 620.86 139.72 620.94 135.77 620.08 132.59 620.25 130.44 621.72 127.34 619.14 122.61 616.64 118.4 614.41 115.13 612.86 112.21 612.34 108.85 611.48 107.01 608.92 107.01"/>
  <polygon fill="#fff" points="703.08 736.56 706.05 739.53 709.76 740.27 718.75 738.42 730.87 734.99 743.66 730.46 753.64 726.99 762.71 724.19 769.56 722.13 773.44 718.17 774.84 713.88 774.84 703.24 773.77 696.72 773.35 681.13 772.01 648.05 770.73 632.74 769.88 615.01 768.89 602.68 767.89 567.37 767.33 547.37 766.19 514.76 764.92 479.31 763.07 449.95 761.94 441.59 761.09 421.45 760.38 402.02 760.1 389.12 758.96 367.42 757.83 354.09 757.4 337.5 755.98 323.04 755.84 318.78 754.28 314.67 753.01 311.69 751.3 309.71 748.61 308.15 744.36 307.01 737.69 307.01 724.08 306.16 712.59 306.16 698.69 306.16 688.2 306.16 685.22 307.72 683.1 309.71 681.39 312.55 680.26 315.81 679.41 323.75 679.41 338.35 680.26 353.95 681.11 366.57 680.83 379.9 681.68 389.4 682.53 399.19 683.1 412.38 684.09 426.13 684.51 441.59 685.36 459.31 686.22 475.62 688.34 499.73 688.91 513.31 690.04 527.95 691.89 559 692.74 575.59 693.59 601.68 694.16 624.8 694.87 637.84 696.71 666.91 698.27 684.21 699.12 696.13 699.4 709.46 699.97 725.76 700.82 732.14 703.08 736.56"/>
</svg>