<svg id="product-svg" data-name="Calque 1" xmlns="http://www.w3.org/2000/svg" xmlns:xlink="http://www.w3.org/1999/xlink" viewBox="320 114 1280 850">

  <polygon class="product-shape1 shape" points="857.14 223.11 856.46 225.55 855.65 230.56 855.65 241.13 856.4 250.88 858.09 264.29 859.44 270.39 860.26 274.45 861.07 279.19 863.24 283.53 865.13 287.18 865.13 288.67 853.75 287.73 848.06 289.62 845.49 291.38 841.56 290.57 837.36 288.81 833.57 288.54 829.64 292.6 824.36 299.78 819.48 308.72 809.59 328.91 802.41 341.51 800.25 346.65 801.19 350.18 808.24 367.92 816.91 391.49 820.57 401.92 820.57 418.18 820.7 436.33 822.06 451.91 823.95 460.71 825.58 468.03 826.8 482.93 829.1 500.27 831.4 513.83 832.69 521.4 832.69 539.01 834.25 552.56 835.47 561.91 835.47 575.86 836.41 587.92 836.96 598.48 838.18 607.15 839.26 623.14 840.34 635.33 841.16 646.84 840.75 658.76 840.34 688.7 841.16 716.2 841.7 738.15 842.78 754.94 843.87 773.37 845.22 791.79 846.57 808.59 847.52 817.26 847.52 829.72 847.52 837.31 848.47 843.13 852.94 851.66 861.07 861.96 873.26 872.93 881.52 877.95 893.72 883.36 905.77 887.16 918.24 890.27 931.51 892.85 942.48 893.79 955.22 895.01 970.93 895.01 987.32 893.79 1000.46 891.76 1012.25 889.19 1019.02 887.56 1029.05 883.77 1038.8 879.57 1048.96 874.56 1058.85 867.38 1068.47 860.06 1074.29 853.43 1078.35 845.98 1080.79 839.34 1083.64 832.29 1083.64 815.5 1083.64 791.11 1083.64 775.53 1084.72 767.95 1085.4 757.38 1085.4 744.78 1085.4 722.57 1085.4 690.33 1085.4 656.19 1084.45 633.03 1083.77 620.83 1083.37 605.53 1083.77 597.13 1084.59 585.88 1085.4 576.94 1085.4 562.99 1086.08 542.13 1086.08 531.43 1086.75 519.24 1086.75 506.37 1086.75 480.49 1086.75 472.09 1087.51 454.9 1088.24 442.99 1088.8 426.48 1089.36 409.82 1089.36 386.31 1089.36 360.38 1089.36 336.79 1089.36 319.4 1088.8 312.4 1088.48 305.15 1087.35 301.93 1085.18 299.44 1077.85 292.84 1071.41 288.41 1065.93 285.19 1061.58 282.5 1056.7 281.47 1056.7 278.78 1058.37 272.75 1058.5 260.83 1058.63 247.12 1058.63 234.42 1059.78 224.81 1060.29 218.53 1059.01 216.86 1055.17 215.2 1051.19 213.91 1047.47 213.91 1039.91 213.91 1032.99 213.91 1030.3 212.12 1022.99 212.12 1015.04 211.09 1007.1 209.68 999.15 208.79 992.48 207.89 985.3 206.74 981.71 205.71 979.28 204.43 975.94 204.43 975.05 208.15 974.53 212.76 974.15 215.07 973 217.63 971.2 217.12 970.69 214.3 969.54 211.48 967.48 210.58 966.72 213.66 965.43 214.56 960.95 215.2 956.84 216.61 946.2 220.07 939.03 221.73 929.54 221.48 923.13 220.84 915.31 219.68 908.52 218.91 903.13 218.14 894.42 219.55 887.37 220.84 879.8 221.73 871.34 221.86 862.5 221.48 858.91 221.99 857.14 223.11"/>
  <polygon fill="#fff" points="1005.89 394.89 1008.63 391.74 1012.1 390.37 1020.51 389.01 1031.13 388.37 1041.33 387.22 1049.11 386.38 1054.05 385.75 1059.51 385.75 1064.46 391.11 1064.98 398.15 1064.14 411.82 1063.19 436.21 1062.88 447.04 1062.14 456.08 1062.14 465.33 1063.19 476.37 1064.46 492.88 1064.98 504.13 1065.4 516.64 1065.4 535.46 1065.4 548.92 1066.03 569.53 1066.87 584.14 1066.24 607.48 1066.24 621.57 1066.87 647.96 1066.87 661.1 1066.87 678.76 1066.24 693.38 1066.87 715.77 1066.87 725.13 1066.87 732.17 1066.87 752.04 1066.87 763.61 1066.87 781.69 1067.29 792.42 1067.29 803.14 1067.29 811.34 1067.29 818.7 1065.93 825.22 1065.82 830.79 1066.77 838.78 1067.29 845.72 1065.3 850.66 1062.56 854.66 1057.41 858.13 1050.38 861.43 1040.61 865.98 1030.71 870.35 1024.16 873.39 1018.51 874.42 1015.29 873.93 1011.41 872.11 1009.1 869.26 1008.01 863.67 1008.47 843.34 1008.17 835.1 1007.98 822.68 1008.87 813.34 1008.37 795.96 1008.97 780.97 1008.97 756.14 1008.37 740.65 1008.77 717.8 1008.37 699.73 1007.48 681.35 1007.18 654.04 1007.08 637.76 1007.08 611.73 1006.49 587.4 1005.39 569.43 1004.6 537.05 1003.69 525.13 1003.69 496.03 1002.81 466.93 1002.81 439.62 1002.81 417.97 1002.81 401.58 1003.69 397.61 1005.89 394.89"/>
</svg>