<svg id="product-svg" xmlns="http://www.w3.org/2000/svg" xmlns:xlink="http://www.w3.org/1999/xlink" viewBox="0 0 1280 850">

<!--Partie1-->
  <polyline class="product-shape1 shape" points="811.62 630.98 807.54 627.52 804.75 626.45 806.13 626.12 808.23 625.46 810.89 624.19 813.95 622.7 817.7 620.37 821.71 617.14 824.94 613.91 826.75 611.07 828.3 608.61 829.07 606.16 829.59 604.73 834.63 604.22 839.8 604.22 850 606.29 857.76 607.71 864.86 609.39 870.68 610.81 879.08 613 887.09 614.56 894.2 615.98 905.44 618.69 913.71 620.63 920.81 622.31 930.12 625.02 937.23 626.7 944.2 628.12 953.38 629.54 960.35 629.8 964.86 630.3 969.3 630.3 972.26 630.3 972.26 636.46 971.02 646.33 970.28 653.74 970.28 657.68 970.56 659.78 969.79 662.37 966.83 668.54 964.86 671.99 957.7 676.43 952.77 680.38 948.57 681.61 924.15 680.63 915.02 679.89 910.58 678.9 906.38 676.43 900.71 675.94 894.79 675.2 890.59 673.47 887.14 671.99 881.71 670.76 876.18 666.95 868.8 663.81 860.95 659.09 849.79 653.6 840.68 648.41 831.26 642.92 821.99 637.89 816.8 634.27 811.62 630.98"/>
  <polygon class="product-shape1 shape" points="821.84 598.4 823.52 599.44 823.52 602.41 821.84 606.16 819.38 609.9 816.54 613 812.27 616.24 808.4 617.53 805.17 618.56 802.07 619.47 809.43 611.07 820.03 599.31 821.84 598.4"/>
  <polygon class="product-shape1 shape" points="791.34 619.47 790.05 613.91 788.63 608.93 787.46 604.22 786.82 599.82 786.82 595.43 787.46 592.07 788.11 588.97 789.79 586.64 793.54 588.32 797.67 589.75 802.07 591.04 806.85 592.85 811.24 594.4 813.95 595.3 808.66 601.5 801.55 608.93 791.34 619.47"/>
  <polygon class="product-shape1 shape" points="784.17 618.72 783.02 614.55 781.3 608.93 780.29 604.22 780.29 594.44 780.29 590.99 782.45 584.39 772.54 580.22 759.9 574.62 742.67 568.02 733.76 564.57 725.87 561.99 716.82 558.25 708.35 554.95 697.72 551.5 689.25 548.2 679.77 545.47 667.7 541.88 653.2 538.15 639.41 534.56 632.81 533.55 622.61 529.96 604.37 524.07 588.29 519.62 575.08 515.74 564.31 512.87 554.69 510.72 547.51 509 539.03 505.26 528.26 502.39 514.04 498.22 502.84 494.35 484.46 488.17 472.54 483.58 462.2 480.27 450.14 476.25 444.11 473.96 433.05 471.08 420.13 466.92 406.05 463.47 391.69 458.88 378.19 453.99 365.41 449.54 353.92 446.38 345.59 443.51 332.38 439.35 318.6 434.61 308.97 431.45 299.64 428 289.16 425 276.52 420.53 267.9 416.8 261.01 413.5 256.41 410.19 252.39 408.33 248.8 408.33 247.22 410.77 246.07 412.06 242.91 411.92 239.47 406.75 238.03 404.02 229.85 401.72 223.96 400.57 225.54 404.59 225.83 406.89 222.67 407.9 222.67 411.06 223.38 414.93 225.39 420.68 227.84 425.99 233.01 431.3 238.89 435.76 243.35 440.35 246.5 444.8 248.52 446.96 253.69 449.4 258.14 451.27 262.88 453.13 265.79 453.33 269.98 454.33 275.97 455.93 282.16 457.52 290.35 459.32 296.74 461.52 306.53 464.51 315.31 466.91 328.09 470.7 334.88 472.3 342.07 474.3 349.86 476.5 358.25 478.89 366.04 480.89 373.63 482.89 383.61 485.48 390.4 487.68 397.59 489.68 405.38 492.07 413.17 494.27 420.76 496.87 428.15 498.46 434.54 500.26 442.13 502.86 450.11 505.45 460.7 508.65 469.49 511.44 476.87 513.44 484.46 516.24 492.45 518.83 500.84 521.23 508.83 524.22 517.81 526.82 523.01 529.02 530.39 531.01 538.38 533.41 544.57 535.41 552.76 537.8 561.35 540.6 569.54 542.8 578.32 545.59 586.11 548.39 595.9 552.18 602.49 554.18 610.88 556.58 618.46 559.57 629.85 563.17 640 566.16 647.42 568.96 655.81 571.95 662.4 573.95 668.39 575.95 672.58 578.34 677.78 580.14 685.76 582.14 692.95 584.54 698.95 586.64 704.74 588.53 711.73 591.33 720.51 594.92 729.3 598.4 737.49 601.31 744.88 604.22 752.67 606.3 758.26 608.93 763.85 611.1 769.04 613.09 773.04 614.89 784.17 618.72"/>
  
<!--Partie2-->
<polygon class="product-shape2 shape" points="816.8 634.27 821.99 637.89 831.26 642.92 840.68 648.41 849.79 653.6 860.95 659.09 868.8 663.81 876.18 666.95 881.71 670.76 876.98 669.39 872.39 667.86 867.31 665.92 862.48 664.15 857.65 662.38 849.62 659.46 844.05 657.16 835.31 653.66 828.72 650.56 822.84 647.62 817.35 644.76 812.79 642.06 809.96 640.95 806.07 641.1 802.89 640.55 798.68 639.28 796.93 634.83 795.02 630.61 795.02 628.39 798.6 627.91 804.75 626.45 807.54 627.52 816.8 634.27"/>
  <polygon class="product-shape2 shape" points="784.17 618.72 785.45 622.77 781.34 623.88 778.12 624.77 775.12 625.99 772.67 627.44 771.22 627.44 766.11 626.45 758.11 623.88 745.88 619.47 736.65 616.54 725.76 613.21 716.76 610.1 709.2 607.32 699.75 604.22 693.19 601.65 682.74 597.98 674.18 594.64 661.73 590.2 647.73 584.86 631.72 579.64 619.94 575.97 608.15 571.63 595.04 567.08 587.03 564.74 575.47 560.41 565.47 557.41 554.46 554.07 544.12 550.85 536.01 547.62 527.12 544.84 517.33 541.07 509.11 538.51 499.66 535.4 490.21 532.51 481.65 529.84 472.87 527.17 461.75 523.17 452.53 520.06 441.41 516.17 427.96 511.83 417.96 508.05 409.51 505.27 401.73 502.83 392.61 499.82 375.83 494.38 363.6 490.04 350.26 485.71 340.81 482.48 331.36 479.37 320.25 475.37 310.91 472.03 301.68 469.14 291.57 465.59 284.23 461.92 278.67 459.58 272.45 457.69 266.56 455.14 262.88 453.13 265.79 453.33 269.98 454.33 275.97 455.93 282.16 457.52 290.35 459.32 296.74 461.52 306.53 464.51 315.31 466.91 328.09 470.7 334.88 472.3 342.07 474.3 349.86 476.5 358.25 478.89 366.04 480.89 373.63 482.89 383.61 485.48 390.4 487.68 397.59 489.68 405.38 492.07 413.17 494.27 420.76 496.87 428.15 498.46 434.54 500.26 442.13 502.86 450.11 505.45 460.7 508.65 469.49 511.44 476.87 513.44 484.46 516.24 492.45 518.83 500.84 521.23 508.83 524.22 517.81 526.82 523.01 529.02 530.39 531.01 538.38 533.41 544.57 535.41 552.76 537.8 561.35 540.6 569.54 542.8 578.32 545.59 586.11 548.39 595.9 552.18 602.49 554.18 610.88 556.58 618.46 559.57 629.85 563.17 640 566.16 647.42 568.96 655.81 571.95 662.4 573.95 668.39 575.95 672.58 578.34 677.78 580.14 685.76 582.14 692.95 584.54 698.95 586.64 704.74 588.53 711.73 591.33 720.51 594.92 729.3 598.4 737.49 601.31 744.88 604.22 752.67 606.3 758.26 608.93 763.85 611.1 769.04 613.09 773.04 614.89 784.17 618.72"/>
 <polygon class="product-shape2 shape" points="724.32 460.35 731.63 459.89 736.98 459.89 744.11 459.42 752.92 459.89 759.2 460.35 765.39 461.48 770.83 462.32 775.33 463.07 777.02 463.07 779.46 465.42 782.93 466.64 786.58 467.67 788.93 468.42 784.61 469.92 781.15 471.79 777.96 474.04 774.58 476.86 771.11 479.48 769.05 481.55 767.17 484.64 761.73 483.98 756.62 482.77 751.42 481.64 747.11 480.61 745.42 482.58 744.48 483.23 741.01 480.89 735.57 475.73 731.07 470.67 727.04 465.79 724.32 462.32 724.32 460.35"/>
  <polygon class="product-shape2 shape" points="742.65 489.93 741.25 494.84 739.32 499.74 738.62 502.02 731.96 502.02 722.85 498.34 714.09 495.01 702.88 491.51 691.67 488.53 682.38 485.55 672.57 482.57 666.61 480.82 660.48 479.95 654.7 478.37 645.24 475.22 637.53 472.94 631.75 470.49 631.75 467.16 632.62 463.83 634.38 460.68 637 457.35 643.49 457.35 653.47 458.57 660.48 458.57 668.89 458.57 677.12 458.57 685.36 459.42 690.79 459.42 694.99 460.15 700.78 460.5 706.73 460.5 715.49 460.5 718.3 464.18 722.5 469.79 727.23 475.39 731.96 480.65 737.22 485.38 742.65 489.93"/>
  <polygon class="product-shape2 shape" points="682.38 428.79 687.2 431.42 692.89 434.4 699.73 437.9 705.16 441.05 709.01 444.21 712.69 447.54 715.32 449.81 718.3 453.84 723.55 453.84 728.26 453.84 733.73 453.84 739.01 453.84 745.89 454.27 753.15 454.75 761.64 455.5 767.77 456.07 772.57 456.63 777.19 457.35 779.46 455.59 783.42 453.8 773.61 451.35 764.47 449.28 752.11 445.6 742.21 442.49 731.37 439.47 719.3 436.45 712.89 434.76 703.65 432.49 694.97 429.66 688.28 427.87 683.66 426.55 681.21 427.87 682.38 428.79"/>
  <polygon class="product-shape2 shape" points="685.09 436.74 690.16 438.88 695.35 441.36 698.84 442.94 702.56 445.53 706.29 448.35 708.99 451.51 711.13 453.99 704.65 453.42 697.17 453.13 686.81 452.86 671.39 452.19 659.91 452.02 648.88 451.85 639.15 450.84 638.3 448.47 632.34 445.77 624.01 442.9 614.89 440.71 612.02 439.77 609.69 440.98 605.21 436.74 600.09 431.48 595.43 425.88 592.16 421.88 587.41 416.84 593.56 416.84 602.6 417.49 611.09 418.61 621.9 419.73 629.45 420.76 639.23 422.9 646.78 424.3 651.91 425 653.31 428.12 658.34 430.08 662.53 431.57 668.78 433.53 675.58 435.42 680.52 436.32 683.6 436.32 685.09 436.74"/>
  <polygon class="product-shape2 shape" points="652.06 420.8 643.74 419.13 634.98 417.47 625.33 415.14 616.9 413.7 606.25 412.81 598.04 412.03 590.28 411.37 581.52 410.81 575.19 405.82 569.2 402.49 565.66 401.16 563.99 398.72 559.78 397.28 551.68 395.51 544.8 393.18 541.6 393.18 538.9 394.97 534.44 394.03 528.62 393.18 522.54 392 514.7 391.32 507.13 390.78 499.56 390.11 492.8 390.11 484.55 390.11 478.2 390.11 478.2 384.29 478.2 380.24 476.71 376.72 473.73 373.75 470.49 370.78 477.11 374.02 481.3 375.51 488.33 377.26 497.53 379.56 506.59 381.46 515.51 383.48 523.35 385.11 532.95 387.27 543.22 389.43 553.36 392 568.37 396.33 580.81 399.57 591.35 402.68 601.76 405.52 615.69 409.44 624.07 411.47 633.4 414.04 642.73 416.84 649.27 418.09 653.14 418.77 652.06 420.8"/>
  <polygon class="product-shape2 shape" points="605.11 463.3 606.59 459.37 606.59 455.28 607.08 449.82 607.08 447.05 607.77 445.5 602.57 442.03 597.38 436.66 591.32 430.69 586.04 425 581.97 420.3 579.46 416.84 571.4 417.44 561.81 418.39 551.92 419.26 543.26 420.3 538.33 421.25 531.92 422.03 526.2 422.12 517.63 422.12 511.48 422.29 510.36 426.1 509.06 430 508.45 433.55 507.93 435.42 513.39 436.58 518.84 437.7 524.65 439.17 539.11 443.5 547.85 446.53 561.45 450.43 573.74 453.99 582.77 456.33 591.31 459.77 597.59 462.14 605.11 463.3"/>
  <polygon class="product-shape2 shape" points="561.81 405.26 565.59 406.97 569.2 409.16 573.1 411.34 563.5 411.82 557.85 412.68 549.8 413.63 542.95 414.67 536.87 415.72 530.49 416.84 523.65 416.84 513.19 416.84 512.52 414.48 510.62 413.44 506.72 412.68 501.39 411.05 495.59 410.01 490.55 408.87 487.79 408.01 486.46 408.97 483.32 405.26 480.95 402.31 479.04 399.55 479.04 395.27 486.18 395.27 497.02 395.27 506.15 395.79 514.33 396.22 522.79 396.79 529.16 397.55 534.96 398.5 538.77 399.46 541.15 401.17 547.14 402.5 552.18 403.55 557.31 404.88 559.69 405.35 561.81 405.26"/>
  <polygon class="product-shape2 shape" points="408.76 407.82 409.33 403.35 410.38 399.08 411.81 395.79 413.99 393.27 420.75 393.27 429.5 393.27 433.77 392.8 442.05 392.8 449.28 392.8 456.69 392.8 463.73 393.37 469.15 393.46 472.96 393.84 473.43 396.89 474.38 400.31 475.05 403.07 476.67 406.06 479.04 409.35 481.9 412.01 485.13 414.2 485.13 418.29 485.61 421.71 485.61 426.37 485.61 429.7 482.18 429.7 477.14 428.56 470.49 426.75 464.68 425 459.36 423.23 451.18 420.8 442.05 417.91 431.97 414.29 425.31 412.87 420.18 411.25 414.47 409.44 408.76 407.82"/>
  <polygon class="product-shape2 shape" points="391.37 381.49 389.99 378.4 388.03 374.67 386.78 370.54 386.41 366.92 386.41 363.23 386.41 362.2 392.38 362.2 399.98 361.61 404.99 361.61 409.79 361.61 415.02 362.2 419.6 362.79 425.79 364.34 431.54 365.3 437 366.63 440.91 367.59 444.45 368.25 445.04 370.02 448.58 370.83 452.34 371.94 458.39 373.26 462.08 374.08 463.99 374.3 466.5 375.55 469.01 376.88 471.15 378.21 472.55 380.27 473.14 382.93 473.14 386.1 473.14 388.75 464.88 388.16 458.91 388.01 448.87 387.65 436.71 387.5 428.59 387.72 418.86 387.79 414.29 387.57 413.47 385.29 409.42 384.4 403.89 383 399.24 381.6 395.4 380.93 391.37 381.49"/>
  <polygon class="product-shape2 shape" points="379.43 352.15 381.08 354.33 383.26 356.89 388.38 356.89 393.42 356.89 397.4 356.89 399.51 356.22 395.67 354.52 389.96 352.15 385.97 351.25 381.76 350.65 379.43 350.65 379.43 352.15"/>
  <polygon class="product-shape2 shape" points="388.64 402.25 382.46 400.57 375.7 398.17 369.99 396.66 364.04 395.61 357.05 393.51 351.34 391.64 344.23 389.55 338.05 388.26 332.92 386.98 326.62 384.77 321.03 383.25 317.53 382.44 317.53 379.17 318.46 376.37 320.45 373.58 322.08 371.13 327.67 371.13 334.2 371.13 339.56 370.31 346.09 369.61 350.99 368.45 356.7 367.28 362.29 366 368.24 364.6 373.25 363.67 377.1 363.08 381.18 362.62 380.83 369.03 381.41 371.01 382.46 375.18 383.86 378.94 386.41 382.9 389.47 386.63 388.75 393.74 389.47 399.92 388.64 402.25"/>
  <polygon class="product-shape2 shape" points="302.03 358.77 300.63 356.09 301.33 353.77 303.43 349.56 306.92 347.93 309.72 346.77 315.9 346.77 323.94 347.81 329.3 348.63 333.71 349.15 338.38 349.79 342.4 350.44 349.57 351.37 354.76 351.83 357.86 352.24 362.64 353.29 366.49 353.77 369.64 355.16 373.72 356.09 378.26 357.84 373.13 358.19 367.31 359.59 362.18 360.75 355.3 362.15 350.05 363.32 343.41 364.48 338.05 365.18 333.38 365.77 328.02 365.77 322.19 365.77 321.84 364.25 318.81 362.62 313.68 361.61 308.91 360.52 305.29 359.24 302.03 358.77"/>
  <polygon class="product-shape2 shape" points="309.49 341.99 312.87 339.66 316.02 337.09 317.53 335.34 322.31 336.51 327.44 337.44 332.92 338.66 338.86 340.35 344.46 341.4 350.52 343.27 356.12 344.78 360.78 346.77 357.4 347.7 353.5 346.77 347.72 345.72 340.5 344.78 333.38 343.73 326.74 342.8 323.24 342.22 318.23 342.22 311.7 342.45 309.49 341.99"/>
  <polygon class="product-shape2 shape" points="299.81 378.82 292.59 376.84 285.71 375.32 277.08 372.06 268.11 368.68 261.58 366.47 255.87 364.02 248.99 362.04 245.14 360.87 245.14 356.27 245.84 352.48 247.24 348.51 247.59 346.77 252.84 347.7 257.97 347.7 265.31 348.16 270.44 348.16 283.73 347.7 288.9 347.45 294.22 347.13 297 347.38 296.62 350.71 296.02 354.64 296.02 357.56 296.72 360.51 298.8 363.98 299.45 366.53 299.28 371.02 299.81 374.53 300.2 376.43 299.81 378.82"/>
  <polygon class="product-shape2 shape" points="241.31 339.47 245.82 337.52 248.87 336.91 253.63 335.34 258.26 333.62 263.63 331.42 267.65 329.96 270.46 328.74 276.07 328.13 281.19 328.13 291.31 328.13 294.24 329.59 298.51 330.57 302.9 332.03 306.44 333.8 310.1 335.34 306.19 338.49 303.88 340.81 302.29 342.15 297.17 342.76 287.53 342.76 280.66 343.05 275.7 343.33 268.62 343.62 259.03 343.1 252.35 342.93 247.79 342.82 247.9 340.88 244.53 340.25 241.31 339.47"/>
  
<!--Partie3-->
 <polygon class="product-shape3 shape" points="222.67 356.27 225.53 354.47 228.49 351.23 231.54 353.75 234.51 355.72 239.18 357.88 243.94 360.13 245.14 360.87 248.99 362.04 255.87 364.02 261.58 366.47 268.11 368.68 277.08 372.06 285.71 375.32 292.59 376.84 299.81 378.82 305.28 379.7 310.1 379.7 315 381.24 317.53 382.44 321.03 383.25 326.62 384.77 332.92 386.98 338.05 388.26 344.23 389.55 351.34 391.64 357.05 393.51 364.04 395.61 369.99 396.66 375.7 398.17 382.46 400.57 388.64 402.25 392.37 402.25 397.15 403.93 401.55 404.74 405 405.82 408.76 407.82 414.47 409.44 420.18 411.25 425.31 412.87 431.97 414.29 442.05 417.91 451.18 420.8 459.36 423.23 464.68 425 470.49 426.75 477.14 428.56 482.18 429.7 485.61 429.7 489.52 430.15 494.05 431.14 498.28 432.02 502.03 432.91 505.77 433.89 507.93 435.42 513.39 436.58 518.84 437.7 524.65 439.17 539.11 443.5 547.85 446.53 561.45 450.43 573.74 453.99 582.77 456.33 591.31 459.77 597.59 462.14 605.11 463.3 609.69 463.84 614.82 464.82 619.35 466.01 623.98 467.19 628.51 468.96 631.75 470.49 637.53 472.94 645.24 475.22 654.7 478.37 660.48 479.95 666.61 480.82 672.57 482.57 682.38 485.55 691.67 488.53 702.88 491.51 714.09 495.01 722.85 498.34 731.96 502.02 738.62 502.02 743.07 502.55 749.47 504.03 755.29 505.21 761.79 506.49 766.91 507.28 774.99 509.15 779.72 510.33 787.1 511.52 796.46 513.09 804.83 514.27 813.8 515.85 823.26 517.43 830.54 519 835.96 520.18 842.66 521.76 851.03 523.53 858.62 524.42 867.39 526 874.77 527.08 882.56 528.07 888.47 528.95 893.79 529.64 900.19 531.12 907.28 533.19 914.87 535.95 921.01 538.65 927 540.28 931.45 542.71 934.15 545.03 939.76 548.32 943.63 550.25 950.59 552.57 957.16 555.08 963.15 557.6 967.98 558.56 970.11 562.04 972.26 565.91 974.36 568.81 975.14 571.9 975.14 576.54 976.49 580.6 977.84 584.85 978.81 589.49 979.58 592.97 979.58 595.87 973.98 595.87 967.4 595.87 960.06 594.91 951.36 593.75 946.46 592.31 937.12 590.88 925.49 588.27 917.18 586.21 908.71 584.31 901.67 582.97 893.92 581.23 887.43 579.96 879.67 577.75 873.9 576.88 867.01 575.77 861.79 574.5 857.67 573.55 850.55 571.81 843.91 570.07 838.76 568.88 834.17 567.7 822.03 564.59 806.22 561.2 790.97 556.97 775.45 552.73 756.62 547.65 740.15 543.13 724.32 538.62 711.13 534.66 696.39 529.86 681.21 525.06 662.23 519.13 649.27 514.9 636.82 510.95 624.96 507.56 607.77 502.02 593.34 497.68 580.91 494.29 568.77 490.9 556.35 487.23 539.97 482.43 526.07 477.63 517.95 475.09 507.93 472.46 497.76 469.84 489.29 467.1 481.2 464.86 472.36 462.37 464.77 460.26 454.94 457.52 442.24 453.79 431.66 450.8 419.71 447.19 403.03 442.58 390.58 438.6 379.26 435.49 365.31 431.13 351.37 427.02 342.16 424.28 328.72 420.3 319.26 417.69 308.8 414.7 299.34 412.21 289.26 409.35 278.31 405.99 264.74 402.25 259.01 399.64 251.17 395.66 243.7 391.42 236.86 387.81 228.77 383.58 222.67 380.47 218.31 378.82 217.32 375.62 215.57 374.62 213.08 374.74 214.08 368.27 217.69 367.77 220.55 366.65 221.92 364.29 222.67 361.05 222.67 357.94 222.67 356.27"/>
  <polygon class="product-shape3 shape" points="829.62 591.5 831.06 586.64 831.98 584.05 832.76 581.96 832.76 578.43 833.42 573.72 834.17 567.7 838.76 568.88 843.91 570.07 850.55 571.81 858.73 573.81 858.89 576.52 858.77 581.33 857.87 586.64 857.22 592.16 856.3 596.6 855.65 601.44 855.52 603.06 859.18 603.06 865.72 604.22 871.6 604.97 876.96 605.89 883.5 607.06 891.08 608.24 898.93 609.94 905.6 610.99 910.96 612.42 918.42 614.52 924.69 616.09 929.79 617.39 934.11 618.57 937.77 619.47 941.3 620.66 944.83 620.66 945.61 616.22 946.53 610.07 947.18 604.22 947.84 600.13 948.88 595.03 948.88 593.02 951.36 593.75 960.06 594.91 967.4 595.87 973.98 595.87 979.58 595.87 980.53 597.52 979.58 600 977.39 603.06 975.56 606.54 974.25 612.03 973.47 617.79 972.26 623.67 972.26 630.3 969.3 630.3 964.86 630.3 960.35 629.8 953.38 629.54 944.2 628.12 937.23 626.7 930.12 625.02 920.81 622.31 913.71 620.63 905.44 618.69 894.2 615.98 887.09 614.56 879.08 613 870.68 610.81 864.86 609.39 857.76 607.71 850 606.29 839.8 604.22 834.63 604.22 829.59 604.73 830.28 601.31 830.41 598.4 830.28 595.29 830.15 593.07 829.62 591.5"/>
  <polygon class="product-shape3 shape" points="238.03 404.02 238.03 400.57 237.02 397.09 238.03 394.81 239.89 392.82 241.59 390.31 236.86 387.81 228.77 383.58 222.67 380.47 218.31 378.82 218.31 381.52 219.07 385.29 220.26 389.45 221.35 392.72 222.24 396.79 223.96 400.57 229.85 401.72 238.03 404.02"/>
   <polygon class="product-shape3 shape" points="970.28 657.68 973.98 660.86 977.04 662.74 977.82 663.62 977.82 665.98 975.85 667.68 972.26 671.59 969.12 674.17 966.31 676.11 962.56 677.56 958.05 678.66 952.77 680.38 957.7 676.43 964.86 671.99 966.83 668.54 969.79 662.37 970.56 659.78 970.28 657.68"/>

<!--Partie4-->
<polygon class="product-shape4 shape" points="767.17 484.64 769.05 481.55 771.11 479.48 774.58 476.86 777.96 474.04 781.15 471.79 784.61 469.92 788.93 468.42 793.55 468.42 802.07 469.44 807.84 470.46 812.75 471.4 816.95 473.12 820.71 474.95 824.15 476.53 828.55 478.71 823.61 479.68 816.62 480.75 810.82 482.15 805.98 483.22 800.4 484.64 794.59 485.91 791.37 486.88 786.43 487.63 781.27 488.17 779.12 488.17 778.9 486.88 776 486.45 772.13 486.02 769.45 485.48 767.17 484.64"/>
  <polygon class="product-shape4 shape" points="773.12 508.72 775.03 505.25 776.97 502.02 777.94 498.7 778.9 496.01 784.17 495.26 790.19 494.4 795.67 493 800.93 492.03 805.66 491.39 811.68 489.56 817.48 488.17 823.29 487.2 829.73 485.8 836.4 484.64 841.02 487.41 846.82 490.74 851.77 493.97 859.4 499.02 864.98 503.43 871.97 508.72 875.63 511.5 879.9 514.47 884.3 516.93 890.9 519.52 895.04 521.2 898.66 523.14 896.33 526.76 893.79 529.64 888.47 528.95 882.56 528.07 874.77 527.08 867.39 526 858.62 524.42 851.03 523.53 842.66 521.76 835.96 520.18 830.54 519 823.26 517.43 813.8 515.85 804.83 514.27 796.46 513.09 787.1 511.52 779.72 510.33 774.99 509.15 773.12 508.72"/>
  <polygon class="product-shape4 shape" points="838.64 476.91 833.18 474.01 826.76 470.84 822.27 468.42 816.9 465.12 824.38 466.79 833.09 468.42 840.31 469.7 847.26 471.02 856.06 472.51 865.65 474.98 875.42 476.91 867.76 476.91 858.61 475.95 851.84 475.86 846.16 476.21 838.64 476.91"/>
  <polygon class="product-shape4 shape" points="849.05 483.08 853.59 486.96 857.69 490.39 863.67 493.93 868.98 497.7 873.41 501.13 878.29 504.79 881.17 507.14 883.27 508.55 888.15 510.66 892.91 513.21 897.45 515.09 900.11 515.75 901.88 512.21 903.43 510.33 907.75 511.43 914.17 513.21 922.26 515.31 928.46 517.3 934.56 519.08 938.54 520.63 939.98 521.62 939.98 523.4 944.97 523.4 952.28 522.62 958.7 521.29 963.69 519.3 967.34 516.75 969.89 514.2 970.88 511.43 970.88 507.14 967.23 504.68 962.69 502.02 957.7 500.03 949.84 497.37 941.87 495.04 933.67 493.05 929.13 492.05 925.03 491.16 921.15 489.95 908.19 488.17 894.9 486.18 885.49 484.64 876.18 484.64 865.55 484.08 857.58 483.97 849.05 483.08"/>
  <polygon class="product-shape4 shape" points="939.06 529.64 944.89 530.57 952.85 530.1 959.39 528.45 966.46 525.44 972.26 521.73 975.3 518.37 977.42 514.13 977.42 510.94 977.42 506.52 977.42 504.05 983.26 505.46 990.33 505.99 997.75 507.14 1003.23 508.65 1007.48 509.35 1010.31 510.77 1012.25 513.24 1014.73 517.31 1016.85 524.2 1018.44 529.64 1020.21 536.22 1021.09 540.64 1021.97 546.66 1022.86 550.37 1022.86 554.79 1021.62 562.04 1020.03 570.35 1015.77 570.85 1011.72 571.98 1006.44 573.59 1003.04 575.76 998.61 579.06 994.93 583.12 991.91 587.46 989.17 592.17 986.15 596.51 984.36 599.72 982.29 598.59 980.53 597.52 979.58 595.87 979.58 592.97 978.81 589.49 977.84 584.85 976.49 580.6 975.14 576.54 975.14 571.9 974.36 568.81 972.26 565.91 970.11 562.04 967.98 558.56 963.15 557.6 957.16 555.08 950.59 552.57 943.63 550.25 939.76 548.32 934.15 545.03 931.45 542.71 934.79 539.85 935.99 536.79 936.92 533.33 939.06 529.64"/>
  <polygon class="product-shape4 shape" points="988.7 645.09 988.7 637.06 989.32 633.15 989.94 626.66 989.94 621.2 991.69 615.74 992.51 610.39 994.06 607.19 993.64 604.22 990.86 603.59 993.64 599 995.91 595.25 999.51 590.92 1002.71 587.22 1006 583.92 1009.71 581.04 1012.8 578.98 1016.09 578.26 1018.67 578.26 1017.64 583.41 1016.2 588.86 1014.24 595.87 1009.81 604.22 1007.24 610.49 1004.77 616.26 1001.99 621.92 998.38 628.82 995.7 634.28 993.64 638.19 991.28 643.55 989.32 646.43 988.7 645.09"/>
  
<!--elastic1-->
 <polygon class="product-shape5 shape" points="957.7 500.03 957.7 496.67 958.44 494.89 963.26 494.89 966.81 496.03 970.88 497.93 973.66 500.03 975.18 501.36 977.42 504.05 977.42 506.52 977.42 510.94 977.42 514.13 975.3 518.37 972.26 521.73 966.46 525.44 959.39 528.45 952.85 530.1 944.89 530.57 939.06 529.64 939.06 526.33 939.98 523.4 944.97 523.4 952.28 522.62 958.7 521.29 963.69 519.3 967.34 516.75 969.89 514.2 970.88 511.43 970.88 507.14 967.23 504.68 962.69 502.02 957.7 500.03"/>
  <polygon class="product-shape5 shape" points="900.11 515.75 902.63 516.53 902.63 519.84 901.37 523.4 898.66 523.14 895.04 521.2 890.9 519.52 884.3 516.93 879.9 514.47 875.63 511.5 871.97 508.72 864.98 503.43 859.4 499.02 851.77 493.97 846.82 490.74 841.02 487.41 836.4 484.64 829.73 485.8 823.29 487.2 817.48 488.17 811.68 489.56 805.66 491.39 800.93 492.03 795.67 493 790.19 494.4 784.17 495.26 778.9 496.01 774.55 495.68 775.7 492.04 777.03 488.9 779.12 488.17 781.27 488.17 786.43 487.63 791.37 486.88 794.59 485.91 800.4 484.64 805.98 483.22 810.82 482.15 816.62 480.75 823.61 479.68 828.55 478.71 824.15 476.53 820.71 474.95 816.95 473.12 812.75 471.4 809.59 470.32 807.7 469.76 805.78 468.96 804.87 467.82 805.03 465.4 805.56 464.01 806.89 462.98 809.62 462.29 816.9 465.12 822.27 468.42 826.76 470.84 833.18 474.01 838.64 476.91 846.16 476.21 851.84 475.86 858.61 475.95 867.76 476.91 875.42 476.91 885.64 477.69 893.46 478.29 901.77 479.28 909.97 480.51 916.44 481.73 921.33 483.08 927.32 483.93 926.58 486.86 926.16 491.41 925.03 491.16 921.15 489.95 908.19 488.17 894.9 486.18 885.49 484.64 876.18 484.64 865.55 484.08 857.58 483.97 849.05 483.08 853.59 486.96 857.69 490.39 863.67 493.93 868.98 497.7 873.41 501.13 878.29 504.79 881.17 507.14 883.27 508.55 888.15 510.66 892.91 513.21 897.45 515.09 900.11 515.75"/>
  <polygon class="product-shape5 shape" points="777.19 457.35 777.02 463.07 775.33 463.07 770.83 462.32 765.39 461.48 759.2 460.35 752.92 459.89 744.11 459.42 736.98 459.89 731.63 459.89 724.32 460.35 724.32 462.32 727.04 465.79 731.07 470.67 735.57 475.73 741.01 480.89 744.48 483.23 743.68 487.13 742.65 489.93 737.22 485.38 731.96 480.65 727.23 475.39 722.5 469.79 718.3 464.18 715.49 460.5 706.73 460.5 700.78 460.5 694.99 460.15 690.79 459.42 685.36 459.42 677.12 458.57 668.89 458.57 660.48 458.57 653.47 458.57 643.49 457.35 637 457.35 633.59 457.35 633.59 454.45 634.44 452.48 635.57 450.78 636.98 449.84 638.79 449.84 639.15 450.84 648.88 451.85 659.91 452.02 671.39 452.19 686.81 452.86 697.17 453.13 704.65 453.42 711.13 453.99 708.99 451.51 706.29 448.35 702.56 445.53 698.84 442.94 695.35 441.36 690.16 438.88 685.09 436.74 683.6 436.32 679.83 435.42 677.2 433.64 676.72 431.19 677.85 429.03 679.27 427.99 681.21 427.87 682.38 428.79 687.2 431.42 692.89 434.4 699.73 437.9 705.16 441.05 709.01 444.21 712.69 447.54 715.32 449.81 718.3 453.84 723.55 453.84 728.26 453.84 733.73 453.84 739.01 453.84 745.89 454.27 753.15 454.75 761.64 455.5 767.77 456.07 772.57 456.63 777.19 457.35"/>
  <polygon class="product-shape5 shape" points="507.93 422.13 507.93 419.23 509.5 416.84 513.19 416.84 523.65 416.84 530.49 416.84 542.95 414.67 549.8 413.63 557.85 412.68 563.5 411.82 573.1 411.34 569.2 409.16 565.59 406.97 561.81 405.26 560.72 403.69 560.85 401.32 562.57 400 564.86 400 565.66 401.16 569.2 402.49 575.19 405.82 581.52 410.81 590.28 411.37 598.04 412.03 606.25 412.81 616.9 413.7 625.33 415.14 634.98 417.47 643.74 419.13 652.06 420.8 651.91 425 646.78 424.3 639.23 422.9 629.45 420.76 621.9 419.73 611.09 418.61 602.6 417.49 593.56 416.84 587.41 416.84 592.16 421.88 595.43 425.88 600.09 431.48 605.21 436.74 609.69 440.98 608.92 444.38 607.77 445.5 602.57 442.03 597.38 436.66 591.32 430.69 586.04 425 581.97 420.3 579.46 416.84 571.4 417.44 561.81 418.39 551.92 419.26 543.26 420.3 538.33 421.25 531.92 422.03 526.2 422.12 517.63 422.12 511.48 422.29 507.93 422.13"/>
  <polygon class="product-shape5 shape" points="485.13 414.2 481.9 412.01 479.04 409.35 476.67 406.06 475.05 403.07 474.38 400.31 473.43 396.89 472.96 393.84 469.15 393.46 463.73 393.37 456.69 392.8 449.28 392.8 442.05 392.8 433.77 392.8 429.5 393.27 420.75 393.27 413.99 393.27 409.95 392.8 408.76 392.8 408.76 390.52 410.87 388.02 412.58 386.97 414.29 387.57 418.86 387.79 428.59 387.72 436.71 387.5 448.87 387.65 458.91 388.01 464.88 388.16 473.14 388.75 473.14 386.1 473.14 382.93 472.55 380.27 471.15 378.21 469.01 376.88 466.5 375.55 463.99 374.3 462.08 374.08 462.88 370.78 464.46 369.45 468.02 368.8 470.49 370.78 473.73 373.75 476.71 376.72 478.2 380.24 478.2 384.29 478.2 390.11 484.55 390.11 492.8 390.11 499.56 390.11 507.13 390.78 514.7 391.32 522.54 392 528.62 393.18 534.44 394.03 538.9 394.97 538.77 399.46 534.96 398.5 529.16 397.55 522.79 396.79 514.33 396.22 506.15 395.79 497.02 395.27 486.18 395.27 479.04 395.27 479.04 399.55 480.95 402.31 483.32 405.26 486.46 408.97 485.13 414.2"/>
  <polygon class="product-shape5 shape" points="391.37 381.49 389.47 386.63 386.41 382.9 383.86 378.94 382.46 375.18 381.41 371.01 380.83 369.03 381.18 362.62 377.1 363.08 373.25 363.67 368.24 364.6 362.29 366 356.7 367.28 350.99 368.45 346.09 369.61 339.56 370.31 334.2 371.13 327.67 371.13 322.08 371.13 318.09 370.78 317.53 368.19 319.06 365.77 322.19 365.77 328.02 365.77 333.38 365.77 338.05 365.18 343.41 364.48 350.05 363.32 355.3 362.15 362.18 360.75 367.31 359.59 373.13 358.19 378.26 357.84 374.91 356.27 375.03 353.14 376.24 351.23 379.43 352.15 381.08 354.33 383.26 356.89 388.38 356.89 393.42 356.89 397.4 356.89 399.51 356.22 404.28 356.27 410.11 356.27 415.7 356.89 422.62 357.99 429.17 359.09 434.88 360.18 441.19 361.61 445.44 362.62 445.44 367.34 444.45 368.25 440.91 367.59 437 366.63 431.54 365.3 425.79 364.34 419.6 362.79 415.02 362.2 409.79 361.61 404.99 361.61 399.98 361.61 392.38 362.2 386.41 362.2 386.41 363.23 386.41 366.92 386.78 370.54 388.03 374.67 389.99 378.4 391.37 381.49"/>
  <polygon class="product-shape5 shape" points="302.03 358.77 300.63 356.09 301.33 353.77 303.43 349.56 309.72 346.77 315.9 346.77 323.94 347.81 329.3 348.63 333.71 349.15 338.38 349.79 342.4 350.44 349.57 351.37 354.76 351.83 357.86 352.24 357.86 349.55 359.34 347.7 359.34 347.16 357.4 347.7 353.5 346.77 347.72 345.72 340.5 344.78 333.38 343.73 326.74 342.8 323.24 342.22 318.23 342.22 311.7 342.45 309.49 341.99 312.87 339.66 316.02 337.09 317.53 335.34 317.53 332.63 315.59 330.39 312.45 328.9 309.49 328.13 306.78 328.13 306.03 330.84 306.44 333.8 310.1 335.34 306.19 338.49 303.88 340.81 302.29 342.15 297.17 342.76 287.53 342.76 280.66 343.05 275.7 343.33 268.62 343.62 259.03 343.1 252.35 342.93 247.79 342.82 245.14 343.45 245.14 345.62 245.14 347.26 247.59 346.77 252.84 347.7 257.97 347.7 265.31 348.16 270.44 348.16 283.73 347.7 288.9 347.45 294.22 347.13 297 347.38 296.62 350.71 296.02 354.64 296.02 357.56 296.72 360.51 298.8 363.98 300.2 364.74 302.03 358.77"/>
  <polygon class="product-shape5 shape" points="291.31 328.13 276.07 328.13 270.46 328.74 262.12 328.74 256.06 329.54 251.96 330.79 248.22 332.57 245.14 335.34 242.7 337.38 241.31 339.47 233.97 339.47 232.01 337.74 235.57 335.34 239.31 332.03 242.7 329.9 247.15 328.13 252.85 326.51 258.55 324.91 263.72 323.66 268.35 322.77 274.59 322.77 291.31 322.77 291.31 328.13"/>
  <polygon class="product-shape5 shape" points="223.45 343.62 219.18 345.4 214.72 347.7 216.51 351.23 219.09 353.59 222.67 356.27 225.53 354.47 228.49 351.23 223.45 343.62"/>
  <polygon class="product-shape5 shape" points="204.39 353.06 196.2 356.27 189.07 360.18 183.37 363.75 177.13 368.93 170.72 374.79 161.99 380.67 151.83 387.98 145.24 394.03 140.25 398.84 135.09 405.97 130.81 412.21 126 419.69 121.19 425 114.42 431.27 106.76 437.33 97.85 444.45 88.76 451.94 78.79 459.06 70.95 464.23 61.15 470.82 50.28 477.24 40.3 482.94 32.29 488.28 24.98 492.02 15.9 496.83 8.32 500.58 2.8 502.89 0 504.32 0 511.8 6.72 508.95 14.92 505.03 22.04 501.29 31.48 496.12 40.21 490.78 48.77 485.79 56.96 480.8 64.98 475.99 72.82 471.18 81.37 465.3 88.32 459.95 96.34 453.9 103.28 448.37 95.98 457.1 87.61 465.66 80.48 473.55 72.46 481.51 63.38 490.6 55.18 498.97 47.34 507.35 40.57 514.29 32.91 522.49 24 530.86 17.41 539.06 12.24 546.01 7.25 553.49 4.05 558.48 0 565.07 0 579.32 6.19 569.7 9.75 563.29 14.2 556.34 18.66 550.11 23.11 544.23 28.28 537.81 33.62 532.11 39.15 526.77 46.09 520 50.01 515.54 55.89 509.13 61.06 503.96 66.4 497.37 73 489.89 79.41 484.01 85.65 477.24 92.59 470.29 97.94 464.59 104.89 456.75 110.41 450.51 115.76 443.74 121.46 436.97 125.73 431.63 131.43 425 136.78 419.69 143.73 412.92 149.61 406.68 155.66 400.57 161.9 393.86 166.89 388.69 172.59 383.17 177.76 378.82 183.1 375.68 190.41 371.94 198.24 368.38 204.39 364.74 206.97 363.93 206.08 354.3 204.39 353.06"/>
  
<!--elastic2-->

<polygon class="product-shape6 shape" points="223.38 414.93 222.67 411.06 222.67 407.9 215.7 409.27 213.08 410.22 214.72 412.89 218.23 414.93 223.38 414.93"/>
  <polygon class="product-shape6 shape" points="206.27 376.6 206.97 380.85 209.73 380.85 212.4 378.82 213.08 376.6 213.08 374.74 214.08 368.27 210.18 365.77 208.47 364.74 206.97 369.54 206.27 376.6"/>
  <polygon class="product-shape6 shape" points="242.7 337.38 248.22 332.57 251.96 330.79 256.06 329.54 262.12 328.74 262.12 332.04 258.26 333.62 253.63 335.34 248.87 336.91 245.82 337.52 242.7 337.38"/>
  <polygon class="product-shape6 shape" points="247.15 328.13 252.85 326.51 258.55 324.91 258.55 318.81 258.55 313.94 257 310.17 256.22 305.93 255.75 303.1 252.85 303.1 250.72 305.14 249.46 308.12 247.15 310.01 247.15 313.15 248.84 316.29 248.99 318.18 245.14 317.08 239.1 313.31 235.64 310.01 234.86 304.98 234.86 301.06 233.13 298.07 229.95 297.13 228.49 298.23 227.79 300.9 228.49 303.88 228.49 305.93 224.65 301.84 221.61 301.06 219.62 302.78 219.62 305.3 220.72 307.65 222.67 309.54 223.38 311.11 221.61 313.62 221.61 316.61 221.61 319.12 224.96 321.79 228.49 324.46 232.01 324.93 234.86 323.83 236.43 322.1 239.09 321.79 241.59 322.77 244.28 325.24 247.15 328.13"/>
  <polygon class="product-shape6 shape" points="980.53 605.89 984.36 599.72 986.15 596.51 989.17 592.17 991.91 587.46 994.93 583.12 998.61 579.06 1003.04 575.76 1006.44 573.59 1011.72 571.98 1015.77 570.85 1020.03 570.35 1032.17 570.35 1037.13 570.35 1037.13 564.44 1035.96 557.72 1032.46 551.88 1029.25 548.68 1025.7 548.68 1022.86 548.16 1022.33 548.16 1021.97 546.66 1022.86 545.06 1024.58 543.61 1026.61 541.74 1030.26 541.47 1034.11 541.9 1037.13 544.47 1039.68 546.93 1042.09 550.09 1043.64 553.68 1044.55 557.58 1048.78 557 1052.85 556.89 1055.79 555.66 1058.31 553.84 1061.78 553.57 1063.77 554.53 1065.21 556.25 1065.21 559.06 1064.54 561.51 1062.74 563.37 1063.4 565.47 1065.21 567.8 1067 570.08 1067 575.95 1067 579.85 1064.72 582.01 1061.9 584.1 1059.21 585.24 1056.51 586.02 1054.23 585.18 1052.13 584.76 1049.2 589.62 1047.58 592.37 1047.64 595.87 1043.34 599 1041.67 601.01 1039.03 605.89 1035.56 612.34 1031.54 622.25 1028.9 629.05 1024.32 638.22 1019.32 646.43 1014.74 653.21 1010.16 659.45 1006 664.45 1001.69 668.48 996.84 671.95 991.7 674.17 985.73 674.17 981.57 672.22 978.79 668.75 977.82 665.98 977.82 663.62 983.65 663.48 987.26 663.9 988.7 665.7 991.7 664.59 996.7 660.56 1002.8 654.32 1007.52 647.93 1010.72 642.92 1014.19 637.1 1017.66 631.69 1020.16 626.97 1022.86 622.67 1025.43 615.59 1027.65 611.01 1030.29 605.46 1026.82 603.51 1022.86 600.74 1022.41 596.85 1026.4 596.85 1030.43 597.13 1034.87 595.87 1037.23 592.55 1038.2 589.49 1038.2 583.94 1038.2 580.61 1035.15 578.26 1026.26 578.26 1018.67 578.26 1016.09 578.26 1012.8 578.98 1009.71 581.04 1006 583.92 1002.71 587.22 999.51 590.92 995.91 595.25 993.64 599 990.86 603.59 990.31 606.84 986.7 607.26 983.23 607.26 980.53 605.89"/>
  <polygon class="product-shape6 shape" points="1051.9 610.53 1056.73 612.34 1062.26 616.41 1068.73 620.18 1075.56 625.12 1080.85 630.3 1087.68 637.71 1093.44 643.36 1100.39 650.42 1108.39 659.13 1117.22 668.78 1126.16 678.2 1132.14 685.57 1139.34 695 1144.19 701.68 1148.51 708.23 1151.78 712.69 1156.76 714 1159.77 717.01 1162.26 721.98 1164.09 725.78 1165.27 729.97 1166.45 730.63 1171.69 730.63 1175.62 732.33 1179.29 735.34 1180.86 737.18 1180.86 742.81 1178.63 744.12 1174.7 744.12 1172.08 742.15 1168.55 740.84 1161.08 740.84 1157.02 741.89 1154.14 744.12 1151.65 745.17 1142.48 745.17 1138.03 743.86 1133.71 740.58 1131.35 736.13 1130.96 730.1 1131.87 726.18 1133.45 722.64 1135.54 720.54 1131.22 715.44 1124.28 706.4 1118.65 698.15 1114.32 691.34 1106.07 679.16 1098.08 667.76 1091.66 658.2 1085.9 650.34 1081.06 644.19 1076.08 638.82 1071.23 635.02 1065.34 630.17 1060.89 626.9 1057.35 624.54 1053.81 623.62 1051.9 618.65 1050.41 614.98 1050.41 611.31 1051.9 610.53"/>
  <!--elastic2-->
  <polygon class="product-shape7 shape" points="784.17 580.93 782.45 584.39 780.29 590.99 780.29 594.44 780.29 604.22 781.3 608.93 783.02 614.55 784.17 618.72 785.45 622.77 781.34 623.88 778.12 624.77 775.12 625.99 772.67 627.44 769.1 631.1 766.49 635.09 766.49 640.15 767.56 643.99 770.94 647.98 774.31 650.74 779.07 652.74 785.45 654.27 793.64 655.19 793.64 659.79 795.79 663.48 798.86 666.08 803 667.77 804.75 671.76 808.07 677.59 809.29 680.66 812.79 681.12 816.04 679.89 818.35 677.59 820.03 675.14 818.5 672.53 818.96 669.61 815.89 669 813.95 667.62 812.79 665.32 816.2 661.48 817.27 657.65 817.58 653.96 816.81 651.05 815.43 648.61 812.79 646.29 808.37 642.92 806.07 641.1 802.89 640.55 798.68 639.28 796.93 634.83 795.02 630.61 795.02 628.39 798.6 627.91 804.75 626.45 806.13 626.12 808.23 625.46 810.89 624.19 813.95 622.7 817.7 620.37 821.71 617.14 824.94 613.91 826.75 611.07 828.3 608.61 829.07 606.16 829.59 604.73 830.28 601.31 830.41 598.4 830.28 595.29 830.15 593.07 829.62 591.5 828.78 588.14 827.86 586.64 824.94 589.22 822.8 591.83 822.8 595.05 823.52 599.44 823.52 602.41 821.84 606.16 819.38 609.9 816.54 613 812.27 616.24 808.4 617.53 805.17 618.56 802.07 619.47 797.63 620.21 795.02 621.28 791.65 624.81 788.89 627.44 786.82 629.57 787.81 632.94 789.65 637.24 791.19 642.92 792.11 645.37 787.51 645.06 782.9 644.76 779.38 642.92 776.15 641.08 774.93 638.16 775.54 636.01 777.84 634.02 780.14 632.48 781.83 631.72 783.21 628.8 786.82 625.73 790.42 620.98 791.34 619.47 790.05 613.91 788.63 608.93 787.46 604.22 786.82 599.82 786.82 595.43 787.46 592.07 788.11 588.97 789.79 586.64 792.88 584.31 796.87 581.7 800.39 580.32 803.92 580.32 807.91 580.32 810.83 580.32 813.95 582.77 816.35 584.31 818.81 586.64 820.19 588.76 823.52 586.64 826.63 584 824.64 580.32 821.87 578.17 818.96 575.87 815.43 574.03 811.44 572.49 806.84 571.73 801.32 571.73 797.02 572.8 792.88 574.33 789.81 576.02 786.82 577.86 784.17 580.93"/>
  <!--nocolor-->
  <polygon fill="#fff" points="1120.05 684.21 1124.97 689.62 1128.71 694.54 1132.55 700.05 1135.89 705.16 1139.43 710.58 1141.01 713.13 1138.94 712.64 1134.02 707.03 1130.53 701.92 1126.05 695.92 1122.61 691.19 1120.05 686.67 1118.67 684.9 1118.67 683.62 1120.05 684.21"/>
</svg>