<svg id="product-svg" viewBox="0 0 1280 1000" xmlns="http://www.w3.org/2000/svg" xmlns:xlink="http://www.w3.org/1999/xlink">
 <g id="Layer_1">
  <title>Layer 1</title>
  <!--partie1-->
  <path class="product-shape1 shape" class="product-shape1 shape" id="svg_2" d="m989.91222,433.24761l-1.99824,-3.83212l-1.33333,-5.99998l-0.33333,-2.99999l-4.33332,-2.66666l-5.33332,-5.33332l-3.66666,-3.99999l-1.99999,-4.66665l-1.99999,-2.99999l-3.66666,-0.33333l-3.99999,-1.99999l-1,-2.66666l-4.99999,0l-5.99998,-0.33333l-3.33332,-1.99999l-2.99999,-0.33333l-6.66665,0l-4.99999,0l-9.33331,0.66666l-10.33331,0.66666l-9.66664,1l-11.66663,1l-6.99998,0.66666l-7.99998,-0.66666l-8.33331,1.33333l-7.99998,0.33333l-7.99998,0.66666l-5.99998,0.66666l-4.66665,1.99999l-10.99997,0.66666l-10.66664,0.66666l-15.99996,0.66666l-14.99996,1.33333l-13.66663,0l-14.99996,-0.33333l-12.3333,-0.33333l-11.3333,-0.33333l-9.99997,-0.66666l-5.66665,-1.66666l-10.66664,0l-9.33331,-0.33333l-4.66665,0.33333l-11.66663,1l-13.99996,1.33333l-17.33329,0.66666l-14.33329,0.33333l-22.33327,0.66666l-17.99995,0.33333l-5.99998,-0.33333l-8.33331,-1.33333l-14.66663,0l-17.66662,1.33333l-19.66661,1.33333l-28.66659,0.66666l-14.33329,-0.66666l-6.33332,-1.33333l-7.33331,-0.66666l-7.33331,-0.33333l-5.66665,1l-9.66664,0.66666l-12.66663,-0.33333l-11.66663,-0.33333l-11.3333,-1.33333l-22.33327,-1.66666l-3.33332,-0.66666l-8.66664,-1.66666l-6.99998,-0.33333l-4.99999,-0.33333l-4.66665,0.33333l-7.99998,0.66666l-12.99996,0l-12.66663,-0.33333l-12.3333,0l-7.66665,-1l-5.99998,-0.33333l-3.66666,-1l-5.33332,-0.66666l-3.99999,0.33333l-9.99997,0l-6.33332,-1.66666c0.33158,0.16547 0.66491,3.49879 0.66491,3.83212c0,0.33333 1.33333,4.33332 1.00175,4.16785c0.33158,0.16547 -4.33507,3.49879 -4.66665,3.33332c0.33158,0.16547 -4.33507,1.4988 -4.66665,1.33333c0.33158,0.16547 -5.33507,-1.83453 -5.66665,-1.99999c0.33158,0.16547 -2.66841,-3.16786 -2.99999,-3.33332c0.33158,0.16547 -1.33508,-4.16785 -1.66666,-4.33332c0.33158,0.16547 -0.33508,-3.50119 -0.66666,-3.66666c0.33158,0.16547 -2.33508,1.83213 -2.66666,1.66666c0.33158,0.16547 -1.66841,3.49879 -1.99999,3.33332c0.33158,0.16547 -0.00175,6.16545 -0.33333,5.99998c0.33158,0.16547 -0.00175,5.83212 -0.33333,5.66665c0.33158,0.16547 0.99825,6.83212 0.66666,6.66665c0.33158,0.16547 1.99824,2.16546 1.66666,1.99999c0.33158,0.16547 6.99823,1.16546 6.66665,1c0.33158,0.16547 4.33157,5.83212 3.99999,5.66665c0.33158,0.16547 11.99822,2.49879 11.66663,2.33333c0.33158,0.16547 18.33153,1.83213 17.99995,1.66666c0.33158,0.16547 23.99818,1.83213 23.6666,1.66666c0.33158,0.16547 23.33152,1.4988 22.99994,1.33333c0.33158,0.16547 28.33151,1.83213 27.99992,1.66666c0.33158,0.16547 25.99818,1.83213 25.6666,1.66666c0.33158,0.16547 20.99819,0.4988 20.66661,0.33333c0.33158,0.16547 18.33153,0.4988 17.99995,0.33333c0.33158,0.16547 25.66485,0.16547 25.33326,0c0.33158,0.16547 21.66486,1.16546 21.33328,1c0.33158,0.16547 23.33152,0.4988 22.99994,0.33333c0.33158,0.16547 23.66485,-0.16787 23.33327,-0.33333c0.33158,0.16547 21.99819,0.4988 21.99819,0.4988c0,0 11.66663,0 11.33505,-0.16547c0.33158,0.16547 23.33152,0.16547 22.99994,0c0.33158,0.16547 24.33152,-0.5012 23.99993,-0.66666c0.33158,0.16547 18.66486,0.83213 18.33328,0.66666c0.33158,0.16547 25.66484,-0.16787 25.33326,-0.33333c0.33158,0.16547 26.33151,-0.16787 25.99993,-0.33333c0.33158,0.16547 14.66487,1.4988 28.33326,1c0.33158,0.16547 26.99817,0.16547 26.66659,0c0.33158,0.16547 17.9982,1.16546 17.66662,1c0.33158,0.16547 20.66486,0.83213 20.33328,0.66666c0.33158,0.16547 25.66484,0.16547 25.33326,0c0.33158,0.16547 21.99819,0.16547 21.66661,0c0.33158,0.16547 18.66486,-0.83453 18.33328,-1c0.33158,0.16547 5.99823,-0.83453 5.66665,-1c0.33158,0.16547 12.99821,-1.5012 12.66663,-1.66666c0.33158,0.16547 14.99821,-2.50119 14.66663,-2.66666c0.33158,0.16547 16.66487,-0.5012 16.33329,-0.66666c0.33158,0.16547 20.33153,-1.16786 19.99995,-1.33333c0.33158,0.16547 22.33152,-0.83453 21.99994,-1c0.33158,0.16547 27.99817,-0.83453 27.66659,-1c0.33158,0.16547 17.66487,0.16547 17.33329,0c0.33158,0.16547 18.66486,2.16546 18.66486,2.16546z" opacity="NaN" fill="#fff"/>

  <!--partie2--> 
  <path class="product-shape2 shape"  id="svg_3" d="m262.91421,449.24757l-6.33157,-3.16546l-1,3.33333l1.33333,4.99998l0.66667,6.99998l3.99999,11.99997l4.99998,14.66663l4.66666,8.66664l4.66665,13.66663l3.66666,10.66664c0.33158,0.16546 3.33157,3.16546 3.6649,3.16546c0.33334,0 11.66664,5.33331 11.33506,5.16785c0.33158,0.16546 6.99823,2.49879 6.66664,2.33332c0.33159,0.16547 7.6649,1.4988 7.33332,1.33333c0.33158,0.16547 6.6649,0.16547 6.33331,0c0.33159,0.16547 9.33156,2.83213 8.99998,2.66666c0.33158,0.16547 10.33155,2.4988 9.99997,2.33333c0.33158,0.16547 13.33155,4.49879 12.99997,4.33332c0.33158,0.16547 7.33156,3.16546 6.99998,2.99999c0.33158,0.16547 18.66486,8.83211 18.33328,8.66665c0.33158,0.16546 8.66489,3.16546 8.33331,2.99999c0.33158,0.16547 4.6649,1.16546 4.33332,1c0.33158,0.16546 13.99821,4.83212 13.66663,4.66665c0.33158,0.16547 12.66488,5.83212 12.3333,5.66665c0.33158,0.16547 21.66486,7.83211 21.33328,7.66665c0.33158,0.16546 21.33152,8.49877 20.99994,8.33331c0.33158,0.16546 14.66487,6.49878 14.33329,6.33331c0.33158,0.16547 19.9982,7.16545 19.66662,6.99998c0.33158,0.16547 24.99818,9.83211 24.6666,9.66664c0.33158,0.16547 13.99821,4.83212 13.66662,4.66666c0.33159,0.16546 12.99822,5.49878 12.66664,5.33332c0.33158,0.16546 17.9982,6.83211 22.99993,11.3333c0.33159,0.16547 20.66486,8.83211 20.33328,8.66664c0.33158,0.16547 21.66486,9.83211 21.33328,9.66664c0.33158,0.16547 14.66487,6.16545 14.33329,5.99999c0.33158,0.16546 10.99822,4.83212 10.66664,4.66665c0.33158,0.16547 12.99821,5.83212 12.66663,5.66665c0.33158,0.16547 9.66489,3.16546 9.33331,2.99999c0.33158,0.16547 11.66488,5.16546 11.3333,4.99999c0.33158,0.16547 10.66489,5.16545 10.33331,4.99999c0.33158,0.16546 10.66488,7.49878 10.3333,7.33331c0.33158,0.16547 16.66487,6.83211 16.33329,6.66665c0.33158,0.16546 15.9982,6.49878 15.66662,6.33331c0.33158,0.16547 16.33154,6.83212 15.99996,6.66665c0.33158,0.16547 17.9982,8.16545 17.66662,7.99998c0.33158,0.16547 12.99821,6.16545 12.66663,5.99998c0.33158,0.16547 3.66491,-0.16786 7.33331,1c0.33158,0.16547 6.33157,-4.16785 5.99999,-4.33332c0.33158,0.16547 6.99823,-2.16786 6.66665,-2.33333c0.33158,0.16547 7.66489,-1.50119 7.33331,-1.66666c0.33158,0.16547 5.6649,-1.5012 5.33332,-1.66666c0.33158,0.16546 4.99823,-4.83452 4.66665,-4.99999c0.33158,0.16547 2.33158,-2.83452 2,-2.99999c0.33158,0.16547 22.66485,-17.50115 22.33327,-17.66662c0.33158,0.16547 18.99819,-15.50116 18.66661,-15.66662c0.33158,0.16546 9.99823,-8.50118 9.66665,-8.66664c0.33158,0.16546 9.66488,-7.50118 9.3333,-7.66665c0.33158,0.16547 16.9982,-14.83449 16.66662,-14.99996c0.33158,0.16547 14.99821,-12.8345 14.66663,-12.99996c0.33158,0.16546 10.99822,-10.50118 10.66664,-10.66664c0.33158,0.16546 12.66488,-12.16783 12.3333,-12.3333c0.33158,0.16547 -13.66838,-7.16785 -13.99996,-7.33331c0.33158,0.16546 -5.33508,-3.50119 -5.66666,-3.66666c0.33158,0.16547 -2.00174,2.49879 -2.33332,2.33333c0.33158,0.16546 -5.33507,-0.5012 -5.66665,-0.66667c0.33158,0.16547 -3.00175,-1.16786 -3.33333,-1.33333c0.33158,0.16547 -3.33507,1.4988 -3.66665,1.33333c0.33158,0.16547 -4.66841,-2.50119 -4.99999,-2.66666c0.33158,0.16547 -0.33509,-5.16785 -0.66667,-5.33332c0.33158,0.16547 1.08162,-5.10536 1.12498,-5.27083c-0.04336,-0.08449 2.24837,-5.29283 2.54168,-5.3958c-0.16833,0.04048 4.6649,-4.16786 4.33332,-4.33333c0.33158,0.16547 -4.31355,-7.16784 -4.27096,-7.27095c-0.22968,-0.02162 -2.73077,-10.2302 -3.06235,-10.39566c0.33158,0.16546 -1.00175,-4.83452 -1.33333,-4.99999c0.33158,0.16547 -4.66841,-4.83452 -4.99999,-4.99999c0.33158,0.16547 -2.33508,-4.16785 -2.66666,-4.33332c0.33158,0.16547 -1.00175,-5.83452 -1.33333,-5.99998c0.33158,0.16546 -7.00173,-5.83452 -7.33331,-5.99999c0.33158,0.16547 -6.37667,-8.4178 -6.33331,-8.33331c-0.10585,0.16547 -4.04335,-8.29282 -3.99999,-8.33331c0.01913,0.04049 -2.3142,-7.75113 -2.27084,-7.66664c0.08162,-0.022 -0.43918,-7.41781 -0.39582,-7.33332c0.01913,-0.27195 1.08162,-6.81362 0.99999,-6.66664c-0.10584,0.16546 2.43584,-6.29283 2.66666,-6.33332c-0.10584,-0.08449 3.89415,-4.62617 3.99999,-4.66665c0.01914,-0.14698 3.99824,-2.5012 3.66666,-2.66666c0.33158,0.16546 -4.33507,-0.83453 -4.66665,-1c0.33158,0.16547 -30.00168,-0.5012 -30.33326,-0.66667c0.33158,0.16547 -35.66832,-0.16786 -35.9999,-0.33333c0.33158,0.16547 -51.33494,-1.83453 -51.66652,-1.99999c0.33158,0.16546 -39.33498,0.4988 -39.66656,0.33333c0.33158,0.16547 -31.66833,-0.5012 -31.99991,-0.66667c0.33158,0.16547 -29.00168,-0.83453 -29.33326,-0.99999c0.33158,0.16546 -30.00167,-0.16787 -30.33325,-0.33333c0.33158,0.16546 -28.00167,0.16546 -28.33325,0c0.33158,0.16546 -11.33506,-0.16787 -26.6666,-0.66667c0.33158,0.16547 -36.66832,-1.5012 -36.9999,-1.66666c0.33158,0.16546 -29.66833,-1.16786 -29.99991,-1.33333c0.33158,0.16547 -41.33498,-1.5012 -41.66656,-1.66666c0.33158,0.16546 -36.66831,-1.16787 -36.9999,-1.33333c0.33159,0.16546 -36.33498,-3.16786 -36.66656,-3.33333c0.33158,0.16547 -37.00165,-3.50119 -37.33323,-3.66665c0.33158,0.16546 -29.66834,-2.5012 -29.99992,-2.66666c0.33158,0.16546 -16.33504,-0.5012 -16.66662,-0.66667c0.33158,0.16547 -8.33506,0.16547 -8.66665,0l-8.00172,0.4988z" opacity="NaN" fill="#fff"/>
  <path class="product-shape2 shape" id="svg_4" d="m252.5809,417.91432l1.33508,2.50119l6.66665,1l3.99999,5.33332l0.66666,2.66666l-1.66666,3.99999l-3.99999,1.66666l3.66666,13.99996l-6.99998,-2.99999l-1,-5.99998l-1,-7.66665l-1,-5.66665l-0.66842,-8.83451z" opacity="NaN" fill="#fff"/>
   <path class="product-shape2 shape"  id="svg_19" d="m924.49929,591.63462l-6.97467,-3.83277l-7.64722,-3.92165l-5.29423,-2.94124l-0.19608,-1.76474l0.39217,-2.54907l-1.1765,-2.74516l0,-3.52949l-2.15691,-3.13732l-3.52949,-2.15691l-2.35299,0l-0.19608,-3.72557l-0.58825,-6.07856l-1.1765,-5.09815l-1.1765,-4.31382l-1.37258,-3.13732c0.11177,0.1072 -2.82947,-3.61837 -3.02555,-3.61837c-0.19608,0 -0.39217,-4.11774 -0.50394,-4.22493c0.11177,0.1072 -0.08431,-4.4027 -0.19608,-4.5099c0.11177,0.1072 -0.47647,-5.18703 -0.58825,-5.29423c0.11177,0.1072 0.50394,-3.22621 0.39217,-3.3334c0.11177,0.1072 1.68044,-4.20662 1.56866,-4.31382c0.11177,0.1072 1.68044,-3.61837 1.56866,-3.72557c0.11177,0.1072 1.28827,-2.83404 1.1765,-2.94124c0.11177,0.1072 1.09219,-5.18703 0.98041,-5.29423c0.11177,0.1072 0.70002,-4.79487 0.58825,-4.90207c0.11177,0.1072 5.99425,7.55834 5.88248,7.45114c0.11177,0.1072 7.17075,6.97009 7.05898,6.86289c0.11177,0.1072 8.73941,8.34267 8.62764,8.23547c0.11177,0.1072 9.13158,7.75442 9.0198,7.64722c0.11178,0.1072 7.36683,7.36226 7.25506,7.25506c0.11178,0.1072 8.73941,8.14659 8.62764,8.03939c0.11178,0.1072 7.95508,7.36226 7.84331,7.25506c0.11178,0.1072 7.95508,6.57793 7.84331,6.47073c0.11178,0.1072 -7.33936,7.55834 -7.45114,7.45114c0.11178,0.1072 -6.9472,7.36226 -7.05898,7.25506c0.11178,0.1072 -5.96679,6.77401 -6.07856,6.66681c0.11178,0.1072 -5.96679,6.18576 -6.07856,6.07856c0.11178,0.1072 -2.32836,2.20617 -4.00596,4.42102z" opacity="NaN" fill="#fff"/>
  <path class="product-shape2 shape"  id="svg_21" d="m886.06709,493.59329l-0.30786,5.18703l-0.39217,5.49031l-0.39217,4.5099c0.11177,0.1072 -1.45689,-3.03012 -1.45689,-3.22621c0,-0.19608 -0.98041,-6.66681 -1.09219,-6.77401c0.11177,0.1072 -0.47647,-5.77528 -0.58825,-5.88248c0.11177,0.1072 -0.47647,-3.81446 -0.58825,-3.92165c0.11177,0.1072 2.66085,2.65627 4.81776,4.6171z" opacity="NaN" fill="#fff"/>
  <path class="product-shape2 shape"  id="svg_50" d="m882.83263,544.77121l2.20309,3.38478l1.37476,3.18695l0.24996,2.81202l0.93734,5.2491l-2.99949,-4.81167l-1.49974,-3.87434c0.04653,0.05213 -1.20326,-4.82203 -1.20326,-4.75955c0,0.06249 0.28761,-1.23388 0.93734,-1.1873z" opacity="NaN" fill="#fff"/>
  <path class="product-shape2 shape" id="svg_20" d="m862.145,477.31843l1.84905,41.07016l-1.37258,-0.39217l-2.54907,-2.54907l-2.35299,-2.94124l-2.35299,-3.3334l-1.37258,-2.94124l-1.76474,-4.31382l-1.1765,-3.72557l0,-3.92165l0.19608,-3.92165l0.58825,-3.52949l1.37258,-2.94124l2.35299,-3.13732l2.74516,-1.96083l3.83734,-1.46146z" opacity="NaN" fill="#fff"/>
  <path class="product-shape2 shape" id="svg_44" d="m868.692,522.9016l0.95395,-2.61411c0.04612,0.11393 2.37962,-0.3861 2.37962,-0.3861c0,0 2.50018,0.33336 2.45406,0.21943c0.04612,0.11393 2.5463,1.28068 2.50018,1.16675c0.04612,0.11393 1.7129,1.78072 1.66679,1.66679c0.04612,0.11393 -1.95403,0.61397 -2.00014,0.50004c0.04612,0.11393 -1.12063,3.94754 -1.16675,3.83361c0.04612,0.11393 -3.95417,-2.05289 -6.78771,-4.38639z" opacity="NaN" fill="#fff"/>

  <!--partie3-->
 <path class="product-shape3 shape" id="svg_5" d="m276.58083,395.58105l5.6684,1.83453l10.99997,-0.33333l-1.99999,-6.99998l-0.66666,-7.66665l-3.66666,1.66666l-7.66665,-1.33333l-5.66665,-1l0,5.33332l2.33333,4.33332l0.66491,4.16546z" opacity="NaN" fill="#fff"/>
  <path class="product-shape3 shape"  id="svg_7" d="m302.40812,378.08829l8.6449,-0.37516l3.49966,0.16665l0.3333,1.49985l5.83276,-0.49995l12.99873,-1.83315l12.66543,-1.83315l12.49878,-2.83306l11.16558,-2.33311l2.66641,-0.49995l2.83306,-4.16626c0.02092,0.04186 -3.81204,-0.12479 -3.81204,-0.29144c0,-0.16665 -6.83267,0.49995 -6.85359,0.45809c0.02092,0.04186 -1.81223,1.37507 -1.83315,1.3332c0.02092,0.04186 -5.47854,1.04176 -5.49946,0.9999c0.02092,0.04186 -14.81096,0.87511 -14.83189,0.83325c0.02092,0.04186 -8.81155,0.54181 -8.83247,0.49995c0.02092,0.04186 -9.14485,1.87502 -9.16577,1.83315c0.02092,0.04186 -8.6449,2.87492 -8.81155,2.87492c-0.16665,0 -14.18708,4.20713 -13.49868,4.16626z" opacity="NaN" fill="#fff"/>
  <path class="product-shape3 shape"  id="svg_8" d="m315.2402,386.33748l-1.35412,3.70777l-0.6666,4.16626l0.3333,4.99951l4.83286,0.83325l12.83208,0l19.1648,0.3333l6.99932,0l12.66543,-0.9999l0.16665,-5.99941l1.16655,-6.16607l0.83325,-1.83315c0.02092,0.12519 -2.47883,-2.37457 -2.64548,-2.37457c-0.16665,0 -0.49995,-3.66631 -0.52087,-3.7915c0.02092,0.12519 0.52087,-3.20782 0.49995,-3.33301c0.02092,0.12519 0.85417,-2.04127 0.83325,-2.16646c0.02092,0.12519 -7.3117,2.12499 -7.33262,1.9998c0.02092,0.12519 -6.9784,1.79169 -6.99932,1.6665c0.02092,0.12519 -5.97849,1.62504 -5.99941,1.49985c0.02092,0.12519 -7.47835,1.95834 -7.49927,1.83315c0.02092,0.12519 -5.97849,1.45839 -5.99941,1.3332c0.02092,0.12519 -6.9784,1.29174 -6.99932,1.16655c0.02092,0.12519 -7.81165,1.29174 -7.83257,1.16655c0.02092,0.12519 -4.64529,0.37516 -6.47844,1.95834z" opacity="NaN" fill="#fff"/>
  <path class="product-shape3 shape" id="svg_9" d="m379.40061,375.33856l-2.18738,1.20802l-0.83325,2.33311l0.3333,2.83306l6.49937,0.49995l7.49927,0.16665l6.83267,-0.83325l-0.49995,1.83315l3.33301,-0.49995l6.16607,-2.16646l9.49907,-3.49966l8.83247,-4.16626l6.99932,-3.33301l7.16597,-3.33301l6.33272,-2.99971l3.33301,-1.83315l-8.66582,0.16665l-12.33213,0.49995l-10.16567,0.49995l-3.33301,2.83306l-8.16587,2.33311l-8.33252,1.49985l-6.83267,1.3332l-5.33281,2.33311l-6.14514,2.29164z" opacity="NaN" fill="#fff"/>
  <path class="product-shape3 shape"  id="svg_10" d="m399.56531,390.08712l-2.35403,4.1244l-2.49976,3.49966l-2.33311,4.49956l14.16528,1.16655l8.33252,0.49995l11.49888,1.49985l19.1648,0.49995l5.66611,0.16665l9.83237,-0.6666l4.49956,-0.6666l0.49995,-3.16636l1.9998,-6.49937l2.16646,-3.99961l0.83325,-1.49985l-2.33311,-0.6666l-1.49985,-1.9998l-0.83325,-2.99971l-0.16665,-2.83306l-0.16665,-3.99961l0.16665,-5.16616l0,-3.99961l-0.16665,-3.83296l-0.49995,-1.6665l-5.99941,2.33311l-5.49946,2.49976l-6.49937,2.83306l-7.16597,3.16636l-7.16597,3.66631l-6.83267,3.16636l-6.33272,2.99971l-9.99902,3.66631l-5.83276,2.16646l-4.64529,1.20842z" opacity="NaN" fill="#fff"/>
  <path class="product-shape3 shape" id="svg_11" d="m472.22489,387.25406l-0.85418,-3.70817l-0.49995,-3.66631l0.3333,-5.33281l0.49995,-4.66621l1.16655,-4.16626l1.16655,-2.33311l2.33311,-2.16646l3.99961,-0.49995l6.16607,0.16665l6.49937,0l5.16616,0.49995l3.83296,0.49995l7.83257,0.16665l9.49907,-0.49995l6.16607,-0.16665l4.99951,0.16665l4.66621,-0.49995l7.16597,-0.16665l8.16587,1.3332l2.66641,1.3332l0.6666,1.9998l1.3332,0.9999l5.33281,-0.6666l0.6666,1.16655l-0.6666,3.33301l-0.3333,1.3332l-4.83286,1.9998l-11.33223,3.66631l-7.99922,2.33311l-9.99902,3.16636l-10.33233,3.33301l-8.49917,2.49976l-2.83306,0.9999l-3.66631,0.49995l-2.49976,-0.3333l-0.83325,-1.3332l-2.66641,-0.6666l-5.16616,-0.16665l-5.16616,-0.6666l-6.83267,0.49995l-5.31189,-0.29144z" opacity="NaN" fill="#fff"/>
  <path class="product-shape3 shape"  id="svg_12" d="m490.22313,406.91881l2.64548,-3.87482l2.33311,-2.66641l2.83306,-3.49966l4.16626,0.3333l2.99971,-0.3333l3.99961,-1.49985l7.83257,-2.83306l5.33281,-1.9998l7.16597,-1.3332l6.16607,-1.3332l5.16616,-1.6665l6.49937,-1.6665l7.16597,-2.66641l4.99951,-1.83315l-0.16665,3.49966l0.83325,3.49966l1.3332,4.16626l2.66641,2.99971l3.49966,1.49985l0,4.16626l0.49995,4.33291l-17.16499,1.16655l-14.33194,0.9999l-5.83276,0.3333l-9.16577,0.3333l-17.49829,0.3333l-2.49976,0l-11.47795,-0.45809z" opacity="NaN" fill="#fff"/>
  <path class="product-shape3 shape" id="svg_13" d="m568.88213,389.58717l-2.02073,-2.04167l-0.6666,-2.99971l-0.49995,-3.83296l0.3333,-3.83296l0.3333,-2.16646l6.33272,-1.16655l6.49937,-1.9998l7.16597,-2.16646l6.66602,-2.16646l7.66592,-0.9999l4.99951,-0.9999l4.83286,-0.6666l7.33262,-1.16655l4.66621,-0.6666l5.49946,-0.83325l3.16636,-0.49995l3.99961,-0.49995l7.83257,-0.3333l4.16626,0l4.16626,0.6666l2.83306,0.9999l0.49995,0.9999l3.49966,0.16665l3.49966,-0.3333l2.16646,0.3333l-5.16616,1.83315l-5.66611,2.33311l-8.16587,3.66631l-7.83257,3.66631l-6.99932,2.99971l-7.83257,3.33301l-7.83257,3.16636l-6.99932,2.66641l-4.66621,1.49985l-2.33311,0.16665l-0.6666,-1.9998l-2.66641,0l-4.83286,0.3333l-5.99941,0l-6.99932,0.49995l-4.83286,0.49995l-3.16636,0.6666l-2.31218,0.87512z" opacity="NaN" fill="#fff"/>
  <path class="product-shape3 shape"  id="svg_14" d="m597.04605,405.75226l0.47902,-2.54162l1.6665,-3.16636l2.16646,-2.49976l0.9999,-2.16646l7.83257,-2.49976l7.16597,-2.83306l8.99912,-3.66631l8.99912,-4.16626l7.16597,-3.16636l7.83257,-2.66641l3.66631,-2.16646l6.33272,-2.99971l4.83286,-1.9998l3.99961,-1.16655l2.83306,-0.49995l-0.3333,1.9998l0.16665,3.33301l0.9999,4.16626l2.49976,3.66631l2.49976,3.49966l3.66631,3.33301l4.83286,2.83306l5.33281,1.3332l2.99971,0.3333l-0.16665,4.49956l0.16665,3.83296l0.16665,1.16655c-0.14572,-0.29144 -6.81174,0.37516 -6.81174,0.37516c0,0 -19.1648,1.83315 -19.18573,1.79129c0.02093,0.04186 -17.81066,0.70847 -17.83159,0.6666c0.02093,0.04186 -22.97683,0.54181 -22.99776,0.49995c-0.14572,0.37516 -17.47736,0.70847 -17.49829,0.6666c0.02093,0.04186 -12.14455,0.04186 -13.47775,0.20851z" opacity="NaN" fill="#fff"/>
  <path class="product-shape3 shape"  id="svg_15" d="m678.8714,366.75606l0.14572,3.62445l0.9999,4.49956l3.33301,4.33291l2.83306,2.66641l2.99971,2.16646l5.83276,2.49976c0.02093,0.04186 0.68753,-3.4578 0.68753,-3.4578c0,0 0.9999,-2.49976 0.97897,-2.54162c0.02093,0.04186 1.35413,-1.95794 1.3332,-1.9998c0.02093,0.04186 4.52049,-0.45809 4.49956,-0.49995c0.02093,0.04186 6.5203,-0.29144 6.49937,-0.3333c0.02093,0.04186 6.68695,-0.12479 6.66602,-0.16665c0.02093,0.04186 6.35365,-0.12479 6.33272,-0.16665c0.02093,0.04186 5.68705,0.04186 5.66611,0c0.02093,0.04186 3.85389,-0.12479 3.83296,-0.16665c0.02093,0.04186 1.02083,2.70827 0.9999,2.66641c0.02093,0.04186 4.02054,-0.45809 3.99961,-0.49995c0.02093,0.04186 5.35375,-1.95794 5.33281,-1.9998c0.02093,0.04186 6.8536,-2.79119 6.83267,-2.83306c0.02093,0.04186 7.8535,-3.29115 7.83257,-3.33301c0.02093,0.04186 4.68714,-1.62464 4.66621,-1.6665c0.02093,0.04186 5.8537,-1.62464 5.83276,-1.6665c0.02093,0.04186 7.35355,-2.29124 7.33262,-2.33311c0.02093,0.04186 7.8535,-1.62464 7.83257,-1.6665c0.02093,0.04186 6.8536,-1.45799 6.83267,-1.49985c0.02093,0.04186 8.1868,-1.45799 8.16587,-1.49985c0.02093,0.04186 8.68676,-1.62464 8.66582,-1.6665c0.02093,0.04186 -1.14562,-1.95794 -1.16655,-1.9998c0.02093,0.04186 -2.14552,-0.79139 -2.16646,-0.83325c0.02093,0.04186 -2.97877,1.37507 -2.99971,1.3332c0.02093,0.04186 -2.64547,0.70846 -2.66641,0.6666c0.02093,0.04186 -5.97848,1.20842 -5.99941,1.16655c0.02093,0.04186 -5.31188,0.20851 -5.33281,0.16665c0.02093,0.04186 -2.81212,-0.29144 -2.81212,-0.29144c0,0 -6.49937,0.16665 -6.5203,0.12479c0.02093,0.04186 -7.64499,0.04186 -7.66592,0c0.02093,0.04186 -6.81173,-0.12479 -6.83267,-0.16665c0.02093,0.04186 -4.97858,0.54181 -4.97858,0.54181c0,0 -3.83296,0.83325 -3.85389,0.79139c0.02093,0.04186 -1.47892,1.20842 -1.49985,1.16655c0.02093,0.04186 -4.31198,1.04176 -4.33291,0.9999c0.02093,0.04186 -4.47863,0.37516 -4.49956,0.3333c0.02093,0.04186 -5.31188,0.70846 -5.33281,0.6666c0.02093,0.04186 -3.31208,1.70837 -3.33301,1.6665c0.02093,0.04186 -5.31188,-1.12469 -5.33281,-1.16655c0.02093,0.04186 -7.14504,-0.12479 -7.16597,-0.16665c0.02093,0.04186 -11.14465,0.04186 -11.16558,0c0.02093,0.04186 -9.81144,0.04186 -9.83237,0c0.02093,0.04186 -6.64509,-0.12479 -6.66602,-0.16665c0.02093,0.04186 -4.97858,0.20851 -4.99951,0.16665c0.02093,0.04186 -5.31188,1.04176 -5.33281,0.9999c0.02093,0.04186 -2.14552,0.37516 -4.47863,1.54172z" opacity="NaN" fill="#fff"/>
  <path class="product-shape3 shape"  id="svg_16" d="m733.69939,387.75401l-1.18749,3.4578l-1.6665,2.99971l-1.49985,4.49956l-0.49995,2.99971l0,1.6665l10.33233,0.49995l16.99834,0.49995l21.8312,0.3333l9.66572,0l13.33203,-1.16655l22.33115,-0.9999l16.99834,-1.16655l4.49956,-1.9998l0.9999,-1.3332l-0.49995,-6.33272l-1.3332,-4.49956l-1.16655,-2.49976l-0.49995,-4.99951l-2.33311,0.3333l-2.66641,-0.3333l-3.66631,-0.9999l-4.83286,-2.16646l-5.16616,-2.66641l-4.99951,-2.99971l-3.49966,-2.99971l-3.99961,-2.99971l-3.66631,1.49985l-6.99932,1.49985l-11.16558,1.6665l-9.66572,1.9998l-9.49907,2.49976l-6.66602,1.83315l-6.33272,2.49976l-8.83247,3.33301l-5.16616,2.33311l-5.33281,1.6665l-4.14533,2.04167z" opacity="NaN" fill="#fff"/>
  <path class="product-shape3 shape" id="svg_17" d="m841.52221,375.58853l-3.18729,-0.54181l-3.99961,-1.9998l-4.66621,-2.83306l-3.66631,-3.16636l-3.66631,-2.66641l-2.16646,-1.9998l3.33301,0.16665l7.33262,-0.83325l6.66602,-1.3332l9.16577,-1.6665l10.33233,-1.49985l7.33262,-1.16655l7.99922,-1.3332l7.49927,-1.16655l8.49917,-1.49985l3.99961,-0.49995l8.49917,-1.16655l10.16567,-1.49985l8.16587,-1.83315l5.99941,-0.9999l3.66631,-0.49995l5.49946,0.16665l1.6665,0.3333l-1.6665,1.9998l-4.66621,3.33301l-5.49946,3.33301l-6.49937,3.66631l-6.16607,2.83306l-8.16587,3.66631l-5.33281,2.83306l-7.16597,2.83306l-5.83276,1.3332l-1.49985,-0.16665l0.16665,-2.16646l-2.16646,-0.83325l-5.49946,0.49995l-7.66592,-0.3333l-7.16597,0l-7.83257,0.16665l-7.16597,0.6666l-3.16636,0l-1.16655,2.83306l-0.31237,3.04157z" opacity="NaN" fill="#fff"/>
  <path class="product-shape3 shape"  id="svg_18" d="m884.68466,381.088l-0.85419,3.12449l-2.16646,2.49976l0.49995,4.49956l1.49985,5.83276l12.49878,-1.16655l12.83208,-1.16655l13.66533,-1.16655l7.83257,-0.49995l12.66543,0l2.99971,0.3333l3.33301,1.9998l5.33281,0.3333l5.33281,0l0.9999,2.66641l3.83296,1.83315l3.83296,0.49995l1.6665,2.16646l2.16646,4.99951l6.49937,7.16597l2.49976,2.33311l4.66621,2.99971l0.16665,2.33311l1.3332,6.49937l2.16646,4.16626l2.83306,9.66572l2.83306,8.49917l2.16646,9.66572l2.66641,11.66553l2.16646,8.16587l1.49985,10.16567l0.83325,7.33262l-0.16665,5.83276l-0.49995,4.33291l-2.83306,3.49966l-2.16646,3.83296l-2.99971,3.33301l-3.99961,4.83286l-1.9998,1.49985l-1.9998,3.33301l-0.9999,3.16636l-3.66631,4.49956l-4.99951,5.66611l-5.83276,7.33262l-4.49956,4.99951l-4.66621,5.16616l-1.16655,1.6665l-2.83306,-0.16665l-4.49956,-1.83315l-4.33291,4.49956l-3.33301,3.49966l8.33252,3.33301l8.99912,3.33301l5.33281,1.16655l3.66631,-0.49995l5.16616,-3.33301l7.16597,-5.33281l5.16616,-3.49966l3.33301,-2.66641l5.33281,-6.16607l1.49985,-2.66641l5.49946,-4.99951l12.49878,-13.16538l6.16607,-7.49927l5.99941,-8.83247l12.83208,-20.1647l5.83276,-11.16558l3.49966,-7.66592l2.66641,-7.16597l2.83306,-10.16567l1.83315,-8.33252l0.9999,-5.66611l0.83325,-10.99893l0.3333,-6.99932c0.02094,0.04186 -0.47901,-4.95765 -0.47901,-4.95765c0,0 -1.6665,-7.83257 -1.68745,-7.87443c0.02094,0.04186 -2.47882,-7.62406 -2.49976,-7.66592c0.02094,0.04186 -2.14551,-6.29085 -2.16646,-6.33272c0.02094,0.04186 -0.47901,-3.95775 -0.47901,-3.95775c0,0 -2.66641,-3.83296 -2.68735,-3.87482c0.02094,0.04186 -2.97877,-4.4577 -2.99971,-4.49956c0.02094,0.04186 -9.14483,-9.45721 -9.16577,-9.49907c0.02094,0.04186 -8.64488,-6.7908 -8.66582,-6.83267c0.02094,0.04186 -9.81143,-8.29066 -9.83237,-8.33252c0.02094,0.04186 -4.97857,-3.29115 -4.99951,-3.33301c0.02094,0.04186 -6.31178,-3.62445 -6.33272,-3.66631c0.02094,0.04186 -9.31148,-4.791 -9.33242,-4.83286c0.02094,0.04186 -7.64498,-3.62445 -7.66592,-3.66631c0.02094,0.04186 -7.31168,-2.95785 -7.33262,-2.99971c0.02094,0.04186 -4.97857,-1.12469 -4.99951,-1.16655c0.02094,0.04186 -5.97848,1.37507 -5.99941,1.3332c0.02094,0.04186 -10.31139,0.37516 -10.33233,0.3333c0.02094,0.04186 -13.47775,0.37516 -13.49868,0.3333c0.02094,0.04186 -5.64518,-0.62474 -5.66611,-0.6666c0.02094,0.04186 -1.31227,2.20832 -1.3332,2.16646c0.02094,0.04186 -2.47882,2.87492 -2.49976,2.83306c0.02094,0.04186 -3.14542,3.37487 -3.16636,3.33301c0.02094,0.04186 -4.31197,2.70827 -4.33291,2.66641c0.02094,0.04186 -4.14532,2.70827 -4.16626,2.66641c0.02094,0.04186 -5.14523,2.87492 -5.16616,2.83306c0.02094,0.04186 -7.47833,3.70817 -7.49927,3.66631c0.02094,0.04186 -6.31178,3.20822 -6.33272,3.16636c0.02094,0.04186 -6.31178,3.04157 -6.33272,2.99971c0.02094,0.04186 -4.64527,2.54162 -4.66621,2.49976c0.02094,0.04186 -5.64518,2.04167 -5.66611,1.9998c0.02094,0.04186 -4.47862,1.37507 -4.49956,1.3332c0.02094,0.04186 -5.64518,2.04167 -6.14513,2.70827z" opacity="NaN" fill="#fff"/>
  
  <!--partie4-->
  <path class="product-shape4 shape"  id="svg_22" d="m836.58305,440.37628l4.23251,-0.90738l9.99929,-1.24991l1.99986,-0.49997l2.37483,-0.12499l10.87423,-2.12485l1.87487,-0.37497l4.62467,-0.12499l17.49876,-0.74995l13.37406,-0.99993l13.12407,-0.62496l8.87437,-0.37497l18.74867,-0.74995l10.12429,-0.37497l17.12379,0l18.74867,2.12485l5.99958,20.37356l3.12478,14.37398l3.12478,11.99915l2.49982,18.12372l-0.12499,6.12457l-0.49997,4.62467l-2.37483,2.74981l-1.12492,1.99986l-1.3749,2.12485l-5.12464,6.12456l-1.99986,2.37483l-1.87487,1.24992l-1.74987,3.12477l-1.37491,3.49976l-8.74938,10.37426l-5.74959,7.1245l-8.99936,9.99929l-1.37491,1.87487l-2.62481,-0.12499l-4.49968,-1.74988l-5.49961,-4.2497l-14.49898,-13.24906l-7.24948,-6.87451l-4.2497,-4.37469l-7.1245,-5.99958l-4.74966,-4.2497l-12.87409,-12.37412l-5.99958,-7.62446l-7.24949,-7.24949l-4.49968,-4.2497l0.15624,1.71863l-2.59356,-2.53107l-2.18735,-2.31234l-5.49961,-5.6246l-3.12478,-3.87473l-2.12485,-4.74966l-2.8748,-2.74981l-2.24984,-0.87494l-6.87451,-7.99943l-5.37462,-6.24956l-4.2497,-4.2497l-4.37469,-4.12471l-3.35757,-5.09219z" opacity="NaN" fill="#fff"/>
  
    
  <!--elastic1-->
  <path class="elastic1 shape"  id="svg_23" d="m880.82991,381.25545l-0.51716,-4.28214l0.62496,-3.24977l1.3749,-1.74988l1.24991,-0.24998l1.49989,0.12499l5.37462,-1.12492l7.74945,-3.12478l3.37476,-1.87487l8.74938,-3.99972l7.24949,-3.24977l6.24956,-3.62474l5.74959,-3.37476l4.49968,-3.37476l2.12485,-2.12485l-1.49989,-0.24998l-5.74959,-0.12499l-2.99979,0.49996l-0.87494,-1.74988l-0.49996,-3.87473l0.62496,-2.62481c0.01719,0.03244 1.64208,-0.8425 1.64208,-0.8425c0,0 1.74988,-0.37497 1.73269,-0.40741c0.01719,0.03244 2.51701,0.15743 2.49982,0.12499c0.01719,0.03244 3.26696,0.28242 3.24977,0.24998c0.01719,0.03244 3.14197,0.40741 3.12478,0.37497c0.01719,0.03244 3.64193,0.5324 3.62474,0.49996c0.01719,0.03244 2.51701,1.28235 2.49982,1.24991c0.01719,0.03244 1.51708,2.0323 1.49989,1.99986c0.01719,0.03244 1.01712,2.65725 0.99993,2.62481c0.01719,0.03244 0.39216,2.40727 0.37497,2.37483c0.01719,0.03244 -0.85775,1.78231 -0.87494,1.74988c0.01719,0.03244 -5.98238,6.65697 -5.99958,6.62453c0.01719,0.03244 -4.3575,2.78224 -4.37469,2.74981c0.01719,0.03244 -4.73247,3.03223 -4.74966,2.99979c0.01719,0.03244 -6.23237,3.4072 -6.24956,3.37476c0.01719,0.03244 -5.7324,2.65725 -5.74959,2.62481c0.01719,0.03244 -5.48242,2.78224 -5.49961,2.74981c-0.1078,0.28242 -6.98231,3.4072 -6.9995,3.37476c0.01719,0.28242 -5.10745,2.78224 -5.12464,2.74981c0.01719,0.03244 -6.85732,2.40727 -6.87451,2.37483c0.01719,0.03244 -3.10759,0.90738 -3.12478,0.87494c0.01719,0.03244 -5.98238,2.53226 -5.99958,2.49982c0.01719,0.03244 -1.73269,1.21985 -3.98253,0.40741z" opacity="NaN" fill="#fff"/>
  <path class="elastic1 shape"  id="svg_24" d="m889.20433,351.88253l-9.51652,1.59245l-19.12365,3.12478l-11.62418,1.74988l-11.49919,1.99985l-6.74952,1.37491l-6.62453,0.74994l-3.74973,-0.12499l3.49975,3.12478l2.49982,1.74988l3.12478,2.7498l5.37462,3.37477l3.49975,1.62488l3.24977,0.62496c0.01719,0.03243 0.76714,0.90737 0.76714,0.90737c0,0 0.24998,1.74988 0.23279,1.71744c0.01719,0.03244 0.01719,1.53233 0,1.49989c0.01719,0.03244 -2.60762,0.28243 -2.62481,0.24999c0.01719,0.03244 -2.23265,-0.21755 -2.24984,-0.24999c0.01719,0.03244 -3.73255,-0.96749 -3.74974,-0.99993c0.01719,0.03244 -5.85739,-2.46738 -5.87458,-2.49982c0.01719,0.03244 -3.98253,-2.09241 -3.99972,-2.12485c0.01719,0.03244 -4.85746,-2.84236 -4.87465,-2.87479c0.01719,0.03243 -3.48257,-2.96735 -3.49976,-2.99979c0.01719,0.03244 -4.73247,-3.46732 -4.74966,-3.49975c0.01719,0.03243 -3.23258,1.53233 -3.24977,1.49989c0.01719,0.03244 -7.35729,1.65732 -7.37448,1.62488c0.01719,0.03244 -9.73212,1.53234 -9.74931,1.4999c0.01719,0.03244 -8.48221,1.65732 -8.4994,1.62488c0.01719,0.03244 -3.48256,0.90738 -3.49975,0.87494c0.01719,0.03244 -8.48221,2.15729 -8.4994,2.12485c0.01719,0.03244 -6.60734,1.90731 -6.62453,1.87487c0.01719,0.03244 -13.73184,5.40706 -13.74903,5.37462c0.01719,0.03244 -6.23237,2.65725 -6.24956,2.62481c0.01719,0.03244 -5.23244,1.78232 -5.24963,1.74988c0.01719,0.03244 -4.60748,2.15729 -4.62467,2.12485c0.01719,0.03244 -1.4827,0.78238 -1.49989,0.74995c0.01719,0.03243 -2.73262,0.65739 -2.74981,0.62495c0.01719,0.03244 -1.73268,-0.46752 -1.74987,-0.49996c0.01719,0.03244 -0.2328,-2.59238 -0.24999,-2.62482c0.01719,0.03244 0.39217,-2.96735 0.37498,-2.99979c0.01719,0.03244 1.51708,-2.59237 1.49989,-2.62481c0.01719,0.03244 1.64208,-0.59252 1.99986,-0.74995c-0.0539,0.01622 1.48153,-0.06941 1.40342,0.21181c-0.07811,0.28122 3.8548,-0.44557 3.84621,-0.46179c0.01719,0.03244 6.39174,-2.2174 6.37455,-2.24984c0.01719,0.03244 11.51637,-4.96721 11.49918,-4.99965c0.01719,0.03244 1.76707,-0.7175 1.74988,-0.74994c0.01719,0.03244 5.01684,-1.59245 4.99965,-1.62489c0.01719,0.03244 13.14126,-4.09227 13.12407,-4.12471c0.01719,0.03244 14.39117,-3.09234 14.37398,-3.12478c0.01719,0.03244 17.51595,-3.21733 17.49876,-3.24977c-0.23279,0.15743 -1.35771,-2.09241 -1.3749,-2.12485c0.01719,0.03244 -2.35764,-0.59251 -2.37483,-0.62495c0.01719,0.03244 -2.60762,1.15736 -2.62482,1.12492c0.0172,0.03244 -8.60719,2.0323 -8.62439,1.99986c0.0172,0.03244 -6.10737,0.15743 -6.12456,0.12499c0.01719,0.03244 -1.73269,-0.21755 -1.74988,-0.24998c0.01719,0.03243 0.01719,-1.71744 0,-1.74988c0.01719,0.03244 1.76707,-1.71744 1.74988,-1.74988c0.01719,0.03244 2.26703,0.03244 2.24984,0c0.01719,0.03244 2.14204,0.28242 2.12485,0.24999c0.01719,0.03243 3.14197,-0.59252 3.12478,-0.62496c0.01719,0.03244 3.76692,-1.21747 3.74973,-1.24991c0.01719,0.03244 3.14197,-1.71744 3.12478,-1.74988c0.01719,0.03244 2.26703,-1.84243 2.24984,-1.87486c0.01719,0.03243 2.51702,-1.09249 2.49983,-1.12493c0.01719,0.03244 2.89198,0.15743 2.87479,0.125c0.01719,0.03243 2.14204,1.40734 2.12485,1.3749c0.01719,0.03244 2.14204,1.9073 2.12485,1.87487c0.01719,0.03243 2.01705,2.15728 1.99986,2.12485c0.01719,0.03243 1.14211,1.53233 1.12492,1.49989c0.01719,0.03244 3.89192,-0.59252 3.87473,-0.62496c0.01719,0.03244 4.51687,-1.09248 4.49968,-1.12492c0.01719,0.03244 9.26653,-1.84243 9.24934,-1.87486c0.01719,0.03243 7.14169,-0.96749 7.14169,-1.09249c0,-0.12499 6.74952,-1.24991 6.73233,-1.28235c0.01719,0.03244 7.89164,-1.21747 7.87445,-1.24991c0.01719,0.03244 7.89163,-1.34246 7.87444,-1.3749c0.01719,0.03244 8.14161,-1.09248 8.12442,-1.12492c0.01719,0.03244 6.01677,-0.96749 5.99958,-0.99993c0.01719,0.03244 5.89177,-0.96749 5.87458,-0.99993c0.01719,0.03244 6.64173,-1.09248 6.64173,-1.09248c0,0 0.87493,2.8748 0.87493,2.8748c0,0 0.24999,2.49982 0.24999,2.49982c0,0 0,1.99986 -0.12499,2.7498z" opacity="NaN" fill="#fff"/>
  <path class="elastic1 shape"  id="svg_25" d="m752.46399,357.38214l0.60777,3.34232l-1.74988,1.24991l-4.99965,0.99993l-3.24977,0.12499l-5.87458,0.74995l-3.49975,1.74988l-5.12464,-1.24991l-6.87451,-0.12499l-11.3742,0l-10.99922,0l-7.1245,-0.24998l-3.49975,0.24998l-5.12464,0.87494l-4.49968,1.3749l-0.12499,3.24977l0.99993,5.12464l3.49975,4.37469l2.8748,2.74981l2.8748,1.99986l6.12457,2.74981l0.24998,2.12485l0,2.12485l-0.12499,1.3749l-3.37476,-0.62496l-5.6246,-1.3749l-4.74966,-2.62481l-3.62474,-3.24977l-5.12464,-7.24949l-0.99993,-4.12471l-0.24998,-3.37476l0.37497,-2.24984l-3.12478,0.49996l-3.24977,1.12492l-4.99965,1.87487l-6.62453,3.12478l-3.37476,2.12485l-8.12443,2.74981l-15.99887,7.24949l-15.99887,6.49954l-8.12443,2.62481l-0.99993,1.99986l-2.62481,-0.12499l-3.12478,0l-0.74995,-1.99986l0.49996,-2.99979l1.12492,-1.99986l1.74988,-1.24991l1.12492,-0.62496l0.99993,0.49996l2.24984,-0.24998l4.49968,-1.49989l10.87423,-4.2497l18.87367,-7.99943l14.37398,-6.62453l6.87451,-2.8748l5.6246,-1.99986l-2.24984,-0.37497l-3.49975,0.37497l-3.37476,-0.12499l-0.49996,-0.99993l-1.3749,-0.37497l0.74995,-1.99986l2.49982,-1.12492c0.01719,0.03244 2.767,-0.96749 2.767,-0.96749c0,0 3.24977,-0.37497 3.23258,-0.40741c0.01719,0.03244 4.89185,-0.09255 4.89185,-0.21754c0,-0.12499 3.24977,0.49996 3.23258,0.46753c0.01719,0.03244 2.39202,1.28235 2.37483,1.24991c0.01719,0.03244 3.39195,0.28242 3.37476,0.24998c0.01719,0.03244 4.26689,-0.34253 4.2497,-0.37497c0.01719,0.03244 3.39195,-1.09248 3.37476,-1.12492c0.01719,0.03244 5.76678,-0.59252 5.74959,-0.62496c0.01719,0.03244 7.76664,0.15743 7.74945,0.12499c0.01719,0.03244 10.51645,-0.46753 10.49926,-0.49996c0.01719,0.03244 7.89163,0.03244 7.87444,0c0.01719,0.03244 7.51666,0.28242 7.49947,0.24998c0.01719,0.03244 7.76664,0.15743 7.74945,0.12499c0.01719,0.03244 7.0167,0.40741 6.9995,0.37497c0.01719,0.03244 8.01662,0.28242 7.99943,0.24998c0.01719,0.03244 4.76685,0.15743 4.74966,0.12499c0.01719,0.03244 1.2671,-0.09255 2.01705,-0.34253z" opacity="NaN" fill="#fff"/>
  <path class="elastic1 shape"  id="svg_26" d="m628.47276,359.50699l-8.01662,0.21754l-8.24942,-0.24998l-8.62439,0c0.01719,0.03244 -5.7324,0.40741 -5.7324,0.40741c0,0 -5.99958,1.24991 -6.01677,1.21747c0.01719,0.03244 -6.48235,1.78231 -6.49954,1.74988c0.01719,0.03244 -5.23244,1.40734 -5.24963,1.3749c0.01719,0.03244 -4.60748,1.15736 -4.62467,1.12492c0.01719,0.03244 -4.3575,1.03237 -4.3575,1.03237c0,0 -2.12485,-0.24998 -2.14204,-0.28242c0.01719,0.03244 0.01719,-2.34239 0,-2.37483c0.01719,0.03244 0.14218,-2.71737 0.12499,-2.74981c0.01719,0.03244 -1.10773,-1.71744 -1.10773,-1.71744c0,0 -2.99979,-1.12492 -3.01698,-1.15736c0.01719,0.03244 -3.85754,0.90738 -3.87473,0.87494c0.01719,0.03244 -3.60755,0.40741 -3.62474,0.37497c0.01719,0.03244 -1.4827,0.90738 -1.4827,1.03237c0,0.12499 -2.12485,2.12485 -2.12485,2.12485c0,0 -0.49996,1.12492 -0.51715,1.09248c0.01719,0.03244 0.26717,1.78231 0.24998,1.74988c0.01719,0.03244 1.76707,1.28235 1.74988,1.24991c0.01719,0.03244 5.39181,-0.71751 5.37462,-0.74995c0.01719,0.03244 0.51715,1.15736 0.49996,1.12492c0.01719,0.03244 -0.98274,4.65711 -0.99993,4.62467c0.01719,0.03244 -4.3575,2.0323 -4.37469,1.99986c0.01719,0.03244 -20.48136,6.282 -20.49855,6.24956c0.01719,0.03244 -20.23138,6.53198 -20.24857,6.49954c0.01719,0.03244 -8.85718,2.65725 -8.87437,2.62481c0.01719,0.03244 -1.85768,0.65739 -1.87487,0.62496c0.01719,0.03244 -3.98253,0.65739 -3.99972,0.62496c0.01719,0.03244 -2.10766,-0.21754 -2.12485,-0.24998c0.01719,0.03244 -0.60777,-1.21747 -0.62496,-1.24991c0.01719,0.03244 -2.48263,0.5324 -2.49982,0.49996c0.01719,0.03244 -1.98267,0.5324 -1.98267,0.5324c0,0 -2.24984,2.12485 -2.26703,2.09241c0.01719,0.03244 -1.10773,2.15729 -1.10773,2.15729c0,0 -0.37497,1.74988 -0.39216,1.71744c0.01719,0.03244 1.14211,1.65732 1.12492,1.62489c0.01719,0.03244 2.26703,0.65739 2.24984,0.62496c0.01719,0.03244 3.01698,-0.46753 2.99979,-0.49996c0.01719,0.03244 2.39202,-0.59252 2.37483,-0.62496c0.01719,0.03244 3.89192,0.28242 3.87473,0.24998c0.01719,0.03244 3.39195,-0.21754 3.37476,-0.24998c0.01719,0.03244 16.891,-6.21712 16.87381,-6.24956c0.01719,0.03244 13.39124,-2.59238 13.37405,-2.62481c0.01719,0.03244 5.64179,-1.96742 5.6246,-1.99986c0.01719,0.03244 6.26675,-1.46746 6.24956,-1.49989c0.01719,0.03244 12.39131,-4.46724 12.37412,-4.49968c-0.35778,0.15743 -0.48277,3.4072 -0.49996,3.37476c0.01719,0.03244 0.76714,3.53219 0.74995,3.49975c0.01719,0.03244 1.51708,4.53212 1.49989,4.49968c0.01719,0.03244 2.642,2.90724 2.62481,2.8748c0.01719,0.03244 4.26689,1.78231 4.2497,1.74988c0.01719,0.03244 0.26717,-1.71744 0.24998,-1.74988c0.01719,0.03244 0.64215,-2.09241 0.62496,-2.12485c0.01719,0.03244 1.76707,-3.21733 1.74988,-3.24977c0.01719,0.03244 -2.10766,0.78239 -2.12485,0.74995c0.01719,0.03244 -1.98267,-1.96742 -1.99986,-1.99986c0.01719,0.03244 -0.73276,-2.84236 -0.74995,-2.8748c0.01719,0.03244 -0.48277,-3.96728 -0.49996,-3.99972c0.01719,0.03244 0.39216,-5.71715 0.49996,-5.99958c0.01719,0.15743 6.76671,-1.21747 6.74952,-1.24991c0.01719,0.03244 19.89078,-6.21712 19.87359,-6.24956c0.01719,0.03244 8.26661,-1.09248 8.24942,-1.12492c0.01719,0.03244 4.01691,-0.8425 3.99972,-0.87494c0.01719,0.03244 23.26555,-3.34232 23.24836,-3.37476c0.01719,0.03244 0.89213,-1.09248 0.14218,-2.34239z" opacity="NaN" fill="#fff"/>
  <path class="elastic1 shape"  id="svg_27" d="m530.85467,361.63184l-5.76678,-0.28242l-9.12435,0.37497l-5.74959,0.37497l-8.24942,-0.24998l-8.4994,-0.99993l-8.37441,0l-5.12464,-0.12499l-3.74973,0.49996l-1.99986,1.99986l-1.3749,2.49982l-1.12492,3.87473l-0.87494,10.24928l0.49996,4.12471l1.12492,4.2497l-1.3749,1.49989l-2.62481,-0.99993l-1.12492,-1.87487l-0.87494,-2.62481l-0.49996,-6.87451l0.24998,-8.24942l-0.12499,-4.99965l-0.49996,-1.74988c0.01719,0.03244 -5.7324,2.0323 -6.60734,2.53226c-0.87494,0.49996 -18.49869,8.24942 -18.51588,8.21698c0.01719,0.03244 -7.10731,3.65718 -7.1245,3.62474c0.01719,0.03244 -13.10688,6.15701 -13.12407,6.12457c0.01719,0.03244 -12.73191,4.7821 -12.7491,4.74966c0.01719,0.03244 -3.35757,1.28235 -3.37476,1.24991c0.01719,0.03244 -4.48249,1.15736 -4.49968,1.12492c0.01719,0.03244 -2.48263,0.90738 -2.48263,0.90738c0,0 -2.8748,0.12499 -2.89199,0.09255c0.01719,0.03244 -2.10766,-0.46753 -2.12485,-0.49996c0.01719,0.03244 -0.48277,-1.96742 -0.48277,-1.96742c0,0 0.99993,-2.62481 0.98274,-2.65725c0.01719,0.03244 1.76707,-2.2174 1.74988,-2.24984c0.01719,0.03244 3.14197,-1.46746 3.12478,-1.49989c0.01719,0.03244 -0.23279,1.15736 -0.24998,1.12492c0.01719,0.03244 3.39195,-0.34253 3.37476,-0.37497c0.01719,0.03244 15.01613,-5.46717 14.99894,-5.49961c0.01719,0.03244 30.64002,-14.34154 30.62283,-14.37398c0.01719,0.03244 2.51701,-1.46746 2.49982,-1.49989c0.01719,0.03244 6.14176,-2.84236 6.12457,-2.8748c0.01719,0.03244 10.39146,-2.96735 10.37427,-2.99979c0.01719,0.03244 7.26668,-1.21747 7.24949,-1.24991c0.01719,0.03244 7.39167,-0.59252 7.37448,-0.62496c0.01719,0.03244 9.7665,0.40741 9.74931,0.37497c0.01719,0.03244 9.51652,0.65739 9.49933,0.62496c0.01719,0.03244 8.26661,1.40734 8.24942,1.3749c0.01719,0.03244 9.51652,1.78231 9.49933,1.74988c0.01719,0.03244 6.01677,1.65732 5.99958,1.62489c0.01719,0.03244 6.01677,0.78239 5.99958,0.74995c0.01719,0.03244 1.76707,0.03244 2.01705,1.40734z" opacity="NaN" fill="#fff"/>
  <path class="elastic1 shape"  id="svg_28" d="m417.73767,362.50678l-3.39195,2.96735l-8.62439,2.49982l-14.74896,2.74981l-5.6246,2.37483l-5.74959,2.12485c0.01719,0.03244 -2.35764,1.40734 -2.35764,1.28235c0,-0.12499 -0.74995,1.99986 -0.76714,1.96742c0.01719,0.03244 0.26717,3.53219 0.24998,3.49975c0.01719,0.03244 -1.4827,0.78239 -1.49989,0.74995c0.01719,0.03244 -1.10773,0.90738 -1.12492,0.87494c0.01719,0.03244 -1.73269,1.90731 -1.74988,1.87487c0.01719,0.03244 -2.60762,-2.34239 -2.62481,-2.37483c-0.35778,0.28242 -0.73276,-3.59231 -0.74995,-3.62474c0.01719,0.03244 0.64215,-3.59231 0.62496,-3.62474c0.01719,0.03244 0.89213,-2.34239 0.87494,-2.37483c0.14218,0.40741 -6.98232,2.15729 -6.9995,2.12485c0.01719,0.03244 -6.98232,1.78231 -6.9995,1.74988c0.01719,0.03244 -5.85739,1.40734 -5.87458,1.3749c0.01719,0.03244 -7.10731,1.90731 -7.1245,1.87487c0.01719,0.03244 -6.85732,1.53233 -6.87451,1.49989c0.01719,0.03244 -6.98232,1.28235 -6.9995,1.24991c0.01719,0.03244 -8.35722,1.15736 -8.37441,1.12492c-0.1078,-0.21754 -3.23258,0.65739 -3.24977,0.62496c-0.23279,-0.34253 -2.73262,1.15736 -2.74981,1.12492c0.01719,0.03244 -1.85768,0.90738 -1.87487,0.87494c0.01719,0.03244 -3.23258,0.28242 -3.23258,0.28242c0,0 -1.74988,-0.62496 -1.76707,-0.65739c0.01719,0.03244 -0.48277,-2.71737 -0.48277,-2.71737c0,0 0.37497,-2.24984 0.49996,-2.37483c0.12499,-0.12499 1.24991,-1.62489 1.23272,-1.65732c0.01719,0.03244 2.01705,-0.71751 1.99986,-0.74995c0.01719,0.03244 1.76707,0.15743 1.74988,0.12499c0.01719,0.03244 3.64193,-0.09255 3.62474,-0.12499c0.01719,0.03244 7.39167,-0.8425 7.37448,-0.87494c0.01719,0.03244 12.6413,-1.71744 12.62411,-1.74988c0.01719,0.03244 9.26654,-1.34246 9.24935,-1.3749c0.01719,0.03244 9.64151,-2.09241 9.62432,-2.12485c0.01719,0.03244 10.14147,-2.2174 10.12428,-2.24984c0.01719,0.03244 6.64172,-1.21747 6.62453,-1.24991c0.01719,0.03244 3.01698,-4.21726 2.99979,-4.2497c0.01719,0.03244 1.01712,-1.46746 0.99993,-1.49989c0.01719,0.03244 2.89199,-2.09241 2.8748,-2.12485c0.01719,0.03244 3.26696,-1.71744 3.24977,-1.74988c0.01719,0.03244 3.39195,-0.21754 3.51694,-0.21754c0.12499,0 3.12478,-0.24998 3.12478,-0.24998c0,0 1.74988,0.74995 1.73269,0.71751c0.01719,0.03244 1.2671,1.03237 1.24991,0.99993c0.01719,0.03244 1.89206,2.40727 1.89206,2.40727c0,0 5.99958,-0.37497 5.99958,-0.37497c0,0 7.37448,-0.37497 7.35729,-0.40741c0.01719,0.03244 6.01677,-0.34253 5.99958,-0.37497c0.01719,0.03244 2.14204,0.15743 4.1419,0.03244z" opacity="NaN" fill="#fff"/>
  <path class="elastic1 shape"  id="svg_29" d="m363.74149,363.38172l-8.3916,0.09255l-10.74924,-0.12499l-9.37434,-0.12499c0.01719,0.03244 -3.73255,0.28242 -3.85754,0.28242c-0.12499,0 -6.62453,1.24991 -6.64172,1.21747c0.01719,0.03244 -8.10724,1.65732 -8.12443,1.62489c0.01719,0.03244 -8.48221,2.53226 -8.4994,2.49982c0.01719,0.03244 -8.48221,2.65725 -8.4994,2.62481c0.01719,0.03244 -7.48228,2.65725 -7.49947,2.62481c0.01719,0.03244 -4.3575,1.90731 -4.37469,1.87487c0.01719,0.03244 -6.35736,0.03244 -6.37455,0c0.01719,0.03244 -4.73247,-0.8425 -4.74966,-0.87494c0.01719,0.03244 -3.73255,-0.34253 -3.73255,-0.34253c0,0 -2.24984,0.74995 -2.37483,0.74995c-0.12499,0 -0.74995,2.24984 -0.76714,2.2174c0.01719,0.03244 0.39216,2.28228 0.37497,2.24984c0.01719,0.03244 1.01712,2.0323 1.01712,2.0323c0,0 2.49982,-0.12499 2.48263,-0.15743c0.01719,0.03244 13.51623,2.28228 13.49905,2.24984c0.01719,0.03244 3.51694,-1.71744 3.49975,-1.74988c0.01719,0.03244 1.39209,-0.46753 1.2671,-0.46753c-0.12499,0 0.37497,-2.49982 0.35778,-2.53226c0.01719,0.03244 1.39209,-1.34246 1.3749,-1.3749c0.01719,0.03244 2.51701,0.28242 2.49982,0.24998c0.01719,0.03244 6.39174,-0.09255 6.37455,-0.12499c0.01719,-0.21754 17.26597,-5.34218 17.24878,-5.37462c0.01719,0.03244 4.76685,-1.59245 4.74966,-1.62489c0.01719,0.03244 9.14154,-1.84243 9.12435,-1.87487c0.01719,0.03244 11.26639,-0.59252 11.2492,-0.62496c0.01719,0.03244 12.6413,-0.71751 12.62411,-0.74995c0.01719,0.03244 5.39181,-0.8425 5.37462,-0.87494c0.01719,0.03244 2.01705,-1.21747 1.99986,-1.24991c0.01719,0.03244 0.01719,-1.34246 -1.10773,-2.34239z" opacity="NaN" fill="#fff"/>
  <path class="elastic1 shape"  id="svg_30" d="m258.64805,379.4746l-2.54629,-0.19727l-4.00029,1.66679l-8.16725,3.66693l-10.33408,5.16704l-8.66729,4.667c0.04611,0.03059 -14.62161,8.19785 -14.62161,8.19785c0,0 -11.83419,7.16718 -11.88029,7.13659c0.04611,0.03059 -13.78822,8.69788 -13.83433,8.66729c0.04611,0.03059 -11.78808,7.86449 -11.83419,7.8339c0.04611,0.03059 -15.95505,12.19813 -16.00115,12.16754c0.04611,0.03059 -12.12144,9.19792 -12.16754,9.16733c0.04611,0.03059 -13.62154,11.03138 -13.66765,11.00079c0.04611,0.03059 -10.28797,8.86456 -10.33408,8.83397c0.04611,0.03059 -5.12093,4.03088 -5.16704,4.00029c0.04611,0.03059 -4.6209,2.53077 -4.667,2.50018c0.04611,0.03059 -8.62118,2.86413 -8.66729,2.83354c0.04611,0.03059 -5.45429,2.19741 -14.8344,6.50047c0.04611,0.03059 -11.95476,4.53092 -12.00086,4.50032c0.04611,0.03059 -10.62133,3.8642 -10.66743,3.83361c0.04611,0.03059 -7.45443,1.5307 -7.50054,1.50011c0.04611,0.03059 3.213,1.69738 3.16689,1.66679c0.04611,0.03059 5.21314,1.19734 5.16704,1.16675c0.04611,0.03059 4.54643,0.69731 4.50032,0.66671c0.04611,0.03059 8.04668,-2.96962 8.00058,-3.00022c0.04611,0.03059 9.21343,-3.30298 9.16733,-3.33357c0.04611,0.03059 8.04668,-3.30298 8.00058,-3.33357c0.04611,0.03059 5.04647,-2.80295 5.00036,-2.83354c0.04611,0.03059 -1.95404,2.53077 -2.00014,2.50018c0.04611,0.03059 -4.95425,4.03088 -5.00036,4.00029c0.04611,0.03059 -4.6209,5.19763 -4.667,5.16704c0.04611,0.03059 -5.28761,6.36438 -5.33372,6.33379c0.04611,0.03059 -5.78765,5.69767 -5.83375,5.66707c0.04611,0.03059 -5.95433,6.69774 -6.00043,6.66715c0.04611,0.03059 -8.62118,10.19799 -8.66729,10.1674c0.04611,0.03059 -7.12108,10.03131 -7.16718,10.00072c0.04611,0.03059 -6.78772,9.3646 -6.62104,9.3646c0.16668,0 -5.66707,9.33401 -5.71318,9.30341c0.04611,0.03059 -5.95433,9.19792 -5.95433,9.3646c0,0.16668 -6.50047,10.50076 -6.54657,10.47016c0.04611,0.03059 -2.62075,5.86435 -2.66686,5.83375c0.04611,0.03059 -1.78736,6.03103 -1.83347,6.00043c0.04611,0.03059 -0.78729,4.19756 -0.83339,4.16697c0.04611,0.03059 0.04611,4.53092 0,4.50032c0.04611,0.03059 1.54621,5.53099 1.50011,5.5004c0.04611,0.03059 2.71296,5.36431 2.66686,5.33372c0.04611,0.03059 4.71311,4.6976 4.71311,4.6976c0,0 7.16718,5.16704 7.12108,5.13644c0.04611,0.03059 6.71325,3.53085 6.66715,3.50025c0.04611,0.03059 8.88008,3.53085 8.83397,3.50025c0.04611,0.03059 8.7134,2.86413 8.66729,2.83354c0.04611,0.03059 10.04683,1.86406 10.00072,1.83347c0.04611,0.03059 7.88,1.36402 7.8339,1.33343c0.04611,0.03059 4.37975,-0.30276 4.33365,-0.33336c0.04611,0.03059 1.54621,-1.46951 1.50011,-1.50011c0.04611,0.03059 1.04618,-1.80287 1.00007,-1.83347c0.04611,0.03059 -0.78729,-2.63626 -0.83339,-2.66686c0.04611,0.03059 -1.12064,-1.63619 -1.16675,-1.66679c0.04611,0.03059 -2.2874,-0.8028 -2.3335,-0.83339c0.04611,0.03059 -2.78743,0.36395 -2.83354,0.33336c0.04611,0.03059 -3.95418,-0.30276 -4.00029,-0.33336c0.04611,0.03059 -6.9544,-1.46951 -7.0005,-1.50011c0.04611,0.03059 -6.62104,-1.46951 -6.66715,-1.50011c0.04611,0.03059 -6.62104,-1.80287 -6.62104,-1.80287c0,0 -6.66715,-3.33357 -6.71325,-3.36417c0.04611,0.03059 -4.6209,-2.13623 -4.667,-2.16682c0.04611,0.03059 -5.78765,-3.80302 -5.83375,-3.83361c0.04611,0.03059 -4.78758,-4.13637 -4.83368,-4.16697c0.04611,0.03059 -1.95404,-2.96962 -2.00014,-3.00022c0.04611,0.03059 -1.12065,-3.63634 -1.16675,-3.66693c0.04611,0.03059 -0.62061,-3.30298 -0.66671,-3.33357c0.04611,0.03059 0.37946,-3.1363 0.33336,-3.16689c0.04611,0.03059 1.37954,-4.30305 1.33343,-4.33365c0.04611,0.03059 2.37961,-4.96977 2.3335,-5.00036c0.04611,0.03059 3.87972,-7.30327 3.83361,-7.33386c0.04611,0.03059 3.213,-5.13645 3.16689,-5.16704c0.04611,0.03059 4.87979,-7.8033 4.87979,-7.8033c0,0 4.16697,-6.83383 4.12086,-6.86442c0.04611,0.03059 7.04661,-10.30348 7.0005,-10.33408c0.04611,0.03059 6.87993,-9.30341 6.83383,-9.33401c0.04611,0.03059 6.87993,-8.80338 6.83383,-8.83397c0.04611,0.03059 5.37982,-6.3032 5.33372,-6.33379c0.04611,0.03059 2.04625,-2.13623 3.33357,-4.16697c0.04611,0.03059 5.37982,-5.96984 5.33372,-6.00043c0.04611,0.03059 4.87979,-5.4698 4.83368,-5.5004c0.04611,0.03059 5.21315,-4.80309 5.16704,-4.83368c0.04611,0.03059 8.54672,-7.30327 8.50061,-7.33386c0.04611,0.03059 9.04676,-7.46995 9.00065,-7.50054c0.04611,0.03059 4.04639,-2.80295 4.00029,-2.83354c0.04611,0.03059 9.38011,-4.13637 9.33401,-4.16697c0.04611,0.03059 7.37997,-2.63627 7.37997,-2.63627c0,0 7.33386,-3.66693 7.28775,-3.69752c0.04611,0.03059 6.21322,-3.30298 6.16711,-3.33357c0.04611,0.03059 9.71347,-6.46988 9.66736,-6.50047c0.04611,0.03059 9.38011,-5.96984 9.33401,-6.00043c0.04611,0.03059 9.38011,-6.80323 9.33401,-6.83383c0.04611,0.03059 5.71318,-3.30298 10.33408,-7.33386c0.04611,0.03059 7.21329,-5.80316 7.16718,-5.83375c0.04611,0.03059 6.3799,-4.80309 6.33379,-4.83368c0.04611,0.03059 6.54658,-4.30305 6.50047,-4.33365c0.04611,0.03059 6.71326,-5.13645 6.66715,-5.16704c0.04611,0.03059 5.71318,-3.80302 5.66707,-3.83361c0.04611,0.03059 5.87986,-4.13638 5.83375,-4.16697c0.04611,0.03059 7.04661,-4.30305 7.0005,-4.33365c0.04611,0.03059 5.37983,-3.46966 5.33372,-3.50025c0.04611,0.03059 5.21315,-2.63627 5.16704,-2.66686c0.04611,0.03059 5.5465,-2.96963 5.5004,-3.00022c0.04611,0.03059 3.54636,-1.80287 3.50025,-1.83347c0.04611,0.03059 2.54629,-0.46944 2.50018,-0.50004c0.04611,0.03059 2.54629,0.36395 2.71297,0.36395c0.16668,0 1.50011,-1.66679 1.454,-1.69738c0.04611,0.03059 0.21279,-2.46959 0.16668,-2.50018c0.04611,0.03059 -0.12057,-2.80295 -0.16668,-2.83354c0.04611,0.03059 1.04618,-2.96963 1.04618,-2.96963c0,0 -0.18987,-1.48744 -1.50011,-3.83361z" opacity="NaN" fill="#fff"/>
  <path class="elastic1 shape" id="svg_32" d="m44.1326,495.98299c-0.16668,0 -3.00022,0.50004 -3.04632,0.46944c0.04611,0.03059 -5.28761,1.03066 -5.33372,1.00007c0.04611,0.03059 -6.12101,0.69731 -6.16711,0.66671c0.04611,0.03059 -6.28768,0.69731 -6.33379,0.66671c0.04611,0.03059 -6.78772,0.36395 -6.83383,0.33336c0.04611,0.03059 -6.12101,0.36395 -6.16711,0.33336c0.04611,0.03059 -5.95433,-0.13609 -6.00043,-0.16668c0.04611,0.03059 -3.95418,0.19727 -4.00029,0.16668c0.04611,0.03059 -0.12057,6.53106 0,6.50047c-0.12057,0.03059 2.71296,0.69731 2.66686,0.66671c0.04611,0.03059 6.21322,-0.46944 6.16711,-0.50004c0.04611,0.03059 6.04654,-0.13609 6.00043,-0.16668c0.04611,0.03059 7.54665,0.19727 7.50054,0.16668c0.04611,0.03059 7.04661,-0.63612 7.0005,-0.66671c0.04611,0.03059 6.71325,-0.96948 6.66715,-1.00007c0.04611,0.03059 5.04647,-0.30276 5.00036,-0.33336c0.04611,0.03059 0.37946,-1.30284 0.33336,-1.33343c0.04611,0.03059 0.21278,-1.96955 0.16668,-2.00014c0.04611,0.03059 1.21286,-1.30284 1.16675,-1.33343c0.04611,0.03059 1.87957,-0.46944 1.83347,-0.50004c0.04611,0.03059 -0.45393,-2.96962 -0.62061,-2.96962z" opacity="NaN"  fill="#fff"/>
  <path id="svg_34" d="m136.13923,462.98062l2.95411,-0.53063l5.83375,-3.33357l9.50068,-5.83375l8.50061,-5.83375l8.83397,-6.33379l7.66722,-5.83375l8.33393,-5.83375l6.33379,-4.667l6.50047,-4.83368l6.16711,-4.33365l6.66715,-4.50032l6.16711,-4.33365l-3.66693,0.33336l-5.83375,3.33357l-7.16718,4.667l-6.50047,4.16697l-7.16718,4.16697l-9.50068,6.16711l-9.00065,6.16711l-5.5004,4.00029c0.04611,0.03059 -5.95432,4.53092 -5.95432,4.53092c0,0 -6.83383,5.33372 -6.87993,5.30313c0.04611,0.03059 -5.62097,4.36424 -5.66707,4.33365c0.04611,0.03059 -4.6209,3.19749 -4.667,3.16689c0.04611,0.03059 -4.12086,3.03081 -4.16697,3.00022c0.04611,0.03059 -1.78736,1.5307 -1.78736,2.86413z" opacity="NaN" fill="#fff"/>
    
    <!--elastic2-->
  <path class="elastic2 shape"  id="svg_42" d="m958.51101,620.32534l0.80807,-1.53076l1.00007,-1.66679l0,-5.83375l-1.16675,-1.16675l-2.66686,-1.16675l-3.89622,-1.0419l-5.35438,-2.35416l-4.18776,-2.28141l-4.12527,-2.53136l-1.60442,-2.12525l-3.33357,-2.16682l-6.16711,-3.1669l-3.50025,-1.83346l-19.68887,-10.37578l-0.29178,-1.5626l0.47924,-2.72934l-1.20845,-2.83354l0.0417,-3.66693l-2.3335,-3.1669l-3.33357,-2.06263l-2.43769,-0.02091l-0.72921,-9.75064l-2.3335,-9.33401l-1.5626,-3.47946l-3.43776,-4.18776l-0.66671,1.83347l-1.50011,2.3335l-2.50018,2.3335l2.3335,3.50025l1.16675,2.83354l0.50004,3.66693l0.83339,4.667l-3.00022,-4.83368l-1.66678,-4.16696l-1.16675,-4.66701l-0.33336,-4.33364l0.83339,-3.66693l1.33343,-1.00007l-1.00007,-5.00036l-0.50004,-3.83361l-2.3335,-4.16697l-1.25015,-0.70842l-1.91674,0.54174l-1.16675,3.83361l-6.54217,-4.22946l-1.12505,-1.60429l-2.66686,-2.50018l-1.08347,-0.60435l-1.54169,-0.54162l-2.87524,-3.021l-3.83361,-5.00036l-1.4584,-2.83354l-3.31279,-8.89634l0.22917,-8.27156l0.54174,-3.00022l1.37513,-3.021l2.02093,-2.81275l2.89603,-2.27101l4.14617,-1.6043l5.87546,-0.62501l-0.8751,-2.04185l-1.27094,-2.79184l-3.0627,-2.87523l-2.06264,-0.8334l-3.20859,0.8751l-2.16682,1.33343l-0.50004,1.33342l-3.75021,2.396l-4.14605,4.79198l-2.4794,6.16711l-1.04177,6.79212l0.39585,7.33386l2.35429,7.85469l3.75033,7.87572l6.7503,8.81294l7.33399,5.81308l3.33357,2.66686l5.16704,4.50033l0.50004,8.00057l1.16675,4.83368l2.95915,10.68861l4.41641,7.37518l-4.5419,4.22946l-2.29193,4.81289l-1.04177,5.62537l0.66672,5.60459l5.00036,2.66686l3.58365,-1.35422l2.75013,1.18754l6.25052,0.89588l2.2918,-2.35429l5.89587,3.77088l13.73051,7.18821l7.14652,4.0629l9.02131,3.771l3.66693,1.33343l4.50033,2.16682l4.667,2.16683l2.83354,1.83346l2.83353,2.16682l1.33343,3.00022l1.22924,2.20852c0.54616,-0.55278 4.31728,-2.21957 4.31728,-2.34455c0,0.18747 -0.56204,-0.14583 2.97942,0.16668z" opacity="NaN" fill="#fff"/>
  <path class="elastic2 shape"  id="svg_43" d="m886.58911,527.11015l0.5581,-5.32256l3.00022,-7.83389l1.20845,-2.72935l1.04165,-5.13585l0.66672,-5.5108l-6.9796,-6.85461l-1.10426,16.06364l0.33336,7.33386l1.27536,9.98956z" opacity="NaN" fill="#fff"/>
  
  

<!--elastic3-->
  <path class="elastic3 shape" id="svg_39" d="m937.19693,598.49038l4.28753,-0.86399l5.16704,-0.83339l1.33343,4.00029l4.33365,7.0005l-5.33372,-2.3335l-4.16697,-2.3335l-4.00029,-2.50018l-1.62067,-2.13623z" opacity="NaN" fill="#fff"/>
  <path class="elastic3 shape"  id="svg_35" d="m57.13354,492.98278l-3.213,-0.36395l-3.50025,-1.00007l-3.50025,-1.00007l-1.83347,0.33336l-1.16675,2.00014l-0.50004,2.16682l1.16675,1.50011l0.16668,2.50018l-1.66679,0.50004l-1.33343,1.00007l-0.33336,3.66693l0.83339,1.00007l4.16697,-1.00007l4.16697,-0.66671l4.667,0.33336l7.0005,0.16668l5.66707,0.50004l3.33357,1.16675l2.3335,2.16682l1.00007,2.66686l2.50018,-2.66686l6.00043,-5.66707l2.50018,-3.33357l-1.33343,-0.83339l-1.16675,-1.50011l-2.83354,0.16668l-2.00014,0.16668l-2.3335,-2.50018l-6.16711,2.3335l-5.83375,-1.16675l-4.00029,-0.83339l-2.78743,-1.80287z" opacity="NaN" fill="#fff"/>
  <path class="elastic3 shape"  id="svg_36" d="m80.80191,513.48425l1.28732,-1.86406l4.83368,-5.66707l4.667,-5.33372l5.16704,-5.00036l5.66707,-1.66679l6.66715,-3.00022l7.0005,-1.83347l9.50068,-2.50018l10.1674,-1.83347l8.66729,-1.16675l10.33408,-0.66671l11.00079,-1.33343l8.50061,-1.16675l8.33393,-3.66693l12.66758,-5.16704l13.83433,-6.50047l10.66743,-5.16704l10.00072,-4.50032l10.1674,-4.667l9.50068,-3.66693l6.83383,-2.83354l0.16668,2.00014l-0.83339,2.83354l1.00007,4.50032l0.50004,3.83361l-2.16682,0.50004l-5.5004,3.00022l-5.66707,3.50025l-7.50054,4.16697l-8.33393,3.66693l-8.83397,3.50025l-9.66736,3.66693l-11.33415,3.33357l-8.66729,2.00014l-9.50068,1.33343l-7.33386,1.00007c0.04611,0.03059 -7.95447,2.69745 -7.95447,2.69745c0,0 -9.83404,2.50018 -9.88015,2.46959c0.04611,0.03059 -8.78786,2.86413 -8.83397,2.83354c0.04611,0.03059 -8.62118,2.53077 -8.66729,2.50018c0.04611,0.03059 -8.95454,2.03074 -9.00065,2.00014c0.04611,0.03059 -8.78786,1.86406 -8.83397,1.83347c0.04611,0.03059 -12.28811,2.69745 -12.33422,2.66686c0.04611,0.03059 -9.62126,1.69738 -9.78794,1.69738c-0.16668,0 -7.16718,1.33343 -7.21329,1.30284c0.04611,0.03059 -2.12072,0.36395 -2.16682,0.33336c0.04611,0.03059 0.54614,2.36409 0.50004,2.3335c0.04611,0.03059 -1.12064,1.36402 -1.16675,1.33343c0.04611,0.03059 -2.78743,0.53063 -2.83354,0.50004c0.04611,0.03059 -1.12064,0.69731 -3.62082,1.86406z" opacity="NaN" fill="#fff"/>
    <path class="elastic3 shape"  id="svg_46" d="m951.25001,622.375l4.25,-2.125l3,0l1.25,3.5l2.5,4.25l3,3.75l-2.25,3l-3,3.5l-2,4.25l-2,3.75l-4.25,-4.75l-6,-2l-5.5,-1.5l-6.75,-1.5l-6.5,-0.75l-6.75,0.5l-7.75,1.5l-8.75,1.75l-9.5,2.75l-3.75,0.75l2,6l4.25,9l5.25,7.25l7.5,10.5l8.5,11.5l6.25,11.5l6.5,14.25l5,14.75l2.25,10l1.25,15.75l-0.25,9.5c0,0.125 -2,9.875 -2,9.625c0,-0.25 -2.25,5.5 -2.25,5.375c0,0.125 8,-2.125 8,-2.25c0,0.125 21.25,-7.375 21.25,-7.5c0,0.125 14.25,-9.625 14.25,-9.75c0,0.125 12.75,-11.125 12.75,-11.25c0,0.125 5.5,-7.625 5.5,-7.75c0,0.125 2.75,-7.875 2.75,-8c0,0.125 0.25,-12.625 0.25,-12.75c0,0.125 -0.25,-6.125 -0.25,-6.25c0,0.125 -2.25,-10.625 -2.25,-10.75c0,0.125 -3.75,-11.125 -3.75,-11.25c0,0.125 -5.75,-11.625 -5.75,-11.75c0,0.125 -6,-8.125 -6,-8.25c0,0.125 -5.5,-6.625 -5.5,-6.75c0,0.125 -4.75,-2.625 -4.75,-2.75c0,0.125 2.25,-4.875 2.25,-5c0,0.125 3.5,-1.625 3.5,-1.75c0,0.125 3.25,-3.125 3.25,-3.25c0,0.125 2.25,-1.375 2.25,-1.5c0,0.125 5.75,6.625 5.75,6.5c0,0.125 8.25,8.625 8.25,8.5c0,0.125 8.25,10.375 8.25,10.25c0,0.125 6.5,10.625 6.5,10.5c0,0.125 5,12.375 5,12.25c0,0.125 2,8.625 2,8.5c0,0.125 0,10.875 0.25,10.875c0.25,0 -1.25,8 -1.25,7.875c0,0.125 -4.5,9.875 -4.5,9.75c0,0.125 -7,9.125 -7,9.125c0,0 -3,4.5 -3,4.375c0,0.125 -4.25,7.125 -4.25,7c0,0.125 -8,10.125 -8,10c0,0.125 -9.75,8.625 -9.75,8.5c0,0.125 -8.25,4.875 -8.25,4.75c0,0.125 -14,7.125 -14,7c0,0.125 -12,4.375 -12,4.25c0,0.125 -10.75,2.875 -10.75,2.75c0,0.125 -9.25,1.875 -9.25,1.75c0,0.125 -5.5,5.875 -5.5,5.75c0,0.125 -7.25,6.875 -7.25,6.75c0,0.125 -7.5,4.375 -7.5,4.375c0,0 -8.25,3 -8.25,2.875c0,0.125 -7.25,1.375 -7.25,1.25c0,0.125 -8,0.125 -8,0c0,0.125 -2.25,1.625 -2.25,1.5c0,0.125 -4.25,1.375 -4.25,1.25c0,0.125 -3,1.625 -3,1.5c0,0.125 -4.5,-0.125 -4.5,-0.25c0,0.125 -3.25,-1.375 -3.25,-1.5c0,0.125 -2,-4.375 -2,-4.5c0,0.125 -4.25,1.125 -4.25,1c0,0.125 -3.75,0.375 -3.75,0.25c0,0.125 -2.25,-1.375 -2.25,-1.5c0,0.125 -1.75,-2.625 -1.75,-2.75c0,0.125 -1.5,-3.125 -1.5,-3.25c0,0.125 2.5,-2.125 2.5,-2.25c0,0.125 -0.75,-2.875 -0.75,-3c0,0.125 -5.25,-3.625 -5.25,-3.75c0,0.125 -3.25,-2.625 -3.25,-2.75c0,0.125 -6.5,-2.375 -6.5,-2.5c0,0.125 -3.75,-0.625 -3.75,-0.75c0,0.125 -1.75,-2.375 -1.75,-2.5c0,0.125 -0.25,-3.625 -0.25,-3.75c0,0.125 1,-4.125 1,-4.25c0,0.125 -4,-6.125 -4,-6.25c0,0.125 -4.75,-9.875 -4.75,-10c0,0.125 -2.75,-6.875 -2.75,-7c0,0.125 -2,-7.375 -2,-7.5c0,0.125 -1.5,-8.125 -1.5,-8.25c0,0.125 -0.5,-8.875 -0.5,-9c0,0.125 -0.25,-10.375 -0.25,-10.5c0,0.125 6.25,-4.375 6.25,-4.5c0,0.125 4,-1.125 4,-1.25c0,0.125 -0.5,4.125 -0.5,4c0,0.125 -0.25,8.625 -0.25,8.5c0,0.125 0,9.625 0,9.5c0,0.125 0.75,7.625 0.75,7.5c0,0.125 2.5,8.375 2.5,8.25c0,0.125 3.5,8.875 3.5,8.75c0,0.125 4,8.375 4,8.25c0,0.125 4.75,8.375 4.75,8.25c0,0.125 3.25,3.875 3.25,3.75c0,0.125 7.25,4.375 7.25,4.25c0,0.125 5.25,2.625 5.25,2.5c0,0.125 3.75,-1.125 3.75,-1.125c0,0 3.25,-0.75 3.25,-0.875c0,0.125 3.5,2.125 3.5,2c0,0.125 4.75,3.125 4.75,3c0,0.125 7.5,5.375 7.5,5.25c0,0.125 5.5,-2.125 5.5,-2.25c0,0.125 9.25,-4.125 9.25,-4.25c0,0.125 9,-3.375 9,-3.5c0,0.125 7.5,-2.875 7.5,-3c0,0.125 10,-2.625 10,-2.75c0,0.125 2.75,-2.875 2.75,-3c0,0.125 2.25,-6.125 2.25,-6.25c0,0.125 1.75,-7.125 1.75,-7.25c0,0.125 1.25,-7.625 1.25,-7.75c0,0.125 0,-10.625 0,-10.75c0,0.125 -0.5,-8.875 -0.5,-9c0,0.125 -1.75,-8.125 -1.75,-8.25c0,0.125 -2.5,-8.375 -2.5,-8.5c0,0.125 -3.75,-8.875 -3.75,-9c0,0.125 -3.75,-8.125 -3.75,-8.25c0,0.125 -4.5,-8.375 -4.5,-8.5c0,0.125 -4.25,-6.375 -4.25,-6.5c0,0.125 -6.25,-7.875 -6.25,-8c0,0.125 -5.75,-7.625 -5.75,-7.75c0,0.125 -5.5,-7.625 -5.5,-7.75c0,0.125 -4.25,-7.125 -4.25,-7.25c0,0.125 -2.75,-7.375 -2.75,-7.5c0,0.125 -1.5,-6.625 -1.5,-6.75c0,0.125 -0.25,-5.125 -0.25,-5.25c0,0.125 4.75,-3.375 4.75,-3.5c0,0.125 3.25,-0.625 3.25,-0.75c0,0.125 0.25,3.375 0.25,3.25c0,0.125 6.75,-6.375 6.75,-6.5c0,0.125 7.75,-0.625 7.75,-0.75c0,0.125 9.75,-1.875 9.75,-2c0,0.125 8.5,-1.375 8.5,-1.5c0,0.125 9,0.625 9,0.5c0,0.125 6.75,1.125 6.75,1c0,0.125 7.5,2.125 7.5,2c0,0.125 6,2.625 6,2.5c0,0.125 4.25,2.125 4.25,2c0,0.125 0,-3.125 0,-3.25c0,0.125 -2.5,-5.375 -2.5,-5.5c0,0.125 -1,-1.625 -2.5,-4.875z" opacity="NaN" fill="#fff"/>
  <path  id="svg_37" d="m110.97075,496.64971l3.62082,-1.86406l4.667,-1.50011l7.33386,-1.33343l5.00036,-1.00007l5.33372,-0.83339l7.0005,-0.33336l-4.50032,2.3335l-4.83368,0.83339l-5.5004,0.83339l-4.33365,1.66679l-4.667,0.66671c0.04611,0.03059 -4.28754,1.19734 -4.45422,1.19734c-0.16668,0 -4.33365,0.66671 -4.37975,0.63612l-0.28725,-1.30284z" opacity="NaN" fill="#fff"/>
  <path  id="svg_38" d="m205.1442,474.64812l5.12093,-1.19734l5.66707,-2.3335l7.66722,-3.00022l5.5004,-2.00014l5.66707,-3.00022l5.5004,-2.83354l4.667,-2.50018l4.00029,-2.50018l-2.66686,-0.50004l-4.83368,2.3335l-4.83368,2.16682l-5.66707,2.66686l-7.16718,3.00022l-5.5004,2.66686c0.04611,0.03059 -4.62089,1.69738 -4.62089,1.69738c0,0 -3.83361,1.66679 -3.87972,1.63619c0.04611,0.03059 -4.12086,1.69738 -4.16697,1.66679c0.04611,0.03059 -0.12057,0.69731 -0.45393,2.03074z" opacity="NaN" fill="#fff"/>
<path id="svg_41" d="m993.701,673.99582l3.78749,4.96977l4.16697,5.83375c0.04612,0.0306 3.37969,5.36431 3.37969,5.36431c0,0 1.83347,4.83368 1.78735,4.80309c0.04612,0.0306 1.71291,4.53092 1.66679,4.50032c0.04612,0.0306 1.21287,4.86428 1.16675,4.83368c0.04612,0.0306 0.71283,3.03081 0.66671,3.00022c0.04612,0.0306 0.2128,4.03088 0.16668,4.00029c0.04612,0.0306 -0.28724,5.36431 -0.33336,5.33372c0.04612,0.0306 -0.12056,3.36417 -0.16668,3.33357c0.04612,0.0306 -1.28731,3.36417 -1.33343,3.33357c0.04612,0.0306 -1.12063,2.19742 -1.16675,2.16682c0.04612,0.0306 -0.6206,-4.13637 -0.66671,-4.16697c0.04612,0.0306 0.71283,-5.96984 0.66671,-6.00043c0.04612,0.0306 -0.28724,-5.63648 -0.33336,-5.66707c0.04612,0.0306 -0.78727,-5.80316 -0.83339,-5.83375c0.04612,0.0306 -1.62067,-5.4698 -1.66679,-5.5004c0.04612,0.0306 -1.95402,-5.13644 -2.00014,-5.16704c0.04612,0.0306 -2.28738,-5.13644 -2.3335,-5.16704c0.04612,0.0306 -2.45406,-4.13637 -2.50018,-4.16697c0.04612,0.0306 -2.1207,-3.88635 -4.12085,-9.80345z" opacity="NaN" fill="#fff"/>


<!--unknow-->
  <path class="product-shape1 shape"  id="svg_47" d="m767.9017,718.37877l5.51143,-3.9336l6.9962,-2.66522l6.9962,-1.49919l5.49701,-1.66576l2.99837,-2.99837l1.66576,-1.83234l1.99891,-2.99837l1.99891,2.16549l1.99891,2.16549l0.83288,2.49864l-0.33315,2.33207l-3.83125,1.16603l-4.33098,1.99891l-6.16332,3.66468l-3.83125,1.66576l-4.1644,0.49973l-4.49756,0.33315l-3.99783,0l-2.99837,-0.16658l-2.34648,-0.73053z" opacity="NaN" fill="#fff"/>
  <path class="product-shape1 shape"  id="svg_48" d="m892.16751,621.93117l9.34269,-9.43061l6.41319,-6.24661l6.08002,-6.41318l7.32935,4.1644l4.16441,1.66576l-2.99837,1.16603l-1.83234,0.99946l-3.33153,2.33207l-4.1644,1.33261l-4.1644,2.33206l-5.66359,2.49865l-0.83288,3.99782l-0.33316,2.66522l-3.66467,0.83288l-3.33153,-0.6663l-3.01279,-1.23026z" opacity="NaN" fill="#fff"/>
  <path class="product-shape1 shape"  id="svg_49" d="m924.48329,591.61431l9.34269,4.72836l3.33152,2.16549l9.32827,-1.83234c0.15216,0.10235 2.31765,0.26893 2.31765,0.26893c0,0 6.16332,-1.49919 6.01116,-1.60153c0.15216,0.10235 8.14781,-2.06314 7.99566,-2.16549c0.15216,0.10235 4.64971,-2.22972 4.49756,-2.33207c0.15216,0.10235 5.14944,-4.72836 4.99728,-4.83071c0.15215,0.10235 4.81629,-5.89439 4.66413,-5.99674c0.15215,0.10235 1.81792,-2.39629 1.66576,-2.49864c0.15215,0.10235 0.65188,-1.56341 0.49973,-1.66576c0.15215,0.10235 6.1489,-5.56124 5.99674,-5.66359c0.15215,0.10235 8.98069,-9.72564 8.82854,-9.82799c0.15215,0.10235 -3.6791,3.10072 -3.83125,2.99837c0.15215,0.10235 -5.34486,3.76703 -5.49701,3.66468c0.15215,0.10235 -5.84459,4.59991 -5.99674,4.49756c0.15215,0.10235 -4.51198,3.2673 -4.66413,3.16495c0.15215,0.10235 -3.6791,0.60208 -3.83125,0.49973c0.15215,0.10235 -5.17828,-0.89711 -5.33044,-0.99946c0.15216,0.10235 -15.33943,-5.89439 -17.82365,-6.82962c0.98504,0.26893 -6.34431,7.09855 -6.49647,6.9962c0.65188,0.10235 -6.34431,7.4317 -6.49647,7.32935c0.15216,0.10235 -5.17828,5.26621 -5.33044,5.16386c0.15216,0.26893 -1.84676,1.93469 -4.17882,4.76648z" opacity="NaN" fill="#fff"/>
 
</g>

</svg>