<svg id="product-svg" data-name="Calque 1" xmlns="http://www.w3.org/2000/svg" xmlns:xlink="http://www.w3.org/1999/xlink" viewBox="0 0 1280 850">
<!--part1-->
  <polygon class="product-shape1 shape" points="302.88 353.04 305.54 349.43 308.06 345.35 311.2 342.37 316.06 339.54 320.3 338.13 323.75 337.34 326.42 336.09 329.72 334.2 332.7 332.32 335.68 330.44 338.04 328.87 342.44 328.87 345.26 330.28 346.99 330.75 350.91 330.28 357.19 329.65 362.84 328.87 366.3 329.65 372.89 329.96 381.05 331.22 389.22 331.69 396.75 332.63 403.82 333.73 410.25 334.36 417.32 335.62 424.54 336.4 430.66 336.87 435.06 337.34 439.61 338.44 442.91 339.07 446.99 339.7 452.48 340.17 456.41 340.95 461.74 342.05 467.08 342.99 475.4 344.41 486.08 346.45 492.67 347.55 501.77 348.8 509.62 351 519.67 352.26 526.89 353.67 535.84 355.55 544.79 357.12 553.11 359.16 559.7 360.11 565.67 361.2 574.77 363.09 581.05 363.09 586.86 364.82 592.67 366.07 599.73 367.64 607.43 368.74 616.37 370.31 625.16 372.35 629.72 373.61 638.82 374.39 646.83 375.49 653.26 377.37 660.01 378.79 668.34 380.2 676.97 381.61 683.56 383.03 688.43 385.07 696.75 386.64 703.81 387.42 724.06 391.35 734.43 393.86 742.43 395.58 748.24 397.78 754.36 400.92 758.76 402.33 765.82 402.33 770.22 402.33 772.89 403.75 772.89 410.5 773.66 413.73 773.04 416.95 769.57 421.3 764.85 425.89 759.88 431.23 755.04 435.82 750.2 441.78 746.1 446.87 741.51 452.34 740.76 453.58 737.78 450.47 734.06 447.12 728.47 442.16 723.63 438.56 717.92 434.34 713.95 431.85 710.22 429.87 706.75 428 704.51 426.64 700.17 426.27 698.18 427.88 696.07 430.61 693.96 433.71 692.22 437.19 690.73 440.79 688.91 443.2 682.47 441.51 675.36 440.71 668.99 439.17 664.09 437.78 658.37 437.05 652.59 437.12 645.56 434.92 638.45 433.68 629.96 431.7 621.17 430.02 607.81 426.91 584.99 422.56 568.06 419.15 555.48 416.66 542.28 413.55 526.91 410.14 515.1 407.5 499.88 404.24 487.77 401.29 475.5 398.34 463.08 395.54 452.05 392.75 438.39 389.64 427.36 386.69 416.49 384.36 404.07 381.41 390.09 378.15 379.22 375.04 361.83 371.16 354.84 368.98 344.9 366.03 337.76 364.02 326.73 360.75 320.98 359.05 315.86 358.11 311.43 357.88 303.26 358.04 302.88 355.63 302.88 353.04"/>
  <polygon class="product-shape1 shape" points="354.24 582.06 355.17 586.64 357.32 590.22 359.9 593.79 362.91 597.24 366.49 597.96 371.64 600.32 376.01 601.39 379.31 602.68 382.38 603.68 386.46 605.19 391.97 607.19 391.97 606.19 385.46 602.97 380.09 599.75 375.44 596.17 370.5 592.66 365.77 589.58 362.48 586.93 359.33 584.85 357.32 583.21 354.24 582.06"/>
  <polygon class="product-shape1 shape" points="393.68 456.19 392.13 459.71 392.13 463.84 392.13 469.52 392.9 472.62 392.13 477.44 395.05 480.53 397.38 484.4 399.7 487.93 402.37 492.32 404.43 497.22 406.58 501.18 409.25 506.08 411.74 511.25 416.56 520.62 419.83 526.9 422.17 531.77 425.72 538.86 429.79 546.74 433.33 553.58 437.53 561.58 441.21 568.15 444.76 573.92 447.38 578.65 448.57 581.41 450.14 577.07 451.82 571.43 454.21 565.26 456.18 559.22 458.55 553.58 460.78 547.13 462.62 541.49 465.11 535.32 468.13 529.14 471.15 523.63 474.7 517.85 477.72 513.91 481.13 510.37 484.02 507.87 486.52 506.95 487.17 503.14 488.62 498.42 490.06 493.56 491.9 488.7 494 484.24 490.59 483.18 485.07 481.87 477.72 479.9 467.61 477.01 460.51 474.78 453.16 472.68 445.68 470.58 437.67 468.21 431.36 466.51 423.62 464.41 417.31 462.57 410.75 460.6 403.52 458.5 398.93 457.18 395.78 456.19 393.68 456.19"/>
  <polygon class="product-shape1 shape" points="450.49 598.68 454.58 608.07 456.06 612.1 457.67 615.52 458.54 618 458 620.88 456.86 622.49 455.79 623.43 455.65 624.77 453.37 621.49 451.82 617.93 449.75 613.5 448.75 609.41 448.21 605.12 448.61 601.83 450.49 598.68"/>
  <polygon class="product-shape1 shape" points="474.29 631.02 479.37 634.4 483.51 636.27 486.78 638.71 490.04 641.08 493.3 643.46 496 646.11 498.49 648.27 499.71 650.2 496.67 648.88 492.8 647.05 488.54 644.56 483.35 640.97 479.59 637.88 476.66 634.89 474.62 632.79 474.29 631.02"/>
  <polygon class="product-shape1 shape" opacity="NaN" fill="#fff" points="474.73 623.45 485.39 624.5 493.79 625.77 499.15 626.71 505.95 627.27 512.2 627.27 514.91 628.04 514.19 633.12 514.08 638.04 514.08 643.18 515.29 646.78 516.29 650.81 517.61 654.4 517.83 656.17 513.86 653.68 509.93 651.25 507.22 649.04 504.35 645.28 500.32 641.19 496.28 637.99 492.47 634.78 489.15 632.79 485.73 631.02 482.46 628.81 479.65 627.16 476.99 625.55 474.73 623.45"/>
  <polygon class="product-shape1 shape" points="469.49 614.55 466.9 614.55 464.57 614.05 462.74 610.21 460.49 604.71 458.54 601.13 456.65 596.96 454.73 592.71 453.37 587.79 455.73 581.79 457.9 576.12 460.57 568.37 462.57 561.78 464.4 556.45 466.24 550.95 468.49 544.86 470.66 539.94 472.99 535.02 475.41 529.77 477.99 525.02 480.74 520.85 483.41 517.77 486.33 514.27 488.41 512.77 491.41 513.94 495.33 514.6 498.08 515.85 501.08 516.52 503.58 517.27 507.17 517.35 509.42 520.44 511.83 523.69 513.75 526.86 515.92 530.44 517.92 534.61 520.17 538.86 522.09 543.28 523.75 548.11 525.5 553.58 527.26 558.61 528.76 562.37 530.26 566.12 531.42 569.87 533.01 574.62 535.17 579.7 537.59 585.87 539.26 590.71 541.43 597.13 543.43 602.29 545.59 606.96 547.51 611.38 550.85 619.05 552.93 624.13 555.43 629.22 557.76 634.22 560.18 639.47 562.6 642.89 565.6 647.64 566.18 649.06 566.18 657.31 566.18 664.9 566.18 670.98 566.77 674.06 563.02 673.48 558.1 672.31 552.51 670.06 549.01 669.06 544.26 667.06 538.09 664.31 533.17 662.23 528.84 659.98 526.51 655.73 523.92 650.2 522.34 645.47 521.59 641.31 521.59 636.64 521.75 631.8 522.25 627.8 522.42 625.05 521.34 623.45 518.92 621.8 516.92 621.13 512.75 620.72 506.25 620.38 499.71 619.8 490.16 618.47 485.08 617.72 480.41 617.38 475.66 616.71 472.82 616.38 471.99 614.96 469.49 614.55"/>
  <polygon class="product-shape1 shape" opacity="NaN" fill="#fff" points="573.36 656.89 572.94 660.98 572.94 667.7 573.15 673.18 574.4 677.89 577.1 679.9 579.04 680.87 582.99 680.04 587.01 678.93 591.65 678.24 595.6 677.2 591.31 673.66 587.22 669.71 584.27 667.15 581.19 663.89 578.76 661.81 576.2 659.11 573.36 656.89"/>
  <polygon class="product-shape1 shape" points="511.11 488.95 510.07 491.87 510.07 497.41 510.07 504.22 510.07 511.03 513.64 515.02 516.46 518.8 519.28 523.48 522.01 529.22 524.63 535.06 528.72 544.4 531.54 552.18 533.97 559.87 538.25 570.77 540.68 577.38 544.87 586.92 547.98 595.57 551.68 605.21 554.99 612.5 558.88 620.48 561.89 626.51 567.24 636.92 568.22 638.19 569 637.02 569 631.96 570.55 625.64 572.94 618.05 575.03 610.65 577.46 604.23 580.86 598.1 585.92 586.82 589.04 580.5 591.86 575.53 595.46 570.18 599.06 565.32 603.53 559.87 608.2 555.2 611.41 551.89 615.3 548.97 618.42 547.22 622.21 545.76 623.77 541.29 625.33 536.52 627.27 532.14 628.92 528.74 629.99 526.11 630.97 523.87 626.49 522.8 619.68 520.76 614.82 519.5 609.95 517.84 604.8 516.19 600.81 515.02 596.14 513.46 593.51 512.77 592.15 515.02 590.3 515.9 588.06 515.8 587.48 517.65 586.31 518.23 583.69 518.23 582.13 516.77 581.06 517.84 580.67 523.19 579.89 528.64 579.11 534.09 579.02 540.61 579.02 547.03 579.31 553.35 580.09 557.34 580.67 561.13 581.35 564.35 581.35 567.17 579.7 568.04 577.56 567.17 575.81 566.39 574.05 564.73 574.05 559.29 573.47 552.87 572.89 546.44 572.89 539.93 573.18 533.21 573.96 527.38 575.22 521.25 573.28 522.71 570.52 527.86 567.93 534.58 564.52 541.97 561.5 548.88 558.88 554.23 556.45 559.68 554.21 564.83 552.46 568.63 551.19 570.77 548.37 568.43 545.84 566.19 548.57 562.5 551.19 557.73 553.23 552.57 555.57 547.13 558.2 541.09 561.21 535.06 563.35 529.71 565.88 524.55 568.51 520.18 571.33 515.7 572.01 513.85 570.94 511.71 571.82 509.96 572.6 508.5 572.89 506.17 565.2 504.71 552.94 500.91 543.99 498.48 533.87 495.47 526.77 493.42 520.35 491.67 515.39 490.31 511.11 488.95"/>
  <polygon class="product-shape1 shape" points="574.32 645.01 575.05 638.19 576.68 631.15 578.44 623.45 580.95 615.09 584.27 605.95 588.76 598.13 592.74 589.29 596.72 581.48 600.55 575.88 605.86 568.8 608.96 564.68 612.64 560.84 616.33 557.31 622.37 553.03 624.58 554.8 628.12 555.54 633.28 557.16 638.14 558.78 643.59 560.7 645.36 563.57 646.69 566 646.69 574.26 646.69 589 646.69 604.33 646.69 618.03 646.69 630.56 645.8 635.87 641.82 633.95 638.14 633.07 632.39 631.3 627.67 629.97 623.69 628.5 618.98 628.2 615.88 630.27 612.49 633.36 609.25 636.31 609.25 640.73 610.5 646.33 613.23 652.08 616.33 658.27 618.83 665.2 621.78 668.88 618.54 670.65 615.29 672.57 612.05 673.45 608.51 674.06 603.5 675.37 599.23 671.39 592.15 665.35 587.29 660.63 581.98 654.74 578.74 650.9 574.32 646.63 574.32 645.01"/>
  <polygon class="product-shape1 shape" points="613.13 682.41 616.75 680.87 623.23 679.12 629.92 677.25 632.23 678.24 636.73 682.41 640 686.36 643.43 689.33 646.69 692.51 650.45 694.71 655.06 696.13 659.56 697.56 662.96 698.88 666.59 700.52 668.67 704.58 671.86 710.4 674.82 714.35 677.56 718.31 672.4 716.44 664.39 713.48 656.93 710.51 649.57 706.56 641.67 702.61 636.07 698.88 630.97 695.8 625.31 692.29 620.59 689 615.65 684.72 613.13 682.41"/>
  <polygon class="product-shape1 shape" points="652.63 530.81 651.61 536.9 650.16 546.75 648.57 554 651.32 558.92 652.63 564.87 653.35 571.1 653.35 578.63 653.35 588.05 653.93 596.17 653.93 604.14 653.93 612.11 653.93 620.23 653.93 626.46 653.21 634.28 651.9 642.4 656.25 646.75 661.32 650.8 666.11 655.15 671.61 659.79 673.79 663.85 675.67 668.05 678.71 675.37 681.47 680.87 683.21 686.16 683.79 690.22 682.34 693.41 679 696.74 676.4 698.92 675.09 701.09 677.56 705.73 680.16 710.22 683.79 714.71 686.68 718.31 690.6 721.81 694.65 725 698.13 726.74 701.32 727.9 706.68 728.77 710.02 729.93 714.07 731.67 718.71 733.26 722.33 735 726.54 736.89 731.03 737.9 736.97 737.9 735.38 736.31 733.49 735 729.87 735 726.54 731.96 722.91 728.48 716.54 721.67 712.05 716.6 707.26 711.09 702.77 705.87 700.16 702.39 699.44 698.63 698.57 696.31 695.96 692.11 693.93 688.19 692.77 685.58 691.47 680.87 690.02 677.25 688.42 675.37 688.13 667.03 686.83 664.43 686.68 655.59 685.09 651.82 686.39 646.75 686.54 640.37 686.39 634.36 687.7 632.4 687.12 628.49 685.38 625.59 686.1 620.66 687.7 617.04 687.26 613.27 686.1 611.39 685.67 606.31 687.41 602.4 687.7 599.5 686.39 596.6 684.95 591.24 685.38 587.62 686.68 585.88 685.38 581.39 684.95 579.07 687.26 575.74 688.57 572.84 689 569.21 690.45 566.61 692.77 564.87 691.32 560.95 690.02 556.61 689.44 552.11 690.16 548.78 691.9 544.72 688.57 542.69 683.64 541.1 678.42 538.93 672.48 537.04 667.84 535.3 663.35 533.56 659.29 532.55 652.63 530.81"/>
    <polygon class="product-shape1 shape" points="652.59 437.12 658.37 437.05 664.09 437.78 668.99 439.17 675.36 440.71 682.47 441.51 688.91 443.2 685.58 449.19 683.5 453.58 681.19 456.87 681.8 459.43 684.11 462.48 689.96 467.23 695.08 471.01 700.81 474.42 707.64 479.18 712.27 482.59 715.93 485.52 718.52 488.18 714.36 495.44 711.12 501.28 708.28 506.02 705.44 510.28 703.31 514.22 701.26 518.17 699.68 522.99 698.81 526.85 695.79 526.85 694.01 521.72 692.77 515.99 691.9 511.41 691.9 507.72 690.45 503.01 688.28 496.52 685.74 489.77 683.7 484.55 681.67 479.33 680.26 474.75 677.85 467.36 676.12 462.03 674.85 456.5 673.38 452.04 672.32 448.84 670.64 446.46 667.86 443.92 665.07 442.71 661.57 442 658.12 441.29 655.99 439.92 652.59 437.12"/>
  <polygon class="product-shape1 shape" points="604.58 691.75 611.08 693.54 617.82 694.71 616.39 693.57 611.16 690 608.43 687.76 605.11 685.27 601.13 686.93 597.23 688.34 595.22 688.77 600.24 690.99 604.58 691.75"/>
    <polygon class="product-shape1 shape" points="371.46 476.39 365.58 489.41 362.6 497.22 358.05 506.45 355.78 512.42 353.93 518.53 351.94 527.62 351.23 532.45 351.23 541.54 351.23 551.77 351.23 560.58 351.94 565.84 352.09 572.09 356.35 575.5 361.35 579.48 368.28 585.3 374.67 589.56 381.78 593.79 389.17 598.8 397.26 602.92 406.5 608.32 413.18 611.73 416.02 614.28 421.42 616.98 428.38 620.82 434.2 623.66 439.17 626.08 442.73 626.79 447.84 628.78 451.82 630.76 448.41 625.65 445.99 621.39 443.58 614.85 442.02 610.88 441.73 602.21 442.44 598.66 443.58 593.79 445.28 589.99 446.14 587.72 442.73 581.89 438.04 573.23 434.49 567.26 431.64 561.86 426.96 553.58 423.97 548.36 421.98 543.82 418.72 537.14 415.02 530.18 412.47 525.21 409.2 519.1 406.64 513.7 404.51 509.58 402.24 504.46 399.68 500.06 397.26 495.8 393.85 489.69 392.01 486.42 390.02 483.3 387.75 481.45 385.61 481.88 382.35 481.17 379.31 479.74 376.24 478.75 371.46 476.39"/>
    <polygon class="product-shape1 shape" points="267.85 420.83 271.99 419.97 276.27 420.4 280.84 421.83 286.27 424.26 285.13 427.26 282.84 430.97 281.27 433.54 279.56 438.68 277.84 443.25 277.84 446.96 275.53 450.27 273.95 453.58 272.25 457.72 271.18 460.81 269.98 464.41 269.16 467.69 268.15 473.24 267.85 476.65 267.2 484.54 267.2 489.9 267.2 497.92 267.58 502.02 268.08 506.37 268.84 510.41 269.91 514.95 272.88 524.04 274.2 528.4 275.91 532.06 280.33 541.08 283.92 547.52 286.64 551.74 288.78 556.22 284.05 550.73 278.43 543.6 275.85 538.43 272.75 533.57 270.54 528.33 268.53 523.41 267.2 517.54 266 511.99 264.61 503.72 264.04 497.73 263.6 488.1 263.04 483.28 263.04 468.32 263.04 454.44 264.04 439.17 264.87 433.87 265.69 429.7 267.2 425.79 267.58 421.88 267.85 420.83"/>
  <polygon class="product-shape1 shape" points="298.19 427.99 302.16 429.49 301.42 430.72 300.17 432.01 298.93 433.09 297.89 433.09 298.19 427.99"/>
  <polygon class="product-shape1 shape" points="282.1 452.09 279.34 457.37 277.54 462.54 276.21 467.16 274.77 473.53 273.63 480.2 272.79 485.18 272.79 494.43 273.27 498.76 274.23 504.22 275.13 510.35 276.45 515.28 277.84 520.02 279.88 526.21 283.12 533.9 286.06 539.72 289.37 545.31 293.27 551.14 298.86 559.67 303.03 564.54 307.31 568.44 313.21 573.43 320.21 578.1 324.17 580.76 331.95 584.39 338.18 587.57 345.25 590.29 348.17 591.2 350.37 592.76 352.77 593.79 351.22 590.49 349.08 586.34 347.65 582.19 346.55 577.06 346.55 574.01 342.01 569.6 339.35 566.3 336.88 562.66 334.42 558.38 331.56 553.32 329.16 548.85 327.15 544.96 325.14 540.87 323.13 535.75 320.99 531.66 318.98 526.99 317.04 522.94 315.03 517.85 312.04 510.78 309.9 505.39 307.89 500.92 306.33 496.9 304.78 492.62 302.77 487.49 301.34 482.56 299.2 477.96 297 472.06 295.63 467.91 294.66 464.02 293.36 460.25 292.2 457.72 291.16 455.84 289.73 453.96 287.01 452.8 283.89 451.56 282.1 452.09"/>
    <polygon class="product-shape1 shape" points="880.37 511.47 879.19 506.91 878.86 502.38 880.76 500.41 881.9 504.04 882.74 508.43 883.16 514.43 883.75 519.58 883.75 525.41 884.09 531.84 884.09 539.44 883.75 546.03 883.08 556.34 883.16 563.18 882.49 569.44 881.48 576.62 880.29 583.55 878.86 590.39 877.75 596.64 876.4 601.8 875.22 606.78 874.04 611.77 871.59 620.98 869.56 627.15 867.95 632.72 865.84 638.3 863.14 644.89 861.45 649.62 859.76 653.68 858.57 657.31 856.55 660.86 855.19 660.86 856.35 656.23 858.35 651.61 860.04 644.38 861.96 638.07 863.2 633.53 864.81 628.15 866.04 623.07 867.27 619.14 868.27 613.53 870.66 608.22 872.35 601.68 873.97 597.21 874.43 592.37 875.97 587.6 877.12 583.52 878.12 579.13 879.2 575.67 879.66 571.82 880.66 565.51 881.66 556.66 881.97 550.12 882.12 543.58 881.97 537.35 881.82 530.12 882.28 524.58 882.74 521.19 881.89 516.58 880.37 511.47"/>
  <polygon class="product-shape1 shape" points="801.78 723.42 804.45 719.41 807.62 715.16 810.63 711.57 813.8 708.23 817.56 704.97 821.15 702.13 824.49 699.13 827.91 695.45 830.83 692.53 833.42 689.27 835.59 686.52 837.01 684.43 839.68 681.76 841.52 679.17 845.11 674.91 847.78 673.41 846.78 677.33 844.11 681.34 841.86 685.1 839.35 688.35 836.68 691.53 834.43 694.87 831.34 697.87 828.08 701.46 824.78 704.39 822.07 707.14 818.9 710.48 816.56 713.24 813.72 716.32 810.96 718.75 808.63 720.75 806.71 722.09 803.78 724.26 801.78 725.34 801.78 723.42"/>
   <polygon class="product-shape1 shape" points="345.96 441.76 343.75 444.96 341.04 448.4 339.81 450.94 338.17 455.12 337.19 459.38 335.8 462.82 333.83 465.12 331.04 465.93 327.93 465.28 323.34 462.98 315.64 460.12 309.9 458.56 306.21 457.25 300.72 455.28 298.59 455.28 299.08 459.13 301.38 465.44 303.75 472.08 306.62 479.7 309.65 486.42 312.03 492.49 314.33 498.63 316.7 505.35 322.27 517.97 324.32 523.22 326.54 528.71 330.55 537.64 332.6 542.07 334.81 546.33 337.35 550.43 340.71 555.75 343.58 560.34 345.55 564.52 345.55 558.54 345.22 549.44 345.14 541.58 345.22 531.82 345.96 526.41 346.7 520.76 348.17 515.35 350.71 509.12 352.77 503.14 354.73 497.57 358.09 490.36 360.55 485.68 362.84 481.34 364.81 476.67 367.68 473.06 370.22 471.18 371.2 468.15 373.33 463.89 375.38 459.13 377.1 455.77 379.31 451.92 374.56 450.45 368.66 448.56 363.17 447 358.33 445.53 352.77 443.73 348.33 442.33 345.96 441.76"/>
  <polygon class="product-shape1 shape" points="652.59 437.12 658.37 437.05 664.09 437.78 668.99 439.17 675.36 440.71 682.47 441.51 688.91 443.2 685.58 449.19 683.5 453.58 681.19 456.87 681.8 459.43 684.11 462.48 689.96 467.23 695.08 471.01 700.81 474.42 707.64 479.18 712.27 482.59 715.93 485.52 718.52 488.18 714.36 495.44 711.12 501.28 708.28 506.02 705.44 510.28 703.31 514.22 701.26 518.17 699.68 522.99 698.81 526.85 695.79 526.85 694.01 521.72 692.77 515.99 691.9 511.41 691.9 507.72 690.45 503.01 688.28 496.52 685.74 489.77 683.7 484.55 681.67 479.33 680.26 474.75 677.85 467.36 676.12 462.03 674.85 456.5 673.38 452.04 672.32 448.84 670.64 446.46 667.86 443.92 665.07 442.71 661.57 442 658.12 441.29 655.99 439.92 652.59 437.12"/>
  <polygon class="product-shape1 shape" points="822.53 410.65 816.87 408.42 813.29 406.1 809.07 403.35 802.27 397.29 812.4 400.87 820.36 404.36 827.98 407.21 833.86 409.5 839.82 412.72 844.69 416.39 851.12 421.44 855.07 425 858.37 430.25 860.67 434.57 862.96 440.17 865.44 446.32 866.63 452.47 866.63 456.35 865.71 452.76 862.03 446.41 857.52 437.22 851.67 427.86 846.49 423.19 839.98 417.84 836.28 415.29 831.27 413.04 825.21 411.28 822.53 410.65"/>

  <!--part2-->
    <polygon class="product-shape2 shape" points="718.52 488.18 722.3 480.88 727.56 472.92 732.66 465.59 736.97 459.22 740.76 453.58 741.51 452.34 746.1 446.87 750.2 441.78 755.04 435.82 759.88 431.23 764.85 425.89 769.57 421.3 773.04 416.95 773.66 413.73 777.42 411.75 782.36 409.36 784.4 408.9 790.95 408.42 798.57 408.42 805.36 408.78 810.05 408.84 815.45 409.08 821.16 410.33 825.21 411.28 831.27 413.04 836.28 415.29 839.98 417.84 846.49 423.19 851.67 427.86 857.52 437.22 862.03 446.41 865.71 452.76 867.04 457.94 868.05 461.94 870.72 466.29 872.56 470.13 873.12 472.46 869.26 475.21 864.47 477.75 859.99 478.57 855.21 479.79 849 481.01 844.32 481.93 838.41 482.74 831.18 483.96 825.08 483.96 817.75 484.57 811.43 484.98 802.68 485.79 791.79 486.2 779.88 486.81 766.13 487.02 757.58 487.93 748.73 487.83 739.16 487.63 727.1 487.69 718.52 488.18"/>

 
  <polygon class="product-shape2 shape" points="698.81 526.85 705.05 525.51 706.47 524.96 714.44 525.04 725.02 525.04 732.91 524.96 741.99 524.88 749.64 524.72 756.67 523.93 763.22 523.3 770.64 522.2 780.59 521.25 788.88 521.01 795.82 520.3 801.58 519.28 808.45 518.65 815.24 517.46 822.11 517.15 827.56 516.04 832.61 515.49 837.5 514.38 842.47 513.67 846.89 512.65 852.89 511.23 857.79 510.36 862.52 509.57 866.55 508.07 870.65 506.88 874.68 505.54 878.86 502.38 879.19 506.91 880.37 511.47 881.89 516.58 882.74 521.19 882.28 524.58 881.82 530.12 881.97 537.35 882.12 543.58 881.97 550.12 881.66 556.66 880.66 565.51 879.66 571.82 879.2 575.67 878.12 579.13 877.12 583.52 875.97 587.6 874.43 592.37 873.97 597.21 872.35 601.68 870.66 608.22 868.27 613.53 867.27 619.14 866.04 623.07 864.81 628.15 863.2 633.53 861.96 638.07 860.04 644.38 858.35 651.61 856.35 656.23 855.19 660.86 853.2 665.98 850.23 670.26 847.78 673.41 845.11 674.91 841.52 679.17 839.68 681.76 837.01 684.43 835.59 686.52 833.42 689.27 830.83 692.53 827.91 695.45 824.49 699.13 821.15 702.13 817.56 704.97 813.8 708.23 810.63 711.57 807.62 715.16 804.45 719.41 801.78 723.42 801.78 725.34 795.23 729.05 788.15 733.66 783.37 736.46 779.26 739.43 774.98 741.24 769.71 742.23 762.13 742.23 752.25 740.74 744.84 739.43 736.97 737.9 735.38 736.31 733.49 735 729.87 735 726.54 731.96 722.91 728.48 716.54 721.67 712.05 716.6 707.26 711.09 702.77 705.87 700.16 702.39 699.44 698.63 698.57 696.31 695.96 692.11 693.93 688.19 692.77 685.58 691.47 680.87 690.02 677.25 688.42 675.37 688.13 667.03 686.83 664.43 686.68 655.59 685.09 651.82 686.39 646.75 686.54 640.37 686.39 634.36 687.7 632.4 687.12 628.49 685.38 625.59 686.1 620.66 687.7 617.04 687.26 613.27 686.1 611.39 685.67 606.31 687.41 602.4 687.7 599.5 686.39 596.6 684.95 591.24 685.38 587.62 686.68 585.88 685.38 581.39 684.95 579.07 687.26 575.74 688.57 572.84 689 569.21 690.45 566.61 692.77 564.87 691.32 560.95 690.02 556.61 689.44 552.11 690.16 548.78 691.9 544.72 693.53 541.91 693.67 538.65 695.66 535.38 698.07 533.25 698.81 528.99 698.81 526.85"/>
 
  <!--part3-->
        <polygon class="product-shape3 shape" points="607.71 445.98 613.05 447.51 620.31 449.16 625.65 450.82 630.97 452.09 636.22 453.58 640 454.89 643.35 456.19 643.35 461.51 640 462.78 636.09 464.31 629.51 467.29 625.53 469.55 618.53 474.18 614.95 476.96 611.91 478.94 608.47 481.99 604.5 485.16 600.53 488.95 597.22 492.05 594.3 495.09 591.92 498.27 589.41 500.78 587.02 504.22 583.58 503.7 580.01 502.64 576.04 502.77 572.89 506.17 565.2 504.71 552.94 500.91 543.99 498.48 533.87 495.47 526.77 493.42 520.35 491.67 515.39 490.31 511.11 488.95 494 484.24 490.59 483.18 485.07 481.87 477.72 479.9 467.61 477.01 460.51 474.78 453.16 472.68 445.68 470.58 437.67 468.21 431.36 466.51 423.62 464.41 417.31 462.57 410.75 460.6 403.52 458.5 398.93 457.18 395.78 456.19 393.68 456.19 389.54 455.12 386.1 453.58 381.73 452.6 379.31 451.92 374.56 450.45 368.66 448.56 363.17 447 358.33 445.53 352.77 443.73 348.33 442.33 345.96 441.76 341.75 440.69 337.52 439.9 333.81 438.44 329.18 437.38 323.88 435.79 318.85 434.73 314.22 433.09 309.99 432.09 306.41 431.16 302.16 429.49 298.19 427.99 293.97 427.32 291.06 426.26 286.27 424.26 280.84 421.83 276.27 420.4 271.99 419.97 267.85 420.83 270.01 415.81 272.79 411.17 274.41 409.55 277.2 404.91 279.23 401.1 281.51 396.12 284.04 391.22 286.83 387.17 289.71 383.04 291.06 381.15 291.85 378.21 293.84 374.77 295.82 372.52 300.02 372.52 305.49 374.24 312.78 375.57 319.65 377.65 326.8 378.74 333.81 380.73 344.8 383.24 353.8 385.49 362.8 387.21 371.4 389.6 379.31 391.22 386.63 392.77 393.77 394.63 400.52 396.48 406.61 397.67 412.7 398.86 419.58 400.98 425.8 402.44 432.95 404.42 441.16 406.28 457.04 410.38 465.51 412.5 474.91 414.61 484.84 416.86 494.77 419.51 503.63 421.23 513.43 423.35 520.58 425 528.65 427.19 537.65 429.31 561.08 434.73 570.52 436.59 579.21 439.34 588.88 441.22 595.5 442.81 602.78 444.53 607.71 445.98"/>

  <polygon class="product-shape3 shape" points="691.9 544.72 693.53 541.91 693.67 538.65 695.66 535.38 698.07 533.25 698.81 528.99 695.79 526.85 694.01 521.72 692.77 515.99 691.9 511.41 691.9 507.72 690.45 503.01 688.28 496.52 685.74 489.77 683.7 484.55 681.67 479.33 680.26 474.75 677.85 467.36 673.26 466.47 668.43 467.87 665.24 468.89 662.95 470.17 660.66 471.57 658.75 472.46 656.08 473.09 653.41 472.46 650.73 471.95 648.06 469.53 646.69 467.11 643.09 467.24 638.26 469.78 633.55 472.46 626.93 476.4 622.22 479.2 617.38 482.13 613.82 485.06 610.5 487.73 607.32 490.79 603.25 494.61 599.81 498.43 597.14 501.86 594.72 504.54 591.92 507.72 591.92 510.14 593.51 512.77 596.14 513.46 600.81 515.02 604.8 516.19 609.95 517.84 614.82 519.5 619.68 520.76 626.49 522.8 630.97 523.87 633.8 525.03 637.75 526.3 640.93 526.85 644.11 528.34 647.68 529.49 652.63 530.81 659.29 532.55 663.35 533.56 667.84 535.3 672.48 537.04 678.42 538.93 683.64 541.1 688.57 542.69 691.9 544.72"/>
 

 <!--part4-->
  <polygon class="product-shape4 shape" points="274.41 409.55 277.2 404.91 279.23 401.1 281.51 396.12 284.04 391.22 286.83 387.17 289.71 383.04 291.06 381.15 289.53 379.17 287.29 377.65 285.58 379.44 283.24 382.05 281.09 385.1 279.2 388.07 277.23 391.22 275.07 394.98 273.45 397.41 272.02 401.09 270.85 403.51 271.93 407.64 274.41 409.55"/>
   <polygon class="product-shape4 shape" points="718.52 488.18 714.36 495.44 711.12 501.28 708.28 506.02 705.44 510.28 703.31 514.22 701.26 518.17 699.68 522.99 698.81 526.85 705.05 525.51 706.47 524.96 714.44 525.04 725.02 525.04 732.91 524.96 741.99 524.88 749.64 524.72 756.67 523.93 763.22 523.3 770.64 522.2 780.59 521.25 788.88 521.01 795.82 520.3 801.58 519.28 808.45 518.65 815.24 517.46 822.11 517.15 827.56 516.04 832.61 515.49 837.5 514.38 842.47 513.67 846.89 512.65 852.89 511.23 857.79 510.36 862.52 509.57 866.55 508.07 870.65 506.88 874.68 505.54 877.36 503.81 878.86 502.38 880.76 500.41 879.81 496.15 879.5 491.65 878.94 488.18 878.55 484.7 877.76 481.55 877.05 478.39 875.94 474.91 874.76 472.47 873.12 472.46 869.26 475.21 864.47 477.75 859.99 478.57 855.21 479.79 849 481.01 844.32 481.93 838.41 482.74 831.18 483.96 825.08 483.96 817.75 484.57 811.43 484.98 802.68 485.79 791.79 486.2 779.88 486.81 766.13 487.02 757.58 487.93 748.73 487.83 739.16 487.63 727.1 487.69 718.52 488.18"/>


  <!--elastic1-->
  <polygon class="elastic1 shape" points="644.15 548.67 646.69 550.88 648.57 554 651.32 558.92 652.63 564.87 653.35 571.1 653.35 578.63 653.35 588.05 653.93 596.17 653.93 604.14 653.93 612.11 653.93 620.23 653.93 626.46 653.21 634.28 651.9 642.4 649.04 640.22 646.69 637.69 645.8 635.87 646.69 630.56 646.69 618.03 646.69 604.33 646.69 589 646.69 574.26 646.69 566 645.36 563.57 643.59 560.7 642.57 558.48 641.83 553.84 642.57 550.46 644.15 548.67"/>
  <polygon class="elastic1 shape" points="277.84 446.96 275.53 450.27 273.95 453.58 272.25 457.72 271.18 460.81 269.98 464.41 269.16 467.69 268.15 473.24 267.85 476.65 267.2 484.54 267.2 489.9 267.2 497.92 267.58 502.02 268.08 506.37 268.84 510.41 269.91 514.95 272.88 524.04 274.2 528.4 275.91 532.06 280.33 541.08 283.92 547.52 286.64 551.74 288.78 556.22 292.5 561.37 297.14 566.73 303.22 572.45 309.47 576.92 316.44 582.06 322.87 585.85 329.49 589.25 336.28 592.46 345.15 595.26 345.15 592.62 345.25 590.29 338.18 587.57 331.95 584.39 324.17 580.76 320.21 578.1 313.21 573.43 307.31 568.44 303.03 564.54 298.86 559.67 293.27 551.14 289.37 545.31 286.06 539.72 283.12 533.9 279.88 526.21 276.45 515.28 275.13 510.35 273.43 503.14 273.27 498.76 272.79 494.43 272.79 485.18 273.63 480.2 274.77 473.53 276.21 467.16 277.54 462.54 279.34 457.37 282.1 452.09 283.89 451.56 281.12 450.61 279.43 449.77 277.84 446.96"/>
  <polygon class="elastic1 shape" points="289.73 453.96 290.37 452.05 293.73 453.01 298.59 455.28 299.08 459.13 301.38 465.44 303.75 472.08 306.62 479.7 309.65 486.42 312.03 492.49 314.33 498.63 316.7 505.35 322.27 517.97 324.32 523.22 326.54 528.71 330.55 537.64 332.6 542.07 334.81 546.33 337.35 550.43 340.71 555.75 343.58 560.34 345.55 564.52 345.55 558.54 345.22 549.44 345.14 541.58 345.22 531.82 345.96 526.41 346.7 520.76 348.17 515.35 350.71 509.12 352.77 503.14 354.73 497.57 358.09 490.36 360.55 485.68 362.84 481.34 364.81 476.67 367.68 473.06 370.22 471.18 370.98 474.4 371.46 476.39 365.58 489.41 362.6 497.22 358.05 506.45 355.78 512.42 353.93 518.53 351.94 527.62 351.23 532.45 351.23 541.54 351.23 551.77 351.23 560.58 351.94 565.84 352.09 572.09 356.35 575.5 361.35 579.48 368.28 585.3 374.67 589.56 381.78 593.79 389.17 598.8 397.26 602.92 406.5 608.32 413.18 611.73 416.02 614.28 421.42 616.98 428.38 620.82 434.2 623.66 439.17 626.08 440.18 627.58 438.98 629.74 437.9 631.79 433.7 629.74 428.17 626.62 422.76 624.1 415.92 620.49 410.03 617.49 405.34 614.73 399.94 611.73 392.97 607.76 391.97 607.19 391.97 606.19 385.46 602.97 380.09 599.75 375.44 596.17 370.5 592.66 365.77 589.58 362.48 586.93 359.33 584.85 357.32 583.21 354.24 582.06 355.17 586.64 357.32 590.22 359.9 593.79 362.91 597.24 363.77 598.68 363.41 600.55 362.33 601.99 359.33 601.87 356.57 599.47 352.77 593.79 351.22 590.49 349.08 586.34 347.65 582.19 346.55 577.06 346.55 574.01 342.01 569.6 339.35 566.3 336.88 562.66 334.42 558.38 331.56 553.32 329.16 548.85 327.15 544.96 325.14 540.87 323.13 535.75 320.99 531.66 318.98 526.99 317.04 522.94 315.03 517.85 312.04 510.78 309.9 505.39 307.89 500.92 306.33 496.9 304.78 492.62 302.77 487.49 301.34 482.56 299.2 477.96 297 472.06 295.63 467.91 294.66 464.02 293.36 460.25 292.2 457.72 291.16 455.84 289.73 453.96"/>
  <polygon class="elastic1 shape" points="386.07 471.81 389.02 473.22 392.13 477.44 395.05 480.53 397.38 484.4 399.7 487.93 402.37 492.32 404.43 497.22 406.58 501.18 409.25 506.08 411.74 511.25 416.56 520.62 419.83 526.9 422.17 531.77 425.72 538.86 429.79 546.74 433.33 553.58 437.53 561.58 441.21 568.15 444.76 573.92 447.38 578.65 448.57 581.41 450.14 577.07 451.82 571.43 454.21 565.26 456.18 559.22 458.55 553.58 460.78 547.13 462.62 541.49 465.11 535.32 468.13 529.14 471.15 523.63 474.7 517.85 477.72 513.91 481.13 510.37 484.02 507.87 486.52 506.95 487.16 510.13 488.41 512.77 486.33 514.27 483.41 517.77 480.74 520.85 477.99 525.02 475.41 529.77 472.99 535.02 470.66 539.94 468.49 544.86 466.24 550.95 464.4 556.45 462.57 561.78 460.57 568.37 457.9 576.12 455.73 581.79 453.37 587.79 454.73 592.71 456.65 596.96 458.54 601.13 460.49 604.71 462.74 610.21 464.57 614.05 466.9 614.55 469.49 614.55 471.99 614.96 472.82 616.38 475.66 616.71 480.41 617.38 485.08 617.72 490.16 618.47 499.71 619.8 506.25 620.38 512.75 620.72 516.92 621.13 518.92 621.8 521.34 623.45 522.42 625.05 522.25 627.8 521.75 631.8 521.59 636.64 521.59 641.31 522.34 645.47 523.92 650.2 526.51 655.73 528.84 659.98 533.17 662.23 538.09 664.31 544.26 667.06 549.01 669.06 551.62 669.81 549.34 672.09 548.47 674.06 545.74 674.06 542.54 672.19 539.33 670.92 541.66 673.26 544.97 675.2 549.92 677.53 554.78 679.08 559.25 680.87 563.52 681.51 564.88 680.87 564.88 678.31 565.66 676.66 566.77 676.17 566.77 674.06 566.18 670.98 566.18 664.9 566.18 657.31 566.18 649.06 565.6 647.64 562.6 642.89 560.18 639.47 557.76 634.22 555.43 629.22 552.93 624.13 550.85 619.05 547.51 611.38 545.59 606.96 543.43 602.29 541.43 597.13 539.26 590.71 537.59 585.87 535.17 579.7 533.01 574.62 531.42 569.87 530.26 566.12 528.76 562.37 527.26 558.61 525.5 553.58 523.75 548.11 522.09 543.28 520.17 538.86 517.92 534.61 515.92 530.44 513.75 526.86 511.83 523.69 509.42 520.44 507.17 517.35 505.04 515.67 503.68 514.4 503.38 509.06 504.26 506.82 506.59 507.5 509.51 509.64 510.07 511.03 513.64 515.02 516.46 518.8 519.28 523.48 522.01 529.22 524.63 535.06 528.72 544.4 531.54 552.18 533.97 559.87 538.25 570.77 540.68 577.38 544.87 586.92 547.98 595.57 551.68 605.21 554.99 612.5 558.88 620.48 561.89 626.51 567.24 636.92 568.22 638.19 569 637.02 569 631.96 570.55 625.64 572.94 618.05 575.03 610.65 577.46 604.23 580.86 598.1 585.92 586.82 589.04 580.5 591.86 575.53 595.46 570.18 599.06 565.32 603.53 559.87 608.2 555.2 611.41 551.89 615.3 548.97 618.42 547.22 622.21 545.76 622.21 549.09 622.37 553.03 616.33 557.31 612.64 560.84 608.96 564.68 605.86 568.8 600.55 575.88 596.72 581.48 592.74 589.29 588.76 598.13 584.27 605.95 580.95 615.09 578.44 623.45 576.68 631.15 575.05 638.19 574.32 645.01 574.32 646.63 578.74 650.9 581.98 654.74 587.29 660.63 592.15 665.35 599.23 671.39 603.5 675.37 608.51 674.06 612.05 673.45 615.29 672.57 618.54 670.65 621.78 668.88 624.93 665.39 627.75 662.28 632.12 658.97 635.32 660.43 637.27 663.83 636.59 665.48 632.6 667.72 633.58 668.2 637.27 667.23 641.06 665.97 646.69 664.61 648.57 665.58 650.29 668.01 653.3 670.92 655.53 673.35 648.57 673.45 641.35 674.62 635.13 676.27 629.92 677.25 623.23 679.12 616.75 680.87 613.13 682.41 615.65 684.72 620.59 689 625.31 692.29 630.97 695.8 636.07 698.88 641.67 702.61 649.57 706.56 656.93 710.51 664.39 713.48 672.4 716.44 677.56 718.31 674.82 714.35 671.86 710.4 668.67 704.58 666.59 700.52 670.82 700.95 675.09 701.09 677.56 705.73 680.16 710.22 683.79 714.71 686.68 718.31 690.6 721.81 694.65 725 698.13 726.74 701.32 727.9 706.68 728.77 710.02 729.93 707.99 730.4 707.07 732.73 704.67 734.47 700.85 734.47 696.12 733.22 692.31 731.4 688.07 728.41 682.93 724.68 679.86 724.51 674.88 722.52 670.15 720.7 662.6 718.31 651.65 714.06 646.51 711.57 640 708.58 634.98 705.68 630.41 702.78 625.19 699.96 620.21 696.64 616.39 693.57 611.16 690 608.43 687.76 605.11 685.27 601.13 686.93 597.23 688.34 591 689.67 583.87 690.58 576.82 691.24 571.09 691.58 566.77 691.99 561.22 692.57 557.9 692.99 551.68 692.99 545.04 692.99 534.75 692.99 530.94 692.82 527.87 692.24 525.46 690.91 522.72 688.84 519.4 685.68 516.08 680.13 513.1 673.57 511.77 670.25 509.36 666.1 507.12 661.71 505.88 659.55 502.48 658.72 496.84 656.17 490.45 653.25 486.47 650.59 482.84 648.84 480.3 647.01 477.13 644.72 473.72 641.31 471.42 639.17 469.36 636.15 468.25 634.33 465.56 634.97 462.55 634.89 460.33 634.25 458.19 632.35 456.36 629.58 455.17 626.4 455.65 624.77 455.79 623.43 456.86 622.49 458 620.88 458.54 618 457.67 615.52 456.06 612.1 454.58 608.07 450.49 598.68 448.61 601.83 448.21 605.12 448.75 609.41 449.75 613.5 451.82 617.93 453.37 621.49 454.62 624.77 455.02 628.23 456.2 631.02 458.54 634.17 459.22 636.08 458.03 638.19 455.41 638.19 452.72 637.03 452.16 635.28 452.24 631.79 451.82 630.76 448.41 625.65 445.99 621.39 443.58 614.85 442.02 610.88 441.73 602.21 442.44 598.66 443.58 593.79 445.28 589.99 446.14 587.72 442.73 581.89 438.04 573.23 434.49 567.26 431.64 561.86 426.96 553.58 423.97 548.36 421.98 543.82 418.72 537.14 415.02 530.18 412.47 525.21 409.2 519.1 406.64 513.7 404.51 509.58 402.24 504.46 399.68 500.06 397.26 495.8 393.85 489.69 392.01 486.42 390.02 483.3 387.75 481.45 386.07 480.07 385.02 477.54 385.02 474.76 386.07 471.81"/>

  <polygon opacity="NaN" fill="#fff" class="shape" points="518.22 663.91 520.95 664.72 522.93 665.84 524.73 668 526.83 671.23 529.62 673.64 532.41 676.43 535.57 679.04 537.87 680.83 539.97 682.01 542.39 683.62 544.62 684.31 544.62 685.05 540.9 685.05 536.81 685.05 533.4 684 530.62 682.94 527.33 681.58 524.85 679.22 523.49 676.68 522.12 674.06 520.88 670.98 519.64 668.5 518.9 666.58 518.22 663.91"/>


  <polygon class="elastic1 shape" points="604.58 691.75 611.08 693.54 617.82 694.71 616.39 693.57 611.16 690 608.43 687.76 605.11 685.27 601.13 686.93 597.23 688.34 595.22 688.77 600.24 690.99 604.58 691.75"/>
  <polygon class="elastic1 shape" points="644.15 548.67 646.69 550.88 648.57 554 651.32 558.92 652.63 564.87 653.35 571.1 653.35 578.63 653.35 588.05 653.93 596.17 653.93 604.14 653.93 612.11 653.93 620.23 653.93 626.46 653.21 634.28 651.9 642.4 649.04 640.22 646.69 637.69 645.8 635.87 646.69 630.56 646.69 618.03 646.69 604.33 646.69 589 646.69 574.26 646.69 566 645.36 563.57 643.59 560.7 642.57 558.48 641.83 553.84 642.57 550.46 644.15 548.67"/>
  <polygon class="elastic1 shape" points="386.05 471.73 388.35 473.11 391.11 475.1 392.13 477.44 395.05 480.53 397.38 484.4 399.7 487.93 402.37 492.32 404.43 497.22 406.58 501.18 409.25 506.08 411.74 511.25 416.56 520.62 419.83 526.9 422.17 531.77 425.72 538.86 429.79 546.74 433.33 553.58 437.53 561.58 441.21 568.15 444.76 573.92 447.38 578.65 448.57 581.41 446.14 587.72 442.73 581.89 438.04 573.23 434.49 567.26 431.64 561.86 426.96 553.58 423.97 548.36 421.98 543.82 418.72 537.14 415.02 530.18 412.47 525.21 409.2 519.1 406.64 513.7 404.51 509.58 402.24 504.46 399.68 500.06 397.26 495.8 393.85 489.69 392.01 486.42 390.02 483.3 387.75 481.45 386.05 479.05 384.64 476.39 386.05 471.73"/>
  <polygon class="elastic1 shape" points="486.52 506.95 484.02 507.87 481.13 510.37 477.72 513.91 474.7 517.85 471.15 523.63 468.13 529.14 465.11 535.32 462.62 541.49 460.78 547.13 458.55 553.58 456.18 559.22 454.21 565.26 451.82 571.43 450.14 577.07 448.57 581.41 446.14 587.72 445.28 589.99 443.58 593.79 442.44 598.66 441.73 602.21 442.02 610.88 443.58 614.85 445.99 621.39 448.41 625.65 451.82 630.76 451.82 633.34 451.82 637.04 453.37 638.19 455.93 638.96 457.98 638.19 459.63 635.95 459.9 634.3 457.98 631.79 456.34 627.73 455.65 624.77 453.37 621.49 451.82 617.93 449.75 613.5 448.75 609.41 448.21 605.12 448.61 601.83 450.49 598.68 453.37 587.79 455.73 581.79 457.9 576.12 460.57 568.37 462.57 561.78 464.4 556.45 466.24 550.95 468.49 544.86 470.66 539.94 472.99 535.02 475.41 529.77 477.99 525.02 480.74 520.85 483.41 517.77 486.33 514.27 488.41 512.77 487.02 509.91 486.52 506.95"/>
  <polygon class="elastic1 shape" points="458.54 618 456.06 612.1 454.58 608.07 450.49 598.68 453.37 587.79 454.73 592.71 456.65 596.96 458.54 601.13 460.49 604.71 462.74 610.21 464.57 614.05 466.9 614.55 469.49 614.55 471.99 614.96 472.82 616.38 475.66 616.71 480.41 617.38 485.08 617.72 490.16 618.47 499.71 619.8 506.25 620.38 512.75 620.72 516.92 621.13 518.92 621.8 521.34 623.45 522.42 625.05 522.25 627.8 521.75 631.8 521.59 636.64 521.59 641.31 522.34 645.47 523.92 650.2 526.51 655.73 528.84 659.98 533.17 662.23 538.09 664.31 544.26 667.06 549.01 669.06 551.04 669.64 548.06 675.37 543.89 673.44 541.11 671.92 539.21 671.8 543.14 674.06 546.78 676 550.69 677.47 555.68 679.45 560.23 680.87 565.15 682.21 565.15 683.38 551.05 685.05 544.62 685.05 544.62 684.31 542.39 683.62 539.97 682.01 537.87 680.83 535.57 679.04 532.41 676.43 529.62 673.64 526.83 671.23 524.73 668 522.93 665.84 521.09 661.46 519.03 657.27 517.61 654.4 516.29 650.81 515.29 646.78 514.08 643.18 514.08 638.04 514.19 633.12 514.91 628.04 512.2 627.27 505.95 627.27 499.15 626.71 493.79 625.77 485.39 624.5 474.73 623.45 476.99 625.55 479.65 627.16 482.46 628.81 485.73 631.02 489.15 632.79 492.47 634.78 496.28 637.99 500.32 641.19 504.35 645.28 507.22 649.04 509.93 651.25 511.58 653.67 513.14 655.07 515.87 656.17 519.03 657.27 521.09 661.46 522.93 665.84 520.95 664.72 518.22 663.91 512.06 661.52 506.63 660.43 505.09 656.89 502.65 653.37 499.71 650.2 498.49 648.27 496 646.11 493.3 643.46 490.04 641.08 486.78 638.71 483.51 636.27 479.37 634.4 474.29 631.02 474.62 632.79 476.66 634.89 479.59 637.88 483.35 640.97 488.54 644.56 492.8 647.05 496.67 648.88 499.71 650.2 502.65 653.37 505.09 656.89 506.63 660.43 500.29 657.54 493.81 655.31 488.82 653.01 483.35 649.47 478.53 646.41 474.29 642.55 471.15 639.81 468.09 638.21 465.38 636.81 463.3 636.06 459.63 635.95 459.9 634.3 457.98 631.79 456.34 627.73 455.65 624.77 456.86 622.49 458 620.88 458.54 618"/>
  <polygon class="elastic1 shape" points="510.48 668.54 507.82 663.91 506.63 660.43 512.06 661.52 518.22 663.91 518.9 666.58 519.64 668.5 520.88 670.98 522.12 674.06 523.49 676.68 524.85 679.22 527.33 681.58 530.62 682.94 533.4 684 536.81 685.05 540.9 685.05 544.62 685.05 551.05 685.05 565.15 683.38 567.46 682.67 571.52 682.09 576.07 681.5 579.04 680.87 582.99 680.04 587.01 678.93 591.65 678.24 595.6 677.2 603.5 675.37 608.51 674.06 612.05 673.45 615.29 672.57 618.54 670.65 621.78 668.88 624.35 665.97 627.5 663.05 630.3 661.07 632.63 658.62 634.62 659.9 636.37 662 637.18 663.91 636.02 665.85 633.33 667.72 640 666.09 644.76 665.15 648.57 664.8 650.01 667.02 652.16 669.52 654.53 671.84 655.61 673.04 649.14 673.83 642.53 674.91 638.15 675.85 633.2 676.85 629.92 677.25 623.23 679.12 616.75 680.87 613.13 682.41 609.19 683.68 605.11 685.27 601.13 686.93 597.23 688.34 595.22 688.77 590.18 689.99 584.27 690.9 577.24 691.81 568.88 691.81 559.6 693.07 542.53 693.07 532.46 693.07 527.07 692.38 522.84 689.99 519.4 686.54 517 682.88 515.39 678.87 513.33 674.48 510.48 668.54"/>
  <polygon class="elastic1 shape" points="666.59 700.52 670.25 700.52 675.09 701.09 677.56 705.73 680.16 710.22 683.79 714.71 686.68 718.31 690.6 721.81 694.65 725 698.13 726.74 701.32 727.9 706.68 728.77 710.02 729.93 708.19 732.19 706.12 734.56 703.14 735.29 698.95 734.38 692.77 732.01 686.6 728.24 682.23 725.44 674.02 722.71 664.1 719.54 655.89 716.81 646.71 713.04 640.63 709.51 634.31 706.17 627.8 701.91 622.57 698.62 617.82 694.71 616.39 693.57 611.16 690 608.43 687.76 605.11 685.27 609.19 683.68 613.13 682.41 615.65 684.72 620.59 689 625.31 692.29 630.97 695.8 636.07 698.88 641.67 702.61 649.57 706.56 656.93 710.51 664.39 713.48 672.4 716.44 677.56 718.31 674.82 714.35 671.86 710.4 668.67 704.58 666.59 700.52"/>
  <polygon class="elastic1 shape" points="565.15 682.21 564.74 679.32 565.92 676.79 566.77 674.06 566.18 670.98 566.18 664.9 566.18 657.31 566.18 649.06 562.6 642.89 560.18 639.47 557.76 634.22 552.93 624.13 547.51 611.38 545.59 606.96 543.43 602.29 541.43 597.13 539.26 590.71 537.59 585.87 535.17 579.7 533.01 574.62 531.42 569.87 530.26 566.12 528.76 562.37 527.26 558.61 525.5 553.58 523.75 548.11 522.09 543.28 520.17 538.86 517.92 534.61 515.92 530.44 513.75 526.86 511.83 523.69 509.42 520.44 507.17 517.35 504.96 516.31 503.29 514.67 502.98 511.73 502.98 508.52 503.94 507.09 505.92 506.95 509.11 509.07 510.07 511.03 513.64 515.02 516.46 518.8 519.28 523.48 522.01 529.22 524.63 535.06 528.72 544.4 531.54 552.18 533.97 559.87 538.25 570.77 540.68 577.38 544.87 586.92 547.98 595.57 551.68 605.21 554.99 612.5 558.88 620.48 561.89 626.51 567.24 636.92 568.22 638.19 569 637.02 569 631.96 570.55 625.64 572.94 618.05 575.03 610.65 577.46 604.23 580.86 598.1 585.92 586.82 589.04 580.5 591.86 575.53 595.46 570.18 599.06 565.32 603.53 559.87 608.2 555.2 611.41 551.89 615.3 548.97 618.42 547.22 622.21 545.76 622.21 549.35 622.37 553.03 616.33 557.31 612.64 560.84 608.96 564.68 605.86 568.8 600.55 575.88 596.72 581.48 592.74 589.29 588.76 598.13 584.27 605.95 580.95 615.09 578.44 623.45 576.68 631.15 575.05 638.19 574.32 645.01 574.32 646.63 578.74 650.9 581.98 654.74 587.29 660.63 592.15 665.35 599.23 671.39 603.5 675.37 595.6 677.2 591.31 673.66 587.22 669.71 584.27 667.15 581.19 663.89 578.76 661.81 576.2 659.11 573.36 656.89 572.94 660.98 572.94 667.7 573.15 673.18 574.4 677.89 574.32 681.73 571.52 682.09 567.46 682.67 565.15 682.21"/>

</svg>