<!-- <svg viewBox="0 0 1280 800" xmlns="http://www.w3.org/2000/svg" xmlns:xlink="http://www.w3.org/1999/xlink">
 <g id="Layer_1">
  <title>Rolltop handlebarbag</title>
  <!-- bodybag -->
  <path class="product-shape1 shape" id="svg_27" d="m814.43318,565.00772l-0.7305,11.89965l-0.66656,9.33183l-0.8332,5.66576l6.6656,3.99936l6.99888,4.66592l6.6656,6.49896l6.83224,5.99904l6.49896,6.83224l7.16552,8.16536l6.33232,7.16552l8.66528,10.66495l-0.8332,-8.49864l-0.66656,-11.99807l-0.66656,-6.6656l-1.33312,-8.66528l-0.8332,-5.33248l-1.16648,-10.49831l-0.49992,-6.83224l-1.83304,-6.49896l-0.33328,-14.99759l-11.33151,0.33328l-12.99791,-0.49992l-10.99823,-0.8332l-10.10109,0.09842z" opacity="NaN"  fill="#fff"/>
  <path class="product-shape1 shape" id="svg_28" d="m776.10649,563.15274l-0.82447,4.66637l0,3.93295l-0.81936,5.08006l-2.78584,-3.27746l-1.96647,-1.31098l-2.62196,-0.98324l0.81936,-9.83237l0.98324,-0.32775l7.2155,2.05241z" opacity="NaN"  fill="#fff"/>
  <path class="product-shape1 shape"  style="vector-effect: non-scaling-stroke;" id="svg_29" d="m772.4072,598.20195l-4.61534,-2.93214l3.54366,6.53073l3.07739,3.71316l3.12314,5.12194l4.49732,6.8709l2.62343,4.37239l3.62284,3.99761l3.12314,4.87209l3.37299,4.12254l3.12314,3.62284l0.87448,2.74836l-2.12373,3.87269l-2.99821,2.62343l-0.87448,0.62463l-1.62403,0l-2.24866,-1.74896l-0.9994,1.49911l-0.37478,1.99881l0.4997,1.12433l-0.37478,1.24925l-1.87388,-0.62463l-0.24985,-2.62343l1.55043,-4.42696l-3.63632,-6.27265l-3.54541,-6.45447l-0.81817,-1.45453l-1.0909,-1.1818l-0.54545,1.36362l-0.27272,4.90903l-1.81816,0.54545l-0.99999,-0.63636l-2.36361,0.09091l-3.3636,-0.45454l-1.99998,-1.1818l-1.63634,-1.90907l-0.63636,-3.3636l-1.72725,-4.09086l-4.99994,-8.81808l-4.72722,-7.72718l-4.09086,-6.36356l-4.5454,2.63633l-7.909,4.09086l-7.63627,5.36357l-8.99989,6.72719l-2.54542,2.18179l-6.36356,5.90902l-4.36359,4.81813l-8.63626,8.63626l-4.09086,3.27269l-7.45446,6.54538l-6.90901,5.6363l-6.8181,5.27267l-6.18175,4.45449l9.18171,4.5454l3.81814,0.09091l11.45441,0.27272l10.09079,0.45454l3.09087,0l10.63624,1.1818l9.54534,1.36362l7.63627,1.0909l9.45443,0.63636l10.81806,0.81817l7.909,1.72725l12.63622,1.90907l3.3636,-0.54545l6.63629,0.27272l11.2726,1.1818l17.72707,1.81816l4.90903,0.36363l4.5454,-2.72724l3.63632,-0.90908l5.09085,0.45454l4.5454,1.81816l4.45449,4.81813l10.54533,-0.36363l10.99987,0.36363l9.90898,0.72726l0.99999,-4.5454l0.63636,-6.63629l-0.18182,-4.5454l-0.54545,-4.5454l-2.81815,-5.18176l-6.27265,-8.45445l-6.36356,-8.18172l-4.27268,-5.72721l-5.18176,-6.63629l-2.72724,-3.18178l-4.81813,-5.36357l-4.36359,-4.5454l-4.45449,-4.27268l-4.27268,-3.90905l-4.18177,-3.45451l-8.90899,-5.6363l-5.6363,-2.63633l1.90907,1.36362l0.18182,1.99998l-0.36363,1.0909l-1.45453,1.0909l-1.99998,0.63636l-2.2727,-1.1818l-2.99996,-1.54544l-1.54544,-0.99999l-3.3636,0.27272l-1.81816,-0.99999l-3.90905,-0.54545l-4.81813,-0.72726l-4.09086,-0.72726l-4.09086,-0.90908l-1.99998,0.09091l-1.85648,-1.97285z" opacity="NaN" fill="#fff"/>
  <path class="product-shape1 shape" stroke="null" style="vector-effect: non-scaling-stroke;" id="svg_30" d="m519.34985,543.67377l1.99486,13.74744l1.96068,8.43092l0.78427,5.29383l12.54835,5.29383l8.23485,5.4899l7.84272,4.11743l13.33262,8.43092l10.58767,7.64665l14.31296,9.99947l13.13655,9.01913l5.68597,3.52922l9.8034,8.03879l12.94049,10.58767l12.35228,9.8034l12.15621,9.21519l3.13709,-2.54888l7.25451,-4.3135l8.82306,-6.66631l9.21519,-7.84272l8.82306,-8.43092l8.03879,-8.62699l9.01913,-8.82306l7.84272,-6.86238l6.47024,-4.3135l12.35228,-7.64665l-2.35282,-0.98034l-2.74495,-2.15675l-1.17641,-4.3135l0.78427,-7.25451l2.94102,-3.72529l6.66631,-4.50956l4.50956,-1.76461l4.50956,-0.5882l0,-5.29383l0.5882,-5.09777l-10.19553,-0.78427l-18.03825,-1.76461l-19.99893,-1.56854l-6.86238,-0.5882l-17.05791,-0.98034l-17.05791,-1.17641l-18.23432,-0.78427l-15.8815,-0.98034l-17.25398,-1.17641l-17.05791,-1.37248l-17.45005,-1.37248l-8.62699,-0.98034l-10.58767,-1.17641l-7.45058,-0.78427l-11.37194,-0.98034l-8.82306,-0.5882l-10.42578,0.17339z" opacity="NaN" fill="#fff"/>
  <path class="product-shape1 shape" stroke="null" id="svg_31" d="m647.38223,665.87796l-2.853,-1.97458l-5.02666,-4.13469l-6.27417,-4.84785l-6.07811,-4.36734l-6.20306,-5.56101l-6.54135,-5.41879l-8.16374,-6.14922l-7.32563,-5.41879l-6.86238,-4.91896l-7.84272,-4.88444l-10.97981,-7.25451l-4.3135,-2.74495l-7.64665,-6.14922l-6.86238,-5.02666l-10.3916,-6.47024l-10.58767,-5.56101l-7.25451,-3.06598l-3.92136,-0.78427l0.5882,2.54888l-1.76461,0.98034l-2.15675,0.5882l-2.35282,-1.56854l-5.09777,-0.5882l-7.45058,-0.5882l-5.88204,-0.78427l-4.50956,-0.39214l-2.22786,-0.12496l-0.90923,-3.01213l-7.45058,2.35282l-2.6911,1.48017l-6.52409,4.99007l-6.47024,5.68597l-6.07811,5.88204l-6.14922,7.57554l-5.29383,7.96768l-4.24238,7.20067l-3.92136,6.66631l-3.97521,8.02152l9.85724,3.93862l11.37194,3.92136l10.46271,3.51196l11.88903,2.95828l13.33262,2.74495l10.32049,1.55128l15.56048,1.78188l14.7051,1.17641l11.05092,0.64205l6.34529,1.90683l6.52409,-0.19607l12.35228,0.5882l9.99947,1.17641l4.9017,1.30137l11.76408,0.26718l13.58254,0.24991l11.42168,0.92649l13.62117,0.51709l10.6246,0.88655z" opacity="NaN" fill="#fff"/>
  <path class="product-shape1 shape" id="svg_32" d="m432.75905,647.82151l12.96389,-0.16746l-10.74633,-4.62342l-1.24957,2.87402l-0.96798,1.91686z" opacity="NaN" stroke="null" fill="#fff"/>
  <path class="product-shape1 shape" stroke="null" style="vector-effect: non-scaling-stroke;" id="svg_33" d="m487.24047,542.10757l1.09294,12.07837l0.99965,2.49915l-0.37487,7.99727l0.12496,4.74838l-7.12257,2.37419l-6.12291,3.37385l-4.9983,3.12393l-6.12291,5.12325l-6.49778,6.12292l-6.37283,7.37248l-2.24923,2.99898l-4.49847,6.62274l-5.2482,7.87231l-4.87334,8.12223l-5.74804,11.24616l-6.62274,-3.24889l-4.74838,-2.12427l-7.87232,-2.74906l-12.87061,-5.873l-6.74769,-3.24889l-15.36976,-9.37181l-11.49608,-6.87265l-7.12257,-4.74838l-4.74838,-3.12394l-8.62206,-6.62274l-10.87129,-8.37214l-8.24718,-5.74804l-7.12258,-5.12325l-3.12393,-2.99898l10.24651,0.74975l7.49744,0.8747l8.12223,1.24957l9.24684,0.62479l7.49744,1.37453l7.87232,0.8747l5.87299,0.99966l6.24787,1.12462l3.99864,0.99966l1.7494,-3.49881l-0.62478,-8.12223l-0.87471,-8.37214l-1.12461,-4.37351l1.37453,-5.12325l1.24957,-5.49813l0,-2.87402l12.6207,1.24958l9.74667,0.37487l11.99591,0.74974l15.86959,0.99966l13.49539,0.8747l7.12257,0.24992l8.37215,0.99966l3.24889,0.37487l7.6224,0.37487l10.49642,0.62479l4.6551,0.66728z" opacity="NaN" fill="#fff"/>
  <path class="product-shape1 shape" stroke="null" id="svg_35" d="m426.7611,639.9492l-3.15561,5.20571l-1.7494,1.7494l-3.12393,0.12496l-2.37419,-1.62445l-13.4954,-1.62445l-12.62069,-0.37487l-9.24685,-0.62479l-5.37317,-0.62479l-15.86959,-0.62479l-13.12052,-1.62445l-6.62274,-0.74974l-6.24787,-0.62479l-7.87231,-1.7494l-6.49778,-2.49915l-7.49744,-3.62376l-8.4971,-6.7477l-9.87163,-9.24685l-5.49812,-6.24787l-6.12291,-7.87231l-5.49812,-9.49676l-5.49812,-11.24616l-4.62342,-13.12052l-1.12462,-8.62206l0.99966,-3.37385l4.12359,1.62445l7.37248,1.24957l5.99795,1.62445l2.12428,0.74974l1.7494,-1.49949l10.62138,6.37283l12.99557,7.99727l11.62104,8.62206l18.24378,13.87027l14.49506,9.87163l11.12121,6.62274l11.24616,7.12257l14.49506,7.37248l6.49778,2.6241l4.62342,1.37453l10.12155,4.24855l10.74633,4.87334l2.40587,0.54233z" opacity="NaN" fill="#fff"/>
  <path class="product-shape1 shape" id="svg_36" d="m236.2011,514.86687l1.59277,3.58127l8.99693,1.99932l14.3701,3.74872l0.49983,24.6166l-1.62445,-0.37487l-1.24957,1.87436l-0.74974,4.37351l-0.24991,4.74838l0.37487,5.873l0.49983,3.99864l-2.49915,-3.62376l-4.24855,-8.87197l-3.87368,-5.99795l-3.12393,-7.49744l-3.62376,-6.37283l-1.37453,-6.99761l0.24991,-3.24889l-1.7494,-4.99829l-1.7494,-3.49881l-0.46816,-3.33135z" opacity="NaN" stroke="null" fill="#fff"/>
<!-- body -->
  <path class="product-shape1 shape" style="vector-effect: non-scaling-stroke;" id="svg_23" d="m811.76685,438.57991l-20.71936,-0.2275l-19.67092,1.24999l-11.3815,0.65789l-5.52628,0.92105l-9.67099,0.5921l-8.421,0.52631l-20.32882,0.06579l-48.35495,-1.1842l-41.11815,-0.72368l-30.92085,-0.52631l-30.6577,-0.13158l-31.38138,-1.05262l-27.6314,-0.98684l-31.57874,-0.26316l-18.74988,-1.44736l-21.51302,-0.65789l-14.86832,-0.92105l-32.63137,-1.24999l-13.35518,-0.85526l-30.46033,-0.85526l-47.30232,-1.97367l-12.43413,-0.52631l-0.85526,-3.09209l-2.56577,-2.03946l-3.68419,-1.51315l-4.40787,-0.98684l-7.63153,-0.72368l-14.93411,0.13158l-2.43419,0.19737l0.65789,-3.15787l0.26316,-1.24999l2.10525,-3.74998l1.84209,-3.68419l2.76314,-4.53944l0.92105,-1.64473l-0.06579,-3.6184l1.24999,-3.22366l3.55261,-1.64473l5.59207,-0.06579l1.44736,-0.85526l4.53944,-1.51315l7.63153,-3.35524l8.28942,-3.48682c0.0616,0.03013 9.79838,-2.93038 9.79838,-2.93038c0,0 8.35521,-2.03946 8.29361,-2.06959c0.0616,0.03013 3.6142,-0.69355 6.64469,-1.1842c0.0616,0.03013 7.56155,-1.15407 7.49995,-1.1842c0.0616,0.03013 8.54838,-1.02249 8.48679,-1.05262c0.0616,0.03013 6.90366,-0.23303 6.84206,-0.26316c0.0616,0.03013 0.12739,1.4117 0.06579,1.38157c0.0616,0.03013 -6.51731,2.13538 -6.5789,2.10525c0.0616,0.03013 -7.63572,1.01697 -7.69732,0.98684c0.0616,0.03013 -7.96467,0.95118 -8.02626,0.92105c0.0616,0.03013 12.36415,-0.16724 12.30255,-0.19737c0.0616,0.03013 5.71945,-0.9567 5.65786,-0.98684c0.0616,0.03013 6.11419,-0.89092 6.05259,-0.92105c0.0616,0.03013 8.81154,0.55644 8.74994,0.52631c0.0616,0.03013 9.53522,0.2275 9.47362,0.19737c0.0616,0.03013 9.00891,0.29329 8.94731,0.26316c0.0616,0.03013 10.71942,0.35908 19.40777,-0.06579c0.0616,0.03013 7.49576,-0.03566 7.43416,-0.06579c0.0616,0.03013 7.36418,1.34591 7.36418,1.28012c0,-0.06579 7.03943,0.26316 6.97783,0.23303c0.0616,0.03013 6.72627,1.03285 12.89465,0.46052c0.0616,0.03013 8.87733,0.03013 8.81573,0c0.0616,0.03013 6.6405,0.16171 6.5789,0.13158c0.0616,0.03013 6.77208,0.42487 6.71048,0.39473c0.0616,0.03013 10.32469,0.29329 10.26309,0.26316c0.0616,0.03013 5.85103,0.2275 11.84203,0.19737c0.0616,0.03013 9.46943,-0.29881 9.40783,-0.32895c0.0616,0.03013 7.29839,0.62223 7.2368,0.5921c0.0616,0.03013 8.41681,0.68802 8.35521,0.65789c0.0616,0.03013 7.89049,1.01697 7.8289,0.98684c0.0616,0.03013 3.08789,0.55644 9.40783,0.5921c0.0616,0.03013 9.0747,0.42487 9.0131,0.39473c0.0616,0.03013 7.8247,0.68802 7.76311,0.65789c0.0616,0.03013 6.96945,0.8196 12.82886,0.5921c0.0616,0.03013 8.74575,-0.23303 8.68415,-0.26316c0.0616,0.03013 8.08786,0.75381 8.02626,0.72368c0.0616,0.03013 7.8247,0.35908 7.76311,0.32895c0.0616,0.03013 13.28519,0.09592 13.2236,0.06579c0.0616,0.03013 12.49573,0.35908 12.43413,0.32895c0.0616,0.03013 5.12735,0.42487 13.42097,0.98684c0.0616,0.03013 8.30972,0.93304 9.14468,0.48911c1.57884,0.44393 8.02207,0.65943 7.96047,0.6293c0.0616,0.03013 9.73259,0.75381 9.67099,0.72368c0.0616,0.03013 11.90362,0.09592 11.84203,0.06579c0.0616,0.03013 8.02207,-0.49618 17.10515,-0.85526c0.0616,0.03013 13.94308,-0.16724 13.88149,-0.19737c0.0616,0.03013 11.50889,0.16171 11.44729,0.13158c0.0616,0.03013 7.29839,0.68802 12.96044,0.92105c0.0616,0.03013 10.19311,1.21433 10.13151,1.1842c0.0616,0.03013 9.14048,0.03013 9.07889,0c0.0616,0.03013 12.75888,-0.16724 12.69729,-0.19737c0.0616,0.03013 9.27206,-0.16724 16.71042,-0.26316c4.07473,0.16171 11.24573,1.01697 11.18414,0.98684c0.0616,0.03013 11.31152,1.01697 11.24993,0.98684c0.0616,0.03013 11.17994,1.47749 11.17994,1.47749c0,0 11.11835,0.32895 11.05675,0.29881c0.0616,0.03013 12.10099,0.2275 12.0394,0.19737c0.0616,0.03013 10.91679,0.29329 19.86829,0.5921c0.0616,0.03013 12.36415,1.01697 12.30255,0.98684c0.0616,0.03013 7.56155,1.21433 7.49995,1.1842c0.0616,0.03013 7.36418,1.54328 7.30258,1.51315c0.0616,0.03013 8.28523,-0.49618 8.22363,-0.52631c0.78527,-0.16724 8.74575,1.01697 8.81154,1.01697c0.06579,0 7.69732,0.5921 7.63572,0.56197c0.0616,0.03013 6.6405,1.47749 6.5789,1.44736c0.0616,0.03013 5.58788,2.0038 5.52628,1.97367c0.0616,0.03013 5.4563,1.93801 5.3947,1.90788c0.0616,0.03013 3.87736,1.74065 3.81576,1.71052c0.0616,0.03013 -0.5963,2.5959 -0.65789,2.56577c0.0616,0.03013 -1.71471,3.8459 -1.7763,3.81576c0.0616,0.03013 -2.24102,3.31958 -2.76314,4.67102c0.0616,0.03013 -1.84629,4.63536 -1.90788,4.60523c0.0616,0.03013 -1.58313,6.2143 -1.64473,6.18417c0.0616,0.03013 -1.31997,5.35904 -1.38157,5.32891c0.0616,0.03013 -0.39893,2.26696 -0.98684,4.86839c0.0616,0.03013 -0.85945,6.2143 -0.92105,6.18417c0.0616,0.03013 -0.46472,2.72748 -0.52631,2.69735c0.0616,0.03013 -1.05682,-1.41723 -1.11841,-1.44736c0.0616,0.03013 -5.3989,-1.02249 -7.36837,-1.97367c0.0616,0.03013 -12.89885,-3.12774 -12.96044,-3.15787c0.0616,0.03013 -13.29358,-4.18037 -13.35518,-4.2105c0.0616,0.03013 -6.84625,-1.02249 -6.90785,-1.05262c0.0616,0.03013 -5.72784,-1.54881 -5.78944,-1.57894c0.0616,0.03013 -5.59626,-0.3646 -5.65786,-0.39473c0.0616,0.03013 -3.95154,-1.35144 -4.01313,-1.38157c0.0616,0.03013 -4.34627,-0.89092 -4.40787,-0.92105c0.0616,0.03013 -2.30681,1.47749 -2.36841,1.44736c0.0616,0.03013 -0.79366,2.0038 -0.85526,1.97367c0.0616,0.03013 -0.16965,1.38918 -0.72787,1.47749z" opacity="NaN" fill="#fff"/>
   <!-- side -->
  <path class="product-shape2 shape" id="svg_15" d="m285.9507,619.9862l-5.46151,-3.04666l-4.24999,-2.49999l-5.62499,-2.87499l-5.24999,-2.24999l-3.99999,-2.12499l-3.99999,-2.24999l-4.49999,-4.49999l-1.25,-2.12499l-0.5,-1.25l-2.49999,-3.37499l-2.62499,-4.12499l-3.37499,-5.62499l-4.24999,-6.37498l-3.12499,-4.49999l-1.99999,-1.25l-4.49999,-1.125l-7.49998,-3.24999l-6.87498,-2.12499l-6.49998,-2.99999l-4.99999,-2.37499l-5.87498,-2.24999l-6.12498,-2.37499l-3.62499,-1.75l-1.625,-1.99999l-0.5,-4.99999l-1.125,-7.62498l-0.125,-4.99999l-0.90441,-5.38234l-1.59558,-7.49263c-0.17083,-0.40921 -0.62671,-6.68861 -0.62671,-6.68861c0,0 -0.875,-5.12499 -0.99828,-5.18636c0.12328,0.06137 -1.62671,-3.31362 -1.75,-3.37499c0.12328,0.06137 -1.75171,-3.18862 -1.875,-3.24999c0.12328,0.06137 -0.00172,-5.31361 -0.125,-5.37499c0.12328,0.06137 0.87328,-4.56361 0.75,-4.62499c0.12328,0.06137 0.49828,-6.68861 0.375,-6.74998c0.12328,0.06137 -0.04583,-8.78425 0.125,-12.24997c0.12328,0.06137 0.62328,-3.81362 0.5,-3.87499c0.12328,0.06137 2.12328,-2.43862 1.99999,-2.49999c0.12328,0.06137 4.74827,-5.56361 4.62499,-5.62499c0.12328,0.06137 4.49827,-5.43861 4.37499,-5.49999c0.12328,0.06137 5.49827,-7.81361 5.49827,-7.81361c0,0 2.99999,-4.99999 2.87671,-5.06136c0.12328,0.06137 3.99827,-6.68861 3.87499,-6.74998c0.12328,0.06137 3.49827,-7.31361 3.37499,-7.37498c0.12328,0.06137 1.49828,-1.79895 3.37499,-3.62499c0.12328,0.06137 4.62327,-2.43862 4.49999,-2.49999c0.12328,0.06137 4.24827,-1.81362 4.12499,-1.875c0.12328,0.06137 3.74827,-0.43863 3.62499,-0.5c0.12328,0.06137 3.62327,-3.43862 3.49999,-3.49999c0.12328,0.06137 6.49827,-5.18861 6.37498,-5.24999c0.12328,0.06137 3.22621,-2.95336 7.74998,-6.49998c0.12328,0.06137 6.37327,-4.43862 6.24998,-4.49999c0.12328,0.06137 3.87327,-2.81362 3.74999,-2.87499c0.12328,0.06137 3.87327,-3.06362 3.74999,-3.12499c0.12328,0.06137 3.49827,-1.93862 3.37499,-1.99999c0.12328,0.06137 5.37327,0.06137 5.24999,0c0.12328,0.06137 4.12327,0.43637 3.99999,0.375c0.12328,0.06137 2.99828,0.56137 2.87499,0.5c0.12328,0.06137 -1.50171,0.81137 -1.625,0.75c0.12328,0.06137 -5.2517,0.18637 -5.37499,0.125c0.12328,0.06137 -3.37671,1.56137 -3.49999,1.5c0.12328,0.06137 -1.25171,3.31136 -1.25171,3.31136c0,0 0.125,3.74999 0.00172,3.68862c0.12328,0.06137 -3.62671,6.31136 -3.74999,6.24998c0.12328,0.06137 -3.75171,7.56135 -3.87499,7.49998c0.12328,0.06137 -0.62671,3.31136 -0.75,3.24999c0.12328,0.06137 -1.87671,-0.18863 -1.99999,-0.25c0.12328,0.06137 -2.12671,-1.56362 -2.24999,-1.625c0.12328,0.06137 -1.25171,3.56136 -1.375,3.49999c0.12328,0.06137 -1.50171,1.81137 -1.625,1.75c0.12328,0.06137 -0.62671,2.31137 -0.75,2.24999c0.12328,0.06137 -0.12672,3.31136 -0.25,3.24999c0.12328,0.06137 -1.12671,2.18637 -1.25,2.12499c0.12328,0.06137 -0.87671,3.56136 -1,3.49999c0.12328,0.06137 -1.25171,4.93636 -1.375,4.87499c0.12328,0.06137 -0.37672,3.31136 -0.5,3.24999c0.12328,0.06137 -1.00171,2.06137 -1.125,1.99999c0.12328,0.06137 -0.50172,3.81136 -0.625,3.74999c0.12328,0.06137 -1.75171,5.43636 -1.875,5.37499c0.12328,0.06137 -0.25172,3.68636 -0.375,3.62499c0.12328,0.06137 0.12328,2.43637 0,2.37499c0.12328,0.06137 0.12328,3.31136 0,3.24999c0.12328,0.06137 -0.06054,1.38496 -0.125,2.49999c0.12328,0.06137 -1.50171,5.68636 -1.625,5.62499c0.12328,0.06137 -1.00171,4.31136 -1.125,4.24999c0.12328,0.06137 -0.87671,3.18636 -1,3.12499c0.12328,0.06137 0.12328,3.68636 0,3.62499c0.12328,0.06137 0.37328,4.56136 0.25,4.49999c0.12328,0.06137 2.24828,4.43636 2.12499,4.37499c0.12328,0.06137 1.49092,2.30407 3.24999,5.99998c0.12328,0.06137 1.99828,3.68636 1.875,3.62499c0.12328,0.06137 1.49828,3.31136 1.375,3.24999c0.12328,0.06137 0.24828,6.06136 0.125,5.99998c0.12328,0.06137 0.37328,5.68636 0.25,5.62499c0.12328,0.06137 1.12328,3.43636 1,3.37499c0.12328,0.06137 1.20416,2.10554 2.37499,4.74999c0.12328,0.06137 0.99828,3.43636 0.875,3.37499c0.12328,0.06137 -0.12672,3.18637 -0.25,3.12499c0.12328,0.06137 1.49828,6.56136 1.375,6.49998c0.12328,0.06137 3.74827,6.68636 3.62499,6.62498c0.12328,0.06137 3.37327,7.68635 3.24999,7.62498c0.12328,0.06137 3.74827,5.81136 3.62499,5.74998c0.12328,0.06137 -0.02378,-0.3136 4.49999,8.87498c0.12328,0.06137 2.62328,3.68636 2.49999,3.62499c-0.06341,0.49295 0.5204,2.53937 0.69174,3.46321c0.49818,1.2192 0.53704,2.00701 0.45063,1.96428c0.26289,0.04273 1.00973,2.67087 1.21743,3.39284c0.08642,0.80744 1.66309,4.23494 1.28256,3.83927c0.02759,-0.13374 2.17674,4.56266 2.91385,6.75522c0.557,1.63097 2.70825,6.05531 2.62184,6.01258c0.08642,0.04273 3.08955,5.5196 2.76784,5.53569c0.43936,0.04273 2.55384,3.28747 2.23213,3.30356c0.43936,0.04273 3.98241,5.39985 3.6607,5.35712c0.49818,0.10156 4.63997,5.31057 4.55355,5.26783c0.08642,0.04273 4.01497,4.68557 3.92855,4.64284c0.08642,0.04273 1.06855,1.29273 0.98214,1.24999" opacity="NaN"  fill="#fff"/>
  <path class="product-shape2 shape" id="svg_20" d="m987.1134,533.91753l0.82471,-4.32991l1.4433,-2.06186l2.47423,-2.16495l2.26804,-2.57732l1.13402,-2.37113l0.92784,-1.95876l-0.10309,-2.47423l-1.54639,-1.85567l-0.51546,-4.84536l1.34021,-4.74227l2.68041,-3.71134l4.74227,-3.40206l0.51546,-3.19588l0.20619,-4.12371l0.61856,-2.37113l-0.20619,-4.53608l0.61856,-6.70103l-0.61856,-2.06186l-4.63918,-8.24742l-4.3299,-6.39175l-4.63918,-8.14433l-4.3299,-8.35052l-4.2268,-6.70103l-4.74227,-7.01031l-5.36082,-8.14433l-4.3299,-6.80412l-3.60825,-7.01031l-7.52577,-11.03093l-3.29897,-4.94845l-5.56701,-6.80412l-4.74227,-3.60825l-4.84536,-2.78351l-5.6701,-1.13402l-6.59794,-1.75258l-6.90722,-3.19588l-5.6701,-1.85567l-4.2268,0l-1.85567,2.57732l-3.09278,5.7732l-2.26804,4.12371l-2.06186,5.36082l-2.47423,4.94845l-3.09278,8.65979l-1.95876,3.60825l-1.95876,3.40206l-0.51546,2.47423l-1.64948,3.50515l-3.09278,4.74227l-1.64948,4.43299l-1.95876,7.52577l-1.95876,7.52577l-1.34021,9.07216l-2.16495,9.79381l-1.03093,5.25773l-0.41237,4.53608l-2.06186,6.49485l-2.37113,11.13402l-1.13402,2.78351l-1.03093,5.46392l-0.72165,5.7732l-0.92784,6.39175l-1.4433,5.7732l-1.54639,7.42268l-1.13402,7.21649l-0.30928,6.39175l-0.61856,9.17526l-0.30928,6.59794l-0.51546,7.83505l0.10309,9.07216l-0.10309,9.89691l0,5.6701l1.03093,3.40206l0.92784,3.50515l0.61856,6.28866l1.03093,10.41237l1.4433,8.35052l1.4433,10.61856l0.51546,7.52577l0.30928,5.7732l0.61856,8.5567l2.98969,3.91753l3.29897,4.02062l3.50515,5.15464l3.19588,5.56701l1.03093,1.75258l1.13402,5.46392l0.30928,5.6701l-0.30928,5.6701l-0.92784,5.7732l-0.20619,1.23711l5.6701,3.29897l5.05155,0l5.6701,-0.10309l7.31959,-0.20619l5.56701,0.10309l4.12371,0l4.53608,1.23711l4.84536,1.34021l5.56701,1.95876l2.8866,0.92784l5.15464,-0.20619l2.98969,-4.63918l5.05155,-8.04124l5.15464,-8.45361l3.29897,-5.97938l3.19588,-4.74227l2.16495,0.10309l4.3299,3.71134l3.19588,1.64948l1.75258,0.61856l1.4433,-1.4433l3.60825,-4.3299l2.78351,-2.8866l4.3299,-3.19588l4.63918,-4.02062l2.57732,-3.09278l3.09278,-4.53608l4.63918,-8.04124l4.74227,-6.59794l3.81443,-4.63918l4.3299,-4.74227l4.12371,-3.40206l1.75258,-1.34021l1.64948,-2.37113l4.53608,-3.09278l3.60825,-1.75258l1.85567,-2.47423l-0.10309,-3.60825l3.50515,-5.97938l5.36082,-8.5567l5.7732,-9.17526l3.60825,-5.6701l3.19588,-6.90722l3.71134,-7.73196l1.75258,-3.09278l0.72165,-2.68041l-0.72165,-3.50515l-2.47423,-4.43299l-3.60825,-5.36082l-2.98969,-4.02062l-2.06186,-5.25773l-2.16495,-3.40206l-6.90722,-4.53608l-8.86598,-7.52577l-4.3299,-3.19588l-4.12371,-2.47423l-5.05155,-1.64948l-4.84536,-0.20619l-6.49485,1.23711l-2.98969,2.16495l-0.10309,9.38144l-3.91753,2.57732l-1.64948,0.41237l-1.54639,2.26804l-0.72165,1.95876l-1.85564,2.68043z" opacity="NaN"  fill="#fff"/>
  <path class="product-shape2 shape" id="svg_21" d="m1027.62887,455.25773l1.23708,1.44328l0.10309,1.95876l1.54639,0.41237l1.4433,-1.54639l0.72165,-1.34021l2.06186,2.57732l3.19588,3.60825l3.60825,3.29897l5.25773,4.12371l3.91753,3.60825l3.29897,2.68041l1.95876,2.47423l2.26804,1.13402l1.85567,2.06186l2.57732,2.8866l2.16495,1.75258l1.64948,-0.30928l-0.10309,1.64948l0.10309,2.26804l1.75258,2.16495l1.85567,3.40206l1.4433,0.92784l0.61856,-1.03093l0,-4.2268l-0.51546,-3.91753l-1.64948,-7.01031l-1.4433,-4.74227l-1.85567,-5.15464l-2.16495,-4.02062l-1.75258,-1.95876l-2.68041,-1.54639l-4.02062,-2.47423l-4.43299,-1.64948l-4.74227,-0.82474l-3.09278,-1.23711l-3.09278,-0.72165l-2.26804,-0.82474l-2.26804,-1.13402l-3.60825,-0.41237l-3.29897,0.72165l-1.64945,0.92785z" opacity="NaN"  fill="#fff"/>
   <!-- bottom zipper -->
  <path class="product-shape3 shape" style="vector-effect: non-scaling-stroke;" id="svg_25" d="m814.89144,494.00767l-18.123,-1.09248l-3.54166,8.74997l-3.74999,8.33331l-6.24998,9.99997l0.3125,3.43749l-0.52083,5.72915l-0.41667,7.29164l-1.04166,5.20832l-1.77083,3.64582l-3.33332,3.43749l-3.54166,2.08333l-4.06249,0.72916l-0.83333,9.68747l7.60414,1.35416l3.22916,0.3125l6.87498,0.625l6.14581,0.41667l6.24998,0.20833l6.77081,0.72916l5.52082,0l3.85416,0l6.24998,0l7.70831,0.52083l9.27081,0.625l8.64581,0.10417l8.22914,0.10417l5.62498,-0.10417l-0.10417,-9.47914l-6.35415,-7.49998l-4.16665,-5.10415l-4.58332,-5.10415l-4.68749,-5.62498l-3.95832,-6.14581l-2.49999,-3.43749l-3.02082,-4.37499l-3.54166,-5.52082l-3.85416,-6.04165l-1.66666,-3.54166l-3.22916,-4.58332l-3.43943,-5.67833z" opacity="NaN" fill="#fff"/>
  <path class="product-shape3 shape" id="svg_26" d="m749.82093,484.20018c0,0 -15.03788,-2.19654 -15.16148,-2.31224c0.1236,0.1157 -21.33494,-1.91188 -21.45854,-2.02758c0.1236,0.1157 -20.65908,-1.23602 -20.78268,-1.35172c0.1236,0.1157 -23.36252,-1.74292 -23.48612,-1.85861c0.1236,0.1157 -28.43147,-1.40499 -28.55507,-1.52068c0.1236,0.1157 -17.78668,-0.56016 -29.23093,-1.52068c0.1236,0.1157 -34.68317,-1.57395 -34.80677,-1.68965c0.1236,0.1157 -29.10733,-1.23602 -29.23093,-1.35172c0.1236,0.1157 -15.92807,0.1157 -25.85163,-0.84482c0.1236,0.1157 -32.82456,-1.23602 -32.94816,-1.35172c0.1236,0.1157 -27.75561,-1.74292 -27.87921,-1.85861c0.1236,0.1157 -18.80047,-1.23602 -36.49642,-2.70344c0.1236,0.1157 -39.92109,-2.92567 -40.04468,-3.04137c0.1236,0.1157 -21.50391,-0.89809 -21.62751,-1.01379c-1.39709,0.28466 -8.32465,-0.22223 -19.76889,-1.52068c0.1236,0.1157 -23.0246,-1.40499 -23.14819,-1.52068c0.1236,0.1157 -18.46255,-0.56016 -18.58614,-0.67586c0.1236,0.1157 -20.49012,-0.89809 -20.61372,-1.01379c0.12359,0.1157 -13.3936,0.79156 -13.51719,0.67586c0.12359,0.1157 -1.73502,1.97431 -3.71723,4.05516c-1.22813,1.29845 -0.8902,2.48121 -1.01379,2.36551c0.12359,0.1157 -19.13841,-1.57395 -19.262,-1.68965c0.12359,0.1157 -1.39709,2.48121 -1.52068,2.36551c0.12359,0.1157 -10.69016,0.45363 -10.81375,0.33793c0.12359,0.1157 -0.8902,5.52257 -0.16896,5.06895c-1.90399,3.83293 -2.91777,8.05705 -3.04137,7.94135c0.12359,0.1157 -0.72123,3.15707 -0.84482,3.04137c0.12359,0.1157 0.63049,7.71912 0.50689,7.60342c0.12359,0.1157 5.36151,9.57773 5.23791,9.46204c0.12359,0.1157 3.50289,7.21222 3.3793,7.09653c0.12359,0.1157 0.79945,11.60531 0.67586,11.48961c0.12359,0.1157 1.64428,3.495 1.52068,3.3793c0.12359,0.1157 22.93386,5.86051 22.81026,5.74481c0.12359,0.1157 10.93735,1.12949 10.81375,1.01379c0.12359,0.1157 9.92356,1.46742 9.79996,1.35172c0.12359,0.1157 6.03737,-0.05327 5.91377,-0.16896c0.12359,0.1157 7.05116,0.62259 6.92756,0.50689c0.12359,0.1157 14.99251,1.80535 14.86891,1.68965c0.1236,0.1157 6.88219,1.29845 6.7586,1.18275c0.1236,0.1157 12.79596,0.79156 12.67237,0.67586c0.1236,0.1157 12.1201,1.12949 11.99651,1.01379c0.1236,0.1157 12.627,0.79156 17.74132,1.68965c0.1236,0.1157 16.34423,1.29845 16.22063,1.18275c0.1236,0.1157 13.1339,1.12949 13.0103,1.01379c0.1236,0.1157 16.51319,1.12949 16.3896,1.01379c0.1236,0.1157 18.54077,1.12949 18.41718,1.01379c0.1236,0.1157 20.90628,1.46742 20.78268,1.35172c0.1236,0.1157 9.92356,0.62259 9.79996,0.50689c0.1236,0.1157 11.61321,1.46742 11.48961,1.35172c0.1236,0.1157 13.80976,0.28466 23.99302,2.02758c0.1236,0.1157 27.32695,1.29845 27.20335,1.18275c0.1236,0.1157 16.34423,0.28466 16.22063,0.16896c0.1236,0.1157 20.73732,1.63638 20.61372,1.52068c0.1236,0.1157 24.62351,2.81914 24.49991,2.70344c0.1236,0.1157 32.56487,2.81914 32.73383,2.81914c0.16896,0 28.38611,1.85861 28.2625,1.74291c0.1236,0.1157 25.6373,1.46742 25.5137,1.35172c0.1236,0.1157 17.69595,1.46742 35.48263,2.19654c0.1236,0.1157 31.72004,2.65017 31.59644,2.53447c0.1236,0.1157 21.47568,1.80535 21.35208,1.68965c0.1236,0.1157 1.48222,-6.45066 2.17111,-7.56635c0.8736,-2.07179 2.28308,-3.30067 2.15948,-3.41637c0.1236,0.1157 -3.76259,-2.41877 -3.88619,-2.53447c0.1236,0.1157 -4.43845,-4.44635 -4.56205,-4.56205c0.1236,0.1157 -2.91776,-5.79807 -3.04137,-5.91377c0.1236,0.1157 -1.05915,-5.79807 -1.18275,-5.91377c0.1236,0.1157 1.47532,-7.14979 1.35172,-7.26549c0.1236,0.1157 2.15118,-6.81186 2.02758,-6.92756c0.1236,0.1157 1.13739,-4.27739 1.01379,-4.39309c0.1236,0.1157 -0.89018,-8.50151 -1.01379,-8.61721c0.1236,0.1157 0.1236,-7.99462 0,-8.11032c0.1236,0.1157 1.13739,-4.61532 1.01379,-4.73102c0.1236,0.1157 2.32015,-6.136 2.32015,-6.136z" opacity="NaN" fill="#fff"/>
  <path class="product-shape3 shape" id="svg_2" d="m752.98087,521.79951l-2.24117,3.06829l-1.37498,2.37497l-0.37499,2.99996l0,3.24996l0.74999,2.37497l1.62498,2.37497l2.24997,2.37497l1.99997,1.99997l1.49998,1.74998l0.87499,0.25l-0.125,-3.37495l-0.49999,-2.74996l-0.25,-1.62498l-1.12498,-2.99996l-1.12498,-2.87496l-1.12498,-2.12497l-0.87499,-1.99997l-0.37499,-1.37498l0.125,-2.12497l0.3662,-1.56831z" opacity="NaN"  fill="#fff"/>
  <path class="product-shape3 shape" id="svg_5" d="m769.23065,546.04918l1.50878,-0.68166l1.24998,-0.62499l1.37498,-1.24998l1.24998,-1.37498l0.99999,-1.74998l0.49999,-1.37498l0.25,-2.49997l0,-2.12497l0,-2.12497l0,-0.99999l-2.62496,3.49995l-4.12494,5.74992l-0.99999,1.24998l0.61619,4.30661z" opacity="NaN"  fill="#fff"/>
  <path class="product-shape3 shape" id="svg_8" d="m762.85574,520.29954l3.13376,1.6933l2.87496,1.49998l-3.37495,4.99993l-1.62498,-3.74995l-1.00878,-4.44327z" opacity="NaN"  fill="#fff"/>  
    <!-- front elastic -->
  <path class="product-shape4 shape" id="svg_10" d="m808.3648,590.06237l4.00003,1.81256l5.875,3.5l6.875,4.75l6.75,6.25l4.5,4l5.625,5.375l8.375,9.375l6.625,7.25l6.375,7.625l4.875,5.875l6,7.375l4.375,6.75l3.125,5.625l1.5,6.875l0,6l-0.5,6l-1,4.625l4.875,3.375l4.875,4.125l4.125,4.125l1.25,4.75l0,4.625l-1.75,4.875l-3,3.625l-4.375,2.875l-6.125,2.75l-7.75,3l-8,2.125l-9,1.875l-9.375,0.75l-7.625,0.75l-7.125,-0.25l-6.125,-1l-1.625,-0.875l1.5,-3l0.75,-4l4.625,-0.125l5.375,-0.25l6.5,-0.375l7.25,-0.25l5.125,-1l6.5,-1.5l6.125,-2.125l5.625,-1.625l5.375,-2.25l4.125,-2.125l2.75,-3l1.25,-2.5l-0.25,-2.5l-1.375,-2.625l-2.25,-2l-2.625,-2.125l-2.25,-1l-1.125,0l-1.375,3l-2.125,3.25l-3.625,4.375l-3.75,3.25l-4.875,3.75l-4.625,3.125l-4,1.625l-4.625,1.625l-7.625,1.625l-6.25,1l-5.875,0.375l-1.875,-0.625l0.375,-6l0.5,-3.625l1.5,-0.875l5.25,-0.125l4.375,-0.375l4.75,-0.75l4.25,-1.125l3.75,-1.875l3.25,-1.625l3.125,-2.25l3.5,-3.125l3.75,-4.625l2.75,-4.125l2,-3.625l0.875,-4.25l0.5,-4.375l0,-3.5l-0.25,-4.125l-0.375,-3.5l-2.5,-5l-2.375,-3.5l-3.125,-4l-4.75,-6l-3.375,-4.375l-3.25,-4.625l-5.5,-7l-3.875,-4.25l-4,-4.5l-3.875,-4.25l-4,-3.75l-4.875,-4.5l-4.375,-3.625l-4.75,-3l-4.5,-2.75l-3,-1.5l-2.25,-0.875l-0.25,-3.375l0.625,-2.375l1.12497,-5.43756z" opacity="NaN"  fill="#fff"/>
  <path class="product-shape4 shape" id="svg_11" d="m794.17703,720.13724l2.90292,-4.66867l2.99987,-3.87483l3.62484,-5.24977l0.49998,-1.62493l-5.62475,-3.37485l-8.12464,-3.99982l-4.74979,-2.62488l-4.24981,-2.12491l-4.74979,-2.49989l-3.99982,-1.37494l12.24946,-1.12495l6.24973,-0.74997l7.12469,-0.99996l7.74966,-1.12495l5.24977,-0.74997l-13.99939,-1.24995l-14.87435,-1.49993l-6.62471,-0.24999l-9.49958,1.37494l-6.8747,0.24999l-5.62475,-0.87496l-5.24977,-0.99996l-6.49971,-1.49993l-4.87479,-1.24995l-5.37476,-1.49993l-5.74975,-0.87496l-7.49967,-1.12495l-7.87465,-0.99996l-6.99969,-0.74997l-7.12469,-0.12499l-5.87474,-0.24999l-6.12473,-0.12499l-5.37476,-0.24999l-3.62484,0l-4.74979,-2.2499l-4.4998,-2.2499l4.87479,-3.49985l5.12478,-3.87483l4.4998,-3.49985l4.87479,-4.12482l5.49976,-4.87479l6.62471,-5.49976l4.87479,-4.87479l4.74979,-4.74979l4.24981,-4.6248l5.37476,-4.99978l5.99974,-4.74979l5.99974,-4.37481l7.24968,-5.12478l5.99974,-3.12486l3.12486,-1.62493l3.12486,-1.87492l-2.74988,-0.49998l-1.74992,-0.24999l-2.62488,-2.2499l-1.37494,-1.87492l-1.99991,-0.74997l-1.99991,1.12495l-3.87483,2.49989l-3.74984,2.2499l-3.99982,2.62488l-4.12482,2.62488l-4.74979,4.12482l-4.4998,3.74984l-3.87483,3.99982l-4.87479,4.74979l-3.74984,3.87483l-3.87483,4.12482l-4.4998,4.37481l-5.37476,4.87479l-4.24981,3.74984l-3.49985,2.87487l-4.74979,3.74984l-6.62471,4.74979l-5.99974,3.49985l-2.87487,2.3749l-4.74979,-3.87483l-4.99978,-3.62484l-6.8747,-5.37476l-5.87474,-4.24981l-6.7497,-5.74975l-4.37481,-3.74984l-6.62471,-5.62475l-7.49967,-5.74975l-6.99969,-4.6248l-6.99969,-4.6248l-8.24964,-5.87474l-4.24981,-2.99987l-7.37468,-4.99978l-7.62467,-5.62475l-6.99969,-4.6248l-7.74966,-4.99978l-8.9996,-4.74979l-6.24973,-4.24981l-6.37472,-2.74988l-6.8747,-2.74988l-4.99978,-1.37494l-1.74992,0.87496l0,3.99982l0.99996,3.37485c0.09694,0.04387 2.59683,2.66875 2.59683,2.66875c0,0 5.12478,0.99996 5.02784,0.95609c0.09694,0.04387 9.72152,4.29368 9.62458,4.24981c0.09694,0.04387 12.09641,6.79357 11.99947,6.7497c0.09694,0.04387 10.22149,6.66858 10.12456,6.62471c0.09694,0.04387 11.22145,8.79349 11.12451,8.74962c0.09694,0.04387 9.59652,6.1686 9.49958,6.12473c0.09694,0.04387 12.59639,8.16851 12.49945,8.12464c0.09694,0.04387 1.47188,0.79384 5.74975,3.99982c0.09694,0.04387 10.34649,7.54354 10.24955,7.49967c0.09694,0.04387 8.84656,6.54359 8.74962,6.49971c0.09694,0.04387 11.34645,9.91844 11.24951,9.87457c0.09694,0.04387 12.22141,9.04348 12.12447,8.9996c0.09694,0.04387 6.09668,5.04365 5.99974,4.99978c0.09694,0.04387 0.9719,0.66885 1.99991,1.24994c0.47193,0.41886 -11.27756,-0.5811 -13.12442,-0.74997c0.09694,0.04387 -12.77749,-0.5811 -13.99939,-0.62497c0.09694,0.04387 -7.27774,-0.70609 -7.37468,-0.74997c0.09694,0.04387 -8.52768,-0.20612 -8.62462,-0.24999c0.09694,0.04387 -10.2776,0.16887 -10.37454,0.12499c0.09694,0.04387 -10.77758,-0.5811 -10.87452,-0.62497c-2.52795,0.16887 -8.52768,0.04387 -8.62462,0c-0.65303,0.54385 -15.27739,1.04383 -15.37433,0.99996c0.09694,0.04387 -9.90262,1.04383 -9.99956,0.99996c0.09694,0.04387 -8.40269,0.16887 -12.62445,0c0.09694,0.04387 -5.7778,-0.20612 -5.87474,-0.24999c0.09694,0.04387 -6.65277,-1.08108 -6.7497,-1.12495c0.09694,0.04387 -7.52773,-0.45611 -7.62467,-0.49998c0.09694,0.04387 -9.27765,-0.20612 -9.37459,-0.24999c0.09694,0.04387 -4.77785,-0.45611 -10.99952,-1.12495c0.09694,0.04387 -9.52764,0.04387 -9.62458,0c0.09694,0.04387 -20.65215,-0.08112 -20.74909,-0.12499c0.09694,0.04387 -5.15283,0.41886 -14.62436,0.37498c0.09694,0.04387 -9.27765,0.54385 -9.37459,0.49998c0.09693,0.04387 -2.52795,0.54385 -2.62488,0.49998c0.09693,0.04387 -2.52795,-0.20612 -2.62488,-0.24999c0.09693,0.04387 -2.27796,-1.70605 -2.3749,-1.74992c0.09693,0.04387 -1.65299,-1.08108 -1.74992,-1.12495c0.09693,0.04387 -1.403,-1.70605 -1.49993,-1.74992c0.09693,0.04387 -2.15297,-0.83109 -2.2499,-0.87496c0.09693,0.04387 -2.90293,0.54385 -2.99987,0.49998c0.09693,0.04387 -1.77798,1.6688 -1.87492,1.62493c0.09693,0.04387 -1.15301,2.04378 -1.24995,1.99991c0.09693,0.04387 0.22193,4.41868 0.12499,4.37481c0.09693,0.04387 -3.27792,2.16878 -3.37485,2.12491c0.09693,0.04387 -2.77794,2.54376 -2.87487,2.49989c0.09693,0.04387 -1.77798,3.9187 -1.77798,3.9187c0,0 -3.12486,0.37498 -6.09667,-0.29386c0.09693,0.04387 -7.90272,0.04387 -7.99965,0c0.09693,0.04387 -5.40283,0.41886 -5.49976,0.37498c0.09693,0.04387 -2.65295,1.41881 -2.74988,1.37494c0.09693,0.04387 -0.77803,1.7938 -0.87496,1.74992c0.09693,0.04387 -0.90302,2.29377 -0.99996,2.2499c0.09693,0.04387 0.09693,2.29377 0,2.2499c0.09693,0.04387 1.34688,2.04379 1.24995,1.99991c0.09693,0.04387 0.8469,1.04383 0.74997,0.99996c0.09693,0.04387 0.34692,2.04379 0.24999,1.99991c0.09693,0.04387 -2.02797,1.54381 -2.12491,1.49993c0.09693,0.04387 -1.02802,2.16878 -1.02802,2.16878c0,0 0.49998,3.37485 0.40305,3.33098c0.09693,0.04387 1.47187,2.16878 1.37494,2.12491c0.09693,0.04387 2.72182,-0.5811 2.62488,-0.62497c0.09693,0.04387 3.72177,-0.83109 3.62484,-0.87496c0.09693,0.04387 4.59674,-0.95608 4.4998,-0.99996c0.09693,0.04387 4.47174,-0.83109 4.37481,-0.87496c0.09693,0.04387 3.84677,-0.70609 3.74984,-0.74997c0.09693,0.04387 3.0968,-0.5811 2.99987,-0.62497c0.09693,0.04387 2.09685,-0.70609 1.99991,-0.74997c0.09693,0.04387 1.59687,0.91884 1.49993,0.87496c0.09693,0.04387 1.72186,1.7938 1.62493,1.74992c0.09693,0.04387 2.34684,1.16882 2.2499,1.12495c0.09693,0.04387 3.34679,0.54385 3.24986,0.49998c0.09693,0.04387 2.72182,-1.20607 2.62488,-1.24995c0.09693,0.04387 2.09685,-1.70605 1.99991,-1.74992c0.09693,0.04387 0.09693,-2.08103 0,-2.12491c0.09693,0.04387 3.84677,-0.08112 3.74984,-0.12499c0.09693,0.04387 3.0968,-1.33107 2.99987,-1.37494c0.09693,0.04387 1.09689,-1.95604 0.99996,-1.99991c0.09693,0.04387 0.34692,-3.20598 0.24999,-3.24986c0.09693,0.04387 0.09693,-2.45602 0,-2.49989c0.09693,0.04387 1.22189,-0.33111 1.12495,-0.37498c0.09693,0.04387 2.22184,-0.4561 2.12491,-0.49998c0.09693,0.04387 4.47174,0.16887 4.37481,0.12499c0.09693,0.04387 5.84668,0.29386 5.74975,0.24999c0.09694,0.04387 4.97172,0.16887 4.87479,0.12499c0.09694,0.04387 5.59669,-0.20612 5.49976,-0.24999c0.09694,0.04387 4.34675,-0.08112 4.24981,-0.12499c0.09694,0.04387 5.97168,-0.4561 5.87474,-0.49998c0.09694,0.04387 5.97168,-0.33111 5.87474,-0.37498c0.09694,0.04387 6.22167,-1.08108 6.12473,-1.12495c0.09694,0.04387 5.59669,-0.4561 5.49976,-0.49998c0.09694,0.04387 6.97163,-0.70609 6.8747,-0.74997c0.09694,0.04387 2.47183,-0.70609 2.3749,-0.74997c0.09694,0.04387 5.09672,-0.4561 4.99978,-0.49998c0.09694,0.04387 3.09681,-0.20612 3.09681,-0.20612c0,0 4.6248,-0.37498 4.52786,-0.41886c0.09694,0.04387 3.72178,-0.70609 3.62484,-0.74997c0.09694,0.04387 4.84673,-0.20612 4.74979,-0.24999c0.09694,0.04387 5.4717,0.16887 5.37476,0.12499c0.09694,0.04387 3.97177,0.29386 3.87483,0.24999c0.09694,0.04387 7.47161,0.66885 7.37468,0.62497c0.09694,0.04387 2.34684,0.16887 5.37476,0.87496c0.09694,0.04387 7.34662,1.04383 7.24968,0.99996c0.09694,0.04387 6.59665,1.04383 6.49971,0.99996c0.09694,0.04387 5.84669,0.54385 5.74975,0.49998c0.09694,0.04387 7.09663,1.29382 6.99969,1.24995c0.09694,0.04387 3.2218,0.41886 5.49976,1.12495c0.22193,0.04387 6.34667,0.04387 6.34667,0.04387c0,0 6.12473,0.62497 6.24973,0.62497c0.12499,0 6.99969,0.74997 6.90275,0.70609c0.09694,0.04387 7.72161,0.41886 7.62467,0.37498c0.09694,0.04387 10.84647,0.54385 10.74953,0.49998c0.09694,0.04387 11.09646,0.04387 10.99952,0c0.09694,0.04387 -29.90174,0.04387 9.99956,0c0.09694,0.04387 6.47166,-0.33111 6.37472,-0.37498c0.09694,0.04387 8.47157,-0.33111 8.37463,-0.37498c0.09694,0.04387 9.22154,0.16887 9.1246,0.12499c0.09694,0.04387 6.97164,-0.5811 6.8747,-0.62497c0.09694,0.04387 9.09655,-0.20612 8.9996,-0.24999c0.09694,0.04387 4.47175,0.41886 4.37481,0.37498c0.09694,0.04387 2.34684,0.79384 3.87483,1.74992c0.09694,0.04387 5.34671,2.04379 5.24977,1.99991c0.09694,0.04387 5.5967,2.16878 5.49976,2.12491c0.09694,0.04387 6.47166,2.16878 6.37472,2.12491c0.09694,0.04387 6.09668,1.41881 5.99974,1.37494c0.09694,0.04387 5.5967,1.6688 5.49976,1.62493c0.09694,0.04387 5.84669,0.66885 5.74975,0.62497c0.09694,0.04387 7.09664,-0.20612 6.99969,-0.24999c0.09694,0.04387 9.47153,0.66885 9.37459,0.62497c0.09694,0.04387 6.97164,-0.08112 6.8747,-0.12499c0.09694,0.04387 7.47162,0.29386 7.37468,0.24999c0.09695,0.04387 4.59675,0.29386 4.4998,0.24999c0.09695,0.04387 2.34685,1.6688 3.87483,2.2499c0.09695,0.04387 5.84669,3.29373 5.74975,3.24986c0.09695,0.04387 6.97164,4.0437 6.8747,3.99982c0.09695,0.04387 5.7217,3.29373 5.62475,3.24986c0.09695,0.04387 6.72166,3.66872 6.62471,3.62484c0.09695,0.04387 6.97164,4.29369 6.8747,4.24981c0.09695,0.04387 5.7217,3.16874 5.62475,3.12486c0.09695,0.04387 3.99979,2.18735 5.09673,2.66876z" opacity="NaN"  fill="#fff"/>
  <path class="product-shape4 shape" id="svg_12" d="m260.11374,548.43618l-1.24915,1.81307l-0.875,4.24999l-0.125,5.12499l0.375,5.74999l0.625,5.12499l1.75,6.49999l3,7.87499l2.625,6.12499l4.24999,8.62499l5.74999,8.62499l4.62499,5.49999l5.49999,6.37499l6.24999,4.99999l5.37499,4.99999l6.49999,4.87499l7.99999,4.62499l5.49999,1.625l6.37499,2.125l7.74999,0.625l8.37499,0.125l7.49999,-0.5l6.37499,-1l5.37499,-1.25l-8.49999,-0.875l-10.12499,-1.25l-7.12499,-0.625l-7.74999,-1.75l-6.87499,-2.375l-7.62499,-3.87499l-7.24999,-5.74999l-6.49999,-5.74999l-4.99999,-4.99999l-5.74999,-6.49999l-5.62499,-7.37499l-3.5,-5.99999l-3.25,-5.87499l-3.125,-6.49999l-2.125,-5.12499l-1.75,-5.74999l-1.5,-4.49999l-0.875,-4.87499l0,-4.12499l0.5,-2.625l-2.125,-0.625l-1.75,-1.625l-0.875,-3.375l-1.12584,-0.81307z" opacity="NaN"  fill="#fff"/>
  <path class="product-shape4 shape" id="svg_13" d="m280.61456,547.12425" opacity="NaN"  fill="#fff"/>
  <path class="product-shape4 shape" id="svg_14" d="m291.6137,549.56118l-4.62415,-2.06193l-3.74999,-1.5l-1.75,-0.75l-0.75,2.125l0.25,2.625l0.5,2.25l1.125,1.875l3.25,3.375l3.99999,2.5l3.25,1.875l5.24999,3.125l6.24999,3.74999l7.37499,4.62499l6.74999,4.87499l9.24999,7.12499l12.12498,9.12499l9.24999,6.62499l9.49999,6.24999l8.99999,5.12499l9.37499,5.99999l6.74999,3.74999l7.37499,3.5l7.12499,3l6.12499,2l8.24999,3.5l9.12499,4.12499l4.62499,1.75l-2.875,5.12499l-2.25,1.75l-3,0.125l-2,-1.625l-9.37499,-1.125l-4.37499,-0.5l2.875,2.625l4.87499,3.375l5.37499,3.74999l3.375,0.875l4.37499,0l2.375,-1l3.25,-2.875l2.625,-2.75l1.75,-1.875l1.25,-2.875l5.87499,2.5l6.24999,2.5l8.62499,2.5l7.87499,2.375l9.62499,2.5l7.49999,1.875l7.49999,1l7.62499,1.375l5.12499,0.5l5.12499,0.5l6.99999,0.25l8.62499,0.5l8.49999,0l8.12499,-0.375l8.87499,-0.25l5.62499,-0.375l-6.12499,-2l-13.49998,-1.125l-9.62499,-0.875l-9.99999,-0.75l-9.87499,-1.125l-9.62499,-1.75l-10.12499,-1.75l-8.49999,-2.125l-6.37499,-1.875l-6.49999,-2.125l-7.87499,-2.375l-8.87499,-3.25l-5.62499,-2.375l-2.25,-1l1.25,-2.875l3.87499,-7.37499l2.625,-4.62499l2.625,-4.37499l3.25,-5.12499l2.5,-3.74999l3.5,-4.49999l3.125,-3.74999l3.5,-3.99999l4.24999,-3.625l4.24999,-3.74999l3.625,-3l3.99999,-3.25l3.99999,-1.75l3.625,-1.125l2.375,-0.625l-0.625,-2.375l-0.5,-3.375l-0.125,-3.125l-3.37499,1l-4.62499,1.625l-5.37499,3.125l-4.12499,2.625l-3.125,2.375l-3.625,3.25l-4.24999,3.87499l-3.74999,3.74999l-2.375,2.875l-4.24999,5.12499l-3.375,4.99999l-3.125,4.37499l-2.75,4.37499l-2,3.25l-2.375,3.99999l-1.75,2.75l-2.25,4.62499l-2,3.87499l-1.125,2.375l-5.37499,-2.75l-4.74999,-2.125l-8.37499,-3l-10.87499,-4.87499l-8.99999,-4.24999l-7.49999,-4.49999l-6.49999,-4.12499l-6.62499,-3.74999l-5.99999,-3.625l-5.99999,-3.99999l-7.12499,-4.62499l-8.49999,-6.62499l-5.62499,-4.49999l-8.37499,-6.24999l-6.24999,-3.99999l-6.87499,-5.37499l-2.125,-2l-6.24999,-1.125l-6.12499,-0.625l-5.24999,-1l-3.125,-0.375l-0.125,-3.125l-0.875,-5.24999l-0.12584,-2.43807z" opacity="NaN"  fill="#fff"/>
    <!--zipper elastic-->
  <path class="product-shape5 shape" id="svg_4" d="m758.73563,470.53449l-2.52874,1.95402l-1.72414,2.75862l-2.29885,2.75862c0,0 -1.14942,2.64368 -1.14942,2.64368c0,0 -1.37931,3.33333 -1.37931,3.33333c0,0 -1.14942,4.48276 -1.14943,4.48276c0,0 -1.26437,2.75862 -1.26437,2.75862c0,0 -0.34483,3.33333 -0.34483,3.33333c0,0 -0.34483,5.4023 -0.34483,5.4023c0,0 0.11494,4.94253 0.11494,4.94253c0,0 0.57471,4.71264 0.57471,4.71264c0,0 0.34483,2.29885 0.34483,2.29885c0,0 0.8046,-1.72414 0.8046,-1.72414c0,0 0.8046,-3.10345 0.8046,-3.10345c0,0 0.45977,-3.10345 0.45977,-3.10345c0,0 1.14943,-4.94253 1.14943,-4.94253c0,0 1.6092,-3.44828 1.6092,-3.44828c0,0 1.03448,-4.02299 1.03448,-4.02299c0,0 1.03448,-3.33333 1.03448,-3.33333c0,0 1.14943,-4.82759 1.14943,-4.82759c0,0 1.72414,-4.36782 1.72414,-4.36782c0,0 1.37931,-5.28736 1.37931,-5.28736c0,0 0.91954,-2.18391 0.91954,-2.18391c0,0 -0.46992,-0.43868 -0.91954,-1.03448z" opacity="NaN"  fill="#fff"/>
  <path class="product-shape5 shape" id="svg_6" d="m785.70832,516.39887" opacity="NaN"  fill="#fff"/>
  <path class="product-shape5 shape" id="svg_7" d="m768.59103,462.8679l3.5708,-2.0514l2.79531,-0.72137l4.77908,-0.09017l3.51668,0.36069l2.34445,1.17223l2.61497,1.71326l2.43463,2.34445l2.34445,2.88548l2.34445,4.86925l1.2624,3.69702l0.81154,4.23805l-0.09017,6.94319l-0.72137,5.95131l-2.07394,4.41839l-2.97565,6.76285l-2.25428,5.04959l-5.86114,9.19748l-3.96754,7.21371l-6.04148,8.56628l-4.59874,6.13165l0.27051,5.95131l-0.18034,6.04148l-0.45086,2.88548l-0.6312,6.40216l-0.54103,5.22994l-0.18034,3.51668l2.5248,0.72137l2.07394,1.44274l1.80343,2.43463l0.6312,1.08206l-0.09017,3.156l-0.72137,1.62308l-0.18034,1.8936l-0.09017,3.24617l0.18034,1.98377l-0.72137,2.43463l-0.99188,1.08206l0.56264,2.78217l0.21604,2.66476l-4.74622,-2.92213l2.16411,3.24617l1.44274,3.06583l2.34445,2.88548l3.156,4.77908l2.25428,3.7872l2.79531,4.14788l3.156,4.59874l3.87737,4.77908l3.42651,5.41028c0.03605,0.06763 3.19205,3.58431 3.19205,3.58431c0,0 2.34445,2.88548 2.3084,2.81785c0.03605,0.06763 1.38862,2.86294 1.35257,2.79531c0.03605,0.06763 -1.40669,2.77277 -1.44274,2.70514c0.03605,0.06763 -1.94772,2.41208 -1.98377,2.34445c0.03605,0.06763 -2.66909,2.32191 -2.70514,2.25428c0.03605,0.06763 -1.6772,0.06763 -1.71326,0c0.03605,0.06763 -2.12806,-1.7358 -2.16411,-1.80343c0.03605,0.06763 -0.77549,1.23986 -0.81154,1.17223c0.03605,0.06763 -0.41481,2.0514 -0.45086,1.98377c0.03605,0.06763 0.30656,1.78088 0.27051,1.71326c0.03605,0.06763 -0.14429,0.87917 -0.18034,0.81154c0.03605,0.06763 -0.86566,0.1578 -0.90171,0.09017c0.03605,0.06763 -1.22635,-0.65374 -1.2624,-0.72137c0.03605,0.06763 -0.14429,-2.00631 -0.18034,-2.07394c0.03605,0.06763 0.30656,-2.18665 0.27051,-2.25428c0.03605,0.06763 0.84759,-1.46528 0.81154,-1.53291c0.03605,0.06763 0.48691,-0.83408 0.45086,-0.90171c0.03605,0.06763 -1.94772,-3.35888 -1.98377,-3.42651c0.03605,0.06763 -3.5708,-6.60505 -3.60685,-6.67268c0.03605,0.06763 -2.12806,-3.80974 -2.16411,-3.87737c0.03605,0.06763 -1.22635,-1.46528 -1.2624,-1.53291c0.03605,0.06763 -0.50498,1.60054 -0.54103,1.53291c0.03605,0.06763 -0.14429,3.04328 -0.18034,2.97565c0.03605,0.06763 -0.05412,1.96123 -0.09017,1.8936c0.03605,0.06763 -1.6772,0.60866 -1.71326,0.54103c0.03605,0.06763 -1.22635,-0.56357 -1.2624,-0.6312c0.03605,0.06763 -2.75926,0.1578 -2.79531,0.09017c0.03605,0.06763 -2.75926,-0.4734 -2.79531,-0.54103c0.03605,0.06763 -1.76738,-1.01443 -1.80343,-1.08206c0.03605,0.06763 -1.85755,-1.82597 -1.8936,-1.8936c0.03605,0.06763 -0.59515,-3.17854 -0.6312,-3.24617c0.03605,0.06763 -1.40669,-3.80974 -1.44274,-3.87737c0.03605,0.06763 -3.02977,-5.25248 -3.06583,-5.32011c0.03605,0.06763 -0.41481,-0.83408 -1.98377,-3.7872c0.03605,0.06763 -2.75926,-4.2606 -2.79531,-4.32822c0.03605,0.06763 -3.39046,-5.61317 -3.42651,-5.68079c0.03605,0.06763 -2.75926,-4.08025 -2.79531,-4.14788c0.03605,0.06763 -0.95583,-0.20289 -1.2624,-0.36069c0.03605,0.06763 -2.84943,-0.20289 -2.88548,-0.27051c0.03605,0.06763 -2.66909,-1.91614 -2.70514,-1.98377c0.03605,0.06763 -1.85755,-2.27683 -1.8936,-2.34445c0.03605,0.06763 -1.76738,-0.56357 -1.80343,-0.6312c0.03605,0.06763 -2.66909,-0.92426 -2.70514,-0.99188c0.03605,0.06763 -2.21823,-1.7358 -2.25428,-1.80343c0.03605,0.06763 -1.22635,-3.26871 -1.2624,-3.33634c0.03605,0.06763 -0.05412,-3.44905 -0.09017,-3.51668c0.03605,0.06763 0.21639,-3.08837 0.18034,-3.156c0.03605,0.06763 1.02794,-2.54734 0.99188,-2.61497c0.03605,0.06763 1.74931,-2.18665 1.71326,-2.25428c0.03605,0.06763 2.56085,-2.00631 2.5248,-2.07394c0.03605,0.06763 2.83136,-1.91614 2.79531,-1.98377c0.03605,0.06763 3.19205,-1.64563 3.156,-1.71326c0.03605,0.06763 3.0117,-1.1046 2.97565,-1.17223c0.03605,0.06763 2.83136,-0.38323 2.79531,-0.45086c0.03605,0.06763 1.92965,0.06763 1.8936,0c0.03605,0.06763 -0.05412,-1.28494 0.09017,-3.51668c0.03605,0.06763 0.30656,-4.53111 0.27051,-4.59874c0.03605,0.06763 0.12622,-0.02254 0.54103,-4.14788c0.03605,0.06763 1.29845,-4.98197 1.2624,-5.04959c0.03605,0.06763 1.74931,-3.35888 1.71326,-3.42651c0.03605,0.06763 1.56896,-1.28494 1.53291,-1.35257c0.03605,0.06763 1.47879,0.42831 1.44274,0.36069c0.03605,0.06763 -0.05412,-3.6294 -0.09017,-3.69702c0.03605,0.06763 0.30656,-1.37511 0.09017,-3.96754c0.03605,0.06763 -0.41481,-3.53922 -0.45086,-3.60685c0.03605,0.06763 -0.59515,-2.367 -0.6312,-2.43463c0.03605,0.06763 -0.50498,-1.46528 -0.54103,-1.53291c0.03605,0.06763 0.12622,0.1578 -1.17223,-3.156c0.03605,0.06763 -1.58703,-2.72768 -1.62308,-2.79531c0.03605,0.06763 -0.77549,-2.367 -0.81154,-2.43463c0.03605,0.06763 0.30656,-2.90803 0.27051,-2.97565c0.03605,0.06763 0.30656,-1.1046 0.27051,-1.17223c0.03605,0.06763 1.47879,-0.92426 1.44274,-0.99188c0.03605,0.06763 2.65102,-0.29306 2.61497,-0.36069c0.03605,0.06763 2.56085,-0.20289 2.5248,-0.27051c0.03605,0.06763 2.56085,0.06763 2.5248,0c0.03605,0.06763 0.75742,1.60054 0.72137,1.53291c0.03605,0.06763 0.66725,2.59243 0.6312,2.5248c0.03605,0.06763 0.93776,2.59243 0.90171,2.5248c0.03605,0.06763 0.93776,2.14157 0.90171,2.07394c0.03605,0.06763 2.10999,-3.44905 2.07394,-3.51668c0.03605,0.06763 2.20016,-3.6294 2.16411,-3.69702c0.03605,0.06763 2.47068,-3.17854 2.43463,-3.24617c0.03605,0.06763 0.75742,-0.83408 2.25428,-3.24617c0.03605,0.06763 2.38051,-3.80974 2.34445,-3.87737c0.03605,0.06763 2.92153,-4.53111 2.88548,-4.59874c0.03605,0.06763 1.47879,-2.367 3.24617,-5.50045c0.03605,0.06763 1.20828,-3.08837 1.17223,-3.156c0.03605,0.06763 1.29845,-3.53922 1.2624,-3.60685c0.03605,0.06763 0.48691,-1.37511 0.90171,-3.24617c0.03605,0.06763 -0.05412,-4.2606 -0.09017,-4.32822c0.03605,0.06763 -0.23446,-5.43282 -0.27051,-5.50045c0.03605,0.06763 -0.41481,-3.99008 -0.45086,-4.05771c0.03605,0.06763 -2.12806,-3.26871 -2.16411,-3.33634c0.03605,0.06763 -0.41481,-1.46528 -0.45086,-1.53291c0.03605,0.06763 -2.39857,-0.92426 -2.43463,-0.99188c0.03605,0.06763 -2.66909,0.06763 -2.70514,0c0.03605,0.06763 -1.76738,0.33814 -1.80343,0.27051c0.03605,0.06763 -1.85755,0.06763 -1.8936,0c0.03605,0.06763 -1.046,-0.02254 -1.08206,-0.09017c0.03605,0.06763 -1.76738,-2.00631 -1.80343,-2.07394c0.03605,0.06763 -1.58703,-2.54734 -1.62308,-2.61497c0.03605,0.06763 -0.77549,-0.92426 -0.81154,-1.53291c0.03605,0.06763 -0.05412,-1.55546 -0.09017,-1.62308c0.03605,0.06763 -0.05412,-0.56357 0.12622,-0.74391z" opacity="NaN"  fill="#fff"/>
    <!-- voilé strap-->
  <path class="product-shape6 shape" id="svg_24" d="m744.74353,442.03762l10.50297,-0.8105l3.99998,-0.875l12.74994,-0.75l16.62492,-1.12499l7.62496,0l14.24993,0.125l2.37499,0.125l0.25,4.49998l-1.08333,6.06247l-1.12499,7.3333l-1.29166,7.72913l-0.95833,7.74996l-1.10416,7.87496l4.10415,2.35416l3.95831,2.39582l6.72914,1.54166l7.87496,1.87499l7.91663,1.81249l7.18747,1.27083l5.91664,1.25l2.74999,1.24999l5.49997,0.375l7.99996,1.24999l-0.62358,3.1883l-1.35416,8.85414l-1.77083,7.18748l-1.97916,11.7708l-0.72916,10.72913l-1.14583,19.89577l-7.81248,-9.79164l-11.66663,-13.54163l-4.06249,-6.24998l-4.16665,-5.83332l-4.27082,-6.56248l-3.74999,-5.83332l-2.60416,-4.89582l-4.58332,-6.77081l-3.74999,-6.24998l-4.37499,-6.87498l-4.99998,-9.37497l-4.37499,-7.81248l-6.14581,-10.72913l-3.12499,-3.64582l-3.54166,-2.70833l-3.64582,-1.97916l-3.64582,-1.66666l-5.93748,-0.83333l-2.60416,-1.14583l-2.18749,-0.52083l-2.29166,0.72916l-5.10415,1.25l-7.81248,1.25l-2.91666,-0.10417l-4.27082,-3.02082l-1.50423,-2.02355z" opacity="NaN"  fill="#fff"/>
 </g>

</svg> -->
<svg xmlns="http://www.w3.org/2000/svg" viewBox="0 0 1280 800"><!--bodybag--><path fill="#fff" d="m814.4332 565.0077-.7305 11.8997-.6666 9.3318-.8332 5.6658 6.6656 3.9993 6.9989 4.666 6.6656 6.4989 6.8322 5.999 6.499 6.8323 7.1655 8.1653 6.3323 7.1656 8.6653 10.665-.8332-8.4987-.6665-11.9981-.6666-6.6656-1.3331-8.6653-.8332-5.3325-1.1665-10.4983-.5-6.8322-1.833-6.499-.3332-14.9976-11.3315.3333-12.998-.4999-10.9982-.8332-10.101.0984zM776.1065 563.1527l-.8245 4.6664v3.933l-.8193 5.08-2.7859-3.2774-1.9664-1.311-2.622-.9833.8194-9.8323.9832-.3278 7.2155 2.0524z" class="product-shape1 shape" opacity="NaN"/><path fill="#fff" d="m772.4072 598.202-4.6153-2.9322 3.5436 6.5307 3.0774 3.7132 3.1232 5.122 4.4973 6.8708 2.6234 4.3724 3.6228 3.9976 3.1232 4.8721 3.373 4.1226 3.1231 3.6228.8745 2.7484-2.1237 3.8727-2.9983 2.6234-.8744.6246h-1.624l-2.2487-1.749-.9994 1.4992-.3748 1.9988.4997 1.1243-.3748 1.2493-1.8739-.6247-.2498-2.6234 1.5504-4.427-3.6363-6.2726-3.5454-6.4545-.8182-1.4545-1.0909-1.1818-.5454 1.3636-.2727 4.909-1.8182.5455-1-.6364-2.3636.091-3.3636-.4546-2-1.1818-1.6363-1.909-.6364-3.3637-1.7272-4.0908-5-8.8181-4.7272-7.7272-4.0909-6.3636-4.5454 2.6364-7.909 4.0908-7.6362 5.3636-9 6.7272-2.5453 2.1818-6.3636 5.909-4.3636 4.8181-8.6363 8.6363-4.0908 3.2727-7.4545 6.5454-6.909 5.6363-6.818 5.2726-6.1818 4.4545 9.1817 4.5454 3.8181.091 11.4544.2727 10.0908.4545h3.0909l10.6362 1.1818 9.5454 1.3636 7.6362 1.091 9.4545.6363 10.818.8181 7.909 1.7273 12.6362 1.909 3.3636-.5454 6.6363.2727 11.2726 1.1818 17.7271 1.8182 4.909.3636 4.5454-2.7272 3.6364-.909 5.0908.4544 4.5454 1.8182 4.4545 4.8181 10.5453-.3636 10.9999.3636 9.909.7273 1-4.5454.6363-6.6363-.1818-4.5454-.5454-4.5454-2.8182-5.1818-6.2726-8.4544-6.3636-8.1817-4.2727-5.7272-5.1817-6.6363-2.7273-3.1818-4.8181-5.3636-4.3636-4.5454-4.4545-4.2727-4.2727-3.909-4.1817-3.4545-8.909-5.6363-5.6363-2.6363 1.909 1.3636.1819 2-.3637 1.0909-1.4545 1.0909-2 .6363-2.2727-1.1818-3-1.5454-1.5454-1-3.3636.2727-1.8181-1-3.909-.5454-4.8182-.7273-4.0909-.7273-4.0908-.909-2 .0909-1.8565-1.9729z" class="product-shape1 shape" opacity="NaN" style="vector-effect:non-scaling-stroke"/><path fill="#fff" stroke="null" d="m519.3498 543.6738 1.995 13.7474 1.9606 8.431.7843 5.2938 12.5483 5.2938 8.2349 5.4899 7.8427 4.1174 13.3326 8.431 10.5877 7.6466 14.313 9.9995 13.1365 9.019 5.686 3.5293 9.8034 8.0388 12.9404 10.5877 12.3523 9.8034 12.1562 9.2152 3.1371-2.549 7.2545-4.3134 8.823-6.6663 9.2153-7.8428 8.823-8.4309 8.0388-8.627 9.0192-8.823 7.8427-6.8624 6.4702-4.3135 12.3523-7.6467-2.3528-.9803-2.745-2.1567-1.1764-4.3135.7843-7.2546 2.941-3.7252 6.6663-4.5096 4.5096-1.7646 4.5095-.5882v-5.2938l.5882-5.0978-10.1955-.7843-18.0382-1.7646-19.999-1.5685-6.8624-.5882-17.0579-.9804-17.0579-1.1764-18.2343-.7842-15.8815-.9804-17.254-1.1764-17.0579-1.3725-17.45-1.3725-8.627-.9803-10.5877-1.1764-7.4506-.7843-11.372-.9803-8.823-.5882-10.4258.1734z" class="product-shape1 shape" opacity="NaN" style="vector-effect:non-scaling-stroke"/><path fill="#fff" stroke="null" d="m647.3822 665.878-2.853-1.9746-5.0266-4.1347-6.2742-4.8479-6.0781-4.3673-6.203-5.561-6.5414-5.4188-8.1638-6.1492-7.3256-5.4188-6.8624-4.919-7.8427-4.8844-10.9798-7.2545-4.3135-2.745-7.6467-6.1492-6.8623-5.0266-10.3916-6.4703-10.5877-5.561-7.2545-3.066-3.9214-.7842.5882 2.5488-1.7646.9804-2.1567.5882-2.3529-1.5686-5.0977-.5882-7.4506-.5882-5.882-.7842-4.5096-.3922-2.2279-.125-.9092-3.012-7.4506 2.3528-2.691 1.4801-6.5242 4.99-6.4702 5.686-6.0781 5.8821-6.1492 7.5755-5.2939 7.9677-4.2423 7.2007-3.9214 6.6663-3.9752 8.0215 9.8572 3.9386 11.372 3.9214 10.4627 3.512 11.889 2.9582 13.3326 2.745 10.3205 1.5513 15.5605 1.7819 14.7051 1.1764 11.051.642 6.3452 1.9068 6.5241-.196 12.3523.5882 9.9994 1.1764 4.9017 1.3014 11.7641.2671 13.5826.25 11.4216.9264 13.6212.5171 10.6246.8866zM432.759 647.8215l12.964-.1675-10.7464-4.6234-1.2496 2.874-.968 1.917z" class="product-shape1 shape" opacity="NaN"/><path fill="#fff" stroke="null" d="m487.2405 542.1076 1.093 12.0783.9996 2.4992-.375 7.9973.125 4.7483-7.1225 2.3742-6.123 3.3739-4.9982 3.124-6.123 5.1232-6.4977 6.1229-6.3728 7.3725-2.2493 2.999-4.4984 6.6227-5.2482 7.8723-4.8734 8.1222-5.748 11.2462-6.6228-3.249-4.7483-2.1242-7.8724-2.749-12.8706-5.873-6.7477-3.249-15.3697-9.3717-11.4961-6.8727-7.1226-4.7484-4.7484-3.124-8.622-6.6227-10.8713-8.372-8.2472-5.7481-7.1226-5.1233-3.1239-2.999 10.2465.7498 7.4975.8747 8.1222 1.2496 9.2468.6247 7.4975 1.3746 7.8723.8747 5.873.9996 6.2478 1.1247 3.9987.9996 1.7494-3.4988-.6248-8.1222-.8747-8.3722-1.1246-4.3735 1.3745-5.1232 1.2496-5.4982v-2.874l12.6207 1.2496 9.7467.3749 11.9959.7497 15.8696.9997 13.4953.8747 7.1226.2499 8.3722.9997 3.2489.3748 7.6224.3749 10.4964.6248 4.655.6673z" class="product-shape1 shape" opacity="NaN" style="vector-effect:non-scaling-stroke"/><path fill="#fff" stroke="null" d="m426.7611 639.9492-3.1556 5.2057-1.7494 1.7494-3.124.125-2.3741-1.6245-13.4954-1.6244-12.6207-.3749-9.2469-.6248-5.3731-.6248-15.8696-.6248-13.1206-1.6244-6.6227-.7498-6.2479-.6247-7.8723-1.7494-6.4978-2.4992-7.4974-3.6238-8.497-6.7477-9.8717-9.2468-5.4981-6.2479-6.123-7.8723-5.498-9.4967-5.4982-11.2462-4.6234-13.1205-1.1246-8.622.9996-3.374 4.1236 1.6245 7.3725 1.2496 5.998 1.6244 2.1242.7498 1.7494-1.4995 10.6214 6.3728 12.9956 7.9973 11.621 8.622 18.2438 13.8703 14.495 9.8716 11.1213 6.6228 11.2461 7.1226 14.495 7.3724 6.4979 2.6241 4.6234 1.3746 10.1215 4.2485 10.7464 4.8734 2.4058.5423zM236.2011 514.8669l1.5928 3.5812 8.9969 1.9994 14.3701 3.7487.4998 24.6166-1.6244-.3749-1.2496 1.8744-.7497 4.3735-.25 4.7484.375 5.873.4998 3.9986-2.4992-3.6238-4.2485-8.872-3.8737-5.9979-3.124-7.4974-3.6237-6.3728-1.3745-6.9977.2499-3.2488-1.7494-4.9983-1.7494-3.4988-.4682-3.3314z" class="product-shape1 shape" opacity="NaN"/><!--body--><path fill="#fff" d="m811.7668 438.58-20.7193-.2276-19.671 1.25-11.3814.6579-5.5263.921-9.671.5921-8.421.5264-20.3288.0657-48.355-1.1842-41.1181-.7236-30.9209-.5263-30.6577-.1316-31.3814-1.0526-27.6314-.9869-31.5787-.2631-18.7499-1.4474-21.513-.6579-14.8683-.921-32.6314-1.25-13.3552-.8553-30.4603-.8553-47.3023-1.9736-12.4341-.5263-.8553-3.0921-2.5658-2.0395-3.6842-1.5131-4.4078-.9869-7.6316-.7237-14.934.1316-2.4343.1974.658-3.1579.263-1.25 2.1053-3.75 1.8421-3.6841 2.7632-4.5395.921-1.6447-.0658-3.6184 1.25-3.2237 3.5526-1.6447 5.5921-.0658 1.4474-.8553 4.5394-1.5131 7.6315-3.3552 8.2895-3.4869c.0616.0302 9.7983-2.9303 9.7983-2.9303s8.3552-2.0395 8.2936-2.0696c.0616.0301 3.6142-.6936 6.6447-1.1842.0616.0301 7.5616-1.1541 7.5-1.1842.0616.0301 8.5484-1.0225 8.4868-1.0526.0616.03 6.9036-.233 6.842-.2632.0616.0301.1274 1.4117.0658 1.3816.0616.03-6.5173 2.1353-6.5789 2.1052.0616.0301-7.6357 1.017-7.6973.9869.0616.03-7.9647.9511-8.0263.921.0616.0301 12.3642-.1672 12.3026-.1974.0616.0302 5.7194-.9567 5.6579-.9868.0616.0301 6.1141-.891 6.0525-.921.0616.03 8.8116.5564 8.75.5263.0616.03 9.5352.2275 9.4736.1973.0616.0302 9.009.2933 8.9473.2632.0616.0301 10.7194.359 19.4078-.0658.0616.0301 7.4957-.0357 7.4341-.0658.0616.0301 7.3642 1.346 7.3642 1.2801 0-.0658 7.0395.2632 6.9779.233.0616.0302 6.7262 1.0329 12.8946.4606.0616.0301 8.8773.0301 8.8157 0 .0616.0301 6.6405.1617 6.579.1316.0615.03 6.772.4248 6.7104.3947.0616.0301 10.3247.2933 10.2631.2631.0616.0302 5.851.2275 11.842.1974.0616.0301 9.4695-.2988 9.4079-.329.0616.0302 7.2984.6223 7.2368.5922.0616.03 8.4168.688 8.3552.6579.0616.03 7.8905 1.017 7.8289.9868.0616.0301 3.0879.5564 9.4078.592.0616.0302 9.0747.425 9.0131.3948.0616.0302 7.8247.688 7.7631.658.0616.03 6.9695.8195 12.8289.592.0616.0301 8.7457-.233 8.6841-.2631.0616.03 8.0879.7538 8.0263.7236.0616.0302 7.8247.3591 7.763.329.0617.0301 13.2853.0959 13.2237.0658.0616.0301 12.4957.359 12.4341.329.0616.03 5.1274.4248 13.421.9868.0616.03 8.3097.933 9.1447.489 1.5788.444 8.022.6595 7.9604.6294.0616.0301 9.7326.7538 9.671.7237.0616.03 11.9036.0959 11.842.0657.0617.0302 8.0221-.4961 17.1052-.8552.0616.0301 13.943-.1673 13.8815-.1974.0616.0301 11.5089.1617 11.4473.1316.0616.0301 7.2984.688 12.9604.921.0616.0302 10.1931 1.2144 10.1315 1.1842.0616.0302 9.1405.0302 9.079 0 .0615.0302 12.7588-.1672 12.6972-.1973.0616.0301 9.272-.1673 16.7104-.2632 4.0748.1617 11.2458 1.017 11.1842.9868.0616.0302 11.3115 1.017 11.25.9869.0615.0301 11.1798 1.4775 11.1798 1.4775s11.1184.329 11.0568.2988c.0616.0301 12.101.2275 12.0394.1974.0616.03 10.9168.2932 19.8683.592.0616.0302 12.3641 1.017 12.3025.9869.0616.0301 7.5616 1.2143 7.5 1.1842.0616.0301 7.3642 1.5433 7.3026 1.5131.0616.0302 8.2852-.4961 8.2236-.5263.7853-.1672 8.7457 1.017 8.8115 1.017.0658 0 7.6974.5921 7.6358.562.0616.0301 6.6405 1.4775 6.5789 1.4473.0616.0302 5.5878 2.0038 5.5262 1.9737.0616.0301 5.4563 1.938 5.3947 1.9079.0616.0301 3.8774 1.7406 3.8158 1.7105.0616.0301-.5963 2.596-.6579 2.5658.0616.0301-1.7147 3.8459-1.7763 3.8157.0616.0302-2.241 3.3196-2.7631 4.671.0616.0302-1.8463 4.6354-1.908 4.6053.0617.0301-1.583 6.2143-1.6446 6.1842.0616.03-1.32 5.359-1.3816 5.3289.0616.0301-.399 2.267-.9869 4.8684.0616.03-.8594 6.2143-.921 6.1841.0616.0302-.4647 2.7275-.5263 2.6974.0616.0301-1.0568-1.4173-1.1184-1.4474.0616.0301-5.399-1.0225-7.3684-1.9737.0616.0302-12.8988-3.1277-12.9604-3.1578.0616.0301-13.2936-4.1804-13.3552-4.2105.0616.0301-6.8463-1.0225-6.9079-1.0526.0616.03-5.7278-1.5489-5.7894-1.579.0616.0301-5.5963-.3646-5.6579-.3947.0616.0301-3.9515-1.3515-4.013-1.3816.0615.0301-4.3464-.8909-4.408-.921.0616.0301-2.3068 1.4775-2.3684 1.4473.0616.0302-.7936 2.0038-.8552 1.9737.0616.0301-.1697 1.3892-.7279 1.4775z" class="product-shape1 shape" opacity="NaN" style="vector-effect:non-scaling-stroke"/><!--side--><path fill="#fff" d="m285.9507 619.9862-5.4615-3.0467-4.25-2.5-5.625-2.875-5.25-2.25-4-2.125-4-2.25-4.5-4.4999-1.25-2.125-.5-1.25-2.5-3.375-2.625-4.125-3.375-5.625-4.25-6.375-3.1249-4.5-2-1.25-4.5-1.125-7.5-3.25-6.875-2.125-6.5-2.9999-5-2.375-5.8749-2.25-6.125-2.375-3.625-1.75-1.625-2-.5-5-1.125-7.625-.125-5-.9044-5.3823-1.5956-7.4926c-.1708-.4092-.6267-6.6886-.6267-6.6886s-.875-5.125-.9982-5.1864c.1232.0614-1.6268-3.3136-1.75-3.375.1232.0614-1.7518-3.1886-1.875-3.25.1232.0614-.0018-5.3136-.125-5.375.1232.0614.8732-4.5635.75-4.625.1232.0614.4982-6.6885.375-6.7499.1232.0614-.0459-8.7843.125-12.25.1232.0614.6232-3.8136.5-3.875.1232.0614 2.1232-2.4386 2-2.5.1232.0614 4.7482-5.5636 4.625-5.625.1232.0614 4.4982-5.4386 4.375-5.5.1232.0614 5.4982-7.8135 5.4982-7.8135s3-5 2.8767-5.0614c.1233.0614 3.9983-6.6886 3.875-6.75.1233.0614 3.4983-7.3136 3.375-7.375.1233.0614 1.4983-1.799 3.375-3.625.1233.0614 4.6232-2.4386 4.5-2.5.1232.0614 4.2482-1.8136 4.125-1.875.1232.0614 3.7482-.4386 3.625-.5.1232.0614 3.6232-3.4386 3.5-3.5.1232.0614 6.4982-5.1885 6.375-5.25.1232.0614 3.2261-2.9533 7.7499-6.4999.1233.0614 6.3733-4.4386 6.25-4.5.1233.0614 3.8732-2.8136 3.75-2.875.1232.0614 3.8732-3.0636 3.75-3.125.1232.0614 3.4982-1.9386 3.375-2 .1232.0614 5.3732.0614 5.25 0 .1232.0614 4.1232.4364 4 .375.1232.0614 2.9982.5614 2.875.5.1232.0614-1.5018.8114-1.625.75.1232.0614-5.2518.1864-5.375.125.1232.0614-3.3768 1.5614-3.5 1.5.1232.0614-1.2518 3.3114-1.2518 3.3114s.125 3.75.0017 3.6886c.1233.0614-3.6267 6.3114-3.75 6.25.1233.0614-3.7517 7.5613-3.875 7.5.1233.0613-.6266 3.3113-.75 3.25.1233.0613-1.8766-.1887-2-.25.1234.0613-2.1266-1.5637-2.25-1.625.1234.0613-1.2516 3.5613-1.375 3.5.1234.0613-1.5016 1.8113-1.625 1.75.1234.0613-.6266 2.3113-.75 2.25.1234.0613-.1266 3.3113-.25 3.25.1234.0613-1.1266 2.1863-1.25 2.125.1234.0613-.8766 3.5613-1 3.5.1234.0613-1.2516 4.9363-1.375 4.875.1234.0613-.3766 3.3113-.5 3.2499.1234.0614-1.0016 2.0614-1.125 2 .1234.0614-.5016 3.8113-.625 3.75.1234.0613-1.7516 5.4363-1.875 5.375.1234.0613-.2516 3.6863-.375 3.625.1234.0613.1234 2.4363 0 2.375.1234.0613.1234 3.3113 0 3.25.1234.0613-.0605 1.3849-.125 2.5.1234.0613-1.5016 5.6863-1.625 5.625.1234.0613-1.0016 4.3113-1.125 4.25.1234.0613-.8766 3.1863-1 3.1249.1234.0614.1234 3.6864 0 3.625.1234.0614.3734 4.5613.25 4.5.1234.0613 2.2484 4.4363 2.125 4.375.1234.0613 1.491 2.304 3.25 6 .1233.0613 1.9983 3.6863 1.875 3.625.1233.0613 1.4983 3.3113 1.375 3.25.1233.0613.2483 6.0613.125 6 .1233.0613.3733 5.6863.25 5.6249.1233.0614 1.1233 3.4364 1 3.375.1233.0614 1.2042 2.1055 2.375 4.75.1233.0613.9983 3.4363.875 3.375.1233.0613-.1267 3.1863-.25 3.125.1233.0613 1.4983 6.5613 1.375 6.5.1233.0613 3.7483 6.6863 3.625 6.625.1233.0613 3.3733 7.6863 3.25 7.6249.1233.0614 3.7483 5.8114 3.625 5.75.1233.0613-.0238-.3136 4.5 8.875.1233.0613 2.6233 3.6863 2.5 3.625-.0634.4929.5204 2.5393.6917 3.4632.4982 1.2192.537 2.007.4507 1.9642.2629.0428 1.0097 2.671 1.2174 3.3929.0864.8074 1.6631 4.235 1.2826 3.8393.0276-.1338 2.1767 4.5626 2.9138 6.7552.557 1.631 2.7083 6.0553 2.6219 6.0126.0864.0427 3.0895 5.5196 2.7678 5.5356.4394.0428 2.5538 3.2875 2.2321 3.3036.4394.0427 3.9824 5.3998 3.6607 5.3571.4982.1016 4.64 5.3106 4.5536 5.2679.0864.0427 4.015 4.6855 3.9285 4.6428.0864.0427 1.0686 1.2927.9822 1.25M987.1134 533.9175l.8247-4.3299 1.4433-2.0618 2.4742-2.165 2.268-2.5773 1.1341-2.3711.9278-1.9588-.103-2.4742-1.5464-1.8557-.5155-4.8454 1.3402-4.7422 2.6804-3.7114 4.7423-3.402.5155-3.196.2061-4.1236.6186-2.3712-.2062-4.536.6186-6.701-.6186-2.062-4.6392-8.2473-4.3299-6.3918-4.6391-8.1443-4.33-8.3505-4.2267-6.701-4.7423-7.0104-5.3608-8.1443-4.33-6.8041-3.6082-7.0103-7.5258-11.031-3.299-4.9484-5.567-6.8041-4.7422-3.6083-4.8454-2.7835-5.67-1.134-6.598-1.7526-6.9072-3.1959-5.6701-1.8557h-4.2268l-1.8557 2.5774-3.0928 5.7732-2.268 4.1237-2.0619 5.3608-2.4742 4.9484-3.0928 8.6598-1.9588 3.6083-1.9587 3.402-.5155 2.4743-1.6494 3.5051-3.0928 4.7423-1.6495 4.433-1.9588 7.5258-1.9587 7.5257-1.3402 9.0722-2.165 9.7938-1.031 5.2577-.4123 4.5361-2.0618 6.4949-2.3712 11.134-1.134 2.7835-1.031 5.464-.7216 5.7731-.9278 6.3918-1.4433 5.7732-1.5464 7.4226-1.134 7.2165-.3093 6.3918-.6186 9.1752-.3092 6.598-.5155 7.835.103 9.0722-.103 9.8969v5.6701l1.031 3.402.9278 3.5052.6185 6.2887 1.031 10.4123 1.4433 8.3506 1.4433 10.6185.5154 7.5258.3093 5.7732.6186 8.5567 2.9896 3.9175 3.299 4.0206 3.5052 5.1547 3.1958 5.567 1.031 1.7526 1.134 5.4639.3093 5.67-.3093 5.6702-.9278 5.7732-.2062 1.2371 5.67 3.299h5.0516l5.6701-.1031 7.3196-.2062 5.567.103h4.1237l4.5361 1.2372 4.8454 1.3402 5.567 1.9588 2.8866.9278 5.1546-.2062 2.9897-4.6392 5.0516-8.0412 5.1546-8.4536 3.299-5.9794 3.1958-4.7423 2.165.1031 4.3299 3.7114 3.1959 1.6494 1.7526.6186 1.4433-1.4433 3.6082-4.3299 2.7835-2.8866 4.33-3.1959 4.639-4.0206 2.5774-3.0928 3.0928-4.536 4.6392-8.0413 4.7422-6.598 3.8145-4.6391 4.3299-4.7423 4.1237-3.402 1.7526-1.3403 1.6494-2.371 4.5361-3.0929 3.6083-1.7525 1.8556-2.4743-.103-3.6082 3.5051-5.9794 5.3608-8.5567 5.7732-9.1753 3.6083-5.67 3.1959-6.9073 3.7113-7.732 1.7526-3.0927.7216-2.6804-.7216-3.5052-2.4743-4.433-3.6082-5.3608-2.9897-4.0206-2.0619-5.2577-2.165-3.4021-6.9071-4.536-8.866-7.5259-4.33-3.1958-4.1236-2.4743-5.0516-1.6494-4.8453-.2062-6.4949 1.237-2.9897 2.165-.103 9.3815-3.9176 2.5773-1.6495.4124-1.5464 2.268-.7216 1.9588-1.8557 2.6804zM1027.6289 455.2577l1.237 1.4433.1031 1.9588 1.5464.4123 1.4433-1.5463.7217-1.3403 2.0618 2.5774 3.196 3.6082 3.6082 3.299 5.2577 4.1237 3.9175 3.6082 3.299 2.6805 1.9588 2.4742 2.268 1.134 1.8557 2.0619 2.5773 2.8866 2.165 1.7525 1.6494-.3092-.103 1.6494.103 2.268 1.7526 2.165 1.8557 3.402 1.4433.928.6185-1.031v-4.2268l-.5154-3.9175-1.6495-7.0103-1.4433-4.7423-1.8557-5.1547-2.165-4.0206-1.7525-1.9587-2.6804-1.5464-4.0206-2.4743-4.433-1.6494-4.7423-.8248-3.0928-1.237-3.0928-.7217-2.268-.8248-2.268-1.134-3.6083-.4124-3.299.7217-1.6494.9278z" class="product-shape2 shape" opacity="NaN"/><!--bottom zipper--><path fill="#fff" d="m814.8914 494.0077-18.123-1.0925-3.5416 8.75-3.75 8.3333-6.25 10 .3125 3.4374-.5208 5.7292-.4167 7.2916-1.0417 5.2083-1.7708 3.6459-3.3333 3.4374-3.5417 2.0834-4.0625.7291-.8333 9.6875 7.6042 1.3542 3.2291.3125 6.875.625 6.1458.4166 6.25.2084 6.7708.7291h15.625l7.7083.5209 9.2708.625 8.6458.1041 8.2291.1042 5.625-.1042-.1042-9.4791-6.3541-7.5-4.1667-5.1041-4.5833-5.1042-4.6875-5.625-3.9583-6.1458-2.5-3.4375-3.0208-4.375-3.5417-5.5208-3.8541-6.0416-1.6667-3.5417-3.2291-4.5833-3.4395-5.6783z" class="product-shape3 shape" opacity="NaN" style="vector-effect:non-scaling-stroke"/><path fill="#fff" d="M749.821 484.2002s-15.038-2.1966-15.1616-2.3123c.1236.1157-21.3349-1.9118-21.4585-2.0275.1236.1157-20.659-1.236-20.7827-1.3518.1236.1157-23.3625-1.7429-23.486-1.8586.1235.1157-28.4316-1.405-28.5552-1.5206.1236.1157-17.7866-.5602-29.2309-1.5207.1236.1157-34.6832-1.574-34.8068-1.6897.1236.1157-29.1073-1.236-29.2309-1.3517.1236.1157-15.928.1157-25.8516-.8448.1236.1157-32.8246-1.236-32.9482-1.3517.1236.1157-27.7556-1.743-27.8792-1.8587.1236.1157-18.8005-1.236-36.4964-2.7034.1236.1157-39.9211-2.9257-40.0447-3.0414.1236.1157-21.5039-.898-21.6275-1.0137-1.397.2846-8.3247-.2223-19.7689-1.5207.1236.1157-23.0246-1.405-23.1482-1.5207.1236.1157-18.4625-.5602-18.5861-.6759.1236.1157-20.4901-.898-20.6137-1.0138.1235.1157-13.3936.7916-13.5172.6759.1236.1157-1.735 1.9743-3.7173 4.0552-1.228 1.2984-.8902 2.4812-1.0138 2.3655.1236.1157-19.1384-1.574-19.262-1.6897.1236.1157-1.397 2.4812-1.5206 2.3655.1236.1157-10.6902.4537-10.8138.338.1236.1157-.8902 5.5225-.169 5.069-1.904 3.8328-2.9177 8.057-3.0413 7.9413.1236.1157-.7212 3.157-.8448 3.0413.1236.1157.6305 7.7191.5069 7.6034.1235.1157 5.3615 9.5778 5.2379 9.462.1236.1158 3.5029 7.2123 3.3793 7.0966.1236.1157.7994 11.6053.6758 11.4896.1236.1157 1.6443 3.495 1.5207 3.3793.1236.1157 22.9339 5.8605 22.8103 5.7448.1236.1157 10.9373 1.1295 10.8137 1.0138.1236.1157 9.9236 1.4674 9.8 1.3517.1236.1157 6.0373-.0532 5.9137-.169.1236.1158 7.0512.6227 6.9276.507.1236.1157 14.9925 1.8053 14.869 1.6896.1235.1157 6.8821 1.2985 6.7585 1.1828.1236.1157 12.796.7915 12.6724.6758.1236.1157 12.12 1.1295 11.9965 1.0138.1236.1157 12.627.7916 17.7413 1.6897.1236.1157 16.3442 1.2984 16.2206 1.1827.1236.1157 13.134 1.1295 13.0103 1.0138.1237.1157 16.5132 1.1295 16.3897 1.0138.1236.1157 18.5407 1.1295 18.4171 1.0138.1236.1157 20.9063 1.4674 20.7827 1.3517.1236.1157 9.9236.6226 9.8.507.1236.1156 11.6132 1.4673 11.4896 1.3516.1236.1157 13.8097.2847 23.993 2.0276.1236.1157 27.327 1.2985 27.2033 1.1828.1236.1157 16.3443.2846 16.2207.169.1236.1156 20.7373 1.6363 20.6137 1.5206.1236.1157 24.6235 2.8191 24.5 2.7034.1235.1157 32.5648 2.8192 32.7337 2.8192.169 0 28.3861 1.8586 28.2625 1.7429.1236.1157 25.6373 1.4674 25.5137 1.3517.1236.1157 17.696 1.4674 35.4827 2.1965.1236.1157 31.72 2.6502 31.5964 2.5345.1236.1157 21.4757 1.8054 21.352 1.6897.1237.1157 1.4823-6.4507 2.1712-7.5664.8736-2.0718 2.283-3.3007 2.1595-3.4164.1236.1157-3.7626-2.4187-3.8862-2.5344.1236.1157-4.4385-4.4464-4.562-4.562.1235.1156-2.9178-5.7981-3.0414-5.9138.1236.1157-1.0592-5.7981-1.1828-5.9138.1236.1157 1.4753-7.1498 1.3517-7.2655.1236.1157 2.1512-6.8119 2.0276-6.9276.1236.1157 1.1374-4.2774 1.0138-4.393.1236.1156-.8902-8.5016-1.0138-8.6173.1236.1157.1236-7.9946 0-8.1103.1236.1157 1.1374-4.6153 1.0138-4.731.1236.1157 2.3202-6.136 2.3202-6.136z" class="product-shape3 shape" opacity="NaN"/><path fill="#fff" d="m752.9809 521.7995-2.2412 3.0683-1.375 2.375-.375 3v3.2499l.75 2.375 1.625 2.375 2.25 2.3749 2 2 1.5 1.75.875.25-.125-3.375-.5-2.75-.25-1.625-1.125-2.9999-1.125-2.875-1.125-2.125-.875-1.9999-.375-1.375.125-2.125.3662-1.5683zM769.2306 546.0492l1.5088-.6817 1.25-.625 1.375-1.25 1.25-1.375 1-1.75.5-1.3749.25-2.5v-5.2499l-2.625 3.5-4.125 5.7499-1 1.25.6163 4.3066zM762.8557 520.2995l3.1338 1.6933 2.875 1.5-3.375 5-1.625-3.75-1.0088-4.4433z" class="product-shape3 shape" opacity="NaN"/><!--front elastic--><path fill="#fff" d="m808.3648 590.0624 4 1.8125 5.875 3.5 6.875 4.75 6.75 6.25 4.5 4 5.625 5.375 8.375 9.375 6.625 7.25 6.375 7.625 4.875 5.875 6 7.375 4.375 6.75 3.125 5.625 1.5 6.875v6l-.5 6-1 4.625 4.875 3.375 4.875 4.125 4.125 4.125 1.25 4.75v4.625l-1.75 4.875-3 3.625-4.375 2.875-6.125 2.75-7.75 3-8 2.125-9 1.875-9.375.75-7.625.75-7.125-.25-6.125-1-1.625-.875 1.5-3 .75-4 4.625-.125 5.375-.25 6.5-.375 7.25-.25 5.125-1 6.5-1.5 6.125-2.125 5.625-1.625 5.375-2.25 4.125-2.125 2.75-3 1.25-2.5-.25-2.5-1.375-2.625-2.25-2-2.625-2.125-2.25-1h-1.125l-1.375 3-2.125 3.25-3.625 4.375-3.75 3.25-4.875 3.75-4.625 3.125-4 1.625-4.625 1.625-7.625 1.625-6.25 1-5.875.375-1.875-.625.375-6 .5-3.625 1.5-.875 5.25-.125 4.375-.375 4.75-.75 4.25-1.125 3.75-1.875 3.25-1.625 3.125-2.25 3.5-3.125 3.75-4.625 2.75-4.125 2-3.625.875-4.25.5-4.375v-3.5l-.25-4.125-.375-3.5-2.5-5-2.375-3.5-3.125-4-4.75-6-3.375-4.375-3.25-4.625-5.5-7-3.875-4.25-4-4.5-3.875-4.25-4-3.75-4.875-4.5-4.375-3.625-4.75-3-4.5-2.75-3-1.5-2.25-.875-.25-3.375.625-2.375 1.125-5.4375zM794.177 720.1372l2.903-4.6686 2.9998-3.8749 3.6249-5.2497.5-1.625-5.6248-3.3748-8.1246-3.9998-4.7498-2.625-4.2499-2.1248-4.7497-2.5-3.9999-1.3748 12.2495-1.125 6.2497-.75 7.1247-1 7.7497-1.1249 5.2497-.75L797.33 682.72l-14.8744-1.5-6.6247-.25-9.4996 1.375-6.8747.25-5.6247-.875-5.2498-1-6.4997-1.4998-4.8748-1.25-5.3748-1.5-5.7497-.8749-7.4997-1.125-7.8746-.9999-6.9997-.75-7.1247-.125-5.8747-.25-6.1248-.125-5.3747-.25h-3.6249l-4.7498-2.2498-4.4998-2.25 4.8748-3.4998 5.1248-3.8748 4.4998-3.4998 4.8748-4.1249 5.4998-4.8748 6.6247-5.4997 4.8748-4.8748 4.7497-4.7498 4.2499-4.6248 5.3747-4.9998 5.9998-4.7498 5.9997-4.3748 7.2497-5.1248 5.9997-3.1248 3.1249-1.625 3.1248-1.8749-2.7498-.5-1.75-.25-2.6248-2.2498-1.375-1.875-1.9999-.75-2 1.125-3.8747 2.5-3.7499 2.2498-3.9998 2.6249-4.1248 2.6249-4.7498 4.1248-4.4998 3.7498-3.8748 3.9999-4.8748 4.7497-3.7499 3.8749-3.8748 4.1248-4.4998 4.3748-5.3748 4.8748-4.2498 3.7498-3.4998 2.8749-4.7498 3.7498-6.6247 4.7498-5.9998 3.4999-2.8748 2.3749-4.7498-3.8749-4.9998-3.6248-6.8747-5.3747-5.8747-4.2499-6.7497-5.7497-4.3748-3.7498-6.6248-5.6248-7.4996-5.7497-6.9997-4.6248-6.9997-4.6248-8.2496-5.8748-4.2499-2.9999-7.3746-4.9997-7.6247-5.6248-6.9997-4.6248-7.7497-4.9998-8.9996-4.7498-6.2497-4.2498-6.3747-2.7498-6.8747-2.75-4.9998-1.3749-1.75.875v3.9998l1 3.3749c.097.0438 2.5969 2.6687 2.5969 2.6687s5.1248 1 5.0278.9561c.097.0439 9.7215 4.2937 9.6246 4.2498.097.0439 12.0964 6.7936 11.9995 6.7497.097.0439 10.2215 6.6686 10.1245 6.6247.097.0439 11.2215 8.7935 11.1245 8.7496.097.044 9.5966 6.1686 9.4996 6.1248.097.0438 12.5964 8.1685 12.4995 8.1246.097.0439 1.4719.7939 5.7497 3.9998.097.0439 10.3465 7.5436 10.2496 7.4997.097.0439 8.8465 6.5436 8.7496 6.4997.097.0439 11.3464 9.9185 11.2495 9.8746.097.0439 12.2214 9.0435 12.1245 8.9996.097.0439 6.0967 5.0436 5.9997 4.9998.097.0438.972.6688 2 1.2499.4719.4189-11.2776-.5811-13.1245-.75.097.0439-12.7775-.581-13.9994-.625.097.044-7.2777-.706-7.3747-.75.097.044-8.5276-.206-8.6246-.2499.097.0439-10.2776.1689-10.3745.125.097.0439-10.7776-.5811-10.8745-.625-2.528.1689-8.5277.0439-8.6247 0-.653.5439-15.2774 1.0439-15.3743 1 .097.0439-9.9026 1.0438-9.9996 1 .097.0438-8.4026.1688-12.6244 0 .097.0438-5.7778-.2062-5.8747-.25.0969.0438-6.6528-1.0811-6.7497-1.125.0969.0439-7.5278-.4561-7.6247-.5.097.0439-9.2777-.2061-9.3746-.25.097.0439-4.7779-.456-10.9995-1.125.097.044-9.5277.044-9.6246 0 .097.044-20.6522-.081-20.7491-.125.097.044-5.1528.419-14.6244.375.097.044-9.2776.544-9.3745.5.0969.044-2.528.5439-2.625.5.097.0439-2.5279-.206-2.6248-.25.097.044-2.278-1.706-2.375-1.7499.097.0439-1.6529-1.081-1.7498-1.125.0969.044-1.403-1.706-1.5-1.7498.097.0438-2.153-.8311-2.2499-.875.097.0439-2.9029.5438-2.9998.5.0969.0438-1.778 1.6688-1.875 1.6249.097.0439-1.153 2.0438-1.2499 2 .097.0438.222 4.4186.125 4.3747.097.0439-3.278 2.1688-3.3749 2.125.097.0438-2.7779 2.5437-2.8748 2.4998.0969.0439-1.778 3.9187-1.778 3.9187s-3.1249.375-6.0967-.2938c.097.0438-7.9027.0438-7.9996 0 .0969.0438-5.4029.4188-5.4998.375.097.0438-2.653 1.4188-2.7499 1.3749.097.0439-.778 1.7938-.875 1.7499.097.0439-.903 2.2938-.9999 2.2499.097.0439.097 2.2938 0 2.2499.097.0439 1.3469 2.0438 1.25 2 .0969.0438.8469 1.0437.75.9999.0969.0438.3469 2.0438.25 1.9999.0969.0439-2.028 1.5438-2.125 1.5.097.0438-1.028 2.1687-1.028 2.1687s.5 3.3748.403 3.331c.097.0438 1.472 2.1688 1.375 2.1249.097.0439 2.7218-.5811 2.6249-.625.0969.0439 3.7217-.831 3.6248-.875.097.044 4.5967-.956 4.4998-1 .097.044 4.4717-.831 4.3748-.8749.097.0439 3.8468-.706 3.7499-.75.0969.044 3.0968-.581 2.9998-.625.097.044 2.0969-.706 2-.7499.0969.0439 1.5968.9189 1.4999.875.0969.0439 1.7218 1.7938 1.6249 1.7499.097.0439 2.3468 1.1688 2.2499 1.125.097.0438 3.3468.5438 3.2499.5.0969.0438 2.7218-1.2061 2.6248-1.25.097.0439 2.0969-1.706 2-1.75.0969.044.0969-2.081 0-2.1248.0969.0438 3.8467-.0812 3.7498-.125.097.0438 3.0968-1.3311 2.9999-1.375.0969.0439 1.0968-1.956 1-1.9999.0968.0439.3468-3.206.2499-3.2498.097.0438.097-2.456 0-2.5.097.044 1.2219-.331 1.125-.375.0969.044 2.2218-.456 2.1249-.4999.0969.0439 4.4717.1689 4.3748.125.0969.0439 5.8467.2939 5.7497.25.097.0439 4.9717.1689 4.8748.125.097.0438 5.5967-.2061 5.4998-.25.097.0439 4.3467-.0811 4.2498-.125.097.0439 5.9717-.4561 5.8747-.5.097.0439 5.9717-.3311 5.8748-.375.0969.0439 6.2216-1.081 6.1247-1.125.097.044 5.5967-.456 5.4998-.4999.0969.0439 6.9716-.706 6.8747-.75.0969.0439 2.4718-.706 2.3749-.75.0969.044 5.0967-.456 4.9997-.5.097.044 3.0968-.206 3.0968-.206s4.6248-.375 4.5279-.4189c.097.0439 3.7218-.706 3.6248-.75.097.0439 4.8468-.206 4.7498-.25.097.044 5.4717.169 5.3748.125.097.0439 3.9718.2939 3.8748.25.097.0439 7.4716.6689 7.3747.625.097.0439 2.3468.1689 5.3748.875.0969.0438 7.3466 1.0438 7.2496 1 .097.0438 6.5967 1.0437 6.4998.9999.0969.0438 5.8466.5438 5.7497.5.097.0438 7.0966 1.2938 6.9997 1.2499.097.0439 3.2218.4189 5.4998 1.125.2219.0438 6.3466.0438 6.3466.0438s6.1248.625 6.2498.625 6.9996.75 6.9027.706c.097.044 7.7216.419 7.6247.375.097.044 10.8464.544 10.7495.5.097.044 11.0965.044 10.9995 0 .097.044-29.9017.044 9.9996 0 .097.044 6.4716-.331 6.3747-.375.097.044 8.4716-.331 8.3746-.375.097.044 9.2216.169 9.1246.125.097.044 6.9717-.581 6.8747-.6249.097.0439 9.0966-.2061 8.9996-.25.097.0439 4.4718.4189 4.3748.375.097.0439 2.3469.7938 3.8749 1.75.097.0438 5.3467 2.0437 5.2497 1.9998.097.0439 5.5967 2.1688 5.4998 2.125.097.0438 6.4717 2.1687 6.3747 2.1248.097.044 6.0967 1.4189 5.9998 1.375.0969.0439 5.5967 1.6688 5.4997 1.625.097.0438 5.8467.6688 5.7498.6249.097.0439 7.0966-.2061 6.9997-.25.0969.0439 9.4715.6688 9.3746.625.0969.0438 6.9716-.0812 6.8747-.125.0969.0438 7.4716.2938 7.3746.25.097.0438 4.5968.2938 4.4998.25.097.0438 2.3469 1.6688 3.8749 2.2499.097.0438 5.8467 3.2937 5.7497 3.2498.097.0439 6.9717 4.0437 6.8747 3.9998.097.0439 5.7217 3.2938 5.6248 3.2499.097.0439 6.7216 3.6687 6.6247 3.6248.097.0439 6.9716 4.2937 6.8747 4.2498.097.044 5.7217 3.1688 5.6247 3.1249.097.0439 3.9998 2.1874 5.0968 2.6688zM260.1137 548.4362l-1.2491 1.813-.875 4.25-.125 5.125.375 5.75.625 5.125 1.75 6.5 3 7.875 2.625 6.125 4.25 8.625 5.75 8.625 4.625 5.5 5.5 6.375 6.25 5 5.375 5 6.5 4.875 8 4.6249 5.4999 1.625 6.375 2.125 7.75.625 8.375.125 7.5-.5 6.375-1 5.375-1.25-8.5-.875-10.125-1.25-7.125-.625-7.75-1.75-6.875-2.375-7.625-3.875-7.25-5.75-6.5-5.75-5-5-5.75-6.5-5.625-7.375-3.5-6-3.25-5.875-3.125-6.5-2.125-5.1249-1.75-5.75-1.5-4.5-.875-4.875v-4.125l.5-2.625-2.125-.625-1.75-1.625-.875-3.375-1.1258-.813z" class="product-shape4 shape" opacity="NaN"/><path fill="#fff" d="m291.6137 549.5612-4.6242-2.062-3.75-1.5-1.75-.75-.75 2.125.25 2.625.5 2.25 1.125 1.875 3.25 3.375 4 2.5 3.25 1.875 5.25 3.125 6.25 3.75 7.375 4.625 6.75 4.875 9.25 7.125 12.125 9.125 9.25 6.625 9.5 6.25 9 5.125 9.375 6 6.75 3.75 7.375 3.5 7.125 3 6.1249 2 8.25 3.5 9.125 4.125 4.625 1.75-2.875 5.125-2.25 1.75-3 .125-2-1.625-9.375-1.125-4.375-.5 2.875 2.625 4.875 3.375 5.375 3.75 3.375.875h4.375l2.375-1 3.25-2.875 2.625-2.75 1.75-1.875 1.25-2.875 5.875 2.5 6.25 2.5 8.625 2.5 7.875 2.375 9.625 2.5 7.4999 1.875 7.5 1 7.625 1.375 5.125.5 5.125.5 7 .25 8.625.5h8.5l8.125-.375 8.875-.25 5.6249-.375-6.125-2-13.5-1.125-9.625-.875-10-.75-9.875-1.125-9.625-1.75-10.125-1.75-8.5-2.125-6.3749-1.875-6.5-2.125-7.875-2.375-8.875-3.25-5.625-2.375-2.25-1 1.25-2.875 3.875-7.375 2.625-4.625 2.625-4.375 3.25-5.125 2.5-3.75 3.5-4.5 3.125-3.75 3.5-4 4.25-3.625 4.25-3.75 3.625-3 4-3.25 4-1.75 3.625-1.125 2.375-.625-.625-2.375-.5-3.375-.125-3.125-3.375 1-4.625 1.625-5.375 3.125-4.125 2.625-3.125 2.375-3.625 3.25-4.25 3.875-3.75 3.75-2.375 2.875-4.25 5.125-3.375 5-3.125 4.375-2.75 4.375-2 3.25-2.375 4-1.75 2.75-2.25 4.625-2 3.875-1.125 2.375-5.375-2.75-4.75-2.125-8.375-3-10.8749-4.875-9-4.25-7.5-4.5-6.5-4.125-6.625-3.75-6-3.625-6-4-7.125-4.625-8.5-6.625-5.625-4.5-8.3749-6.25-6.25-4-6.875-5.375-2.125-2-6.25-1.125-6.125-.625-5.25-1-3.125-.375-.125-3.125-.875-5.25-.1258-2.438z" class="product-shape4 shape" opacity="NaN"/><!--zipper elastic--><path fill="#fff" d="m758.7356 470.5345-2.5287 1.954-1.7241 2.7586-2.2989 2.7587-1.1494 2.6436-1.3793 3.3334-1.1495 4.4827-1.2643 2.7586-.3449 3.3334-.3448 5.4023.115 4.9425.5747 4.7126.3448 2.2989.8046-1.7241.8046-3.1035.4598-3.1034 1.1494-4.9426 1.6092-3.4483 1.0345-4.023 1.0345-3.3333 1.1494-4.8276 1.7241-4.3678 1.3793-5.2873.9196-2.184s-.47-.4386-.9196-1.0344zM768.591 462.8679l3.5708-2.0514 2.7953-.7214 4.7791-.0901 3.5167.3607 2.3445 1.1722 2.615 1.7132 2.4345 2.3445 2.3445 2.8855 2.3445 4.8692 1.2624 3.697.8115 4.238-.0902 6.9433-.7213 5.9513-2.074 4.4184-2.9756 6.7628-2.2543 5.0496-5.8612 9.1975-3.9675 7.2137-6.0415 8.5663-4.5987 6.1316.2705 5.9514-.1803 6.0414-.451 2.8855-.6311 6.4022-.541 5.23-.1804 3.5166 2.5248.7214 2.074 1.4427 1.8034 2.4346.6312 1.082-.0902 3.156-.7213 1.6232-.1804 1.8936-.0902 3.2461.1804 1.9838-.7214 2.4346-.9919 1.0821.5627 2.7822.216 2.6647-4.7462-2.9221 2.1641 3.2462 1.4427 3.0658 2.3445 2.8855 3.156 4.779 2.2543 3.7873 2.7953 4.1478 3.156 4.5988 3.8774 4.779 3.4265 5.4103c.036.0677 3.192 3.5843 3.192 3.5843s2.3445 2.8855 2.3084 2.8179c.036.0676 1.3886 2.863 1.3526 2.7953.036.0676-1.4067 2.7728-1.4428 2.7051.036.0677-1.9477 2.4121-1.9837 2.3445.036.0676-2.6691 2.322-2.7052 2.2543.036.0676-1.6772.0676-1.7132 0 .036.0676-2.128-1.7358-2.1641-1.8035.036.0677-.7755 1.24-.8116 1.1723.036.0676-.4148 2.0514-.4508 1.9837.036.0677.3065 1.781.2705 1.7133.036.0676-.1443.8792-.1804.8115.036.0677-.8656.1578-.9017.0902.036.0676-1.2263-.6537-1.2624-.7214.036.0677-.1443-2.0063-.1803-2.0739.036.0676.3065-2.1866.2705-2.2543.036.0677.8476-1.4653.8115-1.5329.036.0676.487-.834.4509-.9017.036.0676-1.9477-3.3589-1.9838-3.4265.036.0676-3.5708-6.605-3.6068-6.6727.036.0676-2.128-3.8097-2.1641-3.8774.036.0677-1.2264-1.4652-1.2624-1.5329.036.0677-.505 1.6006-.541 1.533.036.0676-.1444 3.0432-.1804 2.9756.036.0676-.0541 1.9612-.0902 1.8936.036.0676-1.6772.6087-1.7132.541.036.0677-1.2264-.5635-1.2624-.6312.036.0677-2.7593.1578-2.7953.0902.036.0676-2.7593-.4734-2.7954-.541.036.0676-1.7673-1.0145-1.8034-1.082.036.0675-1.8575-1.826-1.8936-1.8937.036.0676-.5951-3.1785-.6312-3.2462.036.0677-1.4067-3.8097-1.4427-3.8773.036.0676-3.0298-5.2525-3.0659-5.3201.036.0676-.4148-.8341-1.9837-3.7872.036.0676-2.7593-4.2606-2.7953-4.3283.036.0677-3.3905-5.6131-3.4265-5.6808.036.0677-2.7593-4.0802-2.7954-4.1478.036.0676-.9558-.203-1.2624-.3607.036.0676-2.8494-.203-2.8854-.2705.036.0676-2.6691-1.9162-2.7052-1.9838.036.0676-1.8575-2.2768-1.8936-2.3445.036.0677-1.7674-.5635-1.8034-.6312.036.0677-2.6691-.9242-2.7051-.9918.036.0676-2.2183-1.7358-2.2543-1.8035.036.0677-1.2264-3.2687-1.2624-3.3363.036.0676-.0541-3.449-.0902-3.5167.036.0676.2164-3.0884.1803-3.156.036.0676 1.028-2.5473.992-2.615.036.0677 1.7492-2.1866 1.7132-2.2542.036.0676 2.5608-2.0063 2.5248-2.074.036.0677 2.8313-1.9161 2.7953-1.9837.036.0676 3.192-1.6457 3.156-1.7133.036.0676 3.0117-1.1046 2.9756-1.1722.036.0676 2.8314-.3833 2.7954-.4509.036.0676 1.9296.0676 1.8936 0 .036.0676-.0542-1.285.0901-3.5167.036.0677.3066-4.531.2705-4.5987.036.0676.1263-.0226.541-4.1479.0361.0676 1.2985-4.982 1.2625-5.0496.036.0676 1.7493-3.3589 1.7132-3.4265.036.0676 1.569-1.285 1.533-1.3526.036.0677 1.4787.4283 1.4427.3607.036.0677-.0542-3.6294-.0902-3.697.036.0676.3066-1.3751.0902-3.9675.036.0676-.4148-3.5393-.4509-3.6069.036.0676-.5951-2.367-.6312-2.4346.036.0676-.505-1.4653-.541-1.533.036.0677.1262.1579-1.1723-3.156.0361.0677-1.587-2.7276-1.623-2.7952.036.0676-.7755-2.367-.8116-2.4347.036.0677.3066-2.908.2705-2.9756.036.0676.3066-1.1046.2705-1.1722.0361.0676 1.4788-.9243 1.4428-.992.036.0677 2.651-.293 2.615-.3606.036.0676 2.5608-.2029 2.5248-.2705.036.0676 2.5608.0676 2.5248 0 .036.0676.7574 1.6005.7213 1.5329.036.0676.6673 2.5924.6312 2.5248.036.0676.9378 2.5924.9017 2.5248.036.0676.9378 2.1416.9017 2.074.0361.0676 2.11-3.4491 2.074-3.5167.036.0676 2.2001-3.6294 2.1641-3.697.036.0676 2.4707-3.1786 2.4346-3.2462.036.0676.7574-.8341 2.2543-3.2462.036.0676 2.3805-3.8097 2.3445-3.8774.036.0677 2.9215-4.531 2.8854-4.5987.036.0676 1.4788-2.367 3.2462-5.5005.036.0677 1.2083-3.0883 1.1722-3.156.036.0677 1.2985-3.5392 1.2624-3.6068.036.0676.487-1.3751.9017-3.2462.0361.0676-.054-4.2606-.0901-4.3282.036.0676-.2345-5.4328-.2705-5.5005.036.0677-.4148-3.99-.4509-4.0577.036.0677-2.128-3.2687-2.1641-3.3363.036.0676-.4148-1.4653-.4509-1.533.036.0677-2.3985-.9242-2.4346-.9918.036.0676-2.669.0676-2.7051 0 .036.0676-1.7674.3381-1.8035.2705.036.0676-1.8575.0676-1.8936 0 .036.0676-1.046-.0225-1.082-.0902.036.0677-1.7674-2.0063-1.8035-2.0739.0361.0676-1.587-2.5473-1.623-2.615.036.0677-.7755-.9242-.8116-1.5329.036.0677-.054-1.5554-.0901-1.623.036.0676-.0542-.5636.1262-.744z" class="product-shape5 shape" opacity="NaN"/><!--voilé strap--><path fill="#fff" d="m744.7435 442.0376 10.503-.8105 4-.875 12.75-.75 16.6248-1.125h7.625l14.25.125 2.375.125.25 4.5-1.0834 6.0625-1.125 7.3333-1.2917 7.7291-.9583 7.75-1.1042 7.875 4.1042 2.354 3.9583 2.396 6.7291 1.5416 7.875 1.875 7.9166 1.8124 7.1875 1.2709 5.9166 1.25 2.75 1.25 5.5.375 8 1.25-.6236 3.1883-1.3542 8.8541-1.7708 7.1875-1.9792 11.7708-.7291 10.7291-1.1458 19.8958-7.8125-9.7917-11.6667-13.5416-4.0625-6.25-4.1666-5.8333-4.2708-6.5625-3.75-5.8333-2.6042-4.8958-4.5833-6.7708-3.75-6.25-4.375-6.875-5-9.375-4.375-7.8124-6.1458-10.7292-3.125-3.6458-3.5416-2.7083-3.6458-1.9792-3.6458-1.6666-5.9375-.8334-2.6042-1.1458-2.1875-.5208-2.2916.7291-5.1042 1.25-7.8125 1.25-2.9166-.1041-4.2708-3.0208-1.5043-2.0236z" class="product-shape6 shape" opacity="NaN"/></svg>