<svg id="product-svg" viewBox="0 0 1280 800" xmlns="http://www.w3.org/2000/svg" xmlns:xlink="http://www.w3.org/1999/xlink">
 <g id="Layer_1">
  <title>Layer 1</title>
  <!--partie1-->
  <path class="product-shape1 shape" id="svg_2" d="m339.98062,377.40076l2.84592,1.59173l2.83328,2.66661l2.83328,3.33327l1.8333,3.1666l3.66659,7.16652l2.33329,5.99988l1.16664,2.33329l4.9999,-0.83332l7.49985,-1.49997l8.49983,-1.16664l6.16654,-0.99998l5.49989,-1.49997l6.33321,-0.99998l5.83322,-1.16664l4.83324,-0.66665l4.49991,-0.99998l3.83326,-1.33331l-0.33333,-2.49995l-1.16664,-3.1666l-1.16664,-3.33327l-2.83328,0l-2.66661,-1.49997l-2.33329,-3.49993l-1.33331,-4.33325c0.15402,0.0749 -1.51261,-3.0917 -1.51261,-3.0917c0,0 -1.99996,-1.99996 -2.15398,-2.07486c0.15402,0.0749 -2.0126,0.0749 -2.16662,0c0.15402,0.0749 -4.51255,0.90822 -4.51255,0.90822c0,0 -7.49985,1.33331 -7.65387,1.25841c0.15402,0.0749 -6.84584,0.74155 -6.99986,0.66665c0.15402,0.0749 -6.51252,1.07488 -6.66653,0.99998c0.15402,0.0749 -8.01249,1.40821 -8.1665,1.33331c0.15402,0.0749 -7.5125,1.24154 -7.66651,1.16664c0.15402,0.0749 -7.5125,1.07488 -7.66651,0.99998c0.15402,0.0749 -5.6792,0.74155 -5.83322,0.66665c0.15402,0.0749 -2.67926,0.40823 -2.67926,0.40823z" opacity="NaN" fill="#fff"/>
  <path class="product-shape1 shape" id="svg_3" d="m466.64479,357.06783l3.01258,-0.24156l2.83328,0l3.33327,0.16666l-1.16664,2.83328l-2.66661,3.66659l-2.49995,3.49993l-0.99998,-3.1666l-0.99998,-3.33327l-0.84596,-3.42503z" opacity="NaN" fill="#fff"/>
  <path class="product-shape1 shape" id="svg_5" d="m485.14442,376.90077l-0.82068,-5.74145l-0.49999,-3.99992l-0.66665,-5.66655l0.16666,-2.49995l4.83324,-1.8333l4.83324,-1.99996l5.33323,-2.16662l3.83326,-0.16666l6.49987,-0.83332l8.6665,-1.49997l6.66653,-1.33331l5.66655,-0.83332l4.9999,-0.66665l7.33319,-0.99998l5.49989,-0.99998l7.49985,-1.8333l7.16652,-1.16664l6.8332,-0.33333l6.33321,0.33333l5.66655,0.99998l6.16654,0.66665l7.16652,0.66665l7.33319,0.33333l0.33333,3.99992l0.49999,3.66659l-0.16666,2.16662l-7.49985,2.16662l-9.66648,1.49997l-7.66651,1.99996l-7.33319,1.33331l-9.49981,1.66663l-13.16641,2.49995l-10.99978,1.99996l-13.83306,2.49995l-8.83316,1.8333l-10.33313,1.8333l-9.9998,1.99996l-6.49987,1.49997l-1.84594,-1.09174z" opacity="NaN" fill="#fff"/>
  <path class="product-shape1 shape" id="svg_6" d="m599.30883,337.90154l2.84592,-0.57489l6.8332,-0.16666l2.16662,2.99994l3.66659,2.49995l3.33327,2.33329l4.16658,0.99998l2.49995,1.49997l1.99996,2.33329l-0.99998,1.66663l-4.16658,0.83332l-3.66659,0.33333l-3.33327,0l-1.49997,-2.66661l-3.1666,-2.49995l-2.83328,-1.33331l-1.99996,-2.33329l-1.99996,-2.16662l-2.49995,-1.8333l-1.34595,-1.92506z" opacity="NaN" fill="#fff"/>
  <path class="product-shape1 shape" id="svg_7" d="m679.9739,340.90148l3.84589,-0.0749l4.33325,-0.83332l4.33325,-0.99998l-3.1666,-3.1666l-3.83326,-2.49995l-4.33325,-1.99996l-3.33327,-1.99996l-2.99994,-0.99998l-0.99998,1.16664l1.8333,3.49993l2.16662,4.16658l2.15399,3.74149z" opacity="NaN" fill="#fff"/>
  <path class="product-shape1 shape" id="svg_8" d="m668.97412,340.40149l-4.8206,1.59173l-3.49993,1.16664l-1.16664,1.16664l0.49999,1.49997l2.99994,-0.99998c0.15403,0.0749 3.65396,-0.75842 3.65396,-0.75842c0,0 3.99992,-0.83332 3.84589,-0.90822c0.15403,0.0749 1.32067,-0.92508 1.16664,-0.99998c0.15403,0.0749 -1.17928,-0.75842 -2.67925,-1.7584z" opacity="NaN" fill="#fff"/>
  <path class="product-shape1 shape" id="svg_9" d="m683.1405,382.40066l5.01254,0.75842l4.9999,-0.33333l6.16654,-1.16664l4.66657,-1.66663l2.16662,-2.66661l-0.33333,-2.66661l-3.1666,-2.49995l-5.16656,-1.33331l-5.83322,0.49999l-2.16662,1.8333l-2.49995,2.66661c0.15403,0.0749 -2.51259,2.40819 -2.51259,2.24152c0,-0.16666 -1.66663,1.66663 -1.82066,1.59173c0.15403,0.0749 -0.51263,1.74153 0.48735,2.74151z" opacity="NaN" fill="#fff"/>
  <path class="product-shape1 shape" id="svg_10" d="m646.3079,390.73383l1.67927,0.92508l2.16662,-0.33333l1.66663,-1.33331c0.15403,0.0749 -0.1793,-1.7584 -0.1793,-1.92506c0,-0.16666 -1.99996,-2.16662 -2.15399,-2.24152c0.15403,0.0749 -2.67925,-0.75842 -2.83328,-0.83332c0.15403,0.0749 -1.51261,1.24154 -1.66663,1.16664c0.15403,0.0749 -0.84595,2.24152 -0.99998,2.16662c0.15403,0.0749 0.98734,2.07486 0.83332,1.99996c0.15403,0.0749 0.82068,0.57489 1.48733,0.40823z" opacity="NaN" fill="#fff"/>
  <path class="product-shape1 shape" id="svg_11" d="m395.81285,443.56612l6.01252,-2.24153l6.66653,-2.16662l6.66653,-2.49995l5.33323,-1.66663l4.33325,0l2.33329,1.49997l0.66665,2.99994l0,2.33329l-1.99996,1.33331l-3.99992,0.83332l-4.49991,1.16664l-4.83324,1.99996l-4.49991,1.16664l-4.49991,1.33331l-3.99992,0.33333l-2.99994,0.66665l-1.99996,-1.8333l-1.33331,-1.99996l0.49999,-1.99996l2.15398,-1.25841z" opacity="NaN" fill="#fff"/>
  <path class="product-shape1 shape" id="svg_12" d="m388.97965,464.39904l5.34587,-1.57487l7.66651,-1.33331l9.49981,-1.66663l9.9998,-2.33329l8.1665,-2.49995l4.49991,-1.99996l3.99992,-1.33331l1.99996,0.16666l0.83332,5.83322l1.16664,4.16658l0.66665,5.16656l0.33333,4.66657l-1.49997,2.16662l-0.83332,3.33327c0.15402,0.0749 0.65401,3.7415 0.65401,3.7415c0,0 0.33333,3.33327 0.17931,3.25836c0.15402,0.0749 0.82067,2.74152 0.66665,2.66661c0.15402,0.0749 0.82067,2.07486 0.66665,1.99996c0.15402,0.0749 3.48729,0.90822 3.33327,0.83332c0.15402,0.0749 2.65397,1.40821 2.49995,1.33331c0.15402,0.0749 -0.84596,1.40821 -0.99998,1.33331c0.15402,0.0749 -1.84594,2.07486 -1.99996,1.99996c0.15402,0.0749 -1.17929,4.07482 -1.33331,3.99992c0.15402,0.0749 -0.01264,4.07482 -0.16666,3.99992c0.15402,0.0749 0.48735,3.90816 0.33333,3.83326c0.15402,0.0749 0.82067,3.90816 0.66665,3.83326c0.15402,0.0749 2.65397,3.57483 2.49995,3.49993c0.15402,0.0749 -1.84594,1.9082 -1.99996,1.8333c0.15402,0.0749 -0.51263,1.57487 -0.66665,1.49997c0.15402,0.0749 0.32068,4.24149 0.48735,4.24149c0.16666,0 -3.49993,-1.33331 -3.65395,-1.40821c0.15402,0.0749 -6.01252,-3.42503 -6.01252,-3.42503c0,0 -5.66655,-4.16658 -5.82058,-4.24149c0.15402,0.0749 -4.51255,-3.75835 -4.66657,-3.83326c0.15402,0.0749 -4.67922,-4.42501 -4.83324,-4.49991c0.15402,0.0749 -4.84588,-4.59167 -4.9999,-4.66657c0.15402,0.0749 -5.6792,-6.7583 -5.83322,-6.8332c0.15402,0.0749 -5.01254,-5.25832 -5.16656,-5.33323c0.15402,0.0749 -5.51253,-6.7583 -5.66655,-6.8332c0.15402,0.0749 -4.34589,-5.09166 -4.49991,-5.16656c0.15402,0.0749 -3.34591,-5.42499 -3.49993,-5.49989c0.15402,0.0749 -3.17925,-3.59169 -3.33327,-3.66659c0.15402,0.0749 0.65401,-1.2584 1.32066,-1.2584z" opacity="NaN" fill="#fff"/>
  <path class="product-shape1 shape" id="svg_13" d="m509.64393,530.06441l-1.98732,1.09174l-4.49991,0.49999l-4.83324,0.33333l-3.99992,-0.16666l-1.99996,0l0,-3.1666l0.49999,-2.33329l-3.83326,-0.49999l-0.49999,-1.99996l2.66661,-0.83332l1.99996,0.16666l2.83328,-0.99998l1.49997,-1.66663l1.99996,0l2.33329,0.66665l2.66661,-0.33333l1.33331,-1.99996l1.8333,-0.16666l0.83332,4.9999l1.154,6.40811z" opacity="NaN" fill="#fff"/>
  <path class="product-shape1 shape" id="svg_14" d="m473.81131,443.39946l5.17921,-1.24155l5.33323,-1.99996l5.33323,-1.8333l2.49995,-0.33333l3.33327,4.83324l2.66661,2.16662l2.33329,2.66661l-0.49999,2.66661l0,2.33329l2.33329,4.33325l3.33327,5.83322l4.33325,8.49983l4.66657,8.99982l2.99994,5.66655l-2.83328,2.33329l-2.49995,2.66661l-2.16662,2.83328l-2.16662,2.99994l-2.16662,2.99994l-1.49997,2.49995l-1.66663,2.16662l-0.33333,2.49995l-2.49995,-1.16664l-2.49995,0.49999l-1.16664,1.33331l-2.49995,0.49999l-2.66661,0.99998l-1.49997,1.99996l-2.83328,-2.16662l1.16664,-3.83326l0.16666,-5.33323l-1.33331,-4.16658l-1.66663,-3.99992l-1.8333,-3.1666l-1.99996,-0.99998l-2.16662,1.33331l0.33333,-2.49995l3.49993,-1.8333l2.83328,-1.99996l0.33333,-2.83328l-0.66665,-3.99992l-1.16664,-4.16658l-1.8333,-3.83326l-2.99994,-0.66665l-2.16662,-7.83318l-0.99998,-4.33325l-1.33331,-4.83324l-1.01262,-6.59163z" opacity="NaN" fill="#fff"/>
  <path class="product-shape1 shape" id="svg_15" d="m519.8104,490.39853l1.34595,2.92504l-2.33329,1.49997l-2.16662,2.33329l-1.47913,2.79161l-2.18746,0.70832l1.49997,-2.83328l2.16662,-3.33327l1.66663,-2.33329l1.48733,-1.75839z" opacity="NaN" fill="#fff"/>
  <path class="product-shape1 shape" id="svg_16" d="m526.14361,489.89854l-1.82066,-2.57485l2.66661,-0.99998l3.49993,-0.83332c0.15402,0.0749 3.32063,-0.59175 3.32063,-0.59175c0,0 -3.66659,1.8333 -3.82062,1.75839c0.15402,0.0749 -1.67927,1.57487 -1.8333,1.49997c0.15402,0.0749 -0.84596,1.40821 -2.0126,1.74154z" opacity="NaN" fill="#fff"/>
  <path class="product-shape1 shape" id="svg_17" d="m505.97734,451.73263l-0.32069,2.25839l1.99996,4.33325l3.99992,7.16652l3.49993,6.33321l3.49993,5.49989l3.1666,5.99988l3.1666,-1.66663l3.66659,-1.49997l4.49991,-1.33331l4.66657,-0.66665l5.49989,-0.16666l5.66655,0l5.99988,-2.66661l4.9999,-2.49995l5.16656,-1.8333l7.33319,-2.66661l5.16656,-1.66663l5.99988,-2.33329l4.66657,-1.66663c0.15402,0.0749 -5.84586,-0.75841 -5.84586,-0.75841c0,0 -10.49979,-2.33329 -10.65382,-2.40819c0.15402,0.0749 -11.84574,-2.42505 -11.99976,-2.49995c0.15402,0.0749 -15.01234,-3.75836 -15.16637,-3.83326c0.15402,0.0749 -9.84578,-3.0917 -9.9998,-3.1666c0.15402,0.0749 -10.17911,-2.75838 -10.33313,-2.83328c0.15402,0.0749 -3.8459,-0.75842 -3.99992,-0.83332c0.15402,0.0749 -3.8459,0.57489 -3.99992,0.49999c0.15402,0.0749 -4.84588,1.07488 -4.9999,0.99998c0.15402,0.0749 -3.34591,1.40821 -3.49993,1.33331c0.15402,0.0749 -1.34595,1.57487 -1.84594,2.57485z" opacity="NaN" fill="#fff"/>
  <path class="product-shape1 shape" id="svg_18" d="m528.97689,494.89844l-0.82068,-1.57487l4.83324,-2.49995l3.99992,-1.99996l5.16656,-2.66661l4.33325,-2.33329l2.99994,-0.99998l2.33329,0.33333l3.49993,0.99998l4.33325,1.8333l-4.9999,0.66665l-6.33321,0.99998l-5.49989,0.99998l-4.66657,1.33331l-4.33325,2.33329l-4.84588,2.57485z" opacity="NaN" fill="#fff"/>
  <path class="product-shape1 shape" id="svg_20" d="m556.80967,479.89874l4.51255,-2.07486l6.33321,-2.33329l5.33323,-1.66663l7.33319,-2.49995l-4.16658,3.66659l-3.1666,3.1666l-3.66659,4.16658l-0.99998,1.66663l-4.16658,-1.8333l-4.9999,-1.49997l-2.34593,-0.75841z" opacity="NaN" fill="#fff"/>
  <path class="product-shape1 shape" id="svg_24" d="m574.41349,483.46117l7.74165,-7.97058l6.27071,-6.8957c0.15402,0.0749 8.38303,-2.52921 8.38303,-2.52921c0,0 8.83316,2.83327 8.67913,2.75837c0.15403,0.0749 9.98717,3.40817 9.83314,3.33327c0.15403,0.0749 4.8831,1.07488 4.72907,0.99998c0.34153,0.2624 3.38773,1.19587 3.54175,1.27077c-0.09592,-0.13345 5.38294,0.3041 5.22891,0.2292c0.15403,0.0749 5.98725,0.24156 5.83322,0.16666c0.15403,0.0749 8.65386,-0.59175 8.49983,-0.66665c0.15403,0.0749 6.82056,-0.92508 7.16653,-0.16667c0.15402,0.07491 6.98722,0.90822 6.8332,0.83332c6.98722,2.07486 6.98722,2.07486 6.83319,1.99996c0.15403,0.0749 7.32056,3.07485 7.16653,2.99994c0.15403,0.07491 10.48715,6.07479 10.33313,5.99988c0.15402,0.07491 8.15387,5.24147 7.99984,5.16657c0.15403,0.0749 5.82058,3.24151 5.66655,3.1666c0.15403,0.07491 7.98721,5.90812 7.83318,5.83322c0.15403,0.0749 12.32046,10.5747 12.16643,10.49979c0.15403,0.07491 9.32051,8.24141 9.16648,8.16651c0.15403,0.0749 11.15381,10.40803 10.99978,10.33313c0.15403,0.0749 11.65381,12.24133 11.49978,12.16642c0.15403,0.07491 8.65386,7.90808 8.49983,7.83318c0.15403,0.0749 4.98727,5.40813 4.83324,5.33323c0.15403,0.0749 5.82058,6.57477 5.66655,6.49987c0.15403,0.0749 3.15397,3.24151 2.99994,3.1666c0.15403,0.07491 8.65386,7.74142 8.49983,7.66652c0.15403,0.0749 -8.07497,1.7832 -8.01247,1.6582c0.1875,0 -7.49985,2.41662 -7.65388,2.34172c0.15403,0.0749 -4.51255,1.9082 -4.51255,1.74154c0,-0.16667 -10.99978,1.99996 -11.15381,1.92505c0.15403,0.07491 -6.01252,1.94987 -6.16655,1.87496c0.02903,0.01241 -9.97074,2.11653 -10.12477,2.04163c0.21653,0.0124 -10.24162,2.1582 -10.39565,2.20829c0.46653,-0.11259 -12.65822,2.2207 -12.81225,2.14579c0.15403,0.07491 -8.84579,1.80404 -8.99982,1.72913c0.15403,0.07491 -10.51243,2.57486 -10.66646,2.49996c0.15403,0.0749 -15.84565,3.2415 -15.99968,3.1666c0.15403,0.0749 -11.17908,1.9082 -11.33311,1.8333c0.15403,0.0749 -5.51253,0.90822 -5.51253,0.90822c0,0 -11.3331,1.16664 -11.48713,1.09174c0.15403,0.0749 -3.34591,0.57489 -9.33315,0.99998c0.15403,0.0749 -6.34585,0.74156 -6.49987,0.66665c0.15402,0.07491 -7.67915,1.07489 -7.83318,0.99998c0.15403,0.07491 -10.51243,0.90822 -10.66645,0.83332c0.15402,0.0749 -12.01241,1.40821 -12.16643,1.3333c0.02936,0.32425 -8.13847,1.24287 -8.41716,1.16797c-0.21998,-0.67311 -0.5953,-6.42629 -0.74933,-6.50119c0.15403,0.0749 -0.1793,-3.42503 -0.33332,-3.49993c0.15402,0.0749 10.98714,-1.42507 10.83312,-1.49997c0.15402,0.0749 4.8206,-1.25841 4.66657,-1.33331c0.15403,0.0749 1.07512,-10.72054 1.16664,-10.70813c0.09153,0.01241 -1.5126,-10.54988 -1.66663,-10.62478c0.15403,0.0749 -1.51261,-9.75824 -1.66663,-9.83314c0.15402,0.0749 -2.74364,-10.76635 -2.66662,-10.66646c0.07702,0.09989 -0.23863,-0.96439 -0.34279,-1.04788c-0.10416,-0.08349 -2.24681,-9.24779 -2.32382,-9.28525c0.15402,0.07491 -2.51259,-9.75823 -2.66661,-9.83313c0.15402,0.0749 -4.17923,-14.09149 -4.33325,-14.16639c0.15402,0.0749 -3.8459,-12.92484 -3.99992,-12.99974c0.15402,0.0749 -2.40843,-6.19581 -2.56245,-6.27071c0.15402,0.0749 -2.84592,-4.65417 -2.99994,-4.72907c0.15402,0.0749 -2.95008,-3.5917 -3.10411,-3.6666c0.15403,0.0749 -3.4084,-1.69589 -3.56243,-1.7708c0.15403,0.07491 -5.63752,-1.11257 -5.79154,-1.18748c0.15402,0.07491 8.44552,-1.73755 8.94551,-1.73755z" opacity="NaN" fill="#fff"/>
  <path class="product-shape1 shape" id="svg_25" d="m510.31059,435.06629l2.34593,2.25839l3.66659,2.33329l2.16662,1.66663l5.66655,0.83332l7.83318,2.33329l9.16649,2.49995l9.33315,2.33329l11.16645,3.1666l3.49993,1.16664l5.99988,1.49997l19.33295,4.83324l4.66657,-5.33323l6.8332,-7.49985l7.66651,-8.83316l7.99984,-8.99982l5.33323,-6.49987l5.83322,-6.49987l3.33327,-2.83328l-0.33333,-4.9999l-0.83332,-4.33325l-7.49985,2.33329l-8.83316,2.66661l-11.66644,2.83328l-9.66648,2.16662l-13.83306,3.33327l-13.16641,3.33327l-13.16641,3.66659l-11.49977,2.83328l-10.49979,2.16662l-11.33311,2.49995l-6.8332,0.99998l-2.67925,2.07486z" opacity="NaN" fill="#fff"/>
  <path class="product-shape1 shape" id="svg_26" d="m604.14207,463.73239l6.01252,-1.57487l5.66655,-1.99996l5.49989,-1.49997l4.66657,-1.16664l-0.49999,3.49993l-0.16666,2.83328l0.99998,2.49995l1.49997,2.83328l-1.99996,1.66663l-2.16662,-0.33333l-5.49989,-1.8333l-5.66655,-1.99996l-8.34581,-2.92504z" opacity="NaN" fill="#fff"/>
  <path class="product-shape1 shape" id="svg_27" d="m596.80888,459.73247l7.34583,-8.07474l6.66653,-7.66651l6.49987,-7.83318l5.16656,-5.83322l4.49991,-5.16656l1.66663,-2.49995l4.83324,-4.66657l0.33333,1.8333l3.1666,-2.16662l4.33325,-1.16664l3.66659,0.66665l1.49997,0.99998l0.66665,6.33321l1.16664,8.99982l1.33331,6.99986l1.16664,5.49989l-2.66661,0.83332l-4.10386,2.41597l-2.31273,0.66689l-5.77062,0.79174l-5.91661,0.77095c0.15403,0.0749 -2.74174,0.59592 -2.74174,0.59592c0,0 -2.49995,0.99998 -2.65398,0.92508c0.15403,0.0749 -9.84578,2.74152 -9.9998,2.66661c0.15403,0.0749 -17.67896,4.57481 -17.84562,4.07482z" opacity="NaN" fill="#fff"/>
  <path class="product-shape1 shape" id="svg_28" d="m647.14122,399.73365l3.3459,-0.0749l3.66659,-0.66665l3.99992,0.16666l2.16662,3.66659l2.33329,4.49991l3.83326,11.66644l-0.66665,3.33327l0.33333,4.33325l0.66665,3.99992l1.16664,2.16662l2.49995,1.66663l2.33329,0.33333l1.33331,1.33331l-1.99996,2.16662l-0.16666,3.1666l0.49999,2.16662l-5.66655,0.49999l-7.16652,0.99998l-4.83324,0.66665l-0.99998,-8.6665l-1.99996,-11.66644l-2.83328,-10.83312l-0.99998,-3.66659l-0.33333,-4.33325l-0.51263,-6.92496z" opacity="NaN" fill="#fff"/>
  <path class="product-shape1 shape" id="svg_29" d="m674.47401,425.23315c0,0 4.16658,-1.33331 4.01256,-1.40821c0.15403,0.0749 6.32057,-0.59175 6.16654,-0.66665c0.15403,0.0749 5.32059,-1.09174 5.16656,-1.16664c0.15403,0.0749 4.32061,-0.59175 4.16658,-0.66665c0.15403,0.0749 1.32067,1.57487 1.16664,1.49997c0.15403,0.0749 -0.01264,2.07486 -0.16666,1.99996c0.15403,0.0749 -3.3459,1.07488 -3.49993,0.99998c0.15403,0.0749 -5.67919,1.57487 -5.83322,1.49997c0.15403,0.0749 -4.34588,0.90822 -4.49991,0.83332c0.15403,0.0749 -3.01258,0.74155 -3.1666,0.66665c0.15403,0.0749 -2.0126,0.0749 -2.16662,0c0.15403,0.0749 -1.01262,-1.09174 -1.16664,-1.16664c0.15403,0.0749 -0.1793,-2.42505 -0.1793,-2.42505z" opacity="NaN" fill="#fff"/>
  <path class="product-shape1 shape" id="svg_30" d="m685.80712,390.9005l6.01252,0.09176l4.49991,-0.33333l4.66657,-0.66665l4.83324,-1.49997l3.99992,-1.16664l3.1666,-0.66665l4.33325,-0.16666l4.83324,0l0.83332,4.83324c0.15403,0.0749 0.32069,5.0748 0.32069,5.0748c0,0 0,8.33317 -0.15403,8.25827c0.15403,0.0749 -0.01263,6.24145 -0.16666,6.16654c0.15403,0.0749 -0.67929,6.24145 -0.83332,6.16654c0.15403,0.0749 -1.34594,6.07478 -1.49997,5.99988c0.15403,0.0749 -0.01263,4.24149 -0.16666,4.16658c0.15403,0.0749 -2.0126,4.40815 -2.16662,4.33325c0.15403,0.0749 -1.67927,4.40815 -1.8333,4.33325c0.15403,0.0749 -1.34594,4.40815 -1.49997,4.33325c0.15403,0.0749 -1.34594,3.57483 -1.49997,3.49993c0.15403,0.0749 -2.84591,1.74154 -2.99994,1.66663c0.15403,0.0749 -2.51259,0.74156 -2.51259,0.74156c0,0 -0.16666,-2.99994 -0.32069,-3.07484c0.15403,0.0749 -0.34596,-3.92502 -0.49999,-3.99992c0.15403,0.0749 -1.17928,-3.25837 -1.33331,-3.33327c0.15403,0.0749 -1.51261,-2.59171 -1.66663,-2.66661c0.15403,0.0749 -1.67927,-2.25839 -1.8333,-2.33329c0.15403,0.0749 -2.67925,-0.59175 -2.83328,-0.66665c0.15403,0.0749 1.15401,-2.25839 0.99998,-2.33329c0.15403,0.0749 2.65398,-2.59171 2.49995,-2.66661c0.15403,0.0749 1.15401,-1.09174 0.99998,-1.16664c0.15403,0.0749 -0.34596,-3.25837 -0.49999,-3.33327c0.15403,0.0749 -1.01262,-3.75836 -1.16664,-3.83326c0.15403,0.0749 -1.67927,-2.92504 -1.8333,-2.99994c0.15403,0.0749 -1.34594,-2.25839 -1.49997,-2.33329c0.15403,0.0749 -1.17928,0.0749 -1.33331,0c0.15403,0.0749 -2.84591,-4.75834 -2.99994,-4.83324c0.15403,0.0749 -3.67923,-6.09164 -3.83326,-6.16654c0.15403,0.0749 -3.3459,-4.925 -3.49993,-4.9999c0.15403,0.0749 -2.0126,-2.59171 -2.16662,-2.66661c0.15403,0.0749 -0.1793,-0.75842 0.65402,-1.7584z" opacity="NaN" fill="#fff"/>
  <path class="product-shape1 shape" id="svg_31" d="m659.52532,468.29602l9.2219,-1.23447l8.77782,-0.81654l7.55301,-1.22481l9.59436,-2.65376l11.22744,-2.04135l12.04398,-2.65376l15.92255,-2.65376l10.61504,-1.63308l11.02331,-2.44962l9.79849,-2.04135l5.71579,-1.22481l7.34887,-0.81654l9.59436,-1.42895l8.77782,-2.44962l10.81917,-2.44962l9.18609,-2.04135l9.18609,-2.04135l8.57368,-2.04135l7.75714,-1.42895l7.75714,-0.40827l6.9406,-0.40827l4.69511,-1.42895l6.9406,-1.02068l6.53233,-1.22481l8.36955,-2.04135l6.32819,-1.42895l6.12406,-0.81654l6.12406,0.61241l3.67444,0.20414l-2.85789,4.28684l-2.04135,4.69511l-1.83722,6.73646l-5.51165,17.55564l-4.28684,13.8812l-4.89925,15.71842l-7.55301,22.25075l-7.34887,18.57631l-5.91992,12.45225l-7.55301,12.86052l-9.39022,2.24549l-14.08534,2.85789l-10.61504,1.42895l-4.28684,0.61241l-12.86052,3.26616l-10.00263,2.04135l-7.55301,1.63308l-4.69511,2.04135l-9.39022,-10.4109l-12.65639,-13.26879l-9.39022,-10.20676l-13.06466,-13.06466c0.16832,0.00966 -16.77491,-15.70876 -16.77491,-15.70876c0,0 -17.3515,-13.8812 -17.51982,-13.89086c0.16832,0.00966 -10.85498,-8.35989 -11.02331,-8.36955c0.16832,0.00966 -11.67152,-7.13508 -11.83985,-7.14474c0.16832,0.00966 -12.6922,-5.91027 -12.86052,-5.91992c0.16832,0.00966 -0.83202,-0.31653 -8.40536,-3.86891z" opacity="NaN" fill="#fff"/>
  <path class="product-shape1 shape" id="svg_51" d="m447.125,481.0625l7.75,-0.75l7.75,-1.375l4.5,-0.5l4.6875,-0.6875l4.5,-0.3125l2.8125,-0.25c0,0 0.4375,1.75 0.4375,1.75c0,0 -0.25,1.8125 -0.25,1.8125c0,0 -1.75,1.375 -1.75,1.375c0,0 -3.5625,0.25 -3.5625,0.25c0,0 -4.4375,0.3125 -4.4375,0.3125c0,0 -2.75,0.5625 -2.75,0.5625c0,0 -5.1875,0.5 -5.1875,0.5c0,0 -5.0625,0.625 -5.0625,0.625c0,0 -3.4375,0.1875 -3.4375,0.1875c0,0 -3.3125,0.4375 -3.3125,0.4375c0,0 -2.75,-0.0625 -2.75,-0.0625c0,0 -0.375,-1.75 -0.375,-1.75c0,0 -0.21927,-1.37357 0.4375,-2.125z" opacity="NaN" fill="#fff"/>
  <path class="product-shape1 shape" id="svg_32" d="m915.30685,424.8152l2.68957,-2.25514l6.12406,-1.22481l6.9406,-2.24549l10.81917,-2.04135l10.81917,-2.8579l6.9406,-1.02067l6.9406,-1.22482l3.87857,-0.6124l5.71579,-0.40827l1.83721,3.06203l5.30752,3.87857l9.59436,7.34887l4.89925,4.89924l4.89925,7.14474l4.49097,7.34887l4.28684,7.75714l4.49098,10.4109l2.04135,6.53233l-0.6124,10.81917l-0.61241,10.00263l-0.20413,4.89925l-0.40828,2.44962l-3.4703,4.28684l-2.65375,1.83722l-4.28685,1.63308l-2.85789,1.63309c0.16833,0.00965 -5.75159,1.23446 -5.75159,1.23446c0,0 -8.98195,1.83722 -9.15029,1.82756c0.16834,0.00966 -6.77226,1.84688 -6.9406,1.83722c0.16834,0.00966 -5.13918,1.43861 -5.30751,1.42895c0.16833,0.00966 -5.34333,1.4386 -5.51166,1.42895c0.16833,0.00965 0.78074,4.2965 0.61241,4.28684c0.16833,0.00966 0.16833,4.9089 0,4.89924c0.16833,0.00966 -3.5061,0.8262 -3.67444,0.81655c0.16834,0.00965 -5.34332,0.62206 -5.51165,0.6124c0.16833,0.00966 -3.71024,0.62207 -3.87857,0.61241c0.16833,0.00966 -4.52678,2.45928 -4.69511,2.44962c0.16833,0.00966 -3.09784,1.23447 -3.26617,1.22481c0.16833,0.00966 -8.81362,2.05101 -8.98195,2.04136c0.16833,0.00965 -11.46738,3.07168 -11.63571,3.06203c0.16833,0.00965 -13.50874,3.27582 -13.67707,3.26616c0.16833,0.00966 -9.22189,2.66342 -9.39022,2.65376c0.16833,0.00966 -8.40535,1.84687 -8.57368,1.83722c0.16833,0.00965 -6.97641,2.05101 -7.14474,2.04135c0.16833,0.00966 -11.46738,3.07169 -11.63571,3.06203c0.16833,0.00966 -9.63016,2.25515 -9.79849,2.24549c0.16833,0.00966 -4.01015,0.98447 -4.17848,0.97481c0.16833,0.00966 5.65075,-9.13057 5.48242,-9.14022c0.16833,0.00965 4.25104,-8.35989 4.08271,-8.36955c0.08416,0.00483 2.17189,-4.65685 2.71751,-5.75845c0.54562,-1.1016 2.54668,-6.7201 2.71501,-6.89794c0.16833,-0.17784 1.18148,-4.43814 1.22481,-4.49098c0.04333,-0.05284 4.65931,-12.03432 4.49098,-12.04398c0.16833,0.00966 4.45517,-12.23846 4.28684,-12.24812c0.16833,0.00966 2.00554,-6.7268 1.83722,-6.73646c0.16832,0.00966 3.23035,-8.9723 3.23035,-8.9723c0,0 2.8579,-7.553 2.68957,-7.56266c0.16833,0.00966 3.43449,-11.42192 3.26616,-11.43158c0.16833,0.00966 4.45517,-12.03432 4.28684,-12.04398c0.16833,0.00966 3.02623,-10.40124 2.8579,-10.4109c0.16833,0.00966 2.82209,-5.29786 2.65376,-5.30752c0.16833,0.00966 2.20968,-3.05237 2.04135,-3.06203c0.16833,0.00966 1.80141,-1.41929 2.61795,-1.41929z" opacity="NaN" fill="#fff"/>
  <!--partie2-->
  <path class="product-shape2 shape" id="svg_33" d="m627.03181,600.5254l-4.64133,0.61521l-14.12503,1.24936l-11.50029,1.2507l-9.18773,1.2497l0.62502,9.12523l2.06255,12.25031l2.00005,12.00031c0.14121,0.01081 0.89123,7.26099 0.89123,7.26099c0,0 0,6.00015 -0.14121,5.98934c0.14121,0.01081 2.89128,10.51108 2.75007,10.50027c0.14121,0.01081 2.14126,8.51103 2.00005,8.50022c0.14121,0.01081 1.89126,7.26099 1.75004,7.25018c0.14122,0.01081 2.14127,8.01102 2.00005,8.0002c0.14122,0.01082 1.64125,10.01107 1.50004,10.00026c0.14121,0.01081 0.89123,9.51105 0.75002,9.50024c0.14121,0.01081 1.14124,12.76114 1.00003,12.75032c0.14121,0.01082 0.89123,11.01109 0.75001,11.00028c0.14122,0.01081 1.14124,12.26113 1.00003,12.25031c0.14121,0.01082 0.14121,6.26097 0,6.25016c0.14121,0.01081 1.14124,6.76099 1.00002,6.75017c0.14122,0.01082 0.39122,9.01105 0.25001,9.00023c0.14121,0.01082 -0.10879,5.01094 -0.25001,5.00013c0.14122,0.01081 1.14124,5.76096 1.00003,5.75015c0.14121,0.01081 2.89128,3.26089 2.75007,3.25008c0.14121,0.01081 7.6414,-0.2392 7.50019,-0.25001c0.14121,0.01081 6.64138,-1.23922 6.50017,-1.25003c0.14121,0.01081 10.14146,-3.73928 10.00025,-3.7501c0.14121,0.01082 4.64133,-1.73923 4.50011,-1.75004c0.14122,0.01081 2.64128,-2.98926 2.50007,-3.00008c0.14121,0.01082 2.89128,-2.48925 2.75007,-2.50006c0.14121,0.01081 6.89138,-2.48925 6.75017,-2.50006c0.14121,0.01081 6.64138,-1.98924 6.50016,-2.00005c0.14122,0.01081 7.3914,-3.48928 7.25019,-3.50009c0.14121,0.01081 6.39137,-2.98927 6.25016,-3.00008c0.14121,0.01081 6.64138,-3.98929 6.50016,-4.0001c0.14122,0.01081 5.39135,-1.73923 5.25014,-1.75005c0.14121,0.01082 5.64135,-1.73923 5.50014,-1.75004c0.14121,0.01081 9.39145,-1.73923 9.25023,-1.75004c0.14122,0.01081 7.89141,-2.23925 7.7502,-2.25006c0.14121,0.01081 6.89138,-1.48923 6.75017,-1.50004c0.14121,0.01081 6.64138,-2.73926 6.50016,-2.75007c0.14122,0.01081 7.89142,-1.98924 7.7502,-2.00005c0.14122,0.01081 4.89134,-1.48923 4.75012,-1.50004c0.14122,0.01081 8.14142,-1.23922 8.0002,-1.25003c0.14122,0.01081 7.1414,-2.23924 7.00018,-2.25006c0.14122,0.01082 9.89147,-3.23927 9.75025,-3.25008c0.14122,0.01081 6.14137,-2.23924 6.00015,-2.25006c0.14122,0.01082 5.64136,-1.73923 5.50014,-1.75004c0.14122,0.01081 5.64136,-1.23922 5.50014,-1.25003c0.14122,0.01081 7.1414,-1.48923 7.00018,-1.50004c0.14122,0.01081 3.3913,-9.23942 3.25008,-9.25024c0.14122,0.01082 5.14135,-13.48953 5.00013,-13.50034c0.14122,0.01081 2.64128,-6.23935 2.50006,-6.25016c0.14122,0.01081 2.14127,-8.2394 2.00005,-8.25021c0.14122,0.01081 0.14122,-8.2394 0,-8.25021c0.14122,0.01081 0.39123,-9.98944 0.25001,-10.00025c0.14122,0.01081 0.39122,-7.23937 0.25001,-7.25019c0.14121,0.01082 1.64125,-4.23929 1.50004,-4.2501c0.14121,0.01081 0.39122,-9.98945 0.25,-10.00026c0.14122,0.01081 0.14122,-2.73926 0,-2.75007c0.14122,0.01081 -1.85883,-1.48922 -2.00005,-1.50004c0.14122,0.01082 -0.10879,-14.98957 -0.25001,-15.00038c0.14122,0.01081 0.14122,-12.73951 0,-12.75032c0.14122,0.01081 -0.85881,-13.48953 -1.00002,-13.50034c0.14121,0.01081 0.14121,-7.73939 0,-7.7502c0.14121,0.01081 -8.359,-9.73944 -8.50022,-9.75025c0.14122,0.01081 -6.35895,-9.23942 -6.50016,-9.25023c0.14121,0.01081 -7.60898,1.51085 -7.7502,1.50003c0.14122,0.01082 -7.85899,2.51088 -8.0002,2.50007c0.14121,0.01081 -3.85889,1.51085 -4.0001,1.50004c0.14121,0.01081 -11.10907,2.01086 -11.25029,2.00005c0.14122,0.01081 -5.35892,1.76085 -5.50014,1.75004c0.14122,0.01081 -11.10907,2.26087 -11.25029,2.25006c0.14122,0.01081 -9.35902,2.01086 -9.50024,2.00005c0.03936,0.03666 -12.89418,2.25811 -13.48019,2.34407c-0.58601,0.08596 -2.57452,0.53639 -2.64513,0.53099c0.14121,0.01081 3.51621,1.63586 3.375,1.62505c0.14121,0.01081 4.39132,3.76091 4.25011,3.7501c0.14121,0.01081 -1.60883,1.76085 -1.75005,1.75004c0.14122,0.01081 -7.35897,2.51088 -7.50019,2.50007c0.14122,0.01081 -18.85927,6.01096 -19.00048,6.00015c0.14121,0.01081 -16.35921,4.51093 -16.50042,4.50011c0.14121,0.01082 -15.10917,4.51093 -15.25039,4.50012c0.14122,0.01081 -9.60903,3.01089 -9.75024,3.00007c0.14121,0.01082 -6.85897,1.01084 -7.00018,1.00003c0.14121,0.01081 -2.35885,-7.23937 -2.50007,-7.25018c0.14122,0.01081 -1.85883,-4.48931 -2.00005,-4.50012c0.14122,0.01081 -0.16919,0.76118 -3.2342,-4.48997z" opacity="NaN" fill="#fff"/>
  <path class="product-shape2 shape" id="svg_34" d="m820.41206,560.77506l9.85904,-1.26084l15.50039,-3.00008l10.37529,-2.62504l-6.8752,9.87522l-4.25011,7.00018l-6.50017,10.00025l-0.25001,-7.50019l-2.00005,-2.75007l-3.50009,-3.50009l-4.50011,-2.25006l-4.25011,0l-3.60888,-3.98929z" opacity="NaN" fill="#fff"/>
  <path class="product-shape2 shape" id="svg_35" d="m813.41275,714.34139l4.1086,-5.94825l2.62492,-4.68769l2.49977,-8.25021l2.87493,-11.93788l2.25006,-9.25024l1.75004,-9.50024l1.00003,-8.25021l1.75004,-8.50022l1.25003,-4.50011l1.50004,-6.25016l1.00003,-4.50011l3.50009,-3.25008l2.50006,11.00028l2.25006,12.75032l1.25003,11.25029l0.75002,9.25024l-0.25001,8.25021l-0.75002,6.75017c0.14122,0.01081 -2.35885,7.76101 -2.35885,7.76101c0,0 -3.50009,8.25021 -3.64131,8.2394c0.14122,0.01081 -2.85886,4.94851 -3.00008,4.9377c0.14122,0.01081 -12.10909,2.82331 -12.25031,2.8125c0.14122,0.01081 -10.10817,1.82329 -10.60819,1.82329z" opacity="NaN" fill="#fff"/>
  <path class="product-shape2 shape" id="svg_37" d="m864.85068,550.71231l5.29634,-1.19835l9.25022,-2.15629l8.81272,-2.28129l9.56285,-2.68763l10.87527,-2.50003l7.37508,-2.12506l12.18795,-2.81254l10.81275,-2.8751l5.53132,-1.32814l5.53133,-1.20315l3.68765,-1.53128l4.25018,-2.25009l9.43712,-1.18746l4.43815,-0.93751l0.6251,8.62513l2.75007,8.25021l4.25011,10.00026l6.25016,14.75037l-0.25001,10.25026l0,9.50024l-0.25001,5.75015l0.75002,10.75027l1.75005,11.50029l0.25,5.00013l-2.25005,5.75015l-1.25004,7.00018l-2.75007,12.25031l-4.0001,13.50034l-1.75004,5.00013l-1.00003,5.25013l-1.50004,4.50011l-3.00007,3.00008l-5.00013,4.25011l-4.25011,3.75009l-5.25013,0.75002l-8.50022,0.50002l-10.25026,0.25l-8.50021,0.25001l-6.00016,1.50004l-5.75014,-0.25001l-5.50014,2.25006l-10.00026,3.50009l-14.25036,3.75009l-10.00025,2.75007l-13.75035,3.7501l-13.00033,3.25008l-7.25019,2.25006l3.50009,-6.25016l2.50007,-7.00018l1.75004,-6.25016l0.50001,-5.50014l-0.50001,-8.0002l-0.75002,-11.7503l-1.25003,-11.00028l-2.00005,-10.75027l-2.00005,-10.50027l-1.75005,-6.75017l1.75005,-2.25006l-0.25001,-8.75022c0.14122,0.01081 -2.10884,-0.2392 -2.10884,-0.2392c0,0 -0.75002,-13.75035 -0.89123,-13.76116c0.14121,0.01081 3.14129,-0.23919 3.00007,-0.25c0.14122,0.01081 -0.10879,-10.23945 -0.25,-10.25026c0.14121,0.01081 -2.60886,-0.98922 -2.75007,-1.00003c0.14121,0.01081 4.39132,-6.73936 4.2501,-6.75017c0.14122,0.01081 4.89134,-8.2394 4.75013,-8.25021c0.14121,0.01081 4.64133,-7.98939 4.50011,-8.0002c0.14122,0.01081 5.39135,-7.23938 5.25013,-7.25019c0.14122,0.01081 4.01632,-4.8643 4.32882,-5.55182z" opacity="NaN" fill="#fff"/>
  <path class="product-shape2 shape" id="svg_50" d="m791.75,577.15625l-2.25,-3.34375l-2.375,-2.4375l-1.4375,-1.875l-0.6875,-0.5625l-2.5,1.1875l7.6875,7.5625l3.5,3.9375l1.3125,1.5l0.6875,-0.8125l-1.6875,-2.1875l-2.25,-2.96875z" opacity="NaN" fill="#fff"/>
<!--partie3-->
  <path class="product-shape3 shape" id="svg_38" d="m975.82153,410.24392l2.17131,3.75305l15.16656,11.33325l4.49997,4.66663l4.66663,6.66662l4.8333,7.83328l4.16664,7.49995l3.49997,8.33327l1.16666,2.99998l1.99999,5.66663l-1.49999,25.49981l-0.33333,2.99998l-3.33331,3.99997l-2.83331,2.16665l5.16663,-0.5l4.3333,-0.16667l3.33331,-1.16666l4.3333,-2.66665l5.16663,-4.16664l3.99997,-2.33332l3.66664,-2.16665c0.16201,0.08026 3.49532,-1.75306 3.49532,-1.75306c0,0 0.83333,-1.99999 0.67132,-2.08025c0.16201,0.08026 -0.17132,-3.08638 -0.33333,-3.16664c0.16201,0.08026 -0.33799,-2.91972 -0.5,-2.99998c0.16201,0.08026 0.82867,-7.75302 0.66666,-7.83328c0.16201,0.08026 0.662,-3.25305 0.5,-3.33331c0.16201,0.08026 0.82867,-3.41971 0.66666,-3.49997c0.16201,0.08026 -0.00466,-3.08638 -0.16667,-3.16664c0.16201,0.08026 0.49534,-3.25305 0.33333,-3.33331c0.16201,0.08026 0.99534,-2.91972 0.83333,-2.99998c0.16201,0.08026 -0.33799,-3.75305 -0.33799,-3.75305c0,0 -1.83332,-3.49997 -1.99533,-3.58023c0.16201,0.08026 -4.33796,-5.58637 -4.49997,-5.66663c0.16201,0.08026 -9.83792,-9.58634 -9.99993,-9.6666c0.16201,0.08026 -7.83793,-7.75302 -7.99994,-7.83328c0.16201,0.08026 -5.17129,-6.25303 -5.33329,-6.33329c0.16201,0.08026 -5.33795,-5.4197 -5.49996,-5.49996c0.16201,0.08026 -6.17128,-4.58637 -6.33329,-4.66663c0.16201,0.08026 -5.17129,-2.08639 -5.33329,-2.16665c0.16201,0.08026 -3.50463,-0.41974 -3.66664,-0.5c0.16201,0.08026 -4.00463,-0.08641 -4.16664,-0.16667c0.16201,0.08026 -7.17127,1.24692 -7.33328,1.16666c0.16201,0.08026 -4.50463,1.24692 -4.66663,1.16666c0.16201,0.08026 -1.73916,0.84054 -3.1713,1.41358z" opacity="NaN" fill="#fff"/>
  <path class="product-shape3 shape" id="svg_39" d="m1004.48799,505.95156l-1.57866,0.94056l-15.08323,3.10415l-17.5207,4.66663l0.58333,3.66664l0.11458,2.73957l-0.07292,2.73956l0.9375,-0.1875l0.68749,8.77077l2.54165,7.66661l10.68742,25.16648l-0.22917,10.04162l-0.04166,10.10413l-0.08333,1.95825l-0.16667,3.77081l0.79166,10.39576l1.70832,11.43741l0.29167,5.04163l-2.33332,6.02079l-1.35416,7.39578l-2.70831,11.93741l-4.10413,13.83324l-1.39582,3.99997l-1,4.99996l-1.56249,4.99996l-2.7604,2.83332l-3.01039,2.58331l-6.49995,5.6458l-5.99996,0.87499l-7.7499,0.38541l-18.7499,0.51041l-6.04163,1.5l-5.79162,-0.22917l-5.83329,2.39581l-10.14576,3.49998l-18.48618,4.91438l-18.73589,5.16409l-6.63178,1.58811l-5.99995,1.49999l-7.83328,2.33331l-1.16666,3.16665l-1.77089,3.33331l-1.16665,2.66664l6.60418,-1.99998l9.49993,-2.66665l13.4999,-3.99997l10.33326,-3.16664l6.83329,-2.16665l8.33327,-1.83332l7.66661,-1.99999l9.33326,-1.83332l4.99997,-1.99998l6.99995,-2.83332l3.8333,-2.16665l1.33332,-1.16666l17.33321,0l6.33329,-0.49999l5.33329,-0.99999l7.16662,-2.99998l5.66662,-3.33331l4.3333,-3.33331l2.16665,-3.99997l1.49999,-5.16663l0.5,-2.66665l-0.16667,-2.49998l3.99997,-2.99998l0.5,-2.66664l-0.33333,-2.49999l1.49999,-5.66662l1.99998,-6.49995l2.49999,-8.33328l1.66665,-7.16661l0.83333,-5.49996l0.49999,-6.99995l0.16667,-5.16663l1.33332,-7.83327l1.33333,-7.16662l1.83332,-11.99991l1.16666,-13.16657l0.66666,-7.49994l1.33332,-7.99995l0.66666,-7.33328l0.99999,-7.16661l1.33333,-6.83328l0.49999,-4.16664l0.16667,-7.33328l0.33333,-7.16661l0.82867,-7.37802z" opacity="NaN" fill="#fff"/>
  <path class="product-shape3 shape" id="svg_40" d="m798.05192,718.24168l0.74314,-2.35086l3.36517,-0.04098l3.45873,-0.47994l4.18782,-0.95818l4.25025,-0.08361l4.43697,-0.83333l4.99996,-0.83333l12.99991,-2.99998l-1.83332,2.99998l-1.66666,2.83331l-1.83332,2.33332l-3.8333,0.66666l-5.3333,0.99999l-5.83329,1.49999l-4.83329,1.33333l-4.99997,1.16665l-3.8333,1l-5.49996,1.66665l0.39576,-2.93755l0.66199,-4.98212z" opacity="NaN" fill="#fff"/>
  <path class="product-shape3 shape" id="svg_41" d="m790.84406,719.28348l-3.84982,0.37792l-4.66663,0.83333l-3.16664,0.79133l-6.99995,1.62466l-4.04197,0.87532l-4.99996,1.54199l-6.45796,2.45798l-10.66659,3.49997l-6.16662,1.99999l-7.58526,1.16666l-6.5813,2.04198l-6.29261,1.58266l-6.70597,2.79132l-7.16794,1.58398l-7.16661,2.12465l-9.6666,1.75065l-10.37526,3.45798c0.16199,0.20494 -6.79596,4.12224 -6.79596,4.12224c-9.47478,4.73739 -13.16657,6.33329 -13.32856,6.25301c0.16199,0.08027 -6.50463,2.24692 -6.66662,2.16665c0.16199,0.08027 -6.00463,2.24692 -6.00463,2.24692c0,0 -3.16664,2.66665 -3.32863,2.58637c0.28666,0.08027 -2.50466,3.41358 -2.66665,3.33331c0.16199,-0.0444 -12.67125,4.74691 -12.83324,4.66663c0.16199,0.08027 -7.67129,1.91359 -7.83328,1.83332c0.16199,0.08027 -6.83796,0.24694 -6.99995,0.16667c-0.08735,0.57895 -3.17132,-2.9197 -3.33331,-2.99998c0.16199,0.08027 -1.00467,-6.58635 -1.16666,-6.66662c0.41133,0.20494 0.66199,-4.58636 0.5,-4.66663c0.16199,0.08027 -0.17134,-9.25299 -0.33333,-9.33327c0.16199,0.08027 -0.838,-6.08635 -0.99999,-6.16662c0.16199,0.08027 0.16199,-5.75302 0,-5.83329c0.16199,0.08027 -0.838,-11.75298 -0.99999,-11.83325c0.28666,0.08027 -0.838,-13.25297 -0.99999,-13.33324c0.41133,0.08027 -0.67134,-11.75298 -0.83333,-11.83325c0.16199,0.08027 -0.838,-11.25298 -0.99999,-11.33325c0.16199,0.08027 -1.17133,-7.41968 -1.33332,-7.49995c0.28666,0.08027 -1.838,-9.253 -3.49997,-15.16656c0.16199,0.08027 -4.67131,-19.08626 -4.8333,-19.16653c0.16199,0.08027 0.32865,-6.41968 0.16667,-6.49995c-0.08735,0.08027 -0.838,-6.75302 -0.99999,-6.83328c0.16199,0.08027 -3.83798,-23.75289 -3.99997,-23.83316c-0.46135,-5.77914 -0.41298,-7.89469 -0.5625,-8.49994c-0.14952,-0.60524 -0.4015,-4.5629 -1.06216,-10.75191c3.40336,-0.54308 10.45325,-1.33441 10.29126,-1.41467c0.16199,0.08027 5.32862,-1.41972 5.16663,-1.49999c0.16199,0.08027 0.99532,-9.08633 1.16666,-10.83325c0.16199,0.08026 -2.00466,-13.41964 -2.16665,-13.4999c0.16199,0.08026 -1.00467,-6.75302 -1.16666,-6.83328c0.16199,0.08026 -3.00465,-11.91965 -3.16664,-11.99991c0.16199,0.08026 -2.00466,-8.91967 -2.16665,-8.99993c0.16199,0.08026 -3.33799,-12.58631 -3.49997,-12.66657c0.16199,0.08026 -3.65048,-12.25298 -3.81247,-12.33324c0.16199,-0.04474 -3.52549,-11.75299 -3.68747,-11.83325c0.16199,0.08026 -2.17133,-5.91969 -2.33332,-5.99996c0.16199,0.08026 -2.83799,-4.75304 -2.99998,-4.8333c0.16199,0.08026 -3.17132,-3.91971 -3.33331,-3.99997c0.16199,0.08026 -3.17132,-1.58639 -3.33331,-1.66665c0.28699,-0.04474 -6.33796,-1.25306 -6.49995,-1.33332c0.09949,0.01776 -5.6713,0.91359 -5.83329,0.83333c0.16199,0.08026 -13.50458,2.08025 -13.66657,1.99999c0.16199,0.08026 -2.85882,0.87192 -3.08331,0.66666c0.34949,0.01776 -4.42132,1.41358 -4.5833,1.33332c0.16199,0.20526 -8.50462,4.74689 -8.6666,4.66663c0.16199,0.08026 -2.50466,1.91358 -2.66665,1.83332c0.16199,0.08026 -4.33798,1.41358 -4.49997,1.33332c0.16199,0.08026 -6.1713,1.91358 -6.33329,1.83332c0.16199,0.08026 -2.67133,1.08025 -2.83331,0.99999c0.16199,0.08026 -1.838,2.08025 -1.99999,1.99999c0.16199,0.08026 -1.338,2.58024 -1.49999,2.49998c0.16199,0.08026 -1.67133,4.2469 -1.83332,4.16664c0.16199,0.08026 -1.00467,3.58024 -1.16666,3.49997c0.16199,0.08026 0.66198,2.74691 0.5,2.66665c0.16199,0.08026 2.32864,-0.91973 2.16665,-0.99999c0.16199,0.08026 4.32862,-0.0864 4.16664,-0.16667c0.16199,0.08026 3.82863,-0.25307 3.66664,-0.33333c0.16199,0.08026 3.82863,-0.91973 3.66664,-0.99999c0.16199,0.08026 3.32863,-0.91973 3.16664,-0.99999c0.16199,0.08026 3.16196,2.74691 2.99998,2.66665c0.16199,0.08026 3.16196,1.08025 2.99998,0.99999c0.16199,0.08026 4.82862,1.91358 4.66663,1.83332c0.16199,0.08026 0.32865,3.91357 0.16667,3.83331c0.16199,0.08026 -0.50468,5.41356 -0.66666,5.33329c0.16199,0.08026 0.16199,3.41357 0,3.33331c0.16199,0.08026 1.49531,3.58024 1.33332,3.49997c0.16199,0.08026 2.32864,2.74691 2.16665,2.66665c0.16199,0.08026 -6.50463,-0.41973 -6.66662,-0.5c0.16199,0.08026 -8.00462,1.24692 -8.00462,1.24692c0,0 -7.16661,0.99999 -7.3286,0.91973c0.16199,0.08026 -5.17131,1.58025 -5.33329,1.49999c0.16199,0.08026 1.82864,8.24687 1.66665,8.16661c0.16199,0.08026 1.66197,7.74687 1.49999,7.66661c0.16199,0.08026 0.82865,7.58021 0.66666,7.49995c0.16199,0.08026 1.82864,6.41355 1.66665,6.33329c0.16199,0.08026 1.82864,5.91356 1.66665,5.83329c0.16199,0.08026 0.99531,8.08021 0.83333,7.99994c0.16199,0.08027 0.99531,4.2469 0.83333,4.16664c0.16199,0.08027 -1.338,3.24691 -1.49999,3.16664c0.16199,0.08027 1.32864,4.7469 1.16666,4.66663c0.16199,0.08027 1.49531,3.41357 1.33332,3.33331c0.16199,0.08027 3.16196,2.08025 2.99998,1.99999c0.16199,0.08027 4.49529,0.74693 4.3333,0.66666c0.16199,0.08027 5.16195,0.08027 4.99996,0c0.16199,0.08027 4.49529,-0.5864 4.3333,-0.66666c0.16199,0.08027 4.66195,0.08027 4.49997,0c0.16199,0.08027 2.16197,5.91356 1.99999,5.83329c0.16199,0.08027 4.16196,9.24687 3.99997,9.1666c0.16199,0.08027 2.4953,5.41356 2.66665,6.16662c0.16199,0.08027 3.66196,7.41355 3.49997,7.33328c0.16199,0.08027 1.16198,5.58023 0.99999,5.49996c0.16199,0.08027 0.82865,4.91357 0.66666,4.8333c0.16199,0.08027 -0.17134,4.2469 -0.33333,4.16664c0.16199,0.08027 1.32865,6.91355 1.16666,6.83328c0.16199,0.08027 2.32864,9.24687 2.16665,9.1666c0.16199,0.08027 2.9953,11.24685 2.83331,11.16658c0.16199,0.08027 3.66196,12.58018 3.49997,12.49991c0.16199,0.08027 3.4953,8.74687 3.33331,8.6666c0.16199,0.08027 2.9953,9.41354 2.83331,9.33327c0.16199,0.08027 2.66197,5.41356 2.66197,5.41356c0,0 2.16665,3.66664 2.00466,3.58637c0.16199,0.08027 3.66196,7.91355 3.49997,7.83328c0.16199,0.08027 1.66198,3.91358 2.16665,4.99996c0.16199,0.08027 4.49529,11.58019 4.3333,11.49992c0.16199,0.08027 2.16197,4.41357 1.99999,4.3333c0.16199,0.08027 2.16197,4.58024 1.99999,4.49997c0.16199,0.08027 1.82864,3.91358 1.66665,3.83331c0.16199,0.08027 2.9953,5.41357 2.83331,5.33329c0.16199,0.08027 2.9953,5.58023 2.83331,5.49996c0.16199,0.08027 2.9953,5.91356 2.83331,5.83329c0.16199,0.08027 1.82864,4.91357 1.66665,4.8333c0.16199,0.08027 1.99531,4.08024 1.83332,3.99997c0.16199,0.08027 2.16197,4.41357 1.99999,4.3333c0.16199,0.08027 2.82864,2.58026 2.66665,2.49998c0.16199,0.08027 3.82863,1.24693 3.66664,1.16666c0.16199,0.08027 5.82861,-0.08639 5.66663,-0.16667c0.16199,0.08027 5.82862,-0.41972 5.66663,-0.5c0.16199,0.08027 3.82863,-0.91972 3.66664,-0.99999c0.16199,0.08027 3.66196,-2.08638 3.49997,-2.16665c0.16199,0.08027 5.32862,-2.08638 5.16663,-2.16665c0.16199,0.08027 6.66194,-2.75304 6.49995,-2.83331c0.16199,0.08027 6.82861,-2.75304 6.66662,-2.83331c0.16199,0.08027 2.9953,-0.75305 2.83331,-0.83333c0.16199,0.08027 4.66196,-0.41972 4.49997,-0.5c0.16199,0.08027 4.82862,-0.91972 4.66663,-0.99999c0.16199,0.08027 5.49529,-2.58637 5.33329,-2.66665c0.16199,0.08027 5.66195,-2.25304 5.49996,-2.33332c0.16199,0.08027 5.66195,-1.25305 5.49996,-1.33332c0.16199,0.08027 5.82862,-1.25305 5.66663,-1.33332c0.16199,0.08027 7.32861,-2.41971 7.16661,-2.49998c0.16199,0.08027 8.3286,-2.75304 8.16661,-2.83331c0.16199,0.08027 3.66197,-0.25306 3.49997,-0.33333c0.16199,0.08027 3.66197,-1.41972 3.49997,-1.49999c0.16199,0.08027 5.66195,-2.58638 5.49996,-2.66665c0.16199,0.08027 5.16196,-1.91971 4.99996,-1.99999c0.16199,0.08027 4.4953,-1.58638 4.3333,-1.66665c0.16199,0.08027 6.32862,-1.25305 6.16662,-1.33332c0.16199,0.08027 5.99529,-1.41972 5.83329,-1.49999c0.16199,0.08027 6.82861,-1.75305 6.66662,-1.83332c0.16199,0.08027 5.32862,-1.25305 5.16663,-1.33332c0.162,0.08027 7.49528,-2.25304 7.33328,-2.33332c0.162,0.08027 8.3286,-1.91971 8.16661,-1.99999c0.162,0.08027 7.32861,-2.25304 7.16661,-2.33332c0.162,0.08027 5.16196,-0.41972 4.99996,-0.5c0.162,0.08027 5.66196,-1.08639 5.49996,-1.16666c0.162,0.08027 5.16196,-0.91972 4.99996,-0.99999c0.162,0.08027 4.66196,-1.08639 4.49997,-1.16666c0.162,0.08027 4.2662,-0.91972 4.10421,-0.99999c0.162,0.08027 0.80804,-6.87787 1.2456,-8.37786z" opacity="NaN" fill="#fff"/>
  <!--elastic1-->
  <path class="product-shape4 shape" id="svg_42" d="m506.37445,512.78078l0.56279,2.78146l0.375,1l0.25,2.125l-1.75,0.125l-1.375,2l-2.625,0.3125l-2.3125,-0.625l-1.875,0l-1.5,1.5625l-3.125,1.125l-1.75,-0.1875l-0.4375,-2.375l-0.1875,-1.9375l-0.9375,-2.4375l-0.375,-2.375c0.06221,0.03104 -0.31279,-1.71896 -0.31279,-1.71896c0,0 0.5,-1.0625 0.43779,-1.09354c0.06221,0.09354 1.5622,-1.90646 1.5,-1.9375c0.06221,0.03104 2.8122,-0.96896 2.75,-1c0.06221,0.03104 2.5622,-0.46896 2.5,-0.5c0.06221,0.03104 1.12471,-1.34396 1.0625,-1.375c0.06221,0.09354 2.6872,-0.40646 2.625,-0.4375c0.06221,0.03104 2.5622,1.21854 2.5,1.1875c-0.06279,0.03104 0.31221,-2.65646 0.25,-2.6875c0.06221,0.03104 1.37471,-1.46896 1.3125,-1.5c0.06221,0.03104 1.18721,-1.84396 1.125,-1.875c0.06221,0.03104 0.74971,-1.09396 0.6875,-1.125c0.06221,0.03104 5.3747,-7.28146 5.3747,-7.28146c0,0 1,-1.3125 0.93779,-1.34354c0.06221,0.03104 2.5622,-2.65646 2.5,-2.6875c2.6872,-2.03146 3.0622,-2.53146 3,-2.5625c0.12471,0.09354 -7.00029,-13.46896 -7.0625,-13.49999c0.06221,0.03104 -4.12529,-8.28146 -4.4375,-8.75c0.06221,0.03104 -4.00029,-7.15646 -4.0625,-7.1875c0.06221,0.03104 -2.00029,-3.84396 -2.0625,-3.875c0.06221,0.03104 0.06221,-2.46896 0,-2.5c0.06221,0.03104 0.56221,-2.53146 0.5,-2.5625c0.06221,0.03104 0.68721,-0.84396 0.625,-0.875c0.06221,0.03104 1.6872,-0.09396 1.625,-0.125c0.06221,0.03104 1.12471,1.03103 1.0625,1c0.06221,0.03104 0.93721,1.40603 0.875,1.375c0.06221,0.03104 0.99971,1.40603 0.9375,1.375c0.06221,0.03104 0.68721,0.84353 0.625,0.8125c0.06221,0.03104 -0.18779,0.59353 -0.25,0.5625c0.06221,0.03104 -0.25029,2.15603 -0.3125,2.125c0.06221,0.03104 1.8122,4.09353 1.75,4.0625c0.06221,0.03104 6.4372,11.53103 6.375,11.49999c0.06221,0.03104 1.31221,2.21853 1.25,2.1875c0.06221,0.03104 3.5622,5.59353 3.5,5.5625c0.06221,0.03104 3.3122,6.21853 3.25,6.1875c0.06221,0.03104 3.3747,-1.71896 3.3125,-1.75c0.06221,0.03104 3.4372,-1.34396 3.375,-1.375c0.06221,0.03104 4.8122,-1.40646 4.75,-1.4375c0.06221,0.03104 4.6247,-0.59396 4.5625,-0.625c0.06221,0.03104 5.5622,-0.15646 5.5,-0.1875c0.06221,0.03104 5.8122,0.03104 5.75,0c0.06221,0.03104 2.56221,-1.09396 2.5,-1.125c0.06221,0.03104 3.37471,-1.40646 3.3125,-1.4375c0.06221,0.03104 5.0622,-2.46896 5,-2.5c0.06221,0.03104 12.6247,-4.46896 12.56249,-4.5625c0.06221,0.03104 5.3747,-1.65646 5.3125,-1.6875c0.06221,0.03104 4.99971,-1.90646 4.9375,-1.9375c0.06221,0.03104 5.7497,-2.03146 5.6875,-2.0625c0.06221,0.03104 -5.81279,-0.71896 -5.875,-0.75c0.06221,0.03104 -10.56279,-2.34396 -10.62499,-2.375c0.06221,0.03104 -9.81279,-2.03146 -9.875,-2.0625c0.06221,0.03104 -14.12529,-3.46896 -14.18749,-3.5c0.06221,0.03104 -3.12529,-0.78146 -3.1875,-0.8125c0.06221,0.03104 -8.56279,-2.71896 -8.625,-2.75c0.06221,0.03104 -1.50029,-0.46896 -1.5625,-0.5c0.06221,0.03104 -10.18779,-2.71896 -10.24999,-2.75c0.06221,0.03104 -3.87529,-0.78146 -3.9375,-0.8125c0.06221,0.03104 -0.68779,-1.40646 -0.75,-1.4375c0.06221,0.03104 -0.43779,-2.15646 -0.5,-2.1875c0.06221,0.03104 -0.37529,-1.28146 -0.4375,-1.3125c0.06221,0.03104 5.4997,0.71853 5.4375,0.6875c0.06221,0.03104 6.4372,1.96853 6.375,1.9375c0.06221,0.03104 9.5622,2.65603 9.5,2.625c0.06221,0.03104 10.1247,2.59353 10.06249,2.5625c0.06221,0.03104 10.2497,2.84353 10.18749,2.8125c0.06221,0.03104 2.18721,0.65603 2.125,0.625c0.06221,0.03104 3.06221,1.09353 3,1.0625c0.06221,0.03104 8.2497,2.03103 8.1875,2c0.06221,0.03104 17.1872,4.34353 17.12499,4.3125c0.06221,0.03104 5.9997,-6.96896 6.1875,-7.125c0.06221,0.03104 4.99971,-5.40646 4.9375,-5.4375c0.06221,0.03104 10.8747,-12.28146 10.81249,-12.31249c0.06221,0.03103 4.99971,-5.59396 4.9375,-5.625c0.06221,0.03103 4.62471,-5.46896 4.5625,-5.5c0.06221,0.03103 0.87471,-0.90646 0.8125,-0.9375c0.06221,0.03103 5.81221,-6.46896 5.75,-6.5c0.06221,0.03103 3.74971,-3.09396 3.6875,-3.125c0.06221,0.03103 1.43721,-0.65647 1.375,-0.6875c0.06221,0.03103 0.68721,0.65603 0.625,0.625c0.06221,0.03103 0.12471,1.28103 0.0625,1.25c0.06221,0.03103 0.12471,1.65603 0.0625,1.625c0.06221,0.03103 -0.00029,1.09353 -0.0625,1.0625c0.06221,0.03103 -1.18779,1.03103 -1.25,1c0.06221,0.03103 -4.25029,4.21853 -4.3125,4.1875c0.06221,0.03103 -1.68779,2.65603 -1.75,2.625c0.06221,0.03103 -6.18779,7.15603 -6.25,7.125c0.06221,0.03103 -3.56279,4.15603 -3.625,4.125c0.06221,0.03103 -6.25029,7.59353 -6.3125,7.5625c0.06221,0.03104 -4.25029,5.03103 -4.3125,5c0.06221,0.03104 -3.93779,4.53103 -4,4.5c0.06221,0.03104 -5.62529,6.28103 -5.6875,6.25c0.06221,0.03104 0.81221,0.09354 0.75,0.0625c0.06221,0.03104 5.81221,-1.21896 5.75,-1.25c0.06221,0.03104 12.1872,-2.96896 12.12499,-3c0.06221,0.03104 9.4372,-2.46896 9.375,-2.5c0.06221,0.03104 2.56221,-0.90646 2.5,-0.9375c0.06221,0.03104 0.43721,1.15603 0.375,1.125c0.06221,0.03104 -0.25029,1.90603 -0.3125,1.875c0.06221,0.03104 -0.37529,1.96853 -0.4375,1.9375c0.06221,0.03104 -0.43779,0.46854 -0.5,0.4375c0.06221,0.03104 -1.68779,0.34354 -1.75,0.3125c0.06221,0.03104 -4.62529,1.28103 -6.375,1.75c0.06221,0.03104 -2.56279,0.71854 -2.625,0.6875c0.06221,0.03104 -5.50029,1.96853 -5.5625,1.9375c0.06221,0.03104 -5.81279,1.59353 -5.875,1.5625c0.06221,0.03104 13.6872,4.84353 13.62499,4.8125c0.06221,0.03104 5.74971,1.96853 5.6875,1.9375c0.06221,0.03104 2.43721,0.40604 2.375,0.375c0.06221,0.03104 -0.93779,1.15604 -1,1.125c0.06221,0.03104 -1.87529,1.09354 -1.9375,1.0625c0.06221,0.03104 -1.81279,0.53104 -1.875,0.5c0.06221,0.03104 -2.18779,-0.59396 -2.25,-0.625c0.06221,0.03104 -3.25029,-0.65646 -3.3125,-0.6875c0.06221,0.03104 -5.68779,-1.84396 -5.75,-1.875c0.06221,0.03104 -4.43779,-1.46896 -4.43779,-1.53146c0,-0.0625 -8.5625,-2.75 -8.6247,-2.78103c0.06221,0.03104 -8.25029,2.71853 -8.3125,2.6875c0.06221,0.03104 -6.18779,6.78103 -6.25,6.75c0.06221,0.03104 -7.68779,8.03103 -7.75,8c0.06221,0.03104 -9.00029,1.84354 -9.0625,1.8125c0.24971,-0.21896 -2.75029,0.34354 -5.75,0.75c0.06221,0.03104 -4.31279,-1.84396 -4.375,-1.875c0.06221,0.03104 -3.37529,-0.96896 -3.4375,-1c0.06221,0.03104 -2.18779,-0.28146 -2.25,-0.3125c0.06221,0.03104 -3.18779,1.03104 -3.25,1c0.12471,0.09354 -4.62529,2.65603 -4.6875,2.625c0.06221,0.03104 -4.25029,2.21853 -4.3125,2.1875c0.06221,0.03104 -9.06279,4.65603 -9.125,4.625c0.06221,0.03104 0.87471,1.71854 0.8125,1.6875c0.06221,0.03104 -2.06279,1.40604 -2.125,1.375c0.06221,0.03104 -0.87529,0.46854 -0.9375,0.4375c0.06221,0.03104 -2.62529,0.78104 -2.6875,0.75c0.06221,0.03104 -1.37529,0.40604 -1.4375,0.375c0.06221,0.03104 -4.25029,1.34354 -4.3125,1.3125c0.06221,0.03104 -1.56279,0.46854 -1.625,0.4375c0.06221,0.03104 -0.62529,0.28104 -0.6875,0.25c0.06221,0.03104 1.49971,-2.59396 1.4375,-2.625c0.06221,0.03104 2.12471,-2.28146 2.0625,-2.3125c0.06221,0.03104 2.5622,-1.59396 2.5,-1.625c0.06221,0.03104 -1.31279,-2.84396 -1.375,-2.875c0.06221,0.03104 -1.18779,1.46854 -1.25,1.4375c0.06221,0.03104 -1.87529,2.65603 -1.9375,2.625c0.06221,0.03104 -2.12529,3.40603 -2.1875,3.375c0.06221,0.03104 -1.37529,2.78103 -1.4375,2.75c0.06221,0.03104 -0.93779,1.09354 -2.125,2c-0.00029,0.65604 -1.43779,2.59354 -1.5,2.5625c-1.06279,3.34353 -1.81279,4.21853 -1.875,4.1875c0.06221,0.03104 -0.00175,1.03011 -1.06279,3.40603z" opacity="NaN" fill="#fff"/>
  <path class="product-shape4 shape" id="svg_43" d="m648.61917,413.20558l-0.52852,1.39745l-0.18749,2.18738l-0.12499,0.93745l-1.49992,-0.18749l-0.74996,0l0.93745,0.56247l0.74995,6.81214l0.68748,5.56221l0.43748,3.24983l1.06244,5.49971l0.74996,3.87479l0.68746,2.93734l-2.74985,0.81244l-2.18759,1.31209l0.18677,0.68767l0.43563,0.43777l3.31508,-1.12512l6.68716,-1.37489l4.81224,-0.62497l5.56221,-0.62497l2.43737,-0.12499l2.24988,1.12494l1.37493,1.68741l1.06244,1.99989l0.81246,1.68741l0.99995,0.31248c0.02855,0.03998 0.71601,-1.02247 0.71601,-1.08496c0,-0.0625 1.49992,-2.06239 1.47137,-2.10237c0.02855,0.03998 0.46602,-1.77243 0.46602,-1.77243c0,0 -0.12499,-1.8749 -0.15354,-1.91488c0.02855,0.03998 -0.53392,-1.14746 -0.53392,-1.14746c0,0 -1.37493,-0.62497 -1.40347,-0.66495c0.02855,0.03998 -1.78386,-0.335 -1.8124,-0.37498c0.02855,0.03998 -1.28388,0.22747 -1.31243,0.18749c0.02855,0.03998 -0.72141,0.28997 -0.74996,0.24999c-0.03394,0.16495 -5.78365,0.53995 -5.81219,0.49997c0.02855,0.03998 -11.90832,1.72739 -11.93687,1.68741c0.02855,0.03998 -0.72141,-6.70966 -0.74996,-6.74964c0.02855,0.03998 -0.22144,-1.83492 -0.24999,-1.8749c0.02855,0.03998 -1.47137,-8.89705 -1.49992,-8.93703c0.02855,0.03998 -0.47143,-2.77237 -0.49997,-2.81235c0.02855,0.03998 -1.88921,-7.36955 -3.15878,-12.20937z" opacity="NaN" fill="#fff"/>
  <path class="product-shape4 shape" id="svg_44" d="m671.4152,462.33599l1.10062,-2.07848l1.37465,-1.49962l0.99974,-1.1872c0.02409,0.01651 1.9611,-0.17094 1.9611,-0.17094c0,0 1.31217,0.49987 1.28807,0.48336c0.02409,0.01651 1.39874,1.07874 1.37465,1.06223c0.02409,0.01651 0.96135,1.07874 0.93726,1.06223c0.02409,0.01651 1.21129,0.76632 1.21129,0.8288c0,0.06248 1.06223,1.37465 1.03814,1.35814c0.02409,0.01651 1.02384,1.32867 0.99974,1.31217c0.02409,0.01651 0.64893,1.64109 0.62484,1.62459c0.02409,0.01651 -4.97463,0.8288 -4.99872,0.81229c0.02409,0.01651 -2.10037,0.32893 -2.12446,0.31242c0.02409,0.01651 -0.4133,-1.23317 -0.43739,-1.24968c0.02409,0.01651 -1.66298,-1.04572 -1.68707,-1.06223c0.02409,0.01651 -1.72546,-0.35839 -1.74955,-0.3749c0.02409,0.01651 -1.03369,-0.58487 -1.91292,-1.23317z" opacity="NaN" fill="#fff"/>
  <!--elastic2-->
  <path class="product-shape5 shape" id="svg_45" d="m625.3165,474.472l6.27826,0.35013l3.37818,0l6.88148,-0.50047l7.50707,-0.75071l1.25118,0.50047l6.25589,0.75071l6.88148,2.00189l7.13172,2.87771l10.13454,5.88054l7.88242,5.00471l1.62653,1.00094l4.00377,2.25212l4.75448,3.37818l3.5033,2.62747l6.63124,5.6303l9.75919,8.50801l4.25401,3.87865l8.00754,7.50707l3.87865,3.62842l7.38195,7.7573l3.75353,4.00377l7.88242,7.13172l5.6303,6.13077l6.13077,7.0066l2.62747,2.87771l8.50801,7.63219l7.00535,10.00776l7.88367,8.88503l0.25024,1.75165l3.00283,3.87865l2.127,3.25306l3.37818,0.12512l3.25306,0l0.25024,-2.127l-0.75071,-2.62747l-2.62747,-4.12889l-5.88054,-7.25683l-4.25401,-4.87959l-9.50895,-9.50895l-7.88242,-8.63313l-5.75542,-6.13077l-6.63124,-6.88148l-5.12983,-5.6303l-5.88054,-6.25589l-6.75636,-6.75636l-4.00377,-4.00377l-4.12889,-4.12889l-4.00377,-3.62842l-6.50613,-6.13077l-3.75353,-3.5033l-8.00754,-6.25589l-8.38289,-6.75636l-5.50518,-4.25401l-6.38101,-4.75448l-7.0066,-4.25401l-5.12983,-3.00283l-14.63878,-6.75636l-6.50613,-2.87771l-3.37818,-1.12606l-7.25683,0l-4.87959,0.62559l-5.75542,1.62653l-6.00566,1.87677l-6.77873,3.15317z" opacity="NaN" fill="#fff"/>
  <path class="product-shape5 shape" id="svg_46" d="m798.72979,610.85042l3.0252,-0.90105l2.37724,-2.127l1.62653,-1.12606l0.75071,2.127l0.37535,11.01037l-0.37535,1.75165l-2.25212,1.62653l-1.62653,1.87677l-2.50236,0l-1.25118,-1.00094l-0.14749,-13.23726z" opacity="NaN" fill="#fff"/>
  <path class="product-shape5 shape" id="svg_47" d="m799.60562,631.36975l2.77496,1.35107l3.25306,1.37629l1.62653,0.50047l-0.25023,10.38478l-0.62559,27.02545l-1.00094,11.13549l-3.50408,21.01953l-1.50194,7.25658l-2.37593,6.88199l-1.00095,7.88243l-0.37535,5.6303l-0.12512,4.12889l0.50047,4.00377l1.25118,3.25306l2.75259,1.50141l3.37818,0l3.87866,-1.37629l4.12889,-2.37724l5.12983,-4.62936l4.87959,-6.00565l4.62936,-6.13078l4.25401,-6.63124l1.75165,-2.12701l3.25306,-5.50518l2.87771,-4.87959l3.75353,-8.3829l2.25212,-7.50707l0.87583,-7.63218l0.25023,-7.88243l-0.87582,-9.8843l-0.75071,-6.88148l-0.50047,-4.37913l-2.25212,-12.76202l-2.50236,-10.50989l-0.62558,-2.00189l1.12606,-2.50235l3.12794,-2.50236l1.25118,4.62936l0.75071,3.00283l3.87865,20.64444l1.37629,11.38572l1.25118,19.76861l-0.62559,5.88054l-1.75165,6.38101l-2.50235,6.88148l-3.37818,5.88054l-1.12606,3.12794l-1.62654,3.12795l-1.37629,3.00283l-1.3763,2.62747l-3.00282,5.25495l-2.62748,4.254l-4.50424,6.2559l-3.75354,4.37912l-3.87865,3.87865l-4.37912,3.87865l-4.37913,2.7526l-4.00377,1.62653c0.10275,0.02522 -3.7759,0.52569 -3.7759,0.52569c0,0 -4.37912,-0.25023 -4.48187,-0.27546c0.10275,0.02523 -2.52473,-0.8506 -2.62748,-0.87582c0.10275,0.02522 -2.64984,-2.47713 -2.75259,-2.50236c0.10275,0.02523 -1.6489,-1.97666 -1.75165,-2.00188c0.10275,0.02522 -1.52378,-3.22784 -1.62653,-3.25307c0.10275,0.02523 -0.89819,-4.47901 -1.00094,-4.50424c0.10275,0.02523 0.10275,-4.22878 0,-4.254c0.10275,0.02522 0.10275,-3.85343 0,-3.87866c0.10275,0.02523 1.52404,-10.34756 1.56436,-10.4472c0.04032,-0.09964 0.71116,-7.22014 0.75149,-7.50707c0.04032,-0.28693 2.0409,-8.54548 1.93815,-8.5707c0.10275,0.02522 2.35487,-11.3605 2.25213,-11.38573c0.10274,0.02523 1.35392,-6.98137 1.25117,-7.00659c0.10275,0.02522 0.97858,-5.22973 0.87583,-5.25495c0.10275,0.02522 0.85345,-5.98043 0.75071,-6.00566c0.10274,0.02523 0.10274,-9.60884 0,-9.63407c0.10274,0.02523 0.22786,-8.6079 0.12511,-8.63313c0.10275,0.02523 -0.14749,-21.99551 0.85346,-23.99739z" opacity="NaN" fill="#fff"/>
  <path class="product-shape5 shape" id="svg_48" d="m842.02056,598.02585l-4.10652,-1.96456l0.12512,-5.88053l0.12512,-1.62653l1.00094,0.50047l2.50236,-0.50047l1.00094,-1.87677l-0.75071,-0.25024l4.50424,-7.13171l4.37913,-7.75731l4.50424,-7.88242l4.75447,-6.75636l4.25401,-5.25495l5.00471,-8.25778l1.75165,-3.00283l6.13078,-13.01225l2.75259,-7.25683l1.00094,-3.87865l4.75448,-12.38667l3.87865,-10.88525l2.127,-7.7573l3.5033,-10.13455l3.37818,-9.63407l2.37724,-8.38289l4.12889,-11.76108l1.87677,-6.63124l1.12606,-4.37913l2.62747,-4.87959l2.00189,-3.25307l2.37724,-1.50141l0.62558,-1.25118l-2.00188,-1.75165l-2.75259,-0.37535l-2.87771,0.75071l-2.00189,1.50141l-0.37535,1.50141l-2.62748,3.75354l-2.25212,5.50518l-2.50235,8.3829l-3.12795,10.00942l-4.50424,14.51367l-7.38195,23.8975l-4.37912,12.51179l-2.62748,7.56962l-2.87771,7.56963l-3.87865,9.63407l-6.50613,13.51273l-7.13171,12.26154l-4.75448,7.0066l-1.81421,2.4398l-1.56397,2.69003l-5.6303,9.00849l-3.62842,5.50518l-1.75165,2.127l-1.3763,2.7526l-0.12511,4.62935c0.10274,0.08779 0.72833,4.09156 0.72833,4.09156c0,0 1.12606,4.12889 1.02332,4.0411c0.10274,0.08779 0.35298,2.71526 0.25023,2.62748c0.10275,0.08778 0.22787,3.7162 0.12512,3.62841c0.10275,0.08779 0.22786,4.3418 0.12512,4.25401c0.10274,0.08779 -0.02237,2.46502 -0.12512,2.37724c0.10275,0.08778 2.6051,0.96361 2.50236,0.87582c0.10274,0.08779 3.10557,0.58826 3.00282,0.50047c-0.39772,0.08779 -0.39772,-4.66669 -0.50047,-4.75447c0.10275,0.08778 -0.64796,-10.73491 -0.39772,-9.92164z" opacity="NaN" fill="#fff"/>
  <path class="product-shape5 shape" id="svg_49" d="m912.08599,400.9544l1.84466,1.57911l1.12231,1.99521l0.4988,4.23982l0.6235,5.73623l0.6235,3.49162l0.1247,2.99281l-0.2494,2.61871l1.24701,-0.9976l5.98563,-1.24701l-0.1247,-2.11991l-0.7482,-5.36213l-0.9976,-5.23742l-0.6235,-5.61153l-0.4988,-3.24222l-1.74581,-2.11991l-1.87051,-0.9976l-2.24461,0.4988l-1.74581,1.24701l-1.22115,2.53601z" opacity="NaN" fill="#fff"/>
 </g>
</svg>