<svg viewBox="0 0 1280 800" id="product-svg" xmlns="http://www.w3.org/2000/svg" xmlns:xlink="http://www.w3.org/1999/xlink">
 <g id="Layer_1">
  <title>Layer 1</title>
  <!--partie1-->
<path class="product-shape1 shape" id="svg_2" d="m291.3739,371.52767" opacity="NaN" fill="#fff"/>
  <path class="product-shape1 shape" id="svg_3" d="m291.24039,371.39416l-2.58924,7.51055l-1.2016,6.80907l-1.60213,6.94258l-1.46862,6.67556l-1.73565,7.07609l-1.46862,7.87716l-1.60213,6.40854l-1.2016,3.6048l-0.53404,8.27769l-0.93458,6.40854l-0.66756,7.74365l0.66756,4.67289l-0.13351,5.47396l2.00267,7.07609l4.67289,7.34311c0.05253,0.09959 3.65733,6.50813 3.65733,6.50813c0,0 4.40587,6.94258 4.35334,6.84299c0.05253,0.09959 3.39031,3.17035 3.33778,3.07076c0.05253,0.09959 4.32488,4.77249 4.27236,4.67289c0.05253,0.09959 1.25413,1.70173 1.2016,1.60213c0.05253,0.09959 0.31955,2.10226 0.26702,2.00267c0.05253,0.09959 0.72008,2.5028 0.66756,2.4032c0.05253,0.09959 1.78817,1.16768 1.73565,1.06809c0.05253,0.09959 3.65733,2.10226 3.6048,2.00267c0.05253,0.0996 4.59191,1.3012 4.53938,1.2016c0.05253,0.0996 3.79084,0.63364 3.73831,0.53404c0.05253,0.0996 4.72542,0.90066 4.67289,0.80107c0.05253,0.0996 4.99244,0.36662 4.93991,0.26702c0.05253,0.0996 3.23812,0.40066 5.34045,0.80107c0.05253,0.0996 7.39564,0.76715 7.34311,0.66756c0.05253,0.0996 7.12862,0.50013 7.07609,0.40053c0.05253,0.0996 6.46107,0.23311 6.40854,0.13351c0.05253,0.0996 2.58924,0.63364 2.53671,0.53404c0.05253,0.0996 5.52649,0.36662 5.47396,0.26702c0.05253,0.0996 3.79084,0.63364 3.73831,0.53404c0.05253,0.0996 4.4584,0.63364 4.40587,0.53404c0.05253,0.26626 5.66,0.90066 5.60747,0.80107c0.05253,0.0996 6.06053,1.03417 6.06053,1.03417c0.33333,0 4.27579,0.85582 6.75654,1.10201c0.05253,0.0996 6.06053,1.16768 6.008,1.06809c0.05253,0.0996 4.85893,0.63364 4.8064,0.53404c0.05253,0.0996 6.99511,1.16768 6.94258,1.06809c0.05253,0.0996 5.25947,1.03417 5.20694,0.93458c0.05253,0.0996 5.66,0.76715 5.60747,0.66756c0.05253,0.0996 5.66,0.63364 5.60747,0.53404c0.05253,0.0996 5.92702,1.16768 5.87449,1.06809c0.05253,0.0996 5.12596,0.90066 5.07342,0.80107c0.05253,0.0996 6.19405,1.03417 6.14151,0.93458c0.05253,0.0996 4.4584,0.50013 4.40587,0.40053c0.05253,0.0996 5.52649,0.90066 5.47396,0.80107c0.05253,0.0996 4.99245,0.76715 4.93991,0.66756c0.05253,0.0996 4.4584,1.03417 4.40587,0.93458c0.05253,0.0996 5.12596,0.63364 5.07342,0.53404c0.05253,0.0996 3.79085,0.23311 3.73831,0.13351c0.05253,0.0996 1.38764,-3.10467 1.33511,-3.20427c0.05253,0.0996 1.52116,-3.90574 1.46862,-4.00534c0.05253,0.0996 0.98711,-2.83765 0.93458,-2.93725c0.05253,0.0996 1.52116,-3.63872 1.46862,-3.73831c0.05253,0.0996 0.98711,-3.50521 0.93458,-3.6048c0.05253,0.0996 0.98711,-4.5733 0.93458,-4.67289c0.05253,0.09959 0.31956,-2.83765 0.26702,-2.93725c0.05253,0.09959 0.05253,-3.10467 0,-3.20427c0.05253,0.09959 1.06543,-0.61085 -0.23644,-1.46005c-0.32227,-0.65001 -0.55498,-3.63387 -0.60751,-5.48254c0.3024,-1.89934 -0.57214,-4.70681 -0.62467,-4.8064c0.05253,0.09959 -0.21449,-1.63605 -0.26702,-1.73565c0.05253,0.09959 1.12062,-1.36903 1.06809,-1.46862c0.05253,0.09959 0.31956,-5.90841 0.26702,-6.008c0.05253,0.09959 0.31956,-4.70681 0.26702,-4.8064c0.05253,0.09959 0.05253,-4.30627 0,-4.40587c0.05253,0.09959 -0.08098,-1.50254 -0.13351,-1.60213c0.05253,0.09959 -3.28525,-0.70147 -3.33778,-0.80107c0.05253,0.09959 0.05253,-3.77223 0,-3.87182c0.05253,0.09959 -0.21449,-4.70681 -0.26702,-4.8064c0.05253,0.09959 -0.348,-3.10467 -0.40053,-3.20427c0.05253,0.09959 -0.48151,-2.83765 -0.53404,-2.93725c0.05253,0.09959 2.45573,-1.23552 2.4032,-1.33511c0.05253,0.09959 2.0552,0.63364 2.00267,0.53404c0.05253,0.09959 -0.48151,-3.77223 -0.53404,-3.87182c0.05253,0.09959 -0.18222,-1.38377 -1.06809,-3.47129c0.05253,0.09959 -2.7512,-4.43979 -2.80373,-4.53938c0.05253,0.09959 -3.15174,-5.37437 -3.20427,-5.47396c0.05253,0.09959 -2.7512,-5.10734 -2.80373,-5.20694c0.05253,0.09959 -2.7512,-4.30628 -2.80373,-4.40587c0.05253,0.09959 -3.15174,-3.90574 -3.20427,-4.00534c0.05253,0.09959 -2.61769,-4.17277 -2.67022,-4.27236c0.05253,0.09959 -1.35245,-2.16769 -3.73831,-6.008c0.05253,0.09959 -3.55227,-4.97383 -3.6048,-5.07342c0.05253,0.09959 -3.9528,-5.50788 -4.00534,-5.60747c0.05253,0.09959 -3.28525,-5.64139 -3.33778,-5.74098c0.05253,0.09959 -3.01823,-4.70681 -3.07076,-4.8064c0.05253,0.09959 -3.15174,-5.50788 -3.20427,-5.60747c0.05253,0.09959 -2.35067,-3.23819 -2.4032,-3.33778c0.05253,0.09959 -1.5496,-2.1701 -1.60213,-2.26969c0.05253,0.09959 -1.11591,0.16323 -1.50178,0.73031c-3.44747,-0.23374 -0.18134,0.03684 -5.4408,-0.06275c0.05253,0.09959 -11.16241,-0.16743 -11.21494,-0.26702c0.05253,0.09959 -10.09432,0.2331 -10.14685,0.13351c0.05253,0.09959 -9.15974,-0.16743 -9.21227,-0.26702c0.05253,0.09959 -12.09699,-0.16743 -12.14952,-0.26702c0.05253,0.09959 -8.49219,-0.16743 -8.54471,-0.26702c0.05253,0.09959 -9.8273,-0.16743 -9.87983,-0.26702c0.05253,0.09959 -9.56028,-0.43445 -9.6128,-0.53404c0.05253,0.09959 -8.35868,-0.16743 -8.4112,-0.26702c0.05253,0.09959 -6.71589,-0.53481 -16.02134,-0.80107c0.05253,0.09959 -16.36935,-0.16743 -16.42187,-0.26702c0.05253,0.09959 -8.75921,0.09959 -8.81174,0c0.05253,0.09959 -6.89005,0.63364 -6.94258,0.53404c0.05253,0.09959 -1.22145,0.07641 -1.81663,1.30119z" opacity="NaN" fill="#fff"/>
  <path class="product-shape1 shape" id="svg_5" d="m473.66667,523.25" opacity="NaN" fill="#fff"/>
  <path class="product-shape1 shape" id="svg_6" d="m477.5,506.75l-4.83333,16.75l5,1.33333l5,1l3.5,0.83333l0.83333,-2.16667l-2.16667,-5.5l-1.83333,-4l-0.83333,-4l-4.66667,-4.25z" opacity="NaN" fill="#fff"/>
  <path class="product-shape1 shape" id="svg_7" d="m475,434.25l-0.16667,-6.25l0.33333,-2.5l2.16667,-1.33333l-0.5,-7.83333l0,-7.66667l0.5,-9.66667l0.83333,-6.83333l1.16667,-6.16667l1.66667,-6.16667l1.5,-3.5l2.33333,-2.83333l-8,0l-5.66667,-0.33333l-5.5,-0.33333l-5.33333,-0.33333l-6.66667,0l-7.5,-0.33333l-9.5,-0.16667l3.83333,6.83333l4.33333,6.83333l4.66667,7.33333l4.66667,6.83333l3.66667,6.5l4.83333,7l4.33333,8.33333l4.16667,7.33333l3.83333,5.25z" opacity="NaN" fill="#fff"/>
  <path class="product-shape1 shape" id="svg_8" d="m532.33333,423.75l-0.83333,-7.08333l-1.66667,-7.33333l-1.33333,-5.33333l-1,-7l-0.5,-5.66667l0.5,-4.16667l1.5,-3.5l2.5,-2.5l3.83333,-2.16667l4.5,-1.83333l7.16667,0l7.16667,0l5.66667,0.5l5.83333,0.33333l-4.66667,6.33333l-5,7.16667l-4.5,6.33333l-4.16667,5.5l-4.16667,5.5l-4.33333,5.66667l-3.5,4.5l-3,4.75z" opacity="NaN" fill="#fff"/>
  <path class="product-shape1 shape" id="svg_9" d="m574.83333,378.75l-8.16667,10.75l-5.5,7.33333l-7.33333,10.66667l-7,9.33333l-5.83333,7.66667l-4.5,7.5l-2.5,3.66667l0,10.5l0,15.83333l-0.33333,10.16667l1.16667,7l0.5,10l0,11.33333l1.33333,5l0,7.66667l-0.66667,2.66667l-2.33333,1.33333l-0.5,5.5l-1.16667,3.83333l2,6.16667l10.66667,1.16667l9.83333,0.66667l9.66667,1.33333l9.5,0.66667l13.16667,1.66667l13.33333,2l10.33333,1.5l9.66667,1.16667l13,0.83333l13.5,1.33333l21.16667,1.16667l16.5,1.33333l14.33333,0.83333l3.66667,0.33333l11.33333,0.33333l10,0.83333l19.83333,1l14.33333,1l14.83333,0l15.66667,0.33333l14.33333,-0.33333l7.83333,-0.83333l3.66667,-0.83333l3,-3l-1.16667,-9.5l-1.33333,-9.33333l0.16667,-8.83333l2,-8.33333l2.16667,-8.83333l-6.33333,-8.66667l-0.33333,-2.16667l1.66667,-2l1.83333,-10.66667l1.33333,-11.5l1.33333,-9.33333l0.66667,-10.16667l0.66667,-12.5l0.33333,-15.66667l0.16667,-10.83333l-0.16667,-7.83333l-11.16667,0.33333l-6.5,0.16667l-9.5,2.83333l-10,2.33333l-9.33333,2.33333l-10.66667,3l-10.33333,2.16667l-6.5,1l-10.5,-0.66667l-15,-3l-16.33333,-3.66667l-19,-5.5l-17.66667,-4.83333l-15.66667,-5.5l-13.83333,-4.33333l-14,-3.5l-12.16667,-1.5l-14.33333,-1.5l-16.5,-1.33333l-6.33333,-1.08333z" opacity="NaN" fill="#fff"/>
  <path class="product-shape1 shape" style="vector-effect: non-scaling-stroke;" id="svg_10" d="m300.33333,578.25l-0.5,3.75l0,7.66667l0,10.16667l-0.33333,8.16667l0.5,9.5l1.33333,8.83333l2.16667,6.66667l3,8.5l4.83333,7l3,5.66667l2.66667,5.5l4,3.66667l4.5,1.33333l6.33333,0.66667l7.5,-0.5l7.33333,0.16667l4,0.5l7.66667,0.66667l8.5,0l7,1l12.33333,1.16667c0,0.08333 9.33333,2.08333 9.33333,2.08333c0,0 10.83333,2.16667 10.83333,2.08333c0,0.08333 6.33333,1.25 6.33333,1.16667c0,0.08333 10.66667,0.75 10.66667,0.66667c0,0.08333 7.16667,1.41667 7.16667,1.33333c0,0.08333 8,2.75 8,2.66667c0,0.08333 11.5,3.41667 11.5,3.33333c0,0.08333 7.33333,2.08333 15.33333,3.83333c0,0.08333 12.33333,2.58333 12.33333,2.5c0,0.08333 13.33333,2.91667 13.33333,2.83333c0,0.08333 4,0.91667 4,0.83333c0,0.08333 10.33333,1.25 10.33333,1.16667c0,0.08333 10.5,1.41667 10.33333,1.33333c0.16667,0.08333 11.33333,1.91667 11.33333,1.83333c0,0.08333 16.16667,4.91667 16.16667,4.83333c0,0.08333 21.83333,5.41667 21.83333,5.33333c0,0.08333 23.83333,4.58333 30,6.33333c0,0.08333 17,4.25 17,4.16667c0,0.08333 16.33333,4.58333 16.33333,4.5c0,0.08333 3,0.75 3,0.66667c0,0.08333 10,0.25 10,0.16667c0,0.08333 6.83333,2.25 6.83333,2.16667c0,0.08333 8,2.58333 8,2.5c0,0.08333 9.66667,1.91667 9.66667,1.83333c0,0.08333 14.16667,1.75 14.16667,1.66667c0,0.08333 17.83333,2.58333 17.83333,2.5c0,0.08333 23.83333,2.58333 23.83333,2.5c0,0.08333 19.66667,2.58333 34.5,2.66667c0,0.08333 13.5,2.25 13.5,2.16667c0,0.08333 3.66667,0.91667 3.66667,0.83333c0,0.08333 13.16667,-0.08333 13.16667,-0.16667c0,0.08333 5,-2.41667 5,-2.5c0,0.08333 4.16667,-2.58333 4.16667,-2.66667c0,0.08333 6.66667,-2.25 6.66667,-2.33333c0,0.08333 6.5,-3.58333 6.5,-3.66667c0,0.08333 3.83333,-3.41667 3.83333,-3.5c0,0.08333 2.33333,-3.41667 2.33333,-3.5c0,0.08333 0.66667,-7.41667 0.66667,-7.5c0,0.08333 1.5,-10.41667 1.5,-10.5c0,0.08333 -0.66667,-7.75 -0.66667,-7.83333c0,0.08333 -0.66667,-6.08333 -0.66667,-6.16667c0,0.08333 -0.16667,-9.41667 -0.16667,-9.5c0,0.08333 0.5,-11.25 0.5,-11.33333c0,0.08333 1.33333,-15.41667 1.33333,-15.5c0,0.08333 0.83333,-6.08333 0.83333,-6.16667c0,0.08333 -5.16667,0.58333 -5.16667,0.5c0,0.08333 -7.83333,2.75 -7.83333,2.66667c0,0.08333 -9.16667,1.41667 -9.16667,1.33333c0,0.08333 -8.66667,0.75 -8.66667,0.66667c0,0.08333 -9,0.08333 -9,0c0,-0.25 -14.33333,-0.25 -14.33333,-0.33333c0,-0.25 -11.16667,-1.25 -11.16667,-1.33333c0,-0.25 -12.66667,-1.58333 -12.66667,-1.66667c0,0.08333 -8,-2.08333 -8,-2.16667c0,0.08333 -10.5,-0.41667 -10.5,-0.5c0,0.08333 -9.5,-1.08333 -9.5,-1.16667c0,0.08333 -9.83333,-0.75 -9.83333,-0.83333c0,0.08333 -12.66667,-1.08333 -12.66667,-1.16667c0,0.08333 -10.33333,-0.41667 -10.33333,-0.5c0,0.08333 -10,-0.91667 -10,-1c0,0.08333 -3.16667,-1.08333 -3.33333,-1.16667c0.16667,0.08333 -10.16667,0.25 -10.16667,0.16667c0,0.08333 -4.33333,-1.08333 -4.33333,-1.16667c0,0.08333 -6.66667,-0.08333 -6.66667,-0.16667c0,0.08333 -7.16667,-0.25 -7.33333,-0.33333c0.16667,0.08333 -1.16667,-0.75 -8.5,-1.5c0,0.08333 -8.5,-1.25 -8.5,-1.33333c0,0.08333 -8.66667,-1.08333 -8.66667,-1.16667c0,0.08333 -9.83333,-0.91667 -9.83333,-1c0,0.08333 -10,-1.75 -10,-1.83333c0,0.08333 -10,-0.91667 -10,-1c0,0.08333 -8.66667,-0.91667 -8.66667,-1c0,0.08333 -7.66667,-0.91667 -7.66667,-1c0,0.08333 -6.83333,-0.41667 -6.83333,-0.5c0,0.08333 -3.83333,-0.58333 -3.83333,-0.66667c0,0.08333 -6.5,-1.41667 -6.5,-1.5c0,0.08333 -2,5.75 -2,5.66667c0,0.08333 -2,5.91667 -2,5.83333c0,0.08333 -2.83333,6.41667 -2.83333,6.33333c0,0.08333 -3.83333,6.91667 -3.83333,6.83333c0,0.08333 -4.66667,5.75 -4.66667,5.66667c0,0.08333 -7.33333,6.25 -7.33333,6.16667c0,0.08333 -7.16667,4.41667 -7.16667,4.33333c0,0.08333 -7.16667,3.25 -7.16667,3.16667c0,0.08333 -3.5,1.58333 -7.83333,1.83333c0,0.08333 -9.33333,0.75 -9.33333,0.66667c0,0.08333 -7.66667,-0.58333 -7.66667,-0.66667c0,0.08333 -5.66667,-1.41667 -5.66667,-1.5c0,0.08333 -7.16667,-3.08333 -7.16667,-3.16667c0,0.08333 -5.66667,-3.41667 -5.66667,-3.5c0,0.08333 -5.33333,-4.75 -5.33333,-4.83333c0,0.08333 -5.5,-5.91667 -5.5,-6c0,0.08333 -3.66667,-4.91667 -3.66667,-5c0,0.08333 -3.16667,-4.75 -3.16667,-4.83333c0,0.08333 -3.5,-7.58333 -3.5,-7.66667c0,0.08333 -3.16667,-8.75 -3.16667,-8.83333c0,0.08333 -2,-7.41667 -2,-7.5c0,0.08333 -1.5,-8.58333 -1.5,-8.66667c0,0.08333 -0.5,-3.75 -0.5,-3.83333c0,0.08333 -7,-1.58333 -7.16667,-1.58333c-0.16667,0 -7.33333,-0.16667 -7.33333,-0.25c0,0.08333 -11.16667,-1.91667 -11.16667,-2c0,0.08333 -5.5,-0.41667 -5.5,-0.5c0,0.08333 -0.5,2.25 -0.5,2.25c0,0 -0.83333,4.5 -0.83333,4.41667c0,0.08333 -0.83333,5.58333 -0.83333,5.5c0,0.08333 -0.5,7.08333 -0.5,7c0,0.08333 -0.33333,4.75 -0.33333,4.66667c0,0.08333 -2.16667,4.75 -2.16667,4.66667c0,0.08333 -1.33333,2.75 -1.33333,2.66667c0,0.08333 -2.83333,-0.91667 -8.5,-1.5c0.83333,-0.25 -3.83333,-1.25 -3.83333,-1.33333c0.66667,-0.25 -12.33333,-3.75 -13.83333,-3.66667c0.5,-0.75 -9.5,-1.75 -9.5,-1.83333c0.16667,-0.25 -8.66667,-2.08333 -8.66667,-2.16667c0,-0.25 -8.16667,-2.75 -8.16667,-2.83333c0,0.08333 -7.5,-2.41667 -7.5,-2.5c0,-0.08333 -5.33333,-1.91667 -5.33333,-2c0.16667,-0.08333 0,-6.75 0,-6.83333c0,0.08333 0.83333,-8.41667 0.83333,-8.5c0.33333,0.08333 2,-5.08333 2,-5.16667c0,0.08333 3.16667,-3.58333 3.16667,-3.66667c0,0.08333 0.83333,-3.58333 0.83333,-3.66667c0,0.08333 -7.83333,-1.08333 -7.83333,-1.16667c0,0.08333 -10.83333,-1.58333 -11,-1.66667c-3.33333,-1.25 -11.16667,-2.08333 -11.16667,-2.16667c0.16667,-0.25 -7,-2.25 -7,-2.33333c0,0.08333 -2,-1.58333 -6.5,-3.41667z" opacity="NaN" fill="#fff"/>
  <path class="product-shape1 shape" style="vector-effect: non-scaling-stroke;" id="svg_11" d="m448.66667,609.58333l10.5,1.91667l8.33333,0.66667l7.83333,2.33333l8.16667,1.33333l6.33333,1.5l8.66667,1.16667l6.33333,1.83333l5.66667,0.16667l6,1.5l5.83333,1.5l4.83333,0.5l6,1.16667l7.5,0.83333l-0.5,2.33333l-0.66667,4.16667l-1.5,3.83333l-2.5,6.5l-2.83333,4l-4,4.83333l-4,4l-5,3.33333l-5,2.83333l-5.33333,2l-5.66667,1.5l-6.33333,0.83333l-5.83333,-0.16667l-6.66667,-1l-5,-1.5l-5,-2.66667l-5,-3l-3.5,-3.33333l-3,-4.16667l-4.33333,-6l-3.16667,-6.66667l-2.66667,-6.16667l-2.33333,-7.83333l-1.33333,-6.33333l-0.83333,-7.75z" opacity="NaN" fill="#fff"/>
  
  
  <!-- partie2 -->
  <path class="product-shape2 shape" stroke="null" style="vector-effect: non-scaling-stroke;" id="svg_12" d="m820.57683,401.11094l0.54554,-2.02352l-1.82915,-6.31888l-2.66058,-7.3166l-3.6583,-8.48061l-9.97719,0.49886l-10.64233,0l-7.98175,-1.49658l-5.98631,-1.164l-4.32345,-0.83143l-4.15716,-1.49658l-6.81774,0.33257l-7.98175,1.164l-9.47833,-0.16629l-13.96806,-0.16629l-9.97719,-0.33257l-8.14803,-1.33029l-6.65146,-0.99772l-5.65374,-1.164l-16.12978,0.16629l-11.64005,-0.33257l-12.13891,-0.33257l-16.12978,-0.33257l-14.46692,-0.33257l-8.97947,-1.164c0.11961,0.02808 -7.36328,-0.63706 -7.36328,-0.63706c0,0 -10.9749,3.49201 -11.09451,3.46393c0.11961,0.02808 -3.87127,1.35838 -3.99087,1.33029c0.11961,0.02808 -11.18787,-0.47078 -11.30748,-0.49886c0.11961,0.02808 -6.36557,-0.47078 -6.48517,-0.49886c0.11961,0.02808 -6.53185,8.00983 -6.65146,7.98175c0.11961,0.02808 6.43849,1.19209 6.31888,1.164c0.11961,0.02808 5.60706,0.52694 5.48745,0.49886c0.11961,0.02808 9.26536,0.69323 9.64461,0.99772c-0.04668,-0.47078 9.76422,0.85952 9.64461,0.83143c0.11961,0.02808 17.24711,1.85723 17.1275,1.82915c0.11961,0.02808 11.59337,2.85495 11.47376,2.82687c0.11961,0.02808 10.92822,3.02124 10.80862,2.99316c0.11961,0.02808 11.42708,3.85267 11.30748,3.82459c0.11961,0.02808 11.75966,4.18524 11.64005,4.15716c0.11961,0.02808 14.75281,4.01896 14.63321,3.99087c0.11961,0.02808 17.74597,4.85039 17.62636,4.82231c3.94419,1.52466 8.43393,2.18981 8.31432,2.16172c0.11961,0.02808 10.09679,2.18981 9.97719,2.16172c0.11961,0.02808 14.08767,3.02124 13.96806,2.99316c0.11961,0.02808 2.78019,0.85952 13.80177,1.33029c3.61162,-0.63706 12.4248,-2.29993 12.3052,-2.32801c0.11961,0.02808 16.0831,-4.29536 15.9635,-4.32345c0.11961,0.02808 14.08767,-3.13136 13.96806,-3.15944c0.11961,0.02808 13.75509,-4.12908 13.63549,-4.15716c0.11961,0.02808 15.91682,-0.30449 15.79721,-0.33257c0.11961,0.02808 1.16401,0.08314 2.28133,0.19437z" opacity="NaN" fill="#fff"/>
  <path class="product-shape2 shape" stroke="null" style="vector-effect: non-scaling-stroke;" id="svg_13" d="m290.99751,371.18538l0.12672,-3.31136l1.375,-5.62499l0.75,-3.12499l0.875,-4.74999l1.375,-5.12499l1.25,-2.99999l3.62499,-1.625l4.99999,-3.12499l4.87499,-2.12499l5.62499,-2.49999l6.24998,2.24999l6.74998,1.25l8.24998,0.875l8.24998,2.49999l8.24998,1.75l17.62495,2.74999l9.62497,1.75l12.62497,2.37499l12.49997,2.49999l12.24997,1.75l3.24999,6.24998l5.74998,8.99998l-1.625,0.75l-7.12498,-0.125l-7.99998,-0.125l-9.62497,0.125l-13.24996,-0.25l-14.24996,-0.5l-14.12496,-0.375l-10.49997,-0.5l-12.62497,-0.625l-6.87498,-0.5l-8.74998,0l-13.37496,-0.25l-6.99998,0l-5.99998,0.5l-1.875,0.375l-1.25172,0.81136z" opacity="NaN" fill="#fff"/>
  <path class="product-shape2 shape" stroke="null" style="vector-effect: non-scaling-stroke;" id="svg_14" d="m429.12214,358.42155l7.75171,1.93863l5.62498,1.52773l6.24998,-0.13887l0.625,3.25l0.875,2.87499l0.16669,1.2708l2.11088,3.35385l-7.77756,-0.375l-4.12498,-0.01387l-4.00667,0.01396l0.15942,-1.09701l-7.65445,-12.60521z" opacity="NaN" fill="#fff"/>  
   
    <!--partie3-->
    <path class="product-shape3 shape" stroke="null" style="vector-effect: non-scaling-stroke;" id="svg_15" d="m447.62209,346.56045l-0.24828,4.18862l0,3.49999l0.25,3.62499l0.625,2.74999l0.75,2.37499l0.5,2.74999l1.5,4.12499l1.375,2.49999l5.62499,0.125l4.62499,0.125l5.62499,0.375l5.24999,0.25l7.12498,0.25l4.49999,-0.125l2.62499,-0.875l2.49999,-0.5l6.12498,0.75l5.74998,0.5l4.74999,0.5l4.99999,0.375l5.12499,-0.125l6.37498,0l5.37499,0.125l3.99999,0l1.99999,0.875l1.625,1.375l1.375,1.625l1.875,-0.875l4.62499,0l5.74998,0l4.49999,0l5.12499,0.5l5.87498,0.25l2.37499,-3.74999l0.75,-1l-0.625,-4.74999l-0.5,-5.12499l-0.125,-7.37498l0.125,-2.87499l-10.24997,-1.5l-10.87497,-1l-11.37497,-1.375l-8.49998,-0.75l-10.99997,-0.75l-10.49997,-0.5l-9.12498,-0.5l-9.62497,0l-10.62497,-0.25l-10.74997,-0.5l-7.99998,0l-9.2517,0.68636z" opacity="NaN" fill="#fff"/>
  <!--parti4 -->
  <path class="product-shape4 shape" stroke="null" style="vector-effect: non-scaling-stroke;" id="svg_16" d="m404.24721,298.76926l-3.24827,2.68863l-2.24999,2.62499l-1.75,2.87499l-0.625,2.74999l-0.125,3.24999l1.625,1.625l1.99999,1.99999l2.12499,0.75l2.24999,-0.25l1.625,5.12499l1,4.99999l1.625,4.49999l1.625,5.87498l0.75,2.87499l1.625,3.99999l1.25,3.62499l-2.74999,0.375l-5.49999,-0.25l-5.37499,-0.75l-6.24998,-0.25l-9.62497,0.125l-7.74998,-0.75l-8.12498,-0.25l-9.37498,-0.875l-1,-4.12499l-0.625,-11.24997l-0.625,-10.74997l-1.125,-10.49997l-0.5,-10.74997l0,-4.49999l0.875,-6.24998l1.125,-6.62498l1.625,-5.49999l1.99999,-4.12499l2.24999,-3.24999l2.37499,-0.5l2.37499,0.5l1.5,0.625l2.74999,0.625l5.87498,-0.125l5.24999,0l3.37499,0.75l6.12498,0.375l4.12499,0.375l4.87499,0.625l0.875,0.625l4.49999,0.125l7.99998,0l5.99998,-0.875l6.37498,-0.5l5.37499,-1l5.24999,-0.125l5.62499,-0.375l8.24998,0.25l5.49999,-0.875l5.99998,-0.25l5.62499,-1.125l5.99998,-0.25l5.99998,-0.625l7.24998,-0.25l6.37498,-0.375l6.87498,-0.75l8.37498,0.125l5.49999,-0.875l6.24998,-0.125l6.99998,-0.25l4.74999,-1l5.12499,0.125l5.37499,-0.25l6.37498,-0.25l16.74996,-0.25l5.74998,-0.75l6.24998,-0.25l3.87499,0l5.12499,-1l5.62499,-0.125l7.99998,-0.125l9.37498,-0.5l24.24994,-0.875l8.99998,-0.75l9.37498,-0.375l9.99997,-0.25l10.87497,0.125l12.62497,-0.125l11.49997,-0.125l11.24997,-2.12499l11.12497,-1.5l5.37499,-1.25l9.99997,-0.375l14.62496,-1.25l8.12498,-1.125l9.74997,-0.5l8.24998,-0.75l5.37499,-1.25l7.62498,-1l6.24998,-0.75l9.12498,-0.25l9.49997,0.75l8.37498,1.625l4.74999,1.125l1.375,1.625l1.99999,1.75l0.375,1.375l-9.37498,0.25l-5.24999,0.5l-5.49999,1.125l-10.24997,1.25c0.12327,0.06137 -8.50171,0.18637 -8.50171,0.18637c0,0 -7.49998,0.625 -7.62325,0.56363c0.12327,0.06137 -7.37671,1.06136 -7.49998,1c0.12327,0.06137 -7.00171,1.31136 -7.12498,1.25c0.12327,0.06137 -4.50172,1.31136 -4.62499,1.25c0.12327,0.06137 -3.00172,0.93636 -3.12499,0.875c0.12327,0.06137 -8.25171,5.43635 -8.37498,5.37499c0.12327,0.06137 -7.87671,4.31136 -7.99998,4.24999c0.12327,0.06137 -5.62671,3.81136 -5.74998,3.74999c0.12327,0.06137 -6.62671,4.06136 -6.74998,3.99999c0.12327,0.06137 -6.87671,5.43635 -6.99998,5.37499c0.12327,0.06137 -4.37672,3.18636 -4.49999,3.12499c0.12327,0.06137 -7.12671,6.31135 -7.24998,6.24998c0.12327,0.06137 -3.25172,2.43636 -5.74998,4.49999c0.12327,0.06137 -7.87671,6.81135 -7.99998,6.74998c0.12327,0.06137 -10.6267,9.93634 -10.74997,9.87497c0.12327,0.06137 -10.3767,9.93634 -10.49997,9.87497c0.12327,0.06137 -11.0017,10.43634 -11.12497,10.37497c0.12327,0.06137 -9.1267,10.18634 -9.24998,10.12497c0.12327,0.06137 -5.62671,5.56135 -5.74998,5.49999c0.12327,0.06137 -6.25171,4.68635 -6.37498,4.62499c0.12327,0.06137 -2.87672,2.06136 -2.99999,1.99999c0.12327,0.06137 -2.62672,1.06136 -2.74999,1c0.12327,0.06137 -5.87671,1.43636 -5.99998,1.375c0.12327,0.06137 -4.30891,0.27005 -11.37497,0.375c0.12327,0.06137 -8.7517,0.06137 -8.87498,0c0.12327,0.06137 -12.00169,-0.18863 -12.12497,-0.25c0.12327,0.06137 -8.1267,-0.43863 -8.24998,-0.5c0.12327,0.06137 -3.00172,-0.18863 -3.12499,-0.25c0.12327,0.06137 -2.75172,-0.06363 -2.87499,-0.125c0.12327,0.06137 3.74826,-4.81362 3.62499,-4.87499c0.12327,0.06137 3.37327,-4.56362 3.24999,-4.62499c0.12327,0.06137 5.12326,-5.31362 4.99999,-5.37499c0.12327,0.06137 6.87326,-6.81362 6.74998,-6.87498c0.12327,0.06137 4.49826,-4.68862 4.37499,-4.74999c0.12327,0.06137 4.62326,-4.43862 4.49999,-4.49999c0.12327,0.06137 6.62326,-5.68862 6.49998,-5.74998c0.12327,0.06137 4.49826,-3.56362 4.37499,-3.62499c0.12327,0.06137 1.62327,1.31136 1.5,1.25c0.12327,0.06137 1.49827,1.06136 1.375,1c0.12327,0.06137 3.12327,0.43637 2.99999,0.375c0.12327,0.06137 4.24826,-0.06363 4.12499,-0.125c0.12327,0.06137 3.99826,-1.93863 3.87499,-1.99999c0.12327,0.06137 4.37326,-2.81363 4.24999,-2.87499c0.12327,0.06137 3.24827,-3.81362 3.12499,-3.87499c0.12327,0.06137 1.37327,-3.93862 1.25,-3.99999c0.12327,0.06137 0.99827,-4.81362 0.875,-4.87499c0.12327,0.06137 -0.87672,-3.93862 -1,-3.99999c0.12327,0.06137 -2.25172,-2.43863 -2.37499,-2.49999c0.12327,0.06137 -2.37672,-1.81363 -2.49999,-1.875c0.12327,0.06137 -3.50172,0.18637 -3.62499,0.125c0.12327,0.06137 -3.62672,0.43637 -3.74999,0.375c0.12327,0.06137 -2.87672,1.56136 -2.99999,1.5c0.12327,0.06137 -2.87672,2.31136 -2.99999,2.24999c0.12327,0.06137 -3.25172,2.93636 -3.37499,2.87499c0.12327,0.06137 -1.12672,2.18636 -1.25,2.12499c0.12327,0.06137 -0.75172,1.43636 -0.875,1.375c0.12327,0.06137 -0.25173,1.56136 -0.375,1.5c0.12327,0.06137 -0.25173,1.93636 -0.375,1.875c0.12327,0.06137 -2.37672,2.68636 -2.49999,2.62499c0.12327,0.06137 -2.87672,2.81136 -2.99999,2.74999c0.12327,0.06137 -3.12672,3.18636 -3.24999,3.12499c0.12327,0.06137 -3.62672,3.56136 -3.74999,3.49999c0.12327,0.06137 -4.62671,4.93635 -4.74999,4.87499c0.12327,0.06137 -4.12671,4.93635 -4.24999,4.87499c0.12327,0.06137 -2.25172,1.93636 -5.49999,4.62499c0.12327,0.06137 -4.25171,5.06135 -4.37499,4.99999c0.12327,0.06137 -3.25172,3.43636 -3.37499,3.37499c0.12327,0.06137 -2.00172,2.93636 -2.12499,2.87499c0.12327,0.06137 -2.25172,2.93636 -2.37499,2.87499c0.12327,0.06137 -5.37671,6.06135 -5.49999,5.99998c0.12327,0.06137 -4.37671,-0.43863 -4.49999,-0.5c0.12327,0.06137 -6.62671,-0.43863 -6.74998,-0.5c0.12327,0.06137 -2.25172,-0.18863 -2.37499,-0.25c0.12327,0.06137 0.12327,-1.31363 0,-1.375c-0.12672,0.31137 -7.7517,-0.93863 -7.87498,-1c0.12327,0.06137 -9.1267,-0.81363 -9.24998,-0.875c0.12327,0.06137 -2.12672,-0.18863 -4.49999,-0.5c0.12327,0.06137 -8.6267,-0.93863 -8.74998,-1c0.12328,0.06137 -6.12671,-0.68863 -6.24998,-0.75c0.12328,0.06137 -9.0017,-0.68863 -9.12498,-0.75c0.12328,0.06137 -8.3767,-0.31363 -8.49998,-0.375c0.12328,0.06137 -10.2517,-0.43863 -10.37497,-0.5c0.12328,0.06137 -6.62671,-0.43863 -6.74998,-0.5c0.12328,0.06137 -9.7517,0.18637 -9.87497,0.125c0.12328,0.06137 -11.37669,-0.31363 -11.49997,-0.375c0.12328,0.06137 -9.3767,-0.31363 -9.49997,-0.375c0.12328,0.06137 -8.3767,0.06137 -8.49998,0c0.12328,0.06137 -8.8767,0.68636 -8.99998,0.625c0.12328,0.06137 -4.00171,0.06137 -4.12499,0c0.12328,0.06137 -3.25171,0.56136 -6.24998,0.75c0.12328,0.06137 -6.25171,0.93636 -6.37498,0.875c0.12328,0.06137 -5.75171,0.43637 -5.87498,0.375c0.12328,0.06137 -1.87672,0.06137 -1.99999,0c0.12328,0.06137 -2.00172,-4.31362 -2.12499,-4.37499c0.12328,0.06137 -1.37672,-3.18863 -1.5,-3.24999c0.12328,0.06137 -1.62672,-5.43862 -1.75,-5.49999c0.12328,0.06137 -2.00172,-5.93862 -2.12499,-5.99998c0.12328,0.06137 -1.62672,-7.68861 -1.75,-7.74998c0.12328,0.06137 -1.12672,-5.81362 -1.25,-5.87498c0.12328,0.06137 2.12327,-1.68863 1.99999,-1.75c0.12328,0.06137 2.24827,-1.93863 2.12499,-1.99999c0.12328,0.06137 1.99827,-2.81363 1.875,-2.87499c0.12328,0.06137 1.62327,-2.93863 1.5,-2.99999c0.12328,0.06137 0.37328,-3.31362 0.25,-3.37499c0.12328,0.06137 -1.00172,-3.06362 -1.125,-3.12499c0.12328,0.06137 -2.00172,-1.81363 -2.12499,-1.875c0.12328,0.06137 -2.87672,-0.93863 -2.99999,-1c0.12328,0.06137 -3.00172,0.18637 -3.12499,0.125c0.12328,0.06137 -2.87672,0.68637 -2.99999,0.625c0.12328,0.06137 -1.75172,0.81136 -1.875,0.75c0.12328,0.06137 -0.87672,0.06137 -1.75172,0.68637z" opacity="NaN" fill="#fff"/>
    
<!--partie5-->
<path class="product-shape5 shape" stroke="null" style="vector-effect: non-scaling-stroke;" id="svg_17" d="m947.4582,381.61836l-4.96206,2.73114l-4.82308,0.66525l-5.32202,0.66525l-4.98939,1.49682l-7.31777,-0.66525l-6.48621,-1.66313l-5.98727,-2.32838l-5.65464,-1.82944l-6.98515,-0.49894l-8.64828,-0.66525l-8.81459,-0.83157l-9.31353,0l-10.97666,0.83157l-8.48197,0.66525l-6.81884,-0.16631l-5.48833,-1.49682l-6.15358,-0.66525l-4.82308,-0.16631l-5.82096,0l-5.15571,0.66525l-1.66313,-1.3305l-10.47772,0.33263l-8.98091,0.33263l-12.47348,-2.4947l-7.48409,-1.3305l-3.8252,-1.66313l-5.82096,0.33263l-8.64828,1.3305l-13.63767,-0.33263l-13.13873,0l-7.31777,-0.33263l-17.13025,-2.82732l-3.99151,-0.49894l-16.29868,0.16631l-20.45651,-0.83157l-18.29444,-0.33263l-14.46924,-0.33263l-15.46712,-1.82944l-15.13449,4.98939l-18.46075,-0.99788l8.31565,-11.97454l17.62918,0.99788l21.6207,0l7.98303,-0.33263l5.98727,-1.49682l2.32838,-0.99788l5.32202,-3.8252l3.8252,-2.82732l5.65464,-5.48833l9.47984,-9.97878l9.97878,-9.47984l10.97666,-10.31141l11.4756,-10.47772l9.81247,-8.31565l11.14298,-9.31353l11.30929,-8.14934l11.64191,-7.31777l12.47348,-6.98515l4.65677,-3.15995l8.64828,-2.32838l12.47348,-1.99576l16.96393,-0.99788l11.30929,-1.16419l5.15571,-1.16419l14.46924,-0.66525l4.65677,-0.33263l8.81459,-0.99788l7.15146,-0.33263l14.80186,-0.16631l8.48197,-1.3305l15.3008,-2.82732l8.48197,-0.99788l2.66101,1.66313l2.4947,2.99364l5.98727,5.48833l8.31565,5.82096l2.82732,3.49257l1.66313,2.82732l3.49257,10.97666l3.49257,14.80186l4.32414,13.63767l3.99151,12.63979l4.49045,5.98727l3.32626,4.65677l4.49045,3.99151l0.16631,2.32838l-1.16419,2.4947l0.99788,9.47984l1.16419,8.81459l0.83157,8.64828l0.16631,7.31777l-1.49682,2.99364l-4.35147,4.58664z" opacity="NaN" fill="#fff"/>
<path class="product-shape5 shape" id="svg_18" d="m581.07052,355.34089l-4.96206,6.22371l-2.99364,4.15783l-4.49045,6.81884l-1.16419,-7.98303l0,-6.81884l0,-3.99151l13.61034,1.593z" opacity="NaN" fill="#fff"/>
  <path class="product-shape5 shape" stroke="null" style="vector-effect: non-scaling-stroke;" id="svg_20" d="m423.23942,348.68837l4.35147,7.3879l1.49682,2.32838l7.81671,1.99576c0.97055,0.42881 5.461,1.593 5.461,1.42669c0,-0.16631 6.48621,0.16631 6.0146,-0.42881c0.13899,-0.73538 -0.85889,-3.89533 -0.99788,-3.99151c0.13899,0.09619 -0.02733,-6.55634 -0.16631,-6.65252c0.13899,0.09619 0.3053,-4.22795 0.16631,-4.32414c0.13899,0.09619 -3.85253,-0.07013 -3.99151,-0.16631c-5.18303,0.76144 -5.18303,1.26038 -5.48833,0.66525c-3.35359,0.59512 -6.84616,1.26038 -6.98515,1.16419c0.13899,0.09619 -2.85465,-0.23644 -7.67773,0.59512z" opacity="NaN" fill="#fff"/>
  <path class="product-shape5 shape" stroke="null" style="vector-effect: non-scaling-stroke;" id="svg_21" d="m418.41634,356.63008l-3.29893,-5.37689l-1.49682,-3.32626l-2.66101,0.45763l-6.3199,-0.29131l-4.07414,-0.58157l-6.73621,-0.25l-8.48197,0.125l-7.81671,-0.79025l-9.64616,-0.24894l-8.81353,-0.83157l-1.08157,-4.74045l-0.58263,-9.64616l-0.54025,-9.81247l-0.79025,-7.81671l-0.45657,-5.65464l-0.375,-7.6504l-0.08263,-6.48621l1.03919,-7.81671l1.12288,-6.0699l1.49682,-4.82308l1.99576,-3.86651l1.0805,-1.7055l-3.8252,0.33263l-9.64616,-2.16207l-9.47984,-2.99364l-8.64828,-1.66313l-11.4756,-1.82944l-10.47772,-2.82732l-8.81459,-1.49682l-2.99364,-0.83157l-7.81671,0l-3.49257,0.49894l-8.14934,-0.49894l-9.31353,-2.99364l-1.49682,0.83157l-1.99576,3.32626l-2.16207,4.65677l-0.99788,2.4947l-7.31777,5.82096l-9.14722,7.31777l-8.31565,5.98727l-4.65677,6.15358l-5.15571,6.98515l-2.32838,4.82308l-0.66525,3.49257l0.16631,3.15995l2.99364,2.32838l1.99576,1.66313l2.66101,4.65677l4.65677,5.65464l4.15783,4.98939l4.98939,7.48409l8.81459,-3.8252l6.3199,-3.15995l4.98939,-0.99788l5.48833,1.16419l7.31777,2.82732l7.31777,2.66101l2.99364,0l1.99576,1.82944l6.15358,0.16631l7.81671,0l5.65464,0l6.15358,1.49682l5.98727,2.16207l6.4449,1.12288l8.52328,1.03919l9.31353,2.66101l9.31353,1.82944l14.63555,2.28707l14.96818,2.70232l12.14085,2.32838l11.84954,2.2447l9.07858,1.30275z" opacity="NaN" fill="#fff"/>
  
  <!--partie6-->
  <path class="product-shape6 shape" stroke="null" style="vector-effect: non-scaling-stroke;" id="svg_22" d="m272.12455,381.31215l0.12533,-6.06231l0.375,-5.375l0.875,-3.75l2.625,-5l1.875,-4.875l2,-4.5l3,-5.875l1.875,-4.125l2.25,-4.375l2.375,-2.875l0.5,1l4.875,-0.25l7,0.25l6.375,-0.125l2,0.25l5.75,1.25l-10.125,4.25l-5.875,3.625l-3.25,1.5l-1.375,3.125l-1.125,4.5l-3,13.37499l-5.875,5l-6.25,4.625l-7.00033,4.43731z" opacity="NaN" fill="#fff"/>
  <path class="product-shape6 shape" stroke="null" style="vector-effect: non-scaling-stroke;" id="svg_23" d="m813.12432,377.43715c0,0 2.5,5.875 2.37533,5.81268c0.12466,0.06232 3.24966,7.81231 3.125,7.75c0.12466,0.06232 2.74966,8.81231 2.625,8.75c0.12466,0.06232 3.99966,4.81231 3.875,4.75c0.12466,0.06232 4.74966,4.06231 4.625,4c0.12466,0.06232 5.49966,4.68731 5.375,4.625c0.12466,0.06232 6.87466,5.56231 6.75,5.5c0.12466,0.06232 5.62466,5.06231 5.5,5c0.12466,0.06232 6.12466,5.31231 6,5.25c0.12466,0.06232 3.49966,3.31231 5.375,4.875c0.12466,0.06232 4.12466,4.68731 4,4.625c0.12466,0.06232 5.12466,5.43731 5,5.375c0.12466,0.06232 4.49966,4.31231 4.375,4.25c0.12466,0.06232 4.62466,4.81231 4.5,4.75c0.12466,0.06232 4.24966,4.68731 4.125,4.625c0.12466,0.06232 4.24966,4.06231 4.125,4c0.12466,0.06232 4.49966,5.31231 4.375,5.25c0.12466,0.06232 4.37466,4.81231 4.25,4.75c0.12466,0.06232 3.87466,4.56231 3.75,4.5c0.12466,0.06232 3.37466,4.18731 3.25,4.125c0.12466,0.06232 2.37466,2.18732 2.25,2.125c0.12466,0.06232 -0.25034,-7.43768 -0.375,-7.5c0.12466,0.06232 -0.00034,-6.56268 -0.125,-6.625c0.12466,0.06232 -0.25034,-5.56268 -0.375,-5.625c0.12466,0.06232 2.37466,-6.18768 2.25,-6.25c0.12466,0.06232 2.87466,-8.06268 2.75,-8.125c0.12466,0.06232 2.62466,-8.18768 2.5,-8.25c0.12466,0.06232 2.74966,-7.93768 2.625,-8c0.12466,0.06232 2.99966,-7.43768 2.875,-7.5c0.12466,0.06232 1.49966,-5.93768 1.375,-6c0.12466,0.06232 1.87466,-8.81268 1.75,-8.875c0.12466,0.06232 0.37466,-2.31268 0.875,-5.375c0.12466,0.06232 2.24966,-7.68768 2.125,-7.75c0.12466,0.06232 0.24966,-5.68768 0.125,-5.75c0.12466,0.06232 -6.37533,-2.68768 -6.5,-2.75c0.12466,0.06232 -4.62533,-2.06268 -4.75,-2.125c0.12466,0.06232 -3.87533,-2.06268 -4,-2.125c0.12466,0.06232 -8.87533,0.18732 -9,0.125c0.12466,0.06232 -9.00033,0.43732 -9.125,0.375c0.12466,0.06232 -9.00033,0.18732 -9.125,0.125c0.12466,0.06232 -8.25033,0.31232 -8.375,0.25c0.12466,0.06232 -8.50033,0.81232 -8.625,0.75c0.12466,0.06232 -7.37533,0.93732 -7.5,0.875c0.12466,0.06232 -3.87533,-0.06268 -4,-0.125c0.12466,0.06232 -6.00033,-1.18768 -6.125,-1.25c0.12466,0.06232 -4.37533,-1.31268 -4.5,-1.375c0.12466,0.06232 -5.50033,-0.18768 -5.625,-0.25c0.12466,0.06232 -6.25033,-0.81268 -6.375,-0.875c0.12466,0.06232 -5.50033,-1.68768 -5.625,-1.75c0.12466,0.06232 -4.25033,-1.43768 -4.375,-1.5c-2.75033,-0.56268 -4.37533,-1.43768 -4.37533,-1.43768z" opacity="NaN" fill="#fff"/>
  <path class="product-shape6 shape" stroke="null" style="vector-effect: non-scaling-stroke;" id="svg_24" d="m819.37431,502.3121l3.00033,2.81268c0.12466,0.06232 3.62466,3.81231 3.62466,3.81231c0,0 4,4.625 3.87533,4.56268c0.12466,0.06232 4.12466,3.43731 4,3.375c0.12466,0.06232 5.62466,6.43731 5.5,6.375c0.12466,0.06232 2.12466,1.56232 2,1.5c0.12466,0.06232 3.62466,4.56231 3.5,4.5c0.12466,0.06232 5.87466,5.93731 5.75,5.875c0.12466,0.06232 5.62466,6.43731 5.5,6.375c0.12466,0.06232 5.62466,4.68731 5.5,4.625c0.12466,0.06232 -0.12534,5.68731 -0.25,5.625c0.12466,0.06232 0.62466,6.31231 0.5,6.25c0.12466,0.06232 -3.87533,3.81231 -4,3.75c0.12466,0.06232 -2.50033,5.81231 -2.625,5.75c0.12466,0.06232 -1.12534,1.81232 -1.25,1.75c0.12466,0.06232 -2.12534,-0.18768 -2.25,-0.25c0.12466,0.06232 -2.00034,3.81231 -2.125,3.75c0.12466,0.06232 -2.50033,3.81231 -2.625,3.75c0.12466,0.06232 -4.37533,4.56231 -4.5,4.5c0.12466,0.06232 -3.25033,4.43731 -3.375,4.375c0.12466,0.06232 -7.75033,-0.06268 -7.875,-0.125c0.12466,0.06232 -3.50033,-1.06268 -3.625,-1.125c0.12466,0.06232 -2.12534,0.81232 -2.25,0.75c0.12466,0.06232 -4.37533,-2.56268 -4.5,-2.625c0.12466,0.06232 -0.75034,-3.93768 -0.875,-4c0.12466,0.06232 0.87466,-2.93768 0.75,-3c0.12466,0.06232 -0.50034,-6.43768 -0.625,-6.5c0.12466,0.06232 -1.12534,-5.18768 -1.25,-5.25c0.12466,0.06232 -0.62534,-2.31268 -0.75,-2.375c0.12466,0.06232 0.12466,-7.93768 0,-8c0.12466,0.06232 0.74966,-4.18768 0.625,-4.25c0.12466,0.06232 -1.50034,-1.93768 -1.625,-2c0.12466,0.06232 -1.37534,-11.81268 -1.5,-11.87499c0.12466,0.06232 -1.00034,-6.43768 -1.125,-6.5c0.12466,0.06232 0.37466,-8.43768 0.25,-8.5c0.12466,0.06232 3.24966,-13.56268 3.125,-13.62499c0.12466,0.06232 0.74966,-3.81268 1.49966,-4.06268z" opacity="NaN" fill="#fff"/>
<path class="product-shape6 shape" style="vector-effect: non-scaling-stroke;" id="svg_31" d="m276.39553,449.11133l-2.92369,2.87118l-1.83402,2.44536l0,4.07558l2.24158,5.9096l4.27936,7.13228l3.87181,5.50204l1.22267,2.03779l-1.42645,3.66803l-0.20378,7.53983l0,7.9474l0.40756,6.92849l0.81512,3.05669l-0.81512,2.24158l0.20378,2.64913l1.22267,2.64913l1.42646,0.20378l3.05669,-2.24157l3.26047,-0.40756l2.85291,-0.61134l-0.40756,-2.44535l3.26047,-0.61134l1.83402,-4.07559l-0.61135,-4.48314l-0.61133,-5.29826l1.42645,-1.83402l0.73344,-1.07968l-4.7686,-4.95149l-3.83139,-3.78959l-7.66277,-12.87744l-4.72903,-7.82232l-2.12198,-7.0859l0.52714,-4.64054l-0.34777,-1.30138l-0.17388,-0.65069l-0.08694,-0.32534l-0.04347,-0.16268l-0.04347,-0.16267z" opacity="NaN" fill="#fff"/>

    <!--partie 7-->
  <path class="product-shape7 shape" stroke="null" style="vector-effect: non-scaling-stroke;" id="svg_26" d="m477.35531,507.08329l0.1156,-0.40351l0.9281,0.90899l0.93875,-7.92455l-7.44787,-6.48753l-0.06286,2.37068l0,3.49329l-0.87625,4.24184l-0.96973,4.24448l-1.71973,4.49449l-0.93965,3.05601l-2.50465,6.54477l-2.50286,6.11276l-3.19251,8.35942l-2.94179,7.61037l-3.88072,9.98081l-3.81751,9.10749l-2.00268,5.48921l-3.00412,8.92095l-1.56554,8.29619l-2.00286,8.73321l-0.62589,10.3551l0.68857,3.67742l1.31429,7.92527l0.75107,4.24185l1.815,7.11133l2.9418,7.98465l1.565,3.86756l2.12768,4.67839l3.75573,5.73897l4.44357,5.80146l5.3202,5.55195l4.44376,3.93007l5.50786,3.36828l6.94734,3.05698l5.69572,1.62165l7.88627,0.74856l11.89199,-0.93582l4.75786,-1.37213l8.63627,-3.8678l6.57198,-4.05483l7.07251,-6.05098l4.94484,-6.11301l3.88072,-7.11133l2.56608,-5.86373l4.00572,-11.47793l2.12768,-8.35894l0.25035,-10.10557l-0.50071,-9.98081l-1.12661,-8.23417l-1.7525,-10.72938l-2.62875,-8.98273l-3.12948,-11.60269l-3.37982,-10.85414l-3.0043,-10.60461l-2.44054,-7.42311l-1.21982,-3.46432l0.46768,-1.83931l-1.31375,-6.73585l-1.7525,-9.48177l-0.6259,-4.11709l-0.25035,-8.85797l-6.5093,3.99233l-4.50645,3.24376l-0.12517,1.37236l2.75393,0l0.12517,5.11517l1.00144,6.61229l1.75251,8.85797l2.8791,10.10557l2.3784,10.9789l3.37983,10.35509l2.50358,8.10941l3.00429,10.85414l1.81554,7.48609l1.25179,6.36253l1.18875,7.3606l0.43839,8.60846l0.31268,7.98465l-1.00107,8.60845l-0.68857,5.17742l-1.00143,5.61445l-3.94323,10.2301l-2.87911,4.11708l-3.88054,4.67839l-4.13108,4.24208l-4.81768,3.18306l-5.19268,2.93307l-4.26003,1.619l-6.69716,1.80915l-6.19626,0.81082l-6.07108,-0.18702l-6.69716,-0.93559l-4.94447,-1.49712l-6.4468,-3.55578l-3.63018,-2.24568l-3.37984,-3.30627l-6.13333,-8.35893l-1.21282,-1.71634l-0.96282,-1.96634l-4.39433,-9.95076l-0.3478,-0.60898l-2.4728,-8.23396l-1.16115,-5.29479l-1.01698,-8.57351l0.20868,-9.90096l1.75278,-11.89402l1.00008,-5.72959l1.75007,-5.04209l5.05748,-16.63624l3.54143,-8.83738l2.76879,-6.9139l4.14379,-9.47639l4.03783,-12.57528l4.47725,-15.57431z" opacity="NaN" fill="#fff"/>
  <path class="product-shape7 shape" id="svg_27" d="m460.44698,646.00361" opacity="NaN" fill="#fff"/>
  <path class="product-shape7 shape" stroke="null" style="vector-effect: non-scaling-stroke;" id="svg_28" d="m470.31028,481.52943l-0.18624,-1.21791l1.0625,-1.3125l0.1875,-6.18749l0.3125,-4.81249l-0.0625,-4.62499l-0.125,-2.12499l0.81249,-1.25l3.6875,-2.25l0.5,-6.31248l-1.125,-5.18749l-3.68749,0.125l-0.25,-0.875l-0.5,-2.99999l-0.125,-1.4375l-1,-2.8125l-1.875,-2.87499l-2.68749,-4.68749l-3.43749,-5.99999l-0.9375,-1.68749l-2.6875,-4.3125l-2.93749,-3.74999l-3.31249,-5.18749l-2.625,-4.18749l-2.68749,-3.93749l-2.375,-3.31249l-2.24999,-3.125l-1.125,-1.49999l-2.5,-4.375l-2.37499,-3.87499l-3.12499,-5.12499l-1.6875,-2.93749l-3.93749,-5.49999l-2.5,-3.74999l-3.37499,-5.49999l-3.18749,-6.18749l-2.625,-4.49999l-1.875,-3.99999l-1.31249,-3.81249l-1.5,-3.8125l-2.0625,-7.56248l-1.31249,-3.81249l-0.75,-2.0625l-0.875,-4.68749l-1.6875,-5.24999l-1.06249,-7.06248l0.87499,-3.1875l1.8125,-2.06249l2.1875,-1c0.06123,0.0304 2.49873,0.0929 2.49873,0.0929c0,0 1.56249,-0.74999 1.50126,-0.7804c0.06123,0.03041 1.18623,0.9054 1.125,0.875c0.06123,0.0304 0.87373,1.7804 0.81249,1.75c0.06124,0.0304 -0.68876,1.7804 -0.74999,1.74999c0.06123,0.03041 -0.68877,1.0304 -0.75,1c0.06123,0.0304 -0.87627,1.9679 -0.9375,1.9375c0.06123,0.0304 0.37373,2.7179 0.3125,2.68749c0.06123,0.03041 1.56123,6.28039 1.5,6.24999c0.06123,0.0304 0.74873,3.6554 0.68749,3.62499c0.06124,0.03041 1.56124,6.46789 1.5,6.43749c0.06124,0.0304 0.68623,1.5304 2.375,6.74998c1.68877,5.21958 1.62373,5.0304 1.56249,4.99999c0.06124,0.03041 4.24873,8.53039 4.18749,8.49999c0.06124,0.0304 3.43623,5.65539 3.375,5.62498c0.06123,0.03041 0.99873,1.9054 2.37499,4c1.37626,2.0946 7.12372,11.59288 7.06249,11.56247c0.06123,0.03041 0.24873,1.21791 0.1875,1.1875c0.06123,0.03041 2.62373,4.7804 2.56249,4.74999c0.06124,0.03041 4.24873,7.0929 7.49999,12.12498c3.25126,5.03208 5.34436,8.23478 6.37498,9.56248c1.03062,1.3277 3.63968,5.97591 5.20217,8.58528c1.56249,2.60937 2.07844,2.3674 3.42282,4.97719c0.06123,0.03041 3.12373,5.4054 3.06249,5.37499c0.06124,0.03041 6.43622,11.90538 6.37499,11.87497c0.06123,0.03041 3.81123,5.0929 3.74999,5.06249c0.06124,0.03041 2.56123,4.3429 2.56123,4.3429c0,0 1.0625,3.3125 1.00126,3.28209c0.06124,0.03041 1.06124,4.4054 1,4.37499c0.68624,0.09291 1.18624,3.1554 1.125,3.12499c0.62373,-0.09459 -0.87626,4.8429 -0.9375,4.81249c0.06124,0.03041 0.18624,5.2804 0.18624,5.2804c0,0 -1.5,0.75 -2.68624,0.65709c0.06124,0.03041 0.87374,15.53038 0.8125,15.49997c0.06124,0.03041 -1.50126,1.71791 -6.24998,5.37499c0.06123,0.03041 -0.8533,0.4608 -1.37626,0.59291z" opacity="NaN" fill="#fff"/>
  <path class="product-shape7 shape" id="svg_29" d="m517.43518,462.77947l6.00125,2.84458l2.0625,1l0.75,8.68748l0.25,9.62498l-1.875,0.8125l-2.93749,-1.25l-4.68749,-3.31249l-0.25,-17.49996l0.68624,-0.90709z" opacity="NaN" stroke="null" fill="#fff"/>
  <path class="product-shape7 shape" stroke="null" style="vector-effect: non-scaling-stroke;" id="svg_30" d="m517.87268,450.02949l1.87626,0.46959l6.87498,-0.0625l2.375,-4.99999l3.49999,-6.68749l1.5,-3.12499l2.62499,-3.74999l3.4375,-5.87499l1.24999,-1.875l5.93749,-7.93748l7.49999,-9.87498l5.74998,-8.56248l4.5,-6.12499l10.37497,-13.56247l5.18749,-6.12499l1.4375,-2.3125l4.12499,-5.99998l4.62499,-6.68749l5.12499,-7.06249l0.5625,-0.87499l2.93749,-3.0625l2,-2.18749l5.87499,-5.99999l5.18749,-5.43749l4.56249,-4.68749l6.62499,-5.81249l4.24999,-3.56249l5.68748,-3.43749l6.12499,-2.4375l2.625,-2.37499l1.74999,-2.125l0.25,-3.06249l-0.25,-1l-4.81249,-0.0625l-2.31249,1.25l-1.9375,0.25l-4.24999,0.56249l-2.49999,1.4375l-2.4375,1.375l-1.875,2.18749l-2.31249,2.0625l-1.4375,1.375l-3.24999,3.12499l-3.31249,3.0625l-3.9375,3.93749l-1.37499,1.37499l-2.8125,3.4375l-2.31249,2.24999l-3.625,2.875l-0.87499,0.93749l-2.75,3.1875l-2.39062,2.60937l-2.57812,2.54687l-1.90625,2.71874l-1.93749,2.25l-3.62499,4.06249l-2.4375,2.68749l-2.81249,3.625l-4.56249,5.93748l-4.56249,6.87499l-0.5625,0.8125l-0.01562,0.53124l-3.14063,4.90624l0.28125,0.12501l-1.43749,1.68749c0.06124,0.03041 -6.87625,9.65539 -6.87625,9.65539c0,0 -5.81249,8.24999 -5.87373,8.21958c0.06124,0.03041 -8.31374,11.09288 -8.37498,11.06247c0.06124,0.03041 -2.87625,3.84291 -4.87499,6.49999c0.06124,0.03041 -3.00125,3.8429 -3.06249,3.81249c0.06124,0.03041 -2.87626,4.7804 -2.9375,4.74999c0.06124,0.03041 -3.87625,5.2804 -3.93749,5.24999c0.06124,0.03041 -4.12625,6.3429 -4.18749,6.31249c0.06124,0.03041 -2.25126,4.0929 -2.3125,4.06249c0.06124,0.03041 -2.06375,4.8429 -2.12499,4.81249c0.06124,0.03041 -0.81376,1.65541 -0.875,1.625c0.06124,0.03041 -0.43876,1.28041 -0.93876,4.1554z" opacity="NaN" fill="#fff"/>
   <path class="product-shape7 shape" stroke="null" style="vector-effect: non-scaling-stroke;" id="svg_32" d="m486.31968,433.88909l-1.87513,0.83322l-0.69444,1.25l1.11111,2.5l5.83333,0l7.63889,-0.27778l3.33333,1.25l6.66667,-0.27778l6.80556,0.41667l4.58333,0.41667l1.80556,0l1.52778,-2.91667l-5.13889,-0.55556l-8.61111,-0.55556l-7.22222,-0.55556l-4.44445,-0.55556l-5.55556,-0.69444l-5.76376,-0.27766z" opacity="NaN" fill="#fff"/>
 </g>
</svg>