<svg id="product-svg" data-name="Calque 1" xmlns="http://www.w3.org/2000/svg" xmlns:xlink="http://www.w3.org/1999/xlink" viewBox="0 0 1280 850">
<!--partie1-->

  <polygon class="product-shape1 shape" points="454.54 435.56 458.72 438.35 462.7 441.34 465.09 445.32 466.49 448.11 466.49 450.9 462.7 450.9 458.72 449.3 456.13 446.12 453.34 442.13 453.34 437.35 454.54 435.56"/>
  <polygon class="product-shape1 shape" points="439.51 349.42 443.68 346.13 448.74 344.59 457.31 344.59 466.49 344.59 474.9 344.59 476.88 354.04 479.3 366.79 483.04 382.62 484.57 391.19 484.57 397.57 485.89 405.04 486.99 414.94 488.09 421.31 485.67 425 485.01 427.69 483.69 435.56 481.5 446.15 480.62 456.92 479.74 473.41 479.74 486.28 480.64 499.2 482.45 516.64 484.85 530.17 488.09 545.5 494.66 564.14 499.89 573.76 505.6 581.88 510.41 586.99 512.81 589.69 511.49 606.43 512.81 617.6 505.91 619.72 493.41 622.38 485.17 624.78 478.52 626.37 473.46 626.37 469.74 625.31 465.22 622.12 463.62 593.93 462.56 574.78 461.76 554.57 461.23 541 461.23 532.76 459.92 525.58 459.92 511.75 460.56 503.5 459.92 495.4 457.83 489.25 456.8 479.56 456.46 469.19 454.98 460.75 454.52 457.22 457.83 459.16 461.47 460.3 466.49 459.73 469 457.9 471.62 453.92 472.64 450.9 473.33 445.82 472.19 441.04 470.36 437.5 467.17 433.29 462.16 429.07 456.46 424.05 453.34 421.66 451.56 418.7 450.76 403.65 449.39 392.82 447.57 383.7 445.06 372.88 443.01 362.62 440.84 355.1 439.51 349.42"/>
  <polygon class="product-shape1 shape" points="541.75 607.99 542.79 603.85 543.82 600.94 543.82 597.27 543.82 594.73 541.75 592.66 538.56 592.66 537.05 597.65 536.02 603.01 534.23 607.43 533.38 610.34 536.3 610.34 541.75 607.99"/>
  <polygon class="product-shape1 shape" points="536.11 578.46 532.35 579.31 526.05 580.53 520.59 581.57 516.08 581.57 512.41 578.46 507.52 572.25 502.57 563.61 499.13 554.9 494.66 542.74 491.22 528.96 489.8 516.8 487.98 500.38 486.76 485.48 486.76 472.42 486.76 461.27 487.98 449.92 490.41 440.6 494.66 451.74 497.51 458.43 500.75 463.09 506.02 464.51 513.92 465.12 518.78 464.71 522.43 460.86 528.11 460.26 533.38 459.24 538.6 458.23 541.69 458.64 546.14 464.31 546.14 466.54 543.82 469.98 543.82 476.69 544.93 483.97 547.56 485.48 549.79 487.21 548.78 489.03 545.74 490.25 547.76 496.53 549.79 502.41 549.79 504.84 548.37 511.08 547.76 522.27 548.17 535.04 547.76 539.9 544.72 543.14 545.13 558.95 544.72 571.72 542.29 573.95 536.11 578.46"/>
  <polygon class="product-shape1 shape" points="560.53 485.48 568.64 483.36 577.35 481.13 581 480.12 583.23 482.8 584.45 485.48 583.03 487.82 574.52 490.05 566.81 491.67 560.53 493.49 560.53 490.45 560.53 485.48"/>
  <polygon class="product-shape1 shape" points="594.38 469.58 601.88 475.66 609.43 482.49 606.79 486.8 601.27 494.3 597.45 500.3 596.81 495.52 596.81 488.02 596.2 482.95 594.38 479.1 590.53 477.89 592.15 475.05 593.57 472.82 594.38 469.58"/>
  <polygon class="product-shape1 shape" points="599.34 551.66 602.69 555.91 604.71 560.98 604.71 567.06 603.29 569.08 600.66 564.83 599.34 559.15 596.81 554.09 599.34 551.66"/>
  <polygon class="product-shape1 shape" points="586.27 575.37 586.27 582.46 586.27 586.51 584.45 589.96 584.45 593.61 590.53 593.61 602.69 588.54 614.85 584.49 624.37 581.57 640 576.58 650.11 572.94 659.54 570.39 668.21 567.53 675.17 565.37 676.31 564.11 676.31 560.91 674.71 559.2 672.77 556.24 672.2 554.41 670.04 558.18 668.78 561.03 669.92 562.63 668.89 564.68 665.93 566.51 662.73 566.62 660.91 565.02 660.33 561.03 662.05 557.49 664.9 552.58 669.24 548.36 671.86 547.22 673.92 545.39 676.31 543.45 678.48 541.4 676.88 539.57 673.12 537.06 666.99 532.83 660.76 527.22 654.32 520.16 647.25 513.09 640 507.07 633.75 501.6 627.31 496.89 620.66 491.28 615.25 486.8 611.1 491.28 606.32 498.34 601.96 503.74 598.22 508.94 594.89 514.13 590.53 518.5 595.31 525.56 599.34 530.55 604.71 536.78 608.16 541.98 613.38 548.42 617.12 553.2 621.28 559.43 623.36 564.21 624.19 569.08 623.36 574.6 621.28 578.13 617.96 580.42 614.63 580.62 609.23 580 600.76 578.34 594.48 577.3 586.27 575.37"/>
  <polygon class="product-shape1 shape" points="585.99 508.9 590.03 506.6 592.97 505.5 593.43 506.6 590.53 510 589.02 512.58 587.64 513.77 585.53 511.08 585.99 508.9"/>
  <polygon class="product-shape1 shape" points="586.42 452.8 594.17 451.74 607.2 448.92 616.35 446.46 625.86 444.35 630.44 444.35 624.98 454.21 618.82 465.47 613.71 476.69 608.16 472.69 599.34 465.12 593.43 460.52 589.48 458.43 585.53 457.37 586.42 452.8"/>
  <polygon class="product-shape1 shape" points="638.18 442.41 657.02 439.07 672.34 436.07 687.48 433.61 704.2 430.61 713.71 429.03 717.58 428.33 724.62 433.43 732.9 440.6 739.24 446.28 745.93 453.15 746.98 454.91 743.81 465.12 738.71 478.68 735.19 486.8 733.78 490.83 727.09 495.4 720.4 501.6 713.36 509.64 707.02 518.29 701.03 526.56 696.63 533.08 689.24 533.08 681.32 533.08 679.2 533.78 672.51 529.38 664.06 521.63 656.32 513.77 648.75 505.5 642.58 500.16 634.84 494.35 627.44 488.54 621.11 483.61 617.41 481.05 623.22 470.58 629.03 458.96 632.72 451.57 638.18 442.41"/>
  <polygon class="product-shape1 shape" points="724.45 426.39 736.07 425 745.75 422.69 753.85 420.93 761.42 419.88 757.72 426.39 754.03 433.43 751.56 439.77 749.45 445.93 749.1 449.1 743.99 444.35 736.6 437.83 729.2 431.32 724.45 426.39"/>
  <polygon class="product-shape1 shape" points="767.41 419.88 777.97 417.23 780.43 417.23 781.84 422.16 780.61 425 781.14 432.02 781.84 437.48 785.01 438.36 785.01 440.3 782.55 440.3 782.72 443.11 785.01 447.16 785.01 450.51 784.13 454.03 782.55 459.49 777.79 461.95 770.93 466.35 765.82 469.35 758.96 460.52 753.85 455.09 752.27 452.8 759.13 436.78 762.48 428.33 767.41 419.88"/>
  <polygon class="product-shape1 shape" points="761.42 471.64 754.91 476.69 749.1 481.05 741.88 486.07 743.81 477.8 748.04 468.11 751.65 459.31 757.02 465.65 761.42 471.64"/>
  <polygon class="product-shape1 shape" points="734.48 501.56 743.99 495.75 755.43 488.71 763.53 483.43 767.41 481.05 773.04 489.42 776.91 494.52 779.55 497.69 777.26 510.01 776.21 520.4 775.5 528.68 776.21 533.78 768.64 535.89 753.5 540.21 740.65 543.82 731.67 547.16 721.81 550.16 712.12 553.15 700.33 557.55 696.28 558.61 696.28 555.44 694.17 552.27 701.39 545.4 706.49 537.48 710.19 531.85 718.11 524.8 725.86 516 729.91 510.01 733.08 504.56 734.48 501.56"/>
  <polygon class="product-shape1 shape" points="806.22 489.69 809.97 489.69 812.6 491 812.19 493.57 810.8 495.44 808.93 497.18 806.64 498.08 805.25 496.41 805.25 492.11 806.22 489.69"/>
  <polygon class="product-shape1 shape" points="803.38 470.75 807.47 469.84 811.36 469.84 815.1 470.3 816 473.8 816 478.31 815.03 482.75 813.23 483.23 809.69 482.12 805.67 482.61 802.55 482.05 802.55 477.34 803.38 470.75"/>
  <polygon class="product-shape1 shape" points="806.62 318.99 813.85 318.99 817.64 318.99 819.63 330.56 821.98 342.67 823.25 351.53 824.69 367.26 824.69 374.67 824.69 380.82 825.78 387.33 826.86 392.57 828.31 407.76 824.33 398.72 820.72 384.25 817.46 374.49 815.11 363.37 812.76 350.09 810.77 341.95 808.79 333.63 806.62 323.69 806.62 318.99"/>

  
  <!--partie2-->
  <polygon class="product-shape2 shape" points="274.93 326 284.9 329.93 295.79 333.56 307.28 337.49 314.53 341.42 314.53 347.47 310.9 353.82 305.77 360.47 303.95 366.22 299.72 370.45 290.65 379.52 283.39 387.68 278.55 394.64 274.93 401.59 276.44 407.94 279.16 410.66 285.21 411.87 289.74 411.87 300.63 407.64 311.21 401.29 321.49 393.73 332.37 382.84 339.33 374.38 342.05 368.94 340.84 356.54 340.53 344.59 358.37 345.96 378.93 347.47 394.96 348.38 408.26 348.38 419.45 347.17 428.52 346.56 436.68 347.47 439.51 349.42 440.84 355.1 443.01 362.62 445.06 372.88 447.57 383.7 449.39 392.82 450.76 403.65 451.56 418.7 449.08 425 448.47 431.52 436.98 433.94 425.79 435.56 416.72 438.17 408.94 439.56 397.85 440.81 382.27 440.81 370.64 440.81 354.17 440.81 338.42 439.74 326.43 437.59 312.29 434.19 294.92 428.82 280.42 423.99 268.79 420.23 258.77 415.4 252.86 411.1 250.53 406.09 249.64 400.54 247.31 393.74 245.88 387.12 247.13 380.85 251.07 372.62 255.01 363.85 258.23 358.83 265.21 352.39 270.4 346.66 272.55 342.37 273.44 337.53 272.55 329.12 274.93 326"/>
  <polygon class="product-shape2 shape" points="306.59 377.17 314.56 377.99 319.97 379.18 318.04 383.41 312.73 388.8 307.14 393.66 302.28 397.05 298.52 399.34 293.85 401.26 288.63 402 284.87 401.36 283.04 399.71 286.89 393.93 291.65 389.58 297.42 384.68 301.5 380.92 306.59 377.17"/>
  <polygon class="product-shape2 shape" points="815.2 313.06 815.2 318.99 817.64 318.99 819.63 330.56 821.98 342.67 823.25 351.53 824.69 367.26 828.31 367.26 833.14 365.95 836.07 364.49 837.26 363.37 837.26 354.66 835.53 346.82 833.81 338.58 831.68 332.73 829.29 327.01 827.29 322.63 827.69 313.06 826.9 310.8 823.17 312.4 818.26 312.93 815.2 313.06"/>

<!--partie3-->
  <polygon class="product-shape3 shape" points="824.69 376.32 828.31 374.06 832.48 372.47 835.53 372.47 835.53 376.32 832.34 380.84 828.89 385.36 825.78 387.33 824.69 380.82 824.69 376.32"/>
  <polygon class="product-shape3 shape" points="826.86 392.57 832.86 388.64 837.26 388.64 838.06 396.52 838.06 410.67 833.84 431.36 830.11 447.17 828.31 451.29 826.18 445.77 823.25 440.93 821.54 437.29 820.63 431.44 821.64 425.59 822.44 419.23 822.34 414.19 821.94 410.65 826.68 409.34 828.31 407.76 826.86 392.57"/>
  <polygon class="product-shape3 shape" points="816 498.08 817.84 492.34 821.64 493.88 826.28 495.21 828.25 496 828.25 501.91 828.25 512.88 826.14 515.69 821.22 517.94 817.42 520.47 812.6 520.47 812.6 513.3 813.34 507.25 813.9 502.75 814.61 499.38 816 498.08"/>
  <polygon class="product-shape3 shape" points="422.12 436.62 425.79 435.56 436.98 433.94 448.47 431.52 451.56 434.07 452.09 437.31 452.09 443.77 450.05 447.32 449.08 451.52 450.8 455.07 454.52 457.22 454.98 460.75 456.46 469.19 456.8 479.56 457.83 489.25 459.92 495.4 460.56 503.5 459.92 511.75 459.92 525.58 461.23 532.76 461.23 541 461.76 554.57 462.56 574.78 463.62 593.93 465.22 622.12 466.49 641.19 468.47 656.83 468.47 667.01 473.56 678.28 466.49 685.56 456.47 696.46 445.2 711.01 437.92 719.01 430.29 727.01 424.11 733.55 422.12 737.55 411.38 732.83 402.29 729.92 389.56 721.19 377.2 713.19 362.65 703.37 347.02 695.37 335.02 686.65 318.29 671.01 308.84 658.28 297.93 639.38 289.93 626.37 276.48 589.92 273.57 581.57 271.39 566.65 268.11 545.93 262.29 519.02 258.66 501.6 255.39 486.8 255.39 469.58 253.57 449.2 253.57 429.93 258.66 429.93 275.02 440.6 309.57 453.2 340.84 460.52 367.02 463.38 391.74 464.47 423.38 460.52 422.12 436.62"/>
  
<!--partie4-->
  <polygon class="product-shape4 shape" points="509.05 394.94 518.28 393.16 528.94 391.88 532.25 402.85 534.29 413.56 534.29 421.72 535.31 432.94 527.15 434.49 518.28 435.56 512.81 434.49 510.58 421.21 509.05 405.4 509.05 394.94"/>
  <polygon class="product-shape4 shape" points="546.63 424.08 556.99 422.48 567.95 419.88 570.5 423.5 568.71 428.33 558.77 429.93 548.81 430.8 546.63 424.08"/>
  <polygon class="product-shape4 shape" points="567.7 388.03 576.48 388.03 579.87 394.05 580.49 400.83 579.11 408.35 577.36 408.35 574.1 402.46 571.96 398.19 568.45 393.68 567.07 390.79 567.7 388.03"/>
  <polygon class="product-shape4 shape" points="582.88 417.13 597.42 415.63 611.47 412.99 623.64 410.86 637.81 408.35 645.08 407.47 647.59 406.6 646.96 403.46 645.33 399.2 642.45 394.43 640.57 389.79 639.31 385.78 638.18 381.14 647.59 379.76 666.86 378.02 689.18 374.89 705.48 372.47 724.45 369.76 739.85 367.26 755.47 365.07 768.64 362.62 769.98 371.32 771.77 379.9 771.77 387.33 773.55 396.32 766.41 398.19 749.45 401.01 726.9 404.8 709.94 407.76 689.85 411.5 663.29 415.29 642.98 418.64 618.65 422.66 602.36 425.34 589.19 428.33 581.6 429.35 582.72 423.33 582.88 417.13"/>
  <polygon class="product-shape4 shape" points="783.95 389.08 788.89 387.33 793.22 385.99 797 385.37 797 388.31 796.31 391.17 791.06 392.17 786.96 393.1 784.33 393.1 783.33 390.16 783.95 389.08"/>
  <polygon class="product-shape4 shape" points="793.06 358.72 797 357.64 801.02 357.64 802.64 361.97 803.88 366.6 804.34 371.86 802.33 372.47 798.7 369.31 795.23 363.82 793.06 358.72"/>
  <polygon class="product-shape4 shape" points="500.67 349.95 496.54 342.52 490.55 333.85 484.98 326 479.82 317.96 473.42 310.53 467.02 304.33 457.11 295.25 446.79 287.82 438.53 282.45 429.25 277.71 419.75 274.61 407.78 271.93 427.18 271.93 445.14 271.1 457.52 269.04 471.35 267.59 484.57 266.56 498.19 265.53 513.88 264.7 535.31 264.7 552.06 263.46 561.56 262.64 579.52 261.6 607.18 261.6 620.59 262.64 632.77 261.6 650.53 260.57 664.77 259.54 681.28 259.54 695.11 259.54 710.8 263.46 729.38 269.24 745.07 276.67 759.93 288.03 770.45 295.87 783.33 307.43 793.06 316.1 795.02 321.26 795.02 324.77 787.38 325.39 769.63 327.86 754.77 330.14 735.98 332.41 720.09 334.47 702.96 336.12 680.87 338.39 649.29 341.08 625.14 343.14 601.4 345.41 572.5 347.06 548.76 348.71 526.47 349.95 509.05 349.95 500.67 349.95"/>
  
<!--elastic1-->

  <polygon class="elastic1 shape" points="489.65 432.45 485.01 427.69 483.69 435.56 481.5 446.15 480.62 456.92 479.74 473.41 479.74 486.28 480.64 499.2 482.45 516.64 484.85 530.17 488.09 545.5 494.66 564.14 499.89 573.76 505.6 581.88 510.41 586.99 516.01 589.69 519.67 591 522.4 591 521.78 585.41 519.17 582.68 516.08 581.57 512.41 578.46 507.52 572.25 502.57 563.61 499.13 554.9 494.66 542.74 491.22 528.96 489.8 516.8 487.98 500.38 486.76 485.48 486.76 472.42 486.76 461.27 487.98 449.92 490.41 440.6 489.65 432.45"/>
  <polygon class="elastic1 shape" points="588.91 515.91 587.64 513.77 589.02 512.58 590.53 510 593.43 506.6 596.09 502.77 597.45 500.3 601.27 494.3 606.79 486.8 609.43 482.49 601.88 475.66 594.38 469.58 591.62 466.2 590.53 462.41 589.48 458.43 593.43 460.52 599.34 465.12 608.16 472.69 613.71 476.69 618.82 465.47 624.98 454.21 630.44 444.35 633.61 443.04 638.18 442.41 632.72 451.57 629.03 458.96 623.22 470.58 617.41 481.05 627.44 488.54 634.84 494.35 642.58 500.16 648.75 505.5 656.32 513.77 664.06 521.63 672.51 529.38 679.2 533.78 681.32 533.08 684 535.95 684 539.21 684 540.66 679.28 540.66 676.88 539.57 673.12 537.06 666.99 532.83 660.76 527.22 654.32 520.16 647.25 513.09 640 507.07 633.75 501.6 627.31 496.89 620.66 491.28 615.25 486.8 611.1 491.28 606.32 498.34 601.96 503.74 598.22 508.94 594.89 514.13 590.53 518.5 588.91 515.91"/>
  <polygon class="elastic1 shape" points="672.2 554.41 670.04 558.18 668.78 561.03 669.92 562.63 668.89 564.68 665.93 566.51 662.73 566.62 660.91 565.02 660.33 561.03 662.05 557.49 664.9 552.58 669.24 548.36 671.86 547.22 673.92 545.39 676.31 543.45 678.48 541.4 684 541.4 686.26 542.66 689.01 544 692.35 539.15 695.36 534.23 696.63 533.08 701.03 526.56 707.02 518.29 713.36 509.64 720.4 501.6 727.09 495.4 733.78 490.83 735.19 486.8 738.71 478.68 743.81 465.12 746.98 454.91 745.93 453.15 739.24 446.28 732.9 440.6 724.62 433.43 717.58 428.33 724.45 426.39 729.2 431.32 736.6 437.83 743.99 444.35 749.1 449.1 749.45 445.93 751.56 439.77 754.03 433.43 757.72 426.39 761.42 419.88 767.41 419.88 762.48 428.33 759.13 436.78 752.27 452.8 753.85 455.09 758.96 460.52 765.82 469.35 761.42 471.64 757.02 465.65 751.65 459.31 748.04 468.11 743.81 477.8 741.88 486.07 749.1 481.05 754.91 476.69 759.33 473.26 760.61 472.27 767.41 468.42 770.93 466.35 777.79 461.95 782.55 459.49 783.33 462.71 782.64 469.84 779.55 473.23 773.27 477.91 776.93 484.08 780.35 489.23 780.58 494.6 779.55 497.69 776.91 494.52 773.04 489.42 767.41 481.05 763.53 483.43 755.43 488.71 743.99 495.75 734.48 501.56 733.08 504.56 729.91 510.01 725.86 516 718.11 524.8 710.19 531.85 706.49 537.48 701.39 545.4 694.17 552.27 696.28 555.44 696.28 558.61 696.01 562.37 694.64 565.23 692.12 567.51 688.35 568.43 684 567.51 680.69 565.57 678.48 563.4 676.31 560.91 674.71 559.2 672.77 556.24 672.2 554.41"/>
  <polygon class="elastic1 shape" points="817.15 469.84 820.43 472.43 822.49 475.88 823.32 479.21 822.88 482.88 820.43 485.6 818.37 486.27 816 485.66 815.03 482.75 816 478.31 816 473.8 815.1 470.3 817.15 469.84"/>
  <polygon class="elastic1 shape" points="817.84 492.34 816 498.08 813.98 497.01 811.41 494.62 812.19 493.57 812.6 491 815.56 491.53 817.84 492.34"/>
  <polygon class="elastic1 shape" points="817.46 412.55 821.94 410.65 822.34 414.19 822.44 419.23 821.64 425.59 820.63 431.44 821.54 437.29 823.25 440.93 826.18 445.77 826.18 451.29 826.18 459.11 826.18 467.45 821.82 466.09 823.32 462.56 823.32 459.43 822.66 455.19 821.82 452.14 821.06 447.97 820.26 443.29 819.62 439.64 819.18 433.55 818.17 431.54 816 430.58 817.53 428.1 817.46 424.73 817.85 419.96 817.93 414.79 817.46 412.55"/>
  <polygon class="elastic1 shape" points="811.07 413.11 814.56 413.11 817.46 412.55 817.93 414.79 817.85 419.96 817.46 424.73 815.5 422.35 813.81 418.44 812.35 415.23 811.07 413.11"/>
  <polygon class="elastic1 shape" points="829.34 468.01 826.18 467.45 826.18 459.11 826.18 451.29 826.18 445.77 828.31 451.29 829.34 468.01"/>
  <polygon class="elastic1 shape" points="536.11 578.46 542.29 573.95 544.72 571.72 544.72 576.52 544.72 579.77 542 583.12 539.69 584.8 537.7 582.18 536.11 578.46"/>
</svg>