<svg id="product-svg" data-name="Calque 1" xmlns="http://www.w3.org/2000/svg" xmlns:xlink="http://www.w3.org/1999/xlink" viewBox="-177 115 1280 850">

  <polygon class="product-shape1 shape" points="250.85 483.48 259.51 484.89 267.11 486.84 276.49 490.2 281.97 492.15 288.16 494.09 297 496.74 305.14 498.87 311.5 499.75 315.39 500.46 320.17 503.11 330.25 507.18 340.68 510.89 350.76 514.43 362.08 515.84 373.05 516.73 384.54 516.73 392.85 516.73 400.1 516.73 404.52 516.73 412.66 518.32 422.39 521.86 429.64 523.8 437.95 525.75 444.84 526.98 450.33 526.98 457.93 527.87 462.18 527.87 463.2 536.18 463.94 548.03 463.94 561.82 463.94 581.1 463.94 596.66 463.94 613.82 463.94 627.26 456.01 627.71 447.7 627.71 439.71 626.54 432.14 624.73 420.74 621.21 410.72 618.01 400.48 614.82 390.89 612.05 374.05 606.61 357.96 601.07 350.71 598.3 335.58 592.76 323.21 588.6 309.79 583.7 300.19 580.07 287.19 574.1 280.83 572.9 272.93 569.8 267.14 567.11 262.35 565 261.44 555.6 260.39 547.98 258.98 538.67 257.4 527.94 256.52 519.16 254.94 509.31 253.88 502.46 252.83 497.01 251.6 491.04 250.85 483.48"/>
  <polygon class="product-shape1 shape" points="266.2 597.67 267.71 609.23 268.97 623.05 268.97 633.36 268.97 646.93 270.47 657.99 271.98 670.8 273.24 682.11 274.5 695.18 274.5 705.23 276 723.08 277.76 736.15 277.76 745.19 279.27 757.26 281.03 768.32 284.05 783.39 285.3 791.19 288.32 801.74 292.09 808.53 297.37 815.06 303.9 820.34 309.93 823.1 321.24 828.63 330.04 832.15 341.1 838.68 349.39 842.2 357.68 845.72 365.22 850.75 372.76 856.03 386.08 863.57 395.88 869.09 403.67 872.86 412.22 875.88 420.26 877.64 429.56 877.64 438.61 877.64 443.89 877.64 446.65 871.86 450.42 865.83 453.94 863.31 458.21 856.53 459.47 844.72 459.47 832.02 460.58 822.91 460.58 812.99 460.58 800.47 460.58 782.75 461.72 769.74 463.2 760.96 461.88 751.53 463.2 738.53 463.2 726.33 464.32 716.58 465.29 706.17 465.29 691.86 465.29 677.56 465.29 662.43 459.28 663.25 454.73 663.73 445.62 663.9 438.79 662.92 430.5 660.81 421.72 657.72 412.13 654.63 399.28 649.91 397.33 649.1 387.9 645.52 378.96 642.6 372.29 640 363.84 637.72 357.39 634.79 353.43 634.14 352.78 641.79 351.81 648.29 350.34 655.77 349.69 658.69 347.09 658.69 339.94 655.44 329.37 650.73 320.26 646.99 310.99 642.92 300.43 638.05 291.32 634.31 283.84 630.08 278.96 626.83 277.5 623.25 276.53 614.79 276.69 604.39 270.02 601.63 266.2 597.67"/>
  <polygon class="product-shape2 shape" points="463.94 627.26 464.51 638.22 465.29 653.03 465.29 662.43 459.28 663.25 454.73 663.73 445.62 663.9 438.79 662.92 430.5 660.81 421.72 657.72 412.13 654.63 399.28 649.91 397.33 649.1 387.9 645.52 378.96 642.6 372.29 640 363.84 637.72 357.39 634.79 353.43 634.14 344.45 630.74 337.82 628.48 329.22 625.38 320.75 622.42 313.98 619.74 304.95 616.35 297.48 613.53 291.13 610.57 283.65 607.46 279.28 605.77 276.69 604.39 270.02 601.63 266.2 597.67 264.32 593.21 263.34 579.81 263.34 571.21 262.35 565 267.14 567.11 272.93 569.8 280.83 572.9 287.19 574.1 300.19 580.07 309.79 583.7 323.21 588.6 335.58 592.76 350.71 598.3 357.96 601.07 374.05 606.61 390.89 612.05 400.48 614.82 410.72 618.01 420.74 621.21 432.14 624.73 439.71 626.54 447.7 627.71 456.01 627.71 463.94 627.26"/>
  <polygon class="product-shape3 shape" points="462.18 527.87 473.99 524.36 485.31 519.39 491.47 516.81 500.01 511.84 509.15 507.27 518.89 502.51 526.44 500.32 533.59 496.55 541.34 493.17 546.7 490.19 552.06 489.19 561.4 484.63 569.94 479.86 578.09 476.28 586.04 471.71 592.99 467.94 599.74 463.37 607.69 455.62 607.69 460.79 604.71 466.94 604.51 475.49 604.11 497.94 602.72 517.4 599.74 554.16 597.56 571.24 596.17 580.98 594.58 587.93 592.19 597.67 592.99 608 592.79 625.28 592.79 652.89 592.59 668.98 591.8 680.31 590.8 694.41 590.41 706.13 589.02 716.66 587.43 725.4 587.03 743.68 586.43 751.83 585.24 756.4 581.47 761.16 575.11 767.12 565.37 776.26 556.63 783.22 547.3 791.56 540.14 799.31 527.03 811.82 515.51 822.15 505.38 832.09 492.07 843.41 484.72 851.16 473.39 862.68 462.18 874.2 457.7 877.64 453.73 879.77 447.77 882.35 442.8 883.94 432.47 883.94 427.3 881.55 420.26 877.64 429.56 877.64 438.61 877.64 443.89 877.64 446.65 871.86 450.42 865.83 453.94 863.31 458.21 856.53 459.47 844.72 459.47 832.02 460.58 822.91 460.58 812.99 460.58 800.47 460.58 782.75 461.72 769.74 463.2 760.96 461.88 751.53 463.2 738.53 463.2 726.33 464.32 716.58 465.29 706.17 465.29 691.86 465.29 677.56 465.29 662.43 465.29 653.03 464.51 638.22 463.94 627.26 463.94 613.82 463.94 596.66 463.94 581.1 463.94 561.82 463.94 548.03 463.2 536.18 462.18 527.87"/>
  <polygon class="elastic1 shape" points="313.82 377.18 320.65 370.99 326.63 365.01 331.54 360.74 337.73 356.05 341.58 350.07 346.06 344.73 350.75 339.82 358.23 334.06 365.48 329.58 372.96 326.16 381.71 323.6 385.42 322.89 389.43 322.45 395.04 321.89 400.93 321.89 406.35 321.89 416.45 322.64 422.71 324.04 429.07 326.19 433.75 328.25 438.98 332.74 446.55 339.47 450.85 345.26 454.78 352.46 457.31 358.26 459.92 364.52 457.4 366.58 453.85 367.8 448.14 368.64 446.27 367.33 444.5 363.21 440.66 356.86 436.36 353.12 431.6 347.79 425.89 343.58 418.04 338.91 412.9 336.76 407.2 335.35 400.65 334.33 396.35 334.61 389.53 336.85 383.08 339.09 377.47 341.62 371.2 345.36 364.1 349.54 358.67 353.02 354.75 355.45 350.26 358.63 346.52 361.81 344.74 364.15 343.72 366.21 342.59 368.64 340.16 370.69 336.42 373.22 332.03 374.9 329.04 374.9 324.27 375.74 320.34 376.58 315.02 378.17 313.82 377.18"/>
</svg>