<svg id="product-svg" data-name="Calque 1" xmlns="http://www.w3.org/2000/svg" xmlns:xlink="http://www.w3.org/1999/xlink" viewBox="0 0 1280 850">
  <!--Partie1-->

  <polygon class="product-shape1 shape" points="274.03 425 278.9 425 284.11 425.92 289.2 425.92 290.31 427.47 289.09 429.36 287.76 432.57 286.54 437.99 285.66 440.98 284.77 444.97 286.54 446.41 289.31 447.07 288.76 448.51 285.44 448.51 283.89 449.95 283.66 454.93 283 461.24 283.11 466.78 283.33 471.54 285.55 474.75 290.31 476.3 295.07 478.52 299.05 480.18 299.05 491.69 299.05 500.44 299.05 508.74 299.05 515.27 299.83 520.03 300.6 528.45 300.6 535.76 300.6 542.4 301.16 545.83 297.39 547.38 294.4 549.26 291.19 550.81 288.54 553.03 287.59 555.02 287.59 559.45 287.59 562.22 285.66 560.22 283.66 556.46 282 551.59 281.45 546.05 281.56 538.97 280.34 531.99 279.79 522.25 278.9 514.94 278.02 507.19 277.24 499.88 276.8 492.35 276.02 484.72 275.8 477.52 274.92 462.46 274.7 452.39 274.03 440.32 274.03 429.47 274.03 425"/>
  <polygon class="product-shape1 shape" points="298.41 450 302.28 450.69 307.06 451.73 311.7 452.84 317.04 453.74 320.5 454.36 324.17 455.26 324.17 459.07 323.48 461.91 317.94 461.43 313.23 460.32 308.52 459.69 304.22 458.72 299.93 458.03 297.02 457.41 296.4 455.05 297.02 452.28 298.41 450"/>
  <polygon class="product-shape1 shape" points="334.79 454.99 337.98 454.99 338.67 453.33 339.64 446.14 339.64 440.74 339.99 436.91 338.86 435.33 337.85 434.45 337.91 432.38 339.67 430.87 345.65 430.55 352.63 430.55 359.43 431.31 369.05 431.75 377.61 432.57 389.25 433.19 394.43 433.81 399.48 443.92 405.9 454.99 411.82 466.49 416.01 474.76 416.01 476.82 413.84 480.61 405.13 494.52 393.75 513.16 388.3 523.46 382.48 533.4 378 540.67 374.84 544.84 371.3 548.77 368.92 550.72 362.56 549.5 355.56 548 350.47 547.22 344.1 545.91 340.8 544.45 338.96 541.97 335.56 535.47 332.84 531.34 332.59 526.58 334.2 518.27 334.77 505.52 334.96 494.4 335.73 482.42 335.54 477.05 334.48 474.75 335.44 469.95 336.59 463.72 337.93 458.83 337.93 457.11 334.87 455.95 334.79 454.99"/>
  <polygon class="product-shape1 shape" points="402.26 433.62 411.88 434.24 421.04 435.09 431.36 436.34 439.89 437.27 442.38 438.04 439.12 442.23 434.69 447.74 430.89 453.4 426.78 459.07 424.3 462.87 422.32 466.13 420.34 468.61 416.38 462.56 412.66 455.89 409.01 448.13 405.21 440.6 402.96 435.71 402.26 433.62"/>
  <polygon class="product-shape1 shape" points="420.6 485.44 425.07 493.58 428.62 498.84 432.29 506.06 436.89 514.73 441.88 523.67 447.27 533.65 452.79 543.24 458.18 551.52 463.17 557.96 471.31 566.1 479.98 574.12 484.58 578.19 486.42 582.79 487.3 584.54 483.76 585.51 481.73 585.07 478.99 584.98 477.93 586.4 477.66 589.31 478.81 591.88 482.79 594.71 480.76 595.24 474.65 594.8 466.17 593.82 454.32 592.76 443.09 591.35 433.71 589.58 423.37 588.34 416.91 587.63 409.66 586.75 400.11 585.87 390.39 584.54 381.37 583.57 373.06 582.42 371.55 580.3 369.78 576.4 367.57 572.51 366.78 569.15 368.9 565.88 370.14 562.08 370.67 558.45 375.18 555.71 380.04 550.72 383.58 546.87 388.09 539.71 391.54 533.34 394.81 527.68 399.58 518.93 405.33 508.58 408.42 502.92 412.4 496.56 415.41 492.49 419.3 487.36 420.6 485.44"/>
  <polygon class="product-shape1 shape" points="422.95 475.39 428.43 468.61 433.63 461.57 438.38 454.82 442.38 449.28 447.71 441.99 450.33 438.79 457.52 438.79 465.01 438.79 476.97 439.66 487.3 440.54 505.64 442.97 522.94 444.72 538.2 446.17 546.76 447.24 547.63 448.21 549.19 453.66 552.2 466.39 554.83 476.5 557.64 488.17 559.49 495.65 561.53 503.91 563.28 511.2 565.32 516.55 565.81 517.91 561.53 523.84 555.99 532.39 551.13 539.78 547.63 544.64 543.36 550.67 537.82 558.15 534.12 562.62 531.59 565.15 529.46 567.58 528.09 568.75 524.3 568.75 521.1 568.75 520.9 565.93 519.05 563.89 517.01 561.94 514.87 560.78 511.86 560.68 509.92 561.94 507.78 564.28 506.32 566.22 505.93 568.75 502.92 568.75 501.56 569.53 498.54 569.53 494.38 568.94 490.28 568.65 486.88 568.46 485.81 569.53 482.6 567.1 476.97 562.23 470.55 556.11 466.18 550.96 461.51 544.64 456.94 537.45 451.89 528.89 447.61 520.73 441.49 509.16 437.4 502.16 432.93 494 428.46 485.93 422.95 475.39"/>
  <polygon class="product-shape1 shape" points="555.47 448.04 566.31 449.25 581.48 451.41 597.27 452.99 610.6 455.02 602.98 464.28 598.42 470.57 593.85 477.04 586.17 487.5 583.03 491.95 578.5 498.99 575.13 503.62 571.26 510.03 569.74 506.73 567.2 499.05 563.52 486.05 560.35 472.02 558.32 462.76 556.73 455.91 555.47 449.82 555.47 448.04"/>
  <polygon class="product-shape1 shape" points="569.38 525.02 574.15 534.36 579.56 544.33 585.5 554.61 590.91 562.68 592.08 564.01 590.41 564.01 584.35 564.34 573.88 564.83 562.97 565.36 558.41 566.01 551.82 566.7 545.1 567.19 539.24 567.39 543.35 561.98 547.91 556.77 551.49 551.6 556.87 543.34 562.61 535.76 565.38 530.96 569.38 525.02"/>
  <polygon class="product-shape1 shape" points="597.52 571.04 599.43 572.95 595.2 572.95 589.25 573.7 579.14 574.38 572.65 575.14 564.86 576.02 559.12 576.71 550.37 577.32 542.24 577.8 533.9 577.8 527.41 577.25 523.52 576.84 525.98 575.96 533.15 575 541.08 574.11 549.76 573.29 558.84 572.2 569.09 571.04 577.36 571.04 586.04 570.63 593.15 570.63 597.52 571.04"/>
  <polygon class="product-shape1 shape" points="522.33 584.06 523.96 589.44 525.37 596.3 526.26 602.18 533.17 602.18 543 603.68 553.34 605.14 562.67 606.12 571.9 607.52 580.73 608.73 593.38 610.33 603.75 611.54 615.06 613.14 625.5 614.62 637.07 616.22 643.96 616.82 651.72 618.23 657.48 619.23 660.56 619.23 660.56 616.09 660.56 611.27 658.41 608.26 656.07 604.71 653.8 604.11 646.71 602.22 640 599.63 629.84 595.35 623.09 591.47 615.59 586.78 610.31 582.43 607.83 580.69 605.82 579.96 596.92 580.36 587.96 580.63 583.74 581.09 576.45 581.9 568.62 582.37 560.59 583.03 551.83 583.24 542.66 583.7 533.43 584.31 526.8 584 522.33 584.06"/>
  <polygon class="product-shape1 shape" points="609.67 572.24 611.28 573.89 615.37 573.89 617.67 573.89 615.79 573.06 613.39 572.01 611.51 571.73 609.67 572.24"/>
  <polygon class="product-shape1 shape" points="656.41 548.35 658.15 549.4 657.28 552.7 654.73 559.1 652.49 565.37 649.63 570.66 645.84 571.73 647.25 567.39 650.77 560.04 652.88 555.11 655 550.78 656.41 548.35"/>
  <polygon class="product-shape1 shape" points="649.51 544.97 646.36 552.88 642.82 561.82 640 568.26 637.03 574.21 633.55 573.08 630.27 571.22 626.02 568.64 620.17 567.03 617.08 566.2 613.09 565.04 609.23 564.78 605.11 564.72 601.83 564.27 598.1 559.89 592.5 551.66 587.74 543.68 581.76 533.9 577.32 524.57 573.91 518.07 576.23 514.02 580.15 508.16 584.98 500.96 590.83 492.08 594.88 486.29 598.87 481.01 604.66 472.13 609.43 466.28 613.93 460.17 618.3 455.47 626.73 456.76 635.48 457.53 644.68 458.24 653.05 459.2 663.15 460.68 671.7 461.39 678.65 462.36 686.12 463.38 690.49 464.16 687.98 467.5 685.73 472.13 684.12 476.83 682 482.3 679.88 487.32 678.52 490.92 677.5 494.07 673.96 494.07 671.38 494.4 668.49 495.55 667.14 496.45 665.27 498.51 663.53 500.38 662.95 502.63 661.54 504.11 659.16 505.85 656.46 509 653.75 511.45 650.99 515.24 648.09 519.23 645.65 521.93 643.91 523.93 642.75 525.47 641.99 527.28 642.05 530.68 642.54 534.2 644.06 537.96 645.84 540.45 648.85 543.36 649.51 544.97"/>
  <polygon class="product-shape1 shape" points="698.09 465.73 701.7 465.73 702.15 468.08 700.53 471.42 699.08 476.21 698.09 480 697.46 483.71 697.1 486.32 699.63 487.77 701.7 488.67 701.43 490.48 698.81 490.48 696.55 490.12 695.74 491.92 695.74 498.15 695.11 502.49 695.11 504.84 692.13 502.94 689.33 500.14 686.08 497.7 682.47 495.72 685.36 491.29 687.7 486.05 690.49 479.28 692.76 473.95 694.21 470.16 696.37 466.18 698.09 465.73"/>
  <polygon class="product-shape1 shape" points="719.31 466.91 722.2 467.99 721.12 471.6 718.5 475.4 715.34 479.46 712.9 482.26 710.82 483.8 708.02 484.43 705.5 483.43 705.5 479.01 707.12 478.2 708.66 481.18 709.65 482.26 710.28 476.75 711.46 472.87 713.85 470.34 715.97 468.44 719.31 466.91"/>
  <polygon class="product-shape1 shape" points="707.66 492.01 712.99 492.01 719.67 493.91 726.45 494.45 732.86 495.63 738.37 496.35 743.79 497.16 749.21 498.34 752.01 499.78 752.55 502.76 752.55 506.19 750.56 507.37 746.04 507.01 740.08 506.01 734.76 504.84 728.8 504.03 722.2 503.03 717.06 501.86 713.85 501.41 707.66 501.04 705.95 499.69 705.5 496.71 706.22 494 707.66 492.01"/>
  <polygon class="product-shape1 shape" points="624.23 584.2 632.2 588.28 639.48 591.67 645.53 594.2 650.72 596.18 653.07 596.18 653.07 593.34 653.07 591.61 654.98 590.19 657.82 590.5 664.74 591.18 670.97 591.61 677.02 592.11 685.11 592.29 691.66 591.98 693.94 589.39 695.61 585.56 696.84 581.61 697.89 577.66 697.89 575.68 695.55 574.21 691.41 573.33 688.01 571.73 686.04 570.31 686.22 566.6 687.09 563.7 687.27 561.48 687.58 560.04 686.22 555.55 684.93 549.5 683.39 545.35 682.8 538.87 678.83 543.87 674.56 548.35 671.46 551.09 667.49 551.24 664.84 551.53 661.89 560.04 659.53 567.52 656.59 575.09 654.23 579.96 650.99 583.49 647.31 584.82 643.19 585.11 640 584.52 638.5 583.59 636.95 585.06 634.78 586.15 631.68 586.38 628.58 585.61 624.23 584.2"/>
  <polygon class="product-shape1 shape" points="705.5 525.33 703.99 534.02 703.2 541.35 702.15 550.33 701.74 555.71 701.74 558.25 697.89 558.25 693.92 558.25 692.85 557.86 693.24 553.07 692.31 547.6 691.29 541.79 690.49 536.76 687.87 532.65 690.49 530.02 692.31 527.77 693.44 524.45 695.88 522.79 697.89 521.03 700.08 521.71 703.01 524.06 705.5 525.33"/>
  <polygon class="product-shape1 shape" points="767.46 476.59 770.26 475.67 774.11 475.67 777.64 477.22 783.15 477.95 790.42 478.36 799.46 478.99 806.84 479.82 806.84 483.97 805.91 497.27 806.01 503.4 804.66 509.22 805.59 514.11 806.43 519.51 806.11 523.04 805.18 526.89 805.7 532.08 805.7 537.07 804.45 541.44 805.07 546.42 805.59 555.57 806.11 564.82 806.11 573.23 806.84 580.3 806.84 586.54 806.84 595.26 805.18 600.98 805.59 605.86 806.01 609.4 804.97 613.34 804.97 616.98 805.8 620.72 803.41 632.26 800.29 633.19 792.19 633.19 784.19 633.19 774.84 632.78 764.76 631.84 757.48 631.01 751.66 630.8 748.03 629.76 746.05 628.31 745.22 623.01 744.39 615.32 744.39 607.01 745.22 599.94 745.95 594.95 746.99 587.68 750.83 587.89 754.68 587.26 757.79 585.5 760.29 583 761.22 579.47 761.12 575.94 760.08 573.65 757.27 572.3 753.74 571.47 750.94 570.74 749.17 570.12 750.1 563.78 751.56 556.5 752.39 549.33 753.33 543.2 753.74 537.9 754.26 532.5 755.92 529.38 758.31 523.67 759.87 518.06 761.02 514.42 762.05 510.16 763.2 504.84 763.82 501.85 761.02 500.18 759.35 498.94 759.46 497.17 763.72 497.38 764.76 493.95 765.28 489.38 765.8 482.93 766.32 477.22 767.46 476.59"/>

  <!--Partie2-->
  <polygon class="product-shape2 shape" points="878.71 335.96 885.15 331.72 892.85 328.73 902.59 327.47 911.7 327.47 922.54 330.3 926.47 331.72 924.74 333.13 918.22 335.33 918.22 343.18 918.22 355.44 915.16 359.68 911.54 362.66 907.3 363.92 902.59 362.82 898.82 365.96 895.36 367.06 889.86 367.85 886.88 370.36 882.95 370.36 878.71 369.58 875.1 367.38 871.8 367.53 868.66 364.55 865.2 362.98 868.19 355.75 872.11 346.48 876.2 339.26 878.71 335.96"/>
  <polygon class="product-shape2 shape" points="836.32 431.27 831.01 443.6 827.75 452.68 824.5 462.27 821.58 470.84 817.99 476.66 814.56 480.43 806.84 479.82 806.84 483.97 805.91 497.27 806.01 503.4 804.66 509.22 805.59 514.11 806.43 519.51 806.11 523.04 805.18 526.89 805.7 532.08 805.7 537.07 804.45 541.44 805.07 546.42 805.59 555.57 806.11 564.82 806.11 573.23 806.84 580.3 806.84 586.54 806.84 595.26 805.18 600.98 805.59 605.86 806.01 609.4 804.97 613.34 804.97 616.98 805.8 620.72 803.41 632.26 804.66 644.3 805.63 651.44 806.84 661.27 806.01 667.44 806.84 676.9 806.84 685.19 810.64 693.1 816.62 700.23 822.6 700.23 830.32 692.13 839 684.23 845.55 675.55 848.83 670.14 861.18 652.4 869.28 644.3 877.38 630.6 877.38 620.96 881.04 604.95 884.52 592.8 886.25 584.31 889.92 575.63 890.88 567.34 893 559.43 894.74 549.98 895.9 543.23 895.9 529.15 898.02 517.38 899.56 507.35 899.56 498.87 903.23 489.61 906.31 477.26 907.28 467.62 908.24 457.59 908.24 444.67 910.36 439.26 911.52 428.27 912.68 419.98 904.19 423.26 896.67 429.62 889.92 435.02 881.82 436.18 874.29 437.14 866 437.34 858.04 435.41 849.6 433.09 836.32 431.27"/>

  <!--Partie3-->
  <polygon class="product-shape3 shape" points="855.19 251.16 860.15 247.05 865.28 243.63 867.67 241.92 871.43 242.95 883.06 251.16 893.83 258.17 902.72 266.03 909.9 273.72 915.89 281.59 923.07 290.65 932.13 301.93 927.51 301.93 924.09 299.2 914.86 291.33 905.46 282.79 893.66 274.41 885.28 268.94 877.42 265 866.82 259.02 857.59 253.89 855.19 251.16"/>
  <polygon class="product-shape3 shape" points="773.99 385.16 780.01 385.95 788.38 386.73 796.75 387.38 805.64 388.17 812.84 388.82 820.42 388.82 819.9 392.88 818.33 397.98 815.85 405.3 814.28 410.93 811.92 417.47 808.13 425.58 805.77 431.59 802.11 439.97 800.02 445.07 797.21 445.72 791.39 445.72 784.32 445.07 776.47 443.89 769.8 442.19 767.58 441.27 763.92 441.27 761.69 439.7 764.7 437.61 768.89 436.04 772.55 434.73 773.6 430.94 774.38 427.02 774.9 421.39 774.38 415.44 773.47 412.37 770.72 410.27 768.36 408.97 770.33 403.6 770.33 399.29 770.85 392.49 771.37 388.56 773.99 385.16"/>
  <polygon class="product-shape3 shape" points="719.16 416.57 728.7 417.73 735.9 418.79 743.21 419.74 751.16 421.12 758.15 421.97 764.83 422.92 765.25 425 763.45 427.69 760.7 429.6 757.62 430.45 751.16 429.39 745.76 428.43 742.21 427.8 737.07 426.84 733.04 426.42 728.48 426.1 724.35 425.57 720.75 425 718.52 422.61 717.68 419.96 717.68 417.41 719.16 416.57"/>
  <polygon class="product-shape3 shape" points="721.81 382.13 721.07 388.7 718.95 393.36 717.68 398.55 716.83 402.15 713.75 404.7 711.32 408.83 710.05 413.49 708.77 417.31 707.71 422.29 709.52 426 713.12 428.86 716.3 432.25 717.68 434.68 717.15 436.27 711 435.64 705.28 435.32 697.86 434.47 690.49 433.73 678.58 432.46 669.99 431.51 662.89 430.45 653.89 429.81 642.23 428.54 631.53 427.37 621.14 426.31 610.6 425 597.62 424.19 584.16 423.03 572.29 421.65 559.47 420.49 546.97 419.11 537.01 418.15 522.6 416.78 508.29 416.25 494.38 414.55 479.47 413.6 464.32 412.64 447.68 411.27 433.59 410.42 410.49 408.3 395.76 407.24 378.38 406.07 362.06 405.23 349.88 404.91 343.1 404.06 344.16 401.94 346.7 400.04 347.65 396.22 347.76 391.45 347.65 387.53 345.64 383.19 344.26 380.64 343.73 376.09 343.73 370.9 344.37 367.4 345.22 361.46 346.06 356.38 348.61 355.32 353.48 355.32 356.55 356.17 356.24 360.51 355.39 364.22 354.86 368.25 354.22 372.8 354.01 377.36 353.91 380.54 354.65 383.4 357.61 384.67 363.34 385.2 370.22 385.84 377.53 386.79 386.54 387.53 395.76 388.8 404.34 389.44 416.01 389.86 421.19 390.29 424.9 390.71 428.29 390.71 430.09 389.65 431.79 382.45 432.74 373.12 433.27 365.49 433.8 361.04 440.58 360.93 452.01 361.86 465.44 362.39 479.23 363.29 509.08 364.71 526.26 365.43 545.95 367.22 560.99 368.47 580.5 370.08 599.83 372.05 615.76 373.84 631.15 374.92 655.5 377.06 674.65 378.85 692.31 379.75 708.48 380.82 718.69 381.36 721.81 382.13"/>
  <polygon class="product-shape3 shape" points="307.17 387.73 314.17 387.73 317.87 388.58 324.21 389.15 329.31 390 334.05 390.95 334.05 393.98 332.63 396.53 331.3 397.29 326.29 396.91 321.84 395.8 317.68 395.21 313.04 394.83 309.06 393.6 307.17 391.33 307.17 387.73"/>
  <polygon class="product-shape3 shape" points="271.21 351.2 279.26 351.68 288.15 351.68 294.87 352.15 301.12 352.15 307.17 352.15 307.17 356.22 306.23 360.86 303.67 366.34 301.02 372.4 298.47 376.19 295.82 380.25 294.59 384.32 293.74 387.73 293.55 391.61 295.15 394.73 298.28 397.95 299.79 400.32 298.94 401.73 293.36 401.26 288.15 400.88 281.91 400.22 279.54 399.56 279.45 395.11 278.5 389.62 277.27 383.47 275.85 376.47 274.91 370.41 273.67 364.45 271.88 358.4 270.08 352.53 271.21 351.2"/>
  <polygon class="product-shape3 shape" points="842.66 337.23 848.31 327.53 851.95 321.67 856.79 317.03 861.44 314.2 866.08 311.17 870.72 309.76 873.98 309.16 880.86 309.16 885.16 311.61 890.2 314.07 896.22 315.67 901.26 316.78 905.19 317.27 908.88 316.9 912.69 314.56 917.48 311 918.22 309.77 917.36 308.17 913.18 306.45 908.02 302.89 903.35 299.08 898.93 293.67 896.22 290.23 891.92 285.81 887.01 283.84 879.76 281.51 874.59 280.15 863.9 275.73 859.18 273.02 853.78 269.98 847.7 266.94 840.61 263.73 835.72 261.2 831.33 260.02 825.08 260.02 821.2 261.88 816.48 262.38 810.74 262.89 803.99 263.9 797.2 264.33 788.19 265 781.77 265.75 775.01 265.25 764 263.41 752.65 261.83 742.31 259.24 732.07 257.77 721.81 255.66 709.09 254.51 697.6 253.55 680.94 253.55 667.53 252.6 645.7 251.83 623.48 251.83 604.17 251.03 584.37 251.03 562.32 251.03 539.14 251.03 510.79 251.03 482.66 250.47 461.51 250.47 450.27 250.47 422.84 249.63 402.88 248.82 390.55 248.82 363.61 254.17 344.63 257.58 324.99 260.66 309.25 264.72 294.65 268.13 282.31 270.07 276.15 271.7 271.93 277.21 266.74 284.68 263.65 291.82 262.52 299.12 262.52 304.15 263.81 308.05 281.83 308.7 308.12 309.18 330.19 311.13 351.77 311.62 380.98 313.08 399.64 314.05 414.57 314.7 434.2 315.35 458.71 316.16 495.54 317.13 516.15 317.46 535.79 319.08 551.2 319.57 590.37 322.81 606.38 324.11 621.95 325.09 671.94 328.49 690.27 329.47 730.35 331.58 751.61 332.87 774.82 334.01 799.97 334.98 819.28 335.96 832.08 336.96 842.66 337.23"/>

  <!--Elastic1-->
  <polygon class="elastic1 shape" points="682.8 538.87 687.87 532.65 690.49 536.76 691.29 541.79 692.31 547.6 693.24 553.07 692.85 557.86 689.73 560.04 687.58 560.04 686.22 555.55 684.93 549.5 683.39 545.35 682.8 538.87"/>
  <polygon class="elastic1 shape" points="660.54 521.98 664.59 522.42 667.67 525.24 666.66 529.42 663.18 535.69 659.3 542.91 657.25 548.35 656.41 548.35 655 550.78 652.88 555.11 650.77 560.04 647.25 567.39 645.84 571.73 649.63 570.66 652.49 565.37 654.73 559.1 657.28 552.7 658.15 549.4 659.78 544.21 661.06 540.94 663.12 536.78 668.3 526.22 671.36 527.51 673.82 530.03 675.45 532.65 672.59 537.32 668.57 544.82 664.84 551.53 661.89 560.04 659.53 567.52 656.59 575.09 654.23 579.96 650.99 583.49 647.31 584.82 643.19 585.11 640 584.52 638.5 583.59 636.95 585.06 634.78 586.15 631.68 586.38 624.23 584.2 632.2 588.28 639.48 591.67 645.53 594.2 650.72 596.18 653.07 596.18 654.39 600.71 656.07 604.71 653.8 604.11 646.71 602.22 640 599.63 629.84 595.35 623.09 591.47 615.59 586.78 610.31 582.43 607.83 580.69 605.82 579.96 596.92 580.36 587.96 580.63 583.74 581.09 576.45 581.9 568.62 582.37 560.59 583.03 551.83 583.24 542.66 583.7 533.43 584.31 526.8 584 522.33 584.06 520.95 584.28 520.95 586.94 519.04 588.57 517.27 589.94 515.5 590.96 513.93 593.55 512.16 595.05 511 595.87 509.03 596.14 505.01 595.8 502.96 594.71 501.87 593.89 500.44 594.91 497.44 597.02 489.94 601.52 484.63 605.07 480.34 607.79 477.54 610.45 475.22 611.4 473.52 610.04 473.18 608 471.95 606.02 470.73 604.11 473.11 600.98 476.11 600.09 480.4 597.84 482.79 594.71 478.81 591.88 477.66 589.31 477.93 586.4 478.99 584.98 481.73 585.07 483.76 585.51 487.3 584.54 489.67 583.53 492.13 582.44 494.38 581.69 494.78 578.69 495.12 575.9 497.17 573.17 499.35 570.92 501.56 569.53 502.92 568.75 505.93 568.75 506.32 566.22 507.78 564.28 509.92 561.94 511.86 560.68 514.87 560.78 517.01 561.94 519.05 563.89 520.9 565.93 521.1 568.75 524.3 568.75 528.09 568.75 529.46 567.58 531.59 565.15 534.12 562.62 537.82 558.15 543.36 550.67 547.63 544.64 551.13 539.78 555.99 532.39 561.53 523.84 565.81 517.91 563.28 511.2 561.53 503.91 559.49 495.65 557.64 488.17 554.83 476.5 552.2 466.39 549.19 453.66 547.63 448.21 551.46 448.04 555.47 448.04 555.47 449.82 556.73 455.91 558.32 462.76 560.35 472.02 563.52 486.05 567.2 499.05 569.74 506.73 571.26 510.03 575.13 503.62 578.5 498.99 583.03 491.95 586.17 487.5 593.85 477.04 598.42 470.57 602.98 464.28 610.6 455.02 618.3 455.47 613.93 460.17 609.43 466.28 604.66 472.13 598.87 481.01 594.88 486.29 590.83 492.08 584.98 500.96 580.15 508.16 576.23 514.02 573.91 518.07 569.38 525.02 565.38 530.96 562.61 535.76 556.87 543.34 551.49 551.6 547.91 556.77 543.35 561.98 539.24 567.39 545.1 567.19 551.82 566.7 558.41 566.01 562.97 565.36 573.88 564.83 584.35 564.34 590.41 564.01 592.08 564.01 595.48 567.52 597.52 571.04 593.15 570.63 586.04 570.63 577.36 571.04 569.09 571.04 558.84 572.2 549.76 573.29 541.08 574.11 533.15 575 525.98 575.96 523.52 576.84 527.41 577.25 533.9 577.8 542.24 577.8 550.37 577.32 559.12 576.71 564.86 576.02 572.65 575.14 579.14 574.38 589.25 573.7 595.2 572.95 599.43 572.95 611.28 573.89 615.37 573.89 617.67 573.89 637.03 574.21 640 568.26 642.82 561.82 646.36 552.88 649.51 544.97 650.76 539.57 653.05 535.15 655.48 530.58 658.15 526.16 660.54 521.98"/>
  <polygon class="elastic1 shape" points="576.6 538.87 569.38 525.02 573.91 518.07 577.32 524.57 581.76 533.9 587.74 543.68 592.5 551.66 598.1 559.89 601.83 564.27 605.11 564.72 609.23 564.78 613.09 565.04 617.08 566.2 620.17 567.03 626.02 568.64 630.27 571.22 633.55 573.08 637.03 574.21 617.67 573.89 615.79 573.06 613.39 572.01 611.51 571.73 609.67 572.24 611.28 573.89 599.43 572.95 597.52 571.04 595.48 567.52 592.08 564.01 590.91 562.68 585.5 554.61 579.56 544.33 576.6 538.87"/>
  <polygon class="elastic1 shape" points="690.49 464.16 693.24 464.57 696.37 466.18 694.21 470.16 692.76 473.95 690.49 479.28 687.7 486.05 685.36 491.29 682.47 495.72 679.46 494.97 677.5 494.07 678.52 490.92 679.88 487.32 682 482.3 684.12 476.83 685.73 472.13 687.98 467.5 690.49 464.16"/>
  <polygon class="elastic1 shape" points="484.58 578.19 484.58 574.21 485.81 569.53 482.6 567.1 476.97 562.23 470.55 556.11 466.18 550.96 461.51 544.64 456.94 537.45 451.89 528.89 447.61 520.73 441.49 509.16 437.4 502.16 432.93 494 428.46 485.93 422.95 475.39 428.43 468.61 433.63 461.57 438.38 454.82 442.38 449.28 447.71 441.99 450.33 438.79 447.82 437.69 445.32 437.69 442.38 438.04 439.12 442.23 434.69 447.74 430.89 453.4 426.78 459.07 424.3 462.87 422.32 466.13 420.34 468.61 416.38 462.56 412.66 455.89 402.96 435.71 402.26 433.62 398.46 433.62 394.43 433.81 399.48 443.92 405.9 454.99 411.82 466.49 416.01 474.76 416.01 476.82 413.84 480.61 405.13 494.52 393.75 513.16 388.3 523.46 382.48 533.4 378 540.67 374.84 544.84 371.3 548.77 368.92 550.72 366.06 552.73 366.06 557.13 366.06 560.1 370.67 558.45 375.18 555.71 380.04 550.72 383.58 546.87 388.09 539.71 391.54 533.34 394.81 527.68 399.58 518.93 405.33 508.58 408.42 502.92 412.4 496.56 415.41 492.49 419.3 487.36 420.6 485.44 425.07 493.58 428.62 498.84 432.29 506.06 436.89 514.73 441.88 523.67 447.27 533.65 452.79 543.24 458.18 551.52 463.17 557.96 471.31 566.1 479.98 574.12 484.58 578.19"/>
  <polygon class="elastic1 shape" points="331.72 542.77 333.94 547.15 336.29 550.46 337.97 548.48 339.9 545.11 340.8 544.45 338.96 541.97 335.56 535.47 332.84 531.34 331.72 535.67 331.72 542.77"/>

  <!--Elastic2-->

  <polygon class="elastic2 shape" points="865.2 362.98 868.66 364.55 871.8 367.53 873.25 370.36 873.25 373.01 870.61 373.74 866.62 376.64 863.98 378.73 861.98 381.09 860.26 383.37 860.98 387.09 860.71 390.45 858.04 393.45 855.26 395.18 851.63 395.18 852.44 390.63 854.62 385.16 858.04 379.08 861.26 373.01 863.34 368.74 865.2 362.98"/>
  <polygon class="elastic2 shape" points="937.67 368.16 943.77 365.84 951.44 362.48 966.06 357.22 983.73 351.01 995.41 347.12 1009.29 342.18 1023.49 337.45 1031.27 335.45 1035.8 334.82 1041.9 334.82 1049.47 334.82 1053.68 337.13 1056.51 340.71 1056.51 345.86 1055.25 351.01 1051.99 355.75 1046.21 361.32 1041.47 365.32 1037.27 368.16 1031.17 371.94 1026.12 374.57 1019.28 378.04 1016.34 380.25 1012.24 379.52 1009.08 377.62 1007.61 372.47 1008.66 369.74 1012.87 368.79 1018.55 366.9 1026.96 362.37 1033.06 358.59 1038.42 354.7 1041.69 351.54 1044.63 348.39 1045.79 346.18 1046.31 344.07 1044.95 342.6 1039.16 342.92 1033.69 344.49 1024.96 346.81 1015.08 350.07 1006.03 353.22 997.09 356.38 988.36 359.32 978.79 362.27 972.27 364.58 964.49 367 961.12 368.58 967.54 369.32 975.32 369.84 980.68 370.89 984.89 371.52 991.52 372.05 999.4 371.63 1000.04 376.15 1000.56 380.25 1001.09 382.46 995.93 382.46 987.84 381.09 980.16 380.78 975.32 379.73 970.06 378.78 963.65 377.94 958.49 377.1 951.55 376.78 941.98 376.89 938.51 373.31 937.67 370.68 937.67 368.16"/>
</svg>