<svg id="product-svg" viewBox="0 0 1280 800" xmlns="http://www.w3.org/2000/svg" xmlns:xlink="http://www.w3.org/1999/xlink">
 <g id="Layer_1">
  <title>Layer 1</title>
  <!--partie1-->
  <path class="product-shape1 shape"  style="vector-effect: non-scaling-stroke;" id="svg_2" d="m563.69791,356.73156l-2.65085,3.31488l-2.02463,2.36207l-1.79967,4.94909l-2.47455,4.83661l-3.2619,9.67323l-5.51149,7.76108l-5.73645,9.89818l-1.57471,4.3867l3.59934,3.93678l5.17405,4.04926l7.31116,4.49917l6.41132,3.93678l8.09851,4.49917l10.23562,4.61165l13.04761,5.39901l14.1724,5.39901l17.77174,6.07389l15.40967,5.51149c0.06382,0.0595 16.59829,5.23355 16.59829,5.57099c0,0.33744 15.74711,5.28653 15.68329,5.22703c-0.16114,0.50942 17.83556,5.57099 17.77174,5.51149c0.06382,0.28446 13.56134,3.8838 13.49752,3.8243c0.06382,0.0595 14.57366,4.55868 14.50984,4.49917c0.06382,0.0595 8.49977,2.87149 18.10918,6.18636c9.6094,3.31488 24.02193,6.69578 23.9581,6.63628c0.06382,0.0595 17.27316,4.89611 17.20934,4.83661c0.06382,0.0595 20.8725,5.79595 20.80868,5.73645c0.06382,0.0595 16.82325,4.4462 16.75943,4.3867c0.06382,0.0595 19.74771,4.89611 19.68389,4.83661c0.06382,0.0595 21.9973,4.89611 34.8686,8.09851c12.87131,3.2024 34.59499,7.03322 34.53116,6.97372c0.06382,0.0595 24.47184,5.00859 24.40802,4.94909c0.06382,0.0595 22.22226,4.10876 22.15843,4.04926c0.06382,0.0595 23.68449,5.57099 23.68449,5.57099c0,0 16.75943,3.71182 16.6956,3.65232c0.06382,0.0595 16.6956,3.31488 16.8719,3.14942c0.1763,-0.16546 3.77564,0.6219 3.71182,0.5624c0.06382,0.0595 31.67052,0.39694 31.6067,0.33744c0.06382,0.0595 17.49812,-25.36084 17.4343,-25.42034c0.06382,0.0595 3.32572,-5.11455 3.2619,-5.17405c0.06382,0.0595 1.52605,-5.45199 1.46223,-5.51149c0.06382,0.0595 -5.22271,-0.61538 -5.28653,-0.67488c0.28878,-0.27794 -9.6094,-1.40273 -9.67323,-1.46223c0.1763,-0.27794 -8.25965,-1.51521 -8.32347,-1.57471c0.28878,-0.39042 -6.57246,-1.17777 -6.63628,-1.23727c0.06382,0.0595 -3.76048,-0.27794 -3.8243,-0.33744c0.06382,0.0595 -2.29825,0.6219 -2.36207,0.5624c0.06382,0.0595 -13.09626,-2.75248 -13.16009,-2.81198c0.06382,0.0595 -22.88197,-4.88959 -22.94579,-4.94909c0.06382,0.0595 -9.72188,-2.64 -9.67323,-2.47455c0.04866,0.16546 -12.53387,-2.30257 -12.59769,-2.36207c0.06382,0.0595 -12.64635,-1.96513 -12.71017,-2.02463c0.06382,0.0595 -10.05932,-1.74017 -10.12314,-1.79967c0.06382,0.0595 -18.15784,-3.98976 -18.22166,-4.04926c0.06382,0.0595 -9.6094,-2.75248 -9.67323,-2.81198c0.06382,0.0595 -13.20874,-3.53984 -13.27256,-3.59934c0.06382,0.0595 -4.32287,-0.84033 -4.3867,-0.89983c0.06382,0.0595 -3.42304,0.39694 -3.48686,0.33744c0.06382,0.0595 -6.45998,-0.72785 -6.5238,-0.67488c-0.06382,0.05298 -9.27197,-2.52752 -9.33579,-2.58703c0.06382,0.0595 -5.22271,-1.40273 -5.28653,-1.46223c0.06382,0.0595 -8.82205,-1.06529 -8.88587,-1.12479c0.06382,0.0595 -9.6094,-1.74017 -9.67323,-1.79967c0.06382,0.0595 -12.98379,-1.96513 -13.04761,-2.02463c0.06382,0.0595 -16.35817,-3.31488 -16.42199,-3.37438c0.06382,0.0595 -16.13321,-3.42736 -16.19703,-3.48686c0.06382,0.0595 -7.80973,-0.39042 -7.87356,-0.44992c0.06382,0.0595 -5.11023,-3.7648 -11.13546,-7.0862c-6.02523,-3.3214 -7.13486,-3.87728 -7.19868,-3.93678c0.06382,0.0595 -12.30891,-3.87728 -12.37273,-3.93678c0.06382,0.0595 -11.07164,-4.43967 -11.13546,-4.49917c0.06382,0.0595 -6.45998,-1.62769 -6.5238,-1.68719c0.06382,0.0595 -4.54783,-0.05298 -4.61165,-0.11248c0.06382,0.0595 -7.13486,-3.08992 -7.19868,-3.14942c0.06382,0.0595 -4.54783,-1.62769 -4.61165,-1.68719c0.06382,0.0595 -8.93453,-1.96513 -8.99835,-2.02463c0.06382,0.0595 -11.85899,-5.11455 -11.92281,-5.17405c0.06382,0.0595 -13.88362,-4.88959 -13.94744,-4.94909c0.06382,0.0595 -12.64635,-4.55215 -12.71017,-4.61165c0.06382,0.0595 -9.72188,-4.32719 -15.74711,-7.31116c0.06382,0.0595 -19.73255,-9.27629 -19.79637,-9.33579c0.06382,0.0595 -16.92056,-7.36414 -16.98438,-7.42364c0.06382,0.0595 -12.53387,-6.68926 -12.59769,-6.74876c0.06382,0.0595 -4.66031,-2.64 -19.34645,-9.22331c0.28878,-0.27794 -13.32122,-6.57678 -13.38504,-6.63628c0.06382,0.0595 -2.29825,-0.16546 -2.36207,-0.22496c0.06382,0.0595 -6.9099,-2.86496 -6.97372,-2.92446c0.06382,0.0595 -22.31957,-11.75083 -22.31957,-11.75083z" opacity="NaN" fill="#fff"/>
<path class="product-shape1 shape"  style="vector-effect: non-scaling-stroke;" id="svg_32" d="m1011.28903,546.207l-0.47528,2.86084l-0.24949,3.24339l-0.06237,4.30372l-0.74847,1.68407l0.43661,1.06034l1.93356,1.12271l2.18305,1.68407l1.30983,1.80881l1.06034,2.18305l0.99796,2.24542l10.47863,-3.92949l1.93356,0l10.7905,-12.72405l2.18305,-5.30169l-31.77147,-0.24118z" opacity="NaN" fill="#fff"/>
  <path class="product-shape1 shape" id="svg_33" d="m1006.79819,566.35342l2.01964,-2.50322l0.99796,-1.43457l1.74644,0.12475c0.28816,-0.05406 0.84951,1.19339 0.78714,1.13102c-0.06237,-0.06237 0.43661,0.99797 0.56136,1.06034c0.12475,0.06237 0.43661,1.24746 0.39794,1.23915c0.03867,0.00831 0.22578,0.50729 0.18712,0.49898c0.03867,0.00831 -2.3315,-0.36593 -2.37017,-0.37424c0.10104,0.07068 -1.20879,-0.11644 -1.24746,-0.12475c0.03867,0.07068 -1.58303,0.13306 -1.62169,0.12475c0.03867,0.00831 -0.83455,0.07068 -1.45828,0.2578z" opacity="NaN" fill="#fff"/>
  <!--partie2-->
  <path class="product-shape2 shape"  style="vector-effect: non-scaling-stroke;" id="svg_4" d="m999.21801,569.31756l-3.77564,2.30257l-1.68719,2.24959l-1.68719,2.81198l-5.39901,1.46223l-8.77339,2.81198l-13.94744,4.16174l-9.67323,2.13711l-7.42364,3.03694l-12.26025,3.2619l-13.61,3.93678l-12.59769,3.48686l-58.37679,19.57141l-5.28653,1.68719l-73.67398,22.94579c0.06382,0.0595 -7.24734,2.08413 -7.24734,2.08413c0,0 -26.99505,6.97372 -27.05887,6.91422c0.06382,0.0595 -25.13156,6.80826 -25.19538,6.74876c0.06382,0.0595 -20.5199,6.02091 -20.58372,5.96141c0.06382,0.0595 -16.6956,4.33372 -16.75943,4.27422c0.06382,0.0595 -17.8204,4.22124 -17.88422,4.16174c0.06382,0.0595 -22.31957,5.57099 -22.31957,5.57099c0,0 -19.68389,5.73645 -19.74771,5.67695c0.06382,0.0595 -25.58147,7.03322 -25.64529,6.97372c0.06382,0.0595 -24.3442,6.35835 -24.40802,6.29884c0.06382,0.0595 -24.11924,6.13339 -24.18306,6.07389c0.06382,0.0595 -13.4337,2.30909 -29.13216,6.5238c0.06382,0.0595 -30.53057,6.24587 -30.59439,6.18636c0.06382,0.0595 -10.1718,0.73438 -26.32017,4.3867c0.06382,0.0595 -26.48131,4.55868 -26.54513,4.49917c0.06382,0.0595 -9.49693,2.08413 -9.56075,2.02463c0.06382,0.0595 -9.27197,0.73438 -9.33579,0.67488c0.06382,0.0595 -9.94684,-1.62769 -10.01066,-1.68719c0.06382,0.0595 -12.08395,-3.31488 -12.14777,-3.37438c0.06382,0.0595 -2.63568,-1.06529 -2.6995,-1.12479c0.06382,0.0595 -1.06097,-0.61537 -1.12479,-0.67488c0.06382,0.0595 6.25018,-5.00207 6.18636,-5.06157c0.06382,0.0595 2.65085,-3.53984 2.58703,-3.59934c0.06382,0.0595 0.40126,-2.19009 0.33744,-2.24959c0.06382,0.0595 2.65085,-4.66463 2.58703,-4.72413c0.06382,0.0595 4.22556,-7.13918 4.16174,-7.19868c0.06382,0.0595 3.21324,-6.01438 6.5238,-12.14777c0.06382,0.0595 6.13771,-10.06364 6.07389,-10.12314c0.06382,0.0595 6.02523,-9.83868 5.96141,-9.89818c0.06382,0.0595 4.33804,-6.68926 4.27422,-6.74876c0.06382,0.0595 3.32572,-6.23934 6.41132,-11.13546c0.06382,0.0595 9.28713,-17.71224 9.22331,-17.77174c0.06382,0.0595 8.61225,-17.03736 8.54843,-17.09686c0.06382,0.0595 5.68779,-11.75083 9.11083,-17.9967c0.06382,0.0595 3.66316,-9.05133 3.59934,-9.11083c0.06382,0.0595 2.20093,-5.90191 2.13711,-5.96141c0.06382,0.0595 3.55068,-6.12686 3.48686,-6.18636c0.06382,0.0595 2.20093,-4.32719 5.17405,-10.46058c0.06382,0.0595 4.33804,-9.50124 4.27422,-9.56075c0.06382,0.0595 4.90043,-10.40108 4.83661,-10.46058c0.06382,0.0595 2.76332,-5.56447 5.39901,-10.3481c0.06382,0.0595 3.77564,-8.82637 3.71182,-8.88587c0.06382,0.0595 3.77564,-7.92653 3.71182,-7.98603c0.06382,0.0595 4.11308,-6.23934 4.04926,-6.29884c0.06382,0.0595 2.20093,-6.57678 2.13711,-6.63628c0.06382,0.0595 4.45052,-11.18844 4.3867,-11.24794c0.06382,0.0595 3.10076,-6.68926 6.86124,-14.7348c0.06382,0.0595 5.35035,-14.90025 5.28653,-14.95976c0.06382,0.0595 2.98828,-8.71389 2.92446,-8.77339c0.06382,0.0595 1.30109,-3.98976 1.23727,-4.04926c0.06382,0.0595 2.20093,-2.75248 2.13711,-2.81198c0.06382,0.0595 -0.16114,-5.11455 -0.22496,-5.17405c0.06382,0.0595 2.20093,-4.66463 2.13711,-4.72413c0.06382,0.0595 1.18861,-1.85265 1.91215,-1.91215c0.06382,0.0595 2.76332,5.23355 2.6995,5.17405c0.06382,0.0595 4.11308,4.78363 4.04926,4.72413c0.06382,0.0595 5.57531,4.4462 5.51149,4.3867c0.06382,0.0595 7.71242,4.55868 7.6486,4.49917c0.06382,0.0595 8.49977,5.23355 8.43595,5.17405c0.06382,0.0595 7.2625,2.75901 13.72248,5.96141c0.06382,0.0595 17.0482,6.5833 16.98438,6.5238c0.06382,0.0595 50.11714,15.46917 50.05332,15.40967c0.06382,0.0595 25.14672,6.92074 44.20439,12.03529c2.65085,0.73438 28.5211,7.03322 28.45728,6.97372c0.06382,0.0595 18.73539,5.34603 18.67157,5.28653c0.06382,0.0595 13.22391,3.20892 28.23232,6.29884c0.06382,0.0595 38.8692,9.28281 38.80538,9.22331c0.06382,0.0595 24.1344,4.78363 24.07058,4.72413c0.06382,0.0595 25.37168,6.13339 25.30786,6.07389c0.40126,-0.5029 25.8216,4.22124 25.8216,4.22124c0,-0.33744 29.46959,3.93678 29.40577,3.87728c0.06382,-0.39042 21.88482,4.89611 21.821,4.83661c0.1763,-0.5029 27.50879,4.22124 27.44496,4.16174c0.06382,0.0595 10.63688,2.08413 23.9581,4.3867c0.06382,0.0595 11.42424,2.08413 11.36042,2.02463c0.06382,0.0595 7.03754,2.64653 6.97372,2.58703c0.06382,0.0595 2.76333,-1.17777 2.6995,-1.23727c0.06382,0.0595 2.08845,0.0595 2.02463,0c0.06382,0.0595 2.08845,1.29677 2.02463,1.23727c0.06382,0.0595 2.76333,0.84686 2.6995,0.78736c0.06382,0.0595 1.86349,0.39694 1.79967,0.33744c0.06382,0.0595 0.7387,0.73438 0.62622,2.30909z" opacity="NaN" fill="#fff"/>
  <!--partie3-->
  <path class="product-shape3 shape"  style="vector-effect: non-scaling-stroke;" id="svg_5" d="m429.95995,646.14096l-3.77564,-5.57099l-3.8243,-7.53612l-3.03694,-7.53612l-1.23727,-4.49917c0.06382,0.0595 0.1763,-5.9019 0.1763,-5.9019c0,0 0,-6.41132 -0.06382,-6.47083c0.06382,0.0595 -2.07329,-7.0267 -2.13711,-7.0862c0.06382,0.0595 -1.06097,-7.5891 -1.12479,-7.6486c0.06382,0.0595 -2.18577,-5.90191 -2.24959,-5.96141c0.06382,0.0595 -2.74816,-6.01438 -2.81198,-6.07389c0.06382,0.0595 -1.28593,-6.35182 -1.46223,-8.54843c0.06382,0.0595 -0.72354,-4.77711 -0.78736,-4.83661c0.06382,0.0595 3.4382,-8.37645 3.37438,-8.43595c0.06382,0.0595 3.77564,-10.73852 3.71182,-10.79802c0.06382,0.0595 1.86349,-5.22703 1.79967,-5.28653c0.06382,0.0595 1.75101,-3.98976 3.2619,-6.86124c0.06382,0.0595 2.53837,-6.01438 2.47455,-6.07389c0.06382,0.0595 1.86349,-7.36414 1.79967,-7.42364c0.06382,0.0595 2.20093,-6.68926 2.13711,-6.74876c0.06382,0.0595 2.76332,-5.56447 2.6995,-5.62397c0.06382,0.0595 2.76332,-4.77711 2.6995,-4.83661c0.06382,0.0595 0.85118,-3.87728 0.78736,-3.93678c0.06382,0.0595 -1.84833,-5.78943 -1.91215,-5.84893c0.06382,0.0595 6.25018,0.50942 6.18636,0.44992c0.1763,-0.5029 6.58762,0.0595 6.58762,0.0595c0,0 6.97372,0.5624 6.9099,0.5029c0.06382,-0.16546 6.02523,1.74669 5.96141,1.68719c0.28878,-0.39042 7.48746,2.64653 7.42364,2.58703c0.06382,-0.39042 7.48746,2.53405 7.48746,2.53405c0,0 5.28653,1.79967 10.1718,3.31488c0.06382,0.0595 10.41192,1.52173 10.3481,1.46223c0.06382,0.0595 4.22556,0.84686 4.16174,0.78736c0.06382,0.0595 -0.72354,2.30909 -0.78736,2.24959c0.06382,0.0595 -4.2104,6.69578 -4.27422,6.63628c0.06382,0.0595 -7.35982,-3.65232 -7.42364,-3.71182c0.1763,0.28446 -11.63403,1.18429 -11.69785,1.12479c0.06382,0.50942 -7.69726,-1.51521 -7.76108,-1.57471c-0.04866,0.50942 -4.77279,-0.27794 -4.83661,-0.33744c0.40126,0.6219 -2.97312,-0.72785 -3.03694,-0.78736c0.06382,0.0595 -1.84833,5.00859 -1.91215,4.94909c0.06382,0.0595 -4.43535,11.41992 -4.49917,11.36042c0.06382,0.0595 -5.56015,13.33207 -5.62397,13.27256c0.06382,0.0595 -5.67263,11.75735 -5.73645,11.69785c0.06382,0.0595 -4.88527,10.85752 -4.94909,10.79802c0.28878,0.39694 -2.74816,5.79595 -4.16174,8.54843c0.40126,0.28446 -2.52321,7.48314 -2.58703,7.42364c0.06382,0.0595 -1.62337,4.55868 -1.68719,4.49917c0.06382,0.0595 -0.72354,2.64653 -0.78736,2.58703c0.06382,0.0595 5.91275,-1.62769 5.84893,-1.68719c0.06382,0.0595 4.56299,-0.61537 4.49917,-0.67488c0.06382,0.0595 2.65085,0.95934 2.58703,0.89983c0.06382,0.0595 3.21324,0.6219 3.14942,0.5624c0.06382,0.0595 4.11308,0.0595 4.04926,0c0.06382,0.0595 3.55068,-0.61537 3.48686,-0.67488c0.06382,0.0595 3.32572,0.50942 3.32572,0.50942c0,0 2.81198,1.01231 2.74816,0.95281c0.06382,0.0595 4.33804,0.95934 4.27422,0.89983c0.06382,0.0595 -2.74816,6.47082 -2.81198,6.41132c-0.27362,1.29677 -2.63568,5.79595 -2.6995,5.73645c0.06382,0.0595 -21.6447,43.36406 -22.43205,44.48885z" opacity="NaN" fill="#fff"/>
    <path class="product-shape3 shape" style="vector-effect: non-scaling-stroke;" id="svg_6" d="m595.19213,371.69132l-2.31341,-0.17198l-4.83661,-2.24959l-1.91215,-0.67488l-22.38339,-11.92281l-4.61165,5.51149l-1.79967,4.49917l-2.47455,5.06157l-3.48686,10.23562l-5.39901,7.42364l-5.73645,10.01066l-1.68719,4.49917l-2.24959,5.39901l-4.72413,7.42364l-4.49917,8.77339l-1.01231,2.92446l-1.46223,7.42364l-3.59934,2.81198l-2.58703,2.58703l-6.74876,1.23727l-11.13546,-2.58703l-10.9105,-2.36207l-10.12314,-0.44992l-1.34975,-1.91215l-9.11083,1.46223l-11.36042,0.11248l-1.57471,-0.33744l4.61165,-10.68554l5.28653,-11.24794l3.03694,-8.66091l2.13711,-5.62397l3.8243,-8.77339l2.47455,-7.87356l4.72413,-10.01066l4.04926,-8.43595l3.8243,-6.18636l4.94909,-7.42364l5.17405,-8.09851l6.18636,-7.31116l2.6995,-2.92446l2.24959,1.57471l2.36207,2.13711l4.27422,0.33744l4.83661,0.11248l5.62397,-0.11248l3.93678,-1.12479l1.34975,-1.79967l0.22496,-2.92446l-1.68719,-3.93678l-0.44992,-1.91215l0.5624,-1.68719l2.13711,-0.5624l1.23727,-1.57471l0.33744,-4.94909l3.59934,-0.33744l2.47455,-1.46223c0.06382,0.0595 2.8758,0.0595 2.8758,0.0595c0,0 2.58703,1.34975 2.52321,1.29025c0.06382,0.0595 4.78795,2.64653 4.72413,2.58703c0.06382,0.0595 3.10076,1.74669 3.03694,1.68719c0.06382,0.0595 5.80027,4.33372 5.73645,4.27422c0.06382,0.0595 5.57531,3.99628 5.51149,3.93678c0.06382,0.0595 5.80027,4.67115 5.73645,4.61165c0.06382,0.0595 8.16233,6.5833 8.09851,6.5238c0.06382,0.0595 6.36266,4.89611 6.29884,4.83661c0.06382,0.0595 3.10076,1.85917 5.51149,3.93678c0.06382,0.0595 4.56299,3.09644 4.49917,3.03694c0.06382,0.0595 -0.72354,2.98396 -0.78736,2.92446c0.06382,0.0595 0.1763,4.67115 0.11248,4.61165c0.06382,0.0595 -0.04866,4.89611 -0.11248,4.83661c0.06382,0.0595 -0.72354,4.33372 -0.78736,4.27422c0.06382,0.0595 -1.17345,2.42157 -1.23727,2.36207c0.06382,0.0595 0.85118,0.0595 1.30109,0.95934z" opacity="NaN" fill="#fff"/>
  <path class="product-shape3 shape" id="svg_7" d="m548.17576,298.57973l-2.31341,3.42736l-1.68719,2.58703l-1.91215,1.68719l-3.37438,-0.11248l-3.14942,0.11248l-1.23727,0l1.57471,-3.59934l1.91215,-2.6995l1.46223,-2.58703l2.13711,0l3.03694,-0.44992l3.55068,1.63421z" opacity="NaN"  fill="#fff"/>
  <path class="product-shape3 shape"  style="vector-effect: non-scaling-stroke;" id="svg_8" d="m564.48527,300.26692l-5.12539,-0.95934l-2.81198,0.5624l-2.24959,3.2619l-2.02463,3.48686l-2.13711,1.57471l1.12479,1.23727c0.06382,0.0595 3.21324,1.18429 3.21324,1.18429c0,0 3.8243,2.58703 3.76048,2.52752c0.06382,0.0595 4.0006,2.75901 3.93678,2.6995c0.06382,0.0595 3.88812,3.09644 3.8243,3.03694c0.06382,0.0595 4.67547,3.3214 4.61165,3.2619c0.06382,0.0595 4.22556,3.20892 4.16174,3.14942c0.06382,0.0595 4.56299,3.99628 4.49917,3.93678c0.06382,0.0595 6.36266,4.4462 6.29884,4.3867c0.06382,0.0595 6.36266,5.23355 6.29884,5.17405c0.06382,0.0595 7.48746,4.33372 7.42364,4.27422c0.06382,0.0595 0.85118,-1.40273 0.78736,-1.46223c0.06382,0.0595 2.76333,0.0595 2.6995,0c0.06382,0.0595 4.22556,1.07181 4.16174,1.01231c0.06382,0.0595 6.02523,2.30909 5.96141,2.24959c0.06382,0.0595 7.2625,2.42157 7.19868,2.36207c0.06382,0.0595 5.80027,1.85917 5.73645,1.79967c0.06382,0.0595 4.90043,2.08413 4.83661,2.02463c0.06382,0.0595 4.90043,1.97165 4.83661,1.91215c0.06382,0.0595 3.10076,1.07181 3.03694,1.01231c0.06382,0.0595 0.7387,1.85917 0.67488,1.79967c0.06382,0.0595 0.06382,4.10876 0,4.04926c0.06382,0.0595 0.40126,1.40925 0.33744,1.34975c0.06382,0.0595 2.76333,0.28446 2.6995,0.22496c0.06382,0.0595 4.22556,0.95934 4.16174,0.89983c0.06382,0.0595 6.58762,1.40925 6.5238,1.34975c0.06382,0.0595 6.81258,1.97165 6.74876,1.91215c0.06382,0.0595 5.68779,1.52173 5.62397,1.46223c0.06382,0.0595 6.47514,0.28446 6.41132,0.22496c0.06382,0.0595 5.91275,-0.84033 5.84893,-0.89983c0.06382,0.0595 5.12539,-1.40273 5.06157,-1.46223c0.06382,0.0595 2.42589,-0.5029 2.36207,-0.5624c0.06382,0.0595 -4.77279,-3.7648 -4.83661,-3.8243c0.06382,0.0595 -6.01007,-4.55215 -6.07389,-4.61165c0.06382,0.0595 -4.32287,-2.75248 -4.3867,-2.81198c0.06382,0.0595 -3.42304,-2.41505 -3.48686,-2.47455c0.06382,0.0595 -4.32287,-2.30257 -4.3867,-2.36207c0.06382,0.0595 -5.22271,-3.53984 -5.28653,-3.59934c0.06382,0.0595 -4.32287,-2.97744 -4.3867,-3.03694c0.06382,0.0595 -5.22271,-2.86496 -5.28653,-2.92446c0.06382,0.0595 -5.22271,-3.53984 -5.28653,-3.59934c0.06382,0.0595 -5.33519,-2.19009 -5.39901,-2.24959c0.06382,0.0595 -5.56015,-3.53984 -5.62397,-3.59934c0.06382,0.0595 -5.56015,-2.30257 -5.56015,-2.30257c0,0 -7.31116,-3.03694 -7.37498,-3.09644c0.40126,-0.27794 -5.33519,-2.75248 -5.39901,-2.81198c0.06382,0.0595 -6.57246,-3.87728 -6.63628,-3.93678c0.06382,0.0595 -5.33519,-2.64 -5.39901,-2.6995c0.06382,0.0595 -3.31056,-2.30257 -3.37438,-2.36207c0.06382,0.0595 -1.73585,-1.29025 -1.79967,-1.34975c0.06382,0.0595 -4.09792,-1.51521 -4.16174,-1.57471c0.06382,0.0595 -3.0856,-1.17777 -3.14942,-1.23727c0.06382,0.0595 -2.74816,-1.40273 -2.81198,-1.46223c0.06382,0.0595 -3.31056,-0.95281 -3.37438,-1.01231c0.06382,0.0595 -4.2104,-1.29025 -4.27422,-1.34975c0.06382,0.0595 -3.0856,-0.95281 -3.14942,-1.01231c0.06382,0.0595 -2.07329,-0.39042 -2.13711,-0.44992c0.06382,0.0595 -2.29825,-1.85265 -2.36207,-1.91215c0.06382,0.0595 -1.73585,-0.39042 -5.11023,-0.39042z" opacity="NaN" fill="#fff"/>
  <path class="product-shape3 shape"  id="svg_9" d="m629.38586,388.22578l2.07329,-4.55868l1.79967,-4.72413l1.91215,-5.17405l1.46223,-4.04926l1.12479,-3.03694l5.39901,1.23727l6.97372,1.79967l6.63628,1.79967l4.61165,0.89983l5.28653,1.01231l4.04926,0.44992l5.28653,0l5.62397,-0.67488l5.06157,-1.23727l2.47455,-0.89983l1.46223,-0.89983l4.72413,3.8243l5.73645,4.72413l5.73645,5.17405l6.47125,5.33447l7.13875,5.68851l6.63628,6.07389l6.63628,4.94909l8.66091,6.07389l8.32347,5.51149l4.83661,2.92446l0.58744,8.49845l-0.125,7.26118l-0.46244,3.8243l-2.92446,-0.11248l-8.09851,-3.49938l-3.59934,-1.23727l-9.03591,-2.13711l-6.82368,-2.92446l-4.94909,-2.13711l-24.97042,-8.99835l-3.37438,-1.22475l-35.88092,-16.88442l-14.08496,-6.13638l-4.36166,-2.29957l-8.03469,-4.21472z" opacity="NaN" fill="#fff"/>
  <path class="product-shape3 shape" id="svg_10" d="m700.5853,368.5419l5.56015,5.22703l7.31116,6.5238l8.43595,7.42364l8.32347,6.86124l6.86124,4.94909l6.07389,4.72413l7.42364,4.83661l7.42364,4.04926l0.22496,-1.91215l2.24959,-0.5624l4.04926,1.12479l4.94909,1.91215l7.6486,2.6995l7.19868,2.47455l5.28653,1.79967l1.91215,2.13711l0.67488,1.57471l4.3867,-1.46223l4.16174,-1.57471l4.49917,-1.79967l2.81198,-1.79967l3.14942,-2.36207l2.58703,-2.47455l2.02463,-1.79967l-3.48686,-2.02463l-4.16174,-2.92446l-4.3867,-2.58703l-4.72413,-3.71182l-3.59934,-1.79967l-5.17405,-2.81198l-4.49917,-2.92446l-4.04926,-2.24959l-4.72413,-1.91215l-4.49917,-1.79967l-5.84893,-1.57471l-6.5238,-2.47455l-5.06157,-1.68719l-3.37438,-1.91215l-4.27422,-1.91215l-4.61165,-1.57471l-3.8243,-1.57471l-3.93678,-1.34975l-5.17405,-1.91215l-4.49917,-1.79967l-3.14942,-0.44992l-4.94909,-0.78736l-4.49917,-0.22496l-4.61165,0.11248l-4.3867,0.11248l-3.19808,1.18429z" opacity="NaN"  fill="#fff"/>
  <path class="product-shape3 shape"  style="vector-effect: non-scaling-stroke;" id="svg_11" d="m820.82574,407.79719l3.0856,-2.64653l2.81198,-2.13711l3.03694,-1.34975l2.58703,-1.01231l-4.83661,-0.89983c0.06382,0.0595 -3.0856,-2.19009 -3.0856,-2.19009c0,0 -3.8243,-1.34975 -3.88812,-1.40925c0.06382,0.0595 -4.09792,-0.95281 -4.16174,-1.01231c0.06382,0.0595 -5.56015,-1.29025 -5.62397,-1.34975c0.06382,0.0595 -4.32287,-0.61538 -4.3867,-0.67488c0.06382,0.0595 -3.98544,-0.5029 -4.04926,-0.5624c0.06382,0.0595 -3.42304,-0.84033 -3.48686,-0.89983c0.06382,0.0595 0.96366,1.40925 0.89983,1.34975c0.06382,0.0595 4.11308,2.19661 4.04926,2.13711c0.06382,0.0595 2.98828,1.97165 2.92446,1.91215c0.06382,0.0595 3.10076,2.53405 3.03694,2.47455c0.06382,0.0595 4.563,3.3214 4.49917,3.2619c0.06382,0.0595 3.66316,2.53405 3.59934,2.47455c0.06382,0.0595 1.18861,1.18429 2.98828,2.53405z" opacity="NaN" fill="#fff"/>
  <path class="product-shape3 shape"  style="vector-effect: non-scaling-stroke;" id="svg_13" d="m788.20672,450.60185l0.72353,-3.49638l0.44992,-2.24959l0.78736,-4.04925l0.67487,-4.9491l1.01232,-4.49917l0.78735,-2.58703l2.92447,0.5624l2.92446,-0.44992l4.16174,-1.23727l3.8243,-2.02463l4.49917,-2.24959l4.16174,-2.6995l4.04925,-2.81199l2.36207,-1.34975l4.72413,2.92447l4.72414,2.36206l4.49917,3.2619l6.07389,3.37439l6.41132,4.04925l7.19868,3.8243l8.09851,4.94909l7.87356,4.16174l7.31116,3.93678l8.32347,4.38669l7.87356,3.37438l7.31115,3.2619l0.22496,3.59934l0.44992,6.63629l-0.11248,5.06157l-0.67487,2.13711l-2.92456,0.41245l-7.19859,-0.86237l-14.50984,-3.98676l-7.64859,-0.96233l-11.13546,-2.02463l-10.9105,-1.68719l-17.04062,-3.4181l-17.04062,-3.6681l-7.92354,-0.4374l-8.49845,-5.74897l-8.82205,-4.82709z" opacity="NaN" fill="#fff"/>
  <path class="product-shape3 shape"  style="vector-effect: non-scaling-stroke;" id="svg_14" d="m826.85891,411.77206l3.63197,-2.33905l2.87497,-1.81248l3.56246,-1.37498l4.99995,-1.37498l5.24994,-0.56249c0.05549,0.02658 6.55542,0.96407 6.55542,1.02656c0,0.0625 4.24995,0.87499 4.19447,0.84841c0.05549,0.02658 4.68044,0.58907 4.62495,0.56249c0.05549,0.02658 3.99294,0.15157 3.93746,0.125c0.05549,0.02658 5.99292,1.33906 5.93743,1.31249c0.05549,0.02658 5.80542,1.58906 5.74994,1.56248c0.05549,0.02658 5.30543,1.65156 5.24994,1.62498c0.05549,0.02658 5.05543,1.90156 4.99995,1.87498c0.05549,0.02658 4.30544,1.52656 6.24993,2.49997c0.05549,0.02658 10.99287,3.46404 10.93738,3.43746c0.05549,0.02658 4.74294,1.52656 8.12491,2.68747c0.05549,0.02658 8.1179,3.27654 8.06241,3.24996c0.05549,0.02658 6.05542,2.33905 5.99993,2.31247c0.05549,0.02658 7.49291,3.83903 7.43742,3.81246c0.05549,0.02658 7.9929,4.27653 7.93741,4.24995c0.05549,0.02658 7.11791,4.21403 7.06242,4.18745c6.05725,3.02745 7.30541,4.65153 7.24992,4.62495c0.38892,0.19329 -4.38196,4.58903 -4.43745,4.56245c0.05549,0.02658 -3.63197,4.27653 -3.68746,4.24995c0.05549,0.02658 -3.81947,3.21404 -3.87496,3.18747c0.05549,0.02658 -4.94446,2.83905 -4.99995,2.81247c0.05549,0.02658 -5.75695,0.90157 -5.81244,0.87499c0.05549,0.02658 -1.132,-2.4734 -1.18749,-2.49997c0.05549,0.02658 -4.00697,-0.78591 -4.00697,-0.78591c0,0 -7.31242,-1.87498 -7.36791,-1.90156c0.05549,0.02658 -7.06943,-1.7234 -7.12492,-1.74998c0.05549,0.02658 -5.50695,-0.84841 -5.56244,-0.87499c0.05549,0.02658 -3.06948,-1.34841 -3.12497,-1.37498c0.05549,0.02658 -2.06949,1.40156 -2.12498,1.37498c0.05549,0.02658 -0.25701,1.58906 -0.3125,1.56248c0.05549,0.02658 -4.38196,-1.41091 -4.43745,-1.43748c0.05549,0.02658 -6.63194,-2.59839 -6.68743,-2.62497c0.05549,0.02658 -5.63195,-2.78589 -5.68744,-2.81247c0.05549,0.02658 -2.50698,-1.41091 -4.68745,-2.87497c0.05549,0.02658 -7.81943,-3.78588 -7.87491,-3.81246c0.05549,0.02658 -7.38193,-4.41088 -7.43742,-4.43745c0.05549,0.02658 -9.31941,-5.16087 -9.3749,-5.18744c0.05549,0.02658 -8.94441,-5.34836 -8.9999,-5.37494c0.05549,0.02658 -9.13191,-5.47336 -9.1874,-5.49994c0.05549,0.02658 -7.75693,-4.66087 -7.81241,-4.68745c0.05549,0.02658 -1.49274,-0.85552 -4.81946,-3.22339z" opacity="NaN" fill="#fff"/>
  <path class="product-shape3 shape"  style="vector-effect: non-scaling-stroke;" id="svg_15" d="m929.04261,484.93299l3.23026,-6.45961l2.00059,-5.33489l0.66686,-4.16789l0.66686,-3.33431l-0.16672,-1.16701l4.3346,0.33343l4.50132,-1.50044l4.00117,-1.66715l3.16759,-2.50073l3.16759,-3.16759l2.83416,-3.16759l3.83446,-3.00088l2.33402,-2.00059l7.5022,5.00146l6.00176,3.00088l5.83504,4.00117l5.33489,3.83446l7.66891,4.66803l7.66891,4.83475l7.66891,4.83475l7.66891,4.16789l8.00234,4.50132l5.50161,2.66745l0.50015,4.3346l0.33343,3.16759l-0.16672,4.3346l-0.33343,3.83446l-1.33372,0l-2.33402,0.50015l-7.5022,-1.33372l-28.17491,-6.16847l-9.6695,-2.50073l-7.00205,-1.33372l-6.83533,-1.33372l-19.50571,-3.00088l-12.00351,-2.66745l-9.39873,-2.2096z" opacity="NaN" fill="#fff"/>
  <path class="product-shape3 shape"  style="vector-effect: non-scaling-stroke;" id="svg_16" d="m967.7206,441.58697l3.23026,-3.45873l2.50073,-0.83358l4.3346,0.66686l3.83446,1.83387l2.83416,1.33372l3.50102,1.00029l4.16789,1.66715l4.00117,1.16701l5.50161,2.1673l4.00117,2.33402l3.83446,2.50073l5.16818,2.83416l6.16847,4.50132l4.75178,3.25118l3.81414,7.04315l5.62661,4.89709l3.3143,2.64728l3.73101,3.56368l-2.04478,0.60374l-3.02166,-0.16641l-3.66774,0.50015l-6.00176,-2.00059l-7.66891,-4.50132l-7.66891,-4.50132l-10.00293,-6.5019l-8.83592,-6.66862l-9.6695,-6.00176l-7.16876,-4.50132l-5.83504,-3.83446l-2.73011,-1.54274z" opacity="NaN" fill="#fff"/>
  <!--partie4-->
    <path class="product-shape4 shape"  style="vector-effect: non-scaling-stroke;" id="svg_17" d="m407.76507,568.45729l0.81282,6.54434l1.20872,6.66862l3.58446,7.71092l1.58372,4.79274l1.00029,7.33548l2.33402,7.33548l-0.16672,12.17023l1.00029,4.00117l3.79274,9.21107l2.87588,5.62661l4.16789,6.16847l-9.4195,16.83826l-6.58519,-1.33372l-8.00234,-3.83446l-6.5019,-2.1673l1.16701,-10.66979l0.20843,-3.91818l-13.37895,1.41745l-17.00498,-0.66686l-0.66686,-1.66715c0.10404,0.12442 2.9382,-2.04288 2.9382,-2.04288c0,0 1.66715,-4.3346 1.56311,-4.45902c0.10404,0.12442 3.27163,-4.3769 3.16759,-4.50132c0.10404,0.12442 2.10463,-5.21047 2.00059,-5.33489c0.10404,0.12442 2.77149,-4.54361 2.66745,-4.66803c-0.27096,-0.00058 3.43835,-5.87733 3.33431,-6.00176c-0.27096,0.12442 3.10492,-5.04376 3.00088,-5.16818c-0.02096,-0.62558 3.60507,-5.71062 3.50102,-5.83504c-0.14596,-0.37558 2.77149,-5.21047 2.66745,-5.33489c0.10404,0.12442 2.77149,-3.71003 2.66745,-3.83446c-0.14596,0.12442 3.27163,-3.71003 3.16759,-3.83446c-0.77096,-0.12558 0.43747,-3.54332 0.33343,-3.66774c0.10404,0.12442 1.7712,-3.71003 1.66715,-3.83446c0.10404,0.12442 2.10463,-5.04376 2.00059,-5.16818c0.10404,0.12442 0.60419,-3.87675 0.50015,-4.00117c0.10404,0.12442 1.7712,-2.54303 1.66715,-2.66745c0.10404,0.12442 0.72889,-0.37573 1.14605,-1.20945z" opacity="NaN" fill="#fff"/>
  <path class="product-shape4 shape"  style="vector-effect: non-scaling-stroke;" id="svg_18" d="m368.99951,706.31201l3.37533,0.93768l4.875,2.375l5.625,2.75l4.75,1.75l4,-1.25l-0.125,1.75l-2.375,3.5l-6.5,5.25l1,0.75l2.625,1l12.62499,3.5l10.125,1.625l9,-0.625l9.875,-2.25l26.62499,-4.5l15.37499,-3l10.5,-1.375l27.49999,-5.375l16.99999,-4.25l14.74999,-2.875l32.24999,-8.125l30.37499,-8l20.99999,-5.875l10.5,-3l19.49999,-4.875l31.62499,-7.5l30.99999,-8.875l28.62499,-7.625l20.74999,-5.25l34.99998,-10.75l50.62498,-15.87499l42.24998,-14.12499l15.12499,-5.25l38.74998,-10.625l7.375,-3.125l9.5,-1.875l20.74999,-6.5l7.5,-2.125l-1.25,1.875l-1.5,2.75l-0.375,2.75l-0.625,2.25l-11.5,3l-14.99999,3l-5.875,2.625l-19.37499,5.75l-43.62498,15.12499l-12.49999,3.125l-25.62499,8.875l-15.87499,5.625l-23.99999,7.125l-31.37499,10.25l-31.12499,9.5l-29.24999,7.5l-19.87499,5.625l-11.5,2.5l-19.87499,5.125l-30.12499,7l-25.12499,5l-31.49999,8.375l-39.37498,9.875l-19.49999,4.125l-28.12499,7.25l-14.49999,3.25l-6.625,0.75l-25.99999,3.875l-12.24999,1.125l-13.49999,2.375l-17.12499,-0.125l-1.625,-1.125l-11,0.125l-4.75,-1.625l-9.5,-0.5l-7.25,-2.875l-1.75,-1c0.12467,0.06232 -2.62533,-10.06268 -2.62533,-10.06268c-0.375,-2 -1.25,-4.5 -1.37467,-4.56232c0.12467,-0.31268 0.32801,-2.28171 0.62467,-5.93768z" opacity="NaN" fill="#fff"/>
  <path class="product-shape4 shape"  style="vector-effect: non-scaling-stroke;" id="svg_19" d="m1003.7495,582.1247l-1.5,-5.99993c-1.37513,-0.06266 -2.37527,0.6873 -2.37527,0.6873c0,0 -1.87499,2.125 -1.99966,2.06268c0.12467,0.06232 -0.37533,1.93732 -0.5,1.875c0.12467,0.06232 -0.37533,2.06232 -0.5,2c0.06233,0.03116 0.2905,-0.04273 -0.00161,0.46715l6.87654,-1.0922z" opacity="NaN" fill="#fff"/>
  <path class="product-shape4 shape" id="svg_20" d="m1017.77155,568.36312l10.46176,-3.9409l3.49952,0.12498l-3.6245,3.49952l-5.49924,4.24941l-2.49966,0.87488l-2.33788,-4.8079z" opacity="NaN"  fill="#fff"/>
  <path class="product-shape4 shape"  style="vector-effect: non-scaling-stroke;" id="svg_21" d="m1030.08215,564.48894l10.8994,-12.81496l2.06222,-5.24926l18.30997,-26.68385l2.49966,-4.18692l1.37481,-5.18675l-4.62436,-0.56246l2.49966,-9.12374l1.62478,0.24997l3.24955,2.8746l0.99986,1.99972l-0.12498,5.37426l-1.24983,5.24928l-3.37453,6.4991l-14.99793,21.87199l-1.12484,0.99986l-4.74935,9.37371l-1.12484,1.74976l-8.49883,6.4991l-1.99975,1.18747l-1.65065,-0.12089z" opacity="NaN" fill="#fff"/>
  <path class="product-shape4 shape" style="vector-effect: non-scaling-stroke;" id="svg_35" d="m1006.67344,575.83409l1.33354,0.61542c0.03867,0.00831 1.41087,0.50729 1.41087,0.50729c0,0 0.60877,0.10812 1.27116,0.11644c0.66239,0.00831 1.72273,-0.36593 1.72273,-0.36593c0,0 1.18508,-0.56136 1.14642,-0.56967c0.03867,0.00831 0.53765,-1.05203 0.53765,-1.05203c0,0 0.12475,-1.12271 0.08608,-1.13102c0.03867,0.00831 -1.08404,0.32017 -1.12271,0.31186c0.03867,0.00831 -2.26913,-0.17881 -2.30779,-0.18712c0.03867,0.00831 -2.70574,-0.17881 -2.7444,-0.18712c0.03867,0.00831 -2.26913,0.44492 -2.30779,0.43661c0.03867,0.00831 0.16341,0.69441 0.12475,0.6861c0.03867,0.00831 0.53765,0.88153 0.84951,0.81916z" opacity="NaN" fill="#fff"/>
<!--elastic1-->
  <path class="product-shape5 shape"  style="vector-effect: non-scaling-stroke;" id="svg_23" d="m1037.2225,482.39139l-2.11446,-0.96178l-1.87497,0.125l-5.9374,-1.93747l-14.43726,-8.43736l-11.43731,-7.37488l-8.18737,-6.2499l-17.31222,-10.87482l-5.49991,-3.49994l-2.68746,-1.62497l3.06245,-3.31245l2.62496,-0.93748l4.31243,0.62499l5.18742,2.49996l2.24996,-2.12497l0.56249,-3.06245l-1.93747,-2.06247c0.05199,0.0243 -2.01048,-1.28818 -2.01048,-1.28818c0,0 -5.8749,-0.81249 -5.92689,-0.83678c0.05199,0.0243 -4.38544,0.0243 -4.43743,0c0.05199,0.0243 -3.51045,1.71177 -3.56244,1.68747c0.05199,0.0243 -3.19796,2.33676 -3.24995,2.31246c0.05199,0.0243 -3.88544,-0.2882 -3.93744,-0.31249c0.05199,0.0243 -8.19787,-3.60064 -8.24986,-3.62494c0.05199,0.0243 -13.76028,-6.0381 -13.81227,-6.0624c0.05199,0.0243 -12.26031,-5.66311 -12.3123,-5.68741c0.05199,0.0243 -11.13533,-4.16314 -18.99969,-6.56239c0.05199,0.0243 -14.51027,-4.03814 -14.51027,-4.03814c0,0 -4.06243,-1.31248 -4.11442,-1.33677c0.05199,0.0243 -0.3855,5.7742 -0.43749,5.74991c0.05199,0.0243 4.67691,1.71177 4.62492,1.68747c0.05199,0.0243 1.92696,0.96178 1.87497,0.93748c0.05199,0.0243 12.36429,3.83673 12.3123,3.81244c0.05199,0.0243 6.42689,2.14926 6.3749,2.12497c0.05199,0.0243 14.23926,5.6492 14.18727,5.62491c0.05199,0.0243 3.42693,1.71177 3.37494,1.68747c0.05199,0.0243 12.05179,6.39919 11.9998,6.3749c0.05199,0.0243 2.86444,1.64927 6.2499,3.62494c0.05199,0.0243 4.48942,2.46176 4.43743,2.43746c0.05199,0.0243 2.73945,1.77427 2.68746,1.74997c0.05199,0.0243 1.17697,1.14928 1.12498,1.12498c0.05199,0.0243 -1.63548,1.89927 -1.68747,1.87497c0.05199,0.0243 -2.82296,2.77425 -2.87495,2.74995c-2.51047,2.96175 -3.07296,3.52424 -3.12495,3.49994c0.11449,0.21179 -0.573,0.83678 -0.62499,0.81249c0.05199,0.0243 -3.63545,3.02425 -3.68744,2.99995c0.05199,0.0243 -5.07293,2.83675 -5.12492,2.81245c0.05199,0.0243 -5.57292,0.89928 -5.62491,0.87499c0.05199,0.0243 0.48948,3.64924 0.68749,4.43743c0.73948,0.14929 4.42692,0.33679 4.37493,0.31249c0.05199,0.0243 5.05191,-1.66318 4.99992,-1.68747c0.05199,0.0243 3.55193,-1.47568 3.49994,-1.49998c0.05199,0.0243 3.17694,-2.47566 3.12495,-2.49996c0.05199,0.0243 2.98944,-2.85066 2.93745,-2.87495c0.05199,0.0243 2.92694,-3.22565 2.87495,-3.24995c0.05199,0.0243 4.05193,-3.16315 3.99993,-3.18745c0.05199,0.0243 2.36445,-1.91317 2.31246,-1.93747c0.05199,0.0243 7.36437,4.83672 7.31238,4.81242c0.05199,0.0243 6.30189,3.21174 6.2499,3.18745c0.05199,0.0243 5.8019,3.89923 11.12482,7.87487c0.11449,0.0243 6.55188,3.89923 6.49989,3.87494c0.05199,0.0243 9.86433,6.21169 9.81234,6.1874c0.05199,0.0243 3.80193,2.33676 6.43739,4.12493c0.05199,0.0243 5.98939,3.21174 5.9374,3.18745c0.05199,0.0243 9.36434,5.14921 9.31235,5.12492c0.36449,0.33679 6.36439,3.21174 6.3124,3.18745c0.05199,0.0243 2.61445,1.64927 2.56246,1.62497c0.05199,0.0243 3.73943,0.39929 3.73943,0.39929c0,0 1.31248,-0.43749 1.26049,-0.46179c0.05199,0.0243 -0.01051,-6.4131 -0.0625,-6.43739c0.05199,0.0243 -1.44798,-1.35068 -1.49998,-1.37498c0.05199,0.0243 -0.448,-0.1632 -1.32299,-0.72569z" opacity="NaN" fill="#fff"/>
  <path class="product-shape5 shape"  style="vector-effect: non-scaling-stroke;" id="svg_24" d="m901.91222,460.39175l3.57295,1.91317l1.93747,-0.125l0.87499,-2.24996l-0.62499,-4.06243l-1.56247,-2.37496l-2.18746,0.1875l-4.74992,-1.43748l-6.1249,-2.43746l-5.8749,-2.87495l-4.18743,-2.49996l-0.93748,-0.62499l-7.18738,-3.43744l-7.74987,-4.56243l-9.49984,-5.31241l-8.06237,-4.74992l-13.74977,-8.24986l-5.49991,-3.31245l-3.49994,-2.43746l6.2499,-3.99993l3.81244,-1.43748l5.12492,-1.49998l5.18742,-0.49999l6.3124,0.93748l4.56243,0.99998l4.12493,0.43749l0.1875,-4.56243l-2.18746,-1.37498l-4.12493,-1.06248l-4.12493,-1.12498l-2.87495,-0.43749l-4.31243,-0.0625l-4.31243,0.0625l-3.31245,0.81249l-3.12495,1.06248l-1.68747,0.62499l-2.74995,1.12498l-2.93745,1.37498l-2.74995,2.12497l-2.99995,2.49996l-1.49998,-1.06248l-1.68747,-1.49998l-6.0624,-4.24993l-5.18742,-4.06243l-2.62496,-1.68747l-3.99993,-2.12497l-0.93748,-1.31248l-4.49993,-2.62496l-14.93726,-7.37488l-5.68741,-2.24996l-6.93739,-2.56246l-6.56239,-2.43746l-5.12492,-1.81247l-2.06247,-0.31249l-0.43749,2.49996l-0.43749,2.18746l-0.74999,0.81249l-0.25,0.62499l3.62494,1.99997l8.43736,2.93745l3.06245,1.24998l6.0624,1.62497l9.31235,3.74994l4.06243,2.24996l4.31243,2.81245l5.74991,3.12495l3.24995,1.62497l4.74992,3.74994l4.18743,2.43746l4.12493,2.93745l3.68744,2.12497l-2.31246,2.12497l-1.99997,1.93747l-3.12495,2.31246l-3.18745,2.06247l-8.56236,3.37494l-4.43743,1.43748l-0.68749,0.62499l0.31249,3.93744l0.81249,-0.1875l2.87495,0.56249l3.24995,-0.49999l3.93744,-1.18748l8.18737,-4.24993l8.12487,-5.37491l2.56246,-1.56247l4.49993,2.87495l4.87492,2.43746l4.31243,3.18745l5.31241,2.93745l7.62488,4.68742l5.18742,2.81245l1.87497,0.93748l7.18738,4.43743l5.06242,2.74995l5.18742,2.74995l6.56239,3.49994l6.99989,3.74994l7.81237,3.37494l7.86436,3.52424z" opacity="NaN" fill="#fff"/>
  <path class="product-shape5 shape"  id="svg_25" d="m757.97717,413.23613l0.13541,-1.05538l1.18748,0.37499l1.62497,1.24998l1.43748,1.43748l0.43749,2.24996l0.3125,2.24996c0.05199,0.05555 -0.448,2.55551 -0.448,2.55551c0,0 -0.99999,0.87498 -1.05198,0.81944c0.05199,0.05554 -1.38548,0.05554 -1.38548,-0.00696c0,-0.06249 -1.74998,-1.12498 -1.74998,-1.12498c0,0 -1.56247,-0.62499 -1.61446,-0.68053c0.05199,0.05554 -1.44799,-0.94444 -1.49997,-0.99999c0.05198,0.05555 -4.19795,-2.50691 -4.24993,-2.56245c0.05198,0.05554 -4.94793,-3.1944 -4.99992,-3.24995c0.05199,0.05555 -7.63539,-5.19437 -7.68738,-5.24991c0.05199,0.05554 -5.32292,-3.6944 -5.37491,-3.74994c0.05199,0.05554 -6.07291,-4.56938 -6.1249,-4.62493c0.05199,0.05555 -3.94794,-3.63189 -3.99993,-3.68744c0.05199,0.05555 -2.51047,-2.25691 -2.56246,-2.31246c0.05199,0.05555 -5.63542,-4.44438 -5.68741,-4.49992c0.05199,0.05554 -2.37662,-1.95085 -5.7499,-4.74993c0.05198,0.05555 -8.32288,-7.31933 -8.37487,-7.37488c0.05199,0.05555 -8.19787,-6.69434 -8.24986,-6.74989c0.05199,0.05555 -1.76048,-1.38193 -1.81247,-1.43747c0.05199,0.05554 -1.32299,1.05553 -1.37498,0.99998c0.05199,0.05555 -2.82296,1.05553 -2.87495,0.99999c0.05199,0.05554 -4.76044,1.18052 -4.81242,1.12498c0.05198,0.05554 -5.38543,0.68053 -5.43741,0.62499c0.05198,0.05554 -5.13543,0.05554 -5.18742,0c0.05199,0.05554 -1.75684,-0.23059 -4.24993,-0.37495c0.23934,0.05555 -5.38542,-1.06948 -5.43741,-1.12503c0.05199,0.05555 -4.13544,-0.75694 -4.18743,-0.81249c0.05199,0.05555 -9.26036,-2.38191 -9.31235,-2.43746c0.05199,0.05555 -4.32294,-1.13193 -4.37493,-1.18748c0.05199,0.05555 -5.38542,-1.19443 -5.43741,-1.24998c0.05199,0.05555 0.48948,-1.75692 0.43749,-1.81247c0.05199,0.05555 0.36449,-2.69441 0.3125,-2.74995c0.05199,0.05554 0.23948,-1.19444 0.1875,-1.24998c0.05198,0.05554 0.98947,0.43054 0.93748,0.37499c0.05199,0.05555 2.61445,0.24304 2.56246,0.1875c0.05199,0.05554 3.86442,0.93053 3.81244,0.87499c0.05198,0.05554 5.67689,1.18052 5.6249,1.12498c0.05199,0.05554 1.30197,0.30554 1.24998,0.24999c0.05199,0.05555 7.11438,2.05552 7.06239,1.99997c0.05199,0.05555 5.3644,1.43052 5.31241,1.37498c0.05199,0.05554 6.42688,0.24304 6.3749,0.18749c0.05198,0.118 5.55189,-0.75694 5.49991,-0.81248c0.05198,0.05554 3.98942,-1.00694 3.93743,-1.06248c0.05199,0.05554 1.55197,-0.44445 1.49998,-0.5c0.05199,0.05555 2.42695,-0.44444 2.37496,-0.49999c0.05199,0.05555 -4.76043,-3.75689 -4.81242,-3.81244c0.05199,0.05555 -5.94792,-4.50688 -5.9999,-4.56242c0.05198,0.05554 -3.69796,-2.31942 -3.74994,-2.37496c0.05198,0.05554 -4.13545,-2.88191 -4.18743,-2.93745c0.05198,0.05554 -4.13545,-2.25692 -4.18744,-2.31247c0.05199,0.05555 -9.88535,-6.69434 -9.93733,-6.74989c0.05198,0.05555 -4.63544,-2.50691 -4.68743,-2.56245c0.05199,0.05554 -5.69791,-3.8194 -5.7499,-3.87494c0.05199,0.05554 -5.38543,-2.25692 -5.43741,-2.31246c0.05198,0.05554 -1.76049,-1.06944 -5.49991,-3.49994c0.02599,0.02777 -3.41407,-1.3802 -6.67965,-2.73955c-1.63279,-0.67968 -6.12815,-2.78467 -6.19519,-2.72326c-0.03352,0.03071 -3.69426,-1.72507 -4.68032,-2.27153c-0.49303,-0.27323 -4.62982,-2.82222 -7.6852,-4.5069c-1.52769,-0.84234 -4.03501,-2.43733 -5.02508,-2.90032c-0.99007,-0.46298 -3.96285,-2.23142 -3.98401,-2.48316l1.58789,-2.76964l2.04403,-1.75984l15.39796,6.12053l15.6995,7.56057l21.85068,11.90582l16.55071,10.57822l15.80065,12.07832l9.60705,5.85003l9.46473,-1.22517l9.46473,-0.2251l7.58961,1.02498l2.29469,3.38768l1.14735,4.194l-10.10339,-1.30635l-11.09913,0.27493l-3.16127,1.15009l5.29487,5.10621l5.04508,4.41923l8.69441,7.72507l7.94498,6.72584l2.70747,2.1425l6.4938,4.68008l6.5256,5.02544l3.15322,2.02779l4.00335,2.68447l7.48838,4.17804z" opacity="NaN" fill="#fff"/>
  <path class="product-shape5 shape"  style="vector-effect: non-scaling-stroke;" id="svg_26" d="m600.12857,341.59086l0.96609,1.07994l0.43716,2.0609l0.24981,2.0609c0.03313,0.04419 -0.21667,2.35489 -0.21667,2.35489c0,0 0.06245,2.37315 0,2.37315c-0.06245,0 -1.24903,0.99922 -1.28216,0.95503c0.03313,0.04419 -0.84119,0.6687 -0.87432,0.62451c0.03313,0.04419 -1.96531,-0.76768 -1.99844,-0.81187c0.03313,0.04419 -1.02854,-0.76768 -1.06167,-0.81187c0.03313,0.04419 -3.83885,-2.57877 -3.87199,-2.62296c0.03313,0.04419 -1.77796,-1.39219 -1.81109,-1.43638c0.03313,0.04419 -4.02621,-2.70367 -4.05934,-2.74786c0.03313,0.04419 -5.77485,-4.45231 -5.80798,-4.4965c0.03313,0.04419 -5.08788,-4.01515 -5.12101,-4.05934c0.03313,0.04419 -3.90131,-3.14083 -3.93444,-3.18502c0.03313,0.04419 -5.33769,-4.26496 -5.37082,-4.30915c0.03313,0.04419 -6.58672,-4.70212 -6.61985,-4.74631c0.03313,0.04419 -4.46337,-3.32819 -4.4965,-3.37238c0.03313,0.04419 -9.89664,-5.32663 -9.92977,-5.37082c0.03313,0.04419 -0.52893,-0.20562 -0.56206,-0.24981c0.03313,0.16909 -2.58983,0.04419 -2.62296,0c-0.09177,0.16909 -2.52738,1.60547 -2.56051,1.56128c0.03313,0.04419 -3.4017,0.29399 -3.43483,0.24981c0.03313,0.04419 -0.71629,-0.26807 -0.74942,-0.31226c0.03313,0.04419 -0.71629,-3.70289 -0.71629,-3.70289c0,0 -1.12413,-2.81031 -1.15726,-2.8545c0.03313,0.04419 0.09558,-2.45387 0.06245,-2.49806c0.03313,0.04419 0.90364,-1.23077 0.99922,-1.12413c0.09558,0.10664 4.03002,0.04419 3.99689,0c0.03313,0.04419 3.78021,0.10664 3.74708,0.06245c0.03313,0.04419 1.15726,-1.01749 1.87354,-1.81109c0.71629,-0.79361 4.03002,-5.95115 3.99689,-5.99533c0.03313,0.04419 0.59519,-1.5171 0.59519,-1.57955c0,-0.06245 2.0609,-2.37315 2.02776,-2.41734c0.03313,0.04419 2.40628,-1.8918 2.37315,-1.93599c0.03313,0.04419 1.84422,-0.39297 1.81109,-0.43716c0.03313,0.04419 4.09247,-0.45542 4.05934,-0.49961c0.03313,0.04419 2.09403,0.10664 2.0609,0.06245c0.03313,0.04419 1.65687,1.16831 1.62374,1.12413c0.03313,0.04419 2.28138,1.29322 2.24825,1.24903c0.03313,0.04419 0.59519,1.54302 0.59519,1.54302c0,0 -0.24981,2.37315 -0.28294,2.32896c0.03313,0.04419 -1.09099,1.04341 -1.12413,0.99922c0.03313,0.04419 -0.27913,1.35567 -0.31226,1.31148c0.03313,0.04419 -4.58827,-0.95503 -4.6214,-0.99922c0.03313,0.04419 -2.58983,0.6687 -2.62296,0.62451c0.03313,0.04419 -1.15345,1.54302 -1.18658,1.49883c0.03313,0.04419 -1.65306,2.6047 -1.68619,2.56051c0.03313,0.04419 -1.40325,2.66715 -1.43638,2.62296c0.03313,0.04419 -1.84422,1.45464 -2.0609,1.56128c-0.21667,0.10664 1.03235,1.35567 0.99922,1.31148c0.03313,0.04419 3.09325,1.23077 3.06012,1.18658c0.03313,0.04419 7.27749,4.85295 7.24436,4.80876c0.03313,0.04419 4.59208,3.54147 4.55895,3.49728c0.03313,0.04419 7.6522,5.66481 7.61907,5.62063c0.03313,0.04419 5.09169,4.35334 5.49572,4.68385c0.40403,0.33052 6.21582,4.35334 6.18269,4.30915c0.03313,0.04419 5.09169,4.16598 5.05856,4.12179c0.03313,0.04419 1.40706,1.23077 1.37393,1.18658c0.03313,0.04419 7.5273,4.29088 7.49417,4.24669c0.03313,0.04419 0.30175,-0.56901 0.78255,-1.45464z" opacity="NaN" fill="#fff"/>
  <path class="product-shape5 shape"  style="vector-effect: non-scaling-stroke;" id="svg_28" d="m511.11369,315.71365l-3.22254,-0.80489c0.03533,0.05495 -4.52675,-0.75747 -4.52675,-0.75747c0,0 -3.68716,-0.37497 -3.68716,-0.37497c0,0 -4.74957,-0.24998 -4.74957,-0.24998c0,0 -5.62449,0.18748 -5.68698,0.18748c-0.06249,0 -4.93705,0.31247 -4.97238,0.25752c0.03533,0.05495 -4.90172,1.17985 -4.93705,1.1249c0.03533,0.05495 -5.65165,1.86729 -5.68698,1.81233c0.03533,0.05495 -5.83913,2.55473 -5.87446,2.49977c0.03533,0.05495 -4.90172,2.42974 -4.93705,2.37478c0.03533,0.05495 -4.15179,2.8672 -4.18712,2.81224c0.03533,0.05495 -5.77664,5.11699 -5.81197,5.06204c0.03533,0.05495 -4.52675,4.05459 -4.56208,3.99964c0.03533,0.05495 -5.02671,5.86692 -5.06204,5.81197c0.03533,0.05495 -3.77682,6.55436 -3.83932,6.61685c-0.06249,0.06249 -2.1873,4.06213 -2.22263,4.00718c0.03533,0.05495 -1.33954,3.42965 -1.37487,3.37469c0.03533,0.05495 -1.96449,5.11699 -1.99982,5.06204c0.03533,0.05495 -1.21455,3.9296 -1.24989,3.87465c0.03533,0.05495 -1.15206,5.61695 -1.18739,5.56199c0.03533,0.05495 -1.15206,5.86692 -1.18739,5.81197c0.03533,0.05495 -0.46462,4.61704 -0.49995,4.56208c0.03533,0.05495 -0.02716,2.36724 -0.06249,2.31229c0.03533,0.05495 -2.83941,1.36733 -2.87474,1.31238c0.03533,0.05495 -2.15197,2.8672 -2.1873,2.81224c0.03533,0.05495 -0.77971,0.97456 -1.43737,2.1873c0.03533,0.05495 -1.71451,2.42974 -1.74984,2.37478c0.03533,0.05495 -1.21455,2.55473 -1.27705,2.55473c-0.06249,0 -1.0624,0.62494 -1.0624,0.56245c0,-0.06249 0.68744,-3.3122 0.68744,-3.3122c0,0 0.37497,-2.87474 0.37497,-2.87474c0,0 0.31247,-5.4995 0.31247,-5.4995c0,0 0.37497,-6.37442 0.33963,-6.42937c0.03533,0.05495 0.84776,-5.06958 0.81243,-5.12453c0.03533,0.05495 1.03524,-4.8196 0.99991,-4.87456c0.03533,0.05495 1.4727,-5.63203 1.43737,-5.68698c0.03533,0.05495 1.84767,-4.94459 1.81233,-4.99954c0.03533,0.05495 2.22263,-4.94459 2.1873,-4.99954c0.03533,0.05495 3.16005,-5.38205 3.12471,-5.437c0.03533,0.05495 2.09764,-3.19475 2.06231,-3.2497c0.03533,0.05495 0.9406,-1.38867 2.24979,-3.3122c0.03533,0.05495 2.16014,-3.19475 2.12481,-3.2497c0.03533,0.05495 2.97256,-3.7572 2.93723,-3.81215c0.03533,0.05495 3.22254,-2.94477 3.18721,-2.99973c0.03533,0.05495 3.78499,-3.19475 3.74966,-3.2497c0.03533,0.05495 4.47243,-3.44473 4.4371,-3.49968c0.03533,0.05495 2.84757,-1.94486 2.81224,-1.99982c0.03533,0.05495 1.28522,-0.75747 1.28522,-0.75747c0,0 -3.43719,0.87492 -3.47252,0.81997c0.03533,0.05495 -4.96421,2.30475 -4.99954,2.24979c0.03533,0.05495 -5.52666,2.99219 -5.56199,2.93723c0.03533,0.05495 -5.0892,2.92969 -5.12453,2.87474c0.03533,0.05495 -4.46426,2.8672 -4.49959,2.81224c0.03533,0.05495 -3.40186,2.36724 -3.46435,2.36724c-0.06249,0 -4.49959,3.3122 -4.49959,3.3122c0,0 -5.37451,4.18712 -5.37451,4.18712c0,0 -5.18703,4.18712 -5.18703,4.18712c0,0 -6.6244,4.87456 -6.65973,4.8196c0.03533,0.05495 -7.77646,6.30438 -7.81179,6.24943c0.03533,0.05495 -8.3389,7.11681 -8.37424,7.06186c0.03533,0.05495 -7.2765,6.67935 -7.31183,6.6244c0.03533,0.05495 -5.27668,4.49205 -5.31202,4.4371c0.03533,0.05495 -7.02652,6.36688 -7.06186,6.31192c0.03533,0.05495 -1.08957,1.55482 -5.437,5.74948c0.03533,0.05495 -5.83913,5.86692 -5.87446,5.81197c0.03533,0.05495 -4.08929,4.05459 -4.12462,3.99964c0.03533,0.05495 -3.83931,3.49214 -3.83931,3.49214c0,0 -2.62476,2.49977 -2.66009,2.44482c0.03533,0.05495 -5.21419,3.17967 -5.21419,3.17967c0,0 -3.81215,2.37478 -3.84748,2.31983c0.03533,0.05495 -6.1516,4.11708 -6.18694,4.06213c0.03533,0.05495 -6.2141,3.99209 -6.24943,3.93714c0.03533,0.05495 -7.90144,4.30457 -7.90144,4.30457c0,0 -9.24916,4.62458 -9.28449,4.56963c0.03533,0.05495 -1.81433,0.7532 -3.62467,1.43737c0.03533,0.05495 -5.90163,2.92969 -5.93696,2.87474c0.03533,0.05495 -5.90163,2.61722 -5.93696,2.56227c0.03533,0.05495 -5.58915,2.24225 -5.62449,2.1873c0.03533,0.05495 -6.71405,2.49223 -6.77655,2.49223c-0.06249,0 -6.81188,2.24979 -6.84721,2.19484c0.03533,0.05495 -5.90163,1.7423 -5.93696,1.68735c0.03533,0.05495 -6.33909,1.80479 -6.37442,1.74984c0.03533,0.05495 -6.96403,1.42983 -6.99936,1.37487c0.03533,0.05495 -6.58906,1.17985 -6.6244,1.1249c0.03533,0.05495 -6.33909,0.80488 -6.37442,0.74993c0.03533,0.05495 -6.77655,1.05486 -6.81188,0.99991c0.03533,0.05495 -2.23222,0.24155 -4.3746,0.56245c0.03533,0.05495 -6.2141,0.24244 -6.27659,0.24244c-0.06249,0 -10.74902,0.43746 -10.78435,0.38251c0.03533,0.05495 -11.77609,-0.00754 -11.81142,-0.06249c0.03533,0.05495 -8.4014,-0.38251 -8.43673,-0.43746c0.03533,0.05495 -10.77618,-0.07004 -10.81151,-0.12499c0.03533,0.05495 -10.33872,-0.445 -10.37405,-0.49995c0.03533,0.05495 -9.15133,-1.19493 -9.18666,-1.24989c0.03533,0.05495 -8.77636,-0.75747 -8.8117,-0.81243c0.03533,0.05495 -5.33918,-1.19493 -5.37451,-1.24989c0.03533,0.05495 -0.83959,-1.69489 -0.87492,-1.74984c0.03533,0.05495 -0.02716,-1.13244 -0.06249,-1.18739c0.03533,0.05495 0.4103,-1.25743 0.34781,-1.31992c-0.06249,-0.06249 0.37497,-1.18739 0.37497,-1.18739c0,0 0.87492,-1.0624 0.83959,-1.11736c0.03533,0.05495 1.03524,-0.445 0.99991,-0.49995c0.03533,0.05495 1.72268,-0.19502 1.68735,-0.24998c0.03533,0.05495 2.03515,0.17994 2.09765,0.17994c0.06249,0 2.24979,0.43746 2.21446,0.38251c0.03533,0.05495 3.90998,0.36742 3.87465,0.31247c0.03533,0.05495 4.09746,0.55491 4.06213,0.49995c0.03533,0.05495 5.03488,0.30493 4.99954,0.24998c0.03533,0.05495 4.28495,0.49241 4.24961,0.43746c0.03533,0.05495 5.09737,0.42992 5.06204,0.37497c0.03533,0.05495 4.65991,0.30493 4.62458,0.24998c0.03533,0.05495 7.90961,0.42992 7.87428,0.37497c0.03533,0.05495 32.03241,0.36742 31.99708,0.31247c0.03533,0.05495 4.09746,-0.25752 4.06213,-0.31247c0.03533,0.05495 5.03488,-0.13253 4.99954,-0.18748c0.03533,0.05495 2.47261,-0.19502 2.43728,-0.24998c0.03533,0.05495 2.1758,0.04745 3.99964,-0.49995c0.03533,0.05495 7.09719,-0.75747 7.06186,-0.81243c0.03533,0.05495 7.97211,-1.13244 7.93678,-1.18739c0.03533,0.05495 5.97229,-1.25743 5.93696,-1.31238c0.03533,0.05495 5.47234,-1.44491 5.437,-1.49986c0.03533,0.05495 5.97229,-1.69489 5.93696,-1.74984c0.03533,0.05495 5.9098,-2.13235 5.87446,-2.1873c0.03533,0.05495 5.72231,-2.25734 5.68698,-2.31229c0.03533,0.05495 5.28485,-2.19484 5.24952,-2.24979c0.03533,0.05495 6.03478,-2.38232 5.99945,-2.43728c0.03533,0.05495 5.15986,-2.19484 5.12453,-2.24979c0.03533,0.05495 5.28485,-2.31983 5.24952,-2.37478c0.03533,0.05495 5.97229,-2.94477 5.93696,-2.99973c0.03533,0.05495 5.47234,-2.50731 5.437,-2.56227c0.03533,0.05495 4.7224,-2.44482 4.68707,-2.49977c0.03533,0.05495 1.30386,-0.34722 3.2497,-1.68735c0.03533,0.05495 4.97238,-3.00727 5.03488,-3.06976c0.06249,-0.06249 5.437,-3.68716 5.40167,-3.74212c0.03533,0.05495 6.22227,-3.94468 6.18694,-3.99964c0.03533,0.05495 3.53501,-2.81978 3.53501,-2.81978c0,0 4.49959,-3.81215 4.46426,-3.86711c0.03533,0.05495 5.34735,-4.75711 5.31202,-4.81206c0.03533,0.05495 4.59742,-4.63212 4.59742,-4.69461c0,-0.06249 5.12453,-4.99954 5.12453,-5.06204c0,-0.06249 4.49959,-4.81206 4.46426,-4.86701c0.03533,0.05495 4.28494,-4.00718 4.28494,-4.06967c0,-0.06249 1.67842,-1.06552 2.71442,-2.55473c0.03533,0.05495 4.03497,-3.63221 3.99964,-3.68716c0.03533,0.05495 4.84739,-4.19466 4.81206,-4.24961c0.03533,0.05495 4.28494,-3.56972 4.24961,-3.62467c0.03533,0.05495 4.59742,-3.63221 4.65991,-3.63221c0.06249,0 5.56199,-4.49959 5.52666,-4.55454c0.03533,0.05495 6.03478,-4.56962 6.03478,-4.56962c0,0 5.12453,-3.87465 5.0892,-3.9296c0.03533,0.05495 5.72231,-4.63212 5.68698,-4.68707c0.03533,0.05495 4.47243,-3.31974 4.4371,-3.37469c0.03533,0.05495 5.03487,-3.56972 4.99954,-3.62467c0.03533,0.05495 5.03487,-3.00727 4.99954,-3.06222c0.03533,0.05495 4.40993,-2.31983 4.3746,-2.37478c0.03533,0.05495 1.97265,-1.44491 4.93705,-2.87474c0.03533,0.05495 4.59741,-1.88237 4.56208,-1.93732c0.03533,0.05495 6.15977,-2.25733 6.12444,-2.31229c0.03533,0.05495 6.09728,-2.19484 6.06195,-2.24979c0.03533,0.05495 6.28476,-1.94486 6.28476,-1.94486c0,0 6.68689,-2.06231 6.65156,-2.11727c0.03533,0.05495 4.40993,-1.00745 4.3746,-1.0624c0.03533,0.05495 5.90979,-0.81997 5.87446,-0.87492c0.03533,0.05495 4.40993,-0.32001 4.3746,-0.37497c0.03533,0.05495 7.65963,-0.00754 7.6243,-0.06249c0.03533,0.05495 6.34725,0.17994 6.31192,0.12499c0.03533,0.05495 3.47252,0.30493 3.43719,0.24998c0.03533,0.05495 3.78499,0.74239 3.74966,0.68744c0.03533,0.05495 3.03506,0.92987 2.99973,0.87492c0.03533,0.05495 3.03506,0.6174 2.99973,0.56245c0.03533,0.05495 1.84766,0.36743 1.84766,0.36743c0,0 1.18739,1.1249 1.15206,1.06994c0.03533,0.05495 0.3478,2.05477 0.31247,1.99982c0.03533,0.05495 -0.52712,3.17967 -0.56245,3.12471c0.03533,0.05495 -1.58952,1.92978 -1.62485,1.87483c0.03533,0.05495 -0.7771,1.30484 -0.7771,1.36733c0,0.06249 -0.49995,1.56236 -0.53528,1.5074c0.01767,0.02748 0.01087,0.27557 -0.02377,0.5871c-0.03464,0.31153 -0.09714,0.68649 -0.19088,0.96772z" opacity="NaN" fill="#fff"/>
    <path class="product-shape4 shape" id="svg_22" d="m1006.28551,449.82943l3.19796,2.16317l5.12492,2.81245l5.37491,3.93744l5.56241,3.81244l7.24988,6.68739l6.3124,4.74992l6.2499,5.49991l1.93747,2.06247l1.56247,0.81249l4.81242,0.37499l3.56244,-0.49999l0.99998,-0.62499l-3.87494,-4.12493l-4.99992,-4.18743l-7.99987,-6.3124l-4.43743,-3.24995l-9.87484,-6.99989l-5.24991,-3.49994l-7.99987,-4.93742l-4.93742,-3.18745l-1.43748,1.87497l-0.62499,1.24998l-0.5105,1.58677z" opacity="NaN"  fill="#fff"/>
  <!--elastic2-->
  <path class="product-shape6 shape"  style="vector-effect: non-scaling-stroke;" id="svg_29" d="m1007.66532,566.23786l-3.85652,0.32602l-3.11162,1.12018l-1.49358,1.61804l-3.98287,2.24037l-1.49358,2.24037l-2.86269,4.6052l-1.49358,2.61376l-0.49786,2.73823l-0.62232,2.4893l-0.12446,4.72966l0.37339,5.10306c0.12257,0.04737 1.61615,5.15043 1.61615,5.15043c0,0 3.36055,5.22752 3.23798,5.18015c0.12257,0.04737 3.98098,4.27918 3.85841,4.2318c0.12257,0.04737 5.47456,3.28346 5.35199,3.23609c0.12257,0.04737 5.97242,2.66113 5.84985,2.61376c0.12257,0.04737 6.22135,2.4122 6.09878,2.36483c0.12257,0.04737 4.35438,1.16756 4.2318,1.12018c0.12257,0.04737 4.72777,1.29202 4.6052,1.24465c0.12257,0.04737 4.47884,2.03881 4.35627,1.99144c0.12257,0.04737 3.10973,0.42077 2.98716,0.37339c0.12257,0.04737 1.86508,0.42077 1.74251,0.37339c0.12257,0.04737 3.35866,4.27918 3.23609,4.2318c0.12257,0.04737 3.60759,4.40364 3.48502,4.35627c0.12257,0.04737 5.47456,5.2749 5.35199,5.22752c0.12257,0.04737 4.22991,3.65685 4.10734,3.60948c0.12257,0.04737 3.23419,2.7856 3.11162,2.73823c0.12257,0.04737 0.3715,2.91006 0.24893,2.86269c0.12257,0.04737 -0.00189,3.78132 -0.12446,3.73394c0.12257,0.04737 0.24704,3.15899 0.12446,3.11162c0.12257,0.04737 0.86936,2.66113 0.74679,2.61376c0.12257,0.04737 2.36294,1.54095 2.24037,1.49358c0.12257,0.04737 2.73633,0.17184 2.73633,0.17184c0,0 2.98716,0.12446 2.86458,0.07709c0.12257,0.04737 2.23847,-0.32602 2.1159,-0.37339c0.12257,0.04737 1.74061,-0.69942 1.61804,-0.74679c0.12257,0.04737 0.99383,-1.44621 0.87125,-1.49358c0.12257,0.04737 0.99383,-1.69513 0.87125,-1.74251c0.12257,0.04737 1.86508,-0.94835 1.74251,-0.99572c0.12257,0.04737 1.61615,-0.69942 1.49358,-0.74679c0.12257,0.04737 1.49169,-0.94835 1.36911,-0.99572c0.12257,0.04737 0.62043,-1.07281 0.49786,-1.12018c0.12257,0.04737 3.48312,-0.32602 3.36055,-0.37339c0.12257,0.04737 4.10545,-0.45049 3.98287,-0.49786c0.12257,0.04737 4.10545,-0.69942 3.98287,-0.74679c0.12257,0.04737 6.22135,-0.20156 6.09878,-0.24893c0.12257,0.04737 4.10545,-0.07709 3.98287,-0.12446c0.12257,0.04737 5.47456,-0.20156 5.35199,-0.24893c0.12257,0.04737 4.10545,0.17184 3.98287,0.12446c0.12257,0.04737 2.36294,0.54523 2.36294,0.54523c0,0 2.86269,0.24893 2.74012,0.20156c0.12257,0.04737 1.98954,-0.20156 1.86697,-0.24893c0.12257,0.04737 0.3715,-1.32174 0.24893,-1.36911c0.12257,0.04737 -1.49547,-1.19728 -1.61804,-1.24465c0.12257,0.04737 -0.00189,-1.94406 -0.12446,-1.99144c0.12257,0.04737 -0.37529,-2.31746 -0.49786,-2.36483c0.12257,0.04737 -0.99761,-1.44621 -1.12018,-1.49358c0.12257,0.04737 -0.00189,-1.07281 -0.12446,-1.12018c0.12257,0.04737 3.60759,0.04737 3.48502,0c0.12257,0.04737 2.8608,-0.69942 2.73823,-0.74679c0.12257,0.04737 1.74061,-0.94835 1.61804,-0.99572c0.12257,0.04737 0.7449,-0.94835 0.62232,-0.99572c0.12257,0.04737 -1.37101,-0.82388 -1.49358,-0.87125c0.12257,0.04737 -0.99761,-1.19728 -1.12018,-1.24465c0.12257,0.04737 -1.61994,-2.56639 -1.74251,-2.61376c0.12257,0.04737 -1.24654,-1.94406 -1.36911,-1.99144c0.12257,0.04737 -1.12208,-1.07281 -1.24465,-1.12018c0.12257,0.04737 -1.86887,0.6697 -1.99144,0.62232c0.12257,0.04737 -0.62422,1.04309 -0.62422,1.04309c0,0 -1.74251,0.62232 -1.86508,0.57495c0.12257,0.04737 -1.99333,1.29202 -1.99333,1.16756c0,-0.12446 -2.98716,0.99572 -3.10973,0.94835c0.12257,0.04737 -4.73156,1.54095 -4.85413,1.49358c0.12257,0.04737 -3.98477,1.16756 -4.10734,1.12018c0.12257,0.04737 -4.73156,1.04309 -4.85413,0.99572c0.12257,0.04737 -4.2337,0.91863 -4.35627,0.87125c0.12257,0.04737 -2.98905,0.79416 -3.11162,0.74679c0.12257,0.04737 -2.86458,0.91863 -2.98716,0.87125c0.12257,0.04737 -2.61565,0.42077 -2.73823,0.37339c0.12257,0.04737 -1.24654,0.17184 -1.36911,0.12446c0.12257,0.04737 -1.49547,-1.94406 -1.61804,-1.99144c0.12257,0.04737 -0.99761,-1.19728 -1.12018,-1.24465c0.12257,0.04737 -1.37101,-0.45049 -1.49358,-0.49786c0.12257,0.04737 -0.87315,-1.07281 -0.99761,-1.07281c-0.12446,0 -1.86697,-0.12446 -1.98954,-0.17184c0.12257,0.04737 -1.37101,-0.07709 -1.49358,-0.12446c0.12257,0.04737 -2.11779,0.42077 -2.24037,0.37339c0.12257,0.04737 -1.37101,0.2963 -1.49358,0.24893c0.12257,0.04737 -1.61994,-2.06853 -1.74251,-2.1159c0.12257,0.04737 -2.49119,-2.81532 -2.61376,-2.86269c0.12257,0.04737 -1.86886,-1.94406 -1.99144,-1.99144c0.12257,0.04737 -1.86886,-1.69513 -1.99144,-1.74251c0.12257,0.04737 -1.7444,-1.69513 -1.86697,-1.74251c0.12257,0.04737 -1.99333,-1.8196 -2.1159,-1.86697c0.12257,0.04737 -1.7444,-1.57067 -1.86697,-1.61804c0.12257,0.04737 -2.11779,0.42077 -2.24037,0.37339c0.12257,0.04737 -0.99761,-1.32174 -1.12018,-1.36911c0.12257,0.04737 -0.49975,-2.44192 -0.49975,-2.44192c0,0 -1.36911,-3.73394 -1.49169,-3.78132c0.12257,0.04737 -1.49547,-3.31318 -1.61804,-3.36055c0.12257,0.04737 -1.86886,-1.8196 -1.99144,-1.86697c0.12257,0.04737 -2.86458,-1.19728 -2.98716,-1.24465c0.12257,0.04737 -2.61565,0.17184 -2.73823,0.12446c0.12257,0.04737 -0.62422,1.29202 -0.74679,1.24465c0.12257,0.04737 0.7449,3.03453 0.62232,2.98716c0.12257,0.04737 0.86936,3.53239 0.74679,3.48502c0.12257,0.04737 0.99383,1.66542 0.24893,1.74251c-0.25082,-0.32602 -1.24654,-2.06853 -1.36911,-2.1159c0.12257,0.04737 -1.86886,-1.44621 -1.99144,-1.49358c0.12257,0.04737 -2.74012,-0.69942 -2.86269,-0.74679c0.12257,0.04737 -2.86458,-0.69942 -2.98716,-0.74679c0.12257,0.04737 -2.98905,-0.82388 -3.11162,-0.87125c0.12257,0.04737 -3.8603,-1.07281 -3.98287,-1.12018c0.12257,0.04737 -3.48691,-1.19728 -3.60948,-1.24465c0.12257,0.04737 -2.98905,-1.57067 -3.11162,-1.61804c0.12257,0.04737 -2.36672,-1.69513 -2.4893,-1.74251c0.12257,0.04737 -1.99333,-2.06853 -2.1159,-2.1159c0.12257,0.04737 -1.99333,-2.81532 -2.1159,-2.86269c0.12257,0.04737 -1.49547,-2.81532 -1.61804,-2.86269c0.12257,0.04737 -0.49975,-3.18871 -0.62232,-3.23609c0.12257,0.04737 -0.12636,-3.68657 -0.24893,-3.73394c0.12257,0.04737 0.24704,-3.9355 0.12446,-3.98287c0.12257,0.04737 0.3715,-3.06425 0.24893,-3.11162c0.12257,0.04737 0.49597,-2.06853 0.37339,-2.1159c0.12257,0.04737 0.62043,-1.69513 0.49786,-1.74251c0.12257,0.04737 1.74061,-1.94406 1.61804,-1.99144c0.12257,0.04737 0.99383,-0.57495 0.87125,-0.62232c0.12257,0.04737 1.74061,-0.32602 1.61804,-0.37339c0.12257,0.04737 1.61615,-1.19728 1.49358,-1.24465c0.12257,0.04737 2.4874,-0.57495 2.36483,-0.62232c0.12257,0.04737 2.36294,-0.32602 2.24037,-0.37339c0.12257,0.04737 2.98526,0.17184 2.86269,0.12446c0.12257,0.04737 2.36294,0.2963 2.24037,0.24893c0.12257,0.04737 1.11829,-0.32602 0.99572,-0.37339c0.12257,0.04737 0.49597,-1.69513 0.37339,-1.74251c0.12257,0.04737 0.3715,-2.19299 0.24893,-2.24037c0.12257,0.04737 0.12257,-2.31746 0,-2.36483c0.12257,0.04737 -0.99761,-1.07281 -1.12018,-1.12018c0.12257,0.04737 -2.24226,-0.32602 -2.36483,-0.37339c0.12257,0.04737 -1.92107,-0.13948 -3.48691,0.17184z" opacity="NaN" fill="#fff"/>
  <path class="product-shape6 shape"  style="vector-effect: non-scaling-stroke;" id="svg_31" d="m1032.06043,593.74458l-0.12257,-3.03453l-0.24893,-2.73823c0.12257,0.04737 -1.37101,-3.31318 -1.37101,-3.31318c0,0 -2.24037,-4.2318 -2.36294,-4.27918c0.12257,0.04737 -2.61565,-4.18443 -2.61565,-4.18443c0,0 -1.99144,-2.73823 -2.11401,-2.7856c0.12257,0.04737 -0.62422,-0.94835 -0.74679,-0.99572c0.12257,0.04737 -2.36672,0.54523 -2.4893,0.49786c0.12257,0.04737 -0.74868,0.6697 -0.87125,0.62232c0.12257,0.04737 2.11401,3.78132 1.99144,3.73394c0.12257,0.04737 1.36722,1.29202 1.24465,1.24465c0.12257,0.04737 1.36722,2.16327 1.49169,2.28774c0.12446,0.12446 1.49358,2.36483 1.49358,2.4893c0,0.12446 1.49358,2.61376 1.49358,2.61376c0,0 0.87125,2.36483 0.99572,2.36483c0.12446,0 0.74679,1.99144 0.74679,1.99144c0,0 0.24893,1.36911 0.12636,1.32174c-0.00189,-0.07709 1.86508,2.4122 3.35866,2.16327z" opacity="NaN" fill="#fff"/>
 </g>
</svg>