<svg id="product-svg" xmlns="http://www.w3.org/2000/svg" xmlns:xlink="http://www.w3.org/1999/xlink" viewBox="0 0 1280 850">
  
  <!--partie1-->
  <polygon class="product-shape1 shape" points="736.43 341.23 744.82 338.99 752.53 337.13 759.55 336.55 763.16 337.13 767.75 337.52 772.92 338.89 777.31 340.74 779.94 342.11 784.14 343.38 786.97 343.96 790.68 346.89 795.07 350.3 799.26 354.5 803.94 359.38 807.36 362.79 810.77 366.69 813.41 369.91 811.36 371.28 804.53 372.84 795.75 374.89 785.21 377.43 762.77 382.11 743.36 386.99 737.7 388.55 723.46 392.16 692.58 399.75 686.34 401.44 677.56 403.8 668.28 406.33 657.48 408.86 645.16 410.89 630.15 413.59 616.31 416.12 606.36 417.64 597.07 419.32 588.13 420.67 578.51 422.36 568.05 423.88 550.67 427.25 543.59 428.6 534.31 430.46 523 431.81 514.23 433.5 505.96 435.18 497.69 436.37 490.6 437.38 484.87 439.07 478.12 440.25 470.35 440.25 464.28 442.1 456.35 442.78 450.61 442.78 446.23 444.47 439.64 447 428.85 447.84 419.23 449.02 412.31 449.86 408.6 451.38 403.54 451.38 397.29 453.07 390.88 453.91 384.81 455.43 375.77 456.54 364.37 458.04 355.96 460.04 342.06 462.04 328.41 464.2 306.27 467.03 293.7 469.03 282.21 470.86 269.89 472.11 259.24 473.94 246.83 474.77 237.84 474.77 229.02 475.94 222.28 476.52 215.4 476.11 210.36 476.23 207.45 476.52 204.6 467.57 202.41 459.44 200.04 450.55 198.97 442.42 198.14 435.82 202.6 435.09 211.29 433.65 218.89 432.92 229.87 432.92 239.52 432.08 247.72 433.04 257.73 432.68 268.1 432.08 278.6 431.11 285.71 430.27 297.05 429.18 307.43 428.46 316.47 427.49 327.93 425.56 332.88 425 342.28 424.12 351.21 423.27 356.64 422.91 363.51 420.62 367.62 418.09 377.14 416.64 385.23 415.91 393.19 415.67 400.91 415.79 410.47 415.65 426.41 413.72 432.61 413.12 442.28 412.25 455.88 410.92 472.29 407.44 478.79 405.9 498.61 402.29 507.13 400.95 517.82 398.95 525.84 395.94 533.52 393.27 544.04 391.76 552.23 389.92 560.24 388.21 568.49 388.05 575.84 387.47 584.3 385.47 592.47 382.45 598.5 380.02 604.81 378.3 611.69 377 620.16 374.28 627.33 372.27 634.78 370.41 644.39 367.39 653.57 364.1 657.73 363.09 672.94 359.22 684.41 356.49 697.6 352.62 707.5 349.61 717.83 346.02 725 344.02 733.03 342.01 736.43 341.23"/>
  <polygon class="product-shape1 shape" points="805.46 558.82 809.55 560.18 816.59 560.18 824.94 560.18 830.3 559.5 834.62 558.82 840.05 557.22 844.24 554.95 847.74 551.11 852.34 545.13 855.34 541.21 857.29 540.56 853.33 549.65 849.99 554.07 847.31 557.65 845.97 562.42 844.03 567.63 837.32 575.53 831.37 581.2 825.7 585.22 821.23 587.6 813.63 588.65 810.35 589.21 808.5 592.37 807.2 596.62 806.65 603.37 806.32 608.27 805.46 610.23 802.07 612.59 799.03 613.94 796.45 616.18 794.88 619.1 791.06 622.25 786.91 618.54 782.19 613.71 777.36 609.87 774.29 608.6 777.36 602.45 781.52 595.94 786.95 587.8 790.21 581.4 795.63 573.5 799.25 568.26 802.15 561.38 803.59 558.49 805.46 558.82"/>
  <polygon class="product-shape1 shape" points="731.64 668.7 733.54 669.3 734.73 673.49 737.03 680.18 738.93 684.87 740.73 690.46 741.72 694.26 737.53 696.15 732.84 699.05 727.05 702.05 720.06 704.64 714.57 705.84 709.27 705.84 706.68 705.84 708.58 704.94 711.87 703.14 716.26 699.95 719.76 696.55 723.75 690.66 726.05 686.57 728.04 681.88 728.84 677.58 730.04 672.59 731.64 668.7"/>
  <!-- partie2-->
  <polygon class="product-shape2 shape" points="728.41 441.98 730.62 442.76 732.61 445.19 734.16 447.06 733.49 448.83 730.73 450.82 728.41 451.81 725.99 452.91 723.56 453.47 720.36 454.57 717.83 455.12 716.63 454.79 716.96 453.13 719.2 450.47 722.78 447.14 725.56 444.11 727.27 441.98 728.41 441.98"/>
  <polygon class="product-shape2 shape" points="719.87 439.12 721.03 440.12 720.7 441.98 719.54 443.07 717.75 445.06 715.42 447.18 713.84 448.1 711.97 447.43 711.56 445.19 711.93 443.61 712.93 441.98 714.47 440.12 715.96 439.33 719.87 439.12"/>
  <polygon class="product-shape2 shape" points="731.75 456.03 733.77 456.13 734.05 457.49 733.72 458.43 732.9 459.76 731.42 461.49 729.53 462.03 727.31 462.21 725.12 462.06 724.55 461.44 724.73 459.86 726.32 458.28 728.51 457.13 731.75 456.03"/>
  <polygon class="product-shape2 shape" points="803.59 558.49 802.15 561.38 799.25 568.26 795.63 573.5 790.21 581.4 786.95 587.8 781.52 595.94 777.36 602.45 774.29 608.6 771.86 614.14 767.3 620.97 760.9 630.36 755.78 637.47 749.52 644.87 743.97 652.12 738.85 659.1 734.16 665.07 731.64 668.7 730.04 672.59 728.84 677.58 728.04 681.88 726.05 686.57 723.75 690.66 719.76 696.55 716.26 699.95 711.87 703.14 708.58 704.94 706.68 705.84 697.95 705.84 690.31 704.14 682.8 701.38 676.72 699.63 661.2 693.43 650.49 690.11 640 686.42 629.01 682.53 620.93 679.9 612.98 677.15 603.21 673.64 594.51 670.76 587.68 668.95 566.52 661.81 553.87 657.17 531.28 647.69 520.85 643.95 510.64 639.75 499.64 635.78 492.38 632.16 486.49 628.07 480.48 623.2 471.75 623.76 460.75 622.74 447.82 619.91 437.28 617.98 427.13 615.94 418.97 613.45 411.6 611.86 403.09 610.04 394.59 609.02 386.54 606.53 379.05 604.49 369.98 602.79 361.71 601.65 351.61 599.16 346.4 597.68 335.51 597 326.1 595.53 316.35 593.49 305.12 591.68 293.79 589.29 285.28 587.71 276.55 584.53 269.29 582.83 261.7 580.45 255.35 578.52 249.56 576.25 245.14 573.65 239.47 568.32 234.82 560.04 231.88 550.4 229.83 543.26 227.45 535.66 224.62 527.27 219.86 513.21 217.7 508.67 222.5 508.67 228.24 509.04 234.87 508.92 243 508.67 256.69 507.25 267.81 506.65 278.09 504.86 289.45 502.88 303.62 500.37 314.68 498.34 326.87 496.31 341.58 493.86 355.45 491.46 366.09 490.09 384.92 487.22 400.34 484.95 411.28 483.45 420.66 482.14 433.28 480.47 457.19 476.94 468.01 475.15 485.7 472.69 495.69 471.08 509.32 468.99 520.61 467.19 528.45 465.94 541.66 463.55 551.88 461.81 561.98 460.14 572.5 458.29 584.1 456.14 593.25 454.34 606.93 452.01 615.96 449.56 625.53 447.95 632.7 446.75 643.34 444.06 652.49 441.67 660.26 439.94 667.79 438.5 673.83 436.77 680.4 435.51 689.91 433.84 697.8 432.1 704.14 430.79 711.19 429.18 716.63 428.82 720.04 428.82 721.03 430.61 715.19 435.87 711.56 438.62 709.22 441.73 707.9 444.66 707.84 448.84 709.04 451.23 706.05 453.57 700.07 457.63 694.93 461.16 688.89 465.52 681.78 469.53 675.2 473.65 668.63 476.82 661.93 479.81 655.06 483.1 648.96 486.14 643.28 489.67 638.26 492.9 635.51 491.94 633.84 490.87 630.85 490.93 629.83 491.64 626.78 492.12 622.42 492.06 618.77 494.57 618.05 496.96 619.07 499.3 619.61 502.28 620.45 505.87 621.64 507.13 621.28 509.04 618.89 512.21 614.17 518.37 611.24 522.91 608.79 526.38 606.34 530.26 603.41 533.97 601.61 535.46 601.2 537.97 602.27 539.47 603.41 541.2 604.96 541.62 606.7 541.44 608.55 540.48 610.22 537.02 612.97 533.25 615.78 528.89 617.75 525.84 619.25 523.57 620.62 521.41 622.42 519.92 622.84 521.23 622.72 523.92 621.94 527.45 620.33 531.76 618.89 535.46 617.1 539.53 614.77 544.19 613.33 548.08 611.6 550.89 608.97 554.83 606.93 557.76 605.92 559.49 606.93 560.57 609.21 561.11 611.24 562 612.91 559.91 615.54 555.73 618.65 550.59 621.22 544.49 624.33 538.15 626.12 532.77 627.8 527.39 628.57 522.97 629.77 517.95 630.25 513.46 631.09 509.64 633 509.7 634.31 511.01 635.69 511.31 637.48 510.12 639.16 507.55 641.61 506.71 642.5 504.38 642.03 502.76 641.31 500.97 644.24 498.94 650.99 495.83 661.27 490.15 668.81 486.14 678.73 480.7 686.14 476.82 695.47 471.68 703 467.25 708.56 464.68 714.3 462.21 717.41 461.22 720.34 462.21 724.55 463.55 728.47 463.61 732.89 462.71 736.3 459.72 738.93 455.42 739.17 450.7 740.24 446.39 743.05 441.13 744.49 433.84 745.92 431.21 748.08 425.72 749.93 425.72 757.61 427.93 768.21 431.99 780.65 436.76 797.16 444.44 807.22 448.1 811.9 449.73 821.7 454.15 830.97 457.94 835.91 460.59 841.91 463.86 845.98 467.21 850.48 470.66 853.66 473.18 854.29 478.43 854.29 483.58 854.29 487.25 853.24 491.87 851.14 495.86 848.83 500.48 847.57 503.95 844.42 508.78 839.8 514.76 836.12 520.64 831.5 526.31 828.25 531.56 824.68 535.13 818.69 539.75 815.79 542.9 815.79 545.53 813.65 548.78 810.61 551.51 807.25 555.93 803.59 558.49"/>
  <!--partie3-->
  <polygon class="product-shape3 shape" points="805.46 558.82 809.55 560.18 816.59 560.18 824.94 560.18 830.3 559.5 834.62 558.82 840.05 557.22 844.24 554.95 847.74 551.11 852.34 545.13 855.34 541.21 857.29 540.56 860.96 534.04 864.22 527.65 871.66 512.31 877.41 500.42 883.55 487.53 888.11 476.52 892.28 466.52 895.65 457.79 901 443.61 905.76 431.22 908.53 423.89 908.99 410.21 908.99 399.45 908.03 393.8 904.59 382.74 903.28 377.75 901.5 369.55 897.53 355.38 894.65 344.46 891.05 333.3 887.57 327.06 883.25 318.42 878.81 312.9 871.73 304.5 867.17 299.83 858.93 293.77 852.34 290.02 846.94 288.07 841.1 287.02 833.01 287.02 827.62 288.37 824.1 289.87 817.2 290.99 808.21 292.12 805.46 292.58 804.02 296.46 801.78 299.31 797.81 301.89 792.99 305.34 788.16 308.27 781.61 311.81 775.14 314.48 769.11 316.89 761.78 318.96 757.73 320.6 755.84 321.29 757.65 323.7 756.87 326.37 756.94 329.06 757.59 332.06 759.55 336.55 763.16 337.13 767.75 337.52 772.92 338.89 777.31 340.74 779.94 342.11 784.14 343.38 786.97 343.96 790.68 346.89 795.07 350.3 799.26 354.5 803.94 359.38 807.36 362.79 810.77 366.69 813.41 369.91 815.96 373.61 819.66 380.37 822.98 385.1 825.79 388.8 826.94 393.4 830.13 398.76 833.57 404.76 837.53 412.17 840.34 417.91 843.41 423.02 844.43 428.51 845.64 435.56 845.64 440.66 846.23 445.04 847.42 451.08 848.72 457.35 850.26 461.85 852.33 468.12 853.66 473.18 854.29 478.43 854.29 483.58 854.29 487.25 853.24 491.87 851.14 495.86 848.83 500.48 847.57 503.95 844.42 508.78 839.8 514.76 836.12 520.64 831.5 526.31 828.25 531.56 824.68 535.13 818.69 539.75 815.79 542.9 815.79 545.53 813.65 548.78 810.61 551.51 807.25 555.93 805.46 558.82"/>
  <polygon class="product-shape3 shape" points="717.83 346.02 716.96 341.75 715.52 338.56 714.08 331.97 706.97 333.1 698.84 332.9 688.33 333.2 680.4 332.48 674.12 331.35 669.89 330.84 663.92 333.93 659.39 335.37 652.38 337.53 646.61 339.9 640 342.68 633.94 345.15 626.42 348.55 619.73 351.44 613.14 354.42 605.1 358.65 599.95 361.84 592.33 365.34 583.78 369.77 576.67 373.69 574.3 374.51 573.38 380.28 571.21 385.32 571.21 387.83 575.84 387.47 584.3 385.47 592.47 382.45 598.5 380.02 604.81 378.3 611.69 377 620.16 374.28 627.33 372.27 634.78 370.41 644.39 367.39 653.57 364.1 657.73 363.09 672.94 359.22 684.41 356.49 697.6 352.62 707.5 349.61 717.83 346.02"/>
  <polygon class="product-shape3 shape" points="712.87 325.98 704.73 325.98 693.51 325.98 685.62 325.98 680.81 325.98 687.48 323.48 695.69 320.72 702.42 318.35 710.46 315.22 719.18 311.98 730.91 308.74 740.08 306.28 750.24 304.05 757.28 302.82 764.21 301.48 775.5 299.35 783.54 298.35 791.59 296.9 791.59 298.13 787.79 300.7 781.87 303.71 776.06 306.62 770.92 309.08 765.66 311.44 761.08 312.87 757.95 313.32 756.5 310.86 752.93 310.64 749.69 310.75 744.77 311.44 738.4 312.09 733.48 312.43 728.57 313.1 722.42 314.22 716.5 315.33 713.03 316.79 713.03 322.04 712.87 325.98"/>
  <polygon class="product-shape3 shape" points="650.88 328.47 643.84 330.44 635.41 333.06 628.94 334.37 626.32 336.55 623.46 337.4 616.09 337.4 610.36 338.05 605.37 338.71 600.62 339.93 594.98 341.73 591.29 343.29 587.07 341.92 578.64 344.33 570.2 347.1 560.92 349.87 551.28 352.4 541.4 355.17 532.96 357.71 523.92 360.96 514.04 363.73 507.53 366.5 503.55 368.31 508.49 370.24 512.95 372.17 520.18 373.01 530.12 373.43 535.05 373.43 539.21 371.21 544.5 369.04 550.33 367.3 560.5 364.59 566.76 363.51 571.21 363.21 573.14 364.83 575.2 364.72 580.74 362.39 588.71 358.04 603.97 350.1 613.36 345.67 622.37 341.7 630.92 338.19 640 333.99 647.86 330.84 653.44 328.88 650.88 328.47"/>
  <polygon class="product-shape3 shape" points="533.52 393.27 533.83 386.91 533.83 380.74 530.65 381.03 520.19 380.27 510.26 379.45 505.38 377.68 500.09 374.57 495.39 371.16 487.82 373.43 482.51 375.15 473.7 378.22 465.98 380.64 455.9 383.9 446.13 387.09 437.46 389.89 428.46 393.6 423.42 395.77 417.03 397.68 410.14 399.47 403.63 400.87 400.95 401.38 400.95 408.85 400.38 415.04 400.38 415.79 410.47 415.65 426.41 413.72 432.61 413.12 442.28 412.25 455.88 410.92 472.29 407.44 478.79 405.9 498.61 402.29 507.13 400.95 517.82 398.95 525.84 395.94 533.52 393.27"/>
  <polygon class="product-shape3 shape" points="487.1 366.17 483.14 365 480.25 363.92 476.15 363.48 471.16 363.48 467.59 363.24 463.23 363.43 457.66 363.83 451.98 363.83 444.45 364.71 439.76 365.2 435.75 365.73 430.81 366.96 423.13 368.91 415.99 370.82 412.61 371.95 406.08 373.01 396.37 375.26 387.84 377.75 377.78 381.07 368.9 383.43 360.14 386.04 351.97 387.93 355.05 391.48 357.77 393.47 359.43 394.44 362.27 394.44 365.47 394.44 366.53 392.55 369.85 392.08 374.23 390.89 378.85 389.83 385.83 389.59 391.99 389.71 397.79 389.12 400.38 390.18 400.75 393.47 405.41 393 412.34 391.25 420.98 388.97 435.38 384.12 447.37 379.95 461.14 375.05 469.24 372.38 477.54 369.76 482.53 367.72 487.1 366.17"/>
  <polygon class="product-shape3 shape" points="347.81 378.03 348.74 380.92 349.21 382.74 355.16 381.29 363.81 378.54 369.14 376.89 348.74 376.89 347.81 378.03"/>
  <polygon class="product-shape3 shape" points="366.23 418.94 366.23 414.09 365.02 408.93 364.34 404.23 363.66 400.37 360.78 400.74 357.67 400.37 355.16 398.77 351.6 397.03 346.12 392.07 340.15 393.42 327.26 396.34 317.79 398.25 308 400.71 300.44 402.62 290.49 405.49 280.78 408.51 271.71 410.5 265.82 411.7 258.25 412.89 252.19 414.32 250.06 417.43 248.02 421.45 245.89 425 244.83 427.82 244.83 432.7 247.72 433.04 257.73 432.68 268.1 432.08 278.6 431.11 285.71 430.27 297.05 429.18 307.43 428.46 316.47 427.49 327.93 425.56 332.88 425 342.28 424.12 351.21 423.27 356.64 422.91 363.51 420.62 366.23 418.94"/>
  <polygon class="product-shape3 shape" points="342.1 384.61 341.2 382.21 340.45 379.81 339.46 378.38 336.67 378.38 335.02 377.93 332.33 377.93 328.2 378.33 326.21 379.81 324.41 380.47 319.53 380.72 316.94 379.28 312.51 379.33 306.23 379.42 299.51 380.02 294.76 380.52 292.1 382 288.93 383.48 284.18 384.61 278.04 385.25 273.85 385.25 271.72 385.81 269.1 388.05 266.98 390.78 263.9 392.68 259.43 395.25 254.68 397.32 250.77 399.17 247.53 401.01 244.83 402.97 248.03 403.3 249.77 404.53 250.77 406.21 253.34 405.98 259.43 404.86 264.46 403.24 270.72 401.85 277.76 400.06 285.08 398.27 291.5 396.26 298.04 394.47 303.29 393.13 310.17 391.51 316.87 389.72 325.25 388.16 331.79 386.71 337.49 385.53 342.1 384.61"/>
  <polygon class="product-shape3 shape" points="216.78 433.12 211.29 433.65 202.6 435.09 198.14 435.82 198.14 430.95 200.75 426.86 204 423.9 209.36 420.09 214.16 417.41 217.7 415.43 217.7 420.05 216.81 425 216.6 430.71 216.78 433.12"/>
  
  <!--partie4-->
  <polygon class="product-shape4 shape" points="690.06 400.43 691.55 402.21 699.98 405.82 707.5 408.65 714.69 411.3 723.49 414.46 731.53 417.45 740 420.96 747.86 424.47 749.93 425.72 757.61 427.93 768.21 431.99 780.65 436.76 797.16 444.44 807.22 448.1 811.9 449.73 821.7 454.15 830.97 457.94 835.91 460.59 841.91 463.86 845.98 467.21 850.48 470.66 853.66 473.18 852.33 468.12 850.26 461.85 848.72 457.35 847.42 451.08 846.23 445.04 845.64 440.66 845.64 435.56 844.43 428.51 843.41 423.02 840.34 417.91 837.53 412.17 833.57 404.76 830.13 398.76 826.94 393.4 825.79 388.8 822.98 385.1 819.66 380.37 815.96 373.61 813.41 369.91 811.36 371.28 804.53 372.84 795.75 374.89 785.21 377.43 762.77 382.11 743.36 386.99 737.7 388.55 723.46 392.16 692.58 399.75 690.06 400.43"/>
  
  <!--elastic1-->
  <polygon class="elastic1 shape" points="757.95 313.32 755.84 313.45 755.84 317.26 755.84 321.29 757.73 320.6 761.78 318.96 769.11 316.89 775.14 314.48 781.61 311.81 788.16 308.27 792.99 305.34 797.81 301.89 801.78 299.31 804.02 296.46 805.46 292.58 804.51 290.79 803.26 289.19 800.83 288.01 798.2 288.01 795.43 288.64 793.55 289.89 794.11 293.01 793.9 294.6 791.59 298.13 787.79 300.7 781.87 303.71 776.06 306.62 770.92 309.08 765.66 311.44 761.08 312.87 757.95 313.32"/>
  <polygon class="elastic1 shape" points="712.87 325.98 713.41 328.85 713.97 330.39 714.08 331.97 706.97 333.1 698.84 332.9 688.33 333.2 680.4 332.48 674.12 331.35 669.89 330.84 663.92 333.93 652.38 337.53 646.61 339.9 640 342.68 633.94 345.15 626.42 348.55 619.73 351.44 613.14 354.42 605.1 358.65 599.95 361.84 592.33 365.34 583.78 369.77 576.67 373.69 574.3 374.51 571.21 375.73 568.48 376.3 566.99 376.3 566.99 372.81 566.99 369.77 568.66 366.5 570.32 364.95 573.14 364.83 575.2 364.72 580.74 362.39 588.71 358.04 603.97 350.1 613.36 345.67 622.37 341.7 630.92 338.19 640 333.99 647.86 330.84 653.44 328.88 650.88 328.47 643.84 330.44 635.41 333.06 628.94 334.37 624.89 335.03 621.45 335.7 618.49 335.31 617.15 332.93 616.48 329.96 616.67 327.77 618.97 326.53 623.27 326.43 627.47 325.47 634.16 323.56 640.54 321.94 646.29 320.7 650.3 319.65 653.93 319.17 657.94 319.17 663.01 320.03 667.11 321.27 668.26 321.94 670.55 321.65 675.62 319.74 689.28 315.06 698.45 312 712.5 307.65 723.91 304.65 736.2 301.29 745.44 299.17 751.64 297.71 757.02 296.9 757.02 300.48 757.28 302.82 750.24 304.05 740.08 306.28 730.91 308.74 719.18 311.98 710.46 315.22 702.42 318.35 695.69 320.72 687.48 323.48 680.81 325.98 685.62 325.98 693.51 325.98 704.73 325.98 712.87 325.98"/>
  <polygon class="elastic1 shape" points="587.07 341.92 587.07 338.63 586.05 335.12 585.28 334.52 578.49 335.72 572.43 337.26 561.89 340.69 538.08 348.74 528.57 352 518.63 355.51 506.29 359.79 499.7 361.16 495.33 361.59 492.07 359.96 487.62 357.99 483.68 356.37 478.96 355.42 472.97 355.17 469.37 355.77 467.1 356.11 465.68 357.82 466.03 360.39 467.59 363.24 471.16 363.48 476.15 363.48 480.25 363.92 483.14 365 487.1 366.17 482.53 367.72 477.54 369.76 469.24 372.38 461.14 375.05 447.37 379.95 435.38 384.12 420.98 388.97 412.34 391.25 405.41 393 400.75 393.47 397.75 393.47 395.69 394.44 395.01 396.29 395.01 399.72 396.38 401.43 400.95 401.38 403.63 400.87 410.14 399.47 417.03 397.68 423.42 395.77 428.46 393.6 437.46 389.89 446.13 387.09 455.9 383.9 465.98 380.64 473.7 378.22 482.51 375.15 487.82 373.43 495.39 371.16 500.09 374.57 505.38 377.68 510.26 379.45 520.19 380.27 530.65 381.03 533.83 380.74 535.22 376.78 536.45 374.01 535.05 373.43 530.12 373.43 520.18 373.01 512.95 372.17 508.49 370.24 503.55 368.31 507.53 366.5 514.04 363.73 523.92 360.96 532.96 357.71 541.4 355.17 551.28 352.4 560.92 349.87 570.2 347.1 578.64 344.33 587.07 341.92"/>
  <polygon class="elastic1 shape" points="363.66 400.37 364.41 398.25 365.41 395.74 365.47 394.44 362.27 394.44 359.43 394.44 357.77 393.47 355.05 391.48 351.97 387.93 360.14 386.04 368.9 383.43 377.78 381.07 387.84 377.75 396.37 375.26 406.08 373.01 412.61 371.95 415.99 370.82 423.13 368.91 430.81 366.96 435.75 365.73 438.81 365.32 438.39 362.65 437.39 360.58 436.39 358.72 430.1 359.65 423.31 361.01 414.73 362.94 407.15 364.8 398.29 367.23 389 369.59 381.78 371.8 370.98 375.38 369.14 376.89 363.81 378.54 355.16 381.29 349.21 382.74 348.74 380.92 347.81 378.03 347.6 375.94 346.1 373.63 343.95 371.15 340.59 369.2 336.33 368.38 331.86 368.38 326.55 369.13 323.49 370.18 320.79 371.45 320.49 374.09 321.37 376.66 323 378.58 326.21 379.81 328.2 378.33 332.33 377.93 335.02 377.93 336.67 378.38 339.46 378.38 340.45 379.81 341.2 382.21 342.1 384.61 337.49 385.53 331.79 386.71 325.25 388.16 316.87 389.72 310.17 391.51 303.29 393.13 298.04 394.47 291.5 396.26 285.08 398.27 277.76 400.06 270.72 401.85 264.46 403.24 259.43 404.86 253.34 405.98 250.77 406.21 248.61 405.76 246.07 406 244.45 408.06 242.99 409.86 242.24 412.01 242.4 413.56 243.52 414.93 248.1 414.93 252.19 414.32 258.25 412.89 265.82 411.7 271.71 410.5 280.78 408.51 290.49 405.49 300.44 402.62 308 400.71 317.79 398.25 327.26 396.34 346.12 392.07 349.3 394.94 351.6 397.03 355.16 398.77 357.67 400.37 360.78 400.74 363.66 400.37"/>
  <polygon class="elastic1 shape" points="292.1 382 292.1 379.78 291.21 377.7 290.01 377.01 284.92 377.47 279.44 377.61 275.67 377.93 270.93 377.93 269.08 378.57 268.47 379.51 267.09 378.77 265.45 377.4 263.32 377.01 261.33 378.36 260.24 379.51 261.33 381.58 261.88 383.43 259.83 385.42 253.93 389.4 248.92 392.07 243.98 393.93 237.74 396.94 230.82 400.37 226.7 402.77 224.65 404.55 226.16 405.51 228.97 406.21 233.08 405.1 237.47 403.8 241.65 403.94 244.83 402.97 247.53 401.01 250.77 399.17 254.68 397.32 259.43 395.25 263.9 392.68 266.98 390.78 269.1 388.05 271.72 385.81 273.85 385.25 278.04 385.25 284.18 384.61 288.93 383.48 292.1 382"/>
  <polygon class="elastic1 shape" points="249.73 367.93 247.82 361.65 244.83 355.78 241.46 348.65 237.36 340.38 234.45 335.66 231.3 329.36 227.52 323.05 224.53 318.09 221.85 312.97 218.38 308.17 215.86 304.63 212.4 300.06 208.7 295.73 204.13 291.16 200.03 286.98 196.73 283.99 192.71 281.08 189.16 278.4 184.05 274.62 177.67 271 172.7 268.24 167.03 265.33 161.05 262.73 154.98 260.29 148.92 258.08 142.86 256.03 136 253.99 130.57 252.57 124.74 250.76 119.62 249.57 114.5 248.47 110.25 247.84 105.45 246.74 103.56 244.85 102.77 242.49 102.77 240.28 104.34 239.18 105.53 238.08 107.97 238.08 110.01 239.1 115.53 239.97 121.67 241.46 129.15 243.43 135.85 244.93 143.17 247.29 150.42 249.73 157.9 252.33 165.38 255.32 172.78 258.79 178.77 261.78 186.62 266.45 191.74 269.86 196.4 273.39 200.72 277.03 205.84 281.69 210.62 286.7 215.63 291.93 219.61 296.48 223.48 301.71 226.78 307.06 230.98 313.2 234.51 319 237.35 324.12 240.43 330.15 246.11 340.62 245.2 333.45 244.18 326.51 242.7 319.46 241.56 310.36 241 301.03 241.11 279.64 241.11 272.25 241.68 265.88 243.16 257.23 246.34 244.15 249.73 233 254.3 219.35 258.51 207.86 261.59 198.99 264.09 193.19 265.68 190.34 267.96 189.77 270.35 189.77 271.71 191.02 272.73 192.73 272.73 195.57 271.71 199.21 268.75 206.5 265.23 216.73 261.7 226.86 258.51 235.16 256.69 241.99 254.08 251.09 252.03 259.62 251.23 264.97 250.1 272.59 249.98 279.41 249.98 293.29 249.98 304.67 250.89 312.29 252.14 322.07 253.62 331.18 254.87 337.77 255.67 344.03 257.04 350.4 259.08 357.91 257.83 361.09 256.35 363.26 254.65 365.53 252.71 367.93 249.73 367.93"/>

  <!--elastic2-->
  <polygon class="elastic2 shape" points="772.28 674.3 774.29 672.24 776.94 670.87 780.24 669.91 781.07 672.65 782.96 676.27 785.47 679.25 789.16 682.94 792.93 685.46 798.19 688.68 803.14 690.64 807.85 692.29 811.7 693.23 816.26 694.17 820.97 695.12 818.61 691.97 814.14 686.16 809.5 678.7 805.58 670.53 802.67 663.86 800.86 657.97 799.69 650.74 798.98 645.48 798.9 638.26 801.34 634.64 804.56 631.03 807.23 629.22 807.38 633.86 807.46 640.61 807.46 647.44 808.25 652.23 809.82 658.2 812.02 664.25 814.77 671.01 818.77 677.99 821.91 682.71 825.68 687.18 829.53 691.58 833.46 695.74 842.18 696.29 849.26 697.23 851.27 697.88 854.29 697.88 858.05 694.52 865.55 687.2 871.45 681.48 875.87 676.46 876.82 664.31 877.17 656.58 877.17 643.18 876.29 638.58 875.34 633.15 873.4 628.31 872.16 625.66 869.68 621.58 866.61 618.28 862.89 614.86 858.59 612.2 854.81 610.37 849.73 609.07 843.01 608.42 837.28 608.42 832.74 609.37 828.67 610.14 824.36 611.91 819.35 614.33 815.79 617.04 812.97 619.28 809.84 622.25 807.25 624.53 804.89 627.72 803 628.37 801.47 627.07 799.52 624.83 797.39 622.25 798.99 618.93 802.29 615.62 805.54 612.38 810.55 608.84 815.21 605.53 820.23 603.17 824.36 601.23 828.08 599.57 831.5 598.69 840.12 598.69 845.25 598.69 849.97 599.28 853.69 599.99 857.94 601.76 862.89 604.29 868.09 607.48 871.15 610.02 874.46 613.38 877.41 616.98 879.47 620.05 882.96 627.13 884.55 631.5 886.26 636.81 886.91 641.94 887.15 649.14 887.15 656.87 887.15 662.18 889.39 658.58 893.16 651.15 896.23 644.54 898.36 638.7 899.77 632.91 900.42 627.37 900.42 613.44 900.42 606.6 899.07 602.47 897.83 598.16 896.35 592.61 894.34 588.01 891.45 583.46 888.5 578.86 884.61 573.91 880.89 569.95 877.53 566.82 872.22 563.81 868.03 561.99 864.96 560.98 861.06 560.18 857.29 560.45 854.04 560.81 851.29 561.86 848.21 563.09 845.7 563.13 845.97 562.42 847.31 557.65 849.99 554.07 853.22 553.11 858.38 552.73 863.2 552.73 867.18 553.44 872.76 554.86 876.87 556.85 881.38 559.54 885.92 562.93 890.62 567.54 894.77 572.39 898.47 577.32 901.31 581.93 903.85 587.4 905.55 590.86 906.93 595.63 908.24 600.48 909.86 606.48 910.86 612.41 910.86 619.1 910.86 624.64 909.93 629.65 909.01 635.65 907.16 641.34 905.16 647.35 901.7 655.2 898.54 661.58 894.77 667.2 890.62 672.82 887.69 677.13 884.92 681.74 884.92 687.21 883.92 695.52 883.77 704.91 884 711.6 884.54 713.91 885.31 717.61 886.08 719.53 888.15 720.07 890.23 720.91 891.39 721.84 893.23 723.61 894.62 725.46 895.08 727.76 895.08 729.61 895.77 731.69 896 734.77 896.31 737.31 899.62 739.46 902.62 741.15 903.08 743.08 902.93 745.23 902.16 746.77 900.7 748 898.85 748.85 897.24 748.85 898.39 750.77 900.62 751.93 902.93 753.31 904.85 754.85 906.47 755.93 907.01 757.08 907.01 760.01 905.32 761.7 902.78 762.47 899.62 763.09 896.23 762.7 893.23 760.08 888.54 755.78 882.69 749.62 881.15 747.54 879 747.16 876.07 746.62 874 745.31 871.99 742.92 870.07 740.31 869.07 738.38 867.22 739.54 864.53 740.31 861.07 740.54 857.68 740.54 857.06 743.92 855.83 746.85 854.29 749.7 851.91 752.54 849.37 754.7 846.75 756.16 843.83 756.93 839.6 756.16 836.59 754.08 831.9 749.7 829.13 746.85 827.51 743.69 827.05 740.38 827.21 736.07 829.13 733 830.75 730 833.36 727.3 835.52 725.69 838.9 724.92 843.67 724.84 845.75 725.76 848.45 726.99 850.68 728.38 852.45 729.15 855.6 728.23 859.37 726.53 862.53 725.38 866.68 723.69 870.15 721.68 871.74 720.95 873.83 718.62 871.95 716.88 869.98 714.96 866.56 712.51 863.92 711.3 860.93 709.38 857.86 708.43 856.16 709.51 854.29 711.21 852.66 712.74 849.43 712.56 845.84 712.92 842.07 713.01 837.77 712.83 834.72 712.83 833.01 710.05 830.95 707 829.15 705.02 823.59 704.93 818.03 704.93 814.17 704.04 807.35 702.06 800.62 700 795.96 697.76 789.68 694.44 785.46 691.39 781.69 687.98 778.55 684.48 775.23 680.35 773.08 677.03 772.28 674.3"/>
  
  <polygon fill="#fff" class="shape" points="874.48 691.43 874.87 695.23 874.16 703.92 873.95 707.32 872.17 706.21 867.19 703.34 864.01 701 867.75 697.08 871.34 693.29 874.48 691.43"/>
  
  <polygon class="product-shape2 shape" points="222.28 476.52 215.4 476.11 210.36 476.23 207.45 476.52 212.32 491.53 214.04 499.34 216.77 507.15 217.7 508.67 222.5 508.67 228.24 509.04 234.87 508.92 232.2 505.79 228.84 502.43 226.48 500.16 224.39 494.98 222.3 490.81 220.58 486.72 220.13 483.91 221.76 481.73 222.58 479.27 222.28 476.52"/>
</svg>