<svg id="product-svg" xmlns="http://www.w3.org/2000/svg" xmlns:xlink="http://www.w3.org/1999/xlink" viewBox="0 0 1280 850">

<!--Partie1-->
  <path class="product-shape1 shape" d="m337.52,227.7l-7.21,3.96-8.29,7.21-9.01,10.45-9.37,10.45-14.42,14.78-13.34,15.14-14.78,15.86,4.69,3.6,7.93,3.6,10.09,5.05,8.65,3.24,6.01,2.92,3.45,1.63,3.27,1.27.09-9.17v-4.45l-5.97-1.82-3.2-3-3-4.09v-3.9l1.18-3.36s1.45-3,2.27-3.27,1.09-1.09,3.99-2.36,4.36-1.54,6.08-1.72,5.45-.18,6.81.09,4.36.73,5.45,1.63,2.81,1.63,3.99,2.91,1.91,1.45,3.09,3.18,1.45,3.99,1.36,5.17-1.63,3.27-2.45,3.9-1.82,2.81-2.81,3.18-1.63,2.18-3.36,2.36-3.54.64-3.54.64l-.36,4.63.18,7.26.64,5.17,6.35,1.63,7.99,2.81,10.53,3.63,9.8,3.18,13.98,4.09,11.44,2.81,6.99,2.45,9.35,3.9,9.17,3.81,11.89,4.99,7.99,1.82,9.99,2.27,6.45,1.45,5.81,1.72,7.17-3.38,7.78-3.48,8.05-3.48,5.22-1.83,4.76-1.28,3.57-.92,3.11-2.47,3.93-2.01,5.12-1.37h6.22l5.4,1.1s1.92.73,3.39,1.92,3.75,2.29,5.03,4.12,2.1,3.29,2.38,4.76.46,3.93,0,4.67-.46,2.2-1.74,4.03-4.39,3.02-4.39,3.02c0,0-2.75,1.65-4.85,1.83s-8.79.46-8.79.46c0,0-4.39.09-4.67-.46s-2.93-.27-4.85-2.2-4.85-4.12-4.85-4.12l-1.46-1.74-4.03.55-6.13,2.75-6.22,2.56-3.66,1.56,8.42,3.2,7.6,3.75,7.14,2.56,8.05,2.65,6.95,4.03,5.95,3.11,3.93,1.19,3.66,1.01,3.48-.92,11.16-10.71,12.45-11.62,9.52-8.14,8.6-9.15,6.95-6.77,8.51-9.24,8.05-8.79,6.95-7.14,6.86-6.86,7.23-8.14,6.04-5.77,4.67-3.93-16.84-4.48-18.58-5.03-27-7.5-20.41-5.31-14.62-3.8-20.01-5.46-17.5-4.72-16.17-4.28-13.14-3.62-14.25-3.91-20.67-5.46-13.07-3.4-10.11-2.21-15.13-4.43-10.11-3.1-10.11-2.14-8.86-2.29-3.69-1.03-3.27.54Z"/>

<!--Partie2-->
  <polygon class="product-shape2 shape" points="142.51 451.64 149.97 443.26 159.92 431.66 169.03 421.25 176.95 412.69 183.03 405.14 189.01 397.68 194.08 391.6 200.43 384.6 203.47 381.75 206.42 381.01 212.13 381.01 217.84 382.03 227.51 383.87 236.25 384.79 244.17 386.17 253.2 387.46 263.23 388.2 275.48 388.56 286.9 389.3 296.94 389.39 292.33 394.09 290.31 397.13 289.29 400.07 288.28 403.67 285.61 406.8 283.03 408.64 280.27 409.47 275.94 413.43 271.52 418.4 270.23 421.62 270.94 423.69 268.78 426.32 263.19 429.28 254.65 433.61 248.04 437.02 240.64 440.44 233.8 445 227.76 449.22 224.23 452.63 221.5 456.51 218.31 460.72 214.89 465.96 212.72 470.86 203.84 468.13 197.91 466.53 193.35 464.82 185.83 462.77 178.66 460.04 170.91 457.99 163.62 455.48 158.26 454.46 151.88 453.43 146.3 452.63 143.22 453.2 142.51 451.64"/>
  <polygon class="product-shape2 shape" points="224.84 474.85 225.17 470.86 226.1 468.13 228.3 464.2 230.83 461.34 234.09 457.68 237.88 454.29 242.01 450.89 247 448.16 250.33 446.3 254.92 443.57 258.11 442.04 261.44 440.64 260.51 443.84 256.91 448.1 256.12 450.56 255.98 455.88 255.85 459.21 252.06 464.74 248.46 470.39 245.67 474.19 244.2 477.18 243.14 479.38 238.08 478.78 232.82 478.11 227.43 477.11 224.84 476.65 224.84 474.85"/>
  <polygon class="product-shape2 shape" points="317.01 396.9 319.37 393.04 321.27 391.78 329.11 393.5 337.11 396.53 344.77 399.72 349.09 401.16 353.41 402.72 353.41 404.33 351.8 407.56 349.78 409.8 347.31 409.8 342.53 408.25 335.5 405.66 330.03 403.35 323.35 400.79 320.24 399.78 317.36 398.69 317.01 396.9"/>
  <polygon class="product-shape2 shape" points="313.53 506.12 317.01 501.42 322.03 496.72 325.39 490.68 328.75 485.75 332.78 484.41 335.21 482.62 339.27 476.8 346.21 467.18 352.25 458.67 357.17 452.18 363.66 444.35 368.37 438.53 374.63 431.81 379.56 425.94 385.38 420.17 387.17 417.71 387.17 411.44 390.52 408.31 397.46 404.28 403.04 400.79 408.74 398.1 412.72 396.53 415.19 395.64 420.89 396.53 425.44 397.34 430.57 398.29 430.57 404.75 436.07 406.08 443.86 407.22 451.65 409.8 460.38 412.34 474.43 417.66 487.72 422.6 500.82 427.53 508.8 429.62 518.29 432.09 523.23 433.04 529.11 433.23 533.1 430.95 538.79 426.01 543.54 421.27 547.53 417.28 548.48 412.53 551.71 408.93 556.83 403.8 562.15 399.24 568.98 392.79 573.54 388.61 578.86 383.29 585.31 377.22 590.63 372.09 594.99 367.53 599.17 362.41 603.35 356.9 608.1 351.4 612.08 347.79 614.36 344.37 616.45 343.23 620.25 344.56 621.96 346.84 620.82 351.59 618.35 355.95 613.98 360.7 606.01 368.1 600.31 373.61 593.67 379.31 589.49 383.67 584.93 388.8 579.05 392.98 572.59 397.91 567.08 401.71 565 404.94 562.72 409.88 559.3 416.52 552.08 427.53 547.53 436.08 542.02 445.19 534.05 457.15 528.16 465.32 525.5 468.73 522.28 473.86 515.06 480.13 507.09 487.91 499.49 497.02 491.9 506.12 482.97 515.63 475 524.36 467.74 532.34 461.9 540.12 456.39 547.34 449.94 554.93 443.1 562.34 437.22 568.79 432.09 575.06 427.53 579.81 424.12 584.36 424.3 572.78 422.03 565.76 417.66 558.54 410.25 551.14 401.9 545.63 391.08 538.79 386.52 538.41 376.27 533.29 363.36 526.45 349.12 521.14 332.22 514.87 320.45 509.93 316.08 508.8 313.53 508.23 313.53 506.12"/>
  <polygon class="product-shape2 shape" points="317.01 373.14 317.01 366.22 317.01 361.46 317.81 360.05 321.38 360.05 325.6 361.78 331.65 365.13 339.33 367.41 347.55 370.43 357.93 373.89 369.39 378.22 379.12 381.79 389.07 386 395.99 388.49 401.39 390.54 396.2 393.35 390.58 396.53 388.31 397.25 384.42 396.53 371.12 391.08 363.98 388.49 356.74 385.57 350.68 382.87 344.74 380.27 338.25 378.65 333.71 376.6 327.87 375.84 323.22 374.65 319.87 373.68 317.01 373.14"/>
  <polygon class="product-shape2 shape" points="247.64 334.21 253.48 337.45 259.32 340.27 264.29 342.21 269.91 344.37 276.08 346.75 280.73 348.48 285.59 350.21 289.27 352.16 292.94 350.11 295.32 349.46 300.19 352.16 305.16 354.54 307 356.7 307 372.05 301.59 372.05 298.24 372.05 293.05 370.76 286.67 369.24 279.43 367.19 273.16 366.76 266.89 364.7 260.62 362.65 253.48 360.92 247.64 359.62 242.23 359.3 237.26 361.13 232.07 363.19 225.48 364.92 230.45 357.24 235.75 348.27 239.75 342.64 244.29 337.13 247.64 334.21"/>
  <polygon class="product-shape2 shape" points="316.19 384.83 316.74 379.33 321.24 376.74 324.89 375.08 327.87 375.84 333.71 376.6 330.81 378.22 326.92 379.95 322.97 380.63 320.5 381.93 318.78 383.84 317.01 385.57 316.19 384.83"/>
  <polygon class="product-shape2 shape" points="776.72 504.06 772.72 510.66 767.85 521.96 761.42 535.35 756.55 545.95 750.99 557.25 745.95 567.33 740.22 578.63 734.83 589.23 731.35 596.88 729.79 601.74 736.74 602.61 744.04 604.18 749.43 605.57 756.9 608.18 765.77 612.17 774.11 616 785.06 620.69 795.66 624.51 804.53 627.99 811.65 630.77 818.61 633.2 825.91 633.2 828.86 629.38 831.99 622.25 835.47 614.95 837.73 609.22 834.77 605.74 833.21 602.09 837.73 591.32 844.68 578.28 850.24 566.98 854.24 557.59 860.32 546.3 866.23 533.43 871.27 525.09 873.53 519.88 876.49 516.05 882.92 515.36 885.87 511.19 891.26 506.15 894.04 502.84 900.3 504.41 907.08 507.54 917.33 511.36 928.28 515.88 941.32 521.61 948.62 524.4 951.4 526.48 947.93 531.52 944.1 537.43 943.93 539.87 946.01 543.34 944.1 547.69 940.63 554.81 935.24 564.55 930.2 576.19 925.5 586.27 918.9 599.66 912.81 614.43 908.3 624.69 905.17 629.73 900.65 631.47 896.48 633.2 891.78 641.9 885.87 652.67 882.74 657.37 889 661.54 909.16 668.49 928.28 676.49 943.41 683.09 954.36 687.78 963.74 691.26 972.43 695.43 980.6 699.6 986.51 704.64 991.21 710.03 993.47 712.81 1003.03 697 1012.24 683.96 1020.93 671.27 1027.19 660.15 1035.01 645.37 1040.92 634.42 1048.74 621.91 1055.52 609.74 1061.25 600.18 1065.43 594.44 1070.47 587.14 1073.42 582.45 1075.68 577.58 1078.46 571.5 1081.42 565.24 1085.07 557.94 1088.2 550.29 1091.5 543.17 1094.28 535.52 1096.02 529.09 1098.62 522.14 1101.41 514.84 1103.67 508.93 1105.58 502.84 1107.14 496.06 1108.53 490.15 1113.4 486.68 1117.74 483.38 1121.05 480.42 1124 477.29 1126.96 473.64 1129.56 469.47 1131.48 466.17 1135.47 461.82 1140.17 456.43 1142.95 452.44 1146.6 448.09 1149.73 443.22 1153.03 438.88 1154.94 436.1 1156.16 431.93 1155.29 429.84 1151.99 429.84 1146.6 426.02 1140.86 420.63 1136.34 417.67 1131.3 415.76 1124.51 411.07 1115.26 405.06 1105.36 400.19 1094.32 394.35 1082.8 388.99 1070.63 383.64 1060.89 379.58 1051.8 376.01 1042.06 371.79 1026.8 366.43 1016.09 362.54 1007.81 359.62 1000.51 357.67 993.04 354.42 985.25 351.82 976.97 348.74 967.07 345.17 957.01 341.44 948.73 338.52 938.99 335.59 928.6 332.35 918.22 329.1 907.5 325.53 900.36 323.42 889.81 320.34 881.86 318.88 876.83 318.88 871.96 319.85 864.98 320.5 862.38 322.45 861.24 325.69 861.24 329.1 859.46 332.67 856.54 337.38 854.75 343.87 852.97 348.09 847.77 355.56 842.74 362.54 839.82 369.19 837.06 376.5 833.81 385.42 830.24 395.81 825.86 407.66 821.64 415.61 819.69 421.62 818.23 426.33 812.88 436.71 810.77 441.75 805.57 450.02 803.14 457 799.4 464.31 796.81 468.69 795.83 474.21 792.42 479.4 791.13 483.13 794.53 482.81 798.43 480.54 806.55 479.89 814.66 480.21 821.15 482.32 828.78 484.76 837.87 488 845.01 489.79 852.32 491.57 861.57 494.01 869.2 495.63 877.64 497.42 883.32 499.37 886.56 500.18 882.02 504.23 876.5 510.4 871.15 516.73 868.06 520.47 866.28 524.04 861.57 523.55 853.78 522.41 842.42 519.98 830.89 517.54 818.88 515.11 807.03 511.38 798.75 509.27 790.31 507.16 783.98 504.72 778.79 503.59 776.72 504.06"/>
<!--Partie3-->
  <polygon class="product-shape3 shape" points="1160.42 225.28 1163.42 225.28 1174.5 225.28 1183.17 225.28 1196.08 225.28 1204.32 226.24 1210.83 227.33 1207.9 237.41 1205.19 246.63 1201.61 257.37 1198.03 267.78 1194.02 280.04 1183.71 311.81 1177.86 328.08 1173.3 341.09 1168.64 355.41 1166.47 364.63 1162.02 379.38 1158.77 386.86 1157.04 392.17 1153.78 397.27 1153.78 402.59 1149.44 405.08 1142.5 408.77 1135.78 412.35 1131.3 415.76 1124.51 411.07 1115.26 405.06 1105.36 400.19 1094.32 394.35 1082.8 388.99 1070.63 383.64 1060.89 379.58 1051.8 376.01 1042.06 371.79 1026.8 366.43 1016.09 362.54 1007.81 359.62 1000.51 357.67 993.04 354.42 985.25 351.82 976.97 348.74 967.07 345.17 957.01 341.44 948.73 338.52 938.99 335.59 928.6 332.35 918.22 329.1 907.5 325.53 901.32 323.7 903.8 317.67 908.68 307.58 912.26 299.23 916.71 290.77 921.79 279.21 927.41 268.49 931.83 258.95 936.6 249.08 940.68 239.72 945.45 230.7 950.56 221.51 956.34 212.14 967.24 195.63 971.49 187.8 976.09 180.82 977.79 183.89 980.18 192.23 978.81 195.8 978.3 197.67 978.81 199.55 980.35 201.42 979.84 203.8 980.52 206.87 982.22 209.08 985.45 209.76 987.67 209.59 992.43 209.59 995.16 209.59 1000.6 209.76 1005.2 209.08 1008.77 207.04 1011.84 203.8 1014.39 200.23 1015.24 196.65 1014.73 193.08 1013.03 189.5 1009.62 186.44 1006.39 184.74 1003.33 184.23 998.73 183.89 995.5 184.91 993.96 186.44 990.9 187.12 988.35 188.14 985.62 182.87 982.73 175.55 981.54 170.78 983.24 167.37 985.11 163.8 987.5 161.93 992.77 162.95 998.22 164.65 1001.96 166.01 1010.13 168.57 1016.26 170.1 1021.03 171.97 1024.6 173.33 1031.75 174.18 1033.62 175.38 1039.24 176.23 1045.37 178.78 1056.77 182.87 1064.78 185.59 1071.24 187.29 1080.27 190.52 1088.44 192.91 1097.63 196.31 1108.86 198.87 1118.91 202.44 1128.27 205.67 1136.78 209.42 1143.93 212.14 1151.25 214.19 1155.67 215.04 1160.44 216.74 1161.29 218.95 1160.95 222.36 1160.42 225.28"/>
<!--Elastic1-->
  <polygon class="product-shape4 shape" points="1122.3 265.05 1120.83 267.32 1120.24 269.68 1121.27 271.95 1122.3 273.42 1124.67 274.31 1127.42 273.82 1133.23 272.14 1139.73 270.86 1147.71 269.68 1154.2 267.81 1160.5 265.94 1164.84 265.05 1167.49 266.23 1170.45 266.14 1173.4 265.64 1175.77 264.46 1179.31 263.87 1183.05 262.1 1185.91 259.64 1186.6 257.47 1186.6 253.83 1186.6 250.58 1186.6 247.92 1184.13 245.56 1181.67 242.7 1179.11 241.62 1175.77 241.62 1173.11 242.21 1166.71 242.11 1165.03 243.79 1162.77 245.56 1160.21 248.02 1159.42 251.76 1159.52 254.52 1159.91 256.59 1155.38 257.96 1149.77 259.44 1142.98 261.11 1136.09 262.49 1130.77 263.38 1125.36 264.17 1122.3 265.05"/>
  <polygon class="product-shape4 shape" points="1153.42 258.48 1152.22 255.39 1151.83 251.75 1152.93 248.06 1154.75 244.94 1157.53 242.35 1160.58 240.21 1163.24 238.98 1166.16 238.2 1169.92 237.87 1174.01 238.39 1175.83 239.37 1179.11 241.62 1175.77 241.62 1173.11 242.21 1166.71 242.11 1165.03 243.79 1162.77 245.56 1160.21 248.02 1159.42 251.76 1159.52 254.52 1159.91 256.59 1155.38 257.96 1153.42 258.48"/>
  <polygon class="product-shape4 shape" points="1082.26 164.19 1086.95 159.5 1090.46 156.52 1093.45 154.28 1095.26 152.04 1099.09 152.04 1100.91 153.53 1100.91 156.3 1100.91 158.97 1098.99 161.42 1096.32 164.19 1094.51 166.85 1093.13 168.66 1088.12 167.6 1084.28 166.85 1082.26 164.19"/>
  <polygon class="product-shape4 shape" points="1140.52 182.9 1143.14 184.43 1146.14 185.58 1148.95 186.34 1151.5 186.66 1152.08 184.05 1152.08 180.98 1152.08 177.66 1152.08 174.6 1152.08 172.24 1151.18 170.58 1149.46 169.24 1147.1 168.66 1145.5 168.98 1143.9 170.19 1142.95 171.92 1140.97 174.92 1140.52 182.9"/>
  <polygon class="product-shape4 shape" points="1111.03 108.62 1113.6 102.62 1116.66 93.69 1119.59 85.37 1122.41 79.13 1126.94 72.28 1130.73 67.63 1135.99 61.88 1141.01 58.33 1146.02 55.15 1151.04 52.71 1156.42 51.24 1164.13 50.01 1172.33 50.01 1179.06 51.36 1183.58 53.19 1186.76 55.27 1190.92 59.19 1194.72 63.72 1197.04 68.24 1198.02 72.89 1198.02 80.72 1197.04 87.21 1195.33 92.59 1192.52 100.54 1189.7 106.91 1186.76 112.54 1183.58 118.9 1180.65 124.04 1176.61 129.91 1173.55 133.33 1172.08 131.25 1170.37 129.42 1167.68 128.69 1165.35 127.22 1168.53 123.18 1172.08 117.67 1175.26 112.29 1178.81 106.42 1181.14 102.01 1183.09 97 1185.17 91.67 1186.76 85.62 1187.13 80.97 1187.25 75.34 1186.76 71.91 1185.17 68.61 1183.09 65.92 1180.16 63.84 1176.98 62 1173.43 61.03 1168.78 60.41 1162.29 60.41 1156.67 61.88 1152.14 64.08 1146.88 66.65 1143.45 69.47 1140.03 73.02 1137.34 76.07 1134.64 80.23 1131.83 84.64 1129.63 88.8 1128.16 91.67 1125.96 97.12 1124.24 101.65 1123.14 106.3 1122.04 110.33 1121.06 113.88 1117.02 112.9 1113.84 111.92 1112.5 110.21 1111.03 108.62"/>
  <polygon class="product-shape4 shape" points="304.15 300.82 306.16 297.61 308.57 296.14 311.38 296.14 314.32 297.75 315.52 299.62 316.19 303.1 315.12 309.92 315.17 312.81 314.81 317.44 314.99 324.7 315.63 329.87 316.19 334.21 317.01 340.15 317.01 347.38 317.01 355.67 317.81 360.05 317.01 361.46 317.01 366.22 317.01 373.14 316.74 379.33 316.19 384.83 315.39 387.91 314.18 390.85 312.31 394.46 310.98 396.53 308.83 397.25 306.02 397.25 305.76 395 307.9 391.78 309.77 389.52 310.98 387.37 307.9 386.17 304.15 384.83 305.36 381.89 306.29 377.88 307 372.05 307 356.7 306.43 348.85 305.76 340.29 305.49 332.39 305.19 326.88 305.28 317.71 305.28 313.26 304.95 304.3 304.15 300.82"/>
  <polygon class="product-shape4 shape" points="304.75 397.25 304.75 399.17 301.8 402.32 298.34 406.19 296.2 408.94 291.92 408.94 285.5 408.94 283.03 408.64 285.61 406.8 288.28 403.67 290.49 401.2 293.14 398.45 295.79 396.53 298.44 395.81 302.1 395.81 304.75 397.25"/>
  <polygon class="product-shape4 shape" points="270.94 423.69 274.2 424.42 276.24 427.48 276.24 431.14 273.08 434.71 269.31 437.36 264.63 439.19 261.44 440.64 258.11 442.04 254.92 443.57 250.33 446.3 247 448.16 242.01 450.89 237.88 454.29 234.09 457.68 230.83 461.34 228.3 464.2 226.1 468.13 225.17 470.86 224.84 474.85 224.84 476.65 225.62 481.25 227.56 485.93 229.7 491.03 233.06 495.51 237.52 498.76 243.14 503.96 251.7 508.65 257.49 510.95 264.08 512.74 271.27 513.24 278.96 512.74 286.95 511.15 292.64 508.35 299.63 503.86 304.22 499.06 309.11 492.97 313.53 485.98 317.1 480.29 320.49 474.3 323.09 468.91 326.09 462.62 327.88 458.52 331.08 452.43 332.78 449.14 337.97 448.74 342.56 449.04 345.56 450.84 345.56 454.03 342.26 460.01 338.37 467.41 333.87 476 328.75 485.75 325.39 490.68 322.03 496.72 317.01 501.42 313.53 506.12 313.53 508.23 310.11 512.34 305.82 516.14 301.52 519.23 297.63 521.13 293.24 523.23 288.44 525.02 284.15 526.32 280.06 527.12 265.78 527.12 260.69 525.92 252.4 524.23 247.01 522.33 241.01 519.03 233.03 514.14 227.54 509.35 222.34 503.96 219.72 500.46 216.45 495.17 213.96 491.08 212.56 485.18 212.56 479.99 212.72 470.86 214.89 465.96 218.31 460.72 221.5 456.51 224.23 452.63 227.76 449.22 233.8 445 240.64 440.44 248.04 437.02 254.65 433.61 263.19 429.28 268.78 426.32 270.94 423.69"/>
  <polygon class="product-shape4 shape" points="352.34 439.54 356.38 435.89 360.15 431.92 362.82 428.73 365.17 425.74 365.69 423.69 363.47 420.53 361.85 417.99 360.74 416.04 358.14 416.04 355.53 418.12 352.34 421.31 349.74 423.69 347.01 426 344.86 428.47 344.86 430.75 347.4 433.87 350.07 437.84 352.34 439.54"/>
  <polygon class="product-shape4 shape" points="369.46 407.9 374.8 404.19 381.96 399.96 388.31 397.25 390.58 396.53 396.2 393.35 401.39 390.54 406.5 387.34 413.92 383.23 420.28 380.32 428.1 376.42 436.07 372.87 443.36 370.45 450.53 367.07 458.31 363.59 466.36 360.11 471.58 358.28 476.33 357 479.9 356.09 485.67 356.09 490.8 356.09 493.62 356.61 496.79 358.94 499.73 361.38 502.17 362.48 504.01 364.56 504.01 366.39 501.07 367.74 496.31 367.98 493.74 367.86 492.15 366.76 487.5 366.15 481.52 366.88 478.9 367.62 474.87 368.17 468.74 370.91 462.52 373.47 458.86 375.03 451.45 378.65 443.74 382 436.73 384.97 430.3 388.15 422.48 392.06 415.19 395.64 412.72 396.53 408.74 398.1 403.04 400.79 397.46 404.28 390.52 408.31 385.81 410.76 381.89 413.82 377.98 416.04 376.03 414.68 375.54 412.11 372.73 410.28 370.04 409.18 369.46 407.9"/>
    <polygon class="product-shape4 shape" points="988.35 188.14 990.9 187.12 993.96 186.44 996.88 186.86 999.05 187.29 1001.06 188.87 1001.98 191.71 1002.9 193.89 1004.99 194.3 1007.25 194.3 1008.76 195.31 1008.76 197.48 1007.67 199.32 1005.33 200.49 1002.06 201 1000.22 201.92 998.55 204.67 997.05 207.27 995.16 209.59 992.43 209.59 987.67 209.59 985.45 209.76 982.22 209.08 980.52 206.87 979.84 203.8 980.35 201.42 978.81 199.55 978.3 197.67 978.81 195.8 980.18 192.23 977.79 183.89 976.09 180.82 974.3 176.91 972.71 171.47 971.04 167.46 969.45 163.11 968.78 161.93 966.52 161.93 966.52 159.35 965.68 157.42 964.85 155.5 965.85 154.16 968.11 154.66 969.7 153.41 970.79 152.15 973.63 152.15 976.05 152.15 978.23 153.66 978.81 158.18 979.32 162.27 980.74 166.87 981.54 170.78 982.73 175.55 985.62 182.87 988.35 188.14"/>

  <!--nocolor-->
  <polygon fill="#fff" points="995.5 184.91 998.73 183.89 1003.33 184.23 1006.39 184.74 1009.62 186.44 1013.03 189.5 1014.73 193.08 1015.24 196.65 1014.39 200.23 1011.84 203.8 1008.77 207.04 1005.2 209.08 1000.6 209.76 995.16 209.59 997.05 207.27 998.55 204.67 1000.22 201.92 1002.06 201 1005.33 200.49 1007.67 199.32 1008.76 197.48 1008.76 195.31 1007.25 194.3 1004.99 194.3 1002.9 193.89 1001.98 191.71 1001.06 188.87 999.05 187.29 996.88 186.86 993.96 186.44 995.5 184.91"/>
  <path fill="#fff" d="m483.01,353.62l3.93-2.01,5.12-1.37h6.22l5.4,1.1s1.88.36,3.39,1.92,3.71,2.06,5.03,4.12,2.17,3.21,2.38,4.76.47,3.37,0,4.67-1.07,3.26-1.74,4.03-4.39,3.02-4.39,3.02l-4.85,1.83-8.79.46-4.67-.46s-4.49-1.22-4.85-2.2-4.85-4.12-4.85-4.12l-1.46-1.74,2.62-.74,5.99-.73,4.64.61,1.59,1.1,2.57.12,4.77-.24,2.93-1.34v-1.83l-1.83-2.08-2.44-1.1-2.93-2.44-3.18-2.32-2.81-.53h-10.9l3.11-2.47Z"/>
  <path fill="#fff" d="m305.28,313.26l-5.97-1.82-3.2-3-3-4.09v-3.9l1.18-3.36s1.36-2.69,2.27-3.27,1.67-1.12,1.67-1.12l2.33-1.24s3.73-1.61,6.08-1.72,5.38-.18,6.81.09,4.41.9,5.45,1.63,2.96,1.92,3.99,2.91,2.58,2.28,3.09,3.18,1.35,3.31,1.36,5.17-3.27,4.74-2.45,3.9-2.1,3.29-2.81,3.18-1,1.37-3.36,2.36-3.54.64-3.54.64l.35-13.19-1.2-1.87-2.94-1.61h-2.81l-2.41,1.47-2.01,3.21.8,3.48.33,8.96Z"/>
</svg>