<svg id="product-svg" data-name="Calque 1" xmlns="http://www.w3.org/2000/svg" xmlns:xlink="http://www.w3.org/1999/xlink" viewBox="0 0 1280 850">
  <polygon class="product-shape1 shape" fill="#fff" points="199.83 469.72 197.11 474.58 195.8 479.82 194.78 488.8 193.28 499.46 192.81 517.04 192.81 535.36 192.81 546.58 194.5 553.5 196.93 559.67 202.16 566.97 211.14 579.31 218.62 589.31 232.65 609.7 260.14 647.1 284.91 679.45 295.89 693.99 308.59 711.24 321.44 728.16 338.05 750.73 343.85 756.85 347.61 756.85 351.69 755.75 360 751.67 369.4 747.29 378.34 743.84 395.11 738.66 405.92 734.75 421.6 729.26 434.45 725.03 446.2 722.21 452.63 721.42 456.24 721.11 458.43 718.92 460.15 714.84 460.15 704.97 461.09 698.85 461.09 686.63 459.84 677.69 460 662.02 458.43 654.81 458.12 649.48 458.27 638.19 458.27 633.81 461.09 635.53 469.87 644.46 485.7 659.35 505.45 679.26 515.17 688.98 520.81 694.78 525.36 695.09 539.47 687.25 556.71 679.42 572.22 672.52 594.64 663.59 616.27 654.97 636.49 647.76 647.46 643.84 655.14 642.27 661.25 640.39 664.23 636.78 666.11 632.24 667.05 608.41 667.05 600.11 670.19 601.05 683.04 610.92 697.62 621.27 703.89 625.5 710.16 629.89 715.17 633.65 719.87 638.82 723.32 640.39 728.18 639.92 733.82 636.94 743.54 631.45 758.28 624.71 774.42 617.5 787.9 611.7 797.77 607.63 807.81 603.24 814.39 601.05 820.81 599.64 828.65 596.5 829.44 593.05 829.44 573.77 828.02 567.19 827.87 561.7 830.69 562.33 838.21 566.72 857.02 576.28 870.66 583.65 878.81 588.04 885.23 590.86 893.7 596.34 904.83 603.4 914.39 609.35 916.74 610.14 920.19 609.82 924.11 608.41 938.06 600.11 956.87 589.45 971.6 581.92 983.51 575.81 995.58 569.86 1013.92 560.29 1024.26 555.12 1037.43 548.22 1047.46 544.46 1054.67 541.33 1057.34 539.29 1059.22 536.16 1061.72 522.52 1064.7 505.9 1068.46 486.63 1070.66 469.72 1072.7 459.04 1075.2 446.19 1077.87 430.2 1079.12 420.79 1079.12 410.92 1074.89 409.04 1063.76 406.06 1035.71 397.13 1015.96 390.07 994.33 382.86 976.93 377.69 967.05 374.56 956.08 371.89 943.86 368.6 935.71 366.72 931.13 367.22 922.96 367.34 915.68 367.2 911.75 367.12 908.75 367.48 909.68 368.84 910.75 369.84 912.61 370.12 914.68 369.48 918.46 368.62 921.68 368.2 924.82 367.84 927.82 368.62 931.89 370.27 935.89 372.12 939.39 373.7 940.96 374.27 943.25 373.05 945.96 372.41 948.25 371.91 950.53 372.12 951.82 372.84 952.25 373.7 954.96 374.48 956.17 376.05 956.6 377.91 956.82 380.34 956.6 382.27 955.82 383.62 957.1 385.41 959.39 388.19 961.89 389.98 964.89 392.76 968.17 395.19 970.1 396.84 970.6 399.62 974.82 402.76 981.39 407.05 984.1 407.98 987.96 410.19 991.46 412.91 995.81 416.26 999.96 419.33 1002.96 422.9 1006.74 427.33 1012.88 434.4 1016.45 439.26 1019.38 443.97 1022.24 448.62 1025.67 454.9 1026.74 461.26 1028.02 467.11 1029.6 473.54 1030.31 478.83 1030.95 484.97 1030.81 490.76 1031.17 496.61 1031.95 497.18 1033.74 496.04 1037.95 493.18 1042.38 490.9 1047.17 489.04 1051.24 488.04 1054.81 486.61 1059.02 486.76 1062.45 487.54 1063.66 488.97 1063.88 492.18 1063.52 495.6 1062.24 498.4 1059.02 502.4 1056.59 504.75 1054.04 507.33 1051.74 509.4 1048.02 511.47 1043.95 513.25 1039.1 514.75 1034.88 516.4 1030.88 518.54 1026.81 520.82 1023.03 522.04 1019.24 522.97 1017.1 522.9 1017.31 519.47 1021.17 512.75 1022.67 508.97 1023.53 503.4 1024.6 499.18 1025.02 491.33 1024.95 481.47 1024.53 476.19 1023.24 469.47 1020.31 461.69 1019.03 456.33 1016.24 449.19 1014.38 445.33 1009.81 438.47 1005.88 432.76 1000.96 427.55 995.6 422.4 989.53 417.83 984.31 414.19 977.53 409.69 971.96 405.55 968.32 403.76 966.67 403.34 964.6 404.19 962.39 403.48 961.39 401.41 959.89 399.55 953.46 397.19 947.6 394.76 941.39 392.84 934.6 390.27 928.25 388.34 923.03 386.55 917.75 384.91 911.68 383.27 906.32 381.55 901.89 380.34 897.89 378.77 892.61 377.27 889.11 377.12 886.9 376.41 882.82 374.34 880.54 372.98 877.25 370.98 869.11 368.84 864.11 367.55 857.33 365.91 851.33 363.91 841.83 360.12 818.76 350.98 806.26 346.2 790.55 339.91 781.48 336.41 773.91 333.2 764.62 330.2 757.48 327.91 751.69 326.2 745.48 325.06 739.12 323.91 733.91 323.91 731.2 323.34 727.27 322.49 723.05 322.84 712.48 324.7 693.98 328.49 683.13 330.84 672.2 333.17 660.91 335.44 653.03 336.42 644.62 337.79 635.97 338.24 632.12 339 631.51 347.94 631.13 360.21 630.91 371.12 630.45 378.55 624.54 374.46 612.12 367.33 607.95 363.93 605.37 363.4 599.31 363.62 592.34 364.08 588.18 365.29 583.71 366.88 579.01 367.33 578.33 368.55 582.19 369.61 587.27 369.68 593.1 370.67 596.66 372.79 602.8 375.06 611.36 379.38 617.88 382.41 625.38 386.43 630.75 389.38 634.62 391.81 638.1 391.12 640 389.61 641.51 387.56 643.71 385.37 645.76 382.49 647.35 381.05 651.14 381.12 655.61 383.4 661.67 385.9 665.3 385.9 668.79 386.58 673.11 388.02 677.05 389.99 680.46 391.96 681.21 392.79 683.64 392.94 685.99 393.55 688.41 394.69 689.4 396.5 689.93 399.46 689.47 400.82 690.61 402.56 694.47 406.66 696.59 408.1 700.38 408.02 703.11 408.4 705 409.53 706.97 410.6 708.18 412.19 708.11 414.69 712.58 415.44 724.7 416.58 730.23 416.81 733.03 416.43 734.7 416.96 735.31 419.16 735.16 421.28 733.87 421.81 730.23 421.28 724.25 420.9 714.78 419.99 709.93 420.14 705.38 419.16 702.5 418.63 699.02 417.57 695.76 416.2 695.08 414.61 694.09 413.55 690.83 412.72 688.11 411.05 684.77 409.46 683.56 408.93 680.68 408.93 678.03 407.79 674.55 405.82 671.44 404 669.17 402.94 667.73 403.32 668.86 404.38 670.23 406.2 672.65 408.63 675.34 410.29 680.43 412.2 686.39 414.34 691.72 416.41 699.35 419.59 706.99 421.98 715.42 425.4 724.88 428.58 731.72 431.92 740.54 434.94 747.38 437.88 754.46 441.3 765.99 447.66 772.03 451.56 779.99 456.89 782.69 460.23 788.89 467.62 793.58 473.43 798.59 482.49 801.93 490.28 804.72 498.48 806.55 508.65 807.26 519.47 807.66 528.46 807.9 538.4 809.49 538.47 813.7 536.17 819.83 534.1 824.44 532.43 829.05 530.2 831.68 529.81 834.7 530.13 836.29 531.72 837.24 534.66 836.76 537.92 834.38 541.26 830.4 544.52 827.14 547.3 824.68 548.89 818.32 552.47 812.75 556.37 809.41 558.75 804.56 560.42 799.31 562.17 794.38 563.21 789.85 564.48 788.81 562.73 790.54 557.57 792.88 555.34 795.44 552.03 795.73 547.18 796.41 543.18 796.87 536.51 797.1 529.14 796.93 519.95 797.1 512.48 796.36 508.94 795.1 502.15 793.16 496.44 791.33 490.5 789.22 484.39 786.2 479.2 782.66 474.06 779.52 470.07 775.52 465.33 770.79 461.22 765.31 457.05 760.01 453.48 751.99 447.93 744.97 443.37 732.27 436.34 723.03 431.78 714.77 427.96 705.65 423.9 698.38 421.06 690.86 417.86 682.97 414.65 677.96 412.26 673.18 410 668.92 407.89 665.32 405.99 659.12 403.1 655.26 400.83 651.71 398.57 647.04 396.4 643.27 394.52 638.47 393.2 633.39 393.01 629.34 390.57 623.7 388.12 615.23 383.7 606.85 380.22 599.04 376.92 592.45 374 586.34 371.84 579.56 370.52 575.5 369.13 571.29 368.57 565.81 369.27 557.95 370.25 546.02 370.95 534.23 372.07 524.54 373.76 519.35 374.6 517.94 377.83 515.84 388.22 513.17 400.15 511.07 409.56 509.66 419.8 507.28 425 505.73 433.42 505.03 439.88 504.75 446.05 502.92 446.05 494.78 440.72 485.85 435.04 482.12 431.9 477.12 427.88 473.1 423.46 470.35 421.99 461.23 421.99 454.17 422.29 449.26 422.97 444.16 425 439.85 426.11 435.46 427.39 431.59 428.58 427.28 429.54 423.84 430.62 427.82 432.12 431.26 432.55 436.96 432.66 443.74 435.14 452.88 439.11 464.6 444.81 474.28 449.22 484.5 454.6 493.96 460.52 502.03 465.57 510.85 470.63 518.7 475.68 528.48 482.46 537.41 488.59 542.68 492.46 550.64 497.83 557.2 503.1 566.88 510.52 573.44 516.44 580.1 522.57 585.05 527.73 590.11 533.32 596.24 541.17 601.61 549.13 605.38 555.91 607.42 561.39 609.89 568.06 612.26 575.91 613.77 582.79 614.09 585.91 618.18 585.38 623.45 582.58 627.42 580.11 630.11 577.96 631.73 577.2 634.31 578.71 634.84 581.18 635.97 585.91 634.95 589.25 634.09 593.23 632.8 598.39 631.51 601.29 629.9 603.87 631.08 604.63 634.74 603.66 639.04 601.83 643.02 600.11 646.46 598.93 648.61 598.6 648.29 600.54 646.24 602.8 642.59 606.78 638.29 610.33 633.12 613.77 627.96 616.46 622.15 619.9 617.1 622.69 612.37 624.09 607.31 625.38 601.29 627.43 594.84 628.61 587.74 630.22 581.61 631.62 577.63 632.7 575.16 632.7 577.09 631.4 580.86 630.11 583.55 627 584.73 624.2 587.1 620.44 589.68 618.93 593.76 617.53 599.68 615.38 601.08 611.29 602.26 603.23 601.29 593.55 600.32 587.2 598.17 579.89 596.77 574.41 594.41 567.63 591.29 560.96 587.63 554.73 583.33 547.41 578.38 541.28 571.18 533.11 563.87 525.58 554.4 516.44 545.15 508.7 537.09 502.67 530.1 496.87 521.82 490.74 509.34 482.46 499.77 476.11 488.8 468.9 479.87 463.1 471.16 457.4 462.34 452.56 454.17 447.72 447.07 443.85 440.19 440.51 434.06 437.93 427.93 435.78 421.05 434.92 415.35 434.92 411.8 435.35 408.03 436.86 405.02 438.25 401.69 439.65 399.64 440.51 393.73 440.73 387.6 441.59 384.05 442.66 379 443.74 375.35 444.49 374.26 444.71 369.21 445.46 363.62 446.75 359.75 448.15 353.62 449.22 347.7 450.08 345.98 450.94 345.98 453.31 346.63 455.35 347.06 459.12 346.63 463.2 345.77 467.4 344.9 479.44 344.8 492.24 343.88 504.58 343.68 512.95 345.31 518.66 347.35 523.97 342.45 521.31 335.92 515.19 328.57 508.46 322.25 503.56 314.49 496.62 305.92 486.82 293.88 472.33 286.12 461.51 283.47 457.23 281.02 456 274.89 456.41 263.06 457.84 255.91 459.06 250.81 459.47 250.61 462.94 255.3 465.59 261.42 469.06 268.36 474.78 276.12 481.72 285.3 490.7 293.26 498.05 302.24 506.41 312.45 515.6 318.37 521.31 326.33 527.64 334.9 535.4 344.08 543.36 354.09 551.93 364.7 562.34 372.86 569.89 381.44 579.08 386.54 584.99 392.66 594.59 398.78 606.02 404.91 617.65 407.36 625.82 410.42 635.82 411.85 643.37 412.46 651.74 412.87 658.06 413.28 661.33 416.34 660.72 421.44 657.86 425.73 654.8 430.83 651.53 434.91 650.31 440.42 650.1 444.5 652.76 447.36 656.64 446.54 659.49 443.08 662.35 437.36 666.02 432.46 669.29 428.38 672.35 428.18 674.39 431.65 673.98 436.75 670.92 441.65 667.66 445.52 665.82 447.97 664.39 449.4 667.66 444.3 671.74 438.99 675.82 435.12 679.09 429.4 681.33 422.66 684.39 415.11 688.27 406.95 690.92 398.38 692.97 390.62 694.8 383.27 695.82 375.52 696.23 370.82 696.44 372.25 692.56 374.7 689.7 377.15 688.68 381.03 688.48 384.09 686.23 387.15 682.56 390.21 678.88 391.85 675.62 394.5 671.53 395.52 668.88 395.72 659.7 395.93 648.47 394.29 637.86 392.25 629.49 390.62 622.75 387.76 613.77 383.48 606.63 377.97 598.06 372.46 590.71 366.13 583.36 361.23 577.65 354.7 570.91 346.53 563.16 339.59 555.6 333.06 549.48 326.33 543.97 319.18 537.23 313.67 532.13 306.94 526.21 300.41 519.89 291.63 512.13 285.51 506.21 278.98 499.68 272.85 494.17 267.34 488.66 261.83 483.76 254.69 476.82 248.16 470.9 243.67 467.43 239.99 464.78 236.52 463.96 232.03 463.76 229.17 465.19 226.93 467.02 221.42 466.82 214.07 466.61 208.97 466.82 201.42 467.64 199.83 469.72"/>
  <polygon class="product-shape1 shape" fill="#fff" points="1036.88 502.63 1038.12 500.55 1040.16 497.33 1042.21 494.88 1044.21 493.39 1046.15 492.39 1049.23 492.56 1051.51 493.04 1053 494.15 1053.73 495.78 1054.04 497.44 1053.66 499.13 1052.69 501.49 1051.51 503.42 1049.61 506.37 1047.74 508.17 1046.08 509.62 1044.63 510.73 1042.97 511.73 1040.86 512.32 1038.05 512.94 1036.18 513.63 1034.35 514.26 1032.66 514.77 1031.82 514.26 1032.59 512.04 1034.07 508.23 1036.01 504.32 1036.88 502.63"/>
  <polygon class="product-shape1 shape" fill="#fff" points="917.38 382.22 921.03 383.15 925.68 383.46 931.41 383.46 937.76 383.46 940.55 384.16 941.72 386.41 942.72 388.19 944.35 389.35 947.06 389.82 949.47 389.27 951.02 388.73 953.03 390.59 955.05 392.53 957.14 394.93 953.73 394.31 949.08 392.92 944.43 390.98 939.78 389.04 936.06 388.58 929.71 386.33 923.35 384.39 918.93 383.46 917.38 382.22"/>
  <polygon class="product-shape1 shape" points="921.1 373 924.36 373 927.23 373.47 931.87 375.09 934.35 376.18 930.94 376.64 924.44 376.95 921.1 376.95 917.38 376.41 919.4 374.98 921.1 373"/>
  <polygon class="product-shape1 shape" fill="#fff" points="874.95 363.04 878.34 363.04 883.43 363.04 884.24 363.94 882.27 363.94 881.56 365.28 880.67 366.53 879.59 367.24 878.07 367.24 876.02 366.17 874.95 365.14 874.95 363.04"/>
  <polygon class="product-shape1 shape" fill="#fff" points="859.94 362.06 859.94 358.93 861.01 358.4 861.55 355.81 862.53 354.11 865.93 353.66 870.93 353.13 874.95 352.59 878.97 352.06 882.36 352.06 885.94 352.06 889.33 352.06 886.83 349.91 881.47 348.04 866.28 342.77 856.99 339.55 850.38 337.32 838.77 333.03 828.41 330.08 818.94 327.04 811.35 324.36 799.91 320.52 789.55 316.95 783.92 314.54 779.63 313.91 775.17 314.45 768.44 315.12 760.26 315.9 754.41 317.19 747.27 318.1 740.91 319.27 735.06 320.18 730.91 321.09 725.71 322.49 733.89 321.87 742.08 323.04 748.96 323.43 763.25 326.54 772.6 329.79 779.35 332.65 785.32 334.99 793.38 337.99 800.65 341.09 808.96 344.34 817.79 347.45 824.93 350.18 831.56 352.78 837.92 355.64 845.06 357.97 852.73 360.7 857.01 362.06 859.94 362.06"/>
  <polygon class="product-shape2 shape" fill="#fff" points="150.41 501.48 148.04 498.82 146.86 496.15 148.04 493.64 152.18 489.5 154.55 484.76 155.88 482.39 155.88 478.25 157.21 474.85 161.65 471.74 165.35 470.11 168.16 470.71 170.82 471.89 173.34 470.85 176.44 468.34 182.36 464.05 186.06 461.98 191.09 459.46 195.68 458.43 200.26 458.43 203.52 459.02 205.89 459.91 208.11 459.31 212.25 454.43 215.65 450.59 221.86 446.29 225.86 444.37 230.74 443.78 234.74 444.96 236.22 446.59 238.58 448.81 239.32 450.88 240.06 454.28 238.88 456.36 237.1 458.43 236.96 460.35 235.48 462.12 233.11 461.83 231.63 460.2 231.93 456.8 231.93 452.51 230.15 450.59 226.89 450.88 223.34 453.4 219.79 456.21 217.72 458.87 216.09 461.39 213.14 464.05 209.59 465.08 205.89 465.68 197.6 465.97 194.2 465.97 190.5 467.3 187.1 468.78 184.14 471.15 180.88 473.52 178.96 475 183.55 473.81 189.46 471.89 192.81 470.26 197.45 468.19 201.42 467.64 199.83 469.72 197.11 474.58 196.77 475.97 192.13 477.36 188.13 478.99 183.69 480.47 179.11 481.8 175.85 482.1 174.23 483.73 171.41 485.5 169.64 486.68 167.86 487.28 165.2 488.16 163.43 491.57 161.21 496.45 158.99 501.48 157.8 504.73 156.47 506.66 154.4 507.4 151.89 506.81 149.96 505.33 150.41 501.48"/>
  <polygon class="product-shape2 shape" fill="#fff" points="412.27 427.21 414.76 427.61 415.26 429.6 415.26 431.6 413.76 433.09 411.77 434.29 408.38 435.29 404.89 436.08 402.69 437.08 399.9 438.18 396.41 438.88 393.42 438.88 389.73 439.38 387.93 439.97 387.6 441.59 384.05 442.66 379 443.74 375.35 444.49 378.36 441.97 380.75 440.47 378.26 440.27 377.86 438.28 378.16 436.38 380.05 434.99 383.24 434.19 386.43 434.19 390.52 433.99 394.51 433.79 398.2 432.59 401.69 431.6 405.48 430.3 408.88 428.8 412.27 427.21"/>
  <polygon class="product-shape2 shape" fill="#fff" points="376.36 435.09 376.36 437.58 375.96 440.57 375.35 441.77 372.77 441.77 370.58 443.17 367.68 444.49 364.89 445.36 362.2 446.16 359.75 448.15 353.62 449.22 347.7 450.08 345.98 450.94 345.98 453.31 346.63 455.35 347.06 459.12 346.74 462.11 342.35 462.11 339.76 462.11 335.97 459.52 334.97 457.63 335.67 455.23 333.17 454.24 329.38 453.54 324.89 452.84 321.5 452.54 319.91 451.64 319.91 448.6 322.6 446.16 325.19 445.26 327.59 443.07 329.68 443.17 331.38 443.66 332.97 444.49 334.47 445.36 336.17 446.26 338.36 446.26 340.35 445.26 342.05 445.16 343.35 445.56 344.24 446.36 346.34 447.85 347.44 448.15 349.23 447.26 352.62 445.26 357.41 442.17 362 440.17 365.69 437.98 370.18 436.58 372.67 435.85 374.47 435.09 376.36 435.09"/>
  <polygon class="product-shape2 shape" fill="#fff" points="646.72 385.38 647.95 383.48 650.52 383.1 652.7 383.48 655.08 384.24 657.93 385.38 660.64 386.15 661.67 385.9 665.3 385.9 668.79 386.58 673.11 388.02 677.05 389.99 680.46 391.96 681.21 392.79 680.71 393.28 677.54 391.97 672.32 390.16 668.23 388.55 665.36 388.47 663.97 390.2 662.2 391.93 660.34 391.8 658.32 390.49 654.82 389.27 651.91 388.6 649.26 388.47 646.9 387.67 645.59 386.49 646.72 385.38"/>
  <polygon class="product-shape2 shape" fill="#fff" points="666.37 390.96 664.52 391.89 662.92 393.28 662.92 394.92 664.64 396.61 667.68 398.21 671.89 400.91 674.8 402.47 677.54 403.77 678.99 403.77 679.57 403.77 683.49 404.15 685 403.65 685.97 402.97 687.41 404.15 686.52 406.09 684.29 407.95 683.56 408.93 688.11 411.05 690.83 412.72 694.09 413.55 695.08 414.61 695.76 416.2 699.02 417.57 702.5 418.63 705.38 419.16 709.93 420.14 714.78 419.99 724.25 420.9 730.23 421.28 733.87 421.81 735.16 421.28 735.31 419.16 734.7 416.96 733.03 416.43 730.23 416.81 724.7 416.58 712.58 415.44 708.11 414.69 708.18 412.19 706.97 410.6 705 409.53 703.11 408.4 700.38 408.02 696.59 408.1 694.47 406.66 690.61 402.56 689.47 400.82 688.42 399.96 687.19 399 687.1 397.47 686.89 396.2 685.35 396.24 683.86 397.03 682.99 398.12 681.85 398.87 678.74 396.98 674.84 395.1 671.02 392.87 667.83 390.96 666.37 390.96"/>
  <polyline class="product-shape2 shape" fill="#fff" points="679.98 406.95 682.49 406.81 683.38 405.87 684.23 404.62 685 403.65 683.49 404.15 679.57 403.77 678.99 403.77 678.99 405.42 678.99 406.01"/>
  <polygon class="product-shape2 shape" fill="#fff" points="863.11 356.05 867.31 356.05 870.2 355.14 873.25 354.24 877.53 353.25 883.14 353.25 885.94 352.06 889.33 352.06 894.02 352.06 898.22 352.06 900.44 351.19 903.08 350.77 905.3 350.77 906.71 351.93 909.34 354.07 910.66 356.05 911.32 357.61 915.69 357.61 923.27 357.04 928.79 356.87 932.75 356.95 934.35 358.11 935.63 359.59 936.21 361.4 936.21 363.88 935.71 366.72 931.13 367.22 922.96 367.34 916.59 367.24 911.75 367.12 908.75 367.48 909.68 368.84 910.75 369.84 912.61 370.12 914.68 369.48 918.46 368.62 921.68 368.2 924.82 367.84 927.82 368.62 931.89 370.27 935.89 372.12 939.39 373.7 940.96 374.27 943.25 373.05 945.96 372.41 948.25 371.91 950.53 372.12 951.82 372.84 952.25 373.7 954.96 374.48 956.17 376.05 956.6 377.91 956.82 380.34 956.6 382.27 955.82 383.62 957.1 385.41 959.39 388.19 961.89 389.98 964.89 392.76 968.17 395.19 970.1 396.84 970.6 399.62 970.6 400.88 969.17 402.03 967.94 403.02 966.67 403.34 964.6 404.19 962.39 403.48 961.39 401.41 959.89 399.55 958.05 396.76 957.14 394.93 955.05 392.53 953.03 390.59 951.02 388.73 949.47 389.27 947.06 389.82 944.35 389.35 942.72 388.19 941.72 386.41 940.55 384.16 937.76 383.46 931.41 383.46 925.68 383.46 921.03 383.15 917.38 382.22 914.62 381.35 912.39 380.19 910.5 380.11 906.62 380.36 901.89 380.34 897.23 378.05 895.42 376.07 893.85 374.26 894.02 373 897.89 373 900.85 374.1 904.15 374.98 907.28 375.74 911.07 375.99 914.53 376.07 917.38 376.41 919.4 374.98 921.1 373 919.48 372.45 916.59 373 913.79 374.1 911.16 374.98 907.78 374.01 906.21 373.68 903.9 371.54 901.1 368.9 899.45 367.75 897.56 368.41 896.49 370.14 894.02 370.55 891.71 369.81 891.54 367.75 891.54 366.27 889.89 365.14 887.67 364.37 884.24 363.94 883.43 363.04 888.49 363.04 890.47 362.06 891.13 360.5 891.13 358.52 890.39 357.2 887.83 356.79 886.43 357.53 883.47 358.03 879.59 358.19 876.21 358.85 873.58 359.51 870.94 359.43 868.55 359.18 866.74 358.44 864.76 358.19 863.11 357.86 863.11 356.05"/>
  <polygon class="product-shape2 shape" fill="#fff" points="886.7 361.58 889.07 361.58 889.85 360.05 889.33 358.27 887.65 357.22 886.43 357.53 883.47 358.03 883.07 358.95 886.7 361.58"/>
  <path fill="#fff" d="m734.68,533.21c1.67,1,2.43,1.52,2.9,2.63.71,1.69,1.2,2.25,2.25,3.4,1.14,1.24,2.13.93,2.79,2.1.48.84.27,1.53.14,3.49,0,0-.09,1.37,0,4.61.05,1.65.24,2.36.98,6.15.24,1.23.93,4.84,1.54,8.52.52,3.17.83,5.55.98,6.71.21,1.62.41,3.27.56,5.03.27,3.22.12,4.33.14,9.08.03,6.43.05,9.64.14,10.62.29,3.1.8,5.87-.7,6.98-.56.42-1.25.5-1.82.56-1.6.18-2.74-.39-4.19-.98-3.86-1.57-3.76-.79-6.29-2.1-1.77-.91-2.12-1.45-4.05-2.23-1.31-.53-2.44-.82-3.21-.98l.84-9.36.14-7.54.14-8.38,2.1-4.24.14-7.49.28-6.01.42-6.57.56-6.29.7-5.17.84-2.51,1.69-.02Z"/>
  <polygon fill="#fff" points="935.57 507.94 936.64 510.75 938.11 512.76 941.6 514.63 945.75 516.24 948.56 517.31 947.62 522.8 946.55 528.29 945.35 532.71 944.14 537.8 942.67 543.02 942.06 547.04 941.06 552.39 940.79 558.82 940.12 563.78 939.45 569.4 938.92 571.54 935.57 571.01 932.62 568.86 928.07 564.58 925.12 562.7 923.79 562.17 925.26 556.81 927.67 550.12 928.87 543.42 929.81 535.79 931.02 529.76 932.09 522.67 933.29 516.91 933.96 512.22 935.57 507.94"/>
    <polygon class="product-shape1 shape" points="921.1 373 924.36 373 927.23 373.47 931.87 375.09 934.35 376.18 930.94 376.64 924.44 376.95 921.1 376.95 917.38 376.41 919.4 374.98 921.1 373"/>

</svg>