<svg id="product-svg" viewBox="0 0 1280 800" xmlns="http://www.w3.org/2000/svg" xmlns:xlink="http://www.w3.org/1999/xlink">
 <g id="Layer_1">
  <title>Layer 1</title>
  <!--partie1-->
   <path class="product-shape1 shape"  id="svg_2" d="m373.97182,594.80251l6.49688,7.55074l14.15938,14.15905l15.49237,10.66145l10.99377,2.49862l25.32016,7.99584l27.98544,7.99584l19.32328,5.33056l26.6528,6.49654l23.98752,6.16354l29.31808,7.32952l30.65071,7.32952l25.32016,6.82953l31.31704,7.16319l24.65384,6.66286l30.65072,6.66354l32.64968,8.66216l19.48994,4.83057l31.98336,4.49757l23.65385,1.16632l-3.83091,-11.16078l-2.66528,-10.66112l-1.33264,-19.9896l-1.33264,-23.3212l-2.66528,-27.31912l-1.99896,-18.65696l-1.99896,-20.65592l-1.33264,-15.32535l0,-17.99064l-1.33264,-21.32224l0,-9.9948l-2.33205,-3.9699l-2.33203,-6.63517l-14.32581,-3.9699l-20.23945,-9.82121l-50.22385,-31.14345l-29.11001,-15.57139l-17.55344,-9.78499l-38.87569,-21.27876l-27.21857,-15.0522l-47.87483,-25.21334l-35.78086,-21.60791l-39.74503,-21.5616l-13.52404,-6.30859l-9.72443,-6.78596l-13.09532,-6.02017l-29.25298,-10.35076l-16.86351,-3.21187l-14.40204,0.24012l-19.47561,7.8101l-24.29217,12.95493l0.22335,11.58348l-0.71862,12.84052l1.56072,18.35051l5.12038,38.03365l13.90536,79.39891l4.82318,24.86749l5.07848,25.51796l0.07854,9.85145l1.49039,6.36972l3.30037,22.17684l-0.22946,14.70226z" opacity="NaN" fill="#fff"/>
  <!--partie2-->
    <path class="product-shape2 shape" id="svg_3" d="m473.82179,292.07592l-3.65999,4.921l-2.99997,5.49994l-2.49997,3.99996l-2.49997,5.66661l-2.99997,5.16661l-5.49994,10.83322l2.8333,1.49998l9.4999,6.49993l12.8332,6.1666l40.66625,21.83311l19.66646,11.99988l15.83317,9.4999l47.83284,25.16641l29.66636,16.49983l25.33307,13.83319l28.33304,15.6665l20.16646,10.83322l9.83323,5.33328l23.33309,14.33318l17.16649,10.66656l8.83324,5.49994l20.66645,10.16656l14.66651,3.99996l2.16664,6.49993l2.49997,4.16662l0.16666,10.33323l1.16665,21.99977l0,17.49982l3.99996,40.83291l4.49995,0.16666l12.66654,-1.33332l5.99994,-0.83332l6.1666,-3.16663l6.99993,-4.83328l6.6666,-4.33329l2.8333,-2.16664l-1.66665,-15.16651l-0.49999,-13.99985l-1.99998,-9.66657l-1.66665,-10.66656l-2.33331,-9.4999l-3.49996,-12.33321l-5.49994,-11.83321l-7.83325,-14.83318l-6.83326,-7.99992l-10.33323,-11.16655l-11.16655,-10.66656l-7.33326,-6.33327l-8.49991,-7.16659l-12.33321,-8.49991l-13.66652,-8.66658l-12.66654,-7.49992l-17.99981,-10.49989l-12.8332,-7.49992l-12.66654,-7.66659l-19.16647,-10.66656l-25.99973,-13.99985l-32.16633,-17.49982l-18.16648,-9.83323l-20.33312,-10.16656l-22.49977,-11.49988l-21.83311,-10.99989l-15.99983,-8.66658l-10.66656,-4.99995l-10.33323,-4.99995l-10.66656,-5.33328l-10.66656,-4.66662l-13.0065,-5.421z" opacity="NaN" fill="#fff"/>
  <path class="product-shape2 shape" id="svg_4" d="m509.48808,291.57592l10.00653,1.42104l11.83321,3.16663l4.83328,3.49996l5.83327,2.49997l-3.3333,0.49999l-4.83328,0.33333l-6.6666,-0.49999l-4.66662,-0.49999l-3.66663,-0.99999l-2.33331,-3.66663l-3.66663,-2.16664l-3.83329,-0.83332l0.49336,-2.75436z" opacity="NaN"  fill="#fff"/>
  <path class="product-shape2 shape" id="svg_5" d="m535.15449,311.90905l5.50658,-0.57894l5.83327,-1.66665l6.33327,-2.16664l2.16664,0.16666l6.1666,1.83331l4.83328,1.16665l5.33328,2.33331l7.16659,3.16663l7.83325,3.66663l7.83325,3.66663l11.33322,4.99995l6.33327,2.99997l9.4999,3.66663l8.33325,3.16663l11.83321,6.6666l11.16655,6.33327l8.49991,5.83327l20.33312,10.16656l9.9999,5.66661l10.16656,6.33327l25.99973,12.49987l15.33317,7.99992l18.83314,10.83322l26.1664,14.33318l12.66654,7.16659l22.16644,12.33321l5.83327,3.3333l33.99965,23.83309l1.66665,2.33331l3.99996,11.49988l4.99995,14.33318l3.99996,15.83317l1.66665,7.49992l4.33329,13.83319l-4.16662,-0.16666l-3.49996,3.16663l-6.83326,4.99995l-3.49996,1.66665l-3.49996,-6.99993l-4.33329,-12.16654l-6.99993,-13.99985l-7.16659,-11.49988l-9.33324,-12.66654l-8.66658,-9.83323l-12.99987,-12.49987l-12.16654,-10.33323l-18.16648,-12.66654l-16.1665,-10.49989l-20.83312,-11.99988l-15.49984,-8.99991l-18.83314,-10.49989l-18.83314,-10.49989l-19.16647,-10.99989l-29.33303,-15.99983l-25.83307,-13.16653l-20.66645,-10.99989l-21.49978,-10.66656l-15.49984,-6.33327l-14.33318,-5.99994l-10.33986,-5.421z" opacity="NaN"  fill="#fff"/>
  <path class="product-shape2 shape" id="svg_6" d="m541.98775,302.24248l3.0066,-1.07894l2.8333,-0.99999l-1.16665,-1.33332l-4.49995,-1.16665l-5.33328,-0.99999l-5.49994,-0.49999l5.49994,3.83329l5.15998,2.24559z" opacity="NaN" fill="#fff"/>
  <path class="product-shape2 shape" id="svg_7" d="m542.32108,292.40925l-5.65997,-0.57894l-7.66659,-1.49998l-5.99994,-1.33332l-6.99993,-1.33332l-4.49995,-0.83332l0.66666,-2.66664l2.49997,-1.99998l3.83329,-1.83331l4.16662,-0.83332l3.83329,-0.16666l3.66663,0.33333l1.16665,2.66664l3.49996,4.33329l4.16662,3.49996l3.32667,2.24559z" opacity="NaN"  fill="#fff"/>
  <path class="product-shape2 shape" id="svg_8" d="m488.15497,281.90936" opacity="NaN"  fill="#fff"/>
  <path class="product-shape2 shape" id="svg_13" d="m879.31759,582.90624l3.33992,-10.07885l3.66663,-5.99994l2.99997,-5.33328l0.33333,2.8333l0.16666,4.33329l-0.16666,2.33331l-0.99999,4.83328l-8.49991,6.6666l-0.83995,0.41228z" opacity="NaN"  fill="#fff"/>
  <!--partie3-->
  <path class="product-shape3 shape" id="svg_10" d="m521.65463,270.90947l-5.65997,1.08771c0.16003,0.07895 -3.0066,1.41226 -3.0066,1.41226c0,0 -3.16663,1.66665 -3.32666,1.5877c0.16003,0.07895 -3.0066,2.41225 -3.16663,2.33331c0.16003,0.07895 -2.33994,3.24558 -2.49997,3.16663c0.16003,0.07895 -1.50662,2.41225 -1.66665,2.33331c0.16003,0.07895 -0.50663,-2.25436 -0.66666,-2.33331c0.16003,0.07895 -2.50661,-2.58769 -2.66664,-2.66664c0.16003,0.07895 -4.83992,-3.42102 -4.99995,-3.49996c0.16003,0.07895 -3.5066,-2.0877 -3.66663,-2.16664c0.16003,0.07895 -2.83994,-1.08771 -2.99997,-1.16665c0.16003,0.07895 -2.33994,3.24558 -2.49997,3.16663c0.16003,0.07895 -2.00661,2.91225 -2.16664,2.8333c0.16003,0.07895 3.65999,1.57893 3.49996,1.49998c0.16003,0.07895 2.82667,3.57891 2.66664,3.49996c0.16003,0.07895 -3.5066,0.41228 -3.66663,0.33333c0.16003,0.07895 -1.83995,1.57893 -1.99998,1.49998c0.16003,0.07895 0.3267,3.41224 0.16666,3.3333c0.16003,0.07895 -1.50662,7.74553 -1.66665,7.66659c0.16003,0.07895 -7.83989,-2.75436 -7.99992,-2.8333c0.16003,0.07895 -3.5066,4.91223 -3.66663,4.83328c0.16003,0.07895 -3.0066,6.07888 -3.16663,5.99994c0.16003,0.07895 -2.17328,3.74557 -2.33331,3.66663c0.16003,0.07895 -2.17328,5.57889 -2.33331,5.49994c0.16003,0.07895 -2.67327,4.91223 -2.8333,4.83328c0.16003,0.07895 -5.67324,11.41216 -5.83327,11.33322c0.16003,0.07895 -9.00654,-4.08768 -9.16657,-4.16662c0.16003,0.07895 -10.33986,-3.75435 -10.49989,-3.83329c0.16003,0.07895 -19.6731,-6.92098 -19.83313,-6.99993c0.16003,0.07895 -16.50647,-3.08769 -16.66649,-3.16663c0.16003,0.07895 -14.33982,0.41228 -14.49985,0.33333c0.16003,0.07895 -19.33977,7.9122 -19.4998,7.83325c0.16003,0.07895 -24.00639,12.91215 -24.16642,12.8332c0.16003,0.07895 0.49336,13.57881 0.33333,13.49986c0.16003,0.07895 -0.6733,10.57884 -0.83332,10.49989c0.16003,0.07895 -2.00662,-6.75432 -2.16664,-6.83326c0.16003,0.07895 0.49336,-5.58766 0.33333,-5.66661c0.16003,0.07895 -0.1733,-5.75433 -0.33333,-5.83327c0.16003,0.07895 0.49336,-5.92099 0.33333,-5.99994c0.16003,0.07895 2.49334,-3.25435 2.33331,-3.3333c0.16003,0.07895 6.49329,-4.42101 6.33327,-4.49995c0.16003,0.07895 5.82663,-4.921 5.66661,-4.99995c0.16003,0.07895 7.32662,-4.75434 7.16659,-4.83328c0.16003,0.07895 8.8266,-5.08767 8.66658,-5.16661c0.16003,0.07895 6.4933,-3.25435 6.33327,-3.3333c0.16003,0.07895 10.32659,-5.25433 10.16656,-5.33328c0.16003,0.07895 12.1599,-6.08766 11.99988,-6.1666c0.16003,0.07895 12.32657,-5.92099 12.16654,-5.99994c0.16003,0.07895 12.1599,-4.921 11.99988,-4.99995c0.16003,0.07895 10.99325,-4.58767 10.83322,-4.66662c0.16003,0.07895 11.99324,-3.92101 11.83321,-3.99996c0.16003,0.07895 14.82654,-4.42101 14.66651,-4.49995c0.16003,0.07895 11.99324,-3.75435 11.83321,-3.83329c0.16003,0.07894 10.32659,-1.42104 10.16656,-1.49998c0.16003,0.07894 8.82661,-1.25437 8.66658,-1.33332c0.16003,0.07894 10.99325,-2.42103 10.83322,-2.49997c0.16003,0.07894 3.82666,0.07894 3.66663,0c0.16003,0.07894 6.65996,3.07891 6.49993,2.99997c0.16003,0.07894 7.65995,4.0789 7.49992,3.99996c0.16003,0.07894 2.99334,2.07892 5.49331,4.24557z" opacity="NaN" fill="#fff"/>
  <path class="product-shape3 shape" id="svg_11" d="m411.82243,635.23904l-0.82669,-3.41225l-0.49999,-2.66664l-0.66666,-2.16664l-14.99984,-10.33323l-14.49985,-14.33318l-4.99995,-5.99994l0.49999,3.83329l-0.16666,4.66662l0.49999,4.83328l1.16665,3.83329l2.49997,3.99996l2.66664,2.66664l3.66663,2.33331l4.33329,1.83331l4.66662,2.33331l5.66661,2.66664l4.99995,2.49997l5.9933,3.41225z" opacity="NaN" fill="#fff"/>
  <!--partie4-->
     <path class="product-shape4 shape"  id="svg_12" d="m411.82243,635.23904l-1.82668,-8.07887l10.66656,2.33331l21.99977,6.99993l24.83308,7.16659l20.66645,5.83327l5.49994,1.49998l23.99975,5.83327l34.99964,8.83324l33.66632,8.33325l14.99984,3.49996l18.33314,4.99995l9.16657,2.33331l23.49976,5.49994l9.16657,1.99998l22.8331,6.33327l31.16634,6.83326l33.16632,8.66658l18.83314,4.83328l25.6664,3.66663l6.1666,0.83332l24.83308,1.33332l-4.16662,-11.83321l-2.49997,-10.49989l-2.33331,-40.16625l-1.83331,-18.49981l-2.66664,-24.83308l4.16662,0.16666l18.83314,-1.99998l6.6666,-3.49996l16.33316,-10.99989l10.49989,-7.83325l7.99992,-4.49995l3.3333,-3.66663l1.49998,-3.99996l4.33329,-3.3333l4.33329,-3.66663l0.99999,-4.49995l2.16664,0.99999l0.33333,3.3333l0.49999,7.99992c0.16004,0.07895 0.49337,5.24557 0.49337,5.24557c0,0 0.33333,19.66646 0.17329,19.58751c0.16004,0.07895 -0.50662,5.41223 -0.66666,5.33328c0.16004,0.07895 -0.33995,8.57887 -0.49999,8.49991c0.16004,0.07895 -0.33995,16.41212 -0.49999,16.33316c0.16004,0.07895 -0.00662,16.24545 -0.16666,16.1665c0.16004,0.07896 -0.17329,10.57885 -0.33333,10.49989c0.16004,0.07896 -2.33993,3.24559 -3.99996,5.16661c0.16004,0.07896 -5.67323,5.5789 -5.83327,5.49994c0.16004,0.07896 -6.17323,6.41222 -6.33327,6.33327c0.16004,0.07896 -5.17324,5.41223 -5.33328,5.33328c0.16004,0.07896 -11.33984,16.57879 -11.49988,16.49983c0.16004,0.07896 -11.50651,17.91211 -11.66655,17.83315c0.16004,0.07896 -11.83984,16.07879 -11.99988,15.99983c0.16004,0.07896 -2.17327,1.74561 -2.33331,1.66665c0.16004,0.07896 -4.67324,-0.08771 -4.67324,-0.08771c0,0 -19.4998,0.33333 -19.65984,0.25437c0.16004,0.07896 -7.83988,0.74562 -8.00654,0.74562c-0.16666,0 -3.99996,-1.16665 -4.16,-1.24561c0.16004,0.07896 -8.50654,-2.42102 -8.66658,-2.49997c0.16004,0.07896 -17.33978,-4.25433 -17.49982,-4.33329c0.16004,0.07896 -19.00643,-5.25432 -19.16647,-5.33328c0.16004,0.07896 -10.83985,-2.58768 -10.99989,-2.66664c0.16004,0.07896 -5.50657,-1.58769 -12.8332,-3.49996c0.16004,0.07896 -19.67309,-6.08765 -19.83313,-6.1666c0.16004,0.07896 -15.8398,-4.25433 -15.99983,-4.33329c0.16004,0.07896 -17.17312,-4.421 -17.33315,-4.49995c0.16004,0.07896 -22.5064,-4.75433 -22.66643,-4.83328c0.16003,0.07896 -20.00642,-5.58765 -20.16646,-5.66661c0.16003,0.07896 -20.50642,-5.92098 -20.66645,-5.99994c0.16003,0.07896 -10.33986,-1.92102 -10.49989,-1.99998c0.16003,0.07896 -21.17308,-6.42098 -21.33311,-6.49993c0.16003,0.07896 -28.50634,-8.42096 -28.66637,-8.49991c0.16003,0.07896 -17.83978,-4.25433 -17.99981,-4.33329c0.16003,0.07896 -3.67326,-0.92103 -10.33323,-2.16664c0.16003,0.07896 -27.50635,-7.2543 -27.66638,-7.33326c0.16003,0.07896 -13.83982,-4.421 -13.99985,-4.49995c0.16003,0.07896 -12.83984,-2.25435 -12.99987,-2.33331c0.16003,0.07896 -17.00646,-4.58766 -17.16649,-4.66662c0.16003,0.07895 -17.50645,-5.58765 -17.66648,-5.66661c0.16003,0.07895 -8.83988,-2.58768 -8.99991,-2.66664c0.16003,0.07895 -7.17323,-2.75435 -10.67319,-3.42101z" opacity="NaN" fill="#fff"/>
  <!--elastic1-->
  <path class="product-shape5 shape"  id="svg_14" d="m499.82152,289.74261l4.67325,0.08772l5.10413,0.97904l-0.58341,3.41673l-0.02077,1.77083l2.16665,1.49999l2.99997,2.16664l2.8333,1.33332l1.8958,0.04171l3.7914,0.97904l4.33365,0.46876l7.27005,0.53123l3.87555,-0.35409l3.7914,-0.41675l6.10431,-2.18741l2.27083,-0.56247l5.83327,1.33331l6.1666,1.33332l5.66661,1.16666l5.99994,0.83332l4.99995,1.16666l0.66666,1.49998l2.33331,1.16666l3.83329,0.83332l5.16661,0.5l5.66661,0.49999l4.99995,-0.16666l3.49996,-0.33333l-3.66663,-1.66665l-4.83328,-1.83332l-5.16661,-2.66664l-3.49997,-1.16665l-3.83329,-1.16666l-3.99996,0l-2.99997,-0.16666l-5.33327,-1.49998l-3.8333,-0.83333l-4.49995,-0.83332l-4.33329,-0.66666l-4.66662,-1.16666l-2.16664,-0.66666l-0.33333,-2.33331l-1.83332,-1.99998l-3.16663,-2.33331l-3.49996,-2.66663l-3.3333,-2.16665l-3.16664,-1.33332l-3.3333,-1.49998l-3.99995,-1.10418l-3.1456,-0.26038l-3.52046,0.17695l-4.4382,0.81256l-3.72892,1.70837l-2.62493,2.08322l-0.70837,2.41673l-1.83332,0.16667l-3.66663,-0.66666c0.16004,0.07894 -4.00659,-0.25439 -4.00659,-0.42105c0,-0.16667 -0.33333,-1.66665 -0.49336,-1.7456c0.16003,0.07895 1.6183,-1.79608 1.45827,-1.87503c0.47242,-0.17095 1.03507,-1.21266 0.87504,-1.2916c0.16003,0.07894 2.49334,-2.92103 2.33331,-2.99997c0.16003,0.07894 3.49333,-2.5877 3.3333,-2.66664c0.16003,0.07894 6.45158,-2.92102 6.29155,-2.99997c0.16003,0.07895 6.03502,-1.08771 5.87499,-1.16665c0.16003,0.07894 6.4933,-0.42105 6.33327,-0.5c0.16003,0.07895 4.49332,0.57894 4.33329,0.5c0.16003,0.07894 4.49332,1.41226 4.33328,1.33332c0.16004,0.07894 4.82665,1.91225 4.66662,1.83331c0.16003,0.07894 4.49332,2.57892 4.33329,2.49997c0.16003,0.07895 5.65998,3.57891 5.49994,3.49997c0.16004,0.07894 4.32666,3.41224 4.16663,3.3333c0.16003,0.07894 3.65999,3.07891 3.49996,2.99997c0.16003,0.07894 3.32667,3.74557 3.16663,3.66662c0.16004,0.07895 2.32668,2.74559 2.16665,2.66664c0.16003,0.07895 4.65998,-0.58771 4.49995,-0.66666c0.16003,0.07895 4.82665,-0.92104 4.66662,-0.99999c0.16003,0.07895 5.49331,-0.08772 5.33328,-0.16666c0.16003,0.07894 5.65997,0.7456 5.49994,0.66666c0.16003,0.07894 6.65997,1.74559 6.49993,1.66665c0.16004,0.07894 5.32665,2.07892 5.16662,1.99998c0.16003,0.07894 5.65997,2.91225 5.49994,2.8333c0.16003,0.07895 5.65998,2.41226 5.49994,2.33331c0.16004,0.07895 3.82667,1.7456 3.66663,1.66665c0.16004,0.07895 2.49334,-2.42103 2.33331,-2.49997c0.16003,0.07894 2.49334,-1.25438 2.33331,-1.33332c0.16003,0.07894 2.82667,-0.58772 2.66664,-0.66666c0.16003,0.07894 2.32668,0.57894 2.16664,0.49999c0.16004,0.07895 1.82669,1.57893 1.66665,1.49999c0.16004,0.07894 1.82669,2.07892 1.66665,1.99997c0.16004,0.07895 2.32668,0.74561 2.16665,0.66666c0.16003,0.07895 3.16,1.41227 2.99996,1.33332c0.16004,0.07895 3.16001,-2.25436 2.99997,-2.33331c0.16004,0.07895 5.32665,-3.75434 5.16662,-3.83329c0.16003,0.07895 5.9933,-4.25434 5.83327,-4.33329c0.16003,0.07895 7.15996,-5.25433 6.99993,-5.33328c0.16003,0.07895 5.9933,-4.25434 5.83327,-4.33328c0.16003,0.07894 5.32665,-3.92102 5.16661,-3.99996c0.16004,0.07894 6.32664,-4.08768 6.16661,-4.16663c0.16003,0.07895 3.99332,-2.58769 3.83329,-2.66663c0.16003,0.07894 1.66002,-2.0877 1.49998,-2.16665c0.16004,0.07895 0.3267,-2.25436 0.16667,-2.33331c0.16003,0.07895 0.3267,-2.0877 0.16666,-2.16664c0.16004,0.07894 2.66001,1.07893 2.49998,0.99999c0.16003,0.07894 1.82668,1.91226 1.66665,1.83331c0.16003,0.07895 1.16002,2.07893 0.99999,1.99998c0.16003,0.07895 1.82668,1.91226 1.66665,1.83332c0.16003,0.07894 0.3267,2.57891 0.16666,2.49997c0.16004,0.07894 0.8267,2.41225 0.66666,2.33331c0.16004,0.07894 1.49336,2.07892 1.33332,1.99998c0.16004,0.07894 0.99336,1.91226 0.83333,1.83331c0.16003,0.07895 -1.00662,1.57893 -1.16666,1.49999c0.16004,0.07894 -2.17327,0.7456 -2.17327,0.7456c0,0 -3.3333,-0.49999 -3.49334,-0.57894c0.16004,0.07895 -2.00661,0.41228 -2.16664,0.33333c0.16003,0.07895 -0.83996,1.07894 -0.99999,0.99999c0.16003,0.07895 0.99336,2.07893 0.83332,1.99998c0.16004,0.07895 1.32669,2.07893 1.16666,1.99998c0.16003,0.07895 -0.00663,2.07892 -0.16667,1.99998c0.16004,0.07894 -0.83995,1.74559 -0.99999,1.66665c0.16004,0.07894 -1.17328,1.74559 -1.17328,1.57893c0,-0.16667 -1.99998,0 -2.16002,-0.07895c0.16004,0.07895 -1.83994,0.24561 -1.99997,0.16667c0.16003,0.07894 -2.83994,1.91226 -2.83994,1.91226c0,0 -6.1666,3.99996 -6.32664,3.92101c0.16004,0.07895 -8.00654,5.24556 -8.16658,5.16661c0.16004,0.07895 -9.1732,6.24555 -9.33323,6.16661c0.16003,0.07894 -6.8399,4.5789 -6.99993,4.49995c0.16003,0.07895 0.66003,2.74558 0.49999,2.66664c0.16004,0.07894 -0.17329,3.41224 -0.33333,3.3333c0.16004,0.07894 -0.33996,2.74558 -0.49999,2.66664c0.16003,0.07894 -2.00661,2.91225 -2.16665,2.8333c0.16004,0.07895 -1.50661,1.07894 -1.66665,0.99999c0.16004,0.07895 -2.5066,0.91227 -2.66663,0.83332c0.16003,0.07895 -0.50663,1.91227 -0.66666,1.83332c0.16003,0.07895 -2.00661,1.57893 -2.16665,1.49998c0.16004,0.07895 -2.5066,1.2456 -2.66664,1.16666c0.16004,0.07894 -3.17326,1.07893 -3.3333,0.99999c0.16004,0.07894 -6.67323,-2.58769 -6.83326,-2.66664c0.16003,0.07895 -2.33994,-1.08771 -2.49997,-1.16666c0.16003,0.07895 -0.67329,-1.75436 -0.83333,-1.83331c0.16004,0.07895 -2.00661,-3.58768 -2.16664,-3.66663c0.16003,0.07895 -1.00662,-3.08769 -1.16666,-3.16663c0.16004,0.07894 -0.33996,-2.75436 -0.49999,-2.83331c0.16003,0.07895 -4.00659,0.41228 -4.16662,0.33333c0.16003,0.07895 -5.33991,0.07895 -5.49995,0c0.16004,0.07895 -4.00659,-0.42105 -4.16662,-0.49999c0.16003,0.07894 -4.67325,-0.58772 -4.83328,-0.66666c0.16003,0.07894 -3.67327,-0.08772 -3.8333,-0.16667c0.16003,0.07895 -8.94406,-4.04596 -9.10409,-4.1249c0.16003,0.07894 -5.8476,-2.4332 -6.06242,-2.54169c-0.21482,-0.10849 -9.1732,-2.5877 -9.33323,-2.66664c0.16003,0.07894 -2.83994,-0.75438 -2.99997,-0.83333c-1.08951,0.01647 -1.81919,0.16219 -1.97922,0.08325c0.16003,0.07894 -5.694,2.16234 -5.85404,2.0834c0.16004,0.07894 -5.08982,1.53721 -5.24985,1.45827c0.16003,0.07894 -5.59,0.76655 -5.59,0.78732c0,0.02077 -5.83327,0.66666 -5.9933,0.58771c0.16003,0.07895 -5.00659,-0.08772 -5.00659,-0.08772c0,0 -5.49994,-1.33332 -5.65997,-1.41226c0.16003,0.07894 -5.00658,-1.42104 -5.16661,-1.49999c0.16003,0.07895 -4.83992,-2.42103 -4.99995,-2.49997c0.16003,0.07894 -2.50661,-2.42103 -2.66664,-2.49998c0.16003,0.07895 -3.17327,-3.08768 -3.3333,-3.16663c0.16003,0.07895 -1.83995,-2.75436 -1.99998,-2.8333c0.16003,0.07894 -1.33995,-3.75435 -1.49998,-3.8333c0.16003,0.07895 -0.00664,-2.58769 0.49336,-4.921z" opacity="NaN" fill="#fff"/>
  <!--elastic2-->
  <path class="product-shape6 shape" id="svg_15" d="m336.87071,338.93415l0.00281,4.93934l-0.25,4.12498l-9.62496,0.25l-13.12494,-0.125l-15.74993,0c0.12219,0.06064 -13.75275,0.43563 -13.75275,0.43563c0,0 -10.74995,0.375 -10.87214,0.31436c0.12219,0.06064 -9.75277,1.43563 -9.87496,1.37499c0.12219,0.06064 -8.87777,1.81063 -8.87777,1.81063c0,0 -8.12496,2.12499 -8.24715,2.06435c0.12219,0.06064 -6.37779,2.06063 -6.49997,1.99999c0.12219,0.06064 -8.37778,3.81062 -8.49996,3.74998c0.12219,0.06064 -8.37778,4.81062 -8.49996,4.74998c0.12219,0.06064 -7.37778,5.31061 -7.49997,5.24998c0.12219,0.06064 -5.12779,6.06061 -5.24998,5.99997c0.12219,0.06064 -3.5028,5.68561 -3.62498,5.62498c0.12219,0.06064 -2.7528,4.56062 -2.87499,4.49998c0.12219,0.06064 -2.7528,6.93561 -2.87499,6.87497c0.12219,0.06064 -1.00281,6.81061 -1.125,6.74997c0.12219,0.06064 0.24719,18.56055 0.125,18.49992c0.12219,0.06064 1.62218,5.81061 1.62499,5.99997c0.00281,0.18936 2.99717,8.4356 2.87499,8.37496c0.12219,0.06064 3.49717,6.81061 3.37499,6.74997c0.12219,0.06064 5.49716,7.0606 5.37498,6.99997c0.12219,0.06064 8.12215,7.8106 7.99997,7.74997c0.12219,0.06064 5.87216,3.93562 5.87216,3.93562c0,0 5.74997,2.87499 5.62779,2.81435c0.12219,0.06064 3.62217,1.43563 3.49998,1.37499c0.12219,0.06064 7.62215,-8.68933 7.49997,-8.74996c0.12219,0.06064 11.62214,-14.0643 11.49995,-14.12494c0.12219,0.06064 9.49714,-9.68932 9.37496,-9.74996c0.12219,0.06064 9.24715,-8.06433 9.12496,-8.12496c0.12219,0.06064 8.49715,-8.06433 8.37496,-8.12496c0.12219,0.06064 6.87216,-10.06432 6.74997,-10.12496c0.12219,0.06064 9.24715,-12.56431 9.12496,-12.62494c0.12219,0.06064 8.37215,-9.31432 8.24996,-9.37496c0.12219,0.06064 8.37215,-7.81433 8.24996,-7.87497c0.12219,0.06064 7.12216,-5.93934 6.99997,-5.99997c0.12219,0.06064 7.37215,-4.81434 7.24997,-4.87498c0.12219,0.06064 3.62217,-2.56435 3.87498,-2.49999c0.25281,0.06436 4.62217,-2.68935 4.49998,-2.74999c0.12219,0.06064 1.99718,-0.68936 1.87499,-0.75c0.12219,0.06064 0.87218,10.18559 0.75,10.12496c0.12219,0.06064 -2.8778,0.56063 -2.99999,0.5c0.12219,0.06064 -4.1278,2.31063 -4.24998,2.24999c0.12219,0.06064 -5.62779,3.93562 -5.74997,3.87498c0.12219,0.06064 -4.62779,3.68562 -4.74998,3.62498c0.12219,0.06064 -3.3778,2.93562 -3.5028,2.93562c-0.125,0 -3.99998,3.62498 -4.12217,3.56435c0.12219,0.06064 -4.2528,3.68562 -4.37498,3.62498c0.12219,0.06064 -2.5028,3.18562 -2.62499,3.12499c0.12219,0.06064 -1.75281,2.56062 -1.87499,2.49999c0.12219,0.06064 1.24718,0.68563 1.125,0.625c0.12219,0.06064 2.49718,-1.93936 2.62217,-2.06435c0.125,-0.125 6.62497,-5.24998 6.50279,-5.31061c0.12219,0.06064 6.74716,-5.31434 6.62497,-5.37498c0.12219,0.06064 5.49716,-3.68935 5.37498,-3.74998c0.12219,0.06064 5.87216,-3.68935 5.74997,-3.74998c0.12219,0.06064 6.74716,-4.06435 6.62497,-4.12498c0.12219,0.06064 0.62218,7.1856 0.5,7.12497c0.12219,0.06064 -3.6278,2.68562 -3.74998,2.62499c0.12219,0.06064 -5.87779,4.43562 -5.99997,4.37498c0.12219,0.06064 -5.50279,4.06062 -5.62498,3.99998c0.12219,0.06064 -6.37779,4.68562 -6.49997,4.62498c0.12219,0.06064 -5.50279,4.06062 -5.62498,3.99998c0.12219,0.06064 -5.87779,5.06061 -5.99997,4.99998c0.12219,0.06064 -4.2528,4.06062 -4.37498,3.99998c0.12219,0.06064 -3.3778,3.31062 -3.49998,3.24999c0.12219,0.06064 -2.8778,2.18563 -3.0028,2.18563c-0.125,0 -4.12498,3.37499 -4.24717,3.31435c0.12219,0.06064 -4.37779,5.93561 -4.49998,5.87497c0.12219,0.06064 -5.87779,9.1856 -5.99997,9.12496c0.12219,0.06064 -4.25279,6.68561 -4.37498,6.62497c0.12219,0.06064 -4.0028,5.81061 -4.12498,5.74997c0.12219,0.06064 -4.0028,5.31061 -4.12498,5.24998c0.12219,0.06064 -3.2528,4.06062 -3.37499,4.24998c-0.12219,0.18936 -4.62779,5.81061 -4.74998,5.74997c0.12219,0.06064 -3.2528,3.31062 -3.37499,3.24999c0.12219,0.06064 -3.2528,3.18562 -3.37499,3.12499c0.12219,0.06064 -3.6278,4.06062 -3.74998,3.99998c0.12219,0.06064 2.62218,0.93563 2.49999,0.875c0.12219,0.06064 5.24716,0.56063 5.12498,0.5c0.12219,0.06064 9.49714,0.81063 9.37496,0.75c0.12219,0.06064 7.87215,0.31063 7.74997,0.25c0.12219,0.06064 7.24715,-0.43936 7.24715,-0.43936c0,0 7.87497,-1.24999 7.75278,-1.31063c0.12219,0.06064 9.87214,-1.43936 9.74996,-1.49999c0.12219,0.06064 11.74713,-2.06436 11.74713,-2.06436c0,0 8.49996,-1.74999 8.37778,-1.81063c0.12219,0.06064 8.49715,-2.06436 8.37496,-2.12499c0.12219,0.06064 7.37215,-1.81436 7.24997,-1.87499c0.12219,0.06064 8.12215,-2.56435 7.99997,-2.62499c0.12219,0.06064 6.24716,-1.81436 6.12497,-1.87499c0.12219,0.06064 3.12217,-1.06436 2.99999,-1.125c0.12219,0.06064 1.24718,6.93561 1.125,6.87497c0.12219,0.06064 -2.6278,1.56063 -2.74999,1.49999c0.12219,0.06064 -4.0028,1.93563 -4.12498,1.87499c0.12219,0.06064 -5.50279,1.93563 -5.62498,1.87499c0.12219,0.06064 -7.25278,2.56062 -7.25278,2.56062c0,0 -7.49997,2.24999 -7.62215,2.18935c0.12219,0.06064 -7.87778,1.93563 -7.99997,1.87499c0.12219,0.06064 -10.87777,2.43562 -10.99995,2.37499c0.12219,0.06064 -11.00277,1.81063 -11.12495,1.74999c0.12219,0.06064 -9.37777,1.43563 -9.49996,1.37499c0.12219,0.06064 -10.12777,0.93563 -10.24996,0.875c0.12219,0.06064 -9.50277,0.31063 -9.62496,0.25c0.12219,0.06064 -8.25278,-0.31436 -8.37496,-0.375c0.12219,0.06064 -7.75278,-1.18936 -7.87497,-1.24999c0.12219,0.06064 -4.87779,-1.68936 -4.99998,-1.74999c0.12219,0.06064 -3.1278,-0.06436 -3.24999,-0.125c0.12219,0.06064 -2.8778,2.18563 -2.8778,2.18563c0,0 -1.99999,1.62499 -2.12218,1.56436c0.12219,0.06064 1.87218,2.06063 1.74999,1.99999c0.12219,0.06064 1.24718,1.56063 1.125,1.49999c0.12219,0.06064 -0.12781,2.43562 -0.25,2.37499c0.12219,0.06064 -1.12781,2.06063 -1.24999,1.99999c0.12219,0.06064 -1.87781,1.31063 -1.99999,1.24999c0.12219,0.06064 -3.6278,0.06064 -3.74998,0c0.12219,0.06064 -2.0028,-0.18936 -2.1278,-0.18936c-0.125,0 -4.37498,0.125 -4.49717,0.06436c0.12219,0.06064 -2.0028,0.68563 -2.12499,0.625c0.12219,0.06064 -0.00281,3.93562 -0.125,3.87498c0.12219,0.06064 -0.62781,3.93562 -0.75,3.87498c0.12219,0.06064 -1.12781,4.56062 -1.24999,4.49998c0.12219,0.06064 -1.50281,3.81062 -1.62499,3.74998c0.12219,0.06064 -0.50281,3.81062 -0.625,3.74998c0.12219,0.06064 -0.62781,2.68562 -0.75,2.62499c0.12219,0.06064 -0.62781,3.81062 -0.75,3.74998c0.12219,0.06064 -0.75281,2.68562 -0.875,2.62499c0.12219,0.06064 -2.6278,0.56063 -2.74999,0.5c0.12219,0.06064 -3.3778,0.06064 -3.49998,0c0.12219,0.06064 -2.1278,0.31063 -2.24999,0.25c0.12219,0.06064 -1.25281,-0.43936 -1.37499,-0.5c0.12219,0.06064 0.12219,-2.06436 0,-2.12499c0.12219,0.06064 1.87218,-1.93936 1.74999,-1.99999c0.12219,0.06064 1.74718,-3.06435 1.62499,-3.12499c0.12219,0.06064 0.99718,-3.68935 0.875,-3.74998c0.12219,0.06064 1.49718,-5.56434 1.37499,-5.62498c0.12219,0.06064 1.49718,-3.43935 1.37499,-3.49998c0.12219,0.06064 2.24718,-6.06434 2.12499,-6.12497c0.12219,0.06064 -1.8778,1.18563 -1.99999,1.125c0.12219,0.06064 -2.1278,3.56062 -2.24999,3.49998c0.12219,0.06064 -3.0028,4.06062 -3.12499,3.99998c0.12219,0.06064 -2.6278,4.18562 -2.74999,4.12498c0.12219,0.06064 -2.7528,3.68562 -2.87499,3.62498c0.12219,0.06064 -3.3778,4.56062 -3.49998,4.49998c0.12219,0.06064 -0.75281,2.56062 -1.25281,2.81062c-0.5,0.25 -2.49999,0.75 -2.62218,0.68936c0.12219,0.06064 -3.2528,-0.43936 -3.37499,-0.5c0.12219,0.06064 -2.7528,-1.43936 -2.87499,-1.49999c0.12219,0.06064 -0.37781,-2.56435 -0.5,-2.62499c0.12219,0.06064 4.37217,-3.56435 4.24998,-3.62498c0.12219,0.06064 4.24717,-5.68934 4.12498,-5.74997c0.12219,0.06064 3.99717,-5.43934 3.87498,-5.49998c0.12219,0.06064 3.74717,-4.56434 3.62498,-4.62498c0.12219,0.06064 3.99717,-5.06434 3.87498,-5.12498c0.12219,0.06064 2.87217,-3.18935 2.74999,-3.24999c0.12219,0.06064 -1.25281,-1.68936 -1.37499,-1.74999c0.12219,0.06064 -1.50281,-2.43935 -1.62499,-2.49999c0.12219,0.06064 1.49718,-2.93935 1.37499,-2.99999c0.12219,0.06064 2.37218,-2.18935 2.24999,-2.24999c0.12219,0.06064 3.24717,-0.31436 3.12499,-0.375c0.12219,0.06064 -0.25281,-2.68935 -0.375,-2.74999c0.12219,0.06064 0.87218,-2.06436 0.75,-2.12499c0.12219,0.06064 4.37217,-2.81435 4.24998,-2.87499c0.12219,0.06064 -4.37779,-2.56435 -4.49998,-2.62499c0.12219,0.06064 -5.37779,-4.43934 -5.49998,-4.49998c0.12219,0.06064 -4.25279,-4.93934 -4.37498,-4.99998c0.12219,0.06064 -4.75279,-6.31434 -4.87498,-6.37497c0.12219,0.06064 -2.6278,-4.81434 -2.74999,-4.87498c0.12219,0.06064 -2.8778,-5.93934 -2.99999,-5.99997c0.12219,0.06064 -2.5028,-6.18934 -2.62499,-6.37497c-0.12219,-0.18564 -1.37781,-5.81434 -1.49999,-5.87497c0.12219,0.06064 -0.87781,-6.56434 -1,-6.62497c0.12219,0.06064 -0.00281,-7.18933 -0.125,-7.24997c0.12219,0.06064 -0.00281,-7.81433 -0.125,-7.87497c0.12219,0.06064 0.99718,-5.68934 0.875,-5.74997c0.12219,0.06064 1.62218,-6.68933 1.49999,-6.74997c0.12219,0.06064 2.37218,-5.81434 2.24999,-5.87497c0.12219,0.06064 4.12217,-6.68933 3.99998,-6.74997c0.12219,0.06064 4.49717,-5.81434 4.49717,-5.93934c0,-0.125 5.87497,-6.12497 5.75279,-6.18561c0.12219,0.06064 5.49716,-3.93935 5.37498,-3.99998c0.12219,0.06064 7.37215,-4.93934 7.24997,-4.99998c0.12219,0.06064 6.24716,-3.06435 6.12497,-3.12499c0.12219,0.06064 7.12216,-2.68935 6.99997,-2.74999c0.12219,0.06064 5.87216,-2.18935 5.74997,-2.24999c0.12219,0.06064 7.62215,-2.18935 7.49997,-2.24999c0.12219,0.06064 6.49716,-1.06436 6.37497,-1.125c0.12219,0.06064 7.12216,-1.31436 6.99997,-1.37499c0.12219,0.06064 7.99715,-0.93936 7.87497,-1c0.12219,0.06064 6.62216,-0.68936 6.49997,-0.75c0.12219,0.06064 8.99715,-0.06436 8.87496,-0.125c0.12219,0.06064 13.87213,-0.18936 13.74994,-0.25c0.12219,0.06064 12.87213,-0.18936 12.74994,-0.25c0.12219,0.06064 14.74712,-0.18936 14.62494,-0.25c0.12219,0.06064 7.24499,0.18421 11.24714,-0.06436z" opacity="NaN"  fill="#fff"/>
 </g>
</svg>