<svg id="product-svg"
   width="1280"
   height="850"
   viewBox="0 0 1280 850">
   
   <!--> PART1<-->
       <path class="product-shape1 shape" d="m 658.22205,359.74954 h 7.2686 6.99257 l 10.48886,0.46004 25.02606,0.27602 14.44518,-0.27602 h 17.11341 l 21.16174,-0.92008 26.95821,-0.46004 h 8.5567 l 8.5567,-1.47212 9.47678,-0.46003 7.2686,0.55204 7.2686,0.36803 7.45261,1.1961 9.93681,0.82807 21.98981,2.20818 8.64871,0.82807 10.30485,1.01208 9.66079,1.47212 10.12083,3.6803 3.58829,1.74815 4.41637,1.47212 2.94424,2.20818 3.86432,2.11617 6.34852,4.60038 5.61246,5.15242 7.17659,5.79648 6.99257,6.44053 19.22958,16.19333 12.51303,11.13291 11.96098,9.20076 8.55668,7.17659 11.317,9.66079 22.9098,22.17382 9.2008,8.00466 9.6608,10.67287 3.9563,3.40428 7.3606,10.12084 8.3727,11.22492 1.4721,3.6803 1.0121,5.33644 0.8281,2.30019 0.644,7.72863 0.7361,7.72864 1.6561,7.82064 1.1041,10.48886 0.092,3.31227 -1.8401,2.20818 -1.5642,5.52046 -2.7602,4.23234 -1.4721,4.50837 -1.0121,4.23235 -1.7481,4.60038 -3.4963,10.76488 -3.7723,7.54462 -1.5642,2.3922 -3.2202,4.96841 -2.5762,5.61246 -2.3002,4.23235 -3.7723,4.9684 -5.3365,6.25652 -6.4405,6.62454 -5.9805,6.25651 -5.4284,5.61247 -3.4963,2.20818 -4.6004,2.4842 -6.8086,2.30019 -10.3968,3.12826 -6.16452,2.30019 -9.6608,1.93215 -10.48886,2.30019 -11.59295,2.11618 -10.39685,1.65613 -5.06042,0.18402 -11.77696,-0.092 -10.9489,-0.36803 -13.98515,-0.73606 -14.26117,-0.92008 -18.86155,-1.01208 -19.04557,-0.82807 h -15.64128 l -14.90522,-0.18401 -8.4647,0.27602 -4.41636,-1.10409 -12.97307,-0.82807 -9.84481,-0.55204 -19.87363,-0.73606 -10.67287,-1.01209 -8.28068,0.18402 -9.93682,0.18401 -9.84481,-0.18401 -12.88106,-1.38012 -11.77696,-0.27602 -6.80856,-1.2881 -3.95633,-1.84015 -13.52511,0.092 -6.99257,-0.27602 -7.36061,-0.92008 -10.12083,-0.73606 -10.76488,-0.46003 -12.05299,-0.46004 -14.44519,-0.92008 -14.99723,-0.64405 -16.19333,-1.28811 -21.8978,-2.02416 -13.80113,-2.3922 -11.59295,-3.03625 -9.7528,-1.10409 -8.92474,-1.01208 -6.30217,-1.27162 -8.04477,-5.53902 -11.86933,-7.38537 -11.34181,-7.781 -4.48397,-4.22021 1.97823,-1.05505 3.03327,1.31881 h 1.71446 l 5.80278,-5.53902 4.87962,-6.19843 6.59407,-7.91289 6.98972,-9.49546 5.14338,-7.1216 5.80278,-7.25348 5.40714,-9.23171 5.0115,-7.64912 4.61585,-7.78101 5.53902,-10.41864 11.34181,-17.14459 6.19843,-11.73745 6.46219,-10.94616 12.39686,-20.96916 8.70418,-16.61706 13.84755,-25.05748 5.14338,-10.28676 8.44041,-12.7925 9.49547,-15.03449 8.30853,-13.84755 9.89111,-15.6939 7.64913,-10.02299 z" />

   <!--> PART2<-->
    <path class="product-shape2 shape" d="m 426.14192,367.03111 16.57081,-10.14034 11.37698,-2.72058 22.89357,-2.13421 14.79958,-0.97046 10.43249,-1.69832 9.09811,-0.97046 5.94409,0.72785 9.21942,0.84915 11.76688,1.57701 11.03903,0.97046 11.16034,1.21308 8.9768,0.97047 8.24895,-0.12131 0.1213,1.81962 -5.58017,6.18671 -6.55063,9.58334 -3.76055,0.60654 -7.39979,0.24261 -8.12764,0.60654 -9.58334,0.97047 -9.21941,0.48523 -8.37026,0.97047 -10.18987,1.577 -8.24895,2.18355 -3.88186,2.30485 -0.84916,1.45569 0.24262,3.27532 v 1.09177 l -5.33755,-0.36392 -4.60971,1.21308 -4.85232,1.69831 -4.36709,1.4557 -6.55064,2.30485 -3.15401,-4.73101 -3.15401,-3.15401 -2.06223,-4.36709 -4.24579,-3.39663 -5.45886,0.84916 -6.42933,1.57701 -6.42932,1.33438 -6.06541,2.18355 -5.58017,0.48523 -2.42616,-2.30485 -2.54747,-6.79325 v -3.51794 l 1.33439,-0.60654 0.12131,-0.97046 z" />
    <path class="product-shape2 shape" d="m 464.85175,439.75438 4.07282,-1.98137 2.7519,0.99068 5.17358,4.29297 5.94412,4.84335 6.16426,4.73328 6.05419,4.1829 -0.55038,2.3116 -1.87129,0.77053 -5.61389,0.11008 -7.92548,-0.44031 -5.28366,-0.4403 -3.41236,-3.08214 -2.09145,-3.63251 -3.08213,-5.39374 z" />
    <path class="product-shape2 shape" d="m 477.42047,439.72711 6.2966,-2.32888 8.62548,-2.76016 2.58765,3.4502 3.79521,6.38285 2.76015,4.22649 -3.79521,5.08904 -1.81135,2.15637 -5.26154,-3.88147 -5.3478,-4.05398 -4.65776,-3.88147 z" />
    <path class="product-shape2 shape" d="m 514.5963,433.258 -4.83027,5.00278 -3.96772,4.91652 -2.93267,4.399 -2.07011,-3.27769 -2.50139,-4.5715 -3.10518,-5.86533 6.03784,-0.86255 6.64162,-0.60378 z" />
   <path class="product-shape2 shape" d="m 638.79038,358.04208 -5.41462,7.71584 -6.36219,8.79876 -5.27925,7.30975 -5.95609,7.44511 -7.71584,10.82925 1.62438,8.39267 0.94756,4.73779 -2.43658,1.62439 -5.41462,1.35366 -2.16585,3.38414 -2.84268,7.03901 -2.70731,4.87316 -2.57195,3.65487 -5.41462,0.8122 h -3.65488 v 3.5195 l -0.67682,5.82073 -2.70732,7.17437 -3.38414,5.00853 -3.5195,4.87316 -3.38414,1.75976 0.54146,2.30121 6.49755,-0.13536 5.95609,0.94756 h 5.54999 l 3.24877,0.27073 4.3195,-8.20696 2.91568,-5.23939 1.60847,-2.901 3.15951,-5.6871 2.06803,-3.84885 2.44144,-4.91159 2.47015,-4.94031 3.10206,-4.6818 4.76797,-7.18069 2.95845,-4.71053 2.92971,-4.53819 2.2691,-3.70523 1.8957,-2.92972 2.29782,-3.87757 2.29782,-3.82013 1.95315,-3.18822 1.83825,-3.18823 1.6372,-2.55632 2.21165,-3.47545 2.09676,-3.30312 3.84885,-6.14666 2.72866,-3.56162 2.90099,-3.73396 2.35527,-3.13078 3.7914,-4.50947 -10.74231,-0.45956 z" />

       <!--> PART3<-->

    <path class="product-shape3 shape" d="m 336.59653,632.51581 6.98656,2.32885 9.78117,-4.6577 13.50733,-7.29706 15.99144,-7.45232 4.6577,-2.1736 5.12347,-5.27873 2.63937,0.46577 -2.32885,4.50245 -2.48411,4.19193 -1.24205,5.89975 v 7.45233 l 2.32885,8.84963 -13.35208,-0.77629 -13.50733,-0.46577 -13.04157,-0.77628 -5.43398,0.31051 -4.96821,0.15526 -4.03668,-1.0868 z" />
    <path class="product-shape3 shape" d="m 414.06963,606.89846 6.21027,-1.86308 8.69437,3.88141 15.99144,8.07335 13.04157,5.89976 6.05501,3.88141 -5.27873,6.36553 -7.60758,9.00489 -4.34719,-1.24206 -8.53911,-0.62102 -11.17849,-0.77629 -3.5709,-0.77628 -6.98655,0.77628 -9.00489,-0.15525 -3.26039,-5.12347 -1.55257,-6.05501 v -5.89976 l 2.79462,-5.12347 3.72616,-5.12347 z" />
    <path class="product-shape3 shape" d="m 469.65153,641.5207 14.28515,-18.4428 3.74403,3.46963 1.15722,0.97919 4.6289,3.16011 4.89594,3.38266 6.7208,4.27282 7.2549,4.49537 8.90172,6.27571 -9.8364,-1.51329 -12.32888,-1.82485 -8.99074,-1.29075 -10.28148,-0.57861 -6.94335,-0.89018 z" />

   <!--> Elastic1<-->
   <path class="elastic1 shape" d="m 367.66092,314.32325 0.67091,-5.8705 2.51593,-4.19321 4.19321,-4.6964 5.53504,-5.8705 0.50319,-4.86413 2.51593,-2.3482 2.51593,0.50319 1.84501,2.3482 1.84501,2.85138 5.70277,0.16773 5.53504,1.00637 8.05097,0.50319 4.19322,3.35457 6.03822,7.71551 -7.54778,-1.67728 -3.35457,-1.84502 -4.86413,0.67092 -5.8705,0.33545 -4.69639,-0.67091 -3.35458,-2.51593 -2.68365,-2.18047 -3.18684,4.36094 -2.85139,2.51593 -2.68365,3.69003 -2.18048,3.5223 -0.33545,2.51592 -2.85139,3.01912 -2.51593,3.5223 z" />
    <path class="elastic1 shape" d="m 380.07283,269.53973 2.3482,-9.72825 3.18684,-7.38006 4.86413,-7.54778 6.70914,-7.21233 6.03822,-4.52867 5.19959,-2.18047 5.36731,-0.33545 5.70277,1.00637 3.85776,3.01911 4.52867,4.36094 3.69002,5.53504 3.01912,6.03823 2.85138,6.70914 2.01275,8.72188 1.34182,6.37369 3.18685,8.38642 2.01274,6.37369 2.18047,9.22507 3.69003,-2.51593 3.01911,-1.67729 2.3482,0.16773 2.51593,1.00637 3.01911,2.18047 2.68366,3.01912 2.3482,4.02548 3.69002,7.88324 -2.18047,1.00637 -1.34183,3.18685 -4.02548,1.00637 -3.5223,1.1741 -4.52867,0.83864 -4.19321,0.33546 -2.3482,-1.1741 -3.01912,-3.18685 -4.52867,3.5223 -5.70276,3.01912 2.51592,2.01274 4.36094,2.51593 5.19959,2.01274 4.02548,0.83864 -0.50318,3.85776 0.16773,4.52867 -6.20596,-1.34183 -5.70277,-2.3482 -6.37368,-3.35457 -4.36094,-3.18684 -3.35457,-4.52867 -4.86413,2.85138 -4.02549,2.18047 -5.70277,1.1741 h -5.70277 l -2.85138,-0.50318 2.18047,-4.02549 2.85138,-3.01911 3.69003,-0.33546 3.85776,-1.1741 3.85775,-1.1741 3.35457,-2.68365 -1.84501,-4.86413 0.16773,-4.52867 1.34183,-3.18684 3.01911,-3.01912 2.51593,-1.67728 h 4.02548 l 6.37369,-0.16773 -0.83865,-7.38005 -1.00637,-8.2187 -1.1741,-5.70277 -2.51592,-6.54141 -2.68366,-6.03823 -3.69003,-5.19958 -3.85775,-5.70277 -3.18685,-3.85776 -2.34819,-1.67729 -4.52867,-0.33545 -4.02549,0.67091 -3.85776,2.3482 -4.69639,3.69003 -4.19322,4.36094 -3.18684,4.52867 -2.01274,4.02548 -0.16773,3.35457 -3.35457,0.50319 -3.35457,0.16773 z" />
    <path class="elastic1 shape" d="m 486.9159,324.21923 4.6964,-2.01274 6.03822,-3.35457 7.54779,-3.69003 5.87049,-2.85138 5.19959,-2.01275 3.35457,-0.83864 4.52867,0.67092 4.86413,1.34182 3.85775,2.51593 3.01912,3.01912 2.68365,2.51592 -6.54141,-1.34183 -4.52867,-1.67728 -5.53504,-0.50319 -5.53504,3.01912 -4.36094,4.19321 -3.18685,1.84501 -2.51592,0.67092 -2.51593,-0.16773 -3.5223,0.67091 -4.02549,2.51593 -5.03185,2.01274 -4.6964,1.67729 -1.1741,-8.05097 z" />

     <!--> Elastic2<-->
    <path class="elastic2 shape" d="m 306.00823,635.0423 10.9896,1.17746 14.65281,2.61657 16.35359,1.70077 15.69943,0.65414 10.33547,1.43912 h 11.90541 l 7.84972,1.17746 4.05568,5.62563 2.61658,2.87823 -5.75646,-0.26166 -6.67227,-1.17745 -7.3264,-1.17746 -3.6632,-0.13083 3.92486,4.97149 4.05569,3.53237 6.14894,0.9158 4.05569,0.52332 0.26166,3.27071 3.6632,2.61658 6.67226,2.22408 4.84066,2.74741 2.7474,2.35491 -2.61657,0.65414 -1.96243,1.30829 -4.579,0.65414 -5.23315,-0.39248 -4.44817,-1.30829 -3.53238,-2.61657 -1.43911,-5.10232 -0.9158,-1.56994 -5.36398,-2.09326 -6.01812,-3.27072 -4.05568,-3.53237 -0.39249,-2.7474 1.56994,-1.70078 v -1.70077 l -5.75646,-1.56994 -6.54143,-0.52332 -7.98055,-0.78497 -10.72795,-0.13083 -9.28883,-0.52331 -7.58806,-0.78497 -10.20464,-1.43912 -3.53237,-0.52331 -5.23315,-4.18652 -3.40154,-3.53237 z" />
    <path class="elastic2 shape" d="m 465.48836,652.44251 6.80309,1.43911 6.4106,1.04663 0.52332,12.55955 -5.75646,-2.87823 -8.11138,-3.40154 -6.54143,-4.18652 -2.7474,-1.8316 4.31734,-2.87823 z" />
    <path class="elastic2 shape" d="m 518.99728,661.0772 9.68132,2.22409 6.54143,1.17746 12.82121,0.26165 13.73701,0.65415 10.85878,0.9158 15.83027,1.70077 24.59578,2.48574 17.26939,1.30829 17.92352,1.30829 10.98961,1.04663 -13.08287,-2.61658 -1.30828,-1.70077 10.33546,0.65414 h 15.17613 19.23181 l 11.90541,0.39249 3.6632,2.61657 -0.13083,3.13989 -2.61657,2.35492 -6.54144,-0.13083 2.61658,3.92486 -17.92353,-1.30829 -17.53104,-1.70077 -20.14761,-1.56995 -19.75513,-1.30828 -21.97921,-2.22409 -20.40927,-1.96243 -17.40022,-2.09326 -11.12043,-1.56994 -8.11138,-0.39249 -10.85878,0.39249 -11.25126,0.78497 -6.80309,1.04663 -1.43912,-4.31735 0.26166,-2.7474 h 4.05569 z" />

</g>
</svg>
