<svg id="product-svg" xmlns="http://www.w3.org/2000/svg" xmlns:xlink="http://www.w3.org/1999/xlink" viewBox="0 0 1280 850">
  <!--partie1-->
  <polygon class="product-shape1 shape" fill="#fff" points="102.46 282.73 110.8 279.95 120.87 278.21 145.89 276.48 157.81 276.48 172.02 275.56 182.17 275.56 192.32 274.64 201.55 274.64 212.81 274.64 224.8 274.64 235.5 274.64 247.87 275.38 255.43 275.56 265.58 276.3 273.89 277.04 273.89 294.57 273.89 315.79 274.38 336.89 274.38 352.01 275.16 392.01 259 392.01 242.54 392.38 212.54 390.52 187.04 388.74 178.67 388.12 167.57 387.05 156.57 385.92 144.44 384.79 132.88 383.8 114.68 382.53 108.62 382.25 107.35 362.23 106.93 343.61 105.38 315.69 104.82 306.58 102.46 299.13 102.46 282.73"/>
  <polygon class="product-shape1 shape" fill="#fff" points="182.38 426.39 190.99 426.39 201.86 428.26 208.97 429.2 219.65 430.32 227.69 430.91 235.05 431.72 242.33 432.28 251.06 432.93 258.83 433.25 266.84 433.25 276.78 433.25 277.92 443.44 277.92 454.77 278.97 457.36 278.97 466.5 278.97 475.12 278.97 481.6 279.68 484 280.39 496.26 280.39 506.83 281.09 514.44 281.09 527.4 282.08 535.44 282.08 544.6 282.08 553.05 283.04 560.29 283.04 568.56 283.04 587.79 283.04 607.03 284.9 615.09 285.73 625.43 285.73 635.77 286.62 640.85 286.62 644.77 285.26 654.52 284.44 661.63 283.16 666.47 283.34 671.85 282.79 674.4 284.16 679.23 284.98 687.16 284.53 689.99 282.34 694.09 281.7 697.37 280.97 700.93 276.87 705.22 272.49 708.68 265.65 710.41 263.65 711.51 255.17 712.6 250.24 713.79 243.77 713.79 236.93 712.87 229.55 711.69 224.99 710.78 215.96 708.59 208.85 708.5 205.84 708.68 194.08 705.49 183.14 701.84 177.4 699.11 172.65 694.37 166.73 690.72 161.9 685.52 157.15 681.69 151.87 678.87 146.03 673.94 140.38 666.19 136 658.72 132.54 652.15 128.98 647.32 125.7 642.12 123.05 635.01 121.78 626.8 120.14 619.78 119.23 607.57 117.68 601.91 116.42 589.77 116.42 576.57 114.95 566.73 114.95 548.72 114.3 540.17 114.3 528.67 113.6 509.15 113.02 498.58 113.02 489.64 113.02 481.97 112.2 469.89 112.2 460.37 112.2 455.61 112.2 448.17 113.25 447.13 117.9 447.82 123.24 449.1 130.91 450.49 138.22 452.7 146.35 454.33 151 454.56 156.23 455.61 162.73 456.3 168.54 456.88 175.39 457.81 178.64 458.63 180.27 455.72 181.55 451.19 182.01 446.08 182.48 437.72 182.59 432.61 182.38 426.39"/>
  <!--partie2--> 
    <polygon class="product-shape2 shape" fill="#fff" points="831.14 283.19 833.48 285.32 836.33 287.67 838.57 290.21 841.42 292.76 844.07 295.1 846.51 297.34 846.51 301.71 846.01 305.48 844.78 306.8 843.56 307.92 841.12 305.79 838.83 303.04 836.23 300.49 834.4 297.34 832.87 294.79 831.86 290.62 830.74 288.68 831.14 283.19"/>
  <polygon class="product-shape2 shape" fill="#fff" points="862.8 310.41 868.37 310.83 873.42 312.25 879.29 315.46 884.16 317.71 889.5 320.38 893 322.22 896.86 324.48 901.01 327.62 904.04 330.29 907.6 332.49 908.13 336.52 908.13 339.43 906.83 340.91 904.21 339.73 902.08 337.95 900.06 337.59 895.79 337.06 893.18 336.05 885.05 332.72 878.76 330.53 873.42 328.27 868.85 326.26 864.22 323.47 860.72 320.62 858.88 318.07 859.83 314.33 859.89 312.25 861.49 310.41 862.8 310.41"/>
  <polygon class="product-shape2 shape" fill="#fff" points="840.96 337.62 842.89 339.14 844.35 340.5 845.18 342.49 845.05 344.82 843.22 345.18 841.5 343.46 840.17 341.4 839.37 339.51 839.54 338.01 840.96 337.62"/>
  <polygon class="product-shape2 shape" fill="#fff" points="859.97 353.01 862.4 353.62 865.85 355.86 869 357.86 872.22 358.35 875.85 359.5 879.61 361.62 887.49 366.29 895.74 371.02 900.83 374.11 903.62 376.72 907.43 376.72 909.68 377.99 910.1 382.84 909.56 386.47 908.13 387.38 905.43 384.96 902.34 383.75 896.22 380.53 890.89 377.69 885.04 374.47 880.94 372.9 876.34 370.71 870.82 367.62 867.91 364.77 865.3 361.56 863.06 360.29 859.97 359.74 859.97 353.01"/>
  <polygon class="product-shape2 shape" fill="#fff" points="935.02 411.87 937.02 415.01 937.46 418.04 937.46 432.43 937.46 452.75 938.07 456.51 938.07 463.69 938.07 474.29 938.67 477.76 939.27 480.83 939.27 509.56 939.27 515.9 940.06 521.05 940.65 536.6 940.65 545.72 941.84 555.53 942.63 559.09 942.63 570.39 943.33 583.26 943.72 595.65 943.72 599.81 944.52 601.79 944.52 610.41 943.66 614.83 944.52 621.34 946.53 629.76 949.02 639.91 949.98 645.27 949.98 649.56 950.45 655.44 950.45 659.07 950.45 661.43 949.38 663.78 949.38 666.24 951.09 671.27 951.94 675.33 952.69 677.36 952.69 681.53 951.2 686.77 950.02 690.94 949.38 694.58 948.09 697.89 947.88 705.06 945.85 706.88 941.89 706.88 933.87 705.27 926.51 701.13 919.38 695.04 913.76 690.32 917.37 690.19 917.85 687.48 918.01 678.5 917.69 669.52 915.33 659.43 914.54 653.13 913.6 645.25 913.28 635.32 912.49 627.6 910.13 618.94 908.08 608.85 905.88 599.24 903.36 593.88 898.94 587.42 894.37 581.43 888.86 576.23 882.87 570.09 877.36 565.36 871.84 559.38 866.96 554.49 861.6 549.6 856.87 545.51 854.35 543.62 850.41 543.14 849.15 546.61 850.1 549.92 850.88 557.17 850.88 559.38 845.53 553.86 841.27 549.45 836.54 544.88 836.54 536.21 835.13 527.86 833.55 520.29 832.92 511.31 831.97 492.25 831.97 479.95 830.24 468.45 830.24 450.11 829.11 437.7 828.13 420.93 827.42 409.09 827.42 397.11 827.42 377.94 826.15 341.4 828.69 343.69 832.36 350.03 837.01 357.22 839.37 361.59 845.18 367.65 851.67 374.14 857.02 378.65 862.24 383.16 868.72 387.38 874.22 389.36 882.39 393.02 889.42 396.41 895.5 400.21 899.73 403.03 904.24 406.27 910.1 408.25 915.94 410.22 921.15 411.2 927.5 412.47 931.72 412.47 935.02 411.87"/>
  <polygon class="product-shape2 shape" fill="#fff" points="836.31 557.74 841.88 563.23 844.36 566.04 841.74 565.37 838.39 564.97 836.31 564.77 836.31 557.74"/>
  <polygon class="product-shape2 shape" fill="#fff" points="836.78 574.02 840.54 574.02 844.02 574.62 847.64 575.62 851.72 577.77 852.13 579.58 852.13 591.7 852.8 601.15 853.13 613.34 849.38 611.2 844.36 606.85 841.81 603.83 839.87 601.15 839.6 594.92 838.19 590.43 837.39 583.73 836.78 578.57 836.78 574.02"/>
  <!--partie3--> 
  <polygon class="product-shape3 shape" fill="#fff" points="845.66 618.42 850.22 621.19 853.13 623.63 853.13 629.83 854.62 634.72 857.07 639.2 864.57 647.1 871.41 652.89 877.19 658.02 882.65 662.34 887.95 666.9 893 672.03 889.42 675.38 883.06 670.4 874.67 663.64 867.82 657.94 863.26 653.13 858.05 646.9 854.14 641.8 851.53 636.92 849.08 631.29 846.97 625.67 845.66 621.52 845.66 618.42"/>
  <polygon class="product-shape3 shape" fill="#fff" points="968.83 341.58 965.58 342.41 964.01 344.36 964.01 347.12 965.47 349.94 967.53 351.52 970.73 351.52 974.31 350.54 981.68 349.02 989.38 347.12 996.32 345.77 1000.87 344.47 1004.66 343.33 1008.4 342.3 1010.3 343.11 1012.47 343.65 1015.18 343.11 1017.08 341.58 1017.08 339.97 1017.08 335.63 1015.02 334.49 1013.23 333.84 1011.33 333.52 1009.6 334.38 1008.73 336.07 1007.37 336.77 1004.18 336.88 999.73 336.93 995.34 336.88 990.3 337.42 986.34 338.02 983.41 338.61 980.81 339.21 976.91 339.91 974.31 341.11 972.52 341.4 968.83 341.58"/>
  <polygon class="product-shape3 shape" fill="#fff" points="1046.2 325.17 1050.9 324.17 1056.1 322.37 1059.44 321.32 1065.34 319.77 1069.29 318.52 1073.33 317.67 1079.08 318.02 1081.48 317.67 1082.98 315.32 1085.82 314.82 1088.62 315.42 1089.42 318.02 1089.42 320.97 1088.47 323.67 1087.37 324.87 1084.63 325.17 1082.88 323.47 1080.78 323.17 1078.43 324.47 1075.43 325.17 1072.83 325.92 1069.54 326.37 1066.64 326.96 1063.09 328.11 1059.54 328.86 1055.65 330.06 1052.9 330.91 1052.15 332.86 1051.05 333.96 1048.6 334.31 1046.2 333.26 1045.1 331.36 1044.65 328.51 1045.1 326.07 1046.2 325.17"/>
  <polygon class="product-shape3 shape" fill="#fff" points="1113.33 306.29 1117.49 305.5 1122.15 303.75 1126.22 302.01 1130.47 300.18 1134.08 299.84 1137 299.05 1138.74 296.93 1139.7 295.44 1141.74 296.02 1143.73 298.01 1144.44 300.68 1144.44 303.59 1140.03 304.17 1137.49 305.42 1132.5 307.16 1127.43 309.24 1123.73 310.66 1120.57 311.95 1117.61 313.65 1115.37 314.86 1112.83 314.86 1112.08 312.4 1112.08 308.58 1112.08 307.25 1113.33 306.29"/>
  <polygon class="product-shape3 shape" fill="#fff" points="1115.74 346.47 1120.98 345.05 1125.77 342.81 1130.84 340.64 1135 339.15 1139.74 337.65 1142.86 336.9 1144.69 335.11 1146.64 335.11 1148.39 337.4 1148.97 340.39 1148.72 342.56 1147.14 343.97 1145.27 344.97 1142.9 344.64 1139.57 346.01 1136.5 347.09 1133.92 348.25 1130.84 349.79 1128.05 350.54 1125.14 351.46 1122.85 352.54 1119.86 352.95 1118.24 354.33 1117.16 355.08 1114.12 355.08 1113.08 353.08 1113.08 350.29 1113.08 348.09 1115.74 346.47"/>
  <polygon class="product-shape3 shape" fill="#fff" points="1047.41 367.97 1053.23 366.97 1062.79 363.9 1067.94 362.24 1073.43 361.2 1078.02 360.11 1081.05 358.41 1083.46 357.04 1086.87 356.8 1088.95 358.03 1088.95 361.44 1087.58 363.85 1086.06 365.74 1081.61 365.98 1078.92 366.55 1075.04 367.97 1070.92 368.96 1067.23 370.43 1062.08 371.66 1058.43 372.36 1054.65 373.26 1051.24 374.4 1048.92 375.2 1045.66 375.44 1044.9 372.41 1045.19 370 1047.41 367.97"/>
  <polygon class="product-shape3 shape" fill="#fff" points="967.55 386.98 973.7 385 979.52 383.1 985.34 381.64 993.62 379.32 999.96 378.04 1005.59 377.47 1009.28 376.72 1011.07 374.83 1014.15 374.12 1017.08 376.58 1017.08 381.59 1014.95 383.96 1010.7 385 1006.86 385.04 1003.93 386.18 999.15 387.88 995.23 388.78 990.35 390.58 986.19 391.76 981.6 392.76 977.86 393.42 975.17 393.75 972.56 394.18 970.77 396.07 968.21 396.64 965.99 395.17 964.43 393.42 964.43 390.01 965.47 388.55 967.55 386.98"/>
  <polygon class="product-shape3 shape" fill="#fff" points="937.02 415.01 937.46 418.04 937.46 432.43 937.46 452.75 938.07 456.51 938.07 463.69 938.07 474.29 938.67 477.76 939.27 480.83 939.27 509.56 939.27 515.9 940.06 521.05 940.65 536.6 940.65 545.72 941.84 555.53 942.63 559.09 942.63 570.39 943.33 583.26 943.72 595.65 943.72 599.81 944.52 601.79 944.52 610.41 943.66 614.83 944.52 621.34 946.53 629.76 949.02 639.91 949.98 645.27 949.98 649.56 950.45 655.44 950.45 659.07 950.45 661.43 949.38 663.78 949.38 666.24 951.09 671.27 951.94 675.33 952.69 677.36 952.69 681.53 951.2 686.77 950.02 690.94 949.38 694.58 948.09 697.89 947.88 705.06 945.85 706.88 941.89 706.88 933.87 705.27 926.51 701.13 919.38 695.04 913.76 690.32 908.94 687.56 904.1 683.62 901.04 680.95 899.3 679.04 896.6 681.71 896.04 682.99 900.16 686.08 910.22 693.32 915.89 697.25 920.14 700.16 924.37 703.66 928.19 707.24 932.73 710.82 937.58 713.95 941.15 715.96 946 716.78 950.99 717.08 953.3 716.71 959.49 714.1 969.33 709.11 978.2 704.41 988.11 699.04 992.14 696.81 1005.93 688.93 1019.59 683.15 1034.3 676.18 1046.78 670.67 1064.51 662.13 1077.12 656.48 1091.44 649.78 1103.13 645.19 1109.69 642.03 1115.47 638.88 1120.2 635.6 1125.85 629.95 1130.45 624.17 1132.16 620.1 1133.08 615.37 1133.08 608.01 1132.29 605.12 1132.42 600.79 1133.08 595.54 1134.13 591.33 1134.91 586.08 1135.7 581.35 1135.7 576.23 1137.54 572.15 1137.54 563.75 1138.33 556.65 1138.33 548.51 1138.33 541.66 1138.95 534.36 1138.95 521.16 1138.95 512.39 1139.74 504.8 1139.74 497.31 1141.02 492.08 1141.02 484.4 1141.02 476.51 1142.2 469.22 1142.2 456.8 1142.79 450.1 1142.79 443.4 1143.88 437.09 1143.88 428.22 1145.26 423 1145.85 416 1146.83 407.72 1146.83 401.12 1147.72 396.58 1147.72 390.57 1149.2 382.88 1149.89 376.97 1149.89 368.3 1150.48 362.88 1142.2 366.12 1130.47 369.88 1120.91 372.34 1107.22 376.68 1098.35 379.14 1086.03 383.72 1070.82 388.23 1056.82 392.01 1041.85 396.03 1033 398.69 1016.5 402.79 1004.11 406.25 992.52 409.55 982.47 412.53 972.97 415.75 965.81 418 958.08 419.45 951.08 419.13 944.97 419.29 941.43 417.52 937.02 415.01"/>
  <polygon class="product-shape3 shape" fill="#fff" points="273.67 275.68 284.8 275.68 292.65 274.64 303.12 274.64 310.72 275.16 319.75 275.16 326.42 275.16 332.45 275.68 340.04 276.59 343.71 278.29 351.82 278.29 361.12 279.34 367.53 280.26 369.89 280.91 372.51 279.47 378.79 279.21 382.85 277.78 387.95 277.78 390.83 278.56 393.84 276.46 399.21 275.94 403.53 276.72 408.11 276.85 414 276.33 417.54 276.46 421.47 277.12 423.04 288.37 424.74 294.53 424.74 305.52 425.52 319.01 426.31 328.96 426.83 336.42 426.83 353.57 426.83 368.1 426.83 379.88 426.83 391.53 426.05 405.41 426.05 414.7 425.65 439.71 425.26 452.54 424.87 464.84 424.87 477.8 424.87 492.07 425.13 502.15 425.13 519.04 425.39 532.52 426.18 546.4 426.83 558.57 426.83 571.14 426.83 591.17 427.49 597.45 426.83 607.93 427.49 618.66 427.49 629.66 426.57 638.82 421.36 648 416.19 654.24 410.12 659.06 404.41 661.91 396.03 665.48 386.22 669.4 378.19 672.79 371.95 675.82 364.1 680.11 356.61 682.96 345.55 687.95 334.49 693.31 323.25 699.37 312.9 704.19 303.81 709.36 293.46 713.79 285.61 717.74 278.83 720.6 273.67 722.2 257.07 722.2 245.48 722.2 239.77 720.42 232.81 718.64 224.61 716.14 217.65 713.79 213.19 711.14 211.23 709.54 208.85 708.5 215.96 708.59 224.99 710.78 229.55 711.69 236.93 712.87 243.77 713.79 250.24 713.79 255.17 712.6 263.65 711.51 265.65 710.41 272.49 708.68 276.87 705.22 280.97 700.93 281.7 697.37 282.34 694.09 284.53 689.99 284.98 687.16 284.16 679.23 282.79 674.4 283.34 671.85 283.16 666.47 284.44 661.63 285.26 654.52 286.62 644.77 286.62 640.85 285.73 635.77 285.73 625.43 284.9 615.09 283.04 607.03 283.04 587.79 283.04 568.56 283.04 560.29 282.08 553.05 282.08 544.6 282.08 535.44 281.09 527.4 281.09 514.44 280.39 506.83 280.39 496.26 279.68 484 278.97 475.12 278.97 466.5 278.97 457.36 277.92 454.77 277.92 443.44 276.78 433.25 276.78 423.96 276.78 417.71 276.2 408.28 276.2 400.66 275.16 392.01 274.38 352.01 274.38 336.89 273.89 315.79 273.89 294.57 273.67 275.68"/>
  <polygon class="product-shape3 shape" fill="#fff" points="120.14 619.78 120.14 627.93 120.69 633.78 121.96 639.84 123.51 647.18 125.42 652.46 128.87 658.6 131.9 664.73 134.65 670.09 139.02 674.25 144.74 679.96 150.02 685.6 154.04 689.69 158.55 693 162.78 695.33 167.37 697.37 171.17 698.57 175.19 699.77 179.92 701.18 183.14 701.84 177.4 699.11 172.65 694.37 166.73 690.72 161.9 685.52 157.15 681.69 151.87 678.87 146.03 673.94 140.38 666.19 136 658.72 132.54 652.15 128.98 647.32 125.7 642.12 123.05 635.01 121.78 626.8 120.14 619.78"/>
  <!--partie4-->
   <polygon class="product-shape4 shape" fill="#fff" points="108.62 382.25 108.99 387.92 108.99 394.92 108.99 399.96 109.29 404.09 109.29 411.32 109.29 415.45 112.3 417.71 117.79 418.16 127.72 418.99 136 420.27 143.52 421.7 150.74 422.9 158.87 424.18 167.45 425.38 174.59 426.39 182.38 426.39 190.99 426.39 201.86 428.26 208.97 429.2 219.65 430.32 227.69 430.91 235.05 431.72 242.33 432.28 251.06 432.93 258.83 433.25 266.84 433.25 276.78 433.25 276.78 423.96 276.78 417.71 276.2 408.28 276.2 400.66 275.16 392.01 259 392.01 242.54 392.38 212.54 390.52 187.04 388.74 178.67 388.12 167.57 387.05 156.57 385.92 144.44 384.79 132.88 383.8 114.68 382.53 108.62 382.25"/>
  <!--elastic1--> 
   <polygon class="product-shape5 shape" fill="#fff" points="287.8 152.09 284.43 149.33 280.96 146.37 276.37 141.98 273 136.88 269.33 131.47 268 125.96 267.08 119.53 268.41 114.73 270.66 109.32 273.41 106.15 277.44 103.3 280.45 102.79 287.8 103.19 292.6 104.73 296.58 107.48 299.34 109.32 302.2 112.59 305.56 116.67 306.58 118.3 309.54 113.71 313.32 108.5 317.71 103.5 321.28 100.75 326.18 97.68 330.88 95.64 335.16 94.83 345.78 94.83 350.27 96.56 354.15 98.91 357.31 101.77 360.27 105.54 361.91 108.4 362.82 112.38 362.82 123.46 361.7 127.49 359.56 130.86 356.39 135.14 353.43 137.59 350.07 139.84 346.8 140.86 337.72 140.86 332.41 138.41 329.14 136.37 327.3 134.84 325.98 136.06 325.67 138.72 323.32 137.49 322.1 136.16 319.75 138.92 316.38 139.84 316.69 143.51 317 148.62 315.87 150.66 313.73 151.68 310.36 151.47 307.5 151.68 304.85 151.58 301.99 150.96 300.97 150.56 301.48 142.08 301.79 136.47 301.99 131.67 301.07 129.32 297.81 124.32 294.13 119.73 290.76 116.57 287.5 114.63 284.43 114.01 281.78 114.63 279.43 116.16 278 118.3 277.8 123.46 277.9 128.81 281.07 133.61 284.03 137.18 287.29 140.04 290.46 141.98 293.83 143.61 292.5 145.86 292.6 147.6 295.76 149.23 296.17 150.96 296.07 152.6 292.6 152.09 287.8 152.09"/>
  <polygon class="product-shape5 shape" fill="#fff" points="950.82 117.88 947.21 113.76 940.17 106.54 933.99 102.08 927.46 98.64 921.45 96.92 914.75 95.55 905.82 95.55 898.43 96.24 892.59 97.78 886.41 100.02 880.39 103.11 875.07 106.71 868.71 111.35 863.05 117.02 858.41 123.2 854.29 129.73 852.05 135.4 849.65 142.27 848.62 147.08 847.76 155.15 847.76 166.32 845.7 169.41 843.81 174.22 843.81 179.89 843.81 185.21 836.08 189.68 825.94 194.83 818.73 198.61 813.4 200.67 808.77 200.67 806.19 202.9 804.82 206.34 804.82 210.81 807.05 213.73 815.29 214.76 818.9 214.76 825.77 211.49 833.33 207.2 839.34 204.28 845.01 201.19 849.48 199.47 851.02 199.81 850.34 203.42 848.27 210.12 846.04 215.62 843.98 222.49 841.92 226.95 838.48 229.36 837.28 232.28 839.86 234.34 844.15 235.88 848.45 235.88 853.26 235.88 855.14 233.99 854.46 230.22 856.86 223.86 858.92 216.3 861.84 208.4 864.25 201.7 867.86 201.53 871.63 199.81 873.87 199.13 879.71 201.19 884.17 203.25 889.67 204.28 898.77 204.97 906.33 204.45 913.37 204.11 919.04 203.25 924.88 201.01 928.49 198.61 933.81 192.43 938.97 187.27 942.92 181.95 947.04 177.65 952.02 173.36 956.32 168.55 960.78 164.26 963.36 161.16 966.97 158.42 969.71 156.7 971.6 155.15 973.66 150.34 975.21 147.59 975.9 141.41 975.9 135.4 975.9 129.04 974.7 124.06 972.29 119.6 969.89 116.5 966.79 114.1 964.05 112.73 958.38 112.9 955.29 114.44 952.88 116.16 950.82 117.88"/>
  <!--elastic2--> 
  <polygon class="product-shape6 shape" fill="#fff" points="438.18 518.55 439.6 516.13 443.02 514.27 448.86 511.85 456.42 509.14 463.4 507.01 473.8 504.01 484.06 502.02 493.18 500.17 500.17 499.17 514.42 498.42 525.39 498.42 535.37 499.02 544.06 500.45 555.46 504.01 564.15 506.58 570.42 508.49 576.12 510.71 587.52 515.41 595.08 519.26 603.91 524.53 611.89 530.09 618.16 535.36 625.72 541.64 631.7 547.05 635.98 551.04 638.97 553.75 647.09 550.04 657.5 545.63 668.18 541.92 678.44 539.07 685.86 537.22 694.55 535.22 699.96 534.94 711.65 533.94 718.92 533.51 728.18 533.8 737.73 535.08 747.28 536.65 754.97 538.5 759.67 539.78 765.66 541.49 771.5 543.77 777.06 545.91 783.62 549.33 781.76 552.47 779.34 555.89 777.92 559.73 777.06 563.87 775.92 565.58 771.65 564.01 765.8 562.44 759.53 561.02 754.69 560.02 743.57 560.16 736.45 560.16 729.32 561.3 721.34 562.3 715.21 564.01 708.09 566.57 700.82 569.14 694.98 571.28 688.56 574.41 682.58 577.4 676.31 580.54 672.03 583.11 669.61 584.25 674.88 588.52 682.01 594.22 687.85 597.93 689.56 599.07 693.41 597.93 696.69 597.78 703.1 597.93 705.81 599.07 707.52 601.06 711.36 599.92 716.21 597.5 720.77 596.22 724.05 594.65 726.04 592.8 728.89 592.51 730.75 593.51 732.74 595.79 734.31 598.21 734.74 602.06 738.73 602.06 743.43 602.06 747.13 603.2 748.27 605.91 748.27 608.61 747.42 611.04 746.14 614.17 743.43 615.88 737.87 615.88 733.17 617.16 728.18 618.16 721.63 619.16 714.64 619.16 710.22 621.01 706.23 622.15 701.39 622.15 699.54 623.58 697.68 624.29 693.98 624.29 691.27 622.86 688.28 620.73 684.72 618.3 683.15 615.88 682.72 612.46 677.02 609.9 670.89 608.33 664.76 606.76 659.06 605.05 652.08 603.06 646.1 601.06 643.25 600.06 637.4 604.05 629.28 609.04 622.01 613.6 584.39 635.55 571.85 642.82 562.3 647.52 554.89 651.65 548.05 655.21 540.78 659.2 532.37 663.48 526.53 666.76 521.26 669.75 516.84 672.03 515.99 675.31 515.84 680.44 514.13 682.86 511 685 507.15 685 502.87 684.14 498.17 683.29 494.61 681.44 491.05 677.59 489.76 675.88 477.94 676.88 469.95 677.73 460.55 678.02 453.57 678.87 450.15 680.58 447.58 681.01 445.87 679.3 445.44 673.46 445.87 670.04 448.15 667.47 450.72 666.19 454.71 665.76 457.13 662.2 459.41 660.06 461.55 659.2 464.68 660.77 465.96 661.91 474.8 661.91 482.5 661.91 488.34 661.91 490.76 661.63 492.9 658.78 496.32 656.92 499.6 656.92 501.59 658.63 503.3 658.92 508.15 658.92 510.28 659.35 512.99 659.06 516.27 656.78 520.69 652.79 526.82 646.81 530.81 642.1 536.08 635.98 543.92 626.57 550.61 618.59 556.32 612.75 563.01 605.76 569.57 599.78 576.41 593.22 584.25 587.1 589.38 583.11 594.51 579.11 589.38 576.41 581.25 571.85 573.99 567.71 562.02 561.3 554.03 557.03 542.92 551.18 533.09 545.77 523.97 541.92 515.27 537.79 506.86 534.51 497.89 531.23 488.91 528.52 481.78 526.96 475.37 526.24 470.81 525.39 463.26 524.96 454.56 524.82 450.15 524.25 446.44 524.82 443.31 525.67 440.46 524.68 438.18 522.11 438.18 518.55"/>
  <polygon class="product-shape6 shape" fill="#fff" points="809.24 556.23 811.83 550.69 814.6 546.45 819.03 542.2 822.72 539.98 829.93 539.98 833.07 541.46 836.54 544.88 841.27 549.45 845.53 553.86 850.88 559.38 856.53 564.73 863.18 571.38 869.33 577.11 875.55 582.65 881.46 588 887.74 593.68 893 597.61 896.04 600.75 898.27 602.41 899.38 607.95 897.72 610.72 894.76 610.72 889.42 609.25 885.34 605.55 879.8 600.75 873.89 595.58 867.61 589.85 861.51 584.31 856.71 580.25 854.31 578.4 851.72 577.77 847.64 575.62 844.02 574.62 840.54 574.02 836.78 574.02 829.74 573.04 822.17 572.49 815.7 571.94 815.34 574.02 818.11 575.35 821.8 579.32 826.15 583.39 830.48 588.93 834.91 594.84 839.87 601.15 841.81 603.83 844.36 606.85 849.38 611.2 853.13 613.34 856.71 614.42 860.59 617.37 863.54 619.78 864.28 625.13 864.1 629.2 861.33 629.2 857.63 626.61 853.13 623.63 850.22 621.19 845.66 618.42 840.33 615.16 834.36 609.43 828.82 603.52 824.76 598.9 819.58 593.68 815.7 588.19 811.64 584.59 809.24 582.65 807.76 588.37 805.55 597.06 803.7 605.74 802.59 612.02 801.85 618.42 801.85 623.1 801.85 632.15 801.85 638.43 802.59 645.27 804.44 654.13 807.21 662.07 812.2 669.65 816.91 674.52 822.62 679.37 827.22 682.35 833.18 685.57 839.02 687.06 845.66 688.31 850.62 688.8 859.51 687.93 867.33 686.32 873.79 684.33 880.12 681.35 885.59 678 889.42 675.38 893 672.03 894.53 667.82 895.27 662.35 896.04 657.76 899.38 657.39 901.36 658.5 903.97 661.73 904.59 665.58 903.97 670.42 902.1 674.52 899.3 679.04 896.6 681.71 896.04 682.99 893 685.45 889.42 688.31 885.46 690.67 879.38 693.27 875.03 694.89 869.94 696.38 866.21 697 862.36 697.99 856.03 697.99 841.5 697.99 836.78 697 832.06 695.51 826.72 693.52 822.13 691.04 816.91 688.06 812.07 685 806.73 678.87 801.85 672.66 799.28 667.2 796.3 660.61 793.94 653.66 792.94 649.19 791.95 643.35 791.95 614.79 793.07 608.21 795.06 598.27 796.3 590.7 797.66 585.98 799.15 582.5 800.27 579.4 801.39 577.66 801.39 576.29 799.28 574.8 799.15 571.95 801.64 567.72 803 564.99 804.25 560.02 805.74 558.78 808.59 559.16 809.24 556.23"/>
  <!--nocolor-->
     <polygon fill="#fff" points="325.87 109.67 329.85 107.6 334.52 105.87 339.71 105.87 344.9 105.87 349.4 107.77 351.82 110.71 352.86 114.86 352.86 118.84 352.86 123.71 349.75 127.49 347.5 129.05 345.08 128.01 341.44 127.32 337.81 126.11 335.73 125.59 335.73 119.36 335.04 115.9 333.48 113.48 331.06 111.4 328.64 111.06 326.56 111.23 325.87 109.67"/>
  <polygon  fill="#fff" points="940.26 142.47 940.26 138.25 941.95 133.86 943.13 129.31 943.13 127.11 940.26 122.73 937.06 119.19 932.67 114.63 929.8 111.59 926.26 109.57 921.87 107.71 917.15 106.2 910.74 105.35 903.65 106.2 898.42 107.55 892.35 109.74 887.8 111.93 882.73 115.14 878.69 118.17 874.64 122.22 870.59 126.61 867.55 130.49 864.85 135.72 862.83 140.44 861.31 145 860.3 149.55 860.3 158.15 860.3 160.35 864.52 161.53 866.88 162.88 870.42 166.76 873.29 170.47 875.99 174.01 877.84 180.42 878.52 183.12 880.04 184.81 879.36 188.01 881.05 189.53 885.1 191.05 889.99 192.4 897.24 193.08 903.82 193.75 911.08 193.08 918.84 190.88 925.75 188.52 934.86 183.46 941.27 179.24 947.51 173.68 952.41 167.6 957.64 160.18 960.5 154.44 963.37 146.68 964.38 140.95 964.9 135.84 964.9 131.65 963.43 127.98 961.79 126 960.1 125.6 957.95 126.73 955.86 128.49 956.59 131.77 957.61 138.38 958.29 144.2 958.57 146.58 955.35 144.94 952.12 144.03 950.15 144.71 949.02 146.24 947.04 147.14 944.83 146.52 942.46 145 940.26 142.47"/>

  <polygon  fill="#fff" points="836.31 557.74 832.66 554.85 830.01 552.62 828.03 551.06 825.38 551.06 823.93 552.98 822.37 554.4 820.56 557.08 819.05 559.37 818.63 561.23 820.02 561.89 824.35 562.2 829.05 562.5 832.96 563.16 836.31 564.77 836.31 557.74"/>
  <polygon  fill="#fff" points="654.07 593.7 657.34 591.71 660.53 589.88 662.44 589.88 666.63 593.7 670.45 596.8 673.18 598.98 669.99 598.53 664.35 596.98 659.89 595.71 655.52 594.43 654.07 593.7"/>
  <polygon  fill="#fff" points="532.39 653.22 539.76 645.85 547.77 636.93 554.68 629.11 562.06 620.83 571.61 611.18 577.07 605.63 583.26 600.44 589.27 595.34 594.55 590.97 600.1 586.97 604.01 583.33 609.29 585.51 614.2 588.24 619.57 590.61 626.31 593.52 632.32 596.34 627.49 599.17 619.85 603.99 610.9 609.63 603.56 613.91 597.82 617.37 592 620.83 584.81 624.92 577.35 629.29 569.43 634.02 561.51 638.21 555.6 641.39 548.59 644.94 542.94 648.13 538.12 650.59 534.66 652.68 532.39 653.22"/>
  <polygon  fill="#fff" points="613.96 577.7 618.21 575.58 622.92 572.99 627.88 570.16 631.65 568.03 634.24 566.62 636.89 565.38 637.6 565.09 640.9 568.68 644.26 572.04 648.57 576.11 651.87 579.12 654.76 582.12 651.22 585.07 647.74 587.37 644.68 589.26 642.61 590.14 639.19 588.96 632.32 586.25 626.99 584.19 623.04 582.71 619.5 581.12 616.38 579.47 614.44 578.59 613.96 577.7"/>
  <polygon  fill="#fff" points="645.9 561.18 654.07 557.52 661.56 554.63 669.44 551.63 676.33 549.86 683.88 547.86 690.1 546.19 695.32 545.19 702.42 544.19 710.64 543.41 715.52 542.97 723.19 542.97 730.96 543.86 736.73 544.64 742.62 545.52 748.28 546.86 753.28 548.08 761.61 550.85 754.72 550.19 748.06 549.86 737.51 550.19 730.52 550.97 722.63 552.08 716.3 553.41 710.2 555.3 705.09 557.07 699.2 558.85 693.65 561.74 687.43 564.51 681.55 567.18 676.22 570.06 670.78 573.17 667.11 575.17 662.78 577.61 658.12 573.62 652.9 568.4 649.9 565.09 645.9 561.18"/>
  <polygon  fill="#fff" points="466.61 517.12 472.69 515.31 479.68 513.89 487.44 511.56 494.82 510.14 502.71 508.97 509.82 508.06 520.43 508.06 527.68 508.06 533.24 508.97 541.91 510.65 548.9 511.82 556.4 513.76 562.23 515.7 568.31 517.77 575.81 520.36 583.45 523.46 591.47 527.86 598.32 532 604.79 536.4 612.04 541.71 617.86 546.1 622.52 550.37 626.92 554.51 630.67 558.01 625.37 561.11 618.12 565.09 613.07 567.71 608.8 570.3 603.76 573.79 594.83 569.13 585.9 564.22 578.53 560.34 570.38 555.55 562.23 551.54 553.56 546.75 545.28 542.35 536.74 538.08 530.27 534.72 523.02 531.61 516.04 528.9 508.4 525.92 502.71 523.98 496.24 522.04 490.68 520.36 485.5 519.06 479.03 518.16 470.49 518.03 467.14 518.1 466.61 517.12"/>
</svg>