<svg id="product-svg" data-name="Calque 1" xmlns="http://www.w3.org/2000/svg" xmlns:xlink="http://www.w3.org/1999/xlink" viewBox="-216 115 1280 850">

  <polygon class="product-shape1 shape" points="157 421.41 163.68 419.5 172.43 417.12 184.03 416 196.43 416 206.45 414.89 218.21 414.26 230.77 414.26 240.95 413.14 251.44 413.14 263.21 413.14 277.67 413.78 285.15 413.14 292.14 414.26 304.07 414.1 314.4 415.05 324.73 415.37 327.6 415.85 328.46 432.54 328.46 447.99 328.46 464.57 328.46 483.67 328.46 500.88 329.34 518.71 329.97 531.78 319.54 531.78 308.11 532.41 293.67 532.41 279.35 530.9 266.53 529.89 253.6 528.76 244.17 527.94 236.06 527.88 226.28 526.83 217 525.85 209.93 525.05 201.61 524.06 195.28 523.41 185.14 522.85 172.77 521.55 165.61 521.37 162.45 520.62 161.61 510.39 160.96 500.25 161.52 489.93 161.88 479.17 160.43 463.3 159.88 450.89 158.33 443.06 157 436.34 157 428.85 157 421.41"/>
  <polygon class="product-shape1 shape" points="331.25 586.74 331.25 575.82 331.25 571.56 325.62 572.21 317.01 572.51 305.27 573.06 294.93 572.21 287.43 571.67 278.54 571 267.04 568.88 255.85 567.74 246.85 566.47 237.96 565.65 236.01 565.65 236.01 574.3 236.01 581.52 235.44 588.44 234.21 594.52 232.78 598.12 231.17 598.12 227.85 596.99 221.49 595.56 213.14 594.42 203.93 593.38 195.2 591.86 186.56 591.01 180.3 589.39 173.27 587.97 170.24 585.98 165.3 586.17 165.87 604.58 166.06 617.11 166.06 633.34 166.82 648.52 167.01 667.03 167.77 680.13 168.15 689.33 168.72 702.81 169.1 723.41 169.57 734.51 169.67 741.44 171.09 746.28 171.94 756.43 172.89 759.66 174.48 761.03 175.01 768.83 175.19 774.04 177.08 780.07 180.4 784.81 184.18 789.66 187.08 794.1 189.48 798.68 194.33 806.96 197.02 809.53 200.23 813.75 205.77 818.18 209.49 820.47 214.27 823.26 217.19 825.85 219.69 828.94 223.73 831.52 228.46 834.79 236.97 839.44 244.03 842.62 250.65 844.42 260.46 847.61 267.77 848.38 273.53 847.95 280.15 850.27 288.32 852.08 296.24 853.63 302 853.63 308.54 852.08 315.76 851.56 321.35 848.98 326.95 847.35 330.9 843.65 334.34 840.47 334.69 837.46 335.29 832.38 337.44 829.89 338.47 827.22 337.61 818.79 335.2 815.44 336.15 811.14 336.06 806.58 337.35 801.16 338.47 796.6 338.47 792.64 339.37 785.11 340.14 779.32 338.47 767.49 338.73 760.04 338.21 753.23 336.16 748.6 335.9 742.43 337.57 739.47 336.93 733.69 335.64 728.03 336.16 722.25 336.93 716.98 335.77 703.48 336.28 696.02 336.16 690.11 335.77 683.68 336.03 675.84 335.39 671.47 334.49 666.33 334.87 662.86 334.74 654.89 333.97 645.89 333.46 633.17 332.94 623.78 332.94 611.7 332.56 604.63 332.04 597.3 331.25 586.74"/>

  <polygon class="product-shape3 shape" points="166.17 555.97 163.5 553.83 163.5 543.67 162.96 531.36 162.45 520.62 165.61 521.37 172.77 521.55 185.14 522.85 195.28 523.41 201.61 524.06 209.93 525.05 217 525.85 226.28 526.83 236.06 527.88 244.17 527.94 253.6 528.76 266.53 529.89 279.35 530.9 293.67 532.41 308.11 532.41 319.54 531.78 329.97 531.78 329.97 538.79 330.7 550.89 331.25 561.69 331.25 571.56 325.62 572.21 317.01 572.51 305.27 573.06 294.93 572.21 287.43 571.67 278.54 571 267.04 568.88 255.85 567.74 246.85 566.47 237.96 565.65 229.61 565.26 218.73 563.81 207.76 562.45 199.4 561.28 189.01 559.82 180.46 558.27 170.95 557.1 166.17 555.97"/>
  
  <polygon class="product-shape4 shape" points="174.83 777.62 176.25 784.13 177.73 788.75 180.39 794.66 183.7 800.87 184.83 804.31 187.73 809.16 193.41 814.84 198.49 820.64 202.75 824.78 208.02 830.04 214 833.77 221.15 837.02 228.64 838.77 233.24 840.04 228.46 834.79 223.73 831.52 219.69 828.94 217.19 825.85 214.27 823.26 209.49 820.47 205.77 818.18 200.23 813.75 197.02 809.53 194.33 806.96 189.48 798.68 187.08 794.1 184.18 789.66 180.4 784.81 177.08 780.07 174.83 777.62"/>
  <polygon class="product-shape4 shape" points="264.66 848.05 268.72 852.01 274.16 854.77 279.27 856.23 285.76 858.09 292.65 859.88 297.44 860.93 309.2 860.93 324.05 860.93 329.16 860.93 336.05 858.09 346.6 853.63 359.33 847.55 369.64 842.27 391.7 831.16 403.54 825.4 413.93 821.75 421.31 817.94 432.58 812.1 440.29 808.85 449.21 805.61 457.25 802.53 463.49 798.96 469.41 794.49 473.39 789.95 477.36 784.11 480.04 778.68 481.01 773.16 481.01 759.29 481.01 750.45 481.01 730.09 481.01 704.29 480.28 688.55 479.23 682.39 478.9 672.49 479.07 646.86 479.23 638.26 478.74 621.14 478.9 598.26 479.63 583.18 480.04 572.87 480.2 549.92 481.01 541.56 481.01 520.71 481.01 508.95 481.01 490.21 481.01 468.31 479.96 458.17 479.39 441.38 478.34 433.02 477.12 426.13 476.07 420.37 474.12 418.1 471.12 416.15 468.68 415.5 466.17 416.64 460 416.23 455.95 415.5 450.92 415.5 446.62 416.56 443.54 418.1 438.91 417.45 436.15 416.96 433.96 418.02 430.39 419.23 423.01 420.12 416.52 418.91 408.17 418.26 399.57 417.93 394.05 417.37 391.38 415.99 382.78 415.09 372.07 415.09 360.96 414.53 347.41 414.53 339.7 414.93 327.6 415.85 328.46 432.54 328.46 447.99 328.46 464.57 328.46 483.67 328.46 500.88 329.34 518.71 329.97 531.78 329.97 538.79 330.7 550.89 331.25 561.69 331.25 571.56 331.25 575.82 331.25 586.74 332.04 597.3 332.56 604.63 332.94 611.7 332.94 623.78 333.46 633.17 333.97 645.89 334.74 654.89 334.87 662.86 334.49 666.33 335.39 671.47 336.03 675.84 335.77 683.68 336.16 690.11 336.28 696.02 335.77 703.48 336.93 716.98 336.16 722.25 335.64 728.03 336.93 733.69 337.57 739.47 335.9 742.43 336.16 748.6 338.21 753.23 338.73 760.04 338.47 767.49 340.14 779.32 339.37 785.11 338.47 792.64 338.47 796.6 337.35 801.16 336.06 806.58 336.15 811.14 335.2 815.44 337.61 818.79 338.47 827.22 337.44 829.89 335.29 832.38 334.69 837.46 334.34 840.47 330.9 843.65 326.95 847.35 321.35 848.98 315.76 851.56 308.54 852.08 302 853.63 296.24 853.63 288.32 852.08 280.15 850.27 273.53 847.95 267.77 848.38 264.66 848.05"/>
  
  
  <polygon class="elastic1 shape" points="351 291.49 346.36 291.49 341.62 289.6 336.46 286.84 331.99 283.06 328.03 277.55 325.28 272.56 323.81 267.4 322.61 261.55 322.61 256.56 324.5 251.13 327.77 246.4 331.81 243.48 335.51 242.79 343.6 242.79 347.82 244.51 352.55 248.04 356.59 251.74 358.92 254.32 361.41 258.02 362.01 258.96 364.51 254.23 367.95 248.38 373.54 242.79 377.42 239.61 382.06 236.94 386.71 235.22 390.67 234.7 397.81 234.7 402.45 235.13 406.41 236.94 409.85 239.26 413.04 242.79 415.79 247.09 417.25 250.36 418.03 256.13 418.03 262.32 417.08 265.85 414.93 270.84 412.35 274.28 409.42 277.21 406.41 278.75 403.83 279.96 399.44 280.82 393.76 280.73 389.38 279.7 386.02 278.24 383.44 275.48 381.63 274.62 381.29 276.95 380.34 278.24 378.19 277.29 377.07 275.91 375.27 277.98 372.6 279.44 371.05 279.61 371.14 283.06 371.31 288.05 371.31 290.28 367.52 290.46 363.65 290.46 359.86 291.06 356.25 290.71 356.08 285.81 356.34 279.36 356.51 273.94 356.94 270.06 354.7 266.19 352.38 262.66 349.37 259.14 346.1 256.21 342.31 253.89 339.73 252.94 336.12 253.72 334.31 255.18 332.67 257.59 332.42 261.46 332.5 267.31 333.97 271.27 336.72 275.31 340.16 278.58 343.86 281.16 346.53 282.28 348.33 284.09 347.22 286.24 347.99 288.48 350.31 289.17 351 291.49"/>

  <polygon class="elastic2 shape" points="493.94 655.18 501.21 652.19 513.88 647.99 527.82 643.97 539.89 641.66 549.13 639.69 555.72 638.92 569.58 638.92 587.21 638.92 596.11 640.21 606.46 643.2 616.73 646.02 625.54 649.53 634.18 652.7 642.06 656.12 650.27 660.4 657.8 665.19 664.73 670.07 674.32 677.51 680.91 683.16 689.38 691.12 696.56 697.96 706.15 708.23 714.88 717.13 723.52 725.26 733.53 733.48 740.2 737.93 743.28 739.72 746.88 738.61 751.58 738.35 756.12 738.61 758.94 739.72 761.08 741.78 764.59 740.66 771.35 737.84 775.63 735.87 779.82 733.13 782.05 733.3 784.02 733.99 785.38 735.44 786.58 737.07 787.87 739.21 788.21 741.78 788.21 743.57 791.55 742.97 795.57 742.29 799.08 742.8 800.87 744.43 801.3 746.82 801.3 749.65 800.87 751.62 800.02 753.84 798.9 755.55 797.79 756.66 794.03 757.43 788.38 758.03 783.84 759.15 778.28 759.75 772.29 760.17 766.56 761.2 763.05 762.14 760.14 763.25 755.86 763.25 752.95 764.96 749.87 765.65 746.45 765.31 744.48 763.6 740.12 761.37 737.12 758.55 736.18 755.21 735.07 752.56 730.45 750.85 723.69 749.73 716.42 747.59 712.05 746.48 701.96 743.32 692.54 739.64 683.3 736.13 675 732.62 669.1 730.05 660.03 725.35 650.61 720.47 640.86 715.51 629.65 709.77 619.38 703.87 611.85 699.68 603.55 695.14 595.68 691.2 587.89 687.1 580.11 683.08 571.98 679.48 565.3 676.49 561.2 674.86 556.23 673.06 549.64 671.01 543.82 669.47 537.75 667.93 533.21 667.07 527.31 666.3 519.1 665.53 512.34 665.02 505.75 664.94 500.87 665.02 497.96 665.45 496.25 666.48 494.45 665.36 492.14 661.94 491.29 658.69 491.63 656.38 493.94 655.18"/>

  <polygon fill="#fff" points="381.33 250.18 385.01 247.78 388.74 246.11 393.03 245.61 397.38 245.61 401.28 246 403.73 247.28 406.12 249.56 407.24 252.85 407.85 256.58 408.24 260.7 407.74 263.43 406.01 265.72 403.78 268.11 401.89 268.56 400 267.84 396.82 267.06 393.76 266.67 390.86 265.72 390.08 261.71 389.97 257.36 389.8 255.08 388.41 252.91 386.29 251.12 385.01 250.9 382.84 250.79 381.33 250.18"/>
  <polygon fill="#fff" points="520.2 656.63 529.07 654.91 537.78 653.03 546.27 651.08 553.78 649.8 561.44 648.52 568.35 648.15 577.59 648.15 584.35 648.82 590.28 649.57 596.06 650.93 603.35 652.39 609.06 654.23 619.05 657.16 625.96 659.64 632.87 662.57 640.08 666.4 646.84 670.08 653.52 673.83 659.98 678.27 667.72 684.72 674.1 689.83 679.29 694.49 687.25 702.75 695.36 710.49 700.09 715.97 704.22 719.73 709.93 725.28 717.14 731.52 723.45 736.7 729.23 741.28 718.42 738.43 703.17 733.55 687.47 727.69 672.68 721.6 662.54 716.72 651.72 711.16 642.11 706.13 627.31 697.79 614.62 690.36 601.7 683.3 591.78 678.64 581.27 673.23 571.43 669.1 565.12 666.92 558.89 664.44 549.27 661.67 542.29 659.94 536.2 658.66 532 657.68 523.88 657.99 520.73 657.53 520.2 656.63"/>

</svg>