<svg id="product-svg" data-name="Calque 1" xmlns="http://www.w3.org/2000/svg" xmlns:xlink="http://www.w3.org/1999/xlink" viewBox="0 0 3628.35 2409.45">
<!--partie1-->
  <polygon class="product-shape1 shape" points="962.26 1107.16 970.52 1107.16 970.52 1141.05 972.57 1153.88 973.83 1191.42 973.83 1249.3 975.25 1339.3 975.25 1373.75 936.66 1375.66 912.1 1373.75 863.3 1360.03 834.6 1350.47 775.6 1332.29 734.77 1318.25 673.85 1297.84 628.88 1280.94 557.44 1254.79 503.86 1232.78 469.42 1221.62 438.48 1212.05 436.56 1187.49 432.42 1156.23 426.04 1116.69 422.85 1088.62 417.43 1052.58 411.05 1019.41 406.9 1000.91 406.9 989.43 427 994.53 461.1 1003.25 493.1 1013.98 525.64 1025.06 553.71 1031.5 573.02 1031.5 595.37 1042.76 642.52 1063.49 665.26 1071.85 702.38 1076.54 733.47 1079.21 760.56 1079.88 790.99 1080.55 803.36 1076.87 822.76 1079.55 850.85 1088.57 872.58 1096.6 910.7 1104.29 940.8 1107.3 962.26 1107.16"/>
  <polygon class="product-shape1 shape" points="681.27 1391.72 678.6 1419.36 675.33 1438.68 671.76 1452.35 669.08 1458.59 657.49 1454.73 633.42 1443.73 611.13 1435.11 590.32 1425.16 571.6 1416.69 551.09 1407.18 536.23 1400.04 519.88 1394.99 506.81 1388.15 496.4 1380.13 481.84 1369.13 479.17 1360.81 479.17 1348.33 476.79 1335.85 476.79 1313.85 466.68 1308.8 455.39 1303.15 448.55 1298.69 453.31 1328.71 453.61 1353.38 455.98 1382.21 458.96 1406.58 458.96 1433.33 461.63 1460.38 465.2 1493.07 467.87 1507.63 468.76 1529.33 471.14 1566.48 474.11 1603.34 476.19 1628.3 482.44 1692.2 484.22 1716.28 489.57 1750.16 494.03 1776.61 501.75 1811.38 508.29 1840.51 516.61 1855.67 535.34 1877.07 557.04 1890.74 569.52 1894.9 579.03 1900.25 591.81 1906.19 603.7 1910.95 617.67 1919.57 634.9 1928.48 657.2 1940.67 668.49 1943.64 679.19 1949.29 688.11 1952.56 699.1 1958.8 710.4 1965.93 725.26 1978.12 746.66 1991.2 762.11 1997.73 782.92 2010.81 795.99 2017.35 814.42 2025.67 829.28 2033.1 848.01 2037.26 870 2040.53 897.94 2040.53 913.99 2038.16 923.5 2030.13 930.04 2017.05 942.82 2004.57 950.84 1992.39 957.68 1982.58 959.46 1958.5 963.62 1943.05 963.62 1911.25 963.62 1872.91 966.3 1849.43 964.81 1828.03 966.3 1801.87 966.3 1769.77 968.97 1744.21 968.97 1718.95 970.75 1679.12 970.75 1660.7 974.32 1634.54 974.32 1612.55 977.59 1588.47 977.59 1565.89 977.59 1520.71 977.59 1496.34 977.59 1467.51 949.95 1469.59 925.87 1471.37 904.18 1467.51 877.43 1459.19 857.52 1453.54 831.06 1444.62 802.83 1433.33 784.7 1424.41 760.33 1416.69 737.74 1410.15 717.83 1402.42 697.62 1396.48 681.27 1391.72"/>
<!--partie2-->
  <polygon class="product-shape2 shape" points="2457.78 1392.54 2442.8 1399.05 2423.49 1402.09 2402 1402.09 2391.37 1397.31 2370.32 1383.86 2336.03 1359.77 2306.3 1341.1 2280.69 1320.49 2253.13 1296.61 2223.18 1273.61 2188.89 1243.66 2156.77 1210.02 2123.35 1176.6 2108.38 1164.45 2089.71 1148.83 2078.86 1141.23 2078.86 1162.93 2082.77 1181.59 2085.37 1200.91 2086.89 1226.52 2089.06 1260.81 2092.1 1302.91 2092.53 1318.75 2096.01 1336.76 2103.38 1384.07 2107.29 1414.67 2110.55 1453.08 2114.02 1473.48 2115.54 1495.62 2117.71 1524.05 2121.18 1541.63 2123.78 1562.68 2127.69 1595.23 2137.22 1595.23 2151.36 1596.31 2164.11 1599.38 2174.56 1602.76 2182.71 1604.91 2182.55 1587.86 2183.48 1579.86 2190.24 1574.95 2195.31 1574.18 2202.84 1577.1 2211.14 1585.09 2236.34 1606.6 2253.86 1623.36 2269.08 1637.19 2286.29 1653.94 2297.35 1664.7 2304.27 1672.23 2316.56 1686.98 2329.78 1705.57 2339.77 1716.95 2346.22 1729.86 2350.22 1742.46 2352.52 1748.91 2353.6 1769.2 2356.52 1790.1 2358.67 1805.31 2359.13 1834.82 2359.13 1850.19 2356.21 1863.86 2355.91 1876.16 2358.52 1888.61 2357.44 1898.29 2355.44 1910.43 2349.14 1912.89 2339.77 1911.66 2333.93 1912.89 2352.99 1935.48 2369.74 1950.08 2381.94 1960.29 2396.73 1970.15 2407.13 1975.88 2419.25 1977.08 2429.64 1977.08 2439.64 1976.28 2448.03 1972.28 2453.89 1965.09 2459.09 1954.43 2464.29 1940.97 2467.7 1922.34 2469.27 1893.75 2469.27 1851 2468.22 1813.75 2465.86 1781.75 2463.76 1756.31 2463.76 1725.62 2460.88 1700.7 2458.52 1663.71 2458.26 1619.39 2456.94 1572.17 2456.68 1539.91 2456.68 1491.91 2457.47 1452.04 2457.47 1426.59 2457.99 1406.92 2457.78 1392.54"/>
  <polygon class="product-shape2 shape" points="2131.4 1616.29 2139.65 1616.29 2150.69 1616.29 2161.74 1618.47 2170.77 1621.74 2178.86 1625.63 2185.71 1630.77 2188.2 1639.79 2189.91 1661.42 2189.91 1680.25 2189.91 1709.04 2191.15 1725.68 2191.15 1737.51 2183.99 1738.76 2177.61 1738.76 2166.26 1709.97 2155.21 1685.85 2146.96 1662.82 2140.11 1643.06 2135.13 1630.61 2131.4 1620.65 2131.4 1616.29"/>
    <polygon class="product-shape2 shape" points="2251.9 1242.31 2265.86 1251.01 2283.03 1262.46 2307.99 1278.49 2330.2 1291.54 2346.22 1301.84 2359.5 1310.08 2370.26 1318.1 2374.84 1325.19 2374.84 1332.75 2373.24 1337.79 2367.97 1337.79 2361.56 1332.98 2345.08 1319.93 2324.7 1306.42 2309.36 1294.51 2291.28 1280.55 2277.08 1272.99 2265.41 1264.06 2255.33 1256.97 2249.61 1252.16 2251.9 1242.31"/>
  <polygon class="product-shape2 shape" points="2236.68 1130.01 2247.84 1138.08 2264.32 1146.67 2281.15 1157.32 2296.09 1166.59 2311.03 1177.92 2323.05 1185.99 2336.09 1196.81 2351.03 1206.25 2359.1 1213.64 2360.31 1222.05 2359.28 1226.86 2354.81 1227.72 2342.28 1221.88 2325.79 1215.18 2309.31 1209.17 2295.74 1200.59 2279.6 1187.71 2263.46 1174.83 2249.61 1164.53 2235.47 1153.88 2228.95 1144.61 2228.95 1135.51 2232.9 1130.01 2236.68 1130.01"/>
  <polygon class="product-shape2 shape" points="2105.15 1023.55 2115.45 1029.22 2124.03 1037.29 2140.17 1052.23 2158.2 1068.54 2171.25 1081.08 2180.87 1090.35 2191.34 1096.02 2193.92 1103.23 2191.69 1111.47 2189.28 1115.08 2181.9 1113.53 2164.39 1097.73 2148.76 1082.79 2135.71 1069.31 2121.97 1052.74 2110.98 1041.07 2103.6 1032.48 2105.15 1023.55"/>
  <polygon class="product-shape2 shape" points="2055.85 950.16 2066.61 960.33 2065.12 980.06 2066.61 995.31 2069.6 1010.56 2071.99 1029.1 2073.49 1048.83 2076.18 1065.87 2078.86 1081.12 2078.86 1101.15 2075.58 1116.7 2073.49 1120.59 2069 1083.81 2064.82 1058.1 2061.23 1028.5 2059.43 1001.29 2055.85 980.36 2055.85 961.52 2055.85 950.16"/>
  
<!--partie3-->
  <polygon class="product-shape3 shape" points="2407.13 1975.88 2421.85 1989.5 2439.3 2000.65 2452.63 2010.1 2461.36 2010.1 2480.75 2004.29 2497.95 1996.04 2518.8 1982.72 2538.18 1969.14 2567.27 1952.66 2599.5 1932.3 2632.22 1910.98 2675.84 1882.86 2699.11 1869.29 2738.61 1844.09 2767.45 1826.39 2814.23 1797.55 2841.62 1779.38 2860.28 1769.2 2899.05 1746.42 2917.96 1734.54 2924.5 1729.69 2927.89 1725.09 2931.05 1712 2934.68 1685.1 2937.35 1667.89 2939.04 1647.29 2940.01 1614.82 2940.01 1590.58 2942.44 1569.5 2942.44 1534.6 2945.1 1513.51 2947.53 1478.37 2950.92 1450.98 2950.92 1406.87 2950.92 1389.91 2952.62 1355.25 2953.83 1333.68 2953.83 1297.81 2956.01 1276.73 2956.01 1250.8 2957.85 1216.46 2959.18 1190.72 2959.18 1174.01 2961.86 1162.98 2961.86 1147.6 2951.83 1156.62 2942.13 1162.31 2930.77 1170 2919.74 1176.35 2920.09 1194.9 2920.09 1213.45 2921.07 1221.09 2921.23 1226.95 2919.77 1231.51 2913.75 1234.43 2905.45 1238.18 2900.57 1241.92 2893.9 1246.31 2884.63 1247.94 2877.31 1245.5 2876.33 1236.39 2880.4 1227.6 2883.49 1218.98 2886.09 1207.1 2888.53 1195.39 2878.12 1199.62 2856.16 1210.84 2826.83 1226.21 2804.37 1240.19 2774.91 1256.93 2738.89 1276.22 2704.99 1294.23 2668.33 1313.51 2640.15 1328.34 2608.57 1344.87 2570.85 1363.31 2544.58 1375.81 2527.2 1385.77 2509.62 1390.85 2491.61 1392.97 2477.62 1391.91 2467.65 1384.89 2461.69 1382.4 2458.64 1386.42 2457.78 1392.54 2457.99 1406.92 2457.47 1426.59 2457.47 1452.04 2456.68 1491.91 2456.68 1539.91 2456.94 1572.17 2458.26 1619.39 2458.52 1663.71 2460.88 1700.7 2463.76 1725.62 2463.76 1756.31 2465.86 1781.75 2468.22 1813.75 2469.27 1851 2469.27 1893.75 2467.7 1922.34 2464.29 1940.97 2459.09 1954.43 2453.89 1965.09 2448.03 1972.28 2439.64 1976.28 2429.64 1977.08 2419.25 1977.08 2407.13 1975.88"/>
  <polygon class="product-shape3 shape" points="2532.73 1309.78 2527.25 1315.93 2523.3 1321.41 2523.3 1328.21 2528.01 1331.94 2533.83 1328.87 2541.28 1322.29 2549.4 1320.86 2561.91 1313.73 2576.17 1306.71 2593.93 1298.6 2610.83 1290.26 2619.6 1286.53 2625.09 1286.53 2630.57 1279.07 2634.96 1272.49 2632.76 1267.01 2625.3 1267.01 2611.92 1272.49 2598.54 1278.63 2584.06 1285.21 2569.8 1292.23 2557.96 1299.47 2546.55 1305.62 2539.09 1308.91 2532.73 1309.78"/>
  <polygon class="product-shape3 shape" points="2508.6 1200.32 2511.45 1193.08 2515.18 1188.69 2523.3 1186.28 2534.05 1180.14 2547.65 1172.46 2557.3 1168.73 2569.36 1164.12 2581.87 1158.86 2595.47 1152.28 2604.68 1147.6 2612.58 1144.82 2618.28 1146.35 2621.36 1151.4 2621.36 1157.76 2617.19 1165 2609.29 1168.95 2591.08 1179.04 2573.31 1187.81 2554.67 1195.71 2540.63 1202.51 2529.22 1206.9 2521.54 1212.16 2514.74 1212.16 2508.6 1209.53 2508.6 1200.32"/>
  <polygon class="product-shape3 shape" points="2686.22 1111.15 2700.5 1104.35 2716.13 1098.23 2731.26 1088.72 2745.19 1081.41 2761.34 1074.61 2771.71 1068.83 2782.76 1064.75 2787.85 1061.35 2793.97 1061.35 2797.37 1065.94 2797.37 1073.93 2793.63 1079.37 2787.34 1083.62 2777.32 1086.25 2765.76 1093.81 2757.43 1098.57 2747.57 1102.99 2735.34 1108.94 2724.46 1113.87 2716.64 1117.78 2706.61 1121.35 2701.86 1127.81 2696.25 1132.39 2689.79 1133.07 2684.49 1129 2682.31 1121.52 2684.49 1114.04 2686.22 1111.15"/>
  <polygon class="product-shape3 shape" points="2700.16 1229.82 2710.89 1222.13 2727.58 1211.83 2745.72 1201.38 2760.81 1193.69 2773.43 1187.01 2783.15 1182.66 2790.12 1180.34 2793.89 1177.15 2799.84 1177.15 2804.05 1179.61 2805.35 1183.82 2801.87 1190.64 2795.92 1196.45 2785.48 1201.38 2766.61 1211.25 2755.87 1217.78 2742.53 1224.3 2729.03 1232.14 2718 1239.25 2709.88 1243.89 2704.94 1249.41 2700.16 1251.15 2694.5 1249.55 2693.19 1243.17 2693.92 1235.04 2696.82 1231.12 2700.16 1229.82"/>
  <polygon class="product-shape3 shape" points="2860.72 1145 2860.15 1151.58 2861.29 1155.16 2864.29 1156.44 2870.02 1154.3 2875.17 1149.43 2876.88 1145 2876.88 1138.71 2876.88 1133.84 2873.45 1133.84 2867.73 1136.42 2863.58 1139.99 2860.72 1145"/>
  <polygon class="product-shape3 shape" points="2922.66 1104.51 2929.1 1099.22 2936.39 1093.07 2940.97 1091.5 2944.84 1093.07 2948.27 1098.01 2947.55 1105.52 2946.41 1110.67 2940.54 1114.39 2934.54 1117.39 2930.1 1110.95 2926.09 1107.95 2922.66 1104.51"/>
  <polygon class="product-shape3 shape" points="2870.3 1018.25 2879.46 1013.53 2889.33 1006.23 2905.21 998.22 2917.23 990.93 2926.09 986.21 2935.39 980.2 2941.26 980.91 2944.12 984.78 2944.98 991.64 2940.83 997.22 2932.53 1003.09 2923.81 1008.81 2912.22 1016.96 2900.34 1024.4 2890.19 1028.98 2881.6 1031.56 2876.31 1031.56 2870.3 1021.83 2870.3 1018.25"/>
 
   <polygon class="product-shape3 shape" points="975.25 1373.75 975.25 1339.3 973.83 1249.3 973.83 1191.42 972.57 1153.88 970.52 1141.05 970.52 1107.16 992.86 1101.25 1022.69 1090.49 1050.81 1077.77 1071.1 1066.03 1088.71 1057.97 1105.83 1048.43 1120.99 1041.09 1134.68 1035.71 1151.31 1030.33 1167.44 1023 1193.61 1008.57 1207.79 1005.88 1225.64 999.04 1239.82 989.74 1250.83 984.36 1264.03 977.27 1279.19 971.16 1298.75 960.89 1315.63 951.11 1329.81 941.57 1342.28 933.26 1355.48 925.19 1354.5 936.19 1349.86 947.2 1348.15 961.38 1347.17 988.77 1346.43 1018.6 1344.48 1051.36 1342.03 1087.8 1337.14 1154.31 1332.5 1197.1 1327.12 1235 1325.65 1252.12 1321.74 1265.57 1318.31 1282.44 1314.65 1293.2 1316.11 1312.76 1317.09 1361.42 1317.09 1405.19 1316.11 1469.01 1315.14 1495.17 1313.42 1516.93 1310.25 1564.37 1306.33 1606.92 1303.89 1625.01 1301.69 1642.86 1299.98 1672.45 1299.24 1702.77 1298.51 1712.55 1289.46 1725.02 1276.75 1739.45 1251.8 1760.97 1227.6 1782.49 1202.17 1804.98 1176.98 1828.7 1155.95 1849.48 1131.01 1872.22 1107.54 1894.97 1090.42 1913.06 1072.33 1929.44 1054.23 1943.38 1029.53 1969.06 1010.46 1986.66 996.03 2003.78 978.92 2021.14 965.22 2034.1 953.98 2041.68 940.04 2048.53 926.1 2054.15 899.45 2056.35 884.29 2054.15 867.42 2047.06 848.01 2037.26 870 2040.53 897.94 2040.53 913.99 2038.16 923.5 2030.13 930.04 2017.05 942.82 2004.57 950.84 1992.39 957.68 1982.58 959.46 1958.5 963.62 1943.05 963.62 1911.25 963.62 1872.91 966.3 1849.43 964.81 1828.03 966.3 1801.87 966.3 1769.77 968.97 1744.21 968.97 1718.95 970.75 1679.12 970.75 1660.7 974.32 1634.54 974.32 1612.55 977.59 1588.47 977.59 1565.89 977.59 1520.71 977.59 1496.34 977.59 1467.51 977.59 1445.78 975.25 1426.71 975.25 1401.03 975.25 1373.75"/>
  
<!--partie4-->
  <polygon class="product-shape4 shape" points="936.66 1375.66 975.25 1373.75 975.25 1401.03 975.25 1426.71 977.59 1445.78 977.59 1467.51 949.95 1469.59 925.87 1471.37 904.18 1467.51 877.43 1459.19 857.52 1453.54 831.06 1444.62 802.83 1433.33 784.7 1424.41 760.33 1416.69 737.74 1410.15 717.83 1402.42 697.62 1396.48 681.27 1391.72 658.67 1383.82 623.26 1370.8 589.57 1358.93 552.81 1344 529.27 1335.01 501.32 1324.29 486.01 1317.97 476.79 1313.85 466.68 1308.8 455.39 1303.15 448.55 1298.69 444.01 1287.23 442.48 1261.96 440.66 1239.14 438.48 1212.05 469.42 1221.62 503.86 1232.78 557.44 1254.79 628.88 1280.94 673.85 1297.84 734.77 1318.25 775.6 1332.29 834.6 1350.47 863.3 1360.03 912.1 1373.75 936.66 1375.66"/>

<!--elastic1-->
  <polygon class="elastic1 shape" points="929.15 685.17 923.31 674.52 913.68 658.36 903.37 645.98 886.87 629.83 870.81 619.61 850.79 608.48 833.65 600.92 818.52 596.47 803.17 594.46 786.93 598.25 766.01 606.92 737.53 619.38 713.95 632.96 696.15 643.64 677.01 657.66 662.99 668.11 655.65 677.46 652.09 685.17 643.64 693.48 632.96 699.04 623.17 701.04 618.72 701.04 606.26 704.83 595.35 707.72 583.12 713.06 573.55 715.06 584.9 699.93 601.36 683.91 622.94 664.78 633.85 656.77 648.75 636.96 663.22 618.72 676.34 607.37 690.36 595.58 701.71 588.23 718.17 579.11 731.3 572.88 746.66 569.32 766.46 564.65 788.93 564.65 818.97 564.65 848.12 564.65 868.14 569.32 885.5 575.33 900.15 584.29 912.39 595.45 924.76 606.37 935.56 618.25 943.72 630.61 952.6 650.05 957.28 659.9 961.48 672.14 962.56 677.66 954.88 682.22 946.36 684.38 941.44 686.3 930.28 686.78 929.15 685.17"/>
  <polygon class="elastic1 shape" points="2416.29 689 2415.08 695.46 2415.08 703.01 2417.6 707.94 2422.75 710.89 2429.43 709.8 2433.59 704.87 2436.54 700.82 2430.52 694.25 2424.06 689.66 2420.01 687.79 2416.29 689"/>
  <polygon class="elastic1 shape" points="2420.34 678.93 2422.42 684.07 2427.46 689 2430.08 691.41 2435.01 691.41 2437.42 686.59 2443.66 682.76 2450.99 681.34 2457.78 678.93 2457.78 675.64 2452.09 672.25 2441.69 668.74 2434.13 668.09 2427.78 668.74 2424.72 671.81 2420.34 678.93"/>
  <polygon class="elastic1 shape" points="2441.08 658.41 2453.75 647.64 2466.89 634.39 2485.82 622.31 2499.53 616.26 2513.68 612.39 2530.98 609.61 2546.83 609 2577.55 612.75 2594 616.26 2610.34 622.77 2624.19 630.25 2641.92 641.88 2656.04 652.96 2671 665.71 2685.96 679.75 2708.77 707.25 2722.32 729.1 2730.08 741.93 2736.77 751.86 2745.8 772.99 2752.48 786.9 2758.08 805.32 2765.12 827 2771.45 849.76 2777.95 868.18 2786.44 904.3 2792.56 915.69 2808.59 932.79 2824.17 952.79 2838.82 972.33 2854.9 993.74 2864.66 1007.4 2870.3 1018.25 2870.3 1021.83 2876.31 1031.56 2883.62 1036.96 2892.27 1050.63 2901.75 1068.2 2909.28 1083.26 2915.13 1094.97 2918.76 1104.44 2922.66 1104.51 2926.09 1107.95 2930.1 1110.95 2934.54 1117.39 2939.83 1117.39 2945.17 1121.84 2949.31 1126.65 2952.51 1133.07 2953.58 1140.93 2951.44 1147.6 2946.37 1154.55 2939.96 1159.76 2933.69 1163.63 2928.08 1169.23 2921.27 1174.17 2919.74 1176.35 2920.09 1194.9 2920.09 1213.45 2921.07 1221.09 2921.23 1226.95 2919.77 1231.51 2913.75 1234.43 2905.45 1238.18 2900.57 1241.92 2893.9 1246.31 2884.63 1247.94 2877.31 1245.5 2876.33 1236.39 2880.4 1227.6 2883.49 1218.98 2886.09 1207.1 2888.53 1195.39 2886.21 1178.28 2881.34 1174.67 2877.82 1169.44 2876.2 1162.76 2875.17 1149.43 2876.88 1145 2876.88 1138.71 2876.88 1133.84 2877.65 1130.15 2893.71 1110.99 2888.1 1100.94 2874.48 1078.52 2864.91 1060.74 2856.31 1049.33 2848.77 1034.64 2839.69 1018.21 2828.68 1003.75 2819.31 988.47 2809.12 974 2798.99 962.84 2769.02 930.24 2762.45 922.36 2754.83 913.42 2742.34 900.54 2730.49 888.35 2755.22 877.7 2752.47 864.65 2747.32 852.29 2743.54 837 2738.39 818.97 2732.89 804.03 2727.22 791.32 2717.61 770.88 2708.16 753.36 2699.4 739.28 2690.47 726.92 2680.85 714.04 2670.21 701.16 2658.36 687.59 2644.62 675.22 2630.71 664.41 2619.37 657.36 2605.7 650.28 2593.83 644.26 2579.95 641.18 2565.46 638.4 2552.05 637.94 2536.94 637.48 2523.98 639.79 2509.8 642.57 2499.93 645.96 2490.37 651.36 2480.19 656.44 2492.16 658.79 2507.35 666.15 2521.36 673.27 2541.3 686.33 2560.05 701.05 2578.8 719.56 2597.79 733.81 2616.07 749.24 2639.81 768.46 2662.6 787.93 2680.17 804.78 2704.62 827.34 2682.76 842.37 2663.08 825.22 2643.4 808.08 2619.43 786.45 2598.97 768.91 2570.33 746.5 2554.74 732.08 2538.37 720 2521.03 705.19 2506.22 695.84 2494.53 689.61 2477.96 678.3 2459.45 671.09 2446.01 667 2436.54 664.47 2441.08 658.41"/>
  <polygon class="elastic1 shape" points="2718.64 838.46 2733.08 851.72 2748.7 866.75 2755.22 877.7 2730.49 888.35 2706.56 865.43 2693.59 852.61 2682.76 842.37 2704.62 827.34 2718.64 838.46"/>
  <polygon class="elastic1 shape" points="2893.71 1110.99 2877.65 1130.15 2861.86 1112.47 2846.53 1095.26 2833.25 1076.75 2822.04 1060.11 2810.07 1039.54 2801.09 1023.83 2786.88 992.42 2777.16 966.8 2770.43 937.44 2769.02 930.24 2798.99 962.84 2805.26 969.74 2810.44 984.19 2819.98 1001.77 2832.32 1025.14 2851.21 1056 2863.92 1072.45 2882.43 1095.26 2893.71 1110.99"/>
 
<!--elastic2-->
 <polygon class="elastic2 shape" points="2221.65 1628.97 2209.13 1618.79 2198.95 1612.42 2187.7 1607.33 2182.71 1604.91 2174.56 1602.76 2164.11 1599.38 2151.36 1596.31 2137.22 1595.23 2127.69 1595.23 2114.93 1596.3 2103.47 1598.21 2090.31 1601.6 2074.83 1607.97 2063.37 1613.49 2046.18 1624.31 2030.69 1637.25 2018.39 1648.28 2008.2 1661.01 1998.44 1674.8 1992.08 1688.81 1987.62 1701.54 1984.23 1714.69 1982.32 1729.12 1971.29 1738.76 1960.04 1751.82 1944.55 1770.07 1933.09 1786.41 1921.42 1803.59 1906.36 1824.81 1892.78 1844.75 1881.54 1860.88 1870.29 1877.43 1862.02 1889.73 1859.47 1894.83 1861.59 1900.55 1867.96 1903.74 1874.96 1909.04 1883.02 1912.65 1895.96 1893.98 1914.42 1865.97 1934.16 1838.81 1951.98 1817.38 1965.98 1800.2 1978.92 1785.56 1991.02 1773.68 1996.75 1768.37 2005.02 1774.1 2013.93 1779.62 2023.69 1784.07 2030.48 1785.77 2044.7 1785.98 2068.67 1785.98 2084.59 1784.71 2100.92 1781.31 2109.62 1780.25 2087.77 1759.67 2074.83 1761.37 2062.94 1764.34 2044.06 1762.64 2033.88 1762.22 2019.87 1756.91 2014.57 1753.94 2009.9 1710.87 2012.66 1701.54 2023.9 1679.05 2040.56 1660.38 2054.67 1647.86 2074.4 1634.49 2089.25 1627.06 2101.13 1623.46 2114.5 1620.49 2127.44 1618.58 2131.4 1616.29 2139.65 1616.29 2150.69 1616.29 2161.74 1618.47 2170.77 1621.74 2178.86 1625.63 2185.71 1630.77 2193.47 1636.15 2200.91 1642.37 2209.3 1648.19 2214.03 1652.25 2218.77 1652.79 2221.65 1652.25 2223.91 1648.73 2223.91 1639.4 2223.91 1630.74 2221.65 1628.97"/>
  <polygon class="elastic2 shape" points="2216.95 1737.27 2206.1 1737.27 2195 1737.27 2191.15 1737.51 2183.99 1738.76 2177.61 1738.76 2168.42 1740.63 2159.12 1742.18 2150.35 1745.28 2141.31 1745.28 2129.44 1738.76 2114.47 1730.31 2099.5 1722.05 2084.27 1715.33 2074.46 1710.69 2065.17 1709.4 2056.39 1708.11 2049.68 1704.49 2036.25 1702.94 2023.61 1702.94 2017.41 1707.59 2009.9 1710.87 2014.25 1750.99 2023.6 1745.51 2032.14 1739.77 2038.44 1736.97 2045.86 1735.01 2053.98 1735.15 2060 1738.76 2066.72 1741.87 2078.86 1752.88 2087.77 1759.67 2109.62 1780.25 2125.42 1795.23 2144.53 1813.35 2164.23 1829.9 2190.23 1850.98 2208.55 1863.98 2229.43 1877.57 2244.4 1885.25 2261.93 1892.74 2277.89 1895.69 2297.39 1895.69 2306.06 1893.13 2315.91 1885.84 2323.2 1877.96 2326.15 1870.48 2326.15 1854.52 2323.39 1842.11 2316.3 1835.61 2306.85 1833.84 2301.72 1836.79 2303.69 1849.79 2305.07 1860.83 2302.32 1866.93 2294.24 1870.08 2277.5 1871.07 2262.92 1864.77 2242.83 1854.72 2218.4 1838.96 2195.94 1821.63 2173.68 1804.49 2153.2 1785.77 2137.83 1773.17 2140.98 1772.77 2151.23 1776.52 2167.18 1784 2191.15 1788.53 2209.93 1792.47 2229.63 1792.08 2255.63 1792.27 2274.07 1789.12 2288.13 1785.18 2299.56 1779.67 2312.56 1772.58 2318.67 1765.48 2323.79 1758 2326.15 1747.95 2325.36 1737.12 2323.59 1729.83 2320.44 1725.1 2315.51 1720.97 2308.42 1721.16 2304.48 1724.31 2301.72 1728.65 2301.72 1735.74 2302.71 1742.63 2300.54 1749.33 2294.04 1753.94 2283.8 1760.17 2272.37 1764.89 2259.96 1767.06 2245.58 1768.83 2226.48 1769.03 2210.72 1768.05 2194.17 1764.89 2181.37 1761.35 2198.5 1759.57 2216.43 1760.36 2223.91 1759.97 2223.91 1747.56 2221.16 1741.06 2216.95 1737.27"/>
  <polygon class="elastic2 shape" points="1814.17 1930.62 1801.38 1937.56 1776.08 1951.44 1750.55 1962.86 1723.68 1977.19 1702.86 1990.4 1681.81 2006.08 1660.76 2022.42 1646.2 2034.52 1626.05 2054.67 1610.6 2070.57 1599.63 2082.66 1586.42 2096.54 1577.68 2094.08 1566.94 2091.39 1551.04 2092.96 1539.84 2097.89 1531.78 2103.04 1525.29 2108.64 1520.14 2114.23 1516.78 2121.18 1516.78 2133.94 1516.78 2145.81 1519.02 2151.63 1524.39 2156.56 1528.87 2159.91 1535.59 2161.26 1539.39 2163.94 1541.86 2168.65 1544.54 2171.11 1552.83 2171.11 1561.56 2171.11 1570.52 2167.3 1579.25 2164.39 1587.76 2157.23 1595.6 2149.17 1603.88 2140.66 1607.47 2133.72 1608.14 2121.62 1607.69 2116.47 1620.23 2105.28 1638.37 2091.39 1655.83 2077.51 1680.24 2058.48 1712.26 2036.53 1738.69 2019.51 1758.39 2006.75 1787.05 1989.51 1811.68 1974.28 1825.79 1965.32 1835.2 1959.73 1842.36 1954.13 1838.56 1948.08 1833.41 1941.81 1833.18 1932.18 1829.15 1928.15 1823.33 1928.15 1814.17 1930.62"/>
</svg>