<svg id="product-svg" viewBox="0 0 4288 2848" xmlns="http://www.w3.org/2000/svg" xmlns:xlink="http://www.w3.org/1999/xlink">
 <g id="Layer_1">
  <title>Layer 1</title>
  <!--partie1-->
    <path class="product-shape1 shape" style="vector-effect: non-scaling-stroke;" id="svg_2" d="m1003.95896,910.94895l-16.20386,0.78575l-15.81633,-0.5102l-18.87755,-1.02041l-16.83673,0.5102l-25,1.53061l-23.46939,2.04082l-29.59184,3.57143l-35.20408,3.06122l-19.89796,2.55102l-18.36735,2.04082l-26.02041,7.65306l-12.7551,5.10204l-8.16327,4.59184l-12.7551,7.14286l-14.79592,6.12245l-23.97959,5.61224l-18.36735,8.16327l-12.7551,5.61224l-11.22449,5.10204l-7.14286,7.65306l-4.59184,7.65306c0.38754,0.23466 -0.12267,6.35711 -0.12267,5.8469c0,-0.5102 2.04082,3.57143 1.65328,3.33677c0.38754,0.23466 -2.16348,5.3367 -2.55102,5.10204c0.38754,0.23466 -3.18389,3.80609 -3.57143,3.57143c0.38754,0.23466 4.46917,7.88772 4.08163,7.65306c0.38754,0.23466 7.53039,9.92854 7.14286,9.69388c0.38754,0.23466 9.06101,7.37752 8.67347,7.14286c0.38754,0.23466 11.10182,7.88772 10.71429,7.65306c0.38754,0.23466 10.08141,2.78568 9.69388,2.55102c0.38754,0.23466 7.53039,3.80609 7.14286,3.57143c0.38754,0.23466 7.02019,6.35711 6.63265,6.12245c0.38754,0.23466 10.08141,8.39792 9.69388,8.16327c0.38754,0.23466 12.12223,9.92854 11.73469,9.69388c0.38754,0.23466 8.5508,11.45915 8.16327,11.22449c0.38754,0.23466 8.0406,7.88772 7.65306,7.65306c0.38754,0.23466 16.20386,13.49996 15.81633,13.26531c0.38754,0.23466 14.67325,12.47956 14.28571,12.2449c0.38754,0.23466 20.28549,14.01017 19.89796,13.77551c0.38754,0.23466 13.65284,8.39792 13.26531,8.16327c0.38753,0.23466 9.57121,4.31629 9.18367,4.08163c0.38753,0.23466 8.5508,6.86731 8.16327,6.63265c0.38753,0.23466 12.12223,9.92854 11.73469,9.69388c0.38753,0.23466 11.61202,7.37751 11.22449,7.14286c0.38753,0.23466 14.16304,6.86731 13.77551,6.63265c0.38753,0.23466 15.18345,3.80609 14.79592,3.57143c0.38753,0.23466 10.59162,3.29588 10.20408,3.06122c0.38753,0.23466 8.5508,5.3367 8.16327,5.10204c0.38753,0.23466 11.10182,8.39792 10.71429,8.16327c0.38753,0.23466 9.061,5.8469 8.67347,5.61224c0.38753,0.23466 10.08141,1.76527 9.69388,1.53061c0.38753,0.23466 10.59161,2.27547 10.20408,2.04082c0.38753,0.23466 11.10182,3.29588 10.71429,3.06122c0.38753,0.23466 8.04059,5.3367 7.65306,5.10204c0.38753,0.23466 8.5508,3.80609 8.16327,3.57143c0.38753,0.23466 8.5508,1.76527 8.16327,1.53061c0.38753,0.23466 9.57121,0.23466 9.18367,0c0.38753,0.23466 11.61202,-0.27555 11.22449,-0.5102c0.38753,0.23466 9.061,-0.27555 8.67347,-0.5102c0.38753,0.23466 10.08141,0.23466 9.69388,0c0.38753,0.23466 12.12223,3.80609 11.73469,3.57143c0.38753,0.23466 12.63243,6.86731 12.2449,6.63265c0.38753,0.23466 13.65284,8.39792 13.26531,8.16327c0.38753,0.23466 21.8161,14.01017 21.42857,13.77551c0.38753,0.23466 8.04059,5.8469 13.26531,8.16327c0.38753,0.23466 19.77529,10.43874 19.38776,10.20408c0.38753,0.23466 19.77529,9.41833 19.38776,9.18367c0.38753,0.23466 17.22427,6.3571 16.83673,6.12245c0.38753,0.23466 16.71406,3.80608 16.32653,3.57143c0.38753,0.23466 15.18345,3.80608 14.79592,3.57143c0.38753,0.23466 15.18345,6.3571 14.79592,6.12245c0.38753,0.23466 17.22426,6.3571 16.83673,6.12245c0.38753,0.23466 16.20386,4.82649 15.81633,4.59184c0.38753,0.23466 17.22426,4.31629 16.83673,4.08163c0.38753,0.23466 18.75488,7.88772 18.36735,7.65306c0.38753,0.23466 10.59161,0.23466 10.20408,0c0.38753,0.23466 13.14263,0.74486 12.7551,0.5102c0.38753,0.23466 15.18345,0.74486 14.79592,0.5102c0.38753,0.23466 14.16304,-0.78575 13.77551,-1.02041c0.38753,0.23466 16.20385,0.74486 15.81633,0.5102c0.38753,0.23466 14.67324,-0.78575 14.28571,-1.02041c0.38753,0.23466 13.14263,-2.31636 12.7551,-2.55102c0.38753,0.23466 20.79569,-2.82657 20.40816,-3.06122c0.38753,0.23466 22.83651,0.23466 22.44898,0c0.38753,0.23466 21.30589,-2.31636 20.91837,-2.55102c0.38753,0.23466 13.14263,-2.82657 12.7551,-3.06122c0.38753,0.23466 13.14263,1.25506 12.7551,1.02041c0.38753,0.23466 9.5712,-1.29596 9.18367,-1.53061c0.38753,0.23466 4.97936,-2.31636 4.59184,-2.55102c0.38753,0.23466 10.0814,0.74486 9.69388,0.5102c0.38753,0.23466 19.26508,0.23466 18.87755,0c0.38753,0.23466 13.65283,-2.31636 13.26531,-2.55102c0.38753,0.23466 11.10181,-1.29596 10.71429,-1.53061c0.38753,0.23466 15.18344,0.23466 14.79592,0c0.38753,0.23466 11.61201,-3.33677 11.22449,-3.57143c0.38752,0.23466 9.5712,-0.27555 9.18367,-0.5102c0.38752,0.23466 8.55079,-3.84698 8.16327,-4.08163c0.38752,0.23466 11.61201,-2.82657 11.22449,-3.06122c0.38752,0.23466 10.0814,-1.29596 9.69388,-1.53061c0.38752,0.23466 15.18344,-0.78575 14.79592,-1.02041c0.38752,0.23466 10.59161,-0.27555 10.20408,-0.5102c0.38752,0.23466 12.12222,-1.80616 11.73469,-2.04082c0.38752,0.23466 -3.1839,-8.94902 -3.57143,-9.18367c0.38752,0.23466 -4.71452,-9.45922 -5.10204,-9.69388c0.38752,0.23466 -4.20431,-10.47963 -4.59184,-10.71429c0.38752,0.23466 -5.22472,-14.05106 -5.61224,-14.28571c0.38752,0.23466 -7.26554,-15.07147 -7.65306,-15.30612c0.38752,0.23466 -6.24513,-12.52045 -6.63265,-12.7551c0.38752,0.23466 -6.75533,-12.01024 -7.14286,-12.2449c0.38752,0.23466 -5.22472,-10.47963 -5.61224,-10.71429c0.38752,0.23466 -7.77574,-12.52044 -8.16327,-12.7551c0.38752,0.23466 -4.71452,-7.92861 -5.10204,-8.16327c0.38752,0.23466 -6.24513,-8.43881 -6.63265,-8.67347c0.38752,0.23466 -16.44921,-17.11228 -16.83673,-17.34694c0.38753,0.23466 -12.87778,0.23466 -13.26531,0c0.38753,0.23466 -13.38798,-0.27555 -13.77551,-0.5102c0.38753,0.23466 -12.36758,-1.29595 -12.7551,-1.53061c0.38753,0.23466 -11.34717,-1.29595 -11.73469,-1.53061c0.38753,0.23466 -10.32676,-0.27555 -10.71429,-0.5102c0.38753,0.23466 -15.939,0.74486 -16.32653,0.5102c0.38753,0.23466 -14.9186,1.76527 -15.30612,1.53061c0.38753,0.23466 -15.939,-1.80616 -16.32653,-2.04082c0.38753,0.23466 -12.87778,-1.29595 -13.26531,-1.53061c0.38753,0.23466 -14.9186,-1.80616 -15.30612,-2.04082c0.38753,0.23466 -15.4288,-6.39799 -15.81633,-6.63265c0.38753,0.23466 -14.9186,-6.9082 -15.30612,-7.14286c0.38753,0.23466 -18.49002,-8.43881 -18.87755,-8.67347c0.38753,0.23466 -11.34717,-9.96942 -11.73469,-10.20408c0.38753,0.23466 -12.36757,-10.47963 -12.7551,-10.71429c0.38753,0.23466 -18.49002,-15.07146 -18.87755,-15.30612c0.38753,0.23466 -13.38798,-12.01024 -13.77551,-12.2449c0.38753,0.23466 -16.44921,-14.05106 -16.83673,-14.28571c0.38753,0.23466 -13.38798,-10.47963 -13.77551,-10.71429c0.38753,0.23466 -13.38798,-8.94901 -13.77551,-9.18367c0.38753,0.23466 -16.44921,-8.43881 -16.83673,-8.67347c0.38753,0.23466 -17.46961,-11.50003 -17.85714,-11.73469c0.38753,0.23466 -14.91859,-8.94901 -15.30612,-9.18367c0.38753,0.23466 -17.97982,-11.50003 -18.36735,-11.73469c0.38753,0.23466 -25.12267,-15.07146 -25.5102,-15.30612c0.38753,0.23466 -17.46961,-10.98983 -17.46961,-10.98983c0,0 -15.81633,-10.20408 -16.20386,-10.43874c0.38753,0.23466 -19.00022,-8.94901 -19.38776,-9.18367c0.38753,0.23466 -11.34716,-5.88779 -11.73469,-6.12245c0.38753,0.23466 -10.83696,-5.37758 -11.22449,-5.61224c0.38753,0.23466 -10.83696,-6.39799 -11.22449,-6.63265c0.38753,0.23466 -7.26553,-6.9082 -7.65306,-7.14286c0.38753,0.23466 -8.79614,-6.39799 -8.79614,-6.39799z" opacity="NaN" fill="#fff"/>
  <path class="product-shape1 shape"  style="vector-effect: non-scaling-stroke;" id="svg_3" d="m1052.42835,910.43874l7.77573,5.37758l9.69388,6.63265l12.2449,2.04082l11.73469,0.5102c0.38753,0.23466 12.63243,-2.82656 12.63243,-2.82656c0,0 13.26531,-5.61224 12.87778,-5.84691c0.38753,0.23466 11.10182,-2.82656 11.10182,-2.82656c0,0 8.16327,-6.12245 7.77574,-6.35711c0.38753,0.23466 2.42835,-4.35718 2.04082,-4.59184c0.38753,0.23466 -13.89818,2.78568 -14.28571,2.55102c0.38753,0.23466 -15.939,1.76527 -16.32653,1.53061c0.38753,0.23466 -17.97982,0.74487 -18.49002,0.74487c-0.5102,0 -18.87755,0.5102 -19.26508,0.27554c0.38753,0.23466 -9.81655,0.23466 -10.20408,0c0.38753,0.23466 -5.22471,0.74487 -9.30635,2.78568z" opacity="NaN" fill="#fff"/>
  <path class="product-shape1 shape"  style="vector-effect: non-scaling-stroke;" id="svg_4" d="m1312.12222,1041.56119l8.79615,-5.8469l9.18367,-4.59184l8.67347,-3.06122l9.69388,-0.5102l10.20408,7.14286l11.73469,7.65306l13.26531,9.18367l16.32653,11.73469l19.89796,11.22449c0.38753,0.23466 10.59161,9.92854 9.5712,8.90813c-1.02041,-1.02041 -12.7551,3.06122 -13.14263,2.82657c0.38753,0.23466 -14.9186,-0.27555 -15.30612,-0.5102c0.38753,0.23466 -10.32676,0.74486 -10.71429,0.5102c0.38753,0.23466 -13.89819,-1.29595 -14.28571,-1.53061c0.38753,0.23466 -14.40839,-3.33677 -14.79592,-3.57143c0.38753,0.23466 -12.87778,-3.84697 -13.26531,-4.08163c0.38753,0.23466 -6.24513,-1.80616 -6.63265,-2.04082c0.38753,0.23466 -6.75533,1.76527 -7.14286,1.53061c0.38753,0.23466 -7.77574,-2.31636 -8.16327,-2.55102c0.38753,0.23466 -9.30635,-8.43881 -9.69388,-8.67347c0.38753,0.23466 -5.22472,-9.45922 -5.61224,-9.69388c0.38753,0.23466 -1.14308,-8.43881 -1.53061,-8.67347c0.38753,0.23466 -0.63288,-3.33677 2.93855,-5.37759z" opacity="NaN" fill="#fff"/>
  <path class="product-shape1 shape" id="svg_5" d="m1563.14263,1050.23466" opacity="NaN" fill="#fff"/>
  <path class="product-shape1 shape"  style="vector-effect: non-scaling-stroke;" id="svg_6" d="m1531.50997,1025.74486l9.81656,1.80616l10.71429,3.06122l8.16327,4.59184l4.59184,7.14286l0,7.14286l-2.55102,3.06122l-8.16327,-6.12245l-9.18367,-7.14286l-7.14286,-5.10204l-6.24513,-8.43881z" opacity="NaN" fill="#fff"/>
  <path class="product-shape1 shape"  style="vector-effect: non-scaling-stroke;" id="svg_7" d="m1287.63243,891.05099l-15.18345,-5.84691l-12.2449,-4.08163c0.38753,0.23466 -12.36757,0.23466 -12.36757,-0.27554c0,-0.5102 -6.63265,-1.53061 -7.02018,-1.76527c0.38753,0.23466 4.97937,-6.9082 4.59184,-7.14286c0.38753,0.23466 9.5712,-2.31636 9.18367,-2.55102c0.38753,0.23466 11.61202,-1.29595 11.22449,-1.53061c0.38753,0.23466 12.63243,-1.80615 12.2449,-2.04082c0.38753,0.23466 13.14263,-0.27554 12.7551,-0.5102c0.38753,0.23466 12.12222,-0.78575 11.73469,-1.02041c0.38753,0.23466 20.28549,-2.31636 19.89796,-2.55102c0.38753,0.23466 9.5712,-1.80615 9.18367,-2.04082c0.38753,0.23466 14.16304,-5.37758 13.77551,-5.61224c0.38753,0.23466 10.0814,-3.84697 9.69388,-4.08163c0.38753,0.23466 9.061,-0.78575 8.67347,-1.02041c0.38753,0.23466 12.63242,1.25507 12.2449,1.02041c0.38753,0.23466 14.67324,3.29589 14.28571,3.06122c0.38753,0.23466 13.65283,4.8265 13.26531,4.59184c0.38753,0.23466 15.18344,7.37752 14.79592,7.14286c0.38753,0.23466 12.12222,5.84691 11.73469,5.61224c0.38753,0.23466 14.67324,5.3367 14.28571,5.10204c0.38753,0.23466 12.63242,7.37752 12.2449,7.14286c0.38753,0.23466 12.63242,3.29589 12.2449,3.06122c0.38753,0.23466 12.63242,3.80609 12.2449,3.57143c0.38753,0.23466 10.59161,5.84691 10.20408,5.61224c0.38753,0.23466 9.06099,2.78568 8.67347,2.55102c0.38752,0.23466 8.04059,4.31629 7.65306,4.08163c0.38752,0.23466 8.04059,4.31629 7.65306,4.08163c0.38752,0.23466 13.14263,1.25507 12.7551,1.02041c0.38752,0.23466 13.14263,2.78568 12.7551,2.55102c0.38752,0.23466 15.18344,4.31629 14.79592,4.08163c0.38752,0.23466 14.67324,3.80609 14.28571,3.57143c0.38752,0.23466 9.5712,4.31629 9.18367,4.08163c0.38752,0.23466 8.04058,2.78568 7.65306,2.55102c0.38752,0.23466 11.10181,0.74487 10.71429,0.5102c0.38752,0.23466 16.71405,4.31629 16.32653,4.08163c0.38752,0.23466 14.16303,4.31629 13.77551,4.08163c0.38752,0.23466 13.65283,4.31629 13.26531,4.08163c0.38752,0.23466 18.24467,8.90813 17.85714,8.67347c0.38752,0.23466 20.79569,10.94895 20.40816,10.71429c0.38752,0.23466 19.26507,9.92854 18.87755,9.69388c0.38752,0.23466 14.16303,6.86731 13.77551,6.63265c0.38752,0.23466 18.75487,7.88772 18.36735,7.65306c0.38752,0.23466 14.67324,7.37752 14.28571,7.14286c0.38752,0.23466 16.20385,10.94895 15.81633,10.71429c0.38752,0.23466 21.81609,15.03058 21.42857,14.79592c0.38752,0.23466 17.22426,14.52037 16.83673,14.28571c0.38752,0.23466 16.71405,14.01017 16.32653,13.77551c0.38752,0.23466 19.26507,17.07139 18.87755,16.83673c0.38752,0.23466 21.30589,17.5816 20.91837,17.34694c0.38752,0.23466 17.22425,15.03058 16.83673,14.79592c0.38752,0.23466 15.69364,17.5816 15.30612,17.34694c0.38752,0.23466 10.0814,15.54078 9.69388,15.30612c0.38752,0.23466 10.5916,21.66323 10.20408,21.42857c0.38752,0.23466 10.5916,20.13262 10.20408,19.89796c0.38752,0.23466 3.95895,14.52037 3.57143,14.28571c0.38752,0.23466 4.97936,20.64282 4.46915,20.64282c-0.5102,0 2.55102,19.38775 2.1635,19.1531c0.38752,0.23466 -0.63289,9.92853 -1.02041,9.69388c0.38752,0.23466 -4.71452,6.86731 -5.10204,6.63265c0.38752,0.23466 -8.79615,4.82649 -8.79615,4.82649c0,0 -14.79592,3.06122 -15.18344,2.82657c0.38752,0.23466 -18.49003,2.78568 -18.87755,2.55102c0.38752,0.23466 -13.38799,3.29588 -13.77551,3.06122c0.38752,0.23466 -15.93901,1.25506 -16.32653,1.02041c0.38752,0.23466 -9.81656,-0.27555 -10.20408,-0.5102c0.38752,0.23466 -7.26554,-2.31636 -7.65306,-2.55102c0.38752,0.23466 -10.83697,5.8469 -11.22449,5.61224c0.38752,0.23466 -11.85738,7.37751 -12.2449,7.14286c0.38752,0.23466 -7.26554,5.3367 -7.65306,5.10204c0.38752,0.23466 -12.36758,4.31629 -12.7551,4.08163c0.38752,0.23466 -10.32676,2.78568 -10.32676,2.78568c0,0 -15.30612,-1.02041 -15.69364,-1.25506c0.38752,0.23466 -11.34717,-0.27555 -11.73469,-0.5102c0.38752,0.23466 -10.83697,0.23466 -11.22449,0c0.38752,0.23466 -9.81656,6.86731 -10.20408,6.63265c0.38752,0.23466 -4.71452,-10.98983 -5.10204,-11.22449c0.38752,0.23466 -5.73493,-16.09187 -6.12245,-16.32653c0.38752,0.23466 -5.73493,-14.56126 -6.12245,-14.79592c0.38752,0.23466 -6.24513,-13.54085 -6.63265,-13.77551c0.38752,0.23466 -6.24513,-13.03065 -6.63265,-13.26531c0.38752,0.23466 -8.79615,-15.58167 -9.18367,-15.81633c0.38752,0.23466 -8.28595,-14.05106 -8.67347,-14.28571c0.38752,0.23466 -8.79615,-15.07146 -9.18367,-15.30612c0.38752,0.23466 -8.28595,-12.52044 -8.28595,-12.52044c0,0 -11.22449,-13.26531 -11.61201,-13.49996c0.38752,0.23466 -7.77574,-10.98983 -8.16327,-11.22449c0.38752,0.23466 -5.22472,-4.86738 -5.61224,-5.10204c0.38752,0.23466 4.46916,-4.35718 4.08163,-4.59184c0.38752,0.23466 11.10181,-1.29595 10.71429,-1.53061c0.38752,0.23466 8.04058,-3.33677 7.65306,-3.57143c0.38752,0.23466 5.99977,-6.39799 5.61224,-6.63265c0.38752,0.23466 5.48956,-7.4184 5.10204,-7.65306c0.38752,0.23466 1.91813,-7.4184 1.53061,-7.65306c0.38752,0.23466 -3.18391,-10.98983 -3.57143,-11.22449c0.38752,0.23466 -7.77574,-7.92861 -8.16327,-8.16327c0.38752,0.23466 -12.87778,-12.52044 -13.26531,-12.7551c0.38752,0.23466 -15.93901,-12.01024 -16.32653,-12.2449c0.38752,0.23466 -19.51044,-14.56126 -19.89796,-14.79592c0.38752,0.23466 -16.44921,-9.96942 -16.83673,-10.20408c0.38752,0.23466 -15.4288,-12.52044 -15.81633,-12.7551c0.38752,0.23466 -16.95941,-10.47963 -17.34694,-10.71429c0.38752,0.23466 -16.44921,-9.96942 -16.83673,-10.20408c0.38752,0.23466 -15.4288,-9.96942 -15.81633,-10.20408c0.38752,0.23466 -12.87778,-9.45922 -13.26531,-9.69388c0.38752,0.23466 -14.9186,-10.98983 -15.30612,-11.22449c0.38752,0.23466 -16.44921,-10.98983 -16.83673,-11.22449c0.38753,0.23466 -19.00023,-8.94901 -19.38776,-9.18367c0.38753,0.23466 -16.44921,-7.4184 -16.83673,-7.65306c0.38753,0.23466 -16.95941,-8.94901 -17.34694,-9.18367c0.38753,0.23466 -17.46962,-9.45922 -17.85714,-9.69388c0.38753,0.23466 -19.00023,-9.45922 -19.38776,-9.69388c0.38753,0.23466 -20.02064,-7.9286 -20.40816,-8.16327c0.38753,0.23466 -15.939,-3.84697 -16.32653,-4.08163c0.38753,0.23466 -16.95941,-2.31636 -17.34694,-2.55102c0.38753,0.23466 -22.06145,0.23466 -22.44898,0c0.38753,0.23466 -16.44921,5.3367 -16.83673,5.10204c0.38753,0.23466 -4.20431,3.80609 -9.30635,5.84691z" opacity="NaN" fill="#fff"/>
  <!--partie2-->
  <path class="product-shape2 shape"  id="svg_8" d="m2878.44873,1553.80608l-17.22424,-10.94894l-20.91837,-8.67347l-21.42857,-7.65306l-25,-10.71429l-21.93878,-8.16327l-25,-12.2449l-28.06122,-11.22449l-29.08163,-14.79592l-19.38776,-10.71429l-17.85714,-11.22449l-11.22449,-14.28571l-6.12245,-7.14286l-5.10204,-12.2449l3.06122,-3.57143l13.77551,-2.04082l10.71429,-3.06122l16.83673,-0.5102l13.26531,-5.10204l7.65306,-0.5102l15.81633,-1.02041l15.30612,-1.53061l12.7551,-2.04082l13.26531,-4.08163l11.22449,-3.57143l10.71429,0l12.2449,-0.5102l16.83673,-1.02041l14.28571,0l10.71429,0l11.22449,-1.53061l9.18367,-4.59184l12.2449,-7.14286l14.79592,-6.63265l18.87755,-7.14286l16.32653,-6.12245l14.79592,-5.61224l17.34694,-5.61224l14.79592,-4.59184l16.83673,-4.08163l15.30612,-3.06122l18.87755,-1.53061l23.46939,-0.5102l23.97959,-1.02041l25.5102,-0.5102l20.40816,-0.5102l13.77551,-1.02041l14.28571,-4.08163l11.22449,-3.06122l15.81633,2.04082l21.42857,6.63265l22.95918,8.16327l16.83673,6.63265l22.44898,7.65306l14.79592,5.61224l19.89796,3.06122l15.30612,3.57143l28.06122,9.18367l24.4898,8.16327l25,8.16327l21.42857,6.12245l21.42857,7.65306l16.32653,5.10204l17.85714,5.10204l15.30612,4.59184l14.28571,3.57143l11.73469,4.08163l-4.59184,9.18367l-6.63265,10.20408l-9.69388,12.7551l-10.71429,12.7551l-11.73469,13.26531l-12.2449,11.73469l-12.2449,12.2449l-14.28571,11.22449l-17.34694,11.22449l-12.7551,8.67347l-5.61224,3.06122l-12.2449,-2.55102l-12.7551,-2.04082l-15.81633,1.02041l-10.71429,5.10204c0.3875,0.23465 -13.89821,8.90812 -13.89821,8.90812c0,0 -11.22449,7.14286 -11.61199,6.9082c0.3875,0.23465 -5.73495,3.80608 -6.12245,3.57143c0.3875,0.23465 -1.14311,6.86731 -1.53061,6.63265c0.3875,0.23465 1.40791,8.90812 1.02041,8.67347c0.3875,0.23465 1.91811,7.88771 1.53061,7.65306c0.3875,0.23465 -11.8574,2.27547 -12.2449,2.04082c0.3875,0.23465 -17.46964,2.78567 -17.85714,2.55102c0.3875,0.23465 -20.02066,1.76526 -20.40816,1.53061c0.3875,0.23465 -16.95944,-0.27555 -17.34694,-0.5102c0.3875,0.23465 -20.02066,-1.80616 -20.40816,-2.04082c0.3875,0.23465 -18.49005,-1.80616 -18.87755,-2.04082c0.3875,0.23465 -15.93903,-1.29596 -16.32653,-1.53061c0.3875,0.23465 -21.04107,-1.29596 -21.42857,-1.53061c0.3875,0.23465 -18.49005,0.74486 -18.87755,0.5102c0.3875,0.23465 -15.93903,3.29588 -16.32653,3.06122c0.3875,0.23465 -14.91862,4.31628 -15.30612,4.08163c0.3875,0.23465 -11.34719,5.33669 -11.73469,5.10204c0.3875,0.23465 -16.44923,8.39792 -16.83673,8.16327c0.3875,0.23465 -11.34719,7.37751 -11.73469,7.14286c0.3875,0.23465 -16.44923,10.94894 -16.83673,10.71429c0.3875,0.23465 -6.24515,-3.33678 -6.63265,-3.57143c0.3875,0.23465 -13.89821,-4.86739 -14.28571,-5.10204c0.3875,0.23465 -19.00025,-4.86739 -19.38776,-5.10204c0.3875,0.23465 -17.97984,-6.398 -18.36735,-6.63265c0.3875,0.23465 -17.97984,-5.37759 -18.36735,-5.61224c0.3875,0.23465 -11.85739,-2.82657 -12.2449,-3.06122c0.3875,0.23465 -6.75535,-4.35718 -7.14286,-4.59184c0.3875,0.23465 -8.79617,-6.90821 -9.18367,-7.14286c0.3875,0.23465 -11.34719,-4.86739 -11.73469,-5.10204c0.38751,0.23465 -13.388,-6.90821 -13.77551,-7.14286c0.38751,0.23465 -12.8778,-6.90821 -13.26531,-7.14286c0.38751,0.23465 -4.62415,-1.73309 -11.85739,-5.37759z" opacity="NaN" fill="#fff"/>
  <path class="product-shape2 shape" id="svg_9" d="m3571.94402,1472.97153l0.68764,-6.98589l-4.66662,-4.66662l-5.33328,-3.3333l-7.33326,-1.33332l-7.33326,3.3333l-6.6666,4.66662l-5.99994,6.6666l-3.3333,5.33328l-1.33332,7.33326l2.66664,5.33328l5.99994,1.33332l8.66658,0l10.66656,-2.66664l5.99994,-4.66662l7.31228,-10.34728z" opacity="NaN" fill="#fff"/>
  <path class="product-shape2 shape" id="svg_11" d="m3192.61441,1668.30295l8.68757,-8.98587l9.9999,-5.33328l13.3332,-4.66662l15.99984,-3.99996l13.99986,-2.66664l11.99988,-1.33332l4.66662,3.3333l-9.33324,7.33326l-10.66656,9.33324l-10.66656,9.33324l-10.66656,9.9999l-4.66662,3.99996l-8.66658,-3.3333l-11.33322,-4.66662l-6.6666,-3.99996l-6.02093,-4.34734z" opacity="NaN" fill="#fff"/>
  <path class="product-shape2 shape"  style="vector-effect: non-scaling-stroke;" id="svg_12" d="m3395.94575,1720.9691l10.02089,-10.98585l8.66658,-9.9999l9.33324,-13.3332l18.66648,7.99992l14.66652,4.66662l10.66656,-2.66664l10.66656,-5.33328l14.66652,-6.6666l11.33322,-7.33326l2.66664,-10.66656l-0.66666,-16.6665l-1.99998,-10.66656l0.66666,-9.33324l0,-13.99986l16.6665,-10.66656l18.66648,-13.3332l23.3331,-17.33316l15.99984,-13.3332l15.33318,-14.66652l16.6665,-17.33316l11.33322,-12.66654l10.66656,-12.66654l12.66654,11.99988l5.99994,6.6666l1.33332,11.99988l5.33328,8.66658l15.99984,13.99986l21.33312,13.99986c0.64568,0.31929 28.6454,16.31913 28.6454,16.31913c0,0 29.33305,14.66652 28.68737,14.34724c0.64568,0.31929 31.31204,10.98585 30.66637,10.66656c0.64568,0.31929 32.64536,7.65255 31.99969,7.33326c0.64568,0.31929 32.64536,7.65255 31.99969,7.33326c0.64568,0.31929 29.97872,6.98589 29.33305,6.6666c0.64568,0.31929 27.31208,6.98589 26.66641,6.6666c0.64568,0.31929 19.97882,2.98593 19.33314,2.66664c0.64568,0.31929 -6.68758,6.31923 -7.33326,5.99994c0.64568,0.31929 -8.68757,6.98589 -9.33324,6.6666c0.64568,0.31929 -11.35421,6.31923 -11.99988,5.99994c0.64568,0.31929 -18.02081,6.98589 -18.66648,6.6666c0.64568,0.31929 -20.02079,5.65257 -20.66646,5.33328c0.64568,0.31929 -18.02081,4.98591 -18.66648,4.66662c0.64568,0.31929 -13.35419,5.65257 -13.99986,5.33328c0.64568,0.31929 -15.35417,6.31923 -15.99984,5.99994c0.64568,0.31929 -21.35411,4.31925 -21.99978,3.99996c0.64568,0.31929 -16.02083,5.65257 -16.6665,5.33328c0.64568,0.31929 -16.02083,5.65257 -16.6665,5.33328c0.64568,0.31929 -22.68743,4.98591 -23.3331,4.66662c0.64568,0.31929 -24.02075,4.98591 -24.66643,4.66662c0.64568,0.31929 -31.35401,7.65255 -31.99969,7.33326c0.64568,0.31929 -27.35405,5.65257 -27.99973,5.33328c0.64568,0.31929 -23.35409,2.98593 -23.99976,2.66664c0.64568,0.31929 -27.35405,2.31927 -27.99973,1.99998c0.64568,0.31929 -38.02061,0.31929 -38.66629,0c0.64568,0.31929 -36.02063,-0.34737 -36.66631,-0.66666c0.64568,0.31929 -42.68723,-2.34735 -43.33291,-2.66664c0.64568,0.31929 -32.02067,-2.34735 -32.66635,-2.66664c0.64568,0.31929 -28.68737,-1.68069 -29.33305,-1.99998c0.64568,0.31929 -6.02093,-1.68069 -15.35417,-2.34735z" opacity="NaN" fill="#fff"/>
  <path class="product-shape2 shape"  style="vector-effect: non-scaling-stroke;" id="svg_13" d="m3897.27417,1554.97072l12.02087,3.68068l13.3332,5.33328l11.33322,3.3333l9.33324,5.33328l5.99994,9.33324l2.66664,10.66656l-1.99998,8.66658l-5.33328,11.33322l-3.99996,8.66658l-3.3333,8.66658l-5.33328,-7.33326l-4.66662,-12.66654l-5.33328,-9.9999l-5.33328,-7.33326l-8.66658,-7.99992l-6.6666,-8.66658l-3.99996,-8.66658l-2.66664,-5.99994l2.64566,-6.34732z" opacity="NaN" fill="#fff"/>
  <path class="product-shape2 shape"  style="vector-effect: non-scaling-stroke;" id="svg_14" d="m3601.94373,1406.97217l6.68759,-8.98587l6.6666,-9.9999c0.64568,0.31929 3.31232,-8.3473 3.31232,-8.3473c0,0 2.66664,-11.99988 2.02096,-12.31917c0.64568,0.31928 -5.35427,-3.68068 -5.99994,-3.99996c0.64568,0.31928 -7.35425,0.31928 -7.99992,0c0.64568,0.31928 -6.68759,2.98593 -7.33326,2.66664c0.64568,0.31928 -3.35428,6.31923 -3.99996,5.99994c0.64568,0.31928 -3.35429,6.31923 -3.99996,5.99994c0.64568,0.31929 -3.35429,6.98589 -3.99996,6.6666c0.64568,0.31929 -2.02096,24.98571 14.64554,22.31907z" opacity="NaN" fill="#fff"/>
  
  <!--partie3-->
  <path class="product-shape3 shape"  id="svg_15" d="m3489.94483,1422.72202l-18.8955,-5.98589l-13.0832,-3.41664l-40.66627,-11.99988l-27.99973,-9.74991l-19.91642,-5.58326l-53.41619,-17.74984l-27.99973,-8.91658l-13.3332,-2.8333l-19.33315,-3.41664l-24.49976,-8.58325l-14.83318,-5.16662l-23.24976,-8.99991l-25.24977,-8.49991l-9.08321,-2.8333l-16.24986,-2.08332l-25.12487,6.91663l-15.12487,1.16663l-36.58285,0.83332l-38.66629,1.49998l-32.66635,1.16666l-29.74971,5.99994l-31.58302,9.58324l-57.74943,21.74979l-14.41653,6.4166l-19.16646,11.08322l-11.41652,1.74998l-26.74987,0.16667l-26.49986,1.41667l-13.33301,-0.00002l-23.0831,7.58326l-20.66647,3.16664l-32.66634,2.41665l-12.24988,4.66662l-16.99981,0.66666l-10.74992,2.99996l-14.0832,2.16666l-2.8333,3.66662l5.5833,12.66656l17.08316,20.83312l19.41646,12.24987l43.49957,22.91644l30.24975,12.2499l26.08301,12.66651l23.41646,8.6666l20.2498,9.08324l21.58313,7.58326l23.74976,9.7499l14.58319,9.33325l-15.49985,-1.33332l-18.66648,-1.33332l-13.3332,-5.33329l-16.66651,-5.99994l-11.33322,-5.33328l-19.9998,-4.66662l-15.33319,-3.99996l-16.6665,-3.99996c0.64567,0.31929 -18.02081,-2.34736 -18.02081,-2.34736c0,0 -27.99973,-5.33328 -28.6454,-5.65256c0.64567,0.31928 -6.68759,-5.014 -7.33326,-5.33328c0.64567,0.31928 -12.68753,-7.01398 -13.3332,-7.33326c0.64567,0.31928 -9.35423,-4.34734 -9.99991,-4.66663c0.64568,0.31929 -15.35417,-5.01399 -15.99984,-5.33328c0.64567,0.31929 -12.02087,-5.68065 -12.66654,-5.99994c0.64567,0.31929 -12.02087,-7.68063 -12.66654,-7.99992c0.64567,0.31929 -11.35421,-3.68067 -11.99989,-3.99996c0.64568,0.31929 -15.35417,-3.68068 -15.99984,-3.99996c0.64567,0.31928 -9.35423,-11.01394 -9.9999,-11.33322c0.64567,0.31928 -7.35425,-16.34722 -7.99992,-16.66651c0.64567,0.31929 -2.68763,-15.68055 -3.3333,-15.99984c0.64567,0.31929 -1.35431,-23.68048 -1.99998,-23.99976c0.64567,0.31928 0.64567,-17.68054 0,-17.99983c0.64567,0.31929 3.31231,-11.6806 2.66664,-11.99988c0.64567,0.31928 3.97897,-18.3472 3.3333,-18.66648c0.64567,0.31928 1.97899,-19.01386 1.33332,-19.33315c0.64567,0.31929 -0.02099,-9.01396 -0.66666,-9.33324c0.64567,0.31928 -0.02099,-15.68056 -0.66666,-15.99984c0.64567,0.31928 5.31229,-15.0139 4.66662,-15.33319c0.64567,0.31929 5.97895,-11.68059 5.33328,-11.99988c0.64567,0.31929 18.6455,-12.34726 17.99982,-12.66654c0.64568,0.31928 23.97878,-15.0139 23.33311,-15.33318c0.64567,0.31928 19.31215,-11.01394 18.66648,-11.33323c0.64567,0.31929 41.31194,-14.34724 40.66627,-14.66652c0.64567,0.31928 51.31184,-17.68054 50.66617,-17.99982c0.64567,0.31928 53.31182,-17.01388 52.66615,-17.33317c0.64567,0.31929 42.64526,-11.01394 41.99959,-11.33322c0.64567,0.31928 38.6453,-8.3473 37.99963,-8.66658c0.64567,0.31928 50.64518,-9.68062 49.99951,-9.9999c0.64567,0.31928 45.97856,-5.68066 45.33289,-5.99994c0.64567,0.31928 43.31192,-2.34736 42.66625,-2.66665c0.64567,0.31929 44.64524,0.31929 43.99956,0c0.64568,0.31929 67.31169,-0.34737 66.66602,-0.66666c0.64567,0.31929 54.64514,3.65259 54.64514,3.65259c0,0 51.33283,4.66662 50.68716,4.34734c0.64567,0.31928 57.97845,8.98586 57.33277,8.66658c0.64568,0.31928 61.97841,11.6525 61.33273,11.33322c0.64568,0.31928 49.97853,13.65249 49.33285,13.3332c0.64568,0.31929 28.6454,9.65253 53.99947,19.33315c0.64568,0.31928 30.64539,12.31916 29.99971,11.99988c0.64568,0.31928 21.31214,6.98589 20.66646,6.6666c0.64568,0.31929 19.97882,6.31923 19.33315,5.99994c0.64567,0.31929 20.64548,5.65257 19.9998,5.33328c0.64568,0.31929 21.31214,6.31923 20.66647,5.99994c0.64567,0.31929 -2.02097,12.98583 -2.66664,12.66655c0.64567,0.31928 -6.68759,22.98573 -7.33327,22.66644c0.64568,0.31929 -5.35426,18.31911 -5.99994,17.99983c0.64568,0.31928 -10.02088,27.65235 -10.66656,27.33306c0.64568,0.31929 -8.68756,24.31905 -9.33324,23.99977c0.64568,0.31928 -10.02089,20.31908 -10.66656,19.9998c0.64567,0.31928 -8.68757,18.98577 -9.33324,18.66648c0.64567,0.31929 -10.02089,18.98577 -10.66657,18.66649c0.64568,0.31928 -3.35428,8.73586 -8.0209,14.06915z" opacity="NaN" fill="#fff"/>
  <path class="product-shape3 shape"  style="vector-effect: non-scaling-stroke;" id="svg_16" d="m3520.99935,1022.87456l2.50017,-7.37469l4.75,-8.25l5,-7l6.75,-7.5l5.75,-5l5.5,-4.75l5.5,-4l2.75,-1.5l2.25,4.5l3.25,6.5l1.5,3.25c0.24983,0.12469 -5.00017,5.37469 -5.00017,5.12469c0,-0.25 -8.25,4.75 -8.49983,4.6253c0.24983,0.1247 -4.25017,3.62469 -4.5,3.5c0.24983,0.1247 -5.50017,4.12469 -5.75,4c0.24983,0.1247 -6.00017,4.37469 -6.25,4.25c0.24983,0.1247 -5.50017,3.62469 -5.75,3.5c0.24983,0.1247 -5.00017,4.37469 -5.25,4.25c0.24983,0.1247 -2.57284,2.01319 -4.50017,1.8747z" opacity="NaN" fill="#fff"/>
  <path class="product-shape3 shape"  style="vector-effect: non-scaling-stroke;" id="svg_17" d="m3488.80999,1047.05679l-15.58138,-1.63848l-29.4977,-9.49926l-13.99891,-4.99961l-14.49887,-4.99961l-8.49934,-5.49957l-7.49941,-1.99984l-8.9993,-0.49996l-30.99758,-10.99914l-48.49621,-12.99898l-12.99898,-3.49973c0.08259,0.13859 -24.91546,-3.8611 -24.91546,-3.8611c0,0 -32.49746,-5.99953 -32.58005,-6.13812c0.08258,0.13859 -35.41464,-6.3609 -35.49723,-6.49949c0.08258,0.13859 -18.91593,-2.86117 -18.91593,-2.86117c0,0 -16.99867,0 -17.08126,-0.13859c0.08258,0.13859 -24.4155,-1.36129 -24.49809,-1.49988c0.08258,0.13859 -27.91523,-2.86117 -27.99781,-2.99977c0.08258,0.13859 -41.91414,-2.36121 -41.99672,-2.4998c0.08258,0.13859 -27.91523,-1.36129 -27.99781,-1.49988c0.08258,0.13859 -34.41472,0.63855 -34.4973,0.49996c0.08258,0.13859 -26.41535,1.13851 -26.49793,0.99992c0.08258,0.13859 -32.91484,2.6384 -32.99742,2.4998c0.08258,0.13859 -24.41551,3.13836 -24.49809,2.99977c0.08258,0.13859 -17.41606,4.13828 -17.41606,4.13828c0,0 -13.535,3.50786 -21.08094,4.36106c0.08258,0.13859 -22.91563,4.63824 -22.9982,4.49965c0.08258,0.13859 -23.41559,6.13812 -23.49816,5.99953c0.08258,0.13859 -27.91524,8.13797 -27.99781,7.99937c0.08258,0.13859 -24.91547,6.63808 -24.99805,6.49949c0.08257,0.13859 -29.41512,11.13773 -29.4977,10.99914c0.08257,0.13859 -23.91555,8.63793 -23.99812,8.49934c0.08257,0.13859 -24.41551,11.63769 -24.49809,11.4991c0.08257,0.13859 -19.91586,9.13789 -19.99844,8.9993c0.08257,0.13859 -22.41567,11.13773 -22.49824,10.99914c0.08257,0.13859 -18.91594,12.13766 -18.99852,11.99906c0.08257,0.13859 -14.91626,9.63785 -14.99883,9.49926c0.08257,0.13859 -11.41653,10.63777 -11.4991,10.49918c0.08257,0.13859 -8.41676,10.63777 -8.49934,10.49918c0.08257,0.13859 -3.91712,12.13766 -3.99969,11.99906c0.08257,0.13859 1.08249,15.13742 0.99992,14.99883c0.08257,0.13859 -0.91735,10.13781 -0.99992,9.99922c0.08257,0.1386 -4.41708,10.63777 -4.49965,10.49918c0.08257,0.1386 -3.41716,5.63817 -3.49973,5.49957c0.08257,0.1386 -0.41739,-14.36027 -0.49996,-14.49887c0.08257,0.1386 0.08257,-8.8607 0,-8.9993c0.08257,0.13859 -2.41723,-8.36074 -2.4998,-8.49934c0.08257,0.13859 -1.91727,-10.36059 -1.99984,-10.49918c0.08257,0.13859 3.08234,-9.86062 2.99977,-9.99922c0.08257,0.13859 0.58253,-6.3609 0.58253,-6.86086c0,-0.49996 -0.99992,-12.99898 -1.08249,-13.13758c0.08257,0.13859 -1.41731,-12.36043 -1.49988,-12.49902c0.08257,0.13859 1.58245,-8.8607 1.58245,-8.8607c0,0 1.99984,-10.49918 1.91727,-10.63777c0.08257,0.13859 0.58253,-12.86039 0.49996,-12.99898c0.08257,0.13859 1.08249,-14.86024 0.99992,-14.99883c0.08257,0.13859 3.08234,-18.35996 3.08234,-18.35996c0,0 4.99961,-14.99883 4.91704,-15.13742c0.08257,0.13859 8.58191,-13.36035 8.49934,-13.49895c0.08257,0.13859 12.08163,-10.86055 11.99906,-10.99914c0.08257,0.13859 9.58183,-7.86078 9.49926,-7.99937c0.08257,0.13859 10.58175,-6.3609 10.49918,-6.49949c0.08257,0.13859 24.0807,-9.86063 23.99812,-9.99922c0.08257,0.13859 22.58081,-13.36035 22.49824,-13.49895c0.08257,0.13859 19.58105,-11.36051 19.49848,-11.4991c0.08257,0.13859 19.58105,-9.86063 19.49848,-9.99922c0.08257,0.13859 20.58097,-7.86079 20.4984,-7.99937c0.08257,0.13859 16.58129,-7.36082 16.49871,-7.49941c0.08257,0.13859 21.08093,-8.36075 20.99836,-8.49934c0.08257,0.13859 8.08195,-12.8604 7.99937,-12.99898c0.08258,0.13859 5.58215,-5.36098 5.49957,-5.49957c0.08258,0.13859 11.58168,-2.86118 11.4991,-2.99977c0.08258,0.13859 11.08172,-3.36114 10.99914,-3.49973c0.08258,0.13859 8.58191,-10.36059 8.49934,-10.49918c0.08258,0.13859 7.58199,-6.3609 7.49941,-6.49949c0.08258,0.13859 13.58152,-3.8611 13.49895,-3.99969c0.08258,0.13859 16.08133,-3.36114 15.99875,-3.49973c0.08258,0.13859 10.0818,-5.36098 9.99922,-5.49957c0.08258,0.13859 13.08156,-6.86087 12.99898,-6.99945c0.08258,0.13859 19.08109,-7.86079 18.99852,-7.99937c0.08258,0.13859 13.58152,-3.8611 13.49895,-3.99969c0.08258,0.13859 8.58191,-3.8611 8.49934,-3.99969c0.08258,0.13859 11.08172,-7.36083 10.99914,-7.49941c0.08258,0.13859 14.08148,-6.86087 13.99891,-6.99945c0.08258,0.13859 10.0818,-1.3613 9.99922,-1.49988c0.08258,0.13859 12.08164,0.63855 11.99906,0.49996c0.08258,0.13859 16.58129,1.63847 16.49871,1.49988c0.08258,0.13859 15.08141,1.13851 14.99883,0.99992c0.08258,0.13859 16.08133,-0.86133 15.99875,-0.99992c0.08258,0.13859 19.0811,0.13859 18.99852,0c0.08258,0.13859 9.08188,1.63847 8.9993,1.49988c0.08258,0.13859 5.58215,2.13843 5.49957,1.99984c0.08258,0.13859 9.58184,-0.86133 9.49926,-0.99992c0.08258,0.13859 8.58192,2.63839 8.49934,2.4998c0.08258,0.13859 14.58145,1.13851 14.49887,0.99992c0.08258,0.13859 17.08125,5.1382 16.99867,4.99961c0.08258,0.13859 20.58098,3.13835 20.4984,2.99977c0.08258,0.13859 10.58176,2.13843 10.49918,1.99984c0.08258,0.13859 1.11744,2.63839 6.99945,2.4998c0.08258,0.13859 11.08172,1.13851 10.99914,0.99992c0.08258,0.13859 9.58184,3.63831 9.49926,3.49973c0.08258,0.13859 13.08157,6.63808 12.99898,6.49949c0.08258,0.13859 7.08204,3.13835 7.08204,3.13835c0,0 14.49887,3.49973 14.41628,3.36114c0.08258,0.13859 22.08087,5.1382 21.99828,4.99961c0.08258,0.13859 16.5813,5.1382 16.49871,4.99961c0.08258,0.13859 22.58083,4.13828 22.49824,3.99969c0.08259,0.13859 27.08048,5.63816 26.99789,5.49957c0.08259,0.13859 18.08118,7.13804 17.99859,6.99945c0.08259,0.13859 19.0811,6.13812 18.99852,5.99953c0.08259,0.13859 16.5813,2.63839 16.49871,2.4998c0.08259,0.13859 20.08103,4.13828 19.99844,3.99969c0.08259,0.13859 12.58161,7.638 12.49902,7.49941c0.08259,0.13859 18.08118,11.13773 17.99859,10.99914c0.08259,0.13859 8.08196,5.1382 7.99937,4.99961c0.08259,0.13859 15.08142,4.13828 14.99883,3.99969c0.08259,0.13859 20.58099,7.13804 20.4984,6.99945c0.08259,0.13859 16.5813,7.13804 16.49871,6.99945c0.08259,0.13859 15.58138,5.63816 15.49879,5.49957c0.08259,0.13859 14.0815,7.13804 13.99891,6.99945c0.08259,0.13859 8.08197,6.63808 7.99937,6.49949c0.08259,0.13859 3.08236,5.1382 2.99977,4.99961c0.08259,0.13859 5.0822,5.1382 4.99961,4.99961c0.08259,0.13859 9.08189,5.1382 8.9993,4.99961c0.08259,0.13859 10.08181,8.63793 9.99922,8.49934c0.08259,0.13859 5.58216,8.13797 5.49957,7.99937c0.08259,0.13859 0.58255,6.13812 0.49996,5.99953c0.08259,0.13859 -8.91671,7.13804 -8.9993,6.99945c0.08259,0.13859 -8.91671,8.63793 -8.9993,8.49934c0.08259,0.13859 -9.41667,9.63785 -9.49926,9.49926c0.08259,0.13859 -8.91671,13.13758 -8.91671,13.13758c0,0 -5.99953,10.99914 -6.08212,10.86055c0.08259,0.13859 -3.9171,12.63762 -3.99969,12.49902c0.08259,0.13859 -1.41729,12.13766 -1.49988,11.99906c0.08259,0.13859 0.68985,9.64754 2.08243,17.13726z" opacity="NaN" fill="#fff"/>
  <path class="product-shape3 shape"  style="vector-effect: non-scaling-stroke;" id="svg_18" d="m1574.49658,1284.87268l-11.24793,1.87621l-10.99999,0.5l-12.74999,1l-11.24999,1.5l-11.24999,3.24999l-8.24999,4l-9.5,0.75l-9.99999,3.24999c0.24794,0.12379 -15.75205,0.12379 -15.75205,0.12379c0,0 -11.49999,1.75 -11.74793,1.62621c0.24794,0.12379 -11.00205,2.12378 -11.24999,2c0.24794,0.12379 -19.50204,0.62379 -19.74998,0.5c0.24794,0.12379 -9.75205,-0.62621 -9.99999,-0.75c0.24794,0.12379 -3.50206,2.62378 -3.50206,2.62378c0,0 -9.49999,1.75 -9.74793,1.62621c0.24794,0.12379 -12.50205,-1.12621 -12.74999,-1.25c0.24794,0.12379 -11.25205,2.87378 -11.49999,2.75c0.24794,0.12379 -21.81371,3.54385 -21.99998,2.75c0.24794,0.12379 -22.50204,0.62379 -22.74998,0.5c0.24794,0.12379 -20.25204,2.87378 -20.49998,2.75c0.24794,0.12379 -13.75205,2.87378 -13.99999,2.75c0.24794,0.12379 -14.25205,1.12379 -14.49999,1c0.24794,0.12379 -14.00205,-0.37621 -14.24999,-0.5c0.24794,0.12379 -13.50205,1.12379 -13.74999,1c0.24794,0.12379 -26.00204,-0.87621 -26.24998,-1c0.24794,0.12379 -11.25205,0.12379 -11.49999,0c0.24794,0.12379 -18.25205,-7.62621 -18.49998,-7.74999c0.24794,0.12379 -18.00205,-4.37621 -18.24998,-4.5c0.24794,0.12379 -15.75205,-4.37621 -15.99999,-4.5c0.24794,0.12379 -10.75205,-4.12621 -10.99999,-4.25c0.24794,0.12379 -19.50205,-7.62621 -19.74998,-7.74999c0.24794,0.12379 -10.44785,-2.61395 -14.49999,-3.75c0.24794,0.12379 -16.75205,-3.37621 -16.99999,-3.5c0.24794,0.12379 -16.00205,-5.87621 -16.24999,-5.99999c0.24794,0.12379 -18.75205,-8.62621 -18.75205,-8.87621c0,-0.25 -17.99998,-9.49999 -18.24792,-9.62378c0.24794,0.12379 -5.25206,-2.62621 -5.5,-2.75c0.24794,0.12379 -5.50206,-3.87621 -5.75,-4c0.24794,0.12379 -19.75205,-12.6262 -19.99998,-12.74999c0.24794,0.12379 -11.00205,-7.12621 -11.24999,-7.24999c0.24794,0.12379 -8.75206,-5.37621 -8.99999,-5.5c0.24794,0.12379 -10.00205,-5.12621 -10.24999,-5.25c0.24794,0.12379 -11.75205,-3.62621 -11.99999,-3.75c0.24794,0.12379 -9.25206,0.37379 -9.49999,0.25c0.24794,0.12379 -9.75205,0.62379 -9.99999,0.5c0.24794,0.12379 -10.50205,0.37379 -10.74999,0.25c0.24794,0.12379 -7.00206,0.37379 -7.24999,0.25c0.24794,0.12379 -8.25206,-1.37621 -8.49999,-1.5c0.24794,0.12379 -8.25206,-3.37621 -8.49999,-3.5c0.24794,0.12379 -7.50206,-5.12621 -7.74999,-5.25c0.24794,0.12379 -10.50205,-2.87621 -10.74999,-3c0.24794,0.12379 -10.02757,-1.98786 -9.99999,-2c0.24794,0.12379 -9.75206,-1.37621 -9.99999,-1.5c0.24794,0.12379 -9.25206,-6.12621 -9.49999,-6.24999c0.24794,0.12379 -9.25206,-7.37621 -9.49999,-7.49999c0.24794,0.12379 -7.75206,-4.87621 -7.99999,-5c0.24794,0.12379 -10.25205,-3.12621 -10.49999,-3.25c0.24794,0.12379 -14.75205,-3.62621 -14.99999,-3.75c0.24794,0.12379 -9.00206,-4.12621 -9.24999,-4.25c0.24794,0.12379 -4.75206,-2.37621 -5,-2.5c0.24794,0.12379 -9.50206,-6.12621 -9.74999,-6.24999c0.24794,0.12379 -20.50205,-16.8762 -20.74998,-16.99999c0.24794,0.12379 -9.75206,-4.12621 -9.99999,-4.25c0.24794,0.12379 -11.50205,-7.37621 -11.74999,-7.49999c0.24794,0.12379 -20.75205,-14.3762 -20.99998,-14.49999c0.24794,0.12379 -8.25206,-7.12621 -8.49999,-7.24999c0.24794,0.12379 -12.00205,-10.37621 -12.24999,-10.49999c0.24794,0.12379 -9.00206,-7.37621 -9.24999,-7.49999c0.24794,0.12379 -7.25206,-7.62621 -7.49999,-7.74999c0.24794,0.12378 -8.00206,-11.12621 -8.24999,-11.24999c0.24794,0.12378 -11.25205,-9.37621 -11.49999,-9.49999c0.24794,0.12378 -8.75206,-7.37621 -8.99999,-7.49999c0.24794,0.12378 -7.00206,-6.62621 -7.24999,-6.74999c0.24794,0.12378 -5.6345,-2.64363 -7.49999,-4c0.24794,0.12378 -9.75206,-2.12621 -9.99999,-2.25c0.24793,0.12378 -10.50206,-7.87621 -10.74999,-7.99999c0.24793,0.12378 -8.00206,-6.87621 -8.24999,-6.99999c0.24793,0.12378 -7.00206,-9.37621 -7.24999,-9.49999c0.24793,0.12378 -3.50206,-7.62621 -3.75,-7.74999c0.24793,0.12378 3.24793,-2.87621 3,-3c0.24793,0.12378 3.24793,-5.62621 3,-5.75c0.24793,0.12378 -1.75206,-3.62621 -2,-3.75c0.24793,0.12378 0.49793,-5.37621 0.25,-5.5c0.24793,0.12378 4.74793,-7.87621 4.5,-7.99999c0.49793,0.37378 7.24793,-6.87621 6.99999,-6.99999c0.24793,0.12378 41.9979,-18.6262 41.74996,-18.74998c0.24794,0.12378 25.24791,-5.87621 24.99998,-5.99999c0.24794,0.12378 14.49792,-5.87621 14.24999,-5.99999c0.49793,0.37378 11.74793,-6.37621 11.49999,-6.49999c0.74793,0.37378 -3.50206,-2.37621 -3.75,-2.5c0.24794,0.12378 -7.00206,-1.37621 -7.24999,-1.5c0.24794,0.12378 -11.25205,-1.12621 -11.49999,-1.25c0.24794,0.12378 -13.25205,1.12378 -13.49999,1c0.24794,0.12378 -15.25205,2.62378 -15.49999,2.5c0.24794,0.12378 -13.75205,3.37378 -13.99999,3.25c0.24794,0.12378 -10.50206,3.87378 -10.74999,3.75c0.24793,0.12378 -7.50206,4.12378 -7.74999,4c0.24793,0.12378 -8.25206,3.62378 -8.49999,3.5c0.24793,0.12378 -9.50206,2.62378 -9.50206,2.62378c0,0 -11.74999,1.75 -11.99792,1.62621c0.24793,0.12378 -5.75206,2.37378 -5.99999,2.25c0.24793,0.12378 -3.25206,3.37378 -3.5,3.25c0.24793,0.12378 -6.00206,9.12378 -6.24999,8.99999c0.24793,0.12378 -4.75206,7.12378 -5,6.99999c0.24793,0.12378 -1.75206,5.62378 -2,5.5c0.24793,0.12378 -4.00206,4.37378 -4.25,4.25c0.24793,0.12378 -4.25206,5.87378 -4.5,5.75c0.24793,0.12378 -2.00206,7.37378 -2.25,7.24999c0.24793,0.12378 -2.50206,27.12376 -2.75,26.99998c0.24793,0.12378 -4.00206,30.37376 -4.25,30.24997c0.24793,0.12378 -2.25206,13.87377 -2.5,13.74999c0.24793,0.12378 -3.00206,12.62377 -3.25,12.49999c0.24793,0.12378 -1.25206,18.12377 -1.5,17.99998c0.24793,0.12379 -1.75206,31.12376 -2,30.99997c-0.88765,4.83019 -0.19976,11.2343 -0.71298,8.3628c-2.14952,3.16469 -4.71416,12.31977 -5.0646,12.15503c0.35044,0.16474 0.35044,21.43604 0,21.27131c0.35044,0.16474 6.42796,16.37145 6.07752,16.20671c0.35044,0.16474 17.57007,20.42313 17.21963,20.25839c0.35044,0.16474 30.73802,28.52648 30.38758,28.36174c0.35044,0.16474 32.76386,26.50065 32.41342,26.3359c0.35044,0.16474 36.81554,29.5394 36.4651,29.37466c0.35045,0.16474 46.94474,29.53941 46.59429,29.37466c0.35045,0.16474 31.75095,18.39729 31.4005,18.23255c0.35045,0.16474 21.62176,12.31978 21.27131,12.15503c0.35045,0.16475 34.78971,19.41021 34.43926,19.24547c0.35045,0.16475 39.85431,22.44897 39.50386,22.28423c0.35045,0.16475 38.84139,18.3973 38.49094,18.23255c0.35045,0.16475 52.00934,19.41022 51.65889,19.24547c0.35046,0.16475 39.85431,15.35854 39.50386,15.19379c0.35046,0.16475 39.85432,10.29394 39.50386,10.12919c0.35046,0.16475 44.91891,7.25519 44.56845,7.09044c0.35046,0.16475 53.02227,9.28102 52.67181,9.11627c0.35046,0.16475 52.00935,7.25519 51.65889,7.09044c0.35047,0.16475 42.89308,1.17767 42.54261,1.01292c0.35047,0.16475 46.94476,4.21643 46.59429,4.05168c0.35047,0.16475 40.86725,-1.86109 40.51678,-2.02584c0.35047,0.16475 37.82849,-4.89985 37.47802,-5.0646c0.35047,0.16475 41.88017,-7.9386 41.52969,-8.10336c0.35047,0.16475 25.67346,-4.89985 25.32298,-5.0646c0.35048,0.16475 20.60886,-2.87401 20.25839,-3.03876c0.35048,0.16475 32.64733,-14.87704 41.52969,-17.21963c0.35048,0.16475 21.62179,-6.92569 21.27131,-7.09044c0.35048,0.16475 14.53135,-2.87401 14.18087,-3.03876c0.35048,0.16475 9.46675,-5.91277 9.11627,-6.07752c0.35048,0.16475 13.51843,-0.84817 13.16795,-1.01292c0.35048,0.16475 13.51843,-3.88693 13.16795,-4.05168c0.35048,0.16475 19.59595,-0.84817 19.24547,-1.01292c0.35048,0.16475 31.75098,3.20351 31.4005,3.03876c0.35048,0.16475 0.35048,-30.22283 0,-30.38758c0.35048,0.16475 -0.66244,-22.11948 -1.01292,-22.28423c0.35048,0.16475 -3.70119,-22.11948 -4.05168,-22.28423c0.35048,0.16475 -8.76579,-43.39079 -9.11627,-43.55553c0.35048,0.16474 -3.25416,-13.2414 -8.69641,-28.88376z" opacity="NaN" fill="#fff"/>
  <path class="product-shape3 shape"  style="vector-effect: non-scaling-stroke;" id="svg_19" d="m541.06195,1286.06257l-13.04978,19.30084l-6.66682,20.00046l-4.00009,12.66696l-6.66682,14.667l-8.00018,20.66714l-4.66677,14.00032l0,11.33359l4.66677,13.33364c0.38282,0.03295 3.71623,18.03336 3.71623,18.03336c0,0 2.66673,19.33378 2.00005,19.33378c-0.66668,0 8.00018,10.66691 7.61736,10.63397c0.38282,0.03295 8.38301,12.69991 8.00018,12.66696c0.38282,0.03295 9.04969,4.69972 8.66687,4.66677c0.38282,0.03295 8.38301,8.69982 8.00018,8.66687c0.38283,0.03295 11.71642,16.7 11.33359,16.66705c0.38283,0.03295 10.38306,11.36654 10.00023,11.33359c0.38283,0.03295 18.38324,16.03332 18.00041,16.00037c0.38283,0.03295 17.04988,16.03332 16.66705,16.00037c0.38283,0.03295 13.04979,9.3665 12.66696,9.33355c0.38283,0.03295 15.04983,16.03332 14.667,16.00037c0.38283,0.03295 19.71661,17.36669 19.33378,17.33373c0.38283,0.03295 17.04988,14.69996 17.04988,14.69996c0,0 10.66691,6.66682 10.28408,6.63387c0.38283,0.03296 18.38325,12.69991 18.00041,12.66696c0.38283,0.03296 7.04965,6.03309 6.66682,6.00014c0.38283,0.03296 7.71634,13.3666 7.3335,13.33364c0.38283,0.03296 5.71629,7.36646 5.33346,7.3335c0.38283,0.03296 9.0497,4.69973 8.66687,4.66677c0.38283,0.03296 7.04965,7.36646 6.66682,7.3335c0.38283,0.03296 6.38297,10.03319 6.00014,10.00023c0.38283,0.03296 5.04961,8.03314 8.66687,10.00023c0.38283,0.03296 13.71648,12.69992 13.33364,12.66696c0.38284,0.03296 14.38316,14.03328 14.00032,14.00032c0.38284,0.03296 15.04984,12.03324 14.667,12.00028c0.38284,0.03296 11.04975,6.69978 10.66691,6.66682c0.38284,0.03296 9.0497,3.36637 8.66687,3.33341c0.38284,0.03296 13.71648,8.69983 13.33364,8.66687c0.38284,0.03296 19.04994,9.36651 18.6671,9.33355c0.38284,0.03296 17.71657,7.36646 17.33373,7.3335c0.38284,0.03296 12.38312,8.03315 12.00028,8.00018c0.38284,0.03296 8.38303,7.36646 8.00018,7.3335c0.38284,0.03296 12.38312,4.03306 12.00028,4.00009c0.38284,0.03296 19.04994,6.69978 18.6671,6.66682c0.38284,0.03296 27.05012,9.36651 26.66728,9.33355c0.38284,0.03296 29.71685,8.69983 29.33401,8.66687c0.38284,0.03296 23.05003,7.36647 22.66719,7.3335c0.38285,0.03296 21.71667,7.36647 21.33382,7.3335c0.38285,0.03296 22.38335,3.36638 22.00051,3.33341c0.38285,0.03296 11.04976,0.69965 10.66691,0.66668c0.38285,0.03296 10.38308,4.03306 10.00023,4.00009c0.38285,0.03297 19.04995,-1.3004 19.04995,-1.3004c0,0 17.33373,0 16.95088,-0.03297c0.38285,0.03297 25.71677,3.36638 25.33392,3.33341c0.38285,0.03297 32.38359,1.36633 32.00074,1.33336c0.38285,0.03297 24.38341,-0.63372 24.00055,-0.66668c0.38285,0.03297 21.05,0.03297 20.66714,0c0.38286,0.03297 25.05009,-3.30045 25.05009,-3.30045c0,0 31.33406,-6.66682 30.9512,-6.69979c0.38286,0.03296 29.71687,-8.6339 29.33401,-8.66687c0.38286,0.03296 25.71678,-7.96722 25.33392,-8.00018c0.38286,0.03296 30.38355,-6.63386 30.00069,-6.66682c0.38286,0.03296 -2.28387,-19.9675 -2.66673,-20.00046c0.38286,0.03296 1.04954,-17.30077 0.66668,-17.33373c0.38286,0.03296 3.04959,-18.63414 2.66673,-18.6671c0.38286,0.03296 4.38295,-19.9675 4.00009,-20.00046c0.38286,0.03296 6.383,-17.30077 6.00014,-17.33373c0.38286,0.03296 9.04973,-18.63414 9.04973,-18.63414c0,0 8.66687,-13.33364 8.284,-13.3666c0.38286,0.03296 5.04964,-5.3005 4.66677,-5.33346c0.38286,0.03296 -26.28442,2.69969 -26.66728,2.66673c0.38286,0.03296 -35.61797,3.36637 -36.00083,3.33341c0.38286,0.03296 -28.95115,3.36637 -29.33401,3.33341c0.38286,0.03296 -37.61802,1.36632 -38.00088,1.33336c0.38286,0.03296 -33.61793,-2.63377 -34.00078,-2.66673c0.38286,0.03296 -50.95166,-3.96713 -51.33452,-4.00009c0.38285,0.03296 -22.28434,-0.63372 -22.66719,-0.66668c0.38285,0.03296 -34.28461,-4.63382 -34.66747,-4.66677c0.38285,0.03296 -39.61807,-5.3005 -39.61807,-5.3005c0,0 -48.00111,-10.66691 -48.38395,-10.69987c0.38285,0.03296 -45.61822,-11.96732 -46.00106,-12.00028c0.38284,0.03296 -32.95126,-9.96727 -33.3341,-10.00023c0.38284,0.03296 -19.61762,-5.96718 -20.00046,-6.00014c0.38284,0.03296 -36.95135,-13.96737 -36.95135,-13.96737c0,0 -34.66747,-16.00037 -35.05031,-16.03332c0.38284,0.03295 -46.95159,-24.63428 -47.33442,-24.66724c0.38284,0.03295 -34.95131,-21.96756 -35.33415,-22.00051c0.38283,0.03295 -13.61749,-9.3006 -28.66733,-20.66714c0.38283,0.03295 -31.61791,-20.63419 -32.00074,-20.66714c0.38283,0.03295 -24.2844,-16.6341 -24.66724,-16.66705c0.38283,0.03295 -26.28445,-20.63419 -26.66728,-20.66714c0.38283,0.03295 -21.61768,-15.30074 -22.00051,-15.33369c0.38283,0.03295 -20.28432,-20.6342 -20.66714,-20.66714c0.38283,0.03295 -16.95091,-20.6342 -17.33373,-20.66714c0.38283,0.03295 -13.6175,-17.30079 -14.00032,-17.33373c0.38283,0.03294 -10.95077,-18.63415 -11.33359,-18.6671c0.38283,0.03294 -4.28395,-15.96743 -4.66677,-16.00037c0.38282,0.03294 -2.95059,-18.63415 -3.33341,-18.6671c0.38282,0.03294 3.04955,-15.30075 2.66673,-15.33369c0.38282,0.03294 5.71628,-16.63411 5.33346,-16.66705c0.38283,0.03294 1.56402,-3.22496 -0.28386,-14.63407z" opacity="NaN" fill="#fff"/>
  <path class="product-shape3 shape" id="svg_20" d="m1431.0825,1639.40406l-13.71651,3.30045l-10.66691,6.00014l-10.00023,8.00018l-10.00023,9.33355l-7.3335,9.33355l-9.33355,14.667l-8.00018,14.667l-6.66682,21.33382l-4.66677,16.00037l-0.66668,16.00037l2.00005,23.33387l5.33346,-2.00005l13.33364,-26.66728l20.66714,-36.66751l15.33369,-29.33401l14.00032,-27.33396l10.3831,-19.9675z" opacity="NaN" fill="#fff"/>
  <path class="product-shape3 shape" id="svg_21" d="m1461.08319,1640.07074l9.61736,5.3005l8.00018,8.00018l4.66677,12.00028l2.00005,14.00032l-0.66668,18.00041l-5.33346,19.33378l-12.00028,10.00023l-14.00032,10.00023l-12.66696,9.33355l-14.667,8.66687l-14.00032,7.3335l-20.00046,8.00018l13.33364,-27.33396l16.00037,-30.00069l13.33364,-27.33396l11.33359,-19.33378l6.66682,-15.33369l8.38305,-10.63396z" opacity="NaN" fill="#fff"/>
  <path class="product-shape3 shape" id="svg_22" d="m1504.41752,1633.40392l5.61727,-12.69991l2.00005,-8.66687l-15.33369,2.66673l-9.33355,4.00009l8.00018,6.00014l9.04974,8.69982z" opacity="NaN" fill="#fff"/>
  <path class="product-shape3 shape" id="svg_23" d="m1515.08444,1660.73789l2.28386,7.96723l1.33336,11.33359l7.3335,-8.00018l6.66682,-9.33355l-8.66687,-4.00009l-8.95068,2.033z" opacity="NaN" fill="#fff"/>
  <!--partie4-->

 <!--elastic1-->
  <path class="product-shape4 shape"  style="vector-effect: non-scaling-stroke;" id="svg_25" d="m1411.74514,1611.12084l-7.74707,2.37695c0.24708,0.12305 -9.75291,5.12304 -9.75291,4.87304c0,-0.25 -8.24999,5.49999 -8.49707,5.37694c0.24708,0.12305 -10.50291,9.12304 -10.74999,8.99999c0.24708,0.12305 -6.50291,5.62304 -6.74999,5.49999c0.24708,0.12305 -9.50291,10.37303 -9.74999,10.24999c0.24708,0.12305 -3.75292,5.12304 -3.99999,4.99999c0.24708,0.12305 -4.00292,7.62304 -4.24999,7.49999c0.24708,0.12305 3.24707,-0.37695 3,-0.5c0.24708,0.12305 -4.50292,5.62304 -4.74999,5.49999c0.24708,0.12305 -8.25291,13.62303 -8.49999,13.49998c0.49708,0.37305 -8.50291,18.62302 -8.74999,18.49997c0.49708,0.37305 -5.50291,16.87303 -5.74999,16.74998c0.24708,0.12305 -4.25292,21.37302 -4.49999,21.24997c0.49708,1.37305 -2.50292,19.62302 -2.75,19.49997c0.74708,0.12305 -0.00292,16.12303 -0.25,15.99998c0.24708,0.12305 2.99707,20.87302 2.75,20.74997c0.24708,0.12305 0.24708,4.87304 0,8.24999c0.24708,0.12305 1.74708,15.62303 1.5,15.49998c0.24708,0.12305 1.24708,13.37303 1,13.24998c0.24708,0.12305 -13.2529,9.87304 -13.49998,9.74999c0.24708,0.12305 -10.00291,7.87304 -10.24999,7.74999c0.24708,0.12305 -16.7529,15.12303 -16.99998,14.99998c0.24708,0.12305 -17.5029,18.62302 -17.74998,18.49997c0.24708,0.12305 -14.5029,17.37303 -14.74998,17.24998c0.24708,0.12305 -11.00291,12.12303 -11.24998,11.99998c0.24708,0.12305 -6.50291,7.37304 -6.74999,7.24999c0.24708,0.12305 -9.75291,10.62304 -9.99999,10.49999c0.24708,0.12305 -7.91976,-7.46011 -9.49999,-8.24999c0.24708,0.12305 -12.50291,-9.37694 -12.74998,-9.49999c0.24708,0.12305 -12.00291,-6.37694 -12.24998,-6.49999c0.24708,0.12305 -12.75291,-3.87694 -12.99998,-3.99999c0.24708,0.12305 -11.25291,-1.37695 -11.49998,-1.5c0.24708,0.12305 -10.25291,0.37305 -10.49999,0.25c0.24708,0.12305 -11.25291,3.12305 -11.49998,3c0.24708,0.12305 -9.00291,5.62304 -9.24999,5.49999c0.24708,0.12305 -5.50292,5.12304 -5.74999,4.99999c0.24708,0.12305 -5.75292,6.37304 -5.99999,6.24999c0.24708,0.12305 -3.50292,7.12304 -3.74999,6.99999c0.24708,0.12305 -4.75292,8.12304 -4.99999,7.99999c0.24708,0.12305 -3.50292,6.87304 -3.50292,6.87304c0,0 -2.75,7.49999 -2.99707,7.37694c0.24708,0.12305 -0.75292,8.12304 -1,7.99999c0.24708,0.12305 0.24708,11.62303 0,11.49998c0.24708,0.12305 2.49707,9.37304 2.25,9.24999c0.24708,0.12305 3.74707,9.37304 3.5,9.24999c0.24708,0.12305 -4.50292,10.87304 -4.74999,10.74999c0.24708,0.12305 -5.50292,13.12303 -5.74999,12.99998c0.24708,0.12305 -4.75292,11.62303 -4.99999,11.49998c0.24708,0.12305 -5.00292,16.12303 -5.24999,15.99998c0.24708,0.12305 -2.00292,6.12304 -2.25,5.99999c0.24708,0.12305 -5.25292,5.12304 -5.49999,4.99999c0.24708,0.12305 -1.50292,6.12304 -1.75,5.99999c0.24708,0.12305 0.74708,8.62304 0.5,8.49999c0.24708,0.12305 1.24707,9.62304 1,9.49999c0.24708,0.12305 1.25158,4.15917 2,4.99999c0.24708,0.12305 3.24707,4.37305 3.24707,4.37305c0,0 4.74999,-0.75 4.50292,-0.87305c0.24708,0.12305 3.99707,1.37305 3.74999,1.25c0.24708,0.12305 3.24707,3.87305 3,3.74999c0.24708,0.12305 3.24707,3.62305 3,3.5c0.24708,0.12305 2.49707,2.37305 2.25,2.25c0.24708,0.12305 2.49707,-3.37694 2.25,-3.5c0.24708,0.12305 4.24707,-1.87695 3.99999,-2c0.24708,0.12305 3.74707,-3.12694 3.5,-3.25c0.24708,0.12305 3.99707,-5.62694 3.74999,-5.74999c0.24708,0.12305 2.24707,-4.87694 2,-4.99999c0.24708,0.12305 3.74707,-4.62694 3.5,-4.74999c0.24708,0.12305 2.99707,-4.12694 2.75,-4.24999c0.24708,0.12305 0.24708,-4.37694 0,-4.49999c0.24708,0.12305 -1.50292,-5.87694 -1.75,-5.99999c0.24708,0.12305 -1.00292,-4.12694 -1.25,-4.24999c0.24708,0.12305 1.74707,-6.12694 1.5,-6.24999c0.24708,0.12305 3.74707,-8.12694 3.5,-8.24999c0.24708,0.12305 2.99707,-5.12694 2.75,-5.24999c0.24708,0.12305 1.99707,-5.62694 1.75,-5.74999c0.24708,0.12305 1.49707,-4.37694 1.25,-4.49999c0.24708,0.12305 2.24707,-4.12694 2,-4.24999c0.24708,0.12305 2.74707,-1.87695 2.5,-2c0.24708,0.12305 0.99708,2.87305 0.75,2.75c0.24708,0.12305 -0.00292,6.62304 -0.25,6.49999c0.24708,0.12305 -1.25292,8.37304 -1.5,8.24999c0.24708,0.12305 -3.00292,12.87303 -3.25,12.74998c0.24708,0.12305 -0.50292,6.12304 -0.75,5.99999c0.24708,0.12305 -0.75292,13.12303 -1,12.99998c0.24708,0.12305 -1.00292,17.37303 -1.25,17.24998c0.24708,0.12305 -1.00292,9.62304 -1.25,9.49999c0.24708,0.12305 0.49708,6.37304 0.25,6.24999c0.24708,0.12305 0.74708,6.12304 0.5,5.99999c0.24708,0.12305 -2.25292,4.37305 -2.5,4.24999c0.24708,0.12305 -2.75292,2.37305 -3,2.25c0.24708,0.12305 -0.50292,4.87304 -0.75,4.74999c0.24708,0.12305 -0.00292,6.87304 -0.25,6.74999c0.24708,0.12305 1.74707,5.12304 1.5,4.99999c0.24708,0.12305 -0.75292,7.12304 -0.75292,7.12304c0,0 1.5,3.99999 1.75,4.49999c0.25,0.5 4.74999,3 4.50292,2.87694c0.24708,0.12305 6.49707,2.37305 6.49707,2.37305c0,0 6.49999,1.25 6.25291,1.12695c0.24708,0.12305 10.49706,-0.12695 10.24999,-0.25c0.24708,0.12305 8.24707,-1.37695 7.99999,-1.5c0.24708,0.12305 6.74707,-2.37695 6.74707,-2.37695c0,0 5.49999,-3.74999 5.25292,-3.87305c0.24708,0.12305 4.49707,-4.62694 4.24999,-4.74999c0.24708,0.12305 -0.50292,-3.37694 -0.75,-3.5c0.24708,0.12305 0.74708,-4.62694 0.5,-4.74999c0.24708,0.12305 1.99707,-3.12694 1.75,-3.25c0.24708,0.12305 3.24707,-2.87694 3,-3c0.24708,0.12305 -0.25292,-3.12694 -0.5,-3.25c0.24708,0.12305 -0.50292,-2.87694 -0.50292,-2.87694c0,0 -3,-2 -3.24707,-2.12305c0.24708,0.12305 -6.75291,-5.87694 -6.99999,-5.99999c0.24708,0.12305 -3.50292,-5.37694 -3.74999,-5.49999c0.24708,0.12305 -0.00292,-6.87694 -0.25,-6.99999c0.24708,0.12305 0.49708,-9.37694 0.25,-9.49999c0.24708,0.12305 1.74707,-14.37693 1.5,-14.49998c0.24708,0.12305 1.99707,-12.87693 1.75,-12.99998c0.24708,0.12305 2.49707,-15.37693 2.25,-15.49998c0.24708,0.12305 1.24708,-7.87694 1,-7.99999c0.24708,0.12305 0.99708,-4.62694 0.75,-4.74999c0.24708,0.12305 1.99707,2.12305 1.75,2c0.24708,0.12305 0.24708,4.12305 0.24708,4.12305c0,0 3.74999,3.74999 3.50292,3.62694c0.24708,0.12305 6.74707,4.12305 6.49999,3.99999c0.24708,0.12305 5.74707,1.12305 5.49999,1c0.24708,0.12305 8.74706,0.37305 8.49999,0.25c0.24708,0.12305 7.49707,-2.12695 7.24999,-2.25c0.24708,0.12305 5.24707,-2.87695 4.99999,-3c0.24708,0.12305 3.24707,-2.87695 3,-3c0.24708,0.12305 2.74707,-1.37695 2.5,-1.5c0.24708,0.12305 4.74707,1.12305 4.49999,1c0.24708,0.12305 8.74707,0.87305 8.49999,0.75c0.24708,0.12305 8.49707,-2.12695 8.24999,-2.25c0.24708,0.12305 5.74707,-3.12694 5.49999,-3.25c0.24708,0.12305 5.24707,-7.62694 4.99999,-7.74999c0.24708,0.12305 2.49707,-4.62694 2.25,-4.74999c0.24708,0.12305 1.99707,-7.37694 1.75,-7.49999c0.24708,0.12305 0.99708,-8.62694 0.99708,-8.62694c0,0 -0.75,-4.24999 -0.99708,-4.37304c0.24708,0.12305 7.24707,-3.62694 6.99999,-3.74999c0.24708,0.12305 13.99706,-5.62694 13.74998,-5.74999c0.24708,0.12305 17.24705,-8.12694 16.99998,-8.24999c0.24708,0.12305 15.49706,-8.62694 15.24998,-8.74999c0.24708,0.12305 13.49706,-9.62694 13.24998,-9.74999c0.24708,0.12305 11.74706,-9.87694 11.74706,-9.87694c0,0 9.99999,-11.49998 9.75291,-11.62303c0.24708,0.12305 6.49707,-9.62694 6.24999,-9.74999c0.24708,0.12305 5.99707,-10.87693 5.74999,-10.99998c0.24708,0.12305 4.24707,-9.62694 3.99999,-9.74999c0.24708,0.12305 2.49707,-11.87693 2.25,-11.99998c0.24708,0.12305 1.74708,-9.12694 1.5,-9.24999c0.24708,0.12305 0.99708,-8.12694 0.75,-8.24999c0.24708,0.12305 0.49708,-10.87694 0.25,-10.99998c0.24708,0.12305 -0.50292,-7.87694 -0.75,-7.99999c0.24708,0.12305 -0.25292,-5.62694 -0.5,-5.74999c0.24708,0.12305 2.99707,-2.87695 2.75,-3c0.24708,0.12305 6.99707,-3.62695 6.74999,-3.74999c0.24708,0.12305 9.49706,-2.87695 9.24999,-3c0.24708,0.12305 11.99706,-5.87694 11.74998,-5.99999c0.24708,0.12305 11.49706,-5.37694 11.24998,-5.49999c0.24708,0.12305 11.99706,-7.12694 11.74998,-7.24999c0.24708,0.12305 13.24706,-6.37694 12.99998,-6.49999c0.24708,0.12305 11.49706,-5.62694 11.24998,-5.74999c0.24708,0.12305 3.49707,-1.37695 3.25,-1.5c0.24708,0.12305 4.99707,-3.62695 4.74999,-3.74999c0.24708,0.12305 11.99706,-6.87694 11.74998,-6.99999c0.24708,0.12305 9.49707,-6.37694 9.24999,-6.49999c0.24708,0.12305 6.50161,-5.8141 9.49999,-8.99999c0.24708,0.12305 6.49707,-6.37694 6.24999,-6.49999c0.24708,0.12305 8.74707,-8.37694 8.49999,-8.49999c0.24708,0.12305 8.24707,-10.62694 7.99999,-10.74999c0.24708,0.12305 8.99707,-15.62693 8.74999,-15.74998c0.24708,0.12305 5.49707,-13.12693 5.24999,-13.24998c0.24708,0.12305 4.24707,-14.12693 3.99999,-14.24998c0.24708,0.12305 1.99708,-12.62693 1.75,-12.74998c0.24708,0.12305 0.74708,-8.62694 0.5,-8.74999c0.24708,0.12305 -0.50292,-8.37694 -0.75,-8.49999c0.24708,0.12305 -1.25292,-11.62694 -1.5,-11.74998c0.24708,0.12305 -1.75292,-5.87694 -2,-5.99999c0.24708,0.12305 -1.00292,-8.12694 -1.25,-8.24999c0.24708,0.12305 -3.25292,-8.62694 -3.5,-8.74999c0.24708,0.12305 -4.25292,-8.37694 -4.49999,-8.49999c0.24708,0.12305 -1.50292,-3.62695 -1.75,-3.74999c0.24708,0.12305 -7.50291,-7.12694 -7.74999,-7.24999c0.24708,0.12305 -8.25291,-5.62694 -8.49999,-5.74999c0.24708,0.12305 -4.50292,-3.87695 -4.74999,-3.99999c0.24708,0.12305 -6.75291,-3.12695 -6.99999,-3.25c0.24708,0.12305 -1.50292,-0.62695 -3,-1.5c0.24708,0.12305 -5.00291,9.87304 -5.24999,9.74999c0.24708,0.12305 -5.00291,10.37303 -5.24999,10.24999c0.24708,0.12305 -4.50292,7.87304 -4.74999,7.74999c0.24708,0.12305 3.74707,2.37305 3.5,2.25c0.24708,0.12305 8.99707,4.37304 8.74999,4.24999c0.24708,0.12305 8.24707,8.12304 7.99999,7.99999c0.24708,0.12305 5.24707,11.87303 4.99999,11.74998c0.24708,0.12305 2.24708,14.37303 2,14.24998c0.24708,0.12305 -0.25292,18.62302 -0.5,18.49997c0.24708,0.12305 -5.25291,20.62302 -5.49999,20.49997c0.24708,0.12305 -4.75291,10.37303 -4.75291,10.37303c0,0 -5.74999,9.24999 -5.99707,9.12694c0.24708,0.12305 -4.25292,5.37304 -4.49999,5.24999c0.24708,0.12305 -8.00291,9.12304 -8.24999,8.99999c0.24708,0.12305 -6.25291,6.37304 -6.49999,6.24999c0.24708,0.12305 -6.25291,4.87304 -6.49999,4.74999c0.24708,0.12305 -3.25292,3.62304 -7.99999,6.74999c0.24708,0.12305 -10.75291,6.62304 -10.99998,6.49999c0.24708,0.12305 -10.75291,6.62304 -10.99998,6.49999c0.24708,0.12305 -9.75291,6.12304 -9.99999,5.99999c0.24708,0.12305 -11.00291,5.37304 -11.24998,5.24999c0.24708,0.12305 -7.25291,3.62304 -7.49999,3.5c0.24708,0.12305 -7.00291,3.87304 -7.24999,3.74999c0.24708,0.12305 -5.00292,7.62304 -5.24999,7.49999c0.24708,0.12305 -4.25292,9.37304 -4.49999,9.24999c0.24708,0.12305 -6.50291,12.87303 -6.74999,12.74998c0.24708,0.12305 -4.75292,10.37304 -4.99999,10.24999c0.24708,0.12305 -5.50291,11.12303 -5.74999,10.99998c0.24708,0.12305 -4.75292,9.12304 -4.99999,8.99999c0.24708,0.12305 -3.25292,7.62304 -3.25292,7.37304c0,-0.25 -6.49999,10.24999 -6.74707,10.12694c0.24708,0.12305 -3.75292,7.37304 -3.99999,7.24999c0.24708,0.12305 -5.75291,9.87304 -5.99999,9.74999c0.24708,0.12305 -3.75292,7.62304 -3.99999,7.49999c0.24708,0.12305 -3.00292,4.62304 -3.25,4.49999c0.24708,0.12305 -2.75292,4.62304 -3,4.49999c0.24708,0.12305 -7.00291,7.12304 -7.24999,6.99999c0.24708,0.12305 -7.75291,6.37304 -7.99999,6.24999c0.24708,0.12305 -7.25291,5.12304 -7.49999,4.99999c0.24708,0.12305 -8.00291,5.37304 -8.24999,5.24999c0.24708,0.12305 -9.00291,5.62304 -9.24999,5.49999c0.24708,0.12305 -11.00291,6.37304 -11.24998,6.24999c0.24708,0.12305 -10.00291,4.87304 -10.24999,4.74999c0.24708,0.12305 -7.00291,2.62305 -7.24999,2.5c0.24708,0.12305 -3.75292,0.62305 -3.99999,0.5c0.24708,0.12305 4.74707,-5.37694 4.49999,-5.49999c0.24708,0.12305 10.24706,-9.37694 9.99999,-9.49999c0.24708,0.12305 10.24706,-10.62694 9.99999,-10.74999c0.24708,0.12305 10.74706,-10.62694 10.49999,-10.74999c0.24708,0.12305 10.24706,-12.12693 9.99999,-12.24998c0.24708,0.12305 7.74707,-9.62694 7.49999,-9.74999c0.24708,0.12305 5.99707,-6.12694 5.74999,-6.24999c0.24708,0.12305 4.24707,-5.62694 3.99999,-5.74999c0.24708,0.12305 3.24707,-2.62695 3,-2.75c0.24708,0.12305 4.74707,-3.37695 4.49999,-3.5c0.24708,0.12305 6.49707,-9.37694 6.24999,-9.49999c0.24708,0.12305 5.24707,-8.87694 4.99999,-8.99999c0.24708,0.12305 6.49707,-11.62693 6.24999,-11.74998c0.24708,0.12305 7.49707,-15.87693 7.24999,-15.99998c0.24708,0.12305 8.49707,-15.12693 8.24999,-15.24998c0.24708,0.12305 10.74706,-19.87692 10.49999,-19.99997c0.24708,0.12305 -1.50292,-10.87694 -1.75,-10.99998c0.24708,0.12305 -0.25292,-4.12694 -0.5,-4.24999c0.24708,0.12305 -1.84526,-22.66318 -2.25,-23.49997c0.24708,0.12305 0.99708,-15.62693 0.75,-15.74998c0.24708,0.12305 7.74707,-25.12692 7.49999,-25.24997c0.24708,0.12305 3.99707,-11.62694 3.74999,-11.74998c0.24708,0.12305 8.49707,-15.12693 8.24999,-15.24998c0.24708,0.12305 9.24707,-13.87693 8.99999,-13.99998c0.24708,0.12305 6.74707,-8.37694 6.49999,-8.49999c0.24708,0.12305 9.74706,-8.87694 9.49999,-8.99999c0.24708,0.12305 11.24706,-8.87694 11.24706,-8.87694c0,0 10.99998,-6.49999 10.99998,-6.49999c0,0 13.49998,-3 13.2529,-3.12304c0.24708,0.12305 5.24707,-0.87695 4.99999,-1c0.24708,0.12305 3.74707,-5.37694 3.5,-5.49999c0.24708,0.12305 4.24707,-8.12694 3.99999,-8.24999c0.24708,0.12305 4.49707,-7.37694 4.24999,-7.49999c0.24708,0.12305 1.74708,-5.37694 1.5,-5.49999c0.24708,0.12305 -3.50292,-1.12695 -3.74999,-1.25c0.24708,0.12305 -7.00291,1.87305 -7.24999,1.75c0.24708,0.12305 -7.00291,0.37305 -7.24999,0.25c0.24708,0.12305 -8.50291,-0.87695 -8.74999,-1c0.24708,0.12305 -3.45216,0.47762 -10.00291,-0.37695z" opacity="NaN" fill="#fff"/>
  <path class="product-shape4 shape"  style="vector-effect: non-scaling-stroke;" id="svg_26" d="m3501.33248,1072.66607l6.66689,-2.9996l9,-7l9,-5.66667l0.33333,-5l-6,-7l-2,-7.33333l2,-10.33333l1.33332,-6l2.00001,-6.33333l6.33333,-10.66666l3.33333,-3.66667l6.33334,-7.66667l11,-9.66666l8,-5.66666l10,-7.66667l11.33333,-6.66667l10,-4l11,-5.33333l10.66666,-4.33333l7.33333,-1.66667l7,-1.66667l7.66667,-1.33333l11.33333,-2.66667l14.33333,0l12.66666,-0.66667l8.33333,0.66667l5.66667,0.66667l3,3l-3.33333,7.33333l-4.33333,5.66667l11,-6l9,-3.66667l11,-5.33333l8.33333,-5.66667l8.66667,-5l7.33333,-3.66667l7.33333,-5l4,-7l2,-7l6.66667,-7.66667c0.33312,0.33293 6.99978,-3.33374 6.99978,-3.66707c0,-0.33333 5.66667,-5.66667 5.33355,-5.99959c0.33312,0.33292 12.66645,-7.00041 12.33333,-7.33333c0.33312,0.33292 6.66645,-4.66707 6.33333,-5c0.33312,0.33292 9.99978,-5.00041 9.66666,-5.33333c0.33312,0.33292 12.33312,-4.33374 12,-4.66667c0.33312,0.33292 11.6661,-4.66708 10.99965,-5c1.33355,-0.00045 24.33346,-12.0004 24.00034,-12.33333c0.33312,0.33292 1.85617,-0.238 9,-4c0.33312,0.33292 3.66645,-1.33374 3.33333,-1.66667c0.33312,0.33292 2.99979,0.33292 2.66667,0c0.33312,0.33292 -1.33354,3.99959 -1.66667,3.66667c0.33312,0.33292 -8.33354,8.66626 -8.66667,8.33333c0.33312,0.33292 -12.00021,10.33292 -12.33333,10c0.33312,0.33292 -10.00021,7.66626 -10.33333,7.33333c0.33312,0.33292 -9.66688,7.99959 -10,7.66667c0.33312,0.33292 -9.00021,6.66626 -9.33333,6.33333c0.33312,0.33292 -6.66688,5.99959 -7,5.66667c0.33312,0.33292 -8.33355,5.33292 -8.66667,5c0.33312,0.33293 -10.66688,6.33292 -11,6c0.33312,0.33293 -5.33355,3.33292 -5.66667,3c0.33312,0.33293 -2.66688,6.66626 -3,6.33333c0.33312,0.33293 -2.33355,6.99959 -2.66667,6.66667c0.33312,0.33293 -5.00021,6.66626 -5.33333,6.33333c0.33312,0.33293 -5.00021,6.66626 -5.33333,6.33333c0.33312,0.33293 -4.66688,5.33293 -5,5c0.33312,0.33293 -2.66688,3.66626 -3,3.33333c0.33312,0.33293 5.66645,0.99959 5.33333,0.66667c0.33312,0.33293 11.33312,-1.33374 11,-1.66667c0.33312,0.33293 8.66645,-1.66707 8.33333,-2c0.33312,0.33293 9.33312,-2.00041 9,-2.33333c0.33312,0.33293 11.33312,-3.00041 11,-3.33333c0.33312,0.33293 10.99978,-3.66707 10.66666,-4c0.33312,0.33293 9.99979,-5.00041 9.66666,-5.33333c0.33312,0.33293 7.99979,-4.66707 7.66667,-5c0.33312,0.33293 7.66645,-4.66707 7.33333,-5c0.33312,0.33293 11.33312,-7.33374 11,-7.66667c0.33312,0.33293 10.66645,-8.66707 10.33333,-9c0.33312,0.33293 9.99979,-7.33374 9.66666,-7.66667c0.33312,0.33292 9.66645,-8.00041 9.33333,-8.33333c0.33312,0.33292 6.99979,-5.33374 6.66667,-5.66667c0.33312,0.33292 8.33312,-7.33374 8,-7.66667c0.33312,0.33292 5.66645,4.33292 5.33333,4c0.33312,0.33292 4.66646,4.66626 4.33333,4.33333c0.33312,0.33292 3.66646,3.66626 3.33333,3.33333c0.33312,0.33292 6.33312,0.66626 6,0.33333c0.33312,0.33292 6.99979,-0.33374 6.66667,-0.66667c0.33312,0.33292 6.66646,-1.33374 6.33333,-1.66667c0.33312,0.33292 4.99979,-2.66708 4.66667,-3c0.33312,0.33292 3.66646,-4.33374 3.33333,-4.66667c0.33312,0.33292 2.99979,-7.00041 2.66667,-7.33333c0.33312,0.33292 0.66646,-4.66708 0.33333,-5c0.33312,0.33292 -2.00021,-3.66708 -2.33333,-4c0.33312,0.33292 6.66646,-1.33374 6.33333,-1.66667c0.33312,0.33292 7.33312,-5.00041 7,-5.33333c0.33312,0.33292 5.99979,-5.33374 5.66667,-5.66667c0.33312,0.33292 2.33312,-7.33374 2,-7.66667c0.33312,0.33292 1.33312,-6.00041 1,-6.33333c0.33312,0.33292 0.33312,-3.33374 0,-3.66667c0.33312,0.33292 -6.00021,-5.33374 -6.33333,-5.66667c0.33312,0.33292 -4.00021,-3.33374 -4.33333,-3.66667c0.33312,0.33292 2.5288,-2.2388 3.66667,-4.66667c0.33312,0.33292 3.66646,-5.00041 3.33333,-5.33333c0.33312,0.33292 1.99979,-5.33374 1.66667,-5.66667c0.33312,0.33292 1.66646,-4.33374 1.33333,-4.66667c0.33312,0.33292 6.99979,0.33292 6.66667,0c0.33312,0.33292 11.33312,0.99959 11,0.66667c0.33312,0.33292 19.33312,1.99959 19,1.66667c0.33313,0.33292 17.66646,3.33292 17.33333,3c0.33313,0.33292 17.66646,4.33292 17.33333,4c0.33313,0.33292 15.66646,3.99959 15.33333,3.66667c0.33313,0.33292 3.66646,2.33292 3.33333,2c0.33313,0.33292 2.33313,6.33292 2,6c0.33313,0.33292 2.99979,4.33292 2.66667,4c0.33313,0.33292 4.33313,1.99959 4,1.66667c0.33313,0.33292 4.33313,0.66626 4,0.33333c0.33313,0.33292 2.99979,-1.66708 2.66667,-2c0.33313,0.33292 5.33313,-1.00041 5,-1.33333c0.33313,0.33292 4.66646,-1.66708 4.33333,-2c0.33313,0.33292 1.99979,-2.00041 1.66667,-2.33333c0.33313,0.33292 -0.66687,-3.66708 -1,-4c0.33313,0.33292 2.33313,-2.33374 2,-2.66667c0.33313,0.33292 2.33313,-5.00041 2,-5.33333c0.33313,0.33292 0.66646,-2.66708 0.33333,-3c0.33313,0.33292 -0.33354,-2.66708 -0.66667,-3c0.33313,0.33292 -1.66687,-2.66708 -2,-3c0.33313,0.33292 0.99979,-5.66708 0.66667,-6c0.33313,0.33292 1.99979,-7.66708 1.66667,-8c0.33313,0.33292 -1.33354,-2.66708 -1.33354,-2.66708c0,0 -5,-0.33333 -5.33313,-0.66625c0.33313,0.33292 -2.66687,3.33292 -3,3c0.33313,0.33292 -8.66687,-0.33375 -9,-0.66667c0.33313,0.33292 -10.66687,-1.66708 -11,-2c0.33313,0.33292 -18.0002,-4.33374 -18.33333,-4.66667c0.33313,0.33292 -17.33354,-3.66708 -17.33354,-3.66708c0,0 -20.33333,-3.33333 -20.66646,-3.66625c0.33313,0.33292 -14.33354,-0.33375 -14.66666,-0.66667c0.33312,0.33292 -11.33354,0.99959 -11.66666,0.66667c0.33312,0.33292 -3.33354,-0.33375 -3.66667,-0.66667c0.33312,0.33292 -2.66688,-5.00041 -3,-5.33333c0.33312,0.33292 0.99979,-3.00041 0.66667,-3.33333c0.33312,0.33292 8.33312,-0.66708 8,-1c0.33312,0.33292 10.99979,-2.00041 10.66666,-2.33333c0.33312,0.33292 12.33312,-1.00041 12,-1.33333c0.33313,0.33292 11.99979,-0.66708 11.66666,-1c0.33313,0.33292 15.33312,1.66625 15,1.33333c0.33313,0.33292 15.66646,2.33292 15.33333,2c0.33313,0.33292 8.99979,-1.00041 8.66667,-1.33333c0.33313,0.33292 7.66646,-2.00041 7.33333,-2.33333c0.33313,0.33292 2.66646,-2.66708 2.33333,-3c0.33313,0.33292 0.66646,-11.33374 0.33333,-11.66666c0.33313,0.33292 0.33313,-5.33375 0,-5.66667c0.33313,0.33292 -5.00021,-3.33375 -5.33333,-3.66667c0.33313,0.33292 -12.0002,-1.66708 -12.33333,-2c0.33313,0.33292 -13.0002,-1.66708 -13.33333,-2c0.33313,0.33292 -14.66687,-0.33375 -15,-0.66667c0.33313,0.33292 -16.33354,0.33292 -16.66666,0c0.33313,0.33292 -11.00021,1.33292 -11.33333,1c0.33312,0.33292 -8.33354,1.66625 -8.66667,1.33333c0.33312,0.33292 -9.66687,1.99959 -10,1.66667c0.33312,0.33292 -9.00021,1.99959 -9.33333,1.66667c0.33312,0.33292 -4.66688,2.99959 -5,2.66667c0.33312,0.33292 -5.33354,-4.00041 -5.66667,-4.33333c0.33312,0.33292 -6.00021,-2.66708 -6.33333,-3c0.33312,0.33292 -7.33354,-2.33375 -7.66667,-2.66667c0.33312,0.33292 -8.66688,-2.00041 -8.66688,-2.00041c0,0 -7.33333,-0.33333 -7.66645,-0.66625c0.33312,0.33292 -9.00021,2.33292 -9.33333,2c0.33312,0.33292 -7.66688,3.66625 -7.66688,3.66625c0,0 -5,3.66667 -5,3.66667c0,0 -6,2.66667 -6.33312,2.33375c0.33312,0.33292 -6.00021,2.99959 -6.33354,2.99959c-0.33333,0 -6.33333,3.33333 -6.66645,3.00041c0.33312,0.33292 -7.00021,5.33292 -7.33333,5c0.33312,0.33292 -2.33354,3.66625 -2.66688,3.99959c-0.33333,0.33333 -3,5.66667 -3.33333,5.66667c-0.33333,0 -2.33333,7 -2.66645,6.66708c0.33312,0.33292 -1.00021,7.33292 -1.33333,7c0.33312,0.33292 -2.00021,8.99959 -2.33333,8.66667c0.33312,0.33292 -0.00021,8.33292 -0.33333,8c0.33312,0.33292 1.33312,8.66625 1,8.33333c0.33312,0.33292 1.66645,8.99959 1.33333,8.66667c0.33312,0.33292 2.99979,8.33292 2.66667,8c0.33312,0.33292 3.99979,5.99959 3.66667,5.66667c0.33312,0.33292 4.66645,1.66626 4.33333,1.33333c0.33312,0.33292 5.66645,-0.66708 5.33333,-1c0.33312,0.33292 3.99979,2.99959 3.66667,2.66667c0.33312,0.33292 -0.66688,4.99959 -1,4.66667c0.33312,0.33292 -8.66688,4.99959 -9,4.66667c0.33312,0.33292 -10.66688,5.99959 -11,5.66667c0.33312,0.33292 -12.00021,5.99959 -12.33333,5.66667c0.33312,0.33292 -10.00021,6.33292 -10.33354,6.33292c-0.33333,0 -12.33333,6 -12.66645,5.66708c0.33312,0.33292 -11.66688,5.33292 -12,5c0.33312,0.33292 -11.66688,6.99959 -12,6.66667c0.33312,0.33292 -13.00021,8.99959 -13.33333,8.66667c0.33312,0.33292 -8.33355,6.33292 -8.66667,6c0.33312,0.33292 -9.66688,6.66626 -10,6.33333c0.33312,0.33292 -8.33355,7.99959 -8.66667,7.66667c0.33312,0.33292 -7.66688,6.33292 -8,6c0.33312,0.33292 -8.00021,7.33292 -8.33333,7c0.33312,0.33292 -6.00021,5.99959 -6.33333,5.66667c0.33312,0.33293 -3.66688,5.99959 -4,5.66667c0.33312,0.33293 -12.33355,0.66626 -12.66666,0.33333c0.33312,0.33293 -18.66688,1.33293 -19,1c0.33312,0.33293 -21.00021,1.66626 -21.00021,1.66626c0,0 -21.66666,0.66667 -21.99978,0.33374c0.33311,0.33293 -6.83461,0.78895 -15.33333,2.66667c0.33311,0.33293 -17.00022,4.66626 -17.33333,4.33333c0.33311,0.33293 -13.66688,5.99959 -14,5.66667c0.33311,0.33293 -13.00022,6.33292 -13.00022,6.33292c0,0 -16.33333,8 -16.66644,7.66707c0.33311,0.33293 -9.00022,6.33293 -9.33333,6c0.33311,0.33293 -6.33355,5.33293 -6.33355,5.33293c0,0 -9,4.66667 -9.33311,4.33374c0.33311,0.33293 -7.33355,5.99959 -7.66667,5.66667c0.33311,0.33293 -8.66689,8.66626 -9,8.33333c-0.00022,0.66626 -9.33355,9.99959 -9.66666,9.66666c0.33311,0.33293 -8.66689,13.66626 -9,13.33333c0.33311,0.33293 -6.00022,11.33293 -6.33333,11c0.33311,0.33293 -3.33356,11.66626 -3.66667,11.33333c0.33311,0.33293 -1.33356,10.99959 -1.66667,10.66666c0.33311,0.33293 1.66644,18.33293 1.33333,18c0.33311,0.33293 1.66644,7.66626 1.33333,7.33333c0.33311,0.33293 3.99978,6.9996 3.66667,6.66667c0.33311,0.33293 4.66644,7.33293 4.33333,7c0.33311,0.33293 0.32034,3.27136 3.99978,6.66626z" opacity="NaN" fill="#fff"/>
 <path class="product-shape4 shape" style="vector-effect: non-scaling-stroke;" id="svg_27" d="m3519.25684,1085.79948l1.02905,-2.81408l7.33323,-4.33327l12.6665,-7.99989l12.99982,-7.33324l4.99993,-3.33329l2.33331,2.3333l6.33324,0l11.66651,-2.66663l13.33316,-5.33326l14.66647,-6.66657l12.33316,-8.33323l8.66655,-8.66654l10.66653,-9.66654l7.99989,-7.33324l8.99988,-7.99989l6.33324,-5.33326l9.33321,-5.99992l11.99984,-6.66658l10.33319,-5.99991l10.3332,-5.33327l6.9999,-4.33327l4.99994,-1.33332l-2.33331,3.99995l-4.6666,6.66658l-5.99992,10.99985l-4.6666,7.66656l-6.66658,10.3332l-5.99992,8.33322l-7.99989,9.99986l-9.33321,9.99987l-10.99985,10.66652l-11.99984,8.99988l-10.66652,8.99988l-12.99983,7.99989l-15.33312,7.33323l-12.99983,4.99994l-12.66649,3.99995l-15.08676,2.2684l-14.75343,0.93508l-13.50709,-1.46312l-11.17378,-3.29643l-6.50718,-4.29641z" opacity="NaN" fill="#fff"/>
 </g>

</svg>