<svg id="product-svg" viewBox="0 0 1280 800" xmlns="http://www.w3.org/2000/svg" xmlns:xlink="http://www.w3.org/1999/xlink">
 <g id="Layer_1">
  <title>Layer 1</title>
  <!--partie1-->

  <path class="product-shape1 shape" id="svg_3" d="m355.90664,688.02063l0.05999,11.91375l0.49995,10.24904l0.49995,5.24951l1.93732,6.74937c0.18998,0.08512 0.00251,6.08456 0.00251,6.08456c0,0 -1.81234,8.99915 -2.00233,8.91403c0.18999,0.08512 2.50228,2.08494 2.31229,1.99981c0.18999,0.08513 5.4395,1.58499 5.24951,1.49986c0.18999,0.08513 8.18924,-1.91469 7.99925,-1.99981c0.18999,0.08512 10.689,-1.91469 10.49902,-1.99981c0.18998,0.08512 9.93907,-1.16476 9.74908,-1.24989c0.18999,0.02263 8.18924,-2.41464 7.99925,-2.49976c0.18999,0.08512 9.6891,-2.16467 9.6891,-2.16467c0,0 13.49873,-3.74964 13.30875,-3.83477c0.02336,-0.41472 12.93879,-3.66452 12.7488,-3.74965c0.18999,-0.41472 14.93861,-3.66452 14.74862,-3.74965c0.18999,0.08513 18.68825,-3.9145 18.49827,-3.99962c0.18998,0.08512 17.43836,-4.66443 17.24838,-4.74956c0.18998,0.08513 19.68816,-5.41436 19.49817,-5.49948c0.18999,0.08512 20.93804,-4.91441 20.74805,-4.99953c0.18999,0.08512 23.43781,-5.41436 23.24783,-5.49949c0.18998,0.08513 18.68825,-4.41445 18.49826,-4.49957c0.18999,0.08512 23.18783,-5.66434 22.99785,-5.74947c0.18998,0.08513 21.18801,-5.16438 26.99746,-6.24941c0.18999,0.08512 17.93833,-4.16448 17.74834,-4.2496c0.18999,0.08512 20.93804,-5.16438 20.74806,-5.24951c0.18998,0.08513 24.18773,-6.16429 23.99775,-6.24941c0.18998,0.08512 35.1867,-9.16401 34.99671,-9.24914c0.18999,0.08513 17.43837,-3.66452 17.24839,-3.74964c0.18998,0.08512 21.18802,-5.16439 20.99803,-5.24951c0.18999,0.08512 23.93776,-6.41427 23.74777,-6.49939c0.18999,0.08512 20.68807,-4.41446 20.49808,-4.49958c0.18999,0.08512 34.43678,-7.1642 34.24679,-7.24932c0.18999,0.08512 23.68779,-5.66434 23.4978,-5.74946c0.18999,0.08512 26.06968,-5.90543 24.99765,-5.74946c0.18999,0.08512 18.93823,-2.16467 18.74825,-2.24979c0.18998,0.08512 14.43865,-3.66453 14.24866,-3.74965c0.18999,0.08512 17.93832,-3.9145 17.93832,-3.9145c0,0 16.49846,-4.2496 16.30847,-4.33473c0.18999,0.08513 14.43865,-1.66471 14.43865,-1.66471c0,0 14.74862,-2.24979 14.55863,-2.33491c0.18999,0.08512 13.9387,-3.41455 13.74871,-3.49968c0.18999,0.08513 9.43912,-3.66452 9.24914,-3.74964c0.18998,0.08512 11.93888,-6.91422 11.74889,-6.99935c0.18999,0.08513 4.18962,-4.9144 3.99963,-4.99953c0.18999,0.08513 2.1898,-6.16429 1.99981,-6.24941c0.18999,0.08512 3.18971,-9.16401 2.99972,-9.24914c0.18999,0.08513 -0.05999,-9.41398 -0.24998,-9.49911c0.18999,0.08513 0.93992,-9.66396 0.74993,-9.74908c0.18999,0.08512 1.68985,-10.16392 1.49986,-10.24904c0.18999,0.08512 1.43987,-9.91394 1.24989,-9.99906c0.18998,0.08512 0.87787,-5.66639 1.74983,-14.49864c0.18999,0.08512 1.68985,-13.91357 1.49986,-13.99869c0.18999,0.08512 0.93992,-9.66396 0.74993,-9.74909c0.18999,0.08513 1.93982,-10.66387 1.74984,-10.74899c0.18998,0.08512 0.93991,-2.91459 0.74993,-2.99972c0.18998,0.08513 0.18998,-13.16363 0,-13.24876c0.18998,0.08513 1.43987,-10.91384 1.24988,-10.99897c0.18999,0.08513 0.18999,-3.16457 0,-3.24969c0.18999,0.08512 0.68994,-6.66424 0.49995,-6.74937c0.18999,0.08513 1.43987,-6.66424 1.24988,-6.74936c0.18999,0.08512 0.93992,-5.16439 0.74993,-5.24951c0.18999,0.08512 1.1899,-11.4138 0.99991,-11.49892c0.18999,0.08512 0.68994,-6.1643 0.49995,-6.24942c0.18999,0.08512 0.93992,-8.1641 0.74993,-8.24923c0.18999,0.08513 -0.55994,-8.91403 -0.74993,-8.99915c0.18999,0.08512 -0.55994,-5.66434 -0.74993,-5.74946c0.18999,0.08512 -1.80982,-6.66425 -1.99981,-6.74937c0.18999,0.08512 -1.05989,-2.9146 -1.24988,-2.99972c0.18999,0.08512 -4.30959,-1.91469 -4.49958,-1.99981c0.18999,0.08512 -9.05914,-1.66471 -9.24913,-1.74984c0.18999,0.08513 -14.80861,-2.41464 -14.9986,-2.49976c0.18999,0.08512 -13.8087,-3.16457 -13.99868,-3.2497c0.18998,0.08513 -8.80917,-1.66471 -8.99916,-1.74983c0.18999,0.08512 -7.30931,1.08503 -7.4993,0.9999c0.18999,0.08513 -15.30856,4.08475 -15.49854,3.99963c0.18998,0.08512 -8.80917,3.08484 -8.99916,2.99972c0.18999,0.08512 -11.80889,3.58479 -11.99888,3.49967c0.18999,0.08512 -7.80926,2.58489 -7.80926,2.83486c0,0.24998 -8.99915,2.49977 -9.18914,2.41465c0.18999,0.08512 -3.80964,1.335 -3.99963,1.24988c0.18999,0.08512 -0.30996,4.5847 -0.49995,4.49958c0.18999,0.08512 -2.30978,2.08493 -2.49977,1.99981c0.18999,0.08512 -1.80982,0.83505 -1.99981,0.74993c0.18999,0.08512 -1.05989,3.08484 -1.24988,2.99972c0.18999,0.08512 -3.05971,2.58489 -3.05971,2.58489c0,0 -3.49967,1.99981 -3.68966,1.91469c0.18999,0.08512 -3.55966,0.58507 -3.55966,0.58507c0,0 -4.49958,-0.49995 -4.68956,-0.58507c0.18998,0.08512 -1.80983,-1.66472 -1.99982,-1.74984l-15.25649,5.45152l-2.00774,2.70178l-1.26573,1.65391l-2.53145,0.80804l-2.56314,-0.38371l-3.62643,-0.76742l-0.75347,-3.0347l-20.00519,5.92946l-37.51063,12.85884l-28.5256,10.21912l-32.55351,11.43909l-42.10918,14.37897l-38.85948,14.00402l-28.36046,11.00428l-16.2243,4.43742l-30.72294,10.18687l-26.94911,10.3747l-17.40165,4.25093l-50.80181,18.50092l-44.10898,16.00382l-40.72243,17.00905l-31.44955,11.5202l-12.85005,3.88528l-6.79999,4.19243l0.22467,19.71955l-0.13764,13.83856l-1.19372,21.3242l-1.59676,16.15117l2.01386,26.32386l-2.11077,11.07531z" opacity="NaN" fill="#fff"/>
  <!--partie2-->
    <path class="product-shape2 shape" id="svg_4" d="m314.16055,576.78106l3.55966,6.41427l5.24951,5.99943l5.99944,5.49949l5.99944,3.49967l9.49911,3.74965l8.4992,2.74974l5.99944,0.49995l-0.16833,-25.50012l6.66772,-4.33125l11.83306,-3.49968l32.62006,-11.89963l13.29146,-5.51456l25.74759,-10.83315l26.01225,-9.49856l24.48302,-8.91555l46.32731,-16.74592l16.91676,-4.25211l26.9133,-10.16739l30.24717,-10.16487l16.66426,-4.49958l24.41606,-9.66492l25.49761,-9.24914l35.24669,-12.33302l30.91293,-10.49901l26.58168,-9.33329l34.58093,-12.49632l20.91387,-7.08351l9.94002,-3.29805l19.55721,-5.95108l-0.24997,-2.99972l0.49995,-3.99962l2.99972,-2.99972l4.74955,-1.74984l4.24961,-0.24997c0.18998,0.08512 6.68937,-2.41465 6.68937,-2.41465c0,0 8.24923,-2.74974 8.05924,-2.83486c0.18999,0.08512 -22.80785,-5.91432 -22.99784,-5.99944c0.18999,0.08512 -4.05961,-1.41474 -4.2496,-1.49986c0.18999,0.08512 -3.30969,-0.91478 -3.49967,-0.99991c0.18998,0.08513 -2.30978,-1.41473 -2.49977,-1.49986c0.18999,0.08513 -1.55985,-3.16457 -1.74984,-3.24969c0.18999,0.08512 0.68995,-3.16457 0.49996,-3.2497c0.18999,0.08513 3.1897,-2.91459 2.99972,-2.99971c0.18998,0.08512 3.68966,-0.91479 3.49967,-0.99991c0.18999,0.08512 3.68966,1.33501 3.49967,1.24988c0.18999,0.08513 3.43968,2.08494 3.2497,1.99981c0.18998,0.08513 5.43949,2.58489 5.2495,2.49977c0.18999,0.08512 7.18933,2.83487 6.99935,2.74974c0.18998,0.08513 6.18942,1.33501 5.99943,1.24989c0.18999,0.08512 3.18971,1.58498 2.99972,1.49985c0.18999,0.08513 1.68985,-2.41464 1.49986,-2.49976c0.18999,0.08512 -2.80973,-4.91441 -2.99972,-4.99953c0.18999,0.08512 -2.55975,-3.66453 -2.74974,-3.74965c0.18999,0.08512 0.18999,-4.16448 0,-4.2496c0.18999,0.08512 1.43987,-5.16439 1.24988,-5.24951c0.18999,0.08512 1.68985,-3.16457 1.49986,-3.2497c0.18999,0.08513 1.93983,-1.66471 1.74984,-1.74983c0.18999,0.08512 -1.80982,-3.16457 -1.99981,-3.2497c0.18999,0.08513 -5.55948,-0.16485 -5.74946,-0.24997c0.18998,0.08512 -5.55948,-1.16476 -5.74946,-1.24989c0.18998,0.08513 -2.30978,-0.41483 -2.49977,-0.49995c0.18999,0.08512 -7.05933,3.08484 -7.24932,2.99972c0.18999,0.08512 -7.30931,3.58479 -7.4993,3.49967c0.18999,0.08512 -7.55928,3.33482 -7.74927,3.2497c0.18999,0.08512 -8.05924,3.08484 -8.24923,2.99972c0.18999,0.08512 -5.30949,1.08503 -5.49948,0.9999c0.18999,0.08513 -4.80955,2.33491 -4.99953,2.24979c0.18998,0.08512 -6.80936,2.83487 -6.99935,2.74974c0.18999,0.08513 -16.05849,5.83459 -16.24847,5.74946c0.18998,0.08513 -12.8088,3.5848 -12.99879,3.49968c0.18999,0.08512 -9.05914,2.58489 -9.24913,2.49976c0.18999,0.08513 -5.05952,1.08503 -5.24951,0.99991c0.18999,0.08512 -17.80832,6.83449 -17.99831,6.74936c0.18999,0.08513 -18.55825,5.58461 -18.74824,5.49949c0.18999,0.08512 -15.80851,4.5847 -15.9985,4.49958c0.18999,0.08512 -17.0584,5.83458 -17.24838,5.74946c0.18998,0.08512 -10.30903,2.58489 -10.49902,2.49976c0.18999,0.08513 -18.80823,6.33454 -18.99822,6.24942c0.18999,0.08512 -17.80832,5.08465 -17.99831,4.99953c0.18999,0.08512 -16.80842,5.33463 -16.99841,5.24951c0.18999,0.08512 -11.8375,3.92738 -21.49798,7.24932c0.18998,0.08512 -19.05821,5.08465 -19.2482,4.99953c0.18999,0.08512 -18.0583,5.33463 -18.24829,5.24951c0.18999,0.08512 -22.55788,8.33435 -22.55788,8.33435c0,0 -23.4978,7.74927 -23.68778,7.66415c0.18998,0.08512 -27.55741,9.83421 -27.7474,9.74908c0.18999,0.08513 -20.30809,7.8344 -20.30809,7.8344c0,0 -38.99635,14.99859 -39.18633,14.91347c0.18998,0.08512 -27.05746,11.08409 -27.24745,10.99897c0.18999,0.08512 -25.5576,10.33416 -25.74758,10.24904c0.18998,0.08512 -17.0584,9.08428 -17.24839,8.99915c0.18999,0.08513 -12.05886,8.33436 -12.24885,8.24923c0.18999,0.08513 -10.55901,7.08447 -10.74899,6.99935c0.18998,0.08512 -11.30894,7.83439 -11.49892,7.74927c0.18998,0.08512 -10.55901,7.33444 -10.749,7.24932c0.18999,0.08512 -8.55919,7.08447 -8.74918,6.99934c0.18999,0.08513 -8.05924,9.08428 -8.24922,8.99916c0.18998,0.08512 -6.30941,9.58423 -6.49939,9.49911c0.18998,0.08512 -0.61489,5.43506 -3.30969,9.83421z" opacity="NaN" fill="#fff"/>
  <path class="product-shape2 shape" style="vector-effect: non-scaling-stroke;" id="svg_5" d="m293.11649,530.16967l0.20791,-5.53519l1.65814,-3.48209l2.65302,-3.48209l3.31627,-2.65302l4.47697,-2.65302l4.14534,-0.49744l3.81371,2.48721l2.81883,3.15046l2.32139,3.15046l2.15558,3.97953l2.65302,4.14534l3.31627,5.80348l7.62743,-4.31116l8.29068,-6.63255l10.61208,-8.95394l9.94882,-6.63255c0.12371,0.06334 12.39393,-6.90083 12.39393,-6.90083c0,0 15.25486,-7.62743 15.13114,-7.69077c0.12372,0.06334 15.04695,-6.90083 14.92323,-6.96417c0.12372,0.06334 13.88625,-6.40339 13.76254,-6.46673c0.12372,0.06334 14.21788,-5.57432 14.21788,-5.57432c0,0 12.60184,-5.30604 12.47812,-5.36938c0.12372,0.06334 13.223,-5.57432 13.09928,-5.63767c0.12372,0.06334 13.38881,-5.40851 13.26509,-5.47185c0.12372,0.06334 12.79536,-5.98559 23.0481,-8.29068c0.12372,0.06334 17.53415,-5.57432 17.53415,-5.57432c0,0 15.91811,-5.14022 15.91811,-5.14022c0,0 15.08904,-4.8086 14.96533,-4.87194c0.12372,0.06334 17.36834,-5.57432 17.24462,-5.63767c0.12372,0.06334 17.20253,-5.40851 17.20253,-5.40851c0,0 16.913,-5.30604 17.07881,-5.30604c0.16581,0 15.7523,-4.8086 15.7523,-4.8086c0,0 16.74718,-4.31116 16.913,-4.47697c0.16581,-0.16581 15.42067,-4.64278 15.29696,-4.70612c0.12372,0.06334 15.37858,-4.41363 15.37858,-4.41363c0,0 14.75742,-2.65302 14.6337,-2.71636c0.12372,0.06334 28.09646,-8.35821 27.02763,-7.2958c0.12372,0.06334 18.03159,-5.57432 17.90788,-5.63767c0.12372,0.06334 21.34787,-6.40339 21.22415,-6.46673c0.12372,0.06334 18.86066,-5.40851 18.73695,-5.47185c0.12372,0.06334 13.38881,-4.57944 13.26509,-4.64278c0.12372,0.06334 14.05207,-2.9213 13.92835,-2.98465c0.12372,0.06334 13.72044,-5.2427 13.59672,-5.30604c0.12372,0.06334 15.21276,-4.57944 15.08904,-4.64278c0.12372,0.06334 12.55974,-4.74526 12.43603,-4.8086c0.12372,0.06334 9.24347,-3.41875 9.11975,-3.48209c0.12372,0.06334 10.07254,-3.58456 9.94882,-3.6479c0.12372,0.06334 8.58022,-3.08712 8.4565,-3.15046c0.12372,0.06334 5.42976,-2.09224 5.30604,-2.15558c0.12372,0.06334 -2.5293,-1.76061 -2.65302,-1.82395c0.12372,0.06334 -2.03186,-2.75549 -2.15558,-2.81883c0.12372,0.06334 -1.03698,-3.08712 -1.1607,-3.15046c0.12372,0.06334 -0.70535,-4.57944 -0.82907,-4.64278c0.12372,0.06334 1.1186,-3.75037 0.99488,-3.81371c0.12372,0.06334 2.2793,-3.75037 2.15558,-3.81371c0.12372,0.06334 3.43999,-3.41875 3.31627,-3.48209c0.12372,0.06334 3.77162,-2.75549 3.6479,-2.81883c0.12372,0.06334 1.78124,-1.58073 3.81371,-2.81883c0.12372,0.06334 3.77162,-1.42898 3.6479,-1.49232c0.12372,0.06334 4.60069,-1.42898 4.47697,-1.49232c0.12372,0.06334 -0.53954,-1.76061 -0.66325,-1.82395c0.12372,0.06334 -3.19256,-1.92642 -3.31627,-1.98976c0.12372,0.06334 -2.5293,-1.5948 -2.65302,-1.65814c0.12372,0.06334 -2.69511,-1.5948 -2.81883,-1.65814c0.12372,0.06334 -4.18744,-0.10247 -4.31116,-0.16581c0.12372,0.06334 -5.51395,-0.26829 -5.63767,-0.33163c0.12372,0.06334 -3.52418,0.22915 -3.52418,0.22915c0,0 -2.32139,0.82907 -2.44511,0.76573c0.12372,0.06334 -2.19767,1.55566 -2.32139,1.49232c0.12372,0.06334 -2.36349,1.38985 -2.48721,1.32651c0.12372,0.06334 -2.69511,0.39497 -2.81883,0.33163c0.12372,0.06334 -4.85069,0.06334 -4.97441,0c0.12372,0.06334 -4.18744,-0.10247 -4.31116,-0.16581c0.12372,0.06334 -3.19256,0.06334 -3.31627,0c0.12372,0.06334 -3.19256,0.56078 -3.19256,0.56078c0,0 -3.15046,0.99488 -3.31627,0.99488c-0.16581,0 -3.31627,1.49232 -3.48209,1.49232c-0.16581,0 -4.14534,1.65814 -4.26906,1.5948c0.12372,0.06334 -6.1772,2.55055 -6.30092,2.48721c0.12372,0.06334 -8.16697,3.2138 -8.16697,3.2138c0,0 -10.11463,3.81371 -10.23835,3.75037c0.12372,0.06334 -10.9858,4.3745 -11.10952,4.31116c0.12372,0.06334 -10.81999,4.54031 -10.9437,4.47697c0.12372,0.06334 -11.31743,4.54031 -11.44114,4.47697c0.12372,0.06334 -10.81999,4.04287 -10.9437,3.97953c0.12372,0.06334 -10.81999,3.54543 -10.9437,3.48209c0.12372,0.06334 -9.65929,3.71124 -9.78301,3.6479c0.12372,0.06334 -11.81487,4.87194 -11.93858,4.8086c0.12372,0.06334 -12.1465,5.03775 -12.27021,4.97441c0.12372,0.06334 -10.32254,4.3745 -10.44626,4.31116c0.12372,0.06334 -6.1772,2.55055 -6.30092,2.48721c0.12372,0.06334 -9.99092,3.04799 -10.11463,2.98465c0.12372,0.06334 -7.04849,1.8953 -9.45138,3.31627c0.12372,0.06334 -9.8251,3.71124 -9.94882,3.6479c0.12372,0.06334 -12.64394,5.03775 -12.76765,4.97441c0.12372,0.06334 -15.7944,7.02752 -15.91811,6.96417c0.12372,0.06334 -12.80975,5.70101 -12.93347,5.63767c0.12372,0.06334 -7.00627,4.04287 -7.12999,3.97953c0.12372,0.06334 -8.16697,5.03775 -11.31743,4.3745c-3.15046,-0.66325 -8.4565,0.99488 -8.58021,0.93154c0.12372,0.06334 -9.65929,2.38473 -9.78301,2.32139c0.12372,0.06334 -8.4986,2.38473 -8.62231,2.32139c0.12372,0.06334 -10.9858,3.71124 -11.10952,3.6479c0.12372,0.06334 -14.96533,4.20868 -15.08904,4.14534c0.12372,0.06334 -12.47812,4.3745 -12.60184,4.31116c0.12372,0.06334 -11.64906,4.20868 -11.77277,4.14534c0.12372,0.06334 -15.46277,4.54031 -15.58649,4.47697c0.12372,0.06334 -18.2816,6.8617 -18.40532,6.79836c0.12372,0.06334 -16.95509,6.03263 -17.07881,5.96929c0.12372,0.06334 -9.65929,2.88217 -9.78301,2.81883c0.12372,0.06334 -12.02278,3.65692 -15.42067,5.14022c0.12372,0.06334 -15.13114,5.70101 -15.25486,5.63767c0.12372,0.06334 -10.81999,4.3745 -10.9437,4.31116c0.12372,0.06334 -13.80463,5.03775 -13.92835,4.97441c0.12372,0.06334 -14.79952,5.03775 -14.92323,4.97441c0.12372,0.06334 -15.13114,5.70101 -15.25486,5.63767c0.12371,0.06334 -12.97557,5.36938 -13.09928,5.30604c0.12371,0.06334 -14.79952,6.53008 -14.92323,6.46673c0.12371,0.06334 -15.29696,7.35914 -15.42067,7.2958c0.12371,0.06334 -16.45765,7.52496 -16.58137,7.46162c0.12371,0.06334 -11.15162,6.03263 -11.27533,5.96929c0.12371,0.06334 -3.52419,3.04799 -3.6479,2.98465c0.12371,0.06334 -1.53442,2.38473 -1.65814,2.32139c0.12371,0.06334 -1.70024,3.37962 -1.82395,3.31627c0.12371,0.06334 -0.70535,3.71124 -0.82907,3.6479c0.12371,0.06334 -0.53954,5.20357 -0.66325,5.14022c0.12371,0.06334 -0.53954,4.04287 -0.66325,3.97953c0.12371,0.06334 0.28953,2.55055 0.16581,2.48721c0.12371,0.06334 0.45534,2.71636 0.33163,2.65302c0.12371,0.06334 0.95278,3.37962 0.82907,3.31627c0.12371,0.06334 0.74281,1.24471 2.11348,3.2138z" opacity="NaN" fill="#fff"/>
  <path class="product-shape2 shape" style="vector-effect: non-scaling-stroke;" id="svg_6" d="m876.87486,312.5312l-2.12491,0.53129l-1.9375,0.6875l-2,0.875l-2.1875,1.125l-2.3125,1.625l-1.75,1.25c0.06241,0.03121 -1.18759,1.59371 -1.18759,1.59371c0,0 -1.375,1.75 -1.43741,1.71879c0.06241,0.03121 -1.00009,1.84371 -1.0625,1.8125c0.06241,0.03121 -0.06259,1.59371 -0.125,1.5625c0.06241,0.03121 0.12491,1.71871 0.0625,1.6875c0.06241,0.03121 0.81241,1.34371 0.75,1.3125c0.06241,0.03121 1.37491,0.84371 1.3125,0.8125c0.06241,0.03121 1.99991,1.03121 1.9375,1c0.06241,0.03121 1.62491,0.21871 1.5625,0.1875c0.06241,0.03121 0.18741,-1.71879 0.125,-1.75c0.06241,0.03121 0.87491,-1.21879 0.8125,-1.25c0.06241,0.03121 1.81241,-0.53129 1.75,-0.5625c0.06241,0.03121 1.43741,-0.15629 1.375,-0.1875c0.06241,0.03121 1.06241,-0.53129 1,-0.5625c0.06241,0.03121 -0.06259,-2.46879 -0.125,-2.5c0.06241,0.03121 0.31241,-2.53129 0.25,-2.5625c0.06241,0.03121 0.99991,-1.96879 0.99991,-1.96879c0,0 1.75,-2 1.68759,-2.03121c0.06241,0.03121 1.37491,-1.53129 1.3125,-1.5625c0.06241,0.03121 2.31241,-1.03129 2.25,-1.0625c0.06241,0.03121 0.31241,-1.78129 0.25,-1.8125c0.06241,0.03121 -0.58911,-0.30888 -1.18759,0.03121z" opacity="NaN" fill="#fff"/>
  <path class="product-shape2 shape" style="vector-effect: non-scaling-stroke;" id="svg_7" d="m900.17932,331.13687l-2.07952,1.6083l-0.874,1.748l0.12486,1.87286l3.62087,1.37343l3.37115,1.748l1.99772,1.49829l2.99658,3.24629l1.99772,2.99658c0.0818,0.01485 1.20552,2.38714 1.20552,2.38714c0,0 0.62429,2.87172 0.54249,2.85687c0.0818,0.01485 0.0818,3.26115 0,3.24629c0.0818,0.01485 0.0818,4.75944 0,4.74458c0.0818,0.01485 -0.29277,3.63572 -0.37457,3.62087c0.0818,0.01485 1.58009,2.13743 1.49829,2.12258c0.0818,0.01485 1.20552,1.88771 1.12372,1.87286c0.0818,0.01485 0.58123,2.38714 0.49943,2.37229c0.0818,0.01485 0.45637,2.26229 0.37457,2.24743c0.0818,0.01485 -0.16791,1.638 -0.24971,1.62315c0.0818,0.01485 0.9558,2.26229 0.874,2.24743c0.0818,0.01485 0.0818,1.638 0,1.62315c0.0818,0.01485 -0.66734,1.88771 -0.74914,1.87286c0.0818,0.01485 3.45295,-1.10887 3.37115,-1.12372c0.0818,0.01485 0.9558,-1.6083 0.874,-1.62315c0.0818,0.01485 1.45523,-2.10773 1.37343,-2.12258c0.0818,0.01485 0.83095,-2.4823 0.74914,-2.49715c0.0818,0.01485 0.20666,-2.98173 0.12486,-2.99658c0.0818,0.01485 -0.29277,-3.85573 -0.37457,-3.87058c0.0818,0.01485 -0.66734,-2.35744 -0.74914,-2.37229c0.0818,0.01485 -1.29163,-1.73315 -1.37343,-1.748c0.0818,0.01485 -1.04192,-1.73315 -1.12372,-1.748c0.0818,0.01485 -0.66734,-1.85801 -0.74914,-1.87286c0.0818,0.01485 -0.66734,-2.35744 -0.74914,-2.37229c0.0818,0.01485 -1.16677,-2.23258 -1.24857,-2.24743c0.0818,0.01485 -1.16677,-2.35744 -1.24857,-2.37229c0.0818,0.01485 -1.04192,-2.23258 -1.12372,-2.24743c0.0818,0.01485 -1.54135,-2.23258 -1.62315,-2.24743c0.0818,0.01485 -1.41649,-1.98287 -1.49829,-1.99772c0.0818,0.01485 -2.16563,-2.85687 -2.24743,-2.87172c0.0818,0.01485 -1.79106,-2.23258 -1.87286,-2.24743c0.0818,0.01485 -1.91592,-2.98173 -1.99772,-2.99658c0.0818,0.01485 -1.79106,-2.23258 -1.87286,-2.24743c0.0818,0.01485 -2.89231,-3.5452 -2.54021,-3.10659z" opacity="NaN" fill="#fff"/>
    <!--partie3-->
  <path class="product-shape3 shape" style="vector-effect: non-scaling-stroke;" id="svg_9" d="m806.50861,309.09533l2.0356,-0.79892l5.81204,-2.3114l4.74424,-1.81103l3.06629,-1.37567l3.56109,-1.06273l3.31217,-0.62434l3.24917,0.06248l8.6853,0.18695l3.68302,-0.37389l2.31546,-1.31268l2.24943,-1.43713l2.49937,-0.87529l3.5616,-0.18745l10.06046,0.49987l8.6853,5.24867l0.6858,1.74956l2.56287,0.93777l3.37414,2.87427l2.68682,3.37415l3.62409,3.74905l4.12395,5.62357l4.87377,6.24842l2.93675,4.62383l1.25019,-1.00025l3.68606,4.43688l1.1872,1.49962l1.43714,2.24892l2.56185,3.06274l2.93676,3.87351l1.93751,2.68682l3.37313,6.49735l0.99975,2.56387l0.68783,1.99848l1.31217,1.93701l1.1872,1.49962l0.68733,2.06198l0.43688,3.24867l-0.06198,3.74956l-0.74981,2.62433l-1.37516,2.18695l-0.87427,1.5621l4.74829,-1.09448l4.62434,-1.3424l0.49987,-0.31242l7.18568,-2.49937l10.18442,-2.87477l10.93523,-3.62409l15.62054,-4.06096l7.56109,-1.06223l9.06021,1.74955l13.74651,3.24918l15.30863,2.49937l9.12269,1.74905l4.62383,2l0.81229,1.87452l1.31217,3.81154l1.1872,4.56134l0.43992,2.89301l0.74728,8.10421l1.99949,-11.43461l1.06223,-5.81103l0.87478,-3.49911l-0.18745,-3.06172l-1.31217,-1.87453l-2.49937,-2.3744l-12.6218,-8.12294c0.02536,0.0486 -10.65943,-7.19956 -10.65943,-7.26205c0,-0.06248 -9.24766,-6.18593 -9.27302,-6.23453c0.02536,0.0486 -4.28605,-2.38828 -4.31141,-2.43688c0.02536,0.0486 -12.84638,-6.38727 -12.87174,-6.43587c0.02536,0.0486 -12.3465,-5.94988 -12.37187,-5.99849c0.02537,0.04861 -11.59113,-5.8804 -13.809,-6.6858c0.02536,0.0486 -18.59492,-7.94937 -18.62028,-7.99798c0.02536,0.04861 -11.40924,-4.82516 -11.43461,-4.87376c0.02537,0.0486 -14.40848,-5.32504 -14.43384,-5.37364c0.02536,0.0486 -13.97109,-4.63771 -13.99646,-4.68631c0.02537,0.0486 -8.84739,-2.51325 -8.87275,-2.56186c0.02536,0.04861 -7.5512,-1.84112 -9.74753,-2.56185c0.02536,0.04861 -8.59746,-1.63847 -8.62282,-1.68707c0.02536,0.0486 -6.59796,-0.70121 -6.62332,-0.74981c0.02536,0.0486 -4.53598,-0.45127 -4.53598,-0.45127c0,0 -7.87301,-1.1872 -7.89837,-1.2358c0.02536,0.0486 -7.16032,-0.26382 -7.28529,-0.26382c-0.12497,0 -7.56058,0.18745 -7.56058,0.18745c0,0 -6.74829,1.37465 -6.77366,1.32605c0.02537,0.0486 -5.66069,1.79816 -5.68606,1.74956c0.02537,0.0486 -6.4105,1.86064 -6.43587,1.81204c0.02537,0.0486 -4.72343,2.0481 -4.74879,1.99949c0.02536,0.04861 -4.53599,3.11033 -4.53599,3.11033c0,0 -2.93675,2.56185 -2.96211,2.51325c0.02536,0.0486 -2.47401,2.67294 -2.49937,2.62433c0.02536,0.04861 -1.0237,1.7815 -1.47426,2.98536z" opacity="NaN" fill="#fff"/>
  
  <!--partie4-->
  <path class="product-shape4 shape" id="svg_10" d="m289.75986,519.47958l0.11028,1.50575l0.37187,2.66505l0.80571,3.22285l2.10724,3.3468l0.86769,3.16087l0.80571,3.9046l1.73538,3.78065l2.35516,3.78065l1.6734,3.03691l0.68176,2.2312l0,2.54109l0.49582,3.47076l1.42549,3.3468l2.66505,5.0202l2.04527,3.78065l2.789,3.78065l2.29318,2.85098c0.01368,0.04369 1.56312,1.4072 1.56312,1.4072c0,0 -0.37187,0.49582 -0.38554,0.45213c0.01368,0.04369 3.48443,6.24147 3.47076,6.19778c0.01368,0.04369 5.28179,6.17949 5.26811,6.1358c0.01368,0.04369 3.24535,2.79643 6.07382,5.63998c0.01368,0.04369 6.02552,3.51445 6.01185,3.47076c0.01368,0.04369 9.55826,3.76236 9.54458,3.71867c0.01368,0.04369 8.3187,2.77072 8.30502,2.72702c0.01368,0.04369 6.0875,0.53952 6.07382,0.49582c0.01368,0.04369 -0.11028,7.41905 -0.11028,7.41905c0,0 -0.20525,7.21752 -0.38554,7.76551c0.01368,0.04369 -0.85401,14.42254 -0.86769,14.37885c0.01368,0.04369 -1.53577,15.72407 -1.54944,15.68038c0.01368,0.04369 1.39248,20.46733 2.04527,26.46452c0.01368,0.04369 -2.15555,11.07574 -2.16922,11.03205c0.01368,0.04369 0.13763,8.3382 0.12396,11.83776c0.01368,0.04369 0.44752,10.0841 0.43384,10.0404c0.01368,0.04369 0.5095,5.55972 0.49582,5.51602c0.01368,0.04369 2.05894,6.98521 2.04527,6.94151c0.01368,0.04369 -0.02925,4.2989 0,5.94987c0.01368,0.04369 -1.96961,9.03047 -1.98329,8.98678c0.01368,0.04369 2.36883,2.08896 2.35516,2.04527c0.01368,0.04369 5.15783,1.53116 5.14416,1.48747c0.01368,0.04369 7.82288,-1.87762 7.8092,-1.92131c0.01368,0.04369 10.67386,-2.06355 10.66018,-2.10724c0.07618,0.10619 9.80617,-1.19586 9.79249,-1.23956c0.13868,0.04369 8.00881,-2.43542 7.99514,-2.47911c0.01368,0.04369 9.55826,-2.12553 9.54458,-2.16922c0.01368,0.04369 13.02901,-3.67498 13.01534,-3.71867c0.01368,0.04369 2.81502,-1.08291 13.13929,-3.9046c0.82617,-0.3938 13.64879,-3.36509 13.64879,-3.36509c0.1875,-0.0625 1.05362,-0.30989 1.03995,-0.35358c0.01368,0.04369 13.15297,-2.74531 13.13929,-2.789c0.01368,0.04369 6.70728,-1.50575 6.6936,-1.54944c0.01368,0.04369 14.02066,-3.79893 14.00698,-3.84262c0.01368,0.04369 1.99697,-0.57609 1.98329,-0.61978c0.01368,0.04369 9.31035,-2.43542 9.29667,-2.47911c0.01368,0.04369 10.34383,-2.98643 10.28831,-3.03691c0.07618,0.10619 17.49141,-4.10882 17.47774,-4.15251c0.01368,0.04369 2.98861,-0.70004 2.97493,-0.74373c0.01368,0.04369 13.8967,-3.17915 13.88303,-3.22285c0.01368,0.04369 9.4343,-2.24949 9.42062,-2.29318c0.13868,0.10619 12.69733,-3.03578 18.46938,-4.4624c0.13868,0.10619 21.08613,-5.22442 21.07245,-5.26811c0.01368,0.04369 1.99697,-0.51411 1.98329,-0.5578c0.01368,0.04369 12.65715,-2.93124 12.64347,-2.97493c0.01368,0.04369 11.97539,-2.74531 11.96171,-2.789c0.01368,0.04369 5.09586,-0.94795 5.08218,-0.99164c0.01368,0.04369 10.36397,-2.4974 10.35029,-2.54109c0.01368,0.04369 3.45762,-0.76822 4.95822,-1.23956c0.07618,0.10619 19.97053,-4.97651 19.95685,-5.0202c0.01368,0.04369 18.54504,-4.7286 18.53136,-4.77229c0.01368,0.04369 6.02552,-1.56773 6.01185,-1.61142c0.01368,0.04369 18.54504,-4.79058 18.53136,-4.83427c0.01368,0.04369 9.93012,-2.62135 9.91645,-2.66505c0.01368,0.04369 5.74593,-1.53957 6.75558,-1.85933c0.01368,0.04369 11.72748,-2.37344 11.7138,-2.41713c0.01368,0.04369 5.59168,-1.25784 5.578,-1.30153c0.13868,0.16869 17.73933,-4.35673 17.72565,-4.40042c0.01368,0.04369 3.2985,-0.824 3.28482,-0.86769c0.07618,0.10619 21.08613,-5.65826 21.07245,-5.70196c0.01368,0.04369 2.49279,-0.70004 2.47911,-0.74373c0.07618,0.10619 17.542,-3.79084 20.51465,-4.4624c0.01368,0.10619 32.614,-6.89782 32.614,-6.89782c0,0 24.71348,-5.85356 25.21129,-6.17949c0.07618,0.10619 19.04086,-4.1708 19.02718,-4.21449c0.01368,-0.01881 6.0875,-1.50575 6.07382,-1.54944c0.07618,0.10619 10.42595,-1.13389 10.41227,-1.17758c0.01368,0.04369 -4.63466,2.15094 -4.64833,2.10724c0.01368,0.04369 -9.90277,3.26654 -9.91645,3.22285c0.01368,0.04369 -8.66321,1.90303 -8.67689,1.85933c0.01368,0.04369 -14.86099,3.39049 -14.87467,3.3468c0.01368,0.04369 -11.7621,3.26654 -11.77578,3.22285c0.01368,0.04369 -10.02673,2.58478 -10.0404,2.54109c-0.12253,0.67182 -16.5439,4.16639 -17.41315,4.73829c0.01721,0.0055 -15.70516,3.51794 -15.72236,3.51244c0.01721,0.0055 -15.70516,3.35068 -15.72236,3.34518c0.01721,0.0055 -14.03256,2.68165 -14.04977,2.67615c0.01721,0.0055 -13.69805,2.84891 -13.71525,2.84341c0.01721,0.0055 -15.87242,4.01972 -15.88962,4.01422c0.0172,0.0055 -8.34575,2.17987 -8.36296,2.17437c0.0172,0.0055 -8.01124,1.67809 -8.02844,1.67259c0.0172,0.0055 -9.51657,1.84535 -9.53377,1.83985c0.0172,0.0055 -32.76559,8.87024 -32.7828,8.86474c0.0172,0.0055 -22.8973,5.85957 -22.91451,5.85407c0.0172,0.0055 -5.72699,1.70371 -15.22058,3.84696c0.0172,0.0055 -18.71582,4.68876 -18.73303,4.68326c0.0172,0.0055 -17.71227,4.18698 -17.72947,4.18148c0.0172,0.0055 -13.86531,3.85246 -13.88251,3.84696c0.0172,0.0055 -18.04679,4.5215 -18.06399,4.516c0.0172,0.0055 -17.04323,4.35424 -17.06043,4.34874c0.0172,0.0055 -18.88308,5.02328 -18.90029,5.01777c0.0172,0.0055 -18.04679,4.01972 -18.06399,4.01422c0.0172,0.0055 -22.39553,6.19409 -22.41273,6.18859c0.0172,0.0055 -27.24604,7.03039 -27.26324,7.02488c0.0172,0.0055 -8.96939,2.25571 -16.55866,4.18148c0.0172,0.0055 -21.22471,6.52861 -21.24191,6.52311c0.0172,0.0055 -7.67672,2.34713 -7.69392,2.34163c0.0172,0.0055 -11.35642,3.85246 -11.37362,3.84696c0.0172,0.0055 -11.18917,3.51795 -11.20636,3.51244c0.0172,0.0055 -11.8582,3.01617 -11.8754,3.01066c0.0172,0.0055 -17.2105,5.02328 -17.22769,5.01777c0.0172,0.0055 -6.84043,1.00906 -6.85763,1.00355c0.0172,0.0055 -19.71938,-0.32902 -19.73658,-0.33452c0.0172,0.0055 -2.15717,-0.83079 -2.17437,-0.8363c0.0172,0.0055 -4.66606,-8.52471 -4.68326,-8.53022c0.0172,0.0055 -10.35287,-16.72041 -10.37007,-16.72592c0.0172,0.0055 -3.49525,-5.51405 -3.51244,-5.51955c0.0172,0.0055 -5.50236,-12.20442 -5.51955,-12.20992c0.0172,0.0055 -8.68028,-19.39656 -8.69748,-19.40206c0.0172,0.0055 -7.17495,-15.88412 -7.19214,-15.88962c0.0172,0.0055 -1.08734,-1.90995 -8.53022,-19.2348c0.0172,0.0055 -2.49169,-11.70264 -2.49169,-11.70264c0,0 -3.01066,-17.22769 -3.02786,-17.23319c0.0172,0.0055 -3.16073,-19.39656 -3.17792,-19.40206c0.0172,0.0055 -2.99347,-16.72042 -3.01066,-16.72592c0.0172,0.0055 -0.15006,-16.55316 -0.15006,-16.55316c0,0 0.67081,-5.43853 1.15362,-19.40756c0.0172,0.0055 0.85349,-15.38234 0.8363,-15.38784c0.0172,0.0055 1.68979,-10.53183 1.67259,-10.53733c0.0172,0.0055 0.77751,-1.54825 1.57233,-3.03804z" opacity="NaN" fill="#fff"/>
  <path class="product-shape4 shape" style="vector-effect: non-scaling-stroke;" id="svg_11" d="m900.41635,612.26702l9.88366,-2.58788l4.31244,-1.18749l10.93735,-2.43746l7.3124,-1.62498l15.24979,-3.99995l0.74999,-0.24999l14.9998,-1.74998l11.06235,-1.74997l2.99996,-0.4375l13.18731,-3.37495l4.49994,-1.62499l4.37494,-1.87496l2.37497,-1.18749l10.06236,-6.06242l1.18749,-1.18748l2.93745,-3.68744l0.81249,-1.93748l1.31248,-4.31244l2.12497,-6.56241l-0.5625,5.12493c0.05371,0.02542 -0.57129,4.15036 -0.57129,4.15036c0,0 -2.56246,4.93744 -2.61616,4.91201c0.0537,0.02543 -1.88377,2.27539 -1.88377,2.27539c0,0 -2.99996,3.49996 -3.05366,3.47453c0.0537,0.02543 -3.82125,3.15038 -3.87495,3.12496c0.0537,0.02542 -4.25874,3.40038 -4.31244,3.37495c0.0537,0.02543 -3.00876,2.40039 -3.06246,2.37497c0.0537,0.02542 -2.94626,1.9004 -2.99996,1.87498c0.0537,0.02542 -3.82124,0.90041 -3.82124,0.96291c0,0.0625 -3.81245,0.99998 -3.87495,0.99998c-0.0625,0 -6.93741,1.24999 -6.99111,1.22456c0.0537,0.02543 -6.6337,1.46291 -6.6874,1.43748c0.0537,0.02543 -6.00872,1.33791 -6.07122,1.33791c-0.0625,0 -4.81243,1.12498 -4.86613,1.09956c0.0537,0.02542 -7.6337,0.96291 -7.6874,0.93749c0.0537,0.02542 -8.00869,0.15042 -8.00869,0.15042c0,0 -4.56244,1.37498 -4.61614,1.34956c0.0537,0.02542 -2.02216,0.46649 -4.93743,1.18748c0.0537,0.02542 -6.50871,1.15041 -6.56241,1.12498c0.0537,0.02543 -4.32124,1.08791 -4.32124,1.08791c0,0 -6.18741,1.37498 -6.18741,1.37498c0,0 -6.06242,1.24999 -6.06242,1.24999c0,0 -5.37493,0.87498 -5.37493,0.87498c0,0 -6.43741,1.12499 -6.49111,1.09957c0.0537,0.02542 -4.00874,0.46291 -4.00874,0.46291c0,0 -4.93743,-0.31249 -4.99113,-0.33792c0.0537,0.02543 2.59675,-0.39047 4.11614,-0.47457z" opacity="NaN" fill="#fff"/>
    <!--elastic1-->
  <path class="product-shape5 shape" style="vector-effect: non-scaling-stroke;" id="svg_12" d="m1054.49294,511.04212l1.72126,0.14755l8.50038,1.00005l10.3338,-0.16667l10.00045,-1.00005l7.33366,-1.83342l5.8336,-2.16676l6.83364,-3.66683l5.8336,-3.83351l5.00023,-4.16685l4.16685,-5.33357l4.00018,-5.8336l2.66679,-5.00023l2.00009,-5.00023l1.00005,-4.66688l0.83337,-6.33362l-0.16667,-6.00027l-1.33339,-6.16694l-1.83342,-4.5002l-1.83342,-3.16681l-1.50007,-1.66674l-7.66701,0.6667l-10.00045,0.6667l-7.16699,0.33335l-11.33384,0.50002l-12.00054,0.33335l-9.50043,0.33335l-10.00045,0.33335l-9.50043,-0.33335l-8.50038,-0.6667l-5.50025,-0.16667l0.16667,-2.50011l0.33334,-4.16686l3.16668,0.33311l6.33376,0.3336l6.00027,0.50002l6.83364,0.33335l5.00023,0l1.50007,-0.83337l-2.50011,-1.00005l-5.1669,-0.6667l-5.66692,-0.16667l-5.50025,-0.50002l-3.83351,-0.33335l-5.8336,-0.50001l1.16672,-6.83365l9.16709,0.83337l12.33389,1.16672l9.00041,1.33339l11.50052,1.66674l8.33371,0.6667c0.11216,0.01912 11.11265,0.51914 11.11265,0.51914c0,0 9.33375,0.50002 9.2216,0.4809c0.11216,0.01912 8.44586,-0.14755 8.33371,-0.16667c0.11216,0.01912 5.44573,-0.4809 5.33357,-0.50002c0.11216,0.01912 -1.72126,-2.31432 -1.83342,-2.33344c0.11216,0.01912 -3.05465,-2.81434 -3.16681,-2.83346c0.11216,0.01912 -4.55472,-3.48104 -4.66688,-3.50016c0.11216,0.01912 -4.0547,-2.98101 -4.16685,-3.00014c0.11216,0.01912 -4.22137,-2.48099 -4.33353,-2.50011c0.11216,0.01912 -6.05479,-2.64766 -6.16694,-2.66679c0.11216,0.01912 -5.22142,-1.98097 -5.33357,-2.00009c0.11216,0.01912 -4.88807,-1.48095 -5.00023,-1.50007c0.11216,0.01912 -5.88811,-1.1476 -6.00027,-1.16672c0.11216,0.01912 -7.05483,-1.1476 -7.16699,-1.16672c0.11216,0.01912 -6.38814,-0.64757 -6.50029,-0.6667c0.11216,0.01912 -6.22146,-0.14755 -6.33362,-0.16667c0.11216,0.01912 -8.72158,-0.31423 -8.83373,-0.33335c0.11216,0.01912 -5.88812,0.01912 -6.00027,0c0.11215,0.01912 -7.05483,0.01912 -7.16699,0c0.11215,0.01912 0.27883,-3.31436 0.16667,-3.33348c0.11215,0.01912 0.61218,-4.31441 0.50002,-4.33353c0.11215,0.01912 5.44573,-0.14755 5.33357,-0.16667c0.11215,0.01912 9.44591,-0.14755 9.33375,-0.16667c0.11216,0.01912 9.11256,0.1858 9.00041,0.16667c0.11216,0.01912 6.44577,0.1858 6.33362,0.16667c0.11216,0.01912 7.11247,0.85249 7.00032,0.83337c0.11216,0.01912 6.44577,1.18584 6.33362,1.16672c0.11216,0.01912 8.27919,1.68586 8.16703,1.66674c0.11216,0.01912 7.11247,2.18589 7.00032,2.16676c0.11216,0.01912 5.44573,2.35256 5.33357,2.33344c0.11216,0.01912 6.44577,3.35261 6.33362,3.33348c0.11216,0.01912 5.94575,3.68595 5.8336,3.66683c0.11216,0.01912 5.94575,4.51932 5.8336,4.5002c0.11216,0.01912 3.77899,3.18593 3.66683,3.16681c0.11216,0.01912 2.61227,2.18589 2.50011,2.16676c0.11216,0.01912 3.11229,-1.64762 3.00014,-1.66674c0.11216,0.01912 3.27896,-0.81425 3.16681,-0.83337c0.11216,0.01912 4.77903,-0.31423 4.66688,-0.33335c0.11216,0.01912 2.61227,0.51914 2.50011,0.50002c0.11216,0.01912 2.11225,1.85254 2.00009,1.83342c0.11216,0.01912 3.61231,3.18593 3.50016,3.16681c0.11216,0.01912 2.27892,2.01921 2.16676,2.00009c0.11216,0.01912 0.27883,2.01921 0.16667,2.00009c0.11216,0.01912 -0.72122,1.85254 -0.83337,1.83342c0.11216,0.01912 3.94566,2.35256 3.83351,2.33344c0.11216,0.01912 5.77908,3.51928 5.66692,3.50016c0.11216,0.01912 6.2791,2.51923 6.16694,2.50011c0.11216,0.01912 4.94571,2.51923 4.83355,2.50011c0.11216,0.01912 3.27897,2.35256 3.16681,2.33344c0.11216,0.01912 1.27888,2.85258 1.16672,2.83346c0.11216,0.01912 0.11216,2.51923 0,2.50011c0.11216,0.01912 -1.38791,1.68586 -1.50007,1.66674c0.11216,0.01912 -2.88798,0.35247 -3.00014,0.33335c0.11216,0.01912 -3.72135,-0.98092 -3.83351,-1.00005c0.11216,0.01912 -6.05479,-2.48099 -6.16694,-2.50011c0.11216,0.01912 -5.88811,-2.64766 -6.00027,-2.66679c0.11216,0.01912 -4.38805,-2.31432 -4.5002,-2.33344c0.11216,0.01912 -2.88798,-1.1476 -3.00014,-1.16672c0.11216,0.01912 -2.72131,0.51914 -2.83346,0.50002c0.11216,0.01912 -1.72126,0.85249 -1.83342,0.83337c0.11216,0.01912 1.27887,4.35265 1.16672,4.33353c0.11216,0.01912 1.1122,5.51937 1.00005,5.50025c0.11216,0.01912 0.4455,5.01935 0.33335,5.00023c0.11216,0.01912 -0.38787,7.18611 -0.50002,7.16699c0.11216,0.01912 -1.38791,6.35274 -1.50007,6.33362c0.11216,0.01912 -2.38796,7.01944 -2.50011,7.00032c0.11216,0.01912 -3.88802,7.01944 -3.88802,7.01944c0,0 -4.33353,6.16694 -4.44568,6.14782c0.11216,0.01912 -4.7214,4.85267 -4.83355,4.83355c0.11216,0.01912 -5.05474,4.85267 -5.1669,4.83355c0.11216,0.01912 -5.55477,3.85263 -5.66692,3.83351c0.11216,0.01912 -6.72149,3.68595 -6.83364,3.66683c0.11216,0.01912 -6.72149,3.01926 -6.83364,3.00014c0.11216,0.01912 -7.8882,2.35256 -8.00036,2.33344c0.11216,0.01912 -8.5549,1.35252 -8.66706,1.33339c0.11216,0.01912 -6.22146,0.85249 -6.33362,0.83337c0.11216,0.01912 -6.05479,0.01912 -6.16694,0c0.11216,0.01912 -6.55481,-0.4809 -6.66697,-0.50002c0.11216,0.01912 -4.0547,-0.64757 -4.16685,-0.6667c0.11216,0.01912 -4.0547,0.01912 -4.16685,0c0.11216,0.01912 -1.55459,0.01912 -1.66674,0c0.11216,0.01912 0.86074,-5.72335 2.44559,-8.81461z" opacity="NaN" fill="#fff"/>
  <!--elastic2-->
  <path class="product-shape6 shape" id="svg_13" d="m874.70951,304.73142l1.05564,1.07745l0.87445,2.12367l0.87446,2.49844l0.56214,2.06121l-0.74953,-0.12492l-2.62336,0.68708l-3.87258,1.49905l-2.12367,1.18677l-4.05996,2.74828l-1.31168,1.65521l-1.31168,1.65522l-0.99938,1.81136l-0.3123,1.87383l0.12492,1.43661l0.87447,1.49907l3.18549,1.7489l1.49906,0.12492l2.93567,0.68707l3.62274,0.99937l3.06058,0.49969c0.0062,0.04685 4.06616,0.67146 4.06616,0.67146c0,0 5.05934,0.43722 5.05934,0.43722c0,0 0.68707,0.81199 0.68087,0.76515c0.0062,0.04684 0.50589,1.67083 0.49969,1.62398c0.0062,0.04685 1.19295,2.29544 1.18676,2.2486c0.00619,0.04684 1.38034,2.48282 1.37414,2.43598c0.0062,0.04684 0.75573,2.17051 0.74953,2.12367c0.0062,0.04684 0.19358,0.42239 -0.06247,1.24921c-1.68037,-0.07809 -5.67774,-0.26545 -5.68394,-0.3123c0.0062,0.04685 -8.61341,-1.76452 -8.61961,-1.81136c0.0062,0.04684 -1.93009,0.04684 -1.93629,0c0.0062,0.04684 -4.24115,-0.51531 -4.24734,-0.56215c0.00619,0.04684 -3.92885,-1.07745 -3.93504,-1.1243c0.00619,0.04685 -3.55408,-1.20237 -3.56028,-1.24922c0.0062,0.04685 -1.61779,-1.3273 -1.62398,-1.37414c0.00619,0.04684 -0.68088,-0.70269 -0.68708,-0.74953c0.0062,0.04684 -2.42978,-1.70206 -2.43597,-1.74891c0.00619,0.04685 -2.11748,-2.70144 -2.12368,-2.74828c0.0062,0.04684 -1.18056,-3.13867 -1.18675,-3.18551c0.00619,0.04684 -0.86826,-4.63773 -0.87446,-4.68457c0.0062,0.04684 1.00557,-3.8882 1.00557,-3.82574c0,0.06246 1.24922,-2.06121 1.24303,-2.10805c0.00619,0.04684 0.81819,-1.51468 0.81199,-1.56153c0.0062,0.04685 3.25417,-3.38851 3.24797,-3.43535c0.0062,0.04684 3.81631,-2.95128 3.81012,-2.99813c0.00619,0.04685 3.62893,-2.7639 3.62273,-2.81074c0.0062,0.04684 2.25479,-0.76515 2.2486,-0.81199c0.00619,0.04684 1.50526,-0.64023 1.49906,-0.68707c0.0062,0.04684 4.82982,-1.40031 4.56585,-1.51468z" opacity="NaN" fill="#fff"/>
  <path class="product-shape6 shape" style="vector-effect: non-scaling-stroke;" id="svg_15" d="m891.46088,347.25807l0.98037,-0.57585l0.99944,1.99889l1.74903,2.8734l2.24875,3.24819l1.81149,2.31121c0.01908,0.01366 1.9555,1.82516 1.9555,1.82516c0,0 2.06135,0.93698 2.04227,0.92331c0.01908,0.01366 0.58127,-1.4855 0.56219,-1.49917c0.01908,0.01366 0.01908,-3.35946 0,-3.37312c0.01908,0.01366 -0.41818,-2.04769 -0.43726,-2.06135c0.01908,0.01366 -0.79297,-2.04769 -0.79297,-2.11016c0,-0.06247 -2.06135,-1.31177 -2.12382,-1.37424c-0.06247,-0.06247 -1.81149,-1.4367 -1.87396,-1.49917c-0.06247,-0.06247 -2.74847,-2.8734 -2.76755,-2.88707c0.01908,0.01366 -1.79241,-2.85974 -1.91734,-2.9222c-0.12493,-0.06247 -0.81205,-2.81094 -0.83113,-2.8246c0.01908,0.01366 -0.7305,-0.61099 -1.37424,-2.24875c0.01908,0.01366 -0.29325,-1.54797 -0.31233,-1.56163c0.01908,0.01366 0.58127,-0.92331 0.7062,-0.92331c0.12493,0 1.81149,0 1.87396,0c0.06247,0 1.68656,0.56219 1.74903,0.56219c0.06247,0 1.74903,1.18684 1.72995,1.17318c0.01908,0.01366 3.45467,1.45037 3.43559,1.4367c0.01908,0.01366 3.3922,1.70023 3.37312,1.68656c0.01908,0.01366 2.01797,1.51283 1.99889,1.49917c0.01908,0.01366 3.07988,3.26186 3.0608,3.24819c0.01908,0.01366 2.08043,3.19939 2.06135,3.18573c0.01908,0.01366 1.14345,2.26241 1.12437,2.24875c0.01908,0.01366 0.64373,2.94953 0.62465,2.93587c0.01908,0.01366 0.01908,3.13693 0,3.12326c0.01908,0.01366 0.01908,4.82349 0,4.80983c0.01908,0.01366 -0.35571,3.57418 -0.37479,3.56052c0.01908,0.01366 2.39276,3.57418 2.37368,3.56052c0.01908,0.01366 0.45634,0.88818 0.43726,0.87451c0.01908,0.01366 0.20647,1.76269 0.1874,1.74903c0.01908,0.01366 0.5188,2.07502 0.49972,2.06135c0.01908,0.01366 -0.23078,2.07502 -0.24986,2.06135c0.01908,0.01366 0.76866,1.95009 0.74958,1.93642c0.01908,0.01366 0.20647,1.51283 0.1874,1.49917c0.01908,0.01366 -0.41818,1.5753 -0.74958,2.18628c0.01908,0.01366 -0.66804,4.57363 -0.68712,4.55996c0.01908,0.01366 -2.04227,1.70023 -2.06135,1.68656c0.01908,0.01366 -2.29214,1.01311 -2.31121,0.99944c0.01908,0.01366 -1.29269,2.8246 -1.31177,2.81094c0.01908,0.01366 -1.04283,1.13804 -1.06191,1.12437c0.01908,0.01366 -2.10474,1.63776 -2.12382,1.6241c0.01908,0.01366 -3.29158,1.82516 -3.31066,1.81149c-0.04339,0.13859 -3.91623,0.70078 -3.93531,0.68712c0.01908,0.07613 -4.66582,-0.54852 -4.68489,-0.56219c0.01908,0.01366 -1.97981,-1.73536 -1.99889,-1.74903c0.01908,0.01366 -15.22245,5.44814 -15.24152,5.43448c0.01908,0.01366 -3.29158,4.38623 -3.31066,4.37257c0.01908,0.01366 -2.3546,0.70078 -2.37368,0.68712c-0.04339,0.26353 -3.10418,-0.42359 -3.12326,-0.43726c0.01908,0.01366 -3.16665,-0.61099 -3.18573,-0.62465c0.01908,0.01366 -0.79297,-2.98467 -0.81205,-2.99833c0.01908,0.01366 -0.48064,0.07613 -0.49972,0.06247c0.01908,0.01366 -0.23078,-3.17206 -0.24986,-3.18573c0.01908,0.01366 0.5188,-3.92165 0.49972,-3.93531c0.08154,0.07613 3.01741,-2.85974 2.99833,-2.8734c0.01908,0.01366 5.0163,-1.79783 4.99722,-1.81149c0.01908,0.01366 4.20425,-0.17373 4.18517,-0.1874c0.01908,0.01366 6.82779,-2.54741 6.80871,-2.56108c0.01908,0.01366 7.8897,-2.67234 7.87062,-2.68601c0.01908,0.01366 -6.22745,-1.61043 -6.24653,-1.6241c0.01908,0.01366 -15.40984,-3.98411 -15.42892,-3.99778c0.01908,0.01366 -2.47953,-0.73592 -2.49861,-0.74958c0.01908,0.01366 -2.72939,-0.98578 -2.74847,-0.99944c0.01908,0.01366 -3.72884,-1.11071 -3.74792,-1.12437c-0.04339,0.01366 -2.41707,-1.29811 -2.43615,-1.31177c-0.10585,0.07613 -1.85488,-3.42193 -1.87396,-3.43559c0.01908,0.01366 0.45634,-3.297 0.43726,-3.31066c0.5188,-0.17373 2.95495,-2.79727 2.93587,-2.81094c0.01908,0.01366 3.76699,-1.11071 3.74792,-1.12437c0.01908,0.01366 3.32974,1.32543 3.31066,1.31177c0.01908,0.01366 3.26727,1.95009 3.24819,1.93642c0.01908,0.01366 5.2037,2.51227 5.18462,2.49861c0.01908,0.01366 7.38998,2.88707 7.3709,2.8734c0.01908,0.01366 6.01574,1.2005 5.99667,1.18684c0.01908,0.01366 2.58015,1.3879 2.56108,1.37424c0.45634,0.01366 1.64318,-2.36002 1.6241,-2.37368c0.01908,0.01366 -2.66693,-4.67123 -2.68601,-4.68489c0.01908,0.01366 -2.91679,-3.92165 -2.93587,-3.93531c0.01908,0.01366 -0.04339,-2.73481 -0.12493,-4.3101c0.01908,0.01366 1.33085,-5.17095 1.31177,-5.18462c0.01908,0.01366 1.45578,-3.17206 1.4367,-3.18573c0.01908,0.01366 0.14401,-0.29866 1.76811,-1.98522z" opacity="NaN" fill="#fff"/>
 </g>
</svg>