<svg id="product-svg" data-name="Calque 1" xmlns="http://www.w3.org/2000/svg" xmlns:xlink="http://www.w3.org/1999/xlink" viewBox="44 -12 1280 850">
<!--partie1-->
  <polygon class="product-shape1 shape" points="322.09 368.49 324.3 367.13 328.21 366.45 332.29 365.77 338.4 365.77 348.09 365.77 361.85 365.77 374.09 364.92 383.94 364.92 396.46 363.27 401.37 362.52 412.85 362.52 417.39 361.8 422.78 361.2 426.72 367.54 431.99 375.68 438.81 385.85 447.66 398.05 453.88 408.21 457.47 415.27 459.62 419.94 460.34 423.05 458.18 423.76 457.23 425.8 457.35 430.58 457.35 437.16 458.78 438.24 460.34 439.43 460.34 447.33 460.34 453.31 458.42 454.86 458.18 459.05 458.3 463.84 459.5 466.95 459.86 469.34 456.87 476.28 454.36 483.09 451.6 489.31 448.49 495.65 432.71 495.65 415.72 494.46 401.96 493.98 390.6 493.26 375.17 492.78 361.05 492.54 351.13 491.59 336.65 491.23 325.65 490.39 312.49 490.39 308.9 489.79 306.15 487.4 303.76 483.81 302.32 480.94 302.32 468.14 302.32 464.91 301.13 462.28 297.9 457.09 295.36 454.11 295.36 444.77 296.63 436.39 298.96 428.43 301.94 419.83 306.18 407.63 309.58 397.44 311.91 390.86 314.78 385.44 315.6 383.46 317.87 378.66 320.53 371.92 322.09 368.49"/>
  <polygon class="product-shape1 shape" points="462.62 478.56 464.25 478.56 465.09 481.17 466.43 482.87 468.2 484.7 469.26 487.53 469.61 490.42 470.39 491.69 470.39 494.17 471.38 495.65 471.38 498.4 467 497.98 462.62 497.48 458.6 497.27 455.84 496.92 457.18 492.75 459.09 489.08 460.64 485.55 461.42 482.3 462.62 478.56"/>
  <polygon class="product-shape1 shape" points="431.51 361.2 439.96 360.74 448.34 360.36 454.6 360.78 459.5 361.72 465.31 361.72 470.66 362.25 475.27 362.85 473.15 366.25 471.19 371.38 469.99 376.81 468.93 382.09 468.1 387.75 467.35 393.48 466.82 399.59 467.12 404.95 465.08 408.27 462.59 412.27 457.92 404.42 454.45 399.06 449.92 391.44 446.15 386.32 441.85 379.98 438.3 374.17 434.83 368.29 432.42 363.91 431.51 361.2"/>
  <polygon class="product-shape1 shape" points="471.54 414.95 473.43 414.27 479.77 414.27 485.81 414.61 490.57 414.61 497.22 414.61 501.53 414.95 506.66 415.63 505.38 418.35 501.75 418.35 497.98 418.35 491.86 417.89 484.61 417.74 477.35 417.59 472.37 417.59 471.54 417.52 471.54 414.95"/>
  <polygon class="product-shape1 shape" points="520.79 363.62 527.1 363.62 534.87 363.62 541.96 364.11 537.59 370.51 531.96 378.28 527.69 384.59 523.42 390.8 519.63 396.63 514.48 403.71 514 399.25 513.42 394.49 512.25 389.64 510.6 385.85 509.63 380.61 509.63 376.44 510.31 372.07 511.57 368.86 513.51 366.83 517.11 365.08 520.79 363.62"/>
  <polygon class="product-shape1 shape" points="550.29 365.11 553.55 366.15 555.91 367.92 557.98 368.96 561.68 368.96 566.27 367.04 570.56 365.85 579 365.7 587.58 366.15 592.61 367.04 595.57 368.07 601.04 368.37 607.26 368.37 609.48 368.96 615.3 369.42 618.7 369.95 625.23 369.95 632.9 369.95 642.07 370.78 653.37 370.78 661.81 370.78 671.5 369.88 681.73 368.99 691.79 367.19 700.58 365.11 707.58 361.99 711.71 361.09 718.53 361.99 724.63 362.34 734.32 362.7 739.89 364.32 746.71 365.93 753.35 367.91 753.35 379.58 753.35 386.58 751.38 390.52 750.3 396.63 750.12 405.24 748.86 414.22 748.5 423.91 747.97 428.4 746.89 434.5 747.25 439.35 746.35 447.6 745.09 455.32 744.91 462.14 744.55 470.22 743.3 474.53 743.3 479.73 743.48 485.47 743.84 490.68 744.38 496.06 745.09 502.7 745.27 506.83 741.14 510.42 737.73 511.86 726.79 512.58 698.25 511.86 672.76 511.32 651.82 510.24 633.99 509.35 608.14 508.27 587.86 507.91 573.68 506.65 560.4 505.4 549.27 504.32 539.22 503.42 527.19 502.7 517.14 502.17 512.3 501.99 511.4 495.65 512.84 491.04 513.37 487.45 515.71 484.94 517.14 483.14 516.43 473.81 515.53 460.17 515.35 448.86 515.53 436.83 516.25 425.7 516.43 414.27 521.63 406.68 526.84 398.6 533.3 389.81 538.86 381.01 544.25 372.58 550.29 365.11"/>
  <polygon class="product-shape1 shape" points="502.65 585.01 502.2 586.64 499.74 591.91 497.44 596.58 493.45 602.54 488.94 607.3 483.41 611.29 478.31 613.93 474.06 615.97 468.96 617.16 463.52 617.67 458.33 617.67 453.4 617.07 450 616.56 447.03 615.12 443.2 612.48 439.37 609.51 435.21 605.26 432.49 601.94 429.6 596.24 427.39 590.72 426.45 585.19 426.11 579.07 426.45 575.5 431.06 575.5 435.61 575.5 441.57 576.03 447.46 577.29 453.06 577.92 459.44 578.98 464.38 580.1 469.11 581.29 475 581.92 481.59 582.9 487.47 583.32 493.64 584.37 498.9 584.58 502.65 585.01"/>
  <polygon class="product-shape1 shape" points="505.38 418.35 501.75 418.35 497.98 418.35 498.19 420.12 499.02 422.18 502.31 423.64 503.73 420.81 505.38 418.35"/>
  <polygon class="product-shape1 shape" points="720.89 603.13 727.47 602.46 732.5 601.57 736.85 600.56 741.32 599.56 743.78 598.67 746.45 597.44 748.58 599.11 748.58 607.04 748.58 620.55 747.68 627.81 746.79 637.41 745.78 647.35 744.45 653.6 743.22 659.63 741.65 664.77 740.09 668.79 737.97 672.81 736.18 676.49 733.5 679.73 730.04 682.85 727.14 685.42 723.79 687.54 719.99 688.55 716.2 689.11 708.83 688.55 702.02 687.77 694.09 686.54 686.27 685.53 677.23 684.42 668.85 683.41 662.49 681.63 653.56 680.51 645.52 679.51 637.14 677.5 629.55 675.49 624.42 674.37 617.72 673.92 612.02 672.14 607.44 668.34 598.51 668.56 588.24 668.34 581.99 667.78 574.06 666.55 566.47 665.66 561.33 664.43 556.19 663.54 547.04 662.65 537.66 661.53 530.07 660.41 518.9 658.96 510.86 657.73 503.16 656.62 496.35 655.72 484.96 654.72 477.7 653.6 470 652.6 461.18 651.7 451.68 651.48 444.09 650.14 434.27 648.91 427.12 647.8 419.75 647.57 413.61 647.01 412.83 645.67 406.91 645.45 402.33 645.45 396.42 644.67 390.16 643.27 382.57 643.27 376.43 643.27 370.51 642.66 366.83 643.27 357.78 643.27 350.64 643.27 342.26 642.44 338.47 638.97 333.22 634.62 329.09 629.82 324.06 623.34 320.38 616.64 317.14 610.95 316.25 605.59 316.25 600.56 316.25 592.86 315.46 587.61 314.91 579.91 314.35 571.76 314.35 565.17 314.35 563.61 316.25 562.71 319.04 563.83 321.61 564.39 326.52 565.28 332.21 565.62 338.13 566.4 343.27 567.18 346.51 567.85 346.39 574.33 347.62 580.02 348.74 583.48 349.3 588.17 350.08 591.86 354.54 593.08 361.02 594.42 368.84 596.1 377.88 597.44 384.13 598.22 389.6 599.34 397.2 600.01 403.11 600.56 406.13 600.56 408.25 595.21 410.37 589.73 411.82 585.71 411.71 581.03 411.04 577.12 411.38 573.54 414.73 573.54 418.34 574.47 418.45 579.53 419.58 588.76 421.48 595.87 424.12 602.38 427.45 607.37 430.25 611.3 434.18 615.24 439.25 618.71 444.09 621.21 449.84 623.4 455.74 625.07 464.14 625.07 471.14 624.46 476.62 623.03 483.35 620.08 488.87 616.67 494.39 612.13 498.93 607.75 502.34 602.75 505.14 598.52 507.56 593.07 510.13 587.1 510.45 586.47 516.18 586.94 525.64 587.56 534.42 588.11 544.45 588.82 551.19 589.68 561.69 590.62 569.53 591.95 580.74 593.68 595.6 595.17 608.25 596.06 620.78 596.81 631.79 597.57 643.56 598.08 656.46 598.33 664.81 599.09 674.94 599.98 684.35 601.5 692.02 602.51 703.41 603.52 711.25 603.77 716.95 603.52 720.89 603.13"/>
  
<!--partie2-->
  <polygon class="product-shape2 shape" points="757.23 343.65 757.23 349.62 757.23 357.12 757.23 363.09 755.53 366.16 753.35 367.91 746.71 365.93 739.89 364.32 734.32 362.7 724.63 362.34 718.53 361.99 711.71 361.09 707.58 361.99 700.58 365.11 691.79 367.19 681.73 368.99 671.5 369.88 661.81 370.78 653.37 370.78 642.07 370.78 632.9 369.95 625.23 369.95 618.7 369.95 615.3 369.42 609.48 368.96 607.26 368.37 601.04 368.37 595.57 368.07 592.61 367.04 587.58 366.15 579 365.7 570.56 365.85 566.27 367.04 561.68 368.96 557.98 368.96 555.91 367.92 553.55 366.15 550.29 365.11 551.39 363.62 554.12 363.62 557.02 364.97 559.75 366.33 563.84 364.97 570.5 362.92 577.83 362.24 583.8 359.85 589.6 357.22 597.1 355.76 606.48 354.39 614.84 353.03 622.51 351.49 630.87 349.96 639.39 348.08 647.75 347.23 656.11 345.7 662.93 345.01 671.45 343.65 681.52 342.11 691.24 340.75 702.32 339.39 717.33 337.85 726.23 336.2 732.07 335.6 736.93 336.89 744.21 339.62 749.22 341.97 757.23 343.65"/>
  <polygon class="product-shape2 shape" points="431.51 361.2 428.98 356.8 426.78 353.65 425.63 352.02 431.51 352.5 436.81 352.6 440.45 353.08 444.75 353.94 448.38 354.51 449.81 358.33 450.77 360.53 448.34 360.36 439.96 360.74 431.51 361.2"/>
  <polygon class="product-shape2 shape" points="422.78 361.2 420.23 358.09 417.29 353.67 416 351.37 410.67 350.82 400.46 350.27 390.8 349.9 385.65 349.26 380.68 349.26 377.18 349.26 374.42 350.54 366.97 350.73 362.83 350.54 358.05 349.26 353.73 348.52 348.48 348.52 344.16 348.52 337.72 348.52 333.49 348.52 331.19 349.81 328.98 352.02 327.14 354.86 325.76 357.81 324.66 361.2 322.63 363.79 321.44 365.63 322.09 368.49 324.3 367.13 328.21 366.45 332.29 365.77 338.4 365.77 348.09 365.77 361.85 365.77 374.09 364.92 383.94 364.92 396.46 363.27 401.37 362.52 412.85 362.52 417.39 361.8 422.78 361.2"/>
  
<!--partie3-->
  <polygon class="product-shape3 shape" points="444.52 338.68 444.52 343.14 445.85 347.56 447.07 351.28 448.38 354.51 449.81 358.33 450.77 360.53 454.6 360.78 459.5 361.72 465.31 361.72 470.66 362.25 475.27 362.85 478.59 360.36 480.41 359.51 485.17 359.6 488.38 360.36 494.35 360.36 501.02 360.36 506.91 360.36 511.4 360.36 516.09 360.36 518 362.28 520.79 363.62 527.1 363.62 534.87 363.62 541.96 364.11 544.42 359.6 545.54 358.12 545.2 354.14 544.07 349.29 543.53 344.53 534.19 342.73 524.74 341.94 510.89 340.71 501.78 339.58 490.41 339.36 479.15 338.68 466.21 338.68 454.28 338.68 444.52 338.68"/>

<!--partie4-->
  <polygon class="product-shape4 shape" points="370.36 274.37 367.21 277.52 365.01 281.72 363.22 287.49 363.22 297.67 363.22 305.86 363.22 318.87 363.85 329.37 363.85 335.03 366.27 337.76 370.36 339.34 381.07 339.34 393.77 340.18 401.01 340.7 410.87 340.7 408.77 334.19 406.78 327.27 405 320.55 404.16 316.46 404.05 314.46 400.8 312.68 399.22 310.68 398.7 307.54 399.54 304.39 401.32 301.55 403.84 299.24 406.99 297.46 410.87 296.1 414.13 295.68 416.75 296.41 418.75 298.51 419.48 300.92 419.48 303.55 418.33 305.75 416.75 308.17 414.76 310.37 412.55 312.26 410.98 312.78 411.61 318.35 413.18 324.12 414.65 329.05 416.12 334.4 418.75 340.28 424.31 340.7 430.6 339.55 437.74 339.44 444.52 338.68 454.28 338.68 466.21 338.68 479.15 338.68 490.41 339.36 501.78 339.58 510.89 340.71 524.74 341.94 534.19 342.73 543.53 344.53 547.73 345.53 550.29 346.26 552.25 347.52 556.76 342.28 561.69 336.82 566.73 330.84 571.35 325.9 575.65 321.49 580.79 316.46 585.73 311.73 589.19 308.69 593.6 305.02 595.38 303.86 596.22 301.55 598.32 298.93 600.84 296.73 604.3 294.52 606.93 293.37 610.08 293.26 612.17 293.79 613.85 295.57 615.01 297.99 615.01 300.71 615.01 303.97 613.12 306.7 611.75 309.01 608.61 311.52 605.67 313.62 602.62 314.78 600.42 315.51 598.01 315.09 596.54 313.52 594.86 312.57 591.18 316.14 587.72 319.71 583.94 323.38 579.85 327.16 575.65 331.36 571.56 335.6 567.25 340.39 564.11 343.74 561.59 347.52 570.3 347.52 579.64 348.05 585.62 348.05 591.5 347.63 597.06 347.63 602.1 347.31 605.77 346.47 610.39 343.43 618.26 337.24 624.66 331.89 632.37 325.38 637.57 320.13 644.6 314.04 651.32 308.48 657.2 304.18 665.18 298.2 672.1 292.84 682.39 285.5 691.52 279.62 697.19 276.05 703.06 272.38 709.99 268.7 716.81 264.82 723.21 261.57 728.57 259.47 736.46 256.98 743.95 255.22 753.35 253.24 765.74 251.04 755.56 250.47 748.35 250.47 741.38 250.47 735.18 251.77 730.08 253.31 713.81 253.58 709.76 253.7 703.86 254.85 697.5 255.55 690.21 256.36 681.99 257.17 673.66 257.52 661.63 258.44 646.94 258.44 627.73 258.67 620.44 259.6 613.04 260.06 604.94 260.64 594.29 261.1 583.53 261.57 573.7 262.26 565.02 262.84 554.84 264.23 543.04 265.27 532.39 265.38 524.41 265.5 508.33 266.42 495.83 266.77 488.2 267.23 480.1 267.58 469.34 268.16 462.97 268.28 444.69 269.55 429.31 270.36 416.58 271.4 408.94 271.4 403.16 272.33 393.67 272.9 388.46 273.37 380.71 273.94 370.36 274.37"/>

<!--partie5-->

  <polyline class="product-shape5 shape" points="778.02 337.49 775.44 338.13 768.33 338.46 763.32 338.13 759.04 337.41 754.2 336.52 748.3 335.95 744.75 334.98 739.74 333.69 735.54 332 729.24 332.16 724.61 332.88 720.07 333.93 715.88 335.6 712.5 336.72 706.68 337.66 698.64 337.89 693.64 339.17 687.58 339.87 682.92 340.8 678.15 341.73 673.72 342.55 671.45 343.65 662.93 345.01 656.11 345.7 649.27 346.04 643.68 346.74 636.81 347.55 630.87 348.6 625.39 349.53 620.27 350 615.26 350.7 606.3 351.63 598.38 352.1 593.72 352.44 587.31 353.19 582.54 353.96 577.76 354.44 569.61 355.59 564.48 355.59 557.44 355.59 557.44 354.44 559.87 351.39 561.18 348.8 561.59 347.52 570.3 347.52 579.64 348.05 585.62 348.05 591.5 347.63 597.06 347.63 602.1 347.31 605.77 346.47 610.39 343.43 618.26 337.24 624.66 331.89 632.37 325.38 637.57 320.13 644.6 314.04 651.32 308.48 657.2 304.18 665.18 298.2 672.1 292.84 682.39 285.5 691.52 279.62 697.19 276.05 703.06 272.38 709.99 268.7 716.81 264.82 723.21 261.57 728.57 259.47 736.46 256.98 743.95 255.22 753.35 253.24 765.74 251.04 765.74 256.77 761.05 263.06 759.9 268.78 756.09 276.02 753.35 283.27 753.35 289.56 753.35 300.05 755.52 311.49 757.23 317.4 758.95 322.54 761.81 326.74 765.74 330.36 770.39 333.41 774.96 335.6 778.02 337.49"/>
  <polyline class="product-shape5 shape" points="778.02 337.49 775.44 338.13 768.33 338.46 763.32 338.13 759.04 337.41 754.2 336.52 748.3 335.95 744.75 334.98 739.74 333.69 735.54 332 729.24 332.16 724.61 332.88 720.07 333.93 715.88 335.6 712.5 336.72 706.68 337.66 698.64 337.89 693.64 339.17 687.58 339.87 682.92 340.8 678.15 341.73 673.72 342.55 671.45 343.65 662.93 345.01 656.11 345.7 649.27 346.04 643.68 346.74 636.81 347.55 630.87 348.6 625.39 349.53 620.27 350 615.26 350.7 606.3 351.63 598.38 352.1 593.72 352.44 587.31 353.19 582.54 353.96 577.76 354.44 569.61 355.59 564.48 355.59 557.44 355.59 557.44 354.44 559.87 351.39 561.18 348.8 561.59 347.52 570.3 347.52 579.64 348.05 585.62 348.05 591.5 347.63 597.06 347.63 602.1 347.31 605.77 346.47 610.39 343.43 618.26 337.24 624.66 331.89 632.37 325.38 637.57 320.13 644.6 314.04 651.32 308.48 657.2 304.18 665.18 298.2 672.1 292.84 682.39 285.5 691.52 279.62 697.19 276.05 703.06 272.38 709.99 268.7 716.81 264.82 723.21 261.57 728.57 259.47 736.46 256.98 743.95 255.22 753.35 253.24 765.74 251.04 765.74 256.77 761.05 263.06 759.9 268.78 756.09 276.02 753.35 283.27 753.35 289.56 753.35 300.05 755.52 311.49 757.23 317.4 758.95 322.54 761.81 326.74 765.74 330.36 770.39 333.41 774.96 335.6 778.02 337.49"/>
  <polygon class="product-shape5 shape" points="418.75 340.28 424.31 340.7 430.6 339.55 437.74 339.44 444.52 338.68 444.52 343.14 445.85 347.56 447.07 351.28 448.38 354.51 444.75 353.94 440.45 353.08 436.81 352.6 431.51 352.5 425.63 352.02 421.71 346.37 418.75 340.28"/>
  <polygon class="product-shape5 shape" points="415.5 350.59 413.05 346.18 410.84 342.05 410.87 340.7 401.01 340.7 393.77 340.18 381.07 339.34 370.36 339.34 366.27 337.76 363.85 335.03 363.85 329.37 363.22 318.87 363.22 305.86 363.22 297.67 363.22 287.49 365.01 281.72 366.35 279.16 362.52 277.53 359.27 275.69 353.33 274.7 347.96 273.99 342.03 273.99 338.49 272.16 335.1 270.46 331.99 269.05 329.02 268.06 323.65 266.36 319.69 265.09 314.74 265.09 311.07 267.63 307.68 271.59 304.85 274.42 301.6 276.11 297.08 279.08 292.83 281.63 289.02 283.32 285.48 285.16 283.22 286.86 281.24 289.4 280.11 292.51 280.11 294.21 276.01 296.47 272.76 299.26 271.35 301.56 268.95 303.96 265.84 306.36 261.74 308.77 258.49 311.31 256.08 313.43 253.11 316.26 250.43 319.51 247.6 322.62 245.34 324.88 245.34 330.54 247.32 333.08 251.98 335.77 255.52 337.89 260.32 339.44 264.56 340.57 266.54 341.56 272.34 346.59 274.6 347.22 278.42 349.62 283.08 352.59 288.17 352.59 294.25 352.59 303.15 352.59 305.98 352.59 309.66 350.47 313.33 349.9 319.41 349.76 322.52 350.47 331.19 349.81 333.49 348.52 337.72 348.52 341.74 346.59 347.4 346.59 352.91 345.8 359.84 345.66 368.6 345.8 373.69 346.59 382.17 346.59 389.1 346.59 397.3 347.36 401.82 348.05 406.48 349.48 412.56 350.33 415.5 350.59"/>
  

<!--partie6-->
  <polygon class="product-shape6 shape" points="757.23 343.65 760.43 341.57 765.74 341.57 772.85 341.17 778.71 341.67 784.06 342.41 790.63 342.88 799.02 344.3 805.68 345 813.86 345.51 825.28 345.51 833.06 346.22 839.22 347.33 845.48 348.05 850.13 348.94 851.54 349.85 850.03 352.78 847.91 358.04 846.19 362.18 844.27 365.61 841.64 370.78 838.92 376.02 836.09 380.16 833.87 382.28 830.94 383.69 824.77 384.5 818.51 385.41 810.53 386.22 802.25 386.72 795.78 387.63 788.51 387.63 782.95 387.63 779.01 388.34 774.37 388.34 769.72 388.85 765.74 384.1 762.55 379.85 759.01 375.11 757.23 373.19 757.23 363.09 757.23 357.12 757.23 349.62 757.23 343.65"/>
  <polygon class="product-shape6 shape" points="794.72 415.35 803.19 415.35 810.19 414.55 818.26 412.93 824.18 411.45 827.54 407.55 831.04 407.55 832.92 413.47 832.92 424.77 832.92 430.96 832.92 436.83 832.38 444.95 833.59 452.48 833.59 455.44 829.29 456.24 826.46 457.19 823.5 457.19 817.05 448.58 811 439.56 805.48 431.76 800.5 425.44 795.93 419.12 794.72 415.35"/>
  <polygon class="product-shape6 shape" points="744.91 462.14 744.55 470.22 743.3 474.53 743.3 479.73 743.48 485.47 743.84 490.68 744.38 496.06 745.09 502.7 745.27 506.83 745.88 512.58 746.78 520 749.25 523.38 750.15 528.44 748.35 531.93 749.48 537.44 755.66 537.44 761.29 539.13 764.33 539.69 767.82 539.69 771.53 533.73 776.14 527.43 780.75 519.66 782.67 514.26 774.79 502.9 767.93 494.35 765.12 490.07 762.98 483.3 762.98 478.98 753.9 469.81 744.91 462.14"/>
  <polygon class="product-shape6 shape" points="305.57 359.42 311.4 357.86 316.92 356.3 322.12 355.05 327.14 354.86 325.76 357.81 324.66 361.2 322.63 363.79 321.44 365.63 322.09 368.49 320.53 371.92 317.87 378.66 315.6 383.46 312.55 383.46 310.57 382.95 307.44 381.39 304.32 379.62 303.7 376.29 304.42 370.46 305.36 364 305.57 359.42"/>
    <polyline class="product-shape6 shape" points="765.74 251.04 772.77 248.96 783.76 248.96 797.4 244 809.45 240.81 823.1 237.8 834.44 235.67 838.87 236.38 843.66 241.34 849.15 247.54 855.71 254.28 860.67 260.48 863.5 265.62 865.1 270.94 866.52 282.1 867.4 292.91 867.4 303.31 869.53 309.57 875.55 318.78 877.86 324.99 876.97 329.77 872.01 335.6 865.1 339.52 857.12 342 844.36 342.71 832.85 342 826.64 340.41 816.9 338.99 809.1 337.04 804.39 336.51 797.4 337.04 786.41 337.04"/>
  <polygon class="product-shape6 shape" points="765.74 251.04 772.77 248.96 783.76 248.96 797.4 244 809.45 240.81 823.1 237.8 834.44 235.67 838.87 236.38 843.66 241.34 849.15 247.54 855.71 254.28 860.67 260.48 863.5 265.62 865.1 270.94 866.52 282.1 867.4 292.91 867.4 303.31 869.53 309.57 875.55 318.78 877.86 324.99 876.97 329.77 872.01 335.6 865.1 339.52 857.12 342 844.36 342.71 832.85 342 826.64 340.41 816.9 338.99 809.1 337.04 804.39 336.51 797.4 337.04 786.41 337.04 774.96 335.6 770.39 333.41 765.74 330.36 761.81 326.74 758.95 322.54 757.23 317.4 755.52 311.49 753.35 300.05 753.35 283.27 756.09 276.02 759.9 268.78 761.05 263.06 765.74 256.77 765.74 251.04"/>

<!--elastic1-->
  <polygon class="elastic1 shape" points="413.19 304.29 414.44 302.57 414.44 301.31 411.23 301.31 408.56 301.31 405.9 302.8 404.33 304.29 403.94 306.88 403.94 311.27 404.05 314.46 404.16 316.46 405 320.55 406.78 327.27 408.77 334.19 410.87 340.7 410.84 342.05 413.05 346.18 415.5 350.59 416 351.37 417.29 353.67 420.23 358.09 422.78 361.2 426.72 367.54 431.99 375.68 438.81 385.85 447.66 398.05 453.88 408.21 457.47 415.27 459.62 419.94 460.34 423.05 461.49 423.56 464.08 423.56 464.39 426.93 464.39 430.3 464.39 433.12 461.88 435.71 459.61 438.06 460.34 439.43 460.34 453.31 461.65 453.31 464.39 451.47 466.35 449.9 465.49 439.71 465.49 436.49 468.31 435 467.92 427.87 469.25 425.2 467.69 420.66 465.1 415.17 462.59 412.27 457.92 404.42 454.45 399.06 449.92 391.44 446.15 386.32 441.85 379.98 438.3 374.17 434.83 368.29 432.42 363.91 431.51 361.2 428.98 356.8 426.78 353.65 425.63 352.02 421.71 346.37 418.75 340.28 416.12 334.4 414.65 329.05 413.18 324.12 411.61 318.35 410.98 312.78 411.23 309.23 411.62 306.64 413.19 304.29"/>
  <polygon class="elastic1 shape" points="459.5 466.95 461.21 466.95 463.61 468.64 465.15 470.75 464.45 474.7 462.62 478.56 461.42 482.3 460.64 485.55 459.09 489.08 457.18 492.75 455.84 496.92 454.19 501.62 451.65 507.32 448.84 513.64 445.77 520.3 442.09 528.11 438.4 535.39 435.34 541.79 432.7 548.45 430.51 554.68 429.28 560.29 427.71 565.56 427.18 570.2 426.45 575.5 426.11 579.07 426.45 585.19 427.39 590.72 429.6 596.24 432.49 601.94 435.21 605.26 439.37 609.51 443.2 612.48 447.03 615.12 450 616.56 453.4 617.07 458.33 617.67 463.52 617.67 468.96 617.16 474.06 615.97 478.31 613.93 483.41 611.29 488.94 607.3 493.45 602.54 497.44 596.58 499.74 591.91 502.2 586.64 503.91 580.43 505.61 573.2 507.05 566.57 507.48 558.32 507.99 547.36 507.65 538.51 507.31 531.29 506.8 523.3 505.61 516.32 504.76 508.16 503.56 495.65 502.54 486.82 501.88 474.92 501.73 471.89 503.85 469.7 506.72 467.58 508.69 466.45 510.35 466.45 510.35 474.01 510.35 482.18 511.4 490.2 511.4 495.65 512.3 501.99 513.23 509.87 514.21 518.94 515.27 528.55 516.18 540.95 516.18 551.85 516.18 558.05 515.42 565.24 515.04 570.98 513.61 576.66 512.02 583.39 510.13 587.1 507.56 593.07 505.14 598.52 502.34 602.75 498.93 607.75 494.39 612.13 488.87 616.67 483.35 620.08 476.62 623.03 471.14 624.46 464.14 625.07 455.74 625.07 449.84 623.4 444.09 621.21 439.25 618.71 434.18 615.24 430.25 611.3 427.45 607.37 424.12 602.38 421.48 595.87 419.58 588.76 418.45 579.53 418.45 573.03 418.45 566.67 419.58 559.71 422 551.54 426.24 540.8 428.96 534.15 435.17 522.27 437.97 515.77 443.03 505.86 448.49 495.65 451.6 489.31 454.36 483.09 456.87 476.28 459.5 466.95"/>
  <polygon class="elastic1 shape" points="500.37 436.16 503.38 436.43 505.57 438.18 508.52 440.04 508.52 443.59 509.23 449.88 509.51 456.72 509.51 458.03 506.55 457.7 503.43 455.9 500.7 453.77 500.37 451.03 500.37 436.16"/>
  <polygon class="elastic1 shape" points="510.31 425.46 513.04 421.24 515.89 415.92 516.43 414.27 521.63 406.68 526.84 398.6 533.3 389.81 538.86 381.01 544.25 372.58 550.29 365.11 551.39 363.62 553.89 360.36 556.72 356.75 557.44 355.59 557.44 354.44 559.87 351.39 561.18 348.8 561.59 347.52 564.11 343.74 567.25 340.39 571.56 335.6 575.65 331.36 579.85 327.16 583.94 323.38 587.72 319.71 591.18 316.14 594.86 312.57 598.07 311.66 601.14 309.58 604.06 308.42 606.55 307.09 608.63 305.25 609.8 303.84 610.29 302.18 610.29 300.6 607.63 300.6 604.8 301.26 601.98 301.43 599.56 301.51 595.38 303.86 593.6 305.02 589.19 308.69 585.73 311.73 580.79 316.46 575.65 321.49 571.35 325.9 566.73 330.84 561.69 336.82 556.76 342.28 552.25 347.52 550.29 350.26 548.07 353.19 545.54 358.12 544.42 359.6 541.96 364.11 537.59 370.51 531.96 378.28 527.69 384.59 523.42 390.8 519.63 396.63 514.48 403.71 511.4 407.33 508.88 411.16 507.3 414.27 506.66 415.63 505.38 418.35 503.73 420.81 502.31 423.64 502.31 425.46 506.66 425.46 510.31 425.46"/>
  

</svg>