<svg id="product-svg" viewBox="0 0 1280 800" xmlns="http://www.w3.org/2000/svg" xmlns:xlink="http://www.w3.org/1999/xlink">
 <g id="Layer_1">
  <title>Layer 1</title>
  <!--partie1-->
    <path class="product-shape1 shape"  style="vector-effect: non-scaling-stroke;" id="svg_2" d="m359.87738,629.2525l1.62348,10.24903l2,11.50003c0.12652,0.001 2.87653,9.75102 2.87653,9.75102c0,0 1,5.25001 0.87348,5.24902c0.12652,0.001 5.37654,2.251 5.25001,2.25001c0.12652,0.001 8.37654,5.25101 8.25002,5.25001c0.12652,0.001 8.87654,2.501 8.75002,2.50001c0.12652,0.001 11.87655,3.501 11.75003,3.50001c0.12652,0.001 10.62655,1.501 10.50003,1.5c0.12652,0.001 14.37656,-0.24901 14.25003,-0.25c0.12652,0.001 11.62655,-2.24901 11.50003,-2.25001c0.12652,0.001 7.37654,-1.24901 7.25002,-1.25c0.12652,0.001 13.87656,-2.99901 13.75003,-3.00001c0.12652,0.001 8.37654,-2.49901 8.25002,-2.50001c0.12652,0.001 3.12653,-1.49901 3.00001,-1.5c0.12652,0.001 4.62653,-1.99901 4.50001,-2c0.12652,0.001 4.62653,-2.74901 4.50001,-2.75001c0.12652,0.001 8.37654,-1.74901 8.25002,-1.75c0.12652,0.001 10.37655,-3.24901 10.25002,-3.25001c0.12652,0.001 11.62655,-3.49901 11.50003,-3.50001c0.12652,0.001 11.87655,-3.74901 11.87655,-3.74901c0,0 11.25003,-3.75001 11.1235,-3.751c0.12652,0.001 12.87655,-4.99902 12.87655,-4.99902c0,0 7.25002,-4.75001 7.1235,-4.75101c0.12652,0.001 2.62653,-2.74901 2.50001,-2.75001c0.12652,0.001 6.37654,0.501 6.25001,0.5c0.12652,0.001 7.37654,0.251 7.25002,0.25c0.12652,0.001 9.12654,-1.74901 9.00002,-1.75c0.12652,0.001 7.87654,-3.49901 7.75002,-3.50001c0.12652,0.001 16.62656,-5.74902 16.50004,-5.75001c0.12652,0.001 15.62656,-4.99902 15.50004,-5.00001c0.12652,0.001 15.12656,-4.24901 15.00004,-4.25001c0.12652,0.001 17.62656,-4.99902 17.50004,-5.00001c0.12652,0.001 24.12658,-6.49902 24.00006,-6.50002c0.12652,0.001 17.87656,-4.99902 17.75004,-5.00001c0.12652,0.001 6.37654,-2.99901 9.25002,-3.25001c0.12652,0.001 10.87655,-2.74901 10.75003,-2.75001c0.12652,0.001 8.12654,-2.74901 8.00002,-2.75001c0.12652,0.001 4.37653,-2.24901 4.25001,-2.25001c0.12652,0.001 7.87654,-1.74901 7.75002,-1.75c0.12652,0.001 4.62653,-0.74901 4.50001,-0.75c0.12652,0.001 7.62654,-1.99901 7.50002,-2c0.12652,0.001 8.62654,-1.74901 8.50002,-1.75c0.12652,0.001 9.37654,-2.49901 9.25002,-2.50001c0.12652,0.001 10.37654,-2.49901 10.25002,-2.50001c0.12652,0.001 10.37654,-2.74901 10.25002,-2.75001c0.12652,0.001 8.87654,-1.99901 8.75002,-2c0.12652,0.001 10.37654,-2.49901 10.25002,-2.50001c0.12652,0.001 8.12654,-2.24901 8.00002,-2.25001c0.12652,0.001 12.12655,-3.74901 12.00003,-3.75001c0.12652,0.001 9.87654,-2.24901 9.75002,-2.25001c0.12652,0.001 9.12654,-2.49901 9.00002,-2.50001c0.12652,0.001 11.12655,-2.99901 11.00003,-3.00001c0.12652,0.001 8.62654,-3.99901 8.50002,-4.00001c0.12652,0.001 10.87654,-4.24901 10.75003,-4.25001c0.12652,0.001 8.87654,-4.24901 8.75002,-4.25001c0.12652,0.001 7.62654,-5.74902 7.50002,-5.75001c0.12652,0.001 5.37653,-8.74902 5.25001,-8.75002c0.12652,0.001 3.87653,-7.99902 3.75001,-8.00002c0.12652,0.001 1.12652,-7.99902 1,-8.00002c0.12652,0.001 -0.12348,-9.74903 -0.25,-9.75002c0.12652,0.001 0.62652,-20.99905 0.5,-21.00005c0.12652,0.001 -5.37349,2.501 -5.50001,2.50001c0.12652,0.001 -11.12351,3.50101 -11.25003,3.50001c0.12652,0.001 -8.8735,3.001 -9.00002,3.00001c0.12652,0.001 -10.62351,5.75101 -10.75003,5.75001c0.12652,0.001 -10.37351,4.50101 -10.50003,4.50001c0.12652,0.001 -18.62353,5.50101 -18.75004,5.50001c0.12652,0.001 -16.12352,5.00101 -16.37352,5.00101c-0.25,0 -20.00005,5.25001 -20.25005,5.50001c-0.25,0.25 -20.75005,6.00001 -20.87657,5.99902c0.12652,0.001 -24.87354,7.25101 -25.00006,7.25002c0.12652,0.001 -19.62353,5.50101 -19.75005,5.50001c0.12652,0.001 -15.62352,4.50101 -15.75004,4.50001c0.12652,0.001 -24.12354,8.25102 -24.12354,8.25102c0,0 -23.50006,7.00002 -23.62658,6.99902c0.12652,0.001 -23.12353,7.25101 -23.25006,7.25002c0.12652,0.001 -16.12352,5.00101 -16.25004,5.00001c0.12652,0.001 -14.37351,4.00101 -14.50003,4.00001c0.12652,0.001 -9.1235,2.251 -9.1235,2.001c0,-0.25 4.25001,4.25001 4.12349,4.24901c0.12652,0.001 2.62653,0.751 2.50001,0.75c0.12652,0.001 3.12653,0.751 3.00001,0.75c0.12652,0.001 -2.37348,3.001 -2.50001,3.00001c0.12652,0.001 -4.87349,3.001 -5.00001,3.00001c0.12652,0.001 -2.87349,0.501 -3.00001,0.5c0.12652,0.001 -0.37348,-2.74901 -0.5,-2.75001c0.12652,0.001 -8.1235,-7.24902 -8.25002,-7.25002c0.12652,0.001 -11.12351,3.251 -11.25003,3.25001c0.12652,0.001 -15.87352,4.50101 -16.00004,4.50001c0.12652,0.001 -17.12352,5.25101 -17.25004,5.25001c0.12652,0.001 -4.12349,1.751 -9.25002,3.00001c0.12652,0.001 -4.87349,1.501 -5.00001,1.5c0.12652,0.001 0.62652,4.75101 0.5,4.75001c0.12652,0.001 1.37652,3.501 1.25,3.50001c0.12652,0.001 0.12652,6.75101 0,6.75002c0.12652,0.001 0.37652,6.25101 0.25,6.25001c0.12652,0.001 0.37652,6.25101 0.25,6.25001c0.12652,0.001 -5.37349,1.001 -5.50001,1c0.12652,0.001 -10.8735,3.501 -11.00003,3.50001c0.12652,0.001 -15.37351,5.25101 -15.50004,5.25001c0.12652,0.001 -15.62352,4.00101 -15.62352,4.00101c0,0 -16.50004,4.50001 -16.62656,4.49902c0.12652,0.001 -14.12351,4.00101 -14.25003,4.00001c0.12652,0.001 -12.37351,2.501 -12.50003,2.50001c0.12652,0.001 -7.3735,2.001 -7.50002,2c0.12652,0.001 -0.37348,-5.49902 -0.5,-5.50001c0.12652,0.001 -0.62348,-6.74902 -0.75,-6.75002c0.12652,0.001 -0.62348,-6.99902 -0.75,-7.00002c0.12652,0.001 -0.37348,-8.99903 -0.5,-9.00002c0.12652,0.001 -8.6235,1.501 -8.75002,1.5c0.12652,0.001 -11.87351,2.251 -12.00003,2.25001c0.12652,0.001 -13.37351,2.001 -13.50003,2c0.12652,0.001 -13.37351,1.001 -13.50003,1c0.12652,0.001 -12.62351,0.501 -12.75003,0.5c0.12652,0.001 -13.37351,0.251 -13.37351,0.251z" opacity="NaN" fill="#fff"/>
  <path class="product-shape1 shape" style="vector-effect: non-scaling-stroke;" id="svg_3" d="m342.12734,463.50211l0.62348,13.49904l2,15.00004l2.25001,15.75004l1.75,15.25004c0.12652,0.001 1.37653,9.50102 1.37653,9.50102c0,0 4.50001,2 4.37349,1.99901c0.12652,0.001 4.12653,1.751 4.12653,1.751c0,0 7.25002,-0.25 7.12349,-0.251c0.12652,0.001 10.37655,-0.499 10.25002,-0.5c0.12652,0.001 13.62656,0.251 13.50003,0.25c0.12652,0.001 13.62656,-0.499 13.50003,-0.5c0.12652,0.001 16.87656,-1.24901 16.75004,-1.25c0.12652,0.001 10.87655,-3.24901 10.75003,-3.25001c0.12652,0.001 14.62656,-4.74901 14.50003,-4.75001c0.12652,0.001 12.87655,-5.24902 12.75003,-5.25001c0.12652,0.001 12.12655,-3.99901 12.00003,-4.00001c0.12652,0.001 12.12655,-3.49901 12.00003,-3.50001c0.12652,0.001 12.87655,-3.99901 12.75003,-4.00001c0.12652,0.001 20.37657,-4.74901 20.25005,-4.75001c0.12652,0.001 16.62656,-3.74901 16.50004,-3.75001c0.12652,0.001 15.12656,-4.49901 15.00004,-4.50001c0.12652,0.001 5.37653,-2.24901 5.25001,-2.25001c0.50152,-5.499 1.62653,-6.74902 1.5,-6.75002c-0.37348,-0.249 -2.81099,-0.68651 -3.00001,-0.75c-0.12348,-0.12401 -3.49849,-2.43651 -3.50001,-2.5625c-0.12347,-0.3115 -3.12349,-4.62402 -3.25001,-4.62501c0.12652,0.251 -0.99848,-5.74902 -1.125,-5.75002c0.12652,0.001 0.18902,-2.37401 0.625,-3.06251c-0.06098,0.126 -4.37349,-5.24902 -4.50001,-5.25001c0.12652,0.001 -2.37348,-6.74902 -2.50001,-6.75002c0.12652,0.001 -1.37348,-6.49902 -1.5,-6.50002c0.12652,0.001 0.62652,-6.99902 0.5,-7.00002c0.12652,0.001 1.00155,-4.87399 0.87502,-4.87499c-0.18592,0.12598 -14.49853,3.62598 -14.62506,3.62499c0.12652,0.001 -21.12353,4.50101 -21.25005,4.50001c0.12652,0.001 -15.87352,3.25101 -16.00004,3.25001c0.12652,0.001 -16.62352,3.251 -16.75004,3.25001c0.12652,0.001 -18.12352,3.50101 -18.25004,3.50001c0.12652,0.001 -19.12352,3.75101 -19.25005,3.75001c0.12652,0.001 -19.87352,2.751 -20.00005,2.75001c0.12652,0.001 -11.1235,1.501 -11.25003,1.5c0.12652,0.001 -18.37352,0.501 -18.50004,0.5c0.12652,0.001 -12.87351,-0.249 -13.00003,-0.25c0.12652,0.001 -13.62351,-0.99901 -13.75003,-1c0.12652,0.001 -8.6235,-1.74901 -10.8735,-1.99901z" opacity="NaN" fill="#fff"/>
  <path class="product-shape1 shape" id="svg_4" d="m551.74477,466.99609l1.87781,-0.37313l2.37499,0l1.81249,0.4375l1.43749,0.875l0.4375,0.75l-0.6875,0.5625c0.05968,0.06064 -1.06531,1.49813 -1.06531,1.49813c0,0 -0.875,1.43749 -0.875,1.43749c0,0 -0.4375,0.6875 -0.49718,0.62686c0.05968,0.06064 -0.94031,-1.62686 -1,-1.68749c0.05968,0.06064 -1.19031,-1.31436 -1.24999,-1.37499c0.05968,0.06064 -1.31531,-1.31436 -1.37499,-1.37499c0.05968,0.06064 -0.64159,-0.67758 -1.19031,-1.37686z" opacity="NaN" fill="#fff"/>
  <path class="product-shape1 shape" style="vector-effect: non-scaling-stroke;" id="svg_5" d="m563.93515,474.45943l-0.54264,2.43998c0.04268,0.05982 -0.39478,2.87209 -0.39478,2.87209c0,0 -0.62495,2.4998 -0.66763,2.43998c0.04268,0.05982 0.04268,1.18473 0,1.12491c0.04268,0.05982 1.91753,-0.9401 1.87485,-0.99992c0.04268,0.05982 1.60506,-2.00252 1.56238,-2.06234c0.04268,0.05982 0.54264,-1.94002 0.49996,-1.99984c0.04268,0.05982 0.04268,-2.50248 0,-2.5623c0.04268,0.05982 -0.83225,-1.50256 -0.87493,-1.56238c0.04268,0.05982 -1.50269,0.31061 -1.4572,0.3098z" opacity="NaN" fill="#fff"/>
  <path class="product-shape1 shape" style="vector-effect: non-scaling-stroke;" id="svg_6" d="m562.68525,435.65003l1.58219,-0.55978l1.06242,0c0.04268,0.05982 0.10518,1.68469 0.10518,1.74718c0,0.0625 0,2.87477 -0.04268,2.81496c0.04268,0.05982 -0.64476,3.87201 -0.68745,3.8122c0.04268,0.05982 -0.45728,2.12215 -0.49996,2.06234c0.04268,0.05982 -0.39478,0.93475 -0.43747,0.87493c0.04268,0.05982 -0.45728,-3.06494 -0.45728,-3.06494c0,0 -0.56246,-3.93719 -0.60514,-3.997c0.04268,0.05982 -0.1448,-2.00252 -0.01981,-3.68989z" opacity="NaN" fill="#fff"/>
  <path class="product-shape1 shape" style="vector-effect: non-scaling-stroke;" id="svg_7" d="m566.58684,490.56592l-2.21287,-4.03089l2.50018,-1.83347l1.83347,-3.00022l0.50004,-4.83368l-0.66671,-6.00043l-0.66671,-3.83361l2.16682,-4.83368c0.04605,0.0306 1.04612,-5.46979 1.04612,-5.63647c0,-0.16668 1.00007,-6.83383 0.95402,-6.86443c0.04605,0.0306 0.3794,-7.30326 0.33336,-7.33386c0.04605,0.0306 0.04605,-5.80315 0,-5.83375c0.04605,0.0306 -1.45406,-4.13637 -1.50011,-4.16697c0.04605,0.0306 14.04706,-2.13622 14.00101,-2.16682c0.04605,0.0306 12.88031,-2.96961 12.83426,-3.00022c0.04605,0.0306 19.88081,-4.6364 19.83476,-4.667c0.04605,0.0306 57.05015,-12.80366 57.0041,-12.83426c0.04605,0.0306 59.38365,-14.97048 59.33761,-15.00108c0.04605,0.0306 44.21589,-10.80351 44.16985,-10.83411c0.04605,0.0306 23.19095,-5.54783 32.0023,-7.66722c0.04605,0.0306 35.21525,-9.3034 35.1692,-9.33401c0.04605,0.0306 16.21388,-4.30304 16.16783,-4.33365c0.04605,0.0306 9.38005,-2.3029 9.33401,-2.3335c0.04605,0.0306 8.37998,-3.80301 8.33393,-3.83361c0.04605,0.0306 6.37984,-2.80294 6.33379,-2.83354c0.04605,0.0306 4.87973,-1.46951 4.83368,-1.50011c0.04605,0.0306 5.54644,-4.30304 5.5004,-4.33365c0.04605,0.0306 4.87973,-5.13644 4.83368,-5.16704c0.04605,0.0306 0.37941,4.6976 0.33336,4.667c0.04605,0.0306 -0.95402,5.19764 -1.00007,5.16704c0.04605,0.0306 -1.9541,4.19757 -2.00014,4.16697c0.04605,0.0306 -0.78735,4.36425 -0.83339,4.33365c0.04605,0.0306 1.54616,6.86443 1.37948,6.86443c-0.16668,0 0.66671,7.16718 0.62067,7.13658c0.04605,0.0306 1.37948,4.6976 1.33343,4.667c0.04605,0.0306 2.54623,2.53078 2.50018,2.50018c0.04605,0.0306 2.54623,3.03082 2.50018,3.00022c0.04605,0.0306 -0.28731,4.53093 -0.28731,4.53093c0,0 -1.66679,6.00043 -1.71283,5.96983c0.04605,0.0306 -1.9541,2.86414 -2.00014,2.83354c0.04605,0.0306 -4.45428,1.53071 -4.45428,1.53071c0,0 -10.33408,3.83361 -10.38013,3.80301c0.04605,0.0306 -12.95489,4.19757 -13.00094,4.16697c0.04605,0.0306 -13.78828,5.69768 -13.83433,5.66707c0.04605,0.0306 -16.7885,5.36432 -16.83455,5.33372c0.04605,0.0306 -14.455,5.19764 -14.50104,5.16704c0.04605,0.0306 -14.95503,4.03089 -15.00108,4.00029c0.04605,0.0306 -20.62211,4.6976 -20.66815,4.667c0.04605,0.0306 -19.78871,4.6976 -19.83476,4.667c0.04605,0.0306 -20.62211,5.19764 -20.62211,5.19764c0,0 -14.8344,3.00022 -14.88045,2.96961c0.04605,0.0306 -5.93987,0.96376 -10.83411,2.83354c0.04605,0.0306 -14.95503,4.36425 -15.00108,4.33365c0.04605,0.0306 -12.28817,3.53085 -12.45485,3.53085c-0.16668,0 -12.66758,3.50025 -12.66758,3.50025c0,0 -14.8344,3.83361 -14.88045,3.80301c0.04605,0.0306 -15.45507,4.36425 -15.50112,4.33365c0.04605,0.0306 -14.62168,4.03089 -14.66772,4.00029c0.04605,0.0306 -14.28832,4.03089 -14.33437,4.00029c0.04605,0.0306 -19.95539,5.03096 -20.00144,5.00036c0.04605,0.0306 -13.6216,3.03082 -13.6216,3.03082c0,0 -11.00079,2.50018 -11.04684,2.46958c0.04605,0.0306 -9.28796,2.53078 -9.33401,2.50018c0.04605,0.0306 -4.25755,0.73327 -6.45442,1.69739z" opacity="NaN" fill="#fff"/>
  <!--partie2-->
  <path class="product-shape2 shape" style="vector-effect: non-scaling-stroke;" id="svg_8" d="m342.24781,463.35826l10.9466,2.15372l13.99285,0.87455l13.11829,0.24987c0.04778,0.09513 17.66378,-0.40462 17.66378,-0.40462c0,0 30.98416,-4.12289 30.93638,-4.21802c0.04778,0.09513 23.41084,-4.52751 41.8536,-8.12085c0.04779,0.09513 24.28539,-4.65245 24.23761,-4.74757c0.04779,0.09513 26.78412,-5.527 26.73633,-5.62213c0.04779,0.09513 13.79076,-3.27815 13.74297,-3.37328c0.04779,0.09513 12.5414,-1.52904 12.49361,-1.62417c0.04779,0.09513 15.04012,-2.77841 14.99233,-2.87353c0.04779,0.09513 1.10968,-0.65449 7.80844,-3.1234c0.92234,-0.40462 13.22861,-2.15372 13.18082,-2.24885c0.04779,0.15761 22.09908,-4.96477 22.05129,-5.05989c6.79663,-1.46711 63.57775,-14.33502 63.52995,-14.43014c0.04779,0.09512 28.53323,-7.02623 28.48544,-7.12136c0.04779,0.09512 11.41698,-2.65347 20.36459,-5.12238c0.0478,0.09512 20.28745,-5.02726 20.23965,-5.12238c0.0478,0.09512 49.64744,-12.02368 49.59964,-12.1188c0.0478,0.09512 23.9106,-5.65194 23.8628,-5.74706c0.0478,0.09512 16.78924,-4.27764 16.74144,-4.37276c0.0478,0.09512 20.91213,-5.527 20.86433,-5.62213c0.0478,0.09512 13.16609,-3.40309 13.11829,-3.49821c0.0478,0.09512 5.04525,-1.15424 7.99591,-1.74911c0.0478,0.09512 7.04422,-3.40309 6.99642,-3.49821c0.0478,0.09512 7.16916,-3.02828 7.12136,-3.1234c0.0478,0.09512 5.17018,-1.52905 5.12238,-1.62417c0.0478,0.09512 5.66993,-4.40258 5.62213,-4.4977c0.0478,0.09512 4.67044,-4.65245 4.62264,-4.74757c0.0478,0.09512 1.54704,-3.15322 1.49923,-3.24834c0.0478,0.09512 0.54755,-5.1522 0.49974,-5.24732c0.0478,0.09512 2.29665,-9.40002 2.24885,-9.49515c0.0478,0.09512 1.79691,-6.40156 1.74911,-6.49668c0.0478,0.09512 0.29768,-7.90079 0.24987,-7.99591c0.0478,0.09512 0.54755,-2.90335 0.49974,-2.99847c0.0478,0.09512 2.04678,-2.90335 1.99898,-2.99847c0.0478,0.09512 0.42261,-5.02726 0.37481,-5.12238c0.0478,0.09512 -0.70181,-4.40258 -0.74962,-4.4977c0.0478,0.09512 0.42261,-3.7779 0.37481,-3.87302c0.0478,0.09512 -0.45194,-12.27356 -0.49974,-12.36868c0.0478,0.09512 -2.07611,-2.90335 -4.99744,-5.74706c0.0478,0.09512 -5.19951,-5.40207 -5.19951,-5.40207c0,0 -3.74808,-1.99898 -3.79589,-2.0941c0.0478,0.09512 -3.70028,-4.52752 -3.74808,-4.62264c0.0478,0.09512 -3.45041,-4.27765 -3.49821,-4.37276c0.0478,0.09512 -1.95118,-0.52956 -1.99898,-0.62468c0.0478,0.09512 -6.199,0.59486 -6.24681,0.49974c0.0478,0.09512 -7.32343,-0.27969 -7.37123,-0.37481c0.0478,0.09512 -7.07356,-0.40463 -7.12136,-0.49974c0.0478,0.09512 -7.5733,0.09512 -7.6211,0c0.0478,0.09512 -8.44786,0.34499 -8.49566,0.24987c0.0478,0.09512 -10.82164,1.96916 -10.86944,1.87404c0.0478,0.09512 -13.4453,1.96916 -13.4931,1.87404c0.0478,0.09512 -3.32548,0.59486 -3.37328,0.49974c0.0478,0.09512 -5.44939,0.96967 -5.49719,0.87455c0.0478,0.09512 -11.44632,3.59333 -11.49412,3.49821c0.0478,0.09512 -2.20105,0.96967 -2.24885,0.87455c0.0478,0.09512 -4.4499,-0.27969 -4.4977,-0.37481c0.0478,0.09512 -7.5733,0.22005 -7.6211,0.12494c0.0478,0.09512 -11.82113,1.96916 -11.86893,1.87404c0.0478,0.09512 -5.44939,1.46942 -5.49719,1.3743c0.0478,0.09512 -13.82011,-0.40463 -13.86791,-0.49974c0.0478,0.09512 -4.32497,1.59435 -9.86995,3.1234c0.0478,0.09512 -12.19594,3.59333 -12.24374,3.49821c0.0478,0.09512 -13.94505,3.34346 -13.99285,3.24834c0.0478,0.09512 -17.94301,3.09359 -17.9908,2.99847c0.0478,0.09512 -53.05006,11.0895 -53.09785,10.99438c0.04779,0.09512 -19.69211,3.8432 -19.73991,3.74808c0.04779,0.09512 -14.19493,3.21852 -14.24272,3.1234c0.04779,0.09512 -8.69774,1.46942 -17.74093,3.62315c0.04779,0.09512 -17.69314,3.4684 -17.74093,3.37328c0.04779,0.09512 -11.69621,2.21903 -11.744,2.12391c0.04779,0.09512 -7.19851,2.59384 -7.24629,2.49872c0.04779,0.09512 -4.0751,1.34448 -4.12289,1.24936c0.04779,0.09512 -9.9471,0.96967 -9.99489,0.87455c0.04779,0.09512 -14.31987,2.21903 -14.36765,2.12391c0.04779,0.09512 -17.81808,3.8432 -17.86587,3.74808c0.04779,0.09512 -13.82012,3.09359 -13.86791,2.99847c0.04779,0.09512 -12.94557,2.59384 -12.99336,2.49872c0.04779,0.09512 -10.69672,2.0941 -10.74451,1.99898c0.04779,0.09512 -7.19851,1.59435 -7.24629,1.49923c0.04779,0.09512 -12.32089,1.96916 -12.36868,1.87404c0.04778,0.09512 -8.57281,2.46891 -8.62059,2.37379c0.04778,0.09512 -2.20107,0.46993 -4.4977,1.3743c0.04778,0.09512 -5.0746,1.21955 -5.12238,1.12443c0.04778,0.09512 -4.94966,0.46993 -4.99744,0.37481c0.04778,0.09512 -5.57434,1.84423 -5.62213,1.74911c0.04778,0.09512 -9.5723,5.09257 -9.5723,5.09257c0,0 -6.12187,2.74859 -6.16965,2.65347c0.04778,0.09512 -4.94966,1.21955 -4.99744,1.12443c0.04778,0.09512 -3.82524,1.46942 -3.87302,1.3743c0.04778,0.09512 -2.95068,4.21801 -2.99847,4.12289c0.04778,0.09512 -2.95068,4.46789 -2.99847,4.37276c0.04778,0.09512 -3.7003,3.71827 -3.74808,3.62315c0.04778,0.09512 -5.0746,4.59282 -5.12238,4.4977c0.04778,0.09512 -4.44992,4.09308 -4.4977,3.99796c0.04778,0.09512 -3.57537,2.0941 -3.62315,1.99898c0.04778,0.09512 -4.32498,-0.15475 -4.37276,-0.24987c0.04778,0.09512 -3.32549,1.71929 -3.37328,1.62417c0.04778,0.09512 -4.94966,3.34346 -4.99744,3.24834c0.04778,0.09512 -4.20005,3.96814 -4.20005,3.84321c0,-0.12494 -5.74706,4.87251 -5.79484,4.77739c0.04778,0.09512 -4.94966,3.21853 -4.99744,3.1234c0.04778,0.09512 -1.32652,3.71827 -1.3743,3.62315c0.04778,0.09512 -1.82626,9.84014 -1.87404,9.74502c0.04778,0.09512 -1.70133,9.21546 -1.74911,9.12034c0.04778,0.09512 -1.82626,7.46636 -1.87404,7.37123c0.04778,0.09512 -4.07511,15.2124 -3.95018,15.2124c0.12494,0 -1.62417,3.1234 -2.5465,7.02623c0.04778,0.09513 -1.82626,6.34193 -1.87404,6.24681c0.04778,0.09513 0.42259,7.21648 0.37481,7.12136c0.04778,0.09513 -0.32703,6.34193 -0.37481,6.24681c0.04778,0.09513 0.92233,5.09257 0.87455,4.99744c0.04778,0.09513 0.65919,1.14737 1.92182,1.7193z" opacity="NaN" fill="#fff"/>
  <!--partie3-->
  <path class="product-shape3 shape" style="vector-effect: non-scaling-stroke;" id="svg_9" d="m928.19824,331.11337l-5.79487,-3.28099l-3.99796,-2.87353l-4.24783,-3.74808l-2.99847,-3.62315l-0.37481,-5.49719l-0.99949,-2.99847l-1.74911,-2.87353l0.87455,-1.87404l0.62468,-5.12238l-0.87455,-4.62264l0.37481,-3.87302l-0.49974,-12.24374l-3.37328,-4.12289l-6.49668,-6.62161l-4.12289,-2.49872l-7.12136,-8.87046l-2.12391,-0.74962l-6.49668,0.62468l-14.61753,-0.99949l-7.37123,0l-8.49566,0.24987l-10.49463,1.87404l-13.74297,1.99898l-8.37072,1.12443l-11.36919,3.49821l-2.74859,0.99949l-4.62264,-0.24987l-7.74604,0l-11.36919,1.87404l-5.74706,1.3743l-14.11778,-0.62468l-5.49719,1.99898l-15.86689,4.62264l-13.99285,3.24834c0.0478,0.03265 -18.19288,3.15605 -18.19288,3.15605c0,0 -36.98109,7.6211 -37.02889,7.58845c0.04779,0.03265 -24.06488,4.90516 -24.11267,4.87251c0.04779,0.03265 -12.07101,2.2815 -12.1188,2.24885c0.04779,0.03265 -6.94863,1.65682 -14.36765,3.1234c0.04779,0.03265 -13.94505,2.78125 -13.99285,2.74859c0.04779,0.03265 -9.32242,2.03163 -9.37021,1.99898c0.04779,0.03265 -13.94506,2.65631 -13.99285,2.62366c0.04779,0.03265 -9.9471,1.78176 -9.99489,1.74911c0.04779,0.03265 -6.94863,2.53137 -6.99642,2.49872c0.04779,0.03265 -4.32498,1.40695 -4.37276,1.3743c0.04779,0.03265 -8.94761,0.78227 -8.9954,0.74962c0.04779,0.03265 -14.94455,2.15657 -14.99233,2.12391c0.04779,0.03265 -18.19289,3.78074 -18.24067,3.74808c0.04779,0.03265 -14.56974,3.28099 -14.61753,3.24834c0.04779,0.03265 -15.94404,3.03112 -15.99182,2.99847c0.04779,0.03265 -7.07357,1.40695 -7.12136,1.3743c0.04779,0.03265 -5.82421,1.40695 -11.86893,2.12391c0.04779,0.03265 -7.82319,1.28201 -7.87098,1.24936c0.04778,0.03265 -11.82115,3.28099 -11.86893,3.24834c0.04778,0.03265 -6.19902,1.65682 -6.24681,1.62417c0.04778,0.03265 -4.82472,0.28253 -4.87251,0.24987c0.04778,0.03265 -4.82472,1.65682 -4.87251,1.62417c0.04778,0.03265 -10.57179,5.40491 -10.61957,5.37225c0.04778,0.03265 -6.19902,2.78125 -6.24681,2.74859c0.04778,0.03265 -4.69979,1.03214 -4.74757,0.99949c0.04778,0.03265 -3.32549,1.28201 -3.37328,1.24936c0.04778,0.03265 -3.82524,5.0301 -3.87302,4.99744c0.04778,0.03265 -1.9512,3.28099 -1.99898,3.24834c0.04778,0.03265 -10.07204,9.27793 -10.11983,9.24527c0.04778,0.03265 -2.95068,2.78125 -2.99847,2.74859c0.04778,0.03265 -3.82524,2.2815 -3.87302,2.24885c0.04778,0.03265 -4.57485,0.03265 -4.62264,0c0.04778,0.03265 -3.45043,1.53189 -3.49821,1.49923c0.04778,0.03265 -4.32498,3.03112 -4.37276,2.99847c0.04778,0.03265 -4.32498,3.78074 -4.37276,3.74808c0.04778,0.03265 -6.69877,5.65478 -6.74655,5.62213c0.04778,0.03266 -4.07511,2.40644 -4.12289,2.37379c0.04778,0.03266 -1.70133,4.03061 -1.74911,3.99796c0.04778,0.03266 -2.57588,13.90057 -2.62366,13.86791c0.04778,0.03266 -3.32549,15.64967 -4.4977,19.11523c0.04778,0.03266 -2.32601,8.77819 -2.37379,8.74553c0.04778,0.03266 -1.9512,4.90517 -1.99898,4.87251c0.04778,0.03266 -1.9512,7.52882 -1.99898,7.49617c0.04778,0.03266 0.29765,8.65325 0.24987,8.62059c0.04778,0.03266 -0.5769,5.65478 -0.62468,5.62213c0.04778,0.03266 1.17221,4.65529 1.12443,4.62264c0.04778,0.03266 -3.45043,2.90619 -3.57537,3.03113c-0.12494,0.12494 -4.4977,4.12289 -4.4977,4.12289c0,0 -7.99591,7.49617 -7.99591,7.49617c0,0 -7.49617,7.49617 -7.54395,7.46351c0.04778,0.03266 -0.95171,2.53138 -4.4977,5.37225c0.04778,0.03266 -5.19954,1.9067 -5.24732,1.87404c0.04778,0.03266 -5.94916,-1.71645 -5.99693,-1.74911c0.04778,0.03266 -5.19954,-1.84138 -5.19954,-1.84138c0,0 -3.62315,-3.1234 -3.67093,-3.15606c0.04778,0.03266 -2.32601,-5.21466 -2.32601,-5.33959c0,-0.12494 -1.74911,-6.24681 -1.79688,-6.27947c0.04778,0.03266 0.54752,-6.08921 0.49974,-6.12187c0.04778,0.03266 0.04778,-7.0887 0,-7.12136c0.04778,0.03266 -0.95171,-6.71389 -0.99949,-6.74655c0.04778,0.03266 -2.70082,-9.71236 -2.74859,-9.74502c0.04778,0.03266 -1.32652,-4.46504 -1.3743,-4.4977c0.04778,0.03266 0.42259,-4.71492 0.42259,-4.71492c0,0 -1.12443,-7.49617 -1.1722,-7.52882c0.04778,0.03266 0.54752,-9.21262 0.49974,-9.24527c0.04778,0.03266 1.79688,-11.08666 1.74911,-11.11931c0.04778,0.03266 2.42156,-5.3396 3.74808,-8.49566c0.04778,0.03266 3.67093,-9.08768 3.62315,-9.12034c0.04778,0.03266 5.04522,-8.463 4.99744,-8.49566c0.04778,0.03266 4.17067,-8.71287 4.12289,-8.74553c0.04778,0.03265 5.42003,-7.46351 5.37225,-7.49617c0.04778,0.03265 11.29203,-11.2116 11.24425,-11.24425c0.04778,0.03265 11.41697,-11.96121 11.36919,-11.99387c0.04778,0.03265 9.7928,-8.83781 14.24272,-12.36868c0.04778,0.03265 15.16505,-9.46249 15.11727,-9.49515c0.04778,0.03265 11.41697,-6.33909 11.5419,-6.46403c0.12494,-0.12494 14.74246,-7.2463 14.69468,-7.27895c0.04778,0.03265 15.28999,-6.7139 15.24221,-6.74655c0.04778,0.03265 19.53782,-8.463 19.49003,-8.49566c0.04778,0.03265 26.40931,-8.71288 26.36152,-8.74553c0.04778,0.03265 14.79025,-3.84037 22.73837,-6.24681c0.04779,0.03265 16.03961,-4.34011 15.99182,-4.37276c0.04779,0.03265 9.29306,-2.46607 9.24527,-2.49872c0.04779,0.03265 18.91314,-4.21518 18.86535,-4.24783c0.04779,0.03265 17.41391,-3.5905 17.36612,-3.62315c0.04779,0.03265 6.41953,-1.09177 6.37174,-1.12443c0.04779,0.03265 10.79229,-3.5905 10.74451,-3.62315c0.04779,0.03265 5.54498,-0.8419 5.49719,-0.87455c0.04779,0.03265 11.41698,-2.34114 11.36919,-2.37379c0.04779,0.03265 10.91723,-2.09126 10.86944,-2.12391c0.04779,0.03265 13.29102,-2.34114 13.24323,-2.37379c0.04779,0.03265 16.41442,-3.46556 16.36663,-3.49821c0.04779,0.03265 4.79536,-1.21671 8.49566,-1.74911c0.04779,0.03265 10.66736,-0.59203 10.61957,-0.62468c0.04779,0.03265 12.29153,-1.84139 12.24374,-1.87404c0.04779,0.03265 10.16762,-1.96633 10.11983,-1.99898c0.04779,0.03265 11.41698,-2.09126 11.36919,-2.12391c0.04779,0.03265 9.66787,-1.71646 9.62008,-1.74911c0.04779,0.03265 8.54345,-0.8419 8.49566,-0.87455c0.04779,0.03265 11.79179,-1.59152 11.744,-1.62417c0.04779,0.03265 11.91673,-1.59152 11.86893,-1.62417c0.04779,0.03265 15.66481,-2.34114 15.61701,-2.37379c0.0478,0.03265 10.54243,-1.46658 10.49463,-1.49923c0.0478,0.03265 12.1666,-1.34165 12.1188,-1.3743c0.0478,0.03265 14.29051,-1.71646 14.24272,-1.74911c0.0478,0.03265 5.42005,-0.59203 10.86944,-1.12443c0.0478,0.03265 12.41647,-0.8419 12.36868,-0.87455c0.0478,0.03265 9.79282,-0.21722 9.74502,-0.24987c0.0478,0.03265 11.66686,0.65733 11.61906,0.62468c0.0478,0.03265 9.91775,0.9072 9.86995,0.87455c0.0478,0.03265 9.54294,1.15707 9.49515,1.12443c0.0478,0.03265 7.16916,0.9072 7.12136,0.87455c0.0478,0.03265 5.66993,1.53188 5.62213,1.49923c0.0478,0.03265 12.66635,3.6558 12.61855,3.62315c0.0478,0.03265 18.91316,6.27946 18.86535,6.24681c0.0478,0.03265 9.54295,3.03112 9.49515,2.99847c0.0478,0.03265 12.41648,5.03009 12.36868,4.99744c0.0478,0.03265 10.4175,4.65529 10.3697,4.62264c0.0478,0.03265 3.79589,1.90669 6.74655,4.62264c0.0478,0.03265 8.04372,7.02907 7.99591,6.99642c0.0478,0.03265 4.1707,4.15554 4.12289,4.12289c0.0478,0.03265 1.67197,3.90567 1.62417,3.87302c0.0478,0.03265 4.42057,9.02805 4.37276,8.9954c0.0478,0.03265 0.92236,2.2815 0.87455,2.24885c0.0478,0.03265 -0.07713,8.27844 -0.12494,8.24578c0.0478,0.03265 3.54602,9.40286 3.49821,9.37021c0.0478,0.03265 2.54653,8.52831 2.49872,8.49566c0.0478,0.03265 2.04678,7.65376 1.99898,7.6211c0.0478,0.03265 1.29717,5.27997 1.24936,5.24732c0.0478,0.03265 0.17274,4.78023 0.12494,4.74757c0.0478,0.03265 0.54755,3.59333 0.92236,8.90312z" opacity="NaN" fill="#fff"/>
  <path class="product-shape3 shape" style="vector-effect: non-scaling-stroke;" id="svg_10" d="m271.50877,425.52489l2.35624,-0.88728c0.01813,0.01251 2.64244,-0.98723 2.64244,-0.98723c0,0 0.49987,-1.99947 0.48174,-2.01198c0.01813,0.01251 1.76767,-0.92474 1.74954,-0.93725c0.01813,0.01251 1.33028,0.07499 1.31215,0.06248c0.01813,0.01251 -0.16932,-7.11061 -0.18745,-7.12311c0.01813,0.01251 -0.04435,-5.67349 -0.06248,-5.686c0.01813,0.01251 -0.04435,-3.98643 -0.06248,-3.99894c0.01813,0.01251 -1.41899,-1.42461 -1.43712,-1.43712c0.01813,0.01251 -0.54422,-2.6118 -0.56235,-2.62431c0.01813,0.01251 -1.66892,-1.73703 -1.68705,-1.74954c0.01813,0.01251 -1.73141,-2.54931 -1.74954,-2.56182c0.01813,0.01251 -1.79389,-0.98723 -1.81202,-0.99974c0.01813,0.01251 -2.04382,1.07473 -2.06195,1.06222c0.01813,0.01251 -0.91912,1.9495 -0.93725,1.93699c0.01813,0.01251 0.01813,2.57433 0,2.56182c0.01813,0.01251 0.45552,5.88595 0.45552,5.88595c0,0 0.43738,4.93619 0.41925,4.92368c0.01813,0.01251 0.01813,4.13642 0,4.12391c0.01813,0.01251 0.58048,6.32334 0.58048,6.32334c0,0 -0.26963,1.9752 0.56235,4.12391z" opacity="NaN" fill="#fff"/>
  <path class="product-shape3 shape" style="vector-effect: non-scaling-stroke;" id="svg_11" d="m279.11661,374.67993l1.28671,-6.66953l0.60628,-8.18475l-1.21255,-4.54708l3.03139,-11.51927l3.9408,-10.30672l4.54708,-7.57847l5.4565,-10.91299l6.66905,-6.66905c0.22899,0.00048 8.11059,-7.88113 8.11059,-7.88113c0,0 5.75964,-9.70044 5.53065,-9.70092c0.22899,0.00048 5.07921,-5.15288 4.85022,-5.15336c0.22899,0.00048 13.56709,-3.33405 13.3381,-3.33453c0.22899,0.00048 20.23614,-6.0623 20.00716,-6.06277c0.22899,0.00048 27.51147,-9.39682 27.28248,-9.3973c0.22899,0.00048 22.96439,-6.66858 22.7354,-6.66905c0.22899,0.00048 25.3895,-6.0623 25.16051,-6.06277c0.22899,0.00048 33.27111,-6.66858 33.04212,-6.66905c0.22899,0.00048 19.02359,-3.33405 18.7946,-3.33453c0.22899,0.00048 40.84958,-6.36544 40.62059,-6.36591c0.22899,0.00048 51.15629,-8.18427 50.9273,-8.18475c0.22899,0.00048 35.39308,-6.0623 35.16409,-6.06277c0.22899,0.00048 23.26753,-3.33405 23.03854,-3.33453c0.22899,0.00048 22.31051,-2.30149 31.52643,-3.63766c0.22899,0.00048 28.72403,-3.63719 28.49504,-3.63766c0.22899,0.00048 22.9644,-1.81836 22.7354,-1.81883c0.22899,0.00048 19.62987,-2.72777 19.40088,-2.72825c0.22899,0.00048 19.93301,-0.90894 19.70402,-0.90942c0.22899,0.00048 21.14556,0.30361 20.91657,0.30314c0.22899,0.00048 10.83885,0.30361 10.60986,0.30314c0.22899,0.00048 9.02001,3.03186 8.79102,3.03139c0.22899,0.00048 11.14199,3.94128 10.91299,3.9408c0.22899,0.00048 18.72045,8.7915 18.49146,8.79102c0.22899,0.00048 -17.65619,-2.1215 -17.88518,-2.12197c0.22899,0.00048 -15.83736,-2.1215 -16.06635,-2.12197c0.22899,0.00048 -11.59342,-0.6058 -11.82241,-0.60628c0.22899,0.00048 -16.44364,0.30361 -16.67263,0.30314c0.22899,0.00048 -23.11269,2.42559 -23.34168,2.42511c0.22899,0.00048 -23.71897,2.12245 -23.94796,2.12197c0.22899,0.00048 -29.4786,3.94128 -29.70759,3.9408c0.22899,0.00048 -27.65977,3.63814 -27.88876,3.63766c0.22899,0.00048 -9.88029,2.10599 -22.7354,3.9408c0.22899,0.00048 -22.50641,3.63814 -22.7354,3.63766c0.22899,0.00048 -23.41583,4.24442 -23.64482,4.24394c0.22899,0.00048 -23.41583,4.54756 -23.64482,4.54708c0.22899,0.00048 -28.26605,6.06325 -28.49504,6.06277c0.22899,0.00048 -30.9943,6.66953 -31.22329,6.66905c0.22899,0.00048 -24.93153,6.36639 -25.16051,6.36591c0.22899,0.00048 -21.29386,5.76011 -21.52285,5.75964c0.22899,0.00048 -23.71897,6.36639 -23.94796,6.36591c0.22899,0.00048 -24.02211,8.48836 -24.2511,8.48788c0.22899,0.00048 -26.75036,10.91347 -26.97935,10.91299c0.22899,0.00048 -18.86875,9.39778 -19.09774,9.3973c0.22899,0.00048 -4.61229,2.64691 -11.21613,5.75964c0.22899,0.00048 -9.47145,6.66953 -9.70044,6.66905c0.22899,0.00048 -10.68401,6.36639 -10.91299,6.36591c0.22899,0.00048 -9.77459,7.88208 -10.00358,7.88161c0.22899,0.00048 -6.7432,6.66953 -6.97219,6.66905c0.22899,0.00048 -6.44007,8.48836 -6.66905,8.48788c0.22899,0.00048 -6.7432,10.91347 -6.97219,10.91299c0.22899,0.00048 -4.01496,7.88208 -4.24394,7.88161c0.22899,0.00048 -4.62123,1.51617 -4.85022,1.51569c0.22899,0.00048 -3.71182,-1.51522 -3.9408,-1.51569c0.22899,0.00048 -3.40868,0.60675 -3.63766,0.60628c0.22899,0.00048 -2.27641,3.85081 -4.62123,5.76011z" opacity="NaN" fill="#fff"/>
  <!--elastic1-->
  <path class="product-shape4 shape" style="vector-effect: non-scaling-stroke;" id="svg_13" d="m258.90597,437.74651l3.20899,0.66701l2.99941,0.16663l1.66634,-1.9996l0.66653,-4.16585l-0.9998,-3.33267l-2.66614,-3.99921l-3.66594,-3.66595l-5.33228,-4.16584l-4.16585,-2.66614l-3.83258,-2.49951l-3.66594,-1.66634l-4.66575,-1.4997l-1.66633,-0.33327l-1.33307,-3.83258l-1.99961,-3.33267l-1.83297,-2.49951l-1.49971,-1.33307l2.33288,-1.16644l2.4995,-3.49931l0.66654,-2.66614l0.33327,-2.33287l-0.83317,-3.16604l1.9996,-0.16664l1.66634,1.83298l0.9998,0.4999l0.49991,-1.99961l2.16623,-1.4997l1.99961,-0.99981l0.9998,-0.66653l-1.66634,-2.33287l-2.9994,-4.83238l-2.49951,-4.33248l-2.16624,-3.66595l-2.33287,-3.83257l-2.16624,0l-2.49951,1.16643l-1.4997,1.49971l-2.52098,0.83292l-8.42038,-17.12168l-8.08711,-17.12168l-4.21019,-9.56065l-0.8775,-5.22816l-3.84367,0.83836l-4.42134,3.9185l-0.29437,2.62578l7.70404,16.62302l9.70087,18.83223l0.20275,1.66893l-13.31264,-15.99554l-13.97919,-15.32901l-3.5736,0.7505l-2.35144,2.72879l-1.35164,2.39552l16.81144,18.39237l15.97827,18.559l-2.82375,3.6666l-0.32874,4.49943l0.17114,2.99974l-0.92757,3.37953l0.01805,1.6364l0.25898,2.98443l1.46256,3.07525l1.98103,1.78757l1.98104,1.78757l3.75829,1.1098l2.71231,0.22163l2.37905,1.55471l1.4209,2.22124l0.42109,4.38749l4.17037,1.63802l-2.66389,1.90213l-1.49857,2.20082l-0.16607,3.10002l0.16692,2.63312l0.99994,1.31656l3.33275,0.7416l1.45807,-0.73109l0.95815,-4.06376l4.27,-0.36555l1.93713,2.46723l2.85362,0.21768l8.25879,5.85772l5.54578,5.1784l5.04589,4.84514l0.48881,1.12998l0.48882,1.12998z" opacity="NaN" fill="#fff"/>
  <path class="product-shape4 shape" style="vector-effect: non-scaling-stroke;" id="svg_14" d="m236.74368,408.75223l-0.79022,-3.8321l-0.16663,-3.99921l0.33327,-3.33268l0.83317,-2.66614l2.33287,-2.83277l2.49951,-1.16644l0.9998,1.16644l1.16644,-2.16624l0.16663,-2.99941l3.16604,-0.66654l3.33268,-0.4999l2.16624,1.4997l1.99961,1.83297l3.33268,0.4999c0.12369,0.16616 0.29032,2.16576 0.29032,2.16576c0,0 -0.9998,2.33287 -1.12349,2.16672c0.12369,0.16616 3.28973,-4.66622 3.16604,-4.83238c0.12369,0.16616 3.95626,-6.83246 3.83258,-6.99862c0.12369,0.16616 2.45656,-4.66622 2.33287,-4.83238c0.12369,0.16616 0.62359,-1.50018 0.4999,-1.66634c0.12369,0.16616 3.78963,0.16616 3.66594,0c0.12369,0.16616 3.623,0.33279 3.49931,0.16663c0.12369,0.16616 2.62319,1.49923 2.49951,1.33307c0.12369,0.16616 1.62339,2.16576 1.4997,1.99961c0.12369,0.16616 -1.20938,3.99873 -1.33307,3.83258c0.12369,0.16616 -3.54226,6.66488 -3.66594,6.49872c0.12369,0.16616 -2.20919,3.99873 -2.33287,3.83258c0.12369,0.16616 -2.37582,3.66547 -2.49951,3.49931c0.12369,0.16616 -2.87572,4.99854 -2.99941,4.83238c0.12369,0.16616 0.45695,3.66547 0.33327,3.49931c0.12369,0.16616 -0.70948,4.99854 -0.83317,4.83238c0.12369,0.16616 -1.70929,3.49883 -1.83297,3.33268c0.12369,0.16616 -3.20899,2.16576 -3.33268,1.99961c0.12369,0.16616 -2.70909,0.99933 -2.83277,0.83317c0.12369,0.16616 -2.87572,-1.50018 -2.99941,-1.66634c0.12369,0.16616 -3.20899,-1.66681 -3.20899,-1.66681c0,0 -0.4999,-1.33307 -0.62359,-1.49923c0.12369,0.16616 2.45656,-3.99969 2.33287,-4.16584c0.12369,0.16616 -2.04255,-1.16691 -2.16624,-1.33307c0.12369,0.16616 -0.70948,-2.33335 -0.83317,-2.49951c0.12369,0.16616 -1.04275,-0.16711 -1.16644,-0.33327c0.12369,0.16616 -0.37622,4.8319 -0.4999,4.66575c0.12369,0.16616 -0.54285,1.33259 -0.66654,1.16644c0.12369,0.16616 -3.04236,-0.66701 -3.16604,-0.83317c0.12369,0.16616 -2.87572,-0.66701 -2.99941,-0.83317c0.12369,0.16616 -3.20899,0.33279 -3.33268,0.16663c0.12369,0.16616 -1.04275,-0.00048 -1.16644,-0.16663c0.12369,0.16616 0.12369,0.66606 0.29032,1.66586z" opacity="NaN" fill="#fff"/>
  <path class="product-shape4 shape" style="vector-effect: non-scaling-stroke;" id="svg_15" d="m248.40804,380.59112l0.20958,-4.66527l-0.33327,-5.49892l-0.83317,-5.33228l-0.83317,-4.83238l-1.33307,-2.83277l-1.83297,-0.9998l0.83317,-2.16624l2.49951,-1.4997l2.33287,0.16663l2.83277,0.83317l1.33307,1.66634l0.9998,1.83297l-0.16663,2.83277l0.4999,2.99941l0.33327,3.66594l0.16663,2.16624c0.12369,0.16616 2.78983,-3.83305 2.78983,-3.83305c0,0 3.33268,-4.66575 3.20899,-4.8319c0.12369,0.16616 3.95626,-3.66642 3.83258,-3.83258c0.12369,0.16616 4.1229,-2.66662 3.99921,-2.83277c0.12369,0.16616 3.28973,-1.00028 3.16604,-1.16644c0.12369,0.16616 3.45636,0.49942 3.33268,0.33327c0.12369,0.16616 2.45656,1.33259 2.33287,1.16644c0.12369,0.16616 2.12329,1.33259 1.99961,1.16644c0.12369,0.16616 1.12349,4.49863 0.9998,4.33248c0.12369,0.16616 -0.04295,5.16517 -0.16663,4.99901c0.12369,0.16616 -0.20958,3.66547 -0.33327,3.49931c0.12369,0.16616 -1.20938,7.16478 -1.33307,6.99862c0.12369,0.16616 -2.70909,-0.66701 -2.83277,-0.83317c0.12369,0.16616 -3.54226,-1.00028 -3.66594,-1.16644c0.12369,0.16616 -2.54245,-0.16711 -2.54245,-0.16711c0,0 0.66654,-2.99941 0.54285,-3.16557c0.12369,0.16616 0.45695,-3.16652 0.45695,-3.16652c0,0 -1.16644,0 -1.16644,0c0,0 -1.99961,3.49931 -2.12329,3.33315c0.12369,0.16616 -2.04255,2.99893 -2.16624,2.83277c0.12369,0.16616 -2.87572,1.33259 -2.99941,1.16644c0.12369,0.16616 -4.54206,2.49903 -4.66575,2.33287c0.12369,0.16616 -3.87553,2.3324 -3.99921,2.16624c0.12369,0.16616 -2.37582,1.66586 -5.37523,2.3324z" opacity="NaN" fill="#fff"/>
  <path class="product-shape4 shape" id="svg_17" d="m535.64216,440.1329l8.76448,-1.0832l-0.68739,3.24945l-0.31244,4.49922l0.5624,4.49923l1.06232,4.81168l1.43725,3.43691l2.81202,4.62421l2.49957,2.8745l1.56223,1.7497l2.12464,2.18713l1.12481,1.87468l1.34169,-2.09056l1.2793,-1.71631l1.06164,-0.68813l1.12905,0.62066c0.04652,0.02088 2.04617,1.70809 2.04617,1.70809c0,0 1.12481,1.7497 1.07829,1.72882c0.04652,0.02088 0.79639,1.89556 0.74988,1.87468c0.04651,0.02088 -1.32825,0.14586 -1.37477,0.12498c0.04652,0.02088 -0.4534,2.14552 -0.49991,2.12463c0.04651,0.02089 -0.14095,1.45814 -0.43743,3.12447c0.04652,0.02088 -0.57837,2.39547 -0.62489,2.37459c0.04652,0.02088 0.04652,1.27067 0,1.24979c0.04652,0.02088 -0.32842,1.95805 -0.37494,1.93716c0.04652,0.02089 -0.26593,1.89557 -0.31244,1.87468c0.04651,0.02089 2.73355,-0.54152 2.68704,-0.5624c0.04651,0.02088 2.17115,3.89522 2.12463,3.87433c0.04652,0.02089 0.85888,2.45797 0.81236,2.43709c0.04652,0.02088 0.42146,3.02037 0.37494,2.99948c0.04652,0.02089 0.60892,3.89522 0.5624,3.87434c0.04652,0.02088 0.1715,2.33298 0.31245,4.37425c0.04652,0.02088 0.42145,6.01985 0.37493,5.99897c0.04652,0.02088 0.23399,5.39496 0.18747,5.37408c0.04652,0.02088 -0.01597,5.39496 -0.06249,5.37408c0.04652,0.02088 -0.14095,4.45762 -0.18747,4.43673c0.04652,0.02089 -0.3909,3.02037 -0.43742,2.99949c0.04652,0.02088 -0.26593,2.70792 -0.31245,2.68704c0.04652,0.02088 3.48343,0.39582 3.48343,0.33333c0,-0.06249 1.93717,0.93734 1.89065,0.91645c0.04652,0.02089 0.85888,2.08304 0.81236,2.06215c0.04652,0.02089 0.1715,1.58312 0.37494,2.12464c0.04651,0.02088 2.60858,0.39582 2.67106,0.39582c0.06249,0 1.37477,1.18729 1.32825,1.16641c0.04652,0.02088 1.23382,1.70809 1.1873,1.68721c0.04652,0.02088 0.85888,2.02054 0.81236,1.99966c0.04652,0.02088 0.10901,1.77058 0.06249,1.7497c0.04652,0.02088 -0.32842,2.08303 -0.37494,2.06214c0.04652,0.02089 2.23364,0.20836 2.18713,0.18747c0.04651,0.02089 2.42111,0.95822 2.37459,0.93734c0.04652,0.02088 2.42111,1.27067 2.37459,1.24979c0.04652,0.02088 4.29579,2.02054 4.24927,1.99965c0.04652,0.02089 3.79588,1.7081 3.74936,1.68721c0.04652,0.02089 4.29579,2.08303 4.24927,2.06215c0.04652,0.02088 4.54575,2.33299 4.49923,2.3121c0.04652,0.02089 4.10832,2.02055 4.0618,1.99966c0.04652,0.02089 5.4206,2.77041 5.37408,2.74953c0.04652,0.02088 3.17099,1.89556 3.12447,1.87468c0.04652,0.02088 3.48343,0.14586 3.43691,0.12498c0.04652,0.02088 0.7339,1.20818 0.68738,1.18729c0.04652,0.02089 -0.14095,2.52046 -0.18747,2.49957c0.04652,0.02089 -0.95331,1.33316 -0.99983,1.31228c0.04652,0.02088 -1.32824,1.58312 -1.39073,1.58312c-0.06249,0 -1.43726,1.49974 -1.48377,1.47885c0.04651,0.02089 -0.57838,1.64561 -0.6249,1.62472c0.04652,0.02089 -1.39073,0.39583 -1.43725,0.37494c0.04652,0.02089 -1.39074,-0.29156 -1.43725,-0.31245c0.04651,0.02089 -0.57838,-1.16641 -0.6249,-1.18729c0.04652,0.02088 -2.20309,-1.54135 -2.24961,-1.56223c0.04652,0.02088 -3.57786,-1.60384 -3.62438,-1.62473c0.04652,0.02089 -3.82782,-2.16624 -3.87433,-2.18712c0.04651,0.02088 -3.3904,-1.60384 -3.43691,-1.62472c0.04651,0.02088 -4.14027,-2.16624 -4.18679,-2.18713c0.04652,0.02089 -3.70284,-1.60383 -3.74935,-1.62472c0.04651,0.02089 -3.26542,-1.47886 -3.31194,-1.49974c0.04652,0.02088 -2.32807,-1.47886 -2.37459,-1.49974c0.04652,0.02088 -2.32807,-1.2289 -2.37459,-1.24979c0.04652,0.02089 -2.89048,-1.35388 -2.937,-1.37476c0.04652,0.02088 -2.14061,-0.85397 -2.18712,-0.87485c0.04651,0.02088 1.35879,1.58311 1.31227,1.56223c0.04652,0.02088 2.10867,1.95805 2.06215,1.93717c0.04652,0.02088 3.6084,3.08286 3.56189,3.06197c0.04651,0.02089 3.10849,2.8329 3.06197,2.81202c0.04652,0.02088 4.42077,4.14518 4.37425,4.12429c0.04652,0.02089 4.79571,4.52012 4.74919,4.49923c0.04652,0.02089 3.54592,4.08269 3.4994,4.0618c0.04652,0.02089 4.04583,4.08269 3.99931,4.06181c-0.07846,0.27084 2.60858,0.95822 2.56206,0.93734c0.04652,0.02088 3.1085,0.77075 3.06198,0.74987c0.04652,0.02088 -1.14078,1.58311 -2.31211,3.06197c0.04652,0.02089 -5.01511,2.95788 -5.06163,2.937c0.04652,0.02088 -3.14043,0.58329 -3.18695,0.5624c0.23398,0.02089 -0.26593,-2.79113 -0.31245,-2.81202c0.04652,0.02089 -8.26456,-7.22787 -8.31107,-7.24875c0.04651,0.02088 -3.89031,-2.91611 -3.93683,-2.937c0.04652,0.02089 -4.01528,-3.72847 -4.0618,-3.74936c0.04652,0.02089 -4.20276,-4.29087 -4.24927,-4.31176c0.04651,0.02089 -3.57786,-3.66598 -3.62438,-3.68686c0.04652,0.02088 -3.26542,-3.35354 -3.31193,-3.37443c0.04651,0.02089 -1.45323,-1.41636 -1.49975,-1.43725c0.04652,0.02089 -2.1406,1.45814 -2.18712,1.43725c0.04652,0.02089 -1.89065,1.02072 -1.93717,0.99983c0.04652,0.02089 -2.82799,0.39582 -2.82799,0.39582c0,0 -3.87433,-0.18746 -3.92085,-0.20835c0.04652,0.02089 -2.70301,-1.29139 -2.74953,-1.31227c0.04652,0.02088 -2.26559,-2.47869 -2.3121,-2.49958c0.04651,0.02089 -1.14078,-2.41619 -1.14078,-2.41619c0,0 -0.74987,-2.937 -0.79639,-2.95788c0.04652,0.02088 0.17149,-1.60384 0.12498,-1.62473c0.04651,0.02089 -2.57804,-0.10409 -2.62455,-0.12497c0.04651,0.02088 -1.57821,-2.16624 -1.62472,-2.18713c0.04651,0.02089 -0.01598,-2.54117 -0.06249,-2.56206c0.04651,0.02089 -0.26593,-1.2289 -0.06249,-2.87451c0.04651,0.02089 0.7339,-1.41637 0.68738,-1.43725c0.04652,0.02088 1.35879,-0.85397 1.31228,-0.87485c0.04651,0.02088 -0.70336,-1.2289 -0.74988,-1.24979c0.04652,0.02089 -0.3909,-2.22873 -0.3909,-2.22873c0,0 0.68738,-2.37459 0.64086,-2.39547c0.04652,0.02088 1.23381,-1.47886 1.1873,-1.49975c0.04651,0.02089 1.60875,-0.85396 1.56223,-0.87485c0.04652,0.02089 -0.51589,-1.97877 -0.51589,-1.97877c0,0 -0.99983,-2.81202 -0.99983,-2.81202c0,0 -0.62489,-3.81184 -0.68738,-3.81184c-0.06249,0 -0.74987,-5.2491 -0.79639,-5.26999c0.04652,0.02089 -0.26593,-4.54083 -0.31244,-4.56171c0.04651,0.02088 0.17149,-4.60333 0.12498,-4.62421c0.04651,0.02088 -0.14096,-2.4162 0.12497,-6.4364c0.04652,0.02089 0.54644,-3.60349 0.49992,-3.62438c0.04652,0.02089 0.54643,-2.79113 0.54643,-2.79113c0,0 0.81236,-2.3121 0.76584,-2.33299c0.04652,0.02089 0.42146,-3.16607 0.37494,-3.18695c0.04652,0.02088 0.60892,-2.10375 0.5624,-2.12464c0.04652,0.02089 0.67141,-1.54134 0.6249,-1.56223c0.04651,0.02089 0.35896,-3.04109 0.31244,-3.06197c0.04652,0.02088 -1.5782,-1.10393 -1.62472,-1.12481c0.04652,0.02088 -1.0158,-0.72899 -1.99966,-2.24961c-0.64086,-0.29157 -2.32807,-3.47852 -2.37459,-3.4994c0.04652,0.02088 -0.89082,-3.16607 -0.93734,-3.18696c0.04652,0.02089 -1.82816,-2.60366 -1.82816,-2.60366c0,0 -1.93717,-0.99983 -1.98368,-1.02072c0.04651,0.02089 -4.32774,-5.16572 -4.32774,-5.16572c0,0 -2.43708,-6.68636 -2.4836,-6.70724c0.04652,0.02088 -1.45322,-6.41551 -1.49974,-6.4364c0.04652,0.02089 0.54643,-6.97791 0.49992,-6.9988c0.04651,0.02089 0.44907,-2.129 0.85887,-4.91577z" opacity="NaN" fill="#fff"/>
  <path class="product-shape4 shape"  style="vector-effect: non-scaling-stroke;" id="svg_22" d="m565.23549,434.75756l0.22838,1.58956l-0.0625,2.43734l0,1.06243l-0.68746,3.56227l-0.49997,2.18736l-0.31248,0.68746l0.24998,3.43728l0.56246,3.93725l0.37498,3.99974l0.49997,3.56227l0.74995,2.93731l1.4999,2.99981l2.31235,-5.18717l0.93744,-5.56214l0.93744,-6.62458l0.37498,-7.56202l0,-5.68714l-1.4999,-4.12474l-5.66553,2.34769z" opacity="NaN" fill="#fff"/>
  <!--elastic2-->
  <path class="product-shape5 shape" style="vector-effect: non-scaling-stroke;" id="svg_18" d="m467.0265,671.76584l2.90462,-1.61187l4.24148,-1.93362l1.55937,-0.68612l4.55335,0.499l3.30586,-0.18712l2.49499,-0.06237c0.02699,0.0525 1.46161,0.98812 1.46161,1.0505c0,0.06237 -0.12475,1.68412 -0.15174,1.63161c0.02699,0.0525 0.33886,2.04849 0.33886,2.04849c0,0 1.12274,1.49699 1.12274,1.55937c0,0.06237 -0.499,1.18512 -0.499,1.24749c0,0.06237 -2.18312,0.62375 -2.21011,0.57124c0.02699,0.0525 -3.77787,-0.00987 -3.90262,-0.00987c-0.12475,0 -3.49298,-0.31187 -3.51997,-0.36438c0.02699,0.0525 -2.34325,-0.57124 -2.37024,-0.62375c0.02699,0.0525 -1.78188,-0.88312 -1.84425,-0.94549c-0.06237,-0.06237 -2.12074,-0.43662 -2.30786,-0.43662c-0.18712,0 -1.30987,-0.68612 -1.33686,-0.73863c0.02699,0.0525 -1.90663,-0.94549 -1.90663,-0.94549c0,0 -0.98976,0.22975 -1.93362,-0.06237z" opacity="NaN" fill="#fff"/>
  <path class="product-shape5 shape" style="vector-effect: non-scaling-stroke;" id="svg_19" d="m545.68102,655.92266l1.15813,0.197l1.30987,-0.87325c0.02699,0.0525 0.96261,-1.75636 0.96261,-1.75636c0,0 0.87325,-2.12074 0.87325,-2.18312c0,-0.06237 -0.06237,-1.99599 -0.12475,-2.24549c-0.06237,-0.2495 -0.87325,-1.80887 -0.87325,-1.87124c0,-0.06237 -1.06037,-1.06037 -1.08736,-1.11287c0.02699,0.0525 -1.90663,0.0525 -1.93362,0c0.02699,0.0525 -1.2205,0.23963 -1.24749,0.18712c0.02699,0.0525 -0.16013,1.42475 -0.16013,1.42475c0,0 -0.06237,1.49699 -0.06237,1.74649c0,0.2495 -0.12475,1.06037 0.06237,1.55937c0.18712,0.499 0.56137,2.37024 0.56137,2.43261c0,0.06237 0.56137,1.68412 0.56137,2.49499z" opacity="NaN" fill="#fff"/>
  <path class="product-shape5 shape" style="vector-effect: non-scaling-stroke;" id="svg_21" d="m754.39067,589.75375l0.77056,-1.65146l0.24925,-2.99098l-0.12462,-1.37087l-3.67642,0.18694l-0.93468,-0.06231l-4.79804,0.93468l-3.24023,0.68543l-4.79804,1.30856l-2.80405,0.68543l0.18694,0.68543l2.67942,0.74775l3.80104,0.4985l5.29653,0.43619l4.36185,0.06231l3.03048,-0.15559z" opacity="NaN" fill="#fff"/>
 </g>
</svg>