<?xml version="1.0" encoding="UTF-8" standalone="no"?>
<svg
   version="1.1"
   id="product-svg"
   width="1280"
   height="850"
   viewBox="0 0 1280 850"
   xmlns:xlink="http://www.w3.org/1999/xlink"
   xmlns="http://www.w3.org/2000/svg"
   xmlns:svg="http://www.w3.org/2000/svg">
  <defs
     id="defs66" />
  <g>
  <path class="product-shape1 shape" d="m 187.24743,330.75045 -3.20081,-15.20385 -0.26673,-13.33671 1.60041,-12.80324 2.66734,-6.66836 4.53448,-5.60142 13.60345,-8.80223 10.1359,-7.73529 15.20385,-7.73529 7.46856,-2.13388 10.9361,-7.20182 12.53651,-8.26876 12.26977,-8.00203 10.93611,-2.40061 15.47058,-3.46754 12.80325,-0.53347 13.06998,-2.40061 15.09321,-0.47645 16.83789,0.13053 17.35999,1.43579 9.52842,0.13052 10.05052,2.34948 17.09895,2.08842 19.31789,4.56842 13.57473,1.43579 7.9621,1.30526 10.31158,2.61052 12.13894,2.08842 11.61684,1.82737 4.4379,1.30527 -1.9579,2.47999 -4.56842,4.96 -2.48,3.13263 -0.65263,2.34948 -0.26105,2.74105 1.69684,3.52421 2.48,4.04631 3.13263,3.65474 -2.74105,3.52421 -3.26316,3.65474 -4.96,-0.13053 -3.13263,1.17474 -2.34947,2.34947 -1.56632,2.74105 -0.39157,3.78526 0.13052,2.48 1.30526,2.74105 1.30527,3.26316 1.95789,3.00211 2.21895,2.74105 2.87158,1.82737 4.30736,1.04421 2.61053,0.39157 0.39158,4.30737 0.13052,3.65474 -8.35368,-0.78316 -7.83157,-2.21895 -8.74526,-1.17473 -14.48842,-1.9579 -17.09895,-3.65473 -10.4421,-1.82737 -8.48421,-0.78316 -11.35578,-2.21895 -10.70316,-2.21894 -11.09473,-1.30527 -10.31158,-1.43578 -7.83158,-0.91369 h -7.17894 l -9.65895,-0.91368 -17.62104,-3.26316 -20.49263,-4.56842 -22.97263,-4.96 -9.65894,-2.08842 -10.4421,-2.21895 -6.39579,-1.69684 -8.48421,-1.43579 -5.87368,-0.39158 -3.13263,2.21895 -5.48211,2.48 -7.43999,1.82737 -8.97775,0.19124 -4.19245,-0.69874 -4.8912,4.36713 -4.54182,4.8912 -3.66839,4.01776 -4.71651,3.6684 -1.92154,2.96965 -0.52406,2.09623 0.17469,3.14433 -0.87343,2.96966 -2.79497,6.46336 -1.92154,6.81273 -0.87342,4.71651 1.04811,7.33679 z" />
    <path class="product-shape1 shape" d="m 506.24709,262.87537 -3.2035,2.44974 -2.44974,1.97863 0.94221,1.13065 1.50753,0.4711 1.79019,-0.18844 1.69597,-1.13065 0.56532,-1.31909 z" />
    <path class="product-shape1 shape" d="m 498.61522,271.82633 -0.84798,3.29772 1.97863,1.4133 1.88441,1.97864 1.03643,1.88441 0.4711,3.10928 -0.0942,1.88441 0.56532,3.01505 0.0942,2.7324 -0.56532,3.01506 -1.60175,2.16707 -2.44974,1.88441 -0.9422,0.94221 0.56532,4.89947 0.37688,4.1457 0.28267,2.7324 16.01749,2.44973 4.71103,0.94221 6.59544,1.03643 9.32784,1.60175 8.19718,1.69597 6.97233,1.22486 10.92958,2.44974 12.15445,2.54395 6.87811,0.94221 5.84167,1.97863 6.97232,1.22487 8.57407,1.31909 8.29141,1.03642 9.04518,0.75377 15.64061,1.97863 8.19719,0.84798 9.70472,0.84799 12.81399,0.75376 9.42206,0.75377 7.16076,0.28266 8.47985,3.95726 13.09666,4.52259 10.55271,2.54395 5.93589,0.28267 5.18213,2.26129 3.58038,3.39194 7.34921,0.37688 6.407,-0.28266 7.06654,-1.50753 5.27635,-0.28266 8.00875,2.07285 7.16076,2.92084 5.08791,3.01506 10.5527,1.31909 14.79263,3.48616 7.25499,2.92083 6.40699,2.2613 7.53765,5.55901 9.79894,2.63818 10.56442,4.63872 3.55267,1.85356 1.54464,6.17855 4.63391,8.9589 6.62296,9.8483 0.6368,5.51898 3.60857,8.06621 3.60856,11.03796 3.3963,7.85394 1.91042,8.91528 2.33495,6.58032 1.48588,4.66991 2.12269,3.82083 2.54722,2.75949 2.54722,10.18889 2.54723,5.94352 9.97662,9.12755 11.4625,7.4294 8.27847,4.45764 3.82083,0.42454 6.15579,-2.97176 -0.84907,-8.49075 1.91042,-6.15578 1.06134,-10.61343 1.48588,-19.10417 -3.3963,-15.28333 -1.27361,-15.07107 -5.30671,-19.74098 -3.60857,-10.40115 -3.60856,-8.06621 -7.4294,-14.8588 -7.21713,-9.55208 -9.33982,-9.12755 -11.4625,-10.40116 -11.67477,-9.97662 -16.13241,-11.03796 -20.16551,-11.4625 -16.34468,-8.06621 -12.73611,-6.36805 -23.77408,-7.64167 -17.19375,-5.09445 -17.83056,-5.30671 -15.07106,-3.82083 -24.62316,-4.88218 -18.04282,-3.3963 -31.20348,-4.88217 -23.56181,-2.97176 -26.74583,-3.3963 -14.43426,-3.18403 -8.27848,-2.33495 -8.49074,-0.21227 -8.0662,-2.97176 -10.61343,-3.18403 -13.37292,-2.75949 -10.82569,0.21227 -5.94352,0.84907 -4.24537,9.55209 -4.24537,10.18889 -4.03311,4.88217 -3.39629,1.91042 -3.3963,0.42454 z" />
    <path class="product-shape1 shape" d="m 280.74219,224.70178 7.56208,-4.45623 6.48178,-3.10585 8.10223,-9.4526 8.64237,-6.48178 22.28113,-11.61319 6.75186,-2.83578 12.0183,0.67518 28.49283,-0.27007 18.50009,1.89052 24.71179,3.24089 15.52927,3.646 26.60232,7.02193 10.66793,3.10586 22.95631,2.5657 47.263,6.75186 30.78846,3.78104 11.07305,1.35037 -3.51097,2.29563 -1.89052,3.78104 -0.81022,4.59126 -4.05111,-1.08029 -5.26645,-1.89052 -5.40149,-1.48541 -4.59126,-0.40511 -3.78104,1.62044 -2.29563,2.43067 -2.16059,2.97082 -4.99638,-0.81023 -4.7263,-0.27007 -1.48541,-2.16059 -1.89052,-3.37593 -2.29563,-2.70075 -3.51096,-2.16059 -3.37593,-0.94526 -5.26645,-0.40511 -1.62044,-0.13504 -3.78104,-4.45622 -3.37593,-1.48541 -4.45623,0.13504 -3.10585,2.29563 -3.24089,4.18615 -3.24089,4.32119 -2.56571,3.24089 -19.58038,-4.05112 -12.42342,-2.16059 -16.7446,-1.89052 -37.8104,-7.69712 -8.77741,-1.08029 -9.58764,-0.81023 -13.36867,-0.81022 -17.68987,-0.54015 -16.87964,-0.40511 -10.53289,1.35037 -10.12779,1.35037 -9.85771,2.02556 -11.34312,3.10585 -7.15696,2.43067 -6.61682,2.1606 -10.5329,3.646 z" />
    <path class="product-shape1 shape" d="m 592.81517,229.53616 0.16718,-2.17332 h 4.681 l 6.1856,2.00614 3.34357,1.50461 -9.19482,-0.16718 z" />
    <path class="product-shape1 shape" d="m 611.70635,223.51773 9.69635,5.01536 7.18868,4.01229 2.3405,1.33742 5.34971,-0.16718 5.68408,0.8359 3.00921,1.33743 2.67486,3.34357 5.68407,1.67178 8.02457,2.50768 8.02457,3.17639 8.69328,3.1764 5.01536,-0.66872 4.01229,-0.16718 2.17332,-3.51075 2.67485,-2.50767 3.34358,-0.33436 3.00921,0.66871 -1.00307,-4.01228 0.50153,-2.3405 2.17332,-2.17332 -13.2071,-1.50461 -13.54146,-1.33743 -12.87275,-0.50153 -13.37429,-1.17025 -10.19789,-1.17025 -12.20404,-2.50768 -7.85739,-1.83897 z" />
    <path class="product-shape1 shape" d="m 712.84937,261.80162 0.50154,-2.67485 1.67179,-1.83897 0.16717,-2.84203 v -3.00922 l -0.33435,-2.67485 6.68714,-3.1764 7.35586,-3.34357 7.52303,-2.84203 2.3405,2.00614 5.01536,1.00307 8.5261,1.67179 11.53532,1.67178 11.53532,1.67179 15.54761,2.50768 11.7025,1.83896 12.20403,2.3405 12.37122,2.50768 9.19482,2.17332 11.7025,3.34357 14.54453,5.51689 10.53225,4.681 14.87889,7.85739 9.362,6.35279 6.18561,6.35278 5.01536,5.34972 1.33742,3.67793 1.67179,5.51689 5.34971,9.02764 4.84818,10.19789 1.83897,3.00922 3.51075,7.18868 1.00307,4.51382 -0.66872,5.01535 2.84204,7.52304 2.3405,8.19175 3.00921,10.8666 1.50461,7.69022 1.17025,11.20096 1.67179,17.88811 1.00307,13.2071 0.33435,14.043 0.16718,6.68714 -5.51689,6.51997 -3.51075,8.19175 -2.17332,4.84818 0.33436,-10.53225 -0.16718,-15.71479 -1.50461,-14.21018 -1.17025,-11.86967 -2.3405,-14.21018 -2.84204,-7.69021 -5.51689,-13.20711 -5.51689,-10.53225 -5.68407,-7.69021 -7.0215,-6.51997 -7.69021,-5.68407 -9.02765,-9.86353 -11.03378,-10.03072 -23.27721,-16.49249" />
    <path class="product-shape1 shape" d="m 712.84937,261.80162 0.50154,-2.67485 1.67179,-1.83897 0.16717,-2.84203 v -3.00922 l -0.33435,-2.67485 6.68714,-3.1764 7.35586,-3.34357 7.52303,-2.84203 2.3405,2.00614 5.01536,1.00307 8.5261,1.67179 11.53532,1.67178 11.53532,1.67179 15.54761,2.50768 11.7025,1.83896 12.20403,2.3405 12.37122,2.50768 9.19482,2.17332 11.7025,3.34357 14.54453,5.51689 10.53225,4.681 14.87889,7.85739 9.362,6.35279 6.18561,6.35278 5.01536,5.34972 1.33742,3.67793 1.67179,5.51689 5.34971,9.02764 4.84818,10.19789 1.83897,3.00922 3.51075,7.18868 1.00307,4.51382 -0.66872,5.01535 2.84204,7.52304 2.3405,8.19175 3.00921,10.8666 1.50461,7.69022 1.17025,11.20096 1.67179,17.88811 1.00307,13.2071 0.33435,14.043 0.16718,6.68714 -5.51689,6.51997 -3.51075,8.19175 -2.17332,4.84818 0.33436,-10.53225 -0.16718,-15.71479 -1.50461,-14.21018 -1.17025,-11.86967 -2.3405,-14.21018 -2.84204,-7.69021 -5.51689,-13.20711 -5.51689,-10.53225 -5.68407,-7.69021 -7.0215,-6.51997 -7.69021,-5.68407 -9.02765,-9.86353 -11.03378,-10.03072 -29.79661,-26.15919" id="path463" />
    <path class="product-shape1 shape" d="m 712.84937,261.80162 0.49844,-2.67485 1.66147,-1.83897 0.16614,-2.84203 v -3.00922 l -0.33229,-2.67485 6.64584,-3.1764 7.31044,-3.34357 7.47657,-2.84203 2.32604,2.00614 4.98439,1.00307 8.47345,1.67179 11.46408,1.67178 11.46408,1.67179 15.4516,2.50768 11.63023,1.83896 12.12866,2.3405 12.29482,2.50768 9.13803,2.17332 11.63023,3.34357 14.45471,5.51689 10.46721,4.681 14.787,7.85739 9.30419,6.35279 6.14741,6.35278 4.98438,5.34972 1.32917,3.67793 1.66146,5.51689 5.31667,9.02764 4.81824,10.19789 1.82762,3.00922 3.48907,7.18868 0.99687,4.51382 -0.66459,5.01535 2.82449,7.52304 2.32604,8.19175 2.99063,10.8666 1.49532,7.69022 1.16302,11.20096 1.66147,17.88811 0.99687,13.2071 0.33229,14.043 0.16615,6.68714 -5.48282,6.51997 -3.48907,8.19175 -2.1599,4.84818 0.33229,-10.53225 -0.16614,-15.71479 -1.49532,-14.21018 -1.16302,-11.86967 -2.32605,-14.21018 -2.82449,-7.69021 -5.48282,-13.20711 -5.48282,-10.53225 -5.64897,-7.69021 -6.97813,-6.51997 -7.64272,-5.68407 -8.9719,-9.86353 -16.36503,-23.70918 -38.25176,-28.0112" />
   
   <path class="product-shape2 shape" d="m 192.71943,352.09839 -3.08352,-9.63597 -2.50535,-12.14132 1.20683,-3.99693 -1.206,-7.93951 1.809,-7.33652 1.005,-4.02001 2.81401,-6.03001 1.005,-3.21601 -0.3015,-3.216 0.5025,-2.11051 1.9095,-3.015 4.12051,-3.01501 5.52751,-5.82901 3.81901,-3.91951 4.32151,-4.02001 3.81901,0.804 9.74852,-0.402 7.63801,-1.7085 5.12552,-2.51251 3.1155,-2.211 6.33151,0.402 8.34152,1.407 9.44702,2.41201 8.34152,1.7085 21.20554,4.72351 19.29604,4.12051 15.87904,3.31651 13.26602,2.5125 10.25102,1.005 6.73352,-0.201 17.78853,2.31151 10.75353,1.3065 15.87903,3.21601 7.73852,1.608 8.64301,0.7035 8.44202,1.60801 17.28604,3.618 13.56752,1.80901 9.94952,1.3065 7.23602,2.31151 8.85319,0.63716 0.63038,2.31142 -0.42025,7.14438 -1.47091,9.03554 -1.89116,7.77478 -0.21013,2.73167 0.84052,2.52155 2.52155,1.68103 3.57219,0.21013 1.89116,-0.63039 1.05064,-0.42025 3.15194,-0.42026 3.15193,-1.26078 1.05065,-1.89116 -1.4709,-5.88361 -0.63039,-5.46335 -0.21013,-7.14438 -0.46817,-7.90521 6.51526,1.04844 9.58567,1.42287 5.76638,1.12332 23.96419,4.34351 7.33903,1.2731 12.28165,2.77086 9.06145,1.79731 7.71348,1.19821 5.91615,1.94709 13.03053,2.24664 10.85877,1.34799 9.51079,0.82377 18.12291,2.17175 13.25519,1.2731 11.00855,0.5991 11.83232,0.97355 7.78836,0.29955 7.93813,3.89418 10.25967,3.51974 13.92918,3.59463 5.76638,0.29955 5.54172,2.32153 3.22019,3.29508 7.18925,0.44932 6.73993,-0.29955 7.11437,-1.49776 5.39194,-0.37444 7.63858,2.17175 7.33904,2.84575 4.94261,3.07041 10.40944,1.19821 14.75295,3.36996 13.70452,5.31706 7.93814,5.76638 9.73545,2.5462 6.96459,2.99552 7.18926,3.44485 1.34798,6.2906 4.64306,8.7619 6.66504,9.96012 0.67399,5.6166 7.77794,20.12492 3.42295,7.4412 1.48824,9.67356 -5.06002,3.42295 -10.86415,5.95296 -14.2871,5.20884 -19.19829,5.20884 -19.49595,4.01825 -14.88239,1.78589 -20.24007,0.14882 -22.62124,-0.89294 -31.99716,-3.12531 -68.01255,-11.75709 -41.81954,-8.63179 -37.206,-7.88767 -54.6184,-9.67356 -39.28953,-5.65531 -27.08596,-4.3159 -63.54784,-11.90592 -38.54541,-8.48296 -51.34428,-11.31063 -24.2583,-6.8459 -19.04947,-5.06001 -14.8824,-6.25061 -17.71006,-8.63179 -12.94768,-7.29238 -5.20884,-13.24533 z" id="path546" />
    
    <path class="product-shape3 shape" d="m 795.18423,498.49213 -1.79677,-6.5133 -2.13367,-6.6256 -1.90907,-6.6256 7.29939,-0.89838 7.18709,-0.78609 6.06411,-1.34758 8.08548,-1.57218 11.79132,-2.80745 10.66834,-2.80746 9.09616,-3.25665 7.29939,-2.69516 7.97318,-4.26733 6.1764,-3.93045 1.90907,-1.90907 0.89839,5.61492 -0.67379,6.2887 -0.67379,13.1389 v 8.31008 l 0.44919,8.19777 -0.33689,12.80201 -2.02137,23.80724 -1.34758,10.21914 1.23528,4.94113 0.89839,5.05342 v 4.26734 l -1.68448,12.57741 -0.33689,10.44374 -1.68448,8.87156 -2.02137,9.09616 -0.67379,9.99455 -0.11229,8.87157 -3.25665,3.03205 -2.69516,4.71653 -1.45988,5.83951 -1.57218,6.17641 -3.81814,-2.69516 -3.14435,-2.13367 -1.57218,-2.69516 0.3369,-2.58286 3.03205,-1.23528 2.47056,-1.68447 2.69516,-3.25666 0.1123,-3.14435 -0.67379,-2.47056 -1.90907,-1.23528 -0.56149,-2.80746 v -3.14435 l -1.45988,-3.48125 -2.24597,-2.24596 -2.58286,-0.3369 -3.48124,0.3369 -2.35827,0.89838 -7.86088,-16.84474 -4.37963,-9.20846 -5.61492,-11.11753 -4.60423,-6.7379 -6.2887,-7.52399 -4.82883,-4.37963 -4.49193,-2.69516 1.90907,-2.91976 2.80746,-4.49193 2.58286,-4.94112 1.79677,-5.95181 1.34758,-5.72722 -0.33689,-3.59354 -1.68448,-6.06411 -2.91975,-4.15504 -3.48125,-2.91975 -3.48125,-1.79677 -3.48125,-1.01069 z" id="path548" />
    <path class="product-shape3 shape" d="m 783.72981,515.67377 3.81814,0.4492 h 1.23528 l 0.33689,5.50261 1.45988,5.16573 1.01069,4.04273 0.78608,5.50262 -3.59354,-2.91976 -4.04274,-4.82882 -2.13367,-5.39032 -0.56149,-4.49193 z" id="path550" />
    <path class="product-shape3 shape" d="m 796.53181,513.09091 5.27802,-0.67379 1.01069,2.91976 v 5.39032 l -0.89839,6.1764 -1.12298,3.70585 -1.45988,-5.16572 -1.23528,-5.39032 z" />
      <path class="product-shape3 shape" d="m 800.80845,558.11613 3.04863,-2.83087 3.48414,3.59303 6.53277,8.49259 6.53277,11.54123 5.44397,11.97674 6.31501,13.93657 -8.81924,-6.09725 -11.75898,-8.92812 -6.64165,-5.87949 -3.7019,-3.91966 -2.50423,-3.7019 -1.85095,-4.46406 -1.41543,-4.89957 -0.76216,-5.66174 v -3.04862 l 1.41544,-2.28647 1.85095,1.52431 1.19767,0.5444 z" id="path517" />
      <path class="product-shape3 shape" d="m 753.11925,528.39204 3.81078,-1.6332 3.1575,-1.41543 2.61311,-1.19767 2.83087,0.21776 4.02854,0.21775 2.93974,-0.65327 0.65328,3.1575 1.41543,3.7019 2.83087,4.46406 3.81078,4.35518 4.68182,3.48414 2.39534,1.52432 -1.95983,4.13742 -1.30655,4.89957 -0.43552,6.96829 0.5444,6.75052 1.19767,4.7907 2.61311,5.77061 3.91966,6.42389 5.98837,6.85941 8.38372,8.05708 8.27484,6.53276 8.27484,5.8795 -2.50423,2.50422 -1.19767,3.59303 -0.65328,4.35517 0.32664,4.68182 2.06871,4.02854 2.39535,4.02854 2.06871,3.15751 2.93974,0.21775 2.83087,0.97992 2.72199,2.93974 1.95983,2.39535 1.95983,3.7019 2.50422,2.06871 3.70191,1.6332 4.68181,-0.10888 -3.37526,7.07716 -2.50423,7.29493 -3.04862,7.62156 -1.85095,5.87949 -0.87104,4.89958 -2.83087,3.59302 -3.37526,5.11733 -1.63319,3.7019 -2.61311,2.06871 -0.65328,3.59303 -8.05708,4.57293 -3.91966,2.61311 -10.5613,3.37526 -5.00846,0.87104 -5.77061,-0.10888 3.26638,-6.85941 1.63319,-6.53276 0.32664,-7.29493 -0.32664,-7.29492 -1.08879,-4.57294 -3.04862,-6.31501 3.7019,-3.26638 0.21776,-2.06871 -0.43552,-1.74207 1.74207,-2.39535 2.17759,-1.30655 2.93974,-2.93975 2.17759,1.30655 2.28647,0.32664 1.74207,-0.43552 0.65328,-1.95983 v -3.81078 l -0.97991,-1.74207 -2.06871,-2.17759 -2.39535,-2.17759 -2.28647,-2.72198 -2.06871,-3.48415 -3.59302,-4.57293 -2.61311,-2.50423 -2.83087,-1.0888 -3.37526,0.5444 -2.83087,2.39535 -0.87103,3.59302 0.87103,2.61311 -3.1575,1.74207 -2.93975,1.41543 -1.52431,-1.63319 -1.95983,-0.5444 -2.28647,0.87104 -1.08879,1.74207 -1.41544,1.52431 -2.06871,-4.46405 -1.74207,-4.89958 -1.74207,-7.51268 -1.41543,-7.40381 -1.0888,-11.75898 -0.65327,-11.75898 -0.43552,-12.95666 -0.65328,-11.54122 -1.30655,-8.81924 -2.39535,-9.25475 -2.61311,-5.3351 -3.04862,-4.35517 -3.7019,-3.04863 2.17759,-8.4926 0.43551,-5.00845 z" id="path519" />
      <path class="product-shape3 shape" d="m 757.51869,707.69073 4.54805,-3.87922 5.9526,-4.94936 6.08637,-5.28377 4.94935,-4.48117 4.88247,-5.28377 0.66884,3.07663 -0.0669,5.5513 -0.0669,5.9526 -1.67208,6.08637 -2.47468,5.35065 -2.74221,3.41104 h -6.22013 l -3.94611,-1.13701 -4.61493,-1.47143 -4.54806,-1.67208 z" id="path521" />
      <path class="product-shape3 shape" d="m 743.93369,699.09507 -6.25655,-0.89379 -5.66069,-1.04276 -4.61793,-1.04276 -4.17103,0.4469 -7.59725,-9.08689 -6.25655,-6.85242 -8.04413,-7.29931 -11.02345,-8.1931 -9.68276,-6.40551 -11.32137,-5.36276 -8.19311,-2.97931 -5.66069,-1.63862 h -4.46896 l -6.55448,-8.19311 -7.15035,-8.04413 -6.85241,-6.25655 -5.66069,-4.91586 -5.36276,-2.97931 0.4469,-5.66069 2.97931,-4.91586 3.8731,-5.51173 6.10759,-0.59586 7.89517,-2.53241 7.29931,-3.42621 9.23586,-5.51172 9.98069,-6.55448 13.25793,-10.12966 7.89517,-6.55448 8.49103,-5.95862 6.40552,-3.72414 5.21379,-2.68138 7.44828,-2.53241 1.78758,1.48965 8.34207,1.78759 10.42758,1.78759 6.70345,1.78758 2.23448,0.29793 1.63862,-0.89379 2.53242,4.32 2.83034,8.04414 1.48966,14.00275 1.19172,18.02483 0.59586,10.12965 0.4469,11.91724 1.04276,8.78897 1.99558,8.10592 2.02649,7.53545 5.52319,8.48169 -5.7034,4.31894 -9.05565,6.71385 -8.34207,7.74621 -5.80966,5.36276 -2.38344,2.68138 v 1.78758 l 2.08551,3.42621 3.72414,5.66069 z" id="path523" />
      <path class="product-shape3 shape" d="m 614.6299,670.31965 2.58022,-2.58022 1.72015,-2.79524 1.1826,-2.58022 0.53754,-3.33278 6.23554,-0.32253 8.60073,0.21502 5.913,1.1826 7.52564,0.64505 5.05294,5.59048 6.45055,6.12802 7.84816,6.66557 7.63316,6.23553 8.17069,4.94542 12.25605,6.9881 -13.97619,-5.37546 -6.55806,-1.07509 -6.66557,-1.50513 -5.69799,-1.82765 -6.98809,-2.47272 -7.31063,-0.86007 -6.98809,-1.82765 -4.19286,-0.96759 -4.51539,-4.30036 -4.51538,-2.90275 -4.94542,-1.72015 -5.26795,-0.96758 z" id="path525" />
      <path class="product-shape3 shape" d="m 619.84777,646.66181 6.5523,-0.50403 5.24184,0.40322 5.34265,0.60483 -3.93138,-4.4354 -4.53621,-4.73782 -5.54426,-5.24184 -4.13299,-3.42736 -2.2177,-1.31046 -0.80644,1.91529 -1.10885,1.51206 -1.10885,0.70564 h -1.51207 l -1.10885,-1.00805 -0.60483,-1.81448 -3.02414,-1.10885 -4.03218,-0.40322 -2.82253,0.20161 -2.01609,-0.40322 -1.10886,-1.61288 -1.00804,-1.31046 -4.43541,1.10885 -4.4354,1.10886 -5.34265,2.01609 -4.73782,2.52011 -9.97966,4.53621 -7.45954,4.53621 -6.65311,3.02414 -8.77,2.92334 -4.93943,1.61287 5.14104,0.60483 4.73782,0.50402 2.52011,0.20161 2.72173,1.31046 2.82253,1.71368 4.03219,1.31046 4.23379,1.71368 6.35069,1.10885 2.21771,-1.00804 1.81448,1.00804 4.93943,0.20161 7.56034,0.20161 5.54426,-0.1008 1.41127,-2.1169 2.01609,-1.91529 2.01609,-1.20966 2.1169,-1.10885 0.50402,-2.92333 2.1169,-2.62092 2.92333,-1.41127 3.52817,-0.90724 3.22575,-0.30241 2.82253,0.50402 2.01609,1.41127 1.00805,0.80643 z" id="path527" />
      <path class="product-shape3 shape" d="m 720.89757,515.36866 v 6.04497 l -0.98407,7.59135 -1.96813,12.93342 -4.358,-0.28116 -6.04496,1.68697 -5.76381,3.09277 -6.04497,4.07684 -7.73193,5.48265 -6.74788,4.77974 -7.73193,5.48264 -7.73194,5.48265 -7.16961,5.0609 -7.59136,5.62323 -7.87251,4.77974 -5.76381,2.38987 -5.7638,1.68697 -1.54639,-3.79568 -2.38987,-1.26522 -3.09278,-0.70291 -5.20148,0.42174 -5.76381,-1.4058 -6.32613,-1.12465 -5.62322,-1.26522 -6.74787,-1.40581 -3.6551,-1.96813 -2.81161,-0.84348 -1.96813,2.67103 -1.36438,2.78688 -9.74149,-7.7072 -8.29426,-6.60729 -8.716,-6.88846 -10.40297,-8.43483 -10.26239,-8.99717 -8.57542,-7.73193 -10.68413,-8.716 -8.29426,-6.74787 -9.98122,-7.45078 -8.85658,-6.60729 -6.04497,-4.07684 -3.09277,-1.68696 0.28116,-3.93626 -0.56233,-5.76381 -1.26522,-4.358 -1.12465,-8.15368 v -4.07684 l 0.70291,-2.95219 4.92032,-1.40581 11.66819,0.28117 6.18555,0.98406 12.08994,0.84348 7.87251,1.96813 7.87252,0.14058 12.93342,2.38987 9.13774,1.26523 24.03929,4.49858 58.90329,12.23052 30.78717,6.46671 33.87993,7.87251 10.54355,2.53046 7.3102,1.26522 z" id="path529" />
      <path class="product-shape3 shape" d="m 592.73744,616.33333 -4.11136,-6.9583 -4.26363,-6.98461 -2.07201,-6.54772 0.2248,-3.62825 -16.67024,-11.90355 -15.98862,-12.33408 -19.64317,-16.90226 -13.39999,-11.87727 -14.00908,-11.57271 -12.94317,-9.44091 -10.96363,-7.30908 -1.97954,1.82727 -5.63409,-1.675 -6.85227,-1.675 -6.54772,-1.82727 -5.63408,-1.21818 -3.95909,-0.30454 -5.93863,1.97954 -11.26818,6.39545 -6.0909,4.4159 -8.37499,5.17727 -7.76591,5.78636 -7.91817,3.80682 -3.50227,1.82727 -3.50227,0.30454 -3.04545,3.95909 2.28409,2.43636 1.21818,5.63409 -0.91364,4.4159 3.19773,1.06591 5.02499,3.95909 7.00454,6.39545 8.22272,8.22272 11.42045,12.02954 9.74544,10.04999 9.89772,9.59317 7.30909,6.7 9.59317,8.07045 8.375,6.39544 8.67953,5.93864 10.35454,4.72045 3.95909,-0.30455 6.69999,1.82727 5.93863,1.52273 6.7,1.52272 4.41591,1.675 5.63408,0.30455 7.00454,-1.21818 7.61363,-2.13182 6.54772,-2.74091 7.30909,-3.34999 8.37499,-4.11136 8.22272,-3.95909 7.76591,-3.95909 7.30908,-2.89318 4.11136,-1.06591 z" id="path531" />
      <path class="product-shape3 shape" d="m 353.76465,441.81274 8.22427,2.17701 12.45735,3.26552 12.69925,3.50741 16.3276,3.26552 16.44854,3.99119 15.84382,3.7493 13.42491,3.62836 -0.60472,6.65198 1.45134,3.7493 -0.36284,10.52223 -0.24189,9.31278 -7.25671,1.69324 -7.01482,3.26552 -7.86143,4.8378 -8.70806,6.4101 -8.22427,5.44253 -7.4986,5.20064 -5.20064,2.17702 -2.78174,-2.53985 -3.87025,-1.45135 -4.71686,0.12095 -6.41009,-1.08851 -5.92632,-1.57228 -5.07969,-1.45135 -2.6608,-1.0885 -2.53985,-1.81418 -3.50741,-0.24189 -3.87024,3.02363 -7.86144,-7.13577 -8.829,-8.70805 -8.46616,-8.34522 -7.25671,-7.86143 -7.13577,-7.61955 -8.22427,-7.61955 10.28034,2.6608 10.88507,2.78174 11.85262,3.50741 9.43373,3.14457 3.62835,0.60473 2.05607,-0.96756 0.84662,-2.53985 1.08851,-3.99119 v -4.71687 l -0.60473,-3.87024 -2.17701,-4.11214 -2.05607,-2.90268 0.60472,-3.99119 -2.53984,-7.01482 -1.57229,-2.78174 v -2.41891 l 1.93512,-1.0885 z" id="path533" />
      <path class="product-shape3 shape" d="m 464.07932,627.7763 -9.76324,-7.15971 -12.69221,-9.76323 -13.01765,-13.3431 -10.57685,-10.2514 -11.55316,-12.36677 -6.50883,-7.15971 -4.39346,-4.23074 -5.20706,-3.74257 -1.46448,2.27809 -2.44081,1.13904 -2.92898,-0.32544 -5.20706,-0.97632 -4.23073,-1.30177 -3.25442,-1.78993 -5.36978,3.0917 -4.55618,5.85794 -6.67154,6.34611 -6.02067,6.3461 -6.3461,6.50883 -6.34611,5.85794 -6.67155,2.76625 2.76625,1.78993 5.69523,0.65088 4.23073,1.30177 5.53251,2.44081 7.64787,0.16272 7.48515,2.76625 6.67154,0.8136 5.69523,1.30177 4.88162,2.44081 6.83427,1.95265 5.5325,-0.16272 4.06801,0.65088 8.6242,2.76625 8.62419,1.46449 5.69523,2.44081 5.85794,1.46448 6.50883,1.13905 5.36978,1.6272 4.55618,2.92897 8.46147,1.30177 6.99699,0.65088 5.04434,0.65088 z" id="path535" />
      <path class="product-shape3 shape" d="m 365.70886,551.11906 -4.41453,-6.1571 -4.87922,-6.38945 -3.13664,-5.22773 -1.39406,-5.11156 0.11617,-4.41453 -6.73796,-5.11156 -8.59672,-8.59672 -11.38483,-11.84952 -10.22312,-10.57164 -7.89969,-7.43499 -8.36437,-8.59672 -6.50562,-7.20265 -6.62179,-2.32343 -7.89968,-2.55578 -6.27328,-2.78813 -1.51024,-0.92937 0.46469,-4.99539 0.46469,-3.94984 v -2.09109 l -4.99539,-1.97492 -4.06601,-1.04555 -4.41453,-1.04555 0.58086,8.2482 0.8132,9.29375 1.51023,7.89968 2.55578,10.92015 4.99539,16.03171 4.06602,12.89507 4.5307,15.21851 6.27327,16.96108 6.73797,14.75382 3.13664,7.55117 3.83367,7.31882 4.5307,5.22773 4.41453,1.85875 6.27327,4.29836 5.46008,3.48515 5.3439,3.83367 h 4.87922 l 4.06601,-2.09109 4.18219,-3.02047 6.04093,-6.50562 5.57625,-6.38945 4.41453,-5.22773 4.5307,-4.5307 4.99538,-4.18218 3.7175,-2.78813 z" id="path537" />
      <path class="product-shape3 shape" d="m 203.78729,361.33497 4.22689,2.30557 2.94601,7.30099 5.50776,7.55717 7.30099,9.09422 7.04482,7.30099 17.03564,7.55716 -3.97071,5.25159 -0.89661,3.97071 1.40896,2.56175 2.81792,2.94602 1.92132,1.92131 1.28087,4.35498 1.0247,5.25159 0.12809,4.22689 -1.40896,1.0247 -0.76853,2.94601 -0.38426,6.66055 0.51235,8.19761 1.0247,7.30099 1.92131,9.47847 1.92132,8.70996 3.0741,11.52788 4.0988,14.73006 6.40438,18.70079 5.89202,15.49859 5.25159,13.44919 4.09881,10.88744 4.61115,8.06952 7.30099,10.37509 -8.83804,-6.66055 -5.89203,-7.30099 -5.25159,-7.17291 -4.86733,-4.99541 -10.02358,-16.31478 -8.00002,-14.90582 -4.97398,-10.9299 -3.58645,-11.78405 -1.8514,-8.95643 -1.0247,-7.30099 -0.58227,-5.25159 -2.49183,-8.58187 -0.64044,-8.1976 -2.76945,-8.94674 -4.75862,-16.28651 -1.0538,-6.40438 -0.76852,-8.32569 0.38426,-5.37967 1.28088,-4.99542 -4.86733,-7.55716 -4.73924,-7.55717 -2.56175,-7.68525 -3.33028,-10.37509 -3.0741,-4.48307 -4.22689,-4.99541 -1.92131,-4.48307 z" id="path539" />
      <path class="product-shape3 shape" d="m 747.85122,703.33259 -1.11297,4.57552 0.30916,3.40073 1.11297,1.05113 1.54578,0.12367 2.78242,-0.61832 2.22593,-1.54578 0.68014,-1.79311 -0.86564,-1.54579 -1.73128,-0.55648 -2.04043,-1.36029 -1.42213,-1.3603 -1.11296,-0.24732 z" id="path2317" />

      <path class="elastic1 shape" d="m 514.25988,223.4069 4.24023,-1.98761 3.97521,-0.53003 3.44518,1.32507 1.72259,2.78265 0.66254,5.03527 -1.45758,5.03527 -4.77025,9.14298 -5.43279,6.62536 -5.03527,6.36033 -5.30028,5.69781 -5.6978,4.50524 -1.45758,1.19256 -1.45758,6.22783 2.3948,2.04035 1.66033,1.82636 0.74715,1.41128 0.74715,3.07161 -0.17265,2.19435 0.56183,3.09007 0.0468,2.6687 -0.51501,3.09007 -1.68549,2.20051 -3.32417,2.85598 0.56183,4.54147 0.74911,7.21017 0.42137,7.06971 0.14046,5.00967 0.18728,3.55826 0.56183,4.86921 1.49821,5.71195 -1.12366,2.10687 -3.13689,1.17048 -3.32417,0.42138 -2.71552,0.9832 -3.69872,-0.28091 -2.38779,-1.63868 -0.9832,-2.6687 0.28091,-2.6687 0.88957,-3.6519 1.26412,-6.27379 1.17048,-6.92925 0.4682,-7.16335 -0.65547,-1.82596 0.14045,-2.48142 -0.46819,-5.61831 -2.52824,-0.28092 -4.44783,-1.17048 -2.80916,-1.73232 -2.195,-2.74069 -1.94756,-3.03227 -2.61318,-6.01523 -0.14791,-2.48992 0.39444,-3.8458 1.55311,-2.68714 2.342,-2.342 3.13088,-1.20797 4.97983,0.14791 6.01524,-7.17391 0.48004,-2.65026 0.65977,-2.94356 -3.09582,-3.65407 -1.42102,-3.80633 0.60901,-2.89281 1.92854,-1.57328 2.5883,-0.15225 2.5883,0.76127 2.74056,1.37027 1.42103,1.67479 0.81201,1.57328 0.50751,1.01502 0.96427,0.1015 1.67478,-1.87779 6.44538,-7.96791 4.26309,-5.83637 3.90783,-5.68411 1.52253,-3.04506 -0.81202,-1.21803 -1.37027,-0.50751 -1.11653,-0.81201 -1.01502,-1.06577 -0.3045,-2.0808 z" id="path541" />
      <path class="elastic1 shape" d="m 585.35635,241.21885 -1.76908,-4.37066 -0.66338,-5.66274 0.84508,-4.62959 1.83714,-3.71102 3.49056,-2.35154 3.93148,-0.58788 3.0129,-0.22046 3.82125,0.11023 2.97616,0.5144 3.38034,1.0288 3.74776,1.32274 1.91062,0.91856 9.92055,5.14399 5.8421,3.34359 3.2701,1.8004 4.96028,4.11519 4.22541,0.44091 6.20953,0.73486 1.35948,0.0735 9.84229,2.94983 3.92949,1.25526 7.01304,2.78338 9.65999,3.54746 5.18474,-0.68221 3.79304,-0.19101 2.18305,-3.46559 2.64695,-2.5378 3.4383,-0.32745 2.89254,0.65491 -0.98237,-3.98406 0.51847,-2.48322 2.18305,-2.04661 3.05627,-0.10915 2.37406,0.38203 2.20829,0.45691 1.95219,1.2147 2.51617,0.56397 2.81983,0.52058 2.90661,-1.6919 6.63746,-5.72644 5.89997,-5.03233 3.29704,-2.73307 3.47057,-2.12573 1.30147,-0.21691 1.60513,1.2147 2.6897,1.77867 2.73307,1.6919 2.47278,1.47499 2.08234,2.4294 1.51838,2.34264 0.78088,2.03896 -0.99779,1.51837 -2.77646,0.95441 -3.94777,1.17132 -4.72865,1.77866 -3.47057,0.82426 -5.38142,2.01851 -2.51351,1.03498 -7.68837,3.44991 -5.91413,2.8585 0.29961,2.56558 0.0673,3.16507 -0.20203,2.72734 -1.71721,1.98659 -0.4714,2.55899 -0.58899,2.35505 -1.07897,1.95564 -2.22539,1.61846 -3.10205,1.21385 -2.36026,0.26974 -2.29282,-0.13487 -1.82077,-0.13487 -1.41615,1.28128 -2.15795,0.20231 -2.63,0.13487 -2.29282,-1.14641 -2.02308,-1.55103 -1.01154,-2.42769 -0.0674,-4.58564 -4.58564,0.47205 -2.96718,-0.33718 -2.09052,-0.53949 -2.22538,-0.26974 -4.24847,-0.0674 -4.58564,0.13487 -7.62025,-0.2023 -6.40642,-1.34872 -5.05769,-1.6859 -5.26,-2.42769 -1.48359,-1.28129 0.26974,-1.82076 1.34872,-0.67436 0.67436,-0.87667 -1.61846,0.13487 h -2.76487 l -4.24847,-0.0674 -1.68589,1.48359 -1.6859,2.29282 -2.76487,0.9441 -3.57411,-0.13487 -2.89974,-0.94411 -0.67436,-1.95564 v -2.49513 l 1.21385,-2.63 2.49513,-1.8882 1.48359,-0.60692 -3.84385,-3.10206 -4.65308,-3.30436 -5.93436,-3.30436 -5.19256,-3.43923 -3.3718,-1.55102 -6.13667,-2.02308 -4.65308,0.0674 -0.2023,1.95564 -0.60693,1.61846 0.0674,2.76487 0.67436,2.29282 -0.20231,1.61846 -0.87667,1.34872 -2.02307,1.6859 -1.88821,0.80923 -1.41615,0.0674 z" id="path543" />
      <path class="elastic1 shape" d="m 788.56259,499.6973 -4.04008,1.04743 -4.41415,3.06746 -2.91783,3.29191 -2.7682,4.18971 -1.72077,4.56378 -0.29927,3.74081 0.0748,4.56379 0.59853,2.84302 1.48975,3.74054 2.7895,4.44576 3.83556,4.48935 4.44576,3.22536 2.57157,1.74344 -1.91778,4.05349 -1.26399,5.01238 -0.47945,6.88658 0.52303,6.75581 1.22041,4.70728 2.87667,6.31996 3.66122,5.92769 4.35859,5.09955 1.61268,1.83061 5.66617,5.49182 2.83308,2.70233 6.71224,5.2739 7.36602,5.27389 2.39722,1.74344 -2.52798,2.52798 -1.17682,3.48688 -0.65379,4.315 0.3051,4.9688 2.44081,4.44576 4.14067,6.58148 2.96384,0.26151 2.83308,1.00248 3.92274,4.48935 2.65874,4.53293 2.31005,1.91778 3.74839,1.78703 4.75086,-0.17435 1.08766,-0.47224 0.3875,-3.31533 0.51668,-2.23893 9.08488,7.36263 5.46815,3.61673 2.0667,2.19587 3.27228,0.90418 2.92783,-0.86112 2.49726,-1.76531 1.55003,-2.75561 -0.21528,-3.14311 -0.60279,-3.35839 -2.02365,-1.50697 -5.03758,-2.41115 -10.20435,-6.15705 -4.52091,-3.31534 -6.75984,-4.69313 -1.67919,-2.75561 0.3875,-2.62643 3.01394,-1.11946 2.49727,-1.76531 2.62643,-3.18617 0.12917,-3.22922 -0.6889,-2.66949 -1.85142,-1.03335 -0.6889,-2.88478 0.0861,-3.05699 -1.48415,-3.49122 -2.23502,-2.28208 -2.58792,-0.32937 -3.43488,0.3529 -2.42323,0.89401 -1.95271,-4.25831 -2.77613,-6.0228 -3.27019,-6.98739 -2.96135,-6.18484 -5.01179,-10.13139 -1.62504,-3.40733 -3.40733,-4.92752 -1.36293,-2.14924 -6.34287,-7.39128 -4.82269,-4.3509 -4.3509,-2.67345 4.71785,-7.49612 2.51618,-4.82269 1.74376,-6.09726 1.36681,-5.74761 -0.35046,-3.50465 -1.71728,-6.06302 -2.94389,-4.17053 -3.3995,-2.8738 -3.50464,-1.82241 -3.53969,-1.01635 -2.4883,-0.24532 -1.36681,0.42055 -0.10514,1.99765 0.35047,2.55839 0.91121,3.67987 0.80606,3.46959 0.84112,2.4883 5.15182,-0.63084 1.01634,2.97895 v 5.39714 l -0.87616,6.13312 -1.05139,3.60978 1.29083,11.82235 0.80722,5.08072 0.94967,7.92972 3.51377,3.65621 6.12535,7.97721 4.41595,7.59733 2.46913,4.46344 4.65337,10.35137 7.07502,15.33712 -11.82335,-8.30959 -11.30104,-8.87938 -3.4188,-3.18139 -3.79867,-3.75118 -2.99145,-4.22602 -1.75689,-4.32099 -1.51946,-5.1282 -0.75974,-5.36562 -0.0475,-3.4188 1.4245,-2.13675 0.12571,-6.2617 0.2603,-7.28859 -4.16491,-6.24737 -3.53023,-2.7308 -4.03032,-4.86303 -2.19836,-5.42928 -0.56624,-4.59657 1.63211,-2.86453 2.2336,-2.01808 2.00295,-1.56988 1.78642,-0.75787 0.97441,-0.32481 -0.4872,-3.08562 -0.81201,-4.00591 -0.37894,-2.81496 z" id="path547" />
    
    <path class="elastic2 shape" d="m 251.65776,433.03918 1.51218,4.61612 4.37735,3.3427 0.39794,6.84458 1.11423,11.06276 3.18353,15.20133 0.71629,3.42229 3.15365,9.50087 10.29675,33.63592 3.89982,10.82399 2.62641,6.92417 4.29776,9.31181 3.66106,8.27717 1.9897,4.85488 3.74065,7.24252 4.1047,4.61612 0.67058,1.03464 -2.22846,1.83053 -2.22847,2.22847 -1.03465,3.26311 -1.67135,-1.83053 -5.25282,-7.40169 -1.51217,-1.98971 -4.29776,-7.64046 -5.90651,-15.7471 -5.23524,-13.30791 -1.63852,-4.39601 -4.31608,-11.58947 -2.198,-6.79383 -2.39782,-7.03361 -1.35877,-4.67576 -0.99909,-3.83651 -1.91826,-6.91372 -2.6376,-9.911 -1.99819,-8.75205 -2.20408,-10.99521 -0.91309,-6.34904 -0.23978,-4.43597 -0.27974,-4.03633 0.39963,-6.43416 0.79928,-3.19709 z" id="path2295" />
          <path class="elastic2 shape" d="m 593.33527,250.86692 2.59249,3.37024 5.2714,2.93816 5.09857,1.98758 5.53065,1.12341 6.13557,0.25925 4.49366,-0.25925 2.33324,-0.95058 -0.17283,-1.90116 -2.33325,-0.34567 -2.33324,-1.12341 -4.49365,-0.95058 -4.40724,-1.037 -6.74049,-1.81474 -4.58007,-0.69133 -4.92573,-0.60492 h -0.95058 z" id="path545" />
    <path class="elastic2 shape" d="m 321.34896,585.76037 1.22886,0.88751 4.71066,-0.13654 4.09623,-2.04811 4.23277,-3.07217 3.34525,-3.55007 4.09623,-4.50584 6.07606,-7.03186 2.38947,-2.86736 4.30104,-4.43758 5.5299,-4.57412 4.30104,-3.34525 1.63849,1.63849 2.18465,2.93563 2.3212,2.25293 -1.02406,0.95578 -5.46163,3.20871 -4.1645,5.52991 -5.32509,5.12028 -1.8433,1.63849 -3.14044,3.48179 -3.68661,3.89142 -4.50585,4.50585 -3.55006,3.48179 -3.6866,3.27698 -6.4857,2.59428 -8.12418,1.02405 -3.75487,-0.81924 -2.11639,-1.50195 -0.75097,-2.52601 1.1606,-2.79908 2.18465,-2.11639 2.38947,-1.36541 z" id="path2297" />
    <path class="elastic2 shape" d="m 292.4769,464.43781 8.18059,2.3614 5.39749,1.85539 2.86743,0.67469 6.74687,6.40953 4.80714,5.06015 8.01191,8.6866 7.75891,7.7589 9.95163,9.78297 6.83121,6.49386 3.62645,3.12043 -2.02407,2.61441 -1.51804,3.96379 -0.42168,1.09637 -0.9277,-0.59035 -6.99988,-5.3975 -8.68659,-8.60226 -7.16856,-7.5059 -7.67456,-8.01191 -10.54199,-10.71066 -5.73484,-5.48183 -10.03597,-10.37332 z" id="path2299" />
    <path class="elastic2 shape" d="m 361.93041,524.09486 6.16213,1.82348 5.21894,1.63485 4.71591,0.8803 3.96136,0.88031 0.12576,4.84167 v 1.82348 l -4.65303,-0.94318 -6.60228,-1.50909 -4.08712,-1.38334 -4.46439,-1.00606 -1.94925,-1.13182 -0.37727,-3.26969 0.37727,-2.01213 z" id="path2301" />
    <path class="elastic2 shape" d="m 385.19557,548.74335 3.20682,0.31439 3.83561,1.13182 1.27872,1.94702 3.31143,1.13404 5.53334,4.40152 8.86591,8.23712 7.4197,7.54546 13.6447,14.27349 9.55758,9.68334 11.44394,10.94091 15.34243,12.82727 9.4947,6.66516 3.96136,2.70379 10.18637,4.84166 -0.69167,3.52122 -0.31439,2.82954 -0.3144,2.45228 -10.0606,-5.09319 -11.12955,-6.85379 -5.84773,-4.40151 -13.27191,-9.93439 -6.35013,-4.91078 -2.58239,-2.03204 -8.89019,-9.14419 -6.94281,-6.94282 -5.75746,-5.54578 -3.85242,-3.76775 -4.44509,-4.95311 -6.85815,-7.23915 -4.9531,-5.50345 -3.0904,-2.9634 -1.3547,-1.43936 -5.22483,-3.62302 -2.26833,-0.52574 -2.54005,-1.18535 -0.93135,-2.03205 -0.71969,-2.62472 0.16934,-3.2174 z" id="path2303" />
    <path class="elastic2 shape" d="m 390.28408,526.73656 3.35883,-0.95967 2.99896,-0.89968 1.38386,-0.41329 4.83183,-1.97813 6.77753,-4.70211 5.67496,-3.79412 3.40498,-2.26998 3.79412,-2.78884 4.50754,-3.3077 4.08598,-2.56184 3.82654,-2.36727 7.26396,-3.40497 7.94494,-1.84842 0.19457,6.61538 0.0649,4.08598 -2.10784,-0.12972 -5.99925,1.97814 -11.02564,6.35595 -5.15611,3.63198 -1.07014,0.84314 -5.57768,3.40498 -2.98341,1.81599 -3.4374,2.62669 -4.02112,3.01584 -10.70136,5.2534 -0.97285,0.51885 -3.56712,0.29185 -1.39442,0.55129 -2.49698,-0.0324 -1.07014,-1.39442 -0.0324,-2.33484 0.48643,-3.59955 z" id="path2305" />
    <path class="elastic2 shape" d="m 478.49707,511.23495 -2.43483,-1.98492 -0.63517,-6.27233 0.0265,-2.96414 0.9263,-1.24388 1.87905,0.42345 2.91121,1.77319 1.13802,0.79396 2.9906,1.66733 3.62578,2.43483 2.67302,1.79966 7.41036,5.5313 4.20802,3.12293 6.96044,5.21372 5.34604,4.36681 7.27802,5.92828 3.51992,2.88475 3.01707,2.46129 4.60501,4.12863 4.71086,4.23449 5.31958,4.6844 3.51992,3.04354 6.9869,5.71655 8.33665,6.66932 11.64484,9.23648 8.70716,6.82811 2.03091,1.68872 -1.69204,3.41933 -0.52876,3.20783 -0.49351,2.1503 -0.66977,-0.42301 -3.59558,-2.53806 -6.55666,-4.72361 -6.62716,-4.72362 -4.40635,-3.41933 -7.13851,-5.50228 -3.74669,-2.89302 -8.1499,-7.06145 -3.92486,-3.34874 -9.39805,-8.10177 -5.83327,-5.22114 -3.45676,-2.98865 -1.76438,-1.65636 -8.31782,-6.8775 -6.26537,-5.14913 -4.82505,-3.52877 -5.14913,-3.74482 -3.34873,-2.48454 -3.49276,-2.26849 -5.68924,-3.78083 -1.18826,-0.86419 z" id="path2307" />
    <path class="elastic2 shape" d="m 517.57428,641.27595 8.23195,0.44497 7.11952,-1.11243 6.74871,-2.00236 10.60512,-4.52386 13.57159,-6.52623 8.75107,-4.22722 6.45207,-3.33727 6.74871,-2.59566 4.22721,-1.18659 2.74399,0.0742 3.04062,5.48797 1.5574,2.96647 -2.15069,0.22248 -7.41617,1.9282 -5.33964,1.85405 -4.07889,2.22485 -5.26548,2.44733 -5.63628,2.59566 -5.19132,3.11479 -2.29443,1.37541 -4.46723,2.09687 -2.14245,1.00284 -13.67519,4.46724 -7.94515,1.50643 -7.69088,0.85454 -7.32464,0.48831 -2.07532,-1.34285 -0.48831,-3.54024 0.36623,-2.1974 1.58701,-1.46493 z" id="path2309" />
    <path class="elastic2 shape" d="m 558.86501,660.68454 4.85535,0.85683 h 6.78321 l 0.64262,-2.14207 1.07103,-2.99889 2.37541,-0.95992 1.5741,1.09313 8.78876,0.30607 9.31347,-0.0437 1.44293,-2.18626 2.09881,-1.83646 4.02271,-2.40488 0.43726,-2.84214 2.18626,-2.66724 2.92826,-1.34826 3.55655,-0.92414 3.2485,-0.30805 2.80042,0.56009 3.05247,2.21234 -0.16802,1.59624 6.58101,-0.53208 5.12478,0.42007 5.34882,0.58809 -3.89259,-4.39668 -4.64872,-4.81674 -5.29281,-4.95676 -4.11663,-3.50053 -2.32436,-1.37221 -2.39289,-0.85527 -1.67395,-2.10217 0.54501,-3.58147 1.4793,-2.8029 1.79074,-1.63502 2.45253,0.35037 0.63233,0.88349 2.76557,1.59082 2.54531,1.41949 5.77588,4.99271 2.79004,2.56978 3.98928,3.62216 3.69558,4.13612 2.59425,2.93689 4.23402,5.23745 3.15715,3.89138 h 4.47876 l 5.76383,1.64662 8.28313,3.01205 7.48583,3.63218 3.80935,1.7275 9.56768,6.42274 6.95429,5.1825 4.11942,2.96775 7.70729,7.08717 5.80263,6.28987 8.28313,9.78915 3.76506,3.67647 10.1859,11.44484 7.8377,5.34954 9.70381,4.7275 11.81875,0.49763 5.10073,-1.86612 4.8519,-4.8519 1.15279,-2.36712 2.796,-3.45499 2.30156,-5.26071 1.69877,-5.91829 0.0548,-11.6722 -1.69877,-6.57588 -0.71239,-4.60312 0.0548,-3.06875 3.83593,-0.38359 3.39754,0.27399 2.52076,1.26038 2.52076,1.42477 2.84955,6.1923 1.15865,4.90497 0.21129,6.23293 -0.0704,4.12008 -0.17608,4.15529 -1.6336,6.46896 -3.28123,6.82497 -1.05,2.65124 -2.28374,3.72749 -3.54374,2.86124 -6.47024,4.31702 -7.19708,3.45937 -6.28253,2.74364 -5.92467,1.94838 -5.80537,0.87478 -7.47542,-0.19882 -8.43443,-2.26839 -6.5877,-2.90482 -7.41764,-5.23903 -6.74332,-5.80963 -4.25348,-4.35722 -6.9652,-8.92605 -5.12749,-6.70517 -5.32469,-2.76096 -15.6363,-8.90133 -4.89047,-2.95578 -12.14557,-9.99591 -4.08435,-3.4932 -4.29931,-4.19183 -2.95578,-2.79456 -3.81564,-4.35305 -7.97864,-0.66573 -5.64033,-1.21655 -8.46051,-0.11059 -6.08272,0.22119 -0.49767,3.37314 -1.38244,3.04136 -1.49303,2.32249 -2.65428,2.65428 -2.59898,1.49303 -3.20725,1.16124 -3.15195,1.32714 -3.04136,0.77417 -3.31784,-0.27649 -3.70493,-2.04601 -2.59898,-3.04135 -1.27184,-0.88476 -6.3592,0.44238 -9.23467,0.27648 -8.40521,0.0553 -4.92147,-0.16589 -2.59898,-0.94006 -1.60363,-1.54833 -0.71886,-1.88011 0.0553,-2.54368 z" id="path2311" />
    <path class="elastic2 shape" d="m 590.24092,590.11519 3.20613,-0.69151 5.72072,1.00584 6.28652,1.63449 6.97803,1.4459 5.65787,1.00584 0.37719,5.09208 -0.12573,2.82893 -5.595,0.12573 -7.66955,-1.50876 -5.65787,-1.57163 -5.34353,-1.82309 -3.52045,-1.63449 -1.38304,-1.94882 0.50293,-2.95467 z" id="path2313" />
    <path class="elastic2 shape" d="m 625.41361,594.41699 1.93729,-2.2208 2.12629,-0.70876 2.3153,-0.28351 3.30757,-0.94502 2.88231,-0.89776 5.18019,-2.23821 7.53031,-4.51868 5.55322,-4.07103 6.16502,-4.48139 11.48198,-8.08412 5.33936,-3.77587 4.67784,-3.35482 12.28525,-8.69418 5.24486,-3.49657 5.95362,-3.26031 6.18987,-1.79554 4.48884,0.37801 -0.189,3.11856 -0.85052,5.38661 -0.99227,1.70104 -7.3239,2.36254 -5.24081,2.64296 -5.41934,3.16344 -1.24463,0.72603 -3.75982,2.61892 -4.79702,3.37087 -4.22656,3.52646 -3.4746,2.90414 -8.03825,6.11944 -5.21189,3.99319 -2.46334,1.65951 -3.57831,2.33369 -3.60425,2.35961 -3.39681,2.02253 -2.67077,1.63358 -3.60424,2.15217 -5.80829,2.6967 -1.55579,0.75197 -7.75301,2.46333 -6.22316,0.62232 -1.50393,-0.85569 -0.64825,-2.72263 0.33709,-2.6967 z" id="path2315" />
      <path class="elastic2 shape" d="m 747.0937,558.34881 -0.97929,-2.88632 0.0515,-2.9894 0.51542,-4.32949 0.82466,-1.54624 1.70087,0.2577 0.10308,0.6185 3.65945,3.09249 2.78324,3.96869 2.83478,5.72111 2.42245,9.17438 1.34008,8.96822 0.46387,8.91667 0.46387,11.69992 0.30925,7.26735 0.46388,8.55588 1.08237,11.69992 1.64932,8.19509 1.59779,6.75193 1.80395,5.05107 1.95858,4.27794 -3.71099,5.05107 -1.80395,1.70087 -2.23234,-3.42666 -3.26167,-5.009 -1.39786,-5.09636 -2.5045,-10.19271 -1.04839,-8.59101 -0.2621,-5.59143 -0.37859,-8.82398 -0.61156,-10.39658 -0.66981,-10.0471 -0.32034,-5.18373 -1.01927,-9.75588 -0.5242,-4.80514 -1.54347,-4.33919 -1.28137,-3.6985 z" id="path2319" />

  </g>
</svg>
