<?xml version="1.0" standalone="no"?>
<!DOCTYPE svg PUBLIC "-//W3C//DTD SVG 20010904//EN"
 "http://www.w3.org/TR/2001/REC-SVG-20010904/DTD/svg10.dtd">
<svg version="1.0" xmlns="http://www.w3.org/2000/svg"
 width="500.000000pt" height="500.000000pt" viewBox="0 0 500.000000 500.000000"
 preserveAspectRatio="xMidYMid meet">
<metadata>
Created by potrace 1.14, written by Peter Selinger 2001-2017
</metadata>
<g transform="translate(0.000000,500.000000) scale(0.100000,-0.100000)"
fill="#000000" stroke="none">
<path d="M1795 4873 c-158 -22 -294 -126 -373 -283 -23 -47 -42 -90 -42 -97 0
-7 -17 -15 -37 -18 -302 -46 -474 -146 -459 -268 12 -104 133 -169 346 -185
l94 -7 12 -96 c27 -216 96 -282 404 -384 28 -9 49 -20 48 -23 -76 -141 -104
-303 -78 -441 9 -50 8 -55 -21 -97 -47 -69 -85 -152 -108 -239 -12 -44 -37
-116 -56 -160 -19 -44 -39 -98 -45 -120 -6 -26 -28 -59 -63 -95 -70 -72 -120
-150 -158 -247 -32 -77 -32 -79 -19 -153 6 -41 16 -83 22 -93 6 -13 6 -35 -2
-67 -16 -66 -16 -150 -1 -178 18 -33 70 -62 111 -62 46 0 98 36 144 99 l37 50
37 -19 c126 -68 277 64 385 338 21 50 37 98 37 105 0 8 18 33 40 58 23 24 57
70 77 102 20 31 39 57 43 57 5 0 36 -37 70 -83 l62 -82 -5 -65 c-2 -36 -9 -74
-15 -85 -6 -11 -21 -54 -34 -95 -20 -65 -23 -95 -22 -230 1 -85 9 -218 19
-295 12 -91 19 -210 19 -340 l1 -200 -33 -74 c-18 -40 -35 -91 -38 -112 -5
-32 -14 -43 -48 -63 -23 -14 -61 -45 -84 -70 -39 -43 -46 -46 -92 -46 -118 0
-223 -74 -260 -184 -24 -71 -27 -193 -6 -234 33 -64 43 -67 215 -66 112 1 173
5 216 17 69 20 295 22 615 7 946 -45 1359 -55 1603 -36 92 7 112 11 136 32 36
30 47 81 27 127 -28 69 -15 67 -472 67 -455 0 -834 9 -834 20 0 4 28 26 63 49
68 44 175 150 300 299 62 74 89 98 131 116 93 41 113 101 65 191 -73 139 -219
381 -321 534 -114 171 -168 273 -210 401 -24 71 -25 82 -17 190 5 63 9 201 8
305 -1 105 3 235 8 290 l8 100 60 14 c290 65 445 163 520 324 34 73 46 112 67
212 12 61 5 377 -10 420 -6 17 -21 61 -33 99 -38 123 -118 236 -265 375 -85
81 -201 172 -259 204 -105 58 -123 62 -275 62 -184 0 -196 -4 -497 -159 -62
-32 -116 -55 -121 -52 -5 3 -12 43 -15 88 -12 172 -73 323 -168 413 -56 53
-164 115 -202 115 -10 0 -26 4 -35 9 -20 10 -174 21 -217 14z m189 -244 c98
-27 153 -92 188 -222 15 -55 16 -72 6 -78 -32 -20 -363 -40 -473 -29 -117 12
-119 13 -112 75 10 102 77 203 161 245 47 23 163 28 230 9z m1200 -434 c65
-29 178 -118 285 -226 135 -135 170 -207 197 -397 16 -115 16 -127 0 -229 -18
-105 -46 -185 -83 -230 -21 -26 -165 -103 -193 -103 -10 0 -21 -4 -24 -9 -8
-12 -162 -34 -186 -26 -23 7 -46 80 -55 175 -11 107 -45 364 -51 383 -7 22 -7
22 60 -9 97 -44 180 -33 212 28 36 70 4 134 -84 167 -43 16 -76 38 -112 74
-58 59 -63 75 -20 69 67 -10 134 72 116 144 -18 71 -152 143 -318 169 -45 7
-49 20 -10 29 117 30 186 27 266 -9z m-1074 -118 c0 -16 -120 -61 -220 -82
-41 -9 -93 -21 -115 -25 -22 -5 -79 -9 -127 -10 -86 0 -88 1 -88 24 0 23 2 23
118 29 102 5 174 17 392 67 19 4 36 8 38 9 1 0 2 -5 2 -12z m473 -181 c43 -13
73 -32 117 -72 32 -31 62 -65 66 -77 3 -12 12 -35 19 -52 38 -90 81 -274 94
-405 26 -260 48 -365 101 -471 28 -57 31 -73 31 -148 0 -46 -2 -85 -3 -87 -2
-1 -34 -7 -73 -13 -38 -6 -95 -16 -125 -22 -33 -6 -120 -9 -215 -7 -141 4
-170 8 -242 32 -91 31 -86 20 -48 111 9 22 22 53 28 69 35 87 67 133 116 167
72 50 119 97 144 144 21 37 22 53 20 227 0 107 -6 202 -12 221 -19 55 -55 82
-111 82 -37 0 -54 -5 -74 -24 -40 -38 -49 -78 -37 -166 13 -87 14 -225 3 -240
-4 -6 -27 -26 -52 -44 -117 -89 -157 -146 -230 -331 -23 -58 -50 -125 -62
-150 -11 -25 -23 -54 -28 -65 -61 -152 -133 -254 -183 -256 -41 -2 -72 2 -99
13 -33 12 -37 49 -14 101 41 90 78 194 91 255 4 18 13 45 21 60 8 15 14 31 14
35 0 21 73 110 161 198 53 52 114 122 135 155 33 51 39 68 42 130 2 38 -1 88
-8 110 -6 21 -18 62 -26 89 -8 28 -19 75 -24 105 -4 30 -11 62 -14 70 -4 11
10 23 50 44 55 29 124 103 124 133 0 8 19 35 43 59 l42 44 80 -4 c44 -2 106
-11 138 -20z m414 -1718 c-7 -212 -17 -258 -71 -311 -22 -23 -61 -56 -86 -73
-29 -19 -56 -50 -75 -85 -29 -53 -30 -57 -29 -189 0 -74 6 -192 14 -262 11
-106 11 -146 0 -240 -13 -116 -11 -180 10 -301 6 -38 9 -72 5 -75 -9 -9 -176
-8 -246 2 -31 4 -64 13 -74 19 -15 12 -15 18 9 80 51 135 56 275 25 622 -39
428 -40 423 32 635 29 88 59 224 59 273 0 27 1 27 68 28 37 0 117 8 177 18 61
10 128 19 149 20 l39 1 -6 -162z m-1292 -78 c44 -1 48 -14 22 -66 -14 -27 -34
-60 -45 -74 l-20 -24 -40 18 c-40 18 -69 18 -128 1 -18 -6 -22 -1 -27 25 -7
32 20 99 65 162 l19 27 67 -34 c37 -19 76 -35 87 -35z m1680 -976 c8 -10 15
-24 15 -31 0 -15 -179 -135 -191 -127 -5 3 -9 12 -9 20 0 8 -12 42 -26 75 -14
34 -23 66 -21 73 3 7 40 11 111 10 93 0 108 -3 121 -20z m-395 -239 c0 -8 -4
-15 -10 -15 -5 0 -7 7 -4 15 4 8 8 15 10 15 2 0 4 -7 4 -15z m470 -51 c0 -4
-19 -28 -42 -53 -24 -26 -63 -71 -88 -101 -87 -106 -135 -152 -193 -186 -32
-19 -65 -34 -74 -34 -14 0 -14 2 0 23 8 13 21 43 28 68 7 24 16 49 20 54 3 6
10 25 14 42 6 28 13 34 48 43 66 17 110 39 194 96 77 52 93 60 93 48z m-1104
-383 c20 -19 165 -43 287 -48 70 -3 127 -9 127 -13 0 -4 -51 -10 -113 -13 -61
-4 -153 -16 -202 -28 -155 -35 -269 -59 -272 -55 -2 2 3 16 11 32 8 16 19 41
25 56 18 48 109 94 137 69z m-347 -177 c17 -4 28 -10 25 -15 -7 -12 -104 -12
-104 0 0 18 32 24 79 15z"/>
</g>
</svg>
